/* XPM */
static char * frame_bottom_mid_focused_xpm[] = {
"22 3 3 1",
" 	c None",
".	c #979797",
"+	c #808080",
"......................",
"......................",
"++++++++++++++++++++++"};
