/* XPM */
static char * frame_bottom_left_focused1_xpm[] = {
"22 3 8 1",
" 	c None",
".	c #8F8F8F",
"+	c #999999",
"@	c #979797",
"#	c #808080",
"$	c #969696",
"%	c #757575",
"&	c #797979",
".+@@@@@@@@@@@@@@@@@@@@",
"#$@@@@@@@@@@@@@@@@@@@@",
"%&####################"};
