/* XPM */
static char * frame_bottom_right_focused_xpm[] = {
"22 3 8 1",
" 	c None",
".	c #979797",
"+	c #999999",
"@	c #8F8F8F",
"#	c #969696",
"$	c #808080",
"%	c #797979",
"&	c #757575",
"....................+@",
"....................#$",
"$$$$$$$$$$$$$$$$$$$$%&"};
