/* XPM */
static char * copy of back_xpm[] = {
"16 19 157 2",
"  	c None",
". 	c #ECECEC",
"+ 	c #D7D7D7",
"@ 	c #C4C4C4",
"# 	c #C3C3C3",
"$ 	c #C0BFC1",
"% 	c #A09092",
"& 	c #714648",
"* 	c #53191A",
"= 	c #A19092",
"- 	c #B2AAAD",
"; 	c #531618",
"> 	c #551012",
", 	c #682223",
"' 	c #7B3A3B",
") 	c #7A393A",
"! 	c #682123",
"~ 	c #540F12",
"{ 	c #B3ABAD",
"] 	c #4C080A",
"^ 	c #6B1416",
"/ 	c #9C3335",
"( 	c #CC7F81",
"_ 	c #F3DCDC",
": 	c #F3D9DA",
"< 	c #CB7B7C",
"[ 	c #9B3134",
"} 	c #6B1415",
"| 	c #C2C2C2",
"1 	c #BFBEC0",
"2 	c #55191B",
"3 	c #751416",
"4 	c #AF2224",
"5 	c #CC3336",
"6 	c #DF6668",
"7 	c #F1B5B6",
"8 	c #F0B3B3",
"9 	c #DE6364",
"0 	c #CB3234",
"a 	c #AE2123",
"b 	c #A29092",
"c 	c #621013",
"d 	c #B62023",
"e 	c #D12224",
"f 	c #DF2628",
"g 	c #E83A3C",
"h 	c #EF6666",
"i 	c #EF6465",
"j 	c #E8393A",
"k 	c #DF2627",
"l 	c #814B4D",
"m 	c #961D1F",
"n 	c #D22325",
"o 	c #E52426",
"p 	c #EF2627",
"q 	c #F4292A",
"r 	c #F63132",
"s 	c #E52526",
"t 	c #824B4E",
"u 	c #C1C1C1",
"v 	c #762023",
"w 	c #B52426",
"x 	c #E32B2C",
"y 	c #F22E2F",
"z 	c #F83233",
"A 	c #B22727",
"B 	c #340C0C",
"C 	c #F83434",
"D 	c #F23030",
"E 	c #E42C2D",
"F 	c #B52527",
"G 	c #832629",
"H 	c #C12C2E",
"I 	c #EF3839",
"J 	c #F93F40",
"K 	c #FC4848",
"L 	c #7E2929",
"M 	c #000000",
"N 	c #7E2A2A",
"O 	c #FC4B4B",
"P 	c #F94242",
"Q 	c #EF3A3B",
"R 	c #C12E30",
"S 	c #832729",
"T 	c #C0C0C0",
"U 	c #A65D5F",
"V 	c #C13536",
"W 	c #F44849",
"X 	c #FB5354",
"Y 	c #FD6262",
"Z 	c #B25050",
"` 	c #341A1A",
" .	c #B25252",
"..	c #FD6565",
"+.	c #FB5757",
"@.	c #F44B4B",
"#.	c #C13839",
"$.	c #A75F60",
"%.	c #B89A9C",
"&.	c #B0393A",
"*.	c #F25959",
"=.	c #FC6868",
"-.	c #FD7979",
";.	c #FD8B8B",
">.	c #FE9999",
",.	c #FD8D8E",
"'.	c #FD7C7C",
").	c #FC6B6B",
"!.	c #F35C5C",
"~.	c #B13B3D",
"{.	c #B89B9D",
"].	c #BFBFBF",
"^.	c #BFBCBE",
"/.	c #AD5152",
"(.	c #D25D5E",
"_.	c #FB7979",
":.	c #FD9C9C",
"<.	c #FEA7A7",
"[.	c #FEA8A8",
"}.	c #FD9E9E",
"|.	c #FD8E8E",
"1.	c #FB7D7D",
"2.	c #D26161",
"3.	c #AF5455",
"4.	c #BFBCBD",
"5.	c #C1B1B3",
"6.	c #B96061",
"7.	c #DC7E7F",
"8.	c #FA9696",
"9.	c #FDA4A4",
"0.	c #FDADAD",
"a.	c #FDAEAE",
"b.	c #FDA6A6",
"c.	c #FA9898",
"d.	c #DD8282",
"e.	c #BB6464",
"f.	c #BFABAE",
"g.	c #BEBEBE",
"h.	c #C0B2B4",
"i.	c #BD7474",
"j.	c #D38F8F",
"k.	c #E59F9F",
"l.	c #EEA8A8",
"m.	c #E5A0A0",
"n.	c #D49192",
"o.	c #BE7677",
"p.	c #C0B1B3",
"q.	c #BFBDBE",
"r.	c #BCA2A3",
"s.	c #BE8C8C",
"t.	c #C88C8D",
"u.	c #C88D8D",
"v.	c #BCA2A4",
"w.	c #BDBDBD",
"x.	c #D3C2C2",
"y.	c #D5C2C2",
"z.	c #BCBCBC",
". . . . . . . . . . . . . . . . ",
"+ + + + + + + + + + + + + + + + ",
"@ @ @ @ @ @ @ @ @ @ @ @ @ @ @ @ ",
"# # # # $ % & * * & = $ # # # # ",
"# # # - ; > , ' ) ! ~ ; - # # # ",
"# # { ] ^ / ( _ : < [ } ] { # # ",
"| 1 2 3 4 5 6 7 8 9 0 a 3 2 1 | ",
"| b c d e f g h i j k e d c b | ",
"| l m n o p q r r q p s n m t | ",
"u v w x y z A B B A C D E F v u ",
"u G H I J K L M M N O P Q R S u ",
"T U V W X Y Z ` `  ...+.@.#.$.T ",
"T %.&.*.=.-.;.>.>.,.'.).!.~.{.T ",
"].^./.(._.;.:.<.[.}.|.1.2.3.4.].",
"].].5.6.7.8.9.0.a.b.c.d.e.f.].].",
"g.g.g.h.i.j.k.l.l.m.n.o.p.g.g.g.",
"g.g.g.g.q.r.s.t.u.s.v.q.g.g.g.g.",
"w.w.w.w.w.w.x.y.y.x.w.w.w.w.w.w.",
"z.z.z.z.z.z.z.z.z.z.z.z.z.z.z.z."};
