/* XPM */
static char * copy of back_xpm[] = {
"16 19 83 1",
" 	c None",
".	c #ECECEC",
"+	c #D7D7D7",
"@	c #C4C4C4",
"#	c #C3C3C3",
"$	c #C2C2C2",
"%	c #B3B3B3",
"&	c #959695",
"*	c #868685",
"=	c #858585",
"-	c #959595",
";	c #B4B4B4",
">	c #BCBCBC",
",	c #7F7F7F",
"'	c #878787",
")	c #949494",
"!	c #9E9E9D",
"~	c #9D9D9C",
"{	c #929292",
"]	c #7E7E7E",
"^	c #939393",
"/	c #A7A7A6",
"(	c #BDBDBC",
"_	c #CFCFCE",
":	c #CCCDCB",
"<	c #B9B9B9",
"[	c #A5A5A5",
"}	c #C0C0C0",
"|	c #888888",
"1	c #9B9B9B",
"2	c #AEAEAE",
"3	c #B7B7B7",
"4	c #CCCCCB",
"5	c #CACAC9",
"6	c #BDBDBD",
"7	c #B6B6B5",
"8	c #ADADAD",
"9	c #B5B5B5",
"0	c #979797",
"a	c #BABABA",
"b	c #BFBFBE",
"c	c #C5C5C5",
"d	c #BEBEBD",
"e	c #9E9E9E",
"f	c #AAAAAA",
"g	c #C1C1C1",
"h	c #909090",
"i	c #BFBFBF",
"j	c #C8C8C8",
"k	c #CBCBCB",
"l	c #CDCDCD",
"m	c #CACACA",
"n	c #C7C7C7",
"o	c #969696",
"p	c #BBBBBB",
"q	c #C6C6C6",
"r	c #D1D1D1",
"s	c #D5D5D5",
"t	c #D8D8D8",
"u	c #D0D0D0",
"v	c #A6A6A6",
"w	c #D3D3D3",
"x	c #D9D9D9",
"y	c #DDDDDD",
"z	c #E0E0E0",
"A	c #D2D2D2",
"B	c #CCCCCC",
"C	c #B8B8B8",
"D	c #AFAFAF",
"E	c #DEDEDE",
"F	c #E3E3E3",
"G	c #E6E6E6",
"H	c #BEBEBE",
"I	c #DCDCDC",
"J	c #E1E1E1",
"K	c #E5E5E5",
"L	c #E7E7E7",
"M	c #DBDBDB",
"N	c #A9A9A9",
"O	c #D6D6D6",
"P	c #E8E8E8",
"Q	c #E2E2E2",
"R	c #DFDFDF",
"................",
"++++++++++++++++",
"@@@@@@@@@@@@@@@@",
"####$%&*=-;$####",
"###>,')!~{=]>###",
"##>]^/(_:<[{]>##",
"$}|123}456781|}$",
"$90%3abc@da3%09$",
"$ef<6}#c@$}6<fe$",
"gh9i@jkllmn#i9hg",
"gopqkrst+sukcp-g",
"}v<lwxyzzytAB<[}",
"}CDAxEFGGFEtr8<}",
"iHfBIJKLLKJMmNii",
"ii}3OFGPPGQO9}ii",
"HHH}>ARKKErp}HHH",
"HHHHH}HnqH}HHHHH",
"666666wssw666666",
">>>>>>>>>>>>>>>>"};
