/* XPM */
static char * copy of back_xpm[] = {
"16 19 166 2",
"  	c None",
". 	c #ECECEC",
"+ 	c #D7D7D7",
"@ 	c #C4C4C4",
"# 	c #C3C3C3",
"$ 	c #C7C9C8",
"% 	c #C9C8C8",
"& 	c #BEBEC0",
"* 	c #9A8E97",
"= 	c #6B484C",
"- 	c #51191B",
"; 	c #6B474C",
"> 	c #9B8E97",
", 	c #BCBCBE",
"' 	c #C5C4C5",
") 	c #ABA5AC",
"! 	c #511719",
"~ 	c #551012",
"{ 	c #682223",
"] 	c #7B3A3B",
"^ 	c #7A393A",
"/ 	c #682123",
"( 	c #540F12",
"_ 	c #ACA5AC",
": 	c #4C080A",
"< 	c #6B1416",
"[ 	c #9C3335",
"} 	c #CC7F81",
"| 	c #F3DCDC",
"1 	c #F3D9DA",
"2 	c #CB7B7C",
"3 	c #9B3134",
"4 	c #6B1415",
"5 	c #C2C2C2",
"6 	c #BEBDBF",
"7 	c #54191C",
"8 	c #751416",
"9 	c #AF2224",
"0 	c #CC3336",
"a 	c #DF6668",
"b 	c #F1B5B6",
"c 	c #F0B3B3",
"d 	c #DE6364",
"e 	c #CB3234",
"f 	c #AE2123",
"g 	c #A18D96",
"h 	c #621013",
"i 	c #B62023",
"j 	c #D12224",
"k 	c #DF2628",
"l 	c #E83A3C",
"m 	c #EF6666",
"n 	c #EF6465",
"o 	c #E8393A",
"p 	c #DF2627",
"q 	c #7D4C52",
"r 	c #961D1F",
"s 	c #D22325",
"t 	c #E52426",
"u 	c #EF2627",
"v 	c #F4292A",
"w 	c #F63132",
"x 	c #E52526",
"y 	c #7E4D54",
"z 	c #C1C1C1",
"A 	c #762023",
"B 	c #B52426",
"C 	c #E32B2C",
"D 	c #F22E2F",
"E 	c #F83233",
"F 	c #FB3737",
"G 	c #FB3A3B",
"H 	c #FB3B3B",
"I 	c #FB3838",
"J 	c #F83434",
"K 	c #F23030",
"L 	c #E42C2D",
"M 	c #B52527",
"N 	c #832629",
"O 	c #C12C2E",
"P 	c #EF3839",
"Q 	c #F93F40",
"R 	c #FC4848",
"S 	c #FD5353",
"T 	c #FD5C5C",
"U 	c #FD5D5D",
"V 	c #FD5555",
"W 	c #FC4B4B",
"X 	c #F94242",
"Y 	c #EF3A3B",
"Z 	c #C12E30",
"` 	c #C0C0C0",
" .	c #A0585E",
"..	c #C13536",
"+.	c #F44849",
"@.	c #FB5354",
"#.	c #FD6262",
"$.	c #FD7272",
"%.	c #FD7F7F",
"&.	c #FE8080",
"*.	c #FD7575",
"=.	c #FD6565",
"-.	c #FB5757",
";.	c #F44B4B",
">.	c #C13839",
",.	c #A25A5F",
"'.	c #B5939B",
").	c #B0393A",
"!.	c #F25959",
"~.	c #FC6868",
"{.	c #FD7979",
"].	c #FD8B8B",
"^.	c #FE9999",
"/.	c #FD8D8E",
"(.	c #FD7C7C",
"_.	c #FC6B6B",
":.	c #F35C5C",
"<.	c #B13B3D",
"[.	c #B6939C",
"}.	c #BFBFBF",
"|.	c #BFBBBD",
"1.	c #AC5151",
"2.	c #D25D5E",
"3.	c #FB7979",
"4.	c #FD9C9C",
"5.	c #FEA7A7",
"6.	c #FEA8A8",
"7.	c #FD9E9E",
"8.	c #FD8E8E",
"9.	c #FB7D7D",
"0.	c #D26161",
"a.	c #AE5354",
"b.	c #BFBBBC",
"c.	c #BEAAB1",
"d.	c #B96061",
"e.	c #DC7E7F",
"f.	c #FA9696",
"g.	c #FDA4A4",
"h.	c #FDADAD",
"i.	c #FDAEAE",
"j.	c #FDA6A6",
"k.	c #FA9898",
"l.	c #DD8282",
"m.	c #BB6464",
"n.	c #B5A9B3",
"o.	c #BEBEBE",
"p.	c #BEABB1",
"q.	c #BC7273",
"r.	c #D38F8F",
"s.	c #E59F9F",
"t.	c #EEA8A8",
"u.	c #E5A0A0",
"v.	c #D49192",
"w.	c #BE7476",
"x.	c #BFABB1",
"y.	c #BFBCBD",
"z.	c #BA9EA6",
"A.	c #B78588",
"B.	c #C78A8B",
"C.	c #C78B8B",
"D.	c #B88589",
"E.	c #BB9EA7",
"F.	c #BDBDBD",
"G.	c #D2C0C1",
"H.	c #D4C1C2",
"I.	c #BCBCBC",
". . . . . . . . . . . . . . . . ",
"+ + + + + + + + + + + + + + + + ",
"@ @ @ @ @ @ @ # # @ $ % @ @ @ @ ",
"# # # # & * = - - ; > , ' # # # ",
"# # # ) ! ~ { ] ^ / ( ! ) # # # ",
"# # _ : < [ } | 1 2 3 4 : _ # # ",
"5 6 7 8 9 0 a b c d e f 8 7 6 5 ",
"5 g h i j k l m n o p j i h g 5 ",
"5 q r s t u v w w v u x s r y 5 ",
"z A B C D E F G H I J K L M A z ",
"z N O P Q R S T U V W X Y Z N z ",
"`  ...+.@.#.$.%.&.*.=.-.;.>.,.` ",
"` '.).!.~.{.].^.^./.(._.:.<.[.` ",
"}.|.1.2.3.].4.5.6.7.8.9.0.a.b.}.",
"}.}.c.d.e.f.g.h.i.j.k.l.m.n.}.}.",
"o.o.o.p.q.r.s.t.t.u.v.w.x.o.o.o.",
"o.o.o.o.y.z.A.B.C.D.E.y.o.o.o.o.",
"F.F.F.F.F.F.G.H.H.G.F.F.F.F.F.F.",
"I.I.I.I.I.I.I.I.I.I.I.I.I.I.I.I."};
