/* XPM */
static char * copy of back_xpm[] = {
"16 19 149 2",
"  	c None",
". 	c #ECECEC",
"+ 	c #D7D7D7",
"@ 	c #C4C4C4",
"# 	c #C3C3C3",
"$ 	c #C1C1C0",
"% 	c #A3948D",
"& 	c #854E46",
"* 	c #72231A",
"= 	c #854E47",
"- 	c #A3948E",
"; 	c #B2ACA7",
"> 	c #722116",
", 	c #761E0E",
"' 	c #873721",
") 	c #914D3B",
"! 	c #914D3C",
"~ 	c #873722",
"{ 	c #B2ADA7",
"] 	c #6E1306",
"^ 	c #872B0C",
"/ 	c #BD6428",
"( 	c #E6A56E",
"_ 	c #F8E3C9",
": 	c #F8E4CD",
"< 	c #E6A772",
"[ 	c #BD652A",
"} 	c #C2C2C2",
"| 	c #C0C0BF",
"1 	c #722115",
"2 	c #862A0A",
"3 	c #D36B1B",
"4 	c #F99133",
"5 	c #F8AD65",
"6 	c #FBD9B5",
"7 	c #FBDBB7",
"8 	c #F9AF68",
"9 	c #F99235",
"0 	c #D36C1C",
"a 	c #A6968E",
"b 	c #852509",
"c 	c #C3621A",
"d 	c #FA972F",
"e 	c #FCA23A",
"f 	c #FDB252",
"g 	c #FDC77C",
"h 	c #FDC77D",
"i 	c #FCB253",
"j 	c #A6968F",
"k 	c #955949",
"l 	c #A84915",
"m 	c #F29D38",
"n 	c #FEB144",
"o 	c #FFB64A",
"p 	c #FFBB50",
"q 	c #FFBF59",
"r 	c #FFBF5A",
"s 	c #965A49",
"t 	c #C1C1C1",
"u 	c #A2451E",
"v 	c #CD7A2B",
"w 	c #FEB84B",
"x 	c #FFBE53",
"y 	c #FFC358",
"z 	c #FFC65B",
"A 	c #FFC85E",
"B 	c #FFC75E",
"C 	c #FFC55C",
"D 	c #FFBF52",
"E 	c #B25D27",
"F 	c #E1983D",
"G 	c #FFC95F",
"H 	c #FFCD63",
"I 	c #FED166",
"J 	c #FED569",
"K 	c #FED267",
"L 	c #FFCE63",
"M 	c #C0C0C0",
"N 	c #AE7F58",
"O 	c #D4933E",
"P 	c #FECB61",
"Q 	c #FED168",
"R 	c #FED66C",
"S 	c #FEDB6F",
"T 	c #FEE171",
"U 	c #FDE071",
"V 	c #FEDC6F",
"W 	c #FFD76C",
"X 	c #FFD268",
"Y 	c #FFCB61",
"Z 	c #D3933F",
"` 	c #AF7F58",
" .	c #B2A796",
"..	c #BE8639",
"+.	c #FCCE67",
"@.	c #FFD76E",
"#.	c #FEDC71",
"$.	c #FDE273",
"%.	c #FEE674",
"&.	c #FEE774",
"*.	c #FDE373",
"=.	c #FEDD71",
"-.	c #FFD86E",
";.	c #FCCF67",
">.	c #BFBFBF",
",.	c #BEBEBD",
"'.	c #B98945",
").	c #D7AD54",
"!.	c #FEDA71",
"~.	c #FEE073",
"{.	c #FFE575",
"].	c #FEE775",
"^.	c #FFE774",
"/.	c #FEE074",
"(.	c #FEDB71",
"_.	c #D7AE55",
":.	c #B98A45",
"<.	c #B8B5AB",
"[.	c #B88D41",
"}.	c #DBB75C",
"|.	c #FCDE73",
"1.	c #FDE375",
"2.	c #FEE474",
"3.	c #FEE574",
"4.	c #FDE374",
"5.	c #FBDD72",
"6.	c #DBB95C",
"7.	c #B98E42",
"8.	c #B8B6AB",
"9.	c #BEBEBE",
"0.	c #B8B5AA",
"a.	c #BA954F",
"b.	c #D0AD55",
"c.	c #E7C764",
"d.	c #F2D46B",
"e.	c #F3D46B",
"f.	c #E8C865",
"g.	c #D2AF56",
"h.	c #BC9750",
"i.	c #BDBDBC",
"j.	c #B2AB99",
"k.	c #B7A06D",
"l.	c #CAA557",
"m.	c #B8A06E",
"n.	c #BDBDBD",
"o.	c #D2CAB5",
"p.	c #D5CAB3",
"q.	c #D3CAB5",
"r.	c #BCBCBC",
". . . . . . . . . . . . . . . . ",
"+ + + + + + + + + + + + + + + + ",
"@ @ @ @ @ @ @ @ @ @ @ @ @ @ @ @ ",
"# # # # $ % & * * = - $ # # # # ",
"# # # ; > , ' ) ! ~ , > ; # # # ",
"# # { ] ^ / ( _ : < [ ^ ] { # # ",
"} | 1 2 3 4 5 6 7 8 9 0 2 1 | } ",
"} a b c d e f g h i e d c b j } ",
"} k l m n o p q r p o n m l s } ",
"t u v w x y z A B C y D w v u t ",
"t E F y G H I J J K L G y F E t ",
"M N O P Q R S T U V W X Y Z ` M ",
"M  ...+.@.#.$.%.&.*.=.-.;... .M ",
">.,.'.).!.~.{.].^.{./.(._.:.,.>.",
">.>.<.[.}.|.1.2.3.4.5.6.7.8.>.>.",
"9.9.9.0.a.b.c.d.e.f.g.h.8.9.9.9.",
"9.9.9.9.i.j.k.l.l.m.j.i.9.9.9.9.",
"n.n.n.n.n.n.o.p.p.q.n.n.n.n.n.n.",
"r.r.r.r.r.r.r.r.r.r.r.r.r.r.r.r."};
