/* XPM */
static char * copy of back_xpm[] = {
"16 19 141 2",
"  	c None",
". 	c #ECECEC",
"+ 	c #D7D7D7",
"@ 	c #C4C4C4",
"# 	c #C3C3C3",
"$ 	c #C1C0BE",
"% 	c #A8968F",
"& 	c #865646",
"* 	c #712319",
"= 	c #A8978F",
"- 	c #B7AFA5",
"; 	c #722316",
"> 	c #761E0E",
", 	c #873721",
"' 	c #914D3B",
") 	c #914D3C",
"! 	c #873722",
"~ 	c #B7AEA5",
"{ 	c #6E1306",
"] 	c #872B0C",
"^ 	c #BD6428",
"/ 	c #E6A56E",
"( 	c #F8E3C9",
"_ 	c #F8E4CD",
": 	c #E6A772",
"< 	c #BD652A",
"[ 	c #C2C2C2",
"} 	c #C0BFBD",
"| 	c #722215",
"1 	c #862A0A",
"2 	c #D36B1B",
"3 	c #F99133",
"4 	c #F8AD65",
"5 	c #FBD9B5",
"6 	c #FBDBB7",
"7 	c #F9AF68",
"8 	c #F99235",
"9 	c #D36C1C",
"0 	c #732215",
"a 	c #C1BFBD",
"b 	c #AD988D",
"c 	c #852509",
"d 	c #C3621A",
"e 	c #FA972F",
"f 	c #FCA23A",
"g 	c #FDB252",
"h 	c #FDC77C",
"i 	c #FDC77D",
"j 	c #FCB253",
"k 	c #AE988D",
"l 	c #9C5E46",
"m 	c #A84915",
"n 	c #F29D38",
"o 	c #FEB144",
"p 	c #FFB64A",
"q 	c #FFBB50",
"r 	c #FFBF59",
"s 	c #FFBF5A",
"t 	c #9D5F47",
"u 	c #C1C1C1",
"v 	c #A3451D",
"w 	c #CD7A2B",
"x 	c #FEB84B",
"y 	c #999999",
"z 	c #A2451D",
"A 	c #B35D26",
"B 	c #E1983D",
"C 	c #FFC358",
"D 	c #C0C0C0",
"E 	c #B88453",
"F 	c #D4933E",
"G 	c #FECB61",
"H 	c #FED168",
"I 	c #FED66C",
"J 	c #FEDB6F",
"K 	c #FEE171",
"L 	c #FDE071",
"M 	c #FEDC6F",
"N 	c #FFD76C",
"O 	c #FFD268",
"P 	c #FFCB61",
"Q 	c #D3933F",
"R 	c #C0AE96",
"S 	c #BE8639",
"T 	c #FCCE67",
"U 	c #FFD76E",
"V 	c #FEDC71",
"W 	c #FDE273",
"X 	c #FEE674",
"Y 	c #FEE774",
"Z 	c #FDE373",
"` 	c #FEDD71",
" .	c #FFD86E",
"..	c #FCCF67",
"+.	c #BFBFBF",
"@.	c #C0BFBB",
"#.	c #BB8C44",
"$.	c #D7AD54",
"%.	c #FEDA71",
"&.	c #FEE073",
"*.	c #FFE575",
"=.	c #FEE775",
"-.	c #FFE774",
";.	c #FEE074",
">.	c #FEDB71",
",.	c #D7AE55",
"'.	c #BC8D44",
").	c #C5BFAD",
"!.	c #B88D41",
"~.	c #DBB75C",
"{.	c #FCDE73",
"].	c #FDE375",
"^.	c #FEE474",
"/.	c #FEE574",
"(.	c #FDE374",
"_.	c #FBDD72",
":.	c #DBB95C",
"<.	c #B98E42",
"[.	c #C6BFAD",
"}.	c #BEBEBE",
"|.	c #C5C0AD",
"1.	c #BC974E",
"2.	c #D0AD55",
"3.	c #E7C764",
"4.	c #F2D46B",
"5.	c #F3D46B",
"6.	c #E8C865",
"7.	c #D2AF56",
"8.	c #BE994F",
"9.	c #C5C0AE",
"0.	c #BFBFBC",
"a.	c #C0B89E",
"b.	c #BDA768",
"c.	c #CBA756",
"d.	c #BEA969",
"e.	c #C1B99F",
"f.	c #BDBDBD",
"g.	c #D3CBB4",
"h.	c #D5CBB2",
"i.	c #D4CBB4",
"j.	c #BCBCBC",
". . . . . . . . . . . . . . . . ",
"+ + + + + + + + + + + + + + + + ",
"@ @ @ @ @ @ @ @ @ @ @ @ @ @ @ @ ",
"# # # # $ % & * * & = $ # # # # ",
"# # # - ; > , ' ) ! > ; ~ # # # ",
"# # - { ] ^ / ( _ : < ] { - # # ",
"[ } | 1 2 3 4 5 6 7 8 9 1 0 a [ ",
"[ b c d e f g h i j f e d c k [ ",
"[ l m n o p q r s q p o n m t [ ",
"u v w x y y y y y y y y x w z u ",
"u A B C y y y y y y y y C B A u ",
"D E F G H I J K L M N O P Q E D ",
"D R S T U V W X Y Z `  ...S R D ",
"+.@.#.$.%.&.*.=.-.*.;.>.,.'.@.+.",
"+.+.).!.~.{.].^./.(._.:.<.[.+.+.",
"}.}.}.|.1.2.3.4.5.6.7.8.9.}.}.}.",
"}.}.}.}.0.a.b.c.c.d.e.0.}.}.}.}.",
"f.f.f.f.f.f.g.h.h.i.f.f.f.f.f.f.",
"j.j.j.j.j.j.j.j.j.j.j.j.j.j.j.j."};
