/* XPM */
static char * copy of back_xpm[] = {
"16 19 140 2",
"  	c None",
". 	c #ECECEC",
"+ 	c #D7D7D7",
"@ 	c #C4C4C4",
"# 	c #C3C3C3",
"$ 	c #C0C0C0",
"% 	c #949A92",
"& 	c #4C5C48",
"* 	c #253B1D",
"= 	c #253B1C",
"- 	c #4C5B47",
"; 	c #ACAFAC",
"> 	c #1F3817",
", 	c #244218",
"' 	c #47643A",
") 	c #667C5C",
"! 	c #617956",
"~ 	c #405F32",
"{ 	c #203F14",
"] 	c #1F3716",
"^ 	c #ACAFAB",
"/ 	c #112D07",
"( 	c #244A13",
"_ 	c #497132",
": 	c #8EAC7D",
"< 	c #DBE7D2",
"[ 	c #CFDFC5",
"} 	c #7DA068",
"| 	c #426C29",
"1 	c #224810",
"2 	c #112D06",
"3 	c #C2C2C2",
"4 	c #BFBFBF",
"5 	c #1F3717",
"6 	c #22490F",
"7 	c #3F7420",
"8 	c #5A9237",
"9 	c #86B16B",
"0 	c #6B6B6B",
"a 	c #78A85A",
"b 	c #548E30",
"c 	c #3E731F",
"d 	c #21490F",
"e 	c #959F92",
"f 	c #1D480D",
"g 	c #407522",
"h 	c #56972E",
"i 	c #5D9F35",
"j 	c #6FAC49",
"k 	c #69A842",
"l 	c #5C9E33",
"m 	c #56764B",
"n 	c #366B1C",
"o 	c #5E9F35",
"p 	c #67AC3B",
"q 	c #6CB13F",
"r 	c #71B643",
"s 	c #70B542",
"t 	c #6BB03E",
"u 	c #66AB3B",
"v 	c #356A1C",
"w 	c #C1C1C1",
"x 	c #396A26",
"y 	c #549031",
"z 	c #70B443",
"A 	c #538F30",
"B 	c #4A7B30",
"C 	c #64A03C",
"D 	c #80C14E",
"E 	c #7FC04E",
"F 	c #639F3C",
"G 	c #497B30",
"H 	c #789A64",
"I 	c #69A141",
"J 	c #8DC957",
"K 	c #97D05D",
"L 	c #A3D763",
"M 	c #AFDD6B",
"N 	c #AEDC6A",
"O 	c #A0D662",
"P 	c #95D05C",
"Q 	c #8BC956",
"R 	c #68A041",
"S 	c #779A63",
"T 	c #A5B19E",
"U 	c #61923D",
"V 	c #94CC5D",
"W 	c #A2D665",
"X 	c #AFDD6D",
"Y 	c #BCE376",
"Z 	c #BBE275",
"` 	c #ADDC6B",
" .	c #A0D664",
"..	c #92CB5C",
"+.	c #5F913C",
"@.	c #A5B49E",
"#.	c #BCBEBC",
"$.	c #6D974B",
"%.	c #82B152",
"&.	c #A8D86A",
"*.	c #B5DF72",
"=.	c #C1E57C",
"-.	c #C0E47A",
";.	c #B4DF71",
">.	c #A6D769",
",.	c #80B050",
"'.	c #6C964A",
").	c #BDBFBD",
"!.	c #B6BFB3",
"~.	c #749D48",
"{.	c #94BD5D",
"].	c #B2DA72",
"^.	c #BEE27A",
"/.	c #C5E580",
"(.	c #C4E57F",
"_.	c #BDE279",
":.	c #B0DA71",
"<.	c #91BB5C",
"[.	c #719C47",
"}.	c #B6C0B3",
"|.	c #BEBEBE",
"1.	c #B6C0B4",
"2.	c #80A456",
"3.	c #90B45C",
"4.	c #A4C669",
"5.	c #AFD071",
"6.	c #AED071",
"7.	c #A2C668",
"8.	c #8FB35B",
"9.	c #7EA255",
"0.	c #ACB9A4",
"a.	c #93AD75",
"b.	c #8BAC5E",
"c.	c #8AAC5E",
"d.	c #93AE76",
"e.	c #BDBDBD",
"f.	c #C3CDB8",
"g.	c #C2CCB5",
"h.	c #C2CDB5",
"i.	c #BCBCBC",
". . . . . . . . . . . . . . . . ",
"+ + + + + + + + + + + + + + + + ",
"@ @ @ @ @ @ @ @ @ @ @ @ @ @ @ @ ",
"# # # # $ % & * = - % $ # # # # ",
"# # # ; > , ' ) ! ~ { ] ; # # # ",
"# # ^ / ( _ : < [ } | 1 2 ; # # ",
"3 4 5 6 7 8 9 0 0 a b c d 5 4 3 ",
"3 e f g h i j 0 0 k l h g f e 3 ",
"3 m n o p q r 0 0 s t u i v m 3 ",
"w x y z 0 0 0 0 0 0 0 0 z A x w ",
"w B C D 0 0 0 0 0 0 0 0 E F G w ",
"$ H I J K L M 0 0 N O P Q R S $ ",
"$ T U V W X Y 0 0 Z `  ...+.@.$ ",
"4 #.$.%.&.*.=.0 0 -.;.>.,.'.).4 ",
"4 4 !.~.{.].^./.(._.:.<.[.}.4 4 ",
"|.|.|.1.2.3.4.5.6.7.8.9.}.|.|.|.",
"|.|.|.|.).0.a.b.c.d.0.).|.|.|.|.",
"e.e.e.e.e.e.f.g.h.f.e.e.e.e.e.e.",
"i.i.i.i.i.i.i.i.i.i.i.i.i.i.i.i."};
