/* XPM */
static char * copy of back_xpm[] = {
"16 19 169 2",
"  	c None",
". 	c #ECECEC",
"+ 	c #D7D7D7",
"@ 	c #C4C4C4",
"# 	c #C3C3C3",
"$ 	c #C1C1C1",
"% 	c #929992",
"& 	c #4B5B48",
"* 	c #253B1E",
"= 	c #253B1D",
"- 	c #4B5A47",
"; 	c #ABAFAB",
"> 	c #1F3717",
", 	c #244218",
"' 	c #47643A",
") 	c #667C5C",
"! 	c #617956",
"~ 	c #405F32",
"{ 	c #203F14",
"] 	c #1F3616",
"^ 	c #AAAFAB",
"/ 	c #ABB0AB",
"( 	c #112D07",
"_ 	c #244A13",
": 	c #497132",
"< 	c #8EAC7D",
"[ 	c #DBE7D2",
"} 	c #CFDFC5",
"| 	c #7DA068",
"1 	c #426C29",
"2 	c #224810",
"3 	c #112D06",
"4 	c #C2C2C2",
"5 	c #C0C0C0",
"6 	c #1E3717",
"7 	c #22490F",
"8 	c #3F7420",
"9 	c #5A9237",
"0 	c #86B16B",
"a 	c #C3DAB3",
"b 	c #B8D3A7",
"c 	c #78A85A",
"d 	c #548E30",
"e 	c #3E731F",
"f 	c #21490F",
"g 	c #959F94",
"h 	c #1D480D",
"i 	c #407522",
"j 	c #56972E",
"k 	c #5D9F35",
"l 	c #6FAC49",
"m 	c #8DBE6E",
"n 	c #88BB68",
"o 	c #69A842",
"p 	c #5C9E33",
"q 	c #959E93",
"r 	c #53724C",
"s 	c #366B1C",
"t 	c #5E9F35",
"u 	c #67AC3B",
"v 	c #6CB13F",
"w 	c #71B643",
"x 	c #78BA4A",
"y 	c #77B949",
"z 	c #70B542",
"A 	c #6BB03E",
"B 	c #66AB3B",
"C 	c #356A1C",
"D 	c #57764F",
"E 	c #396A26",
"F 	c #549031",
"G 	c #70B443",
"H 	c #78BB48",
"I 	c #7FC04B",
"J 	c #84C44E",
"K 	c #89C851",
"L 	c #89C750",
"M 	c #83C44E",
"N 	c #7EC04B",
"O 	c #77BB47",
"P 	c #538F30",
"Q 	c #4A7B31",
"R 	c #64A03C",
"S 	c #80C14E",
"T 	c #88C753",
"U 	c #91CD57",
"V 	c #9CD25D",
"W 	c #A4D662",
"X 	c #A3D661",
"Y 	c #9AD25C",
"Z 	c #8FCC57",
"` 	c #87C752",
" .	c #7FC04E",
"..	c #639F3C",
"+.	c #497B31",
"@.	c #749365",
"#.	c #69A141",
"$.	c #8DC957",
"%.	c #97D05D",
"&.	c #A3D763",
"*.	c #AFDD6B",
"=.	c #BAE173",
"-.	c #B9E172",
";.	c #AEDC6A",
">.	c #A0D662",
",.	c #95D05C",
"'.	c #8BC956",
").	c #68A041",
"!.	c #749464",
"~.	c #A1AC9E",
"{.	c #61923D",
"].	c #94CC5D",
"^.	c #A2D665",
"/.	c #AFDD6D",
"(.	c #BCE376",
"_.	c #C6E77E",
":.	c #C5E77E",
"<.	c #BBE275",
"[.	c #ADDC6B",
"}.	c #A0D664",
"|.	c #92CB5C",
"1.	c #5F913C",
"2.	c #BFBFBF",
"3.	c #BDBEBE",
"4.	c #6D964B",
"5.	c #82B152",
"6.	c #A8D86A",
"7.	c #B5DF72",
"8.	c #C1E57C",
"9.	c #C9E982",
"0.	c #C8E981",
"a.	c #C0E47A",
"b.	c #B4DF71",
"c.	c #A6D769",
"d.	c #80B050",
"e.	c #6B954A",
"f.	c #BDBEBD",
"g.	c #B2B7B1",
"h.	c #749D48",
"i.	c #94BD5D",
"j.	c #B2DA72",
"k.	c #BEE27A",
"l.	c #C5E580",
"m.	c #C4E57F",
"n.	c #BDE279",
"o.	c #B0DA71",
"p.	c #91BB5C",
"q.	c #719C47",
"r.	c #B1B7B1",
"s.	c #BEBEBE",
"t.	c #7FA356",
"u.	c #90B45C",
"v.	c #A4C669",
"w.	c #AFD071",
"x.	c #AED071",
"y.	c #A2C668",
"z.	c #8FB35B",
"A.	c #7DA255",
"B.	c #B1B7B0",
"C.	c #BDBDBD",
"D.	c #A5AFA0",
"E.	c #8DA774",
"F.	c #8AAB5E",
"G.	c #89AB5E",
"H.	c #8DA775",
"I.	c #A4AFA0",
"J.	c #C2CBB8",
"K.	c #C2CCB5",
"L.	c #BCBCBC",
". . . . . . . . . . . . . . . . ",
"+ + + + + + + + + + + + + + + + ",
"@ @ @ @ @ @ @ @ @ @ @ @ @ @ @ @ ",
"# # # # $ % & * = - % $ # # # # ",
"# # # ; > , ' ) ! ~ { ] ^ # # # ",
"# # / ( _ : < [ } | 1 2 3 ; # # ",
"4 5 6 7 8 9 0 a b c d e f 6 5 4 ",
"4 g h i j k l m n o p j i h q 4 ",
"4 r s t u v w x y z A B k C D 4 ",
"$ E F G H I J K L M N O G P E $ ",
"$ Q R S T U V W X Y Z `  ...+.$ ",
"5 @.#.$.%.&.*.=.-.;.>.,.'.).!.5 ",
"5 ~.{.].^./.(._.:.<.[.}.|.1.~.5 ",
"2.3.4.5.6.7.8.9.0.a.b.c.d.e.f.2.",
"2.2.g.h.i.j.k.l.m.n.o.p.q.r.2.2.",
"s.s.s.g.t.u.v.w.x.y.z.A.B.s.s.s.",
"s.s.s.s.C.D.E.F.G.H.I.C.s.s.s.s.",
"C.C.C.C.C.C.J.K.K.J.C.C.C.C.C.C.",
"L.L.L.L.L.L.L.L.L.L.L.L.L.L.L.L."};
