/* XPM */
static char * top_xpm[] = {
"20 19 122 2",
"  	c None",
". 	c #ECECEC",
"+ 	c #D7D7D7",
"@ 	c #C4C4C4",
"# 	c #C3C3C3",
"$ 	c #B8B8B8",
"% 	c #959595",
"& 	c #737373",
"* 	c #626262",
"= 	c #676767",
"- 	c #747474",
"; 	c #B9B9B9",
"> 	c #C2C2C2",
", 	c #868686",
"' 	c #6F6F6F",
") 	c #9E9E9E",
"! 	c #BFBFBF",
"~ 	c #C8C8CA",
"{ 	c #C7C7C8",
"] 	c #C8C8C8",
"^ 	c #CDCDCD",
"/ 	c #CECECE",
"( 	c #CCCCCC",
"_ 	c #CBCBCB",
": 	c #C9C9C9",
"< 	c #C7C7C7",
"[ 	c #878787",
"} 	c #A4A4A4",
"| 	c #717171",
"1 	c #9D9D9D",
"2 	c #DCDCDC",
"3 	c #E3E3E3",
"4 	c #E6E5E7",
"5 	c #E7E7E8",
"6 	c #E4E5E6",
"7 	c #E3E5E6",
"8 	c #E6E8E8",
"9 	c #E8E8EA",
"0 	c #EAEAE9",
"a 	c #E7E8E7",
"b 	c #E6E6E6",
"c 	c #E4E4E4",
"d 	c #DDDDDD",
"e 	c #A7A7A7",
"f 	c #707070",
"g 	c #A8A8A8",
"h 	c #777777",
"i 	c #DFDFDF",
"j 	c #DDDCDD",
"k 	c #DDDFDF",
"l 	c #DEE0DE",
"m 	c #DEDFDE",
"n 	c #DDDFDE",
"o 	c #DFDFDE",
"p 	c #DEDEDE",
"q 	c #DFDDDD",
"r 	c #DDDCDC",
"s 	c #D0D0D0",
"t 	c #6D6D6D",
"u 	c #5E5E5E",
"v 	c #B4B4B4",
"w 	c #CACAC9",
"x 	c #C9CAC9",
"y 	c #D3D3D2",
"z 	c #D4D4D3",
"A 	c #D5D3D4",
"B 	c #D5D4D4",
"C 	c #D6D6D6",
"D 	c #D8D7D6",
"E 	c #D7D6D7",
"F 	c #D2D2D2",
"G 	c #B1B1B1",
"H 	c #616161",
"I 	c #BEBEBE",
"J 	c #D8D8D8",
"K 	c #D6D7D7",
"L 	c #E2E1E2",
"M 	c #E2E2E0",
"N 	c #E4E4E3",
"O 	c #E4E5E4",
"P 	c #E5E5E5",
"Q 	c #E4E3E3",
"R 	c #E4E2E2",
"S 	c #DEDEDD",
"T 	c #5C5C5C",
"U 	c #8A8A8A",
"V 	c #BDBDBD",
"W 	c #EAEAEB",
"X 	c #EEEFEF",
"Y 	c #F5F4F5",
"Z 	c #F6F7F7",
"` 	c #F9F8F7",
" .	c #F9F9F8",
"..	c #F9FAFA",
"+.	c #F9FAF9",
"@.	c #F9F9F9",
"#.	c #F8F9F9",
"$.	c #F8F8F9",
"%.	c #F0F0F1",
"&.	c #E7E8E8",
"*.	c #BFBEBF",
"=.	c #919191",
"-.	c #B0B0B0",
";.	c #A0A0A0",
">.	c #CFCFCF",
",.	c #F6F5F5",
"'.	c #FCFBFD",
").	c #FCFCFE",
"!.	c #FBFCFC",
"~.	c #FCFCFC",
"{.	c #FEFCFD",
"].	c #FCFAFB",
"^.	c #FCFEFD",
"/.	c #FDFEFE",
"(.	c #FEFEFE",
"_.	c #FEFFFE",
":.	c #ACACAC",
"<.	c #A1A1A1",
"[.	c #EDEDED",
"}.	c #FFFFFF",
"|.	c #A3A3A3",
"1.	c #BCBCBC",
". . . . . . . . . . . . . . . . . . . . ",
"+ + + + + + + + + + + + + + + + + + + + ",
"@ @ @ @ @ @ @ @ @ @ @ @ @ @ @ @ @ @ @ @ ",
"# # # # # # # # # # # # # # # # # # # # ",
"# # # # # # # # # # # # # # # # # # # # ",
"# # $ % & * = - - - - - - - - - % ; # # ",
"> , ' ) ! ~ { ] ^ ^ / ^ ( _ : < ) - [ > ",
"} | 1 2 3 4 5 5 6 7 8 9 0 a b c d e f g ",
"h % < i j k l m n m o p q 2 r p s s % t ",
"u v w x y z A z A B C D C C E + F ] G H ",
"H I J K i L M N O P P P O c N Q R S # T ",
"U V b W X Y Z `  ...+.+.@.@.#.$.%.&.*.=.",
"-.;.>.,.'.).!.~.{.].^./.(.(.(._.~.d ;.:.",
"! <.) ( [.}.}.}.}.}.}.}.}.}.}.}.# |.;.! ",
"! ! $ % & * = - - - - - - - - - % ; ! ! ",
"I I I I I I I I I I I I I I I I I I I I ",
"I I I I I I I I I I I I I I I I I I I I ",
"V V V V V V V V V V V V V V V V V V V V ",
"1.1.1.1.1.1.1.1.1.1.1.1.1.1.1.1.1.1.1.1."};
