/* XPM */
static char * top_xpm[] = {
"20 19 119 2",
"  	c None",
". 	c #ECECEC",
"+ 	c #D7D7D7",
"@ 	c #C4C4C4",
"# 	c #C3C3C3",
"$ 	c #828AA8",
"% 	c #4A5066",
"& 	c #1B253D",
"* 	c #000824",
"= 	c #000D28",
"- 	c #000C2A",
"; 	c #000A27",
"> 	c #000A26",
", 	c #05122E",
"' 	c #2D364F",
") 	c #434C63",
"! 	c #60657D",
"~ 	c #858BA8",
"{ 	c #C2C2C2",
"] 	c #868686",
"^ 	c #0D549D",
"/ 	c #669ACE",
"( 	c #87B4DB",
"_ 	c #93B8DD",
": 	c #A2C3E0",
"< 	c #A7C8E1",
"[ 	c #A7C7E4",
"} 	c #AAC7E6",
"| 	c #A9C7E7",
"1 	c #A9C7E4",
"2 	c #A8C8E2",
"3 	c #A5C4E0",
"4 	c #A2BFDB",
"5 	c #93B4D2",
"6 	c #7A99BA",
"7 	c #747575",
"8 	c #878787",
"9 	c #A4A4A4",
"0 	c #00478A",
"a 	c #5A94CF",
"b 	c #99BDE2",
"c 	c #9EBBE4",
"d 	c #A1BDE2",
"e 	c #9FBEE4",
"f 	c #9FBFE0",
"g 	c #9CBDE5",
"h 	c #9FBFE4",
"i 	c #A1BEE2",
"j 	c #9FBBE4",
"k 	c #A8A8A8",
"l 	c #004594",
"m 	c #256BC2",
"n 	c #6A9ED3",
"o 	c #7FAFDC",
"p 	c #80B0E1",
"q 	c #83B7DC",
"r 	c #86B2DB",
"s 	c #85B1DE",
"t 	c #81ADDA",
"u 	c #83B3E0",
"v 	c #004A9E",
"w 	c #3F7FC8",
"x 	c #5088CD",
"y 	c #5391D0",
"z 	c #5494D5",
"A 	c #5395D8",
"B 	c #5594DA",
"C 	c #579BD4",
"D 	c #578FD4",
"E 	c #2864A1",
"F 	c #5498D1",
"G 	c #649ED9",
"H 	c #65A3E2",
"I 	c #69A9EA",
"J 	c #6CACED",
"K 	c #69A9F2",
"L 	c #6DABEA",
"M 	c #6EAAE7",
"N 	c #456286",
"O 	c #5F99D4",
"P 	c #6EA2E3",
"Q 	c #7BB7F4",
"R 	c #8DCAFF",
"S 	c #99CBFF",
"T 	c #93C8FF",
"U 	c #96CAFF",
"V 	c #96CFFF",
"W 	c #B0B0B0",
"X 	c #4C749D",
"Y 	c #73B3F4",
"Z 	c #89C8FF",
"` 	c #AFD0FF",
" .	c #BFDEFF",
"..	c #CBE3FF",
"+.	c #C1DEFF",
"@.	c #C3E0FF",
"#.	c #6B7378",
"$.	c #BFBFBF",
"%.	c #A1A1A1",
"&.	c #587698",
"*.	c #71A9E2",
"=.	c #BBDEFF",
"-.	c #E3F3FF",
";.	c #E3F6FF",
">.	c #DDF1FF",
",.	c #E3F5FF",
"'.	c #E1F1FF",
").	c #626A73",
"!.	c #B9BAB9",
"~.	c #818181",
"{.	c #646364",
"].	c #474747",
"^.	c #3C3C3C",
"/.	c #4F4F4E",
"(.	c #737373",
"_.	c #717171",
":.	c #BEBEBE",
"<.	c #BDBDBD",
"[.	c #BCBCBC",
". . . . . . . . . . . . . . . . . . . . ",
"+ + + + + + + + + + + + + + + + + + + + ",
"@ @ @ @ @ @ @ @ @ @ @ @ @ @ @ @ @ @ @ @ ",
"# # # # # # # # # # # # # # # # # # # # ",
"# # # # # # # # # # # # # # # # # # # # ",
"# # # $ % & * = - ; > - , ' ) ! ~ # # # ",
"{ ] ^ / ( _ : < [ } | 1 2 3 4 5 6 7 8 { ",
"9 0 a b c d e f f g g f f h i j b a 0 k ",
"l m n o p q r s t u u t s r q p o n m l ",
"v w x y z A B C D z z D C B A z y x w v ",
"E F G H I J K L M K K M L K J I H G F E ",
"N O P Q R S T S U V V U S T S R Q P O N ",
"W X Y Z `  .....+.@.@.+..... .` Z Y X #.",
"$.%.&.*.=.-.;.>.,.'.'.,.>.;.-.=.*.&.).$.",
"$.$.!.~.{.].^.^.^.^.^.^.^.^.^./.(._.$.$.",
":.:.:.:.:.:.:.:.:.:.:.:.:.:.:.:.:.:.:.:.",
":.:.:.:.:.:.:.:.:.:.:.:.:.:.:.:.:.:.:.:.",
"<.<.<.<.<.<.<.<.<.<.<.<.<.<.<.<.<.<.<.<.",
"[.[.[.[.[.[.[.[.[.[.[.[.[.[.[.[.[.[.[.[."};
