/* XPM */
static char * top_xpm[] = {
"10 19 12 1",
" 	c None",
".	c #ECECEC",
"+	c #D7D7D7",
"@	c #C4C4C4",
"#	c #C3C3C3",
"$	c #C2C2C2",
"%	c #C1C1C1",
"&	c #C0C0C0",
"*	c #BFBFBF",
"=	c #BEBEBE",
"-	c #BDBDBD",
";	c #BCBCBC",
"..........",
"++++++++++",
"@@@@@@@@@@",
"##########",
"##########",
"##########",
"$$$$$$$$$$",
"$$$$$$$$$$",
"$$$$$$$$$$",
"%%%%%%%%%%",
"%%%%%%%%%%",
"&&&&&&&&&&",
"&&&&&&&&&&",
"**********",
"**********",
"==========",
"==========",
"----------",
";;;;;;;;;;"};
