/* XPM */
static char * top_right_active_shaded_xpm[] = {
"10 19 37 1",
" 	c None",
".	c #ECECEC",
"+	c #D7D7D7",
"@	c #E7E7E6",
"#	c #E3E3E3",
"$	c #C7C7C6",
"%	c #C2C2C2",
"&	c #DBDBDB",
"*	c #DEDEDD",
"=	c #E2E2E2",
"-	c #E3E3E2",
";	c #A6A6A6",
">	c #C4C4C4",
",	c #CACAC9",
"'	c #CECECD",
")	c #D5D5D4",
"!	c #D4D4D3",
"~	c #C3C3C3",
"{	c #C5C5C4",
"]	c #CBCBCA",
"^	c #A8A8A9",
"/	c #C8C8C7",
"(	c #ACACAC",
"_	c #C5C5C5",
":	c #AEAFB0",
"<	c #ABABAC",
"[	c #A3A3A4",
"}	c #9E9E9F",
"|	c #C1C1C1",
"1	c #999999",
"2	c #929292",
"3	c #C0C0C0",
"4	c #8D8D8D",
"5	c #BFBFBF",
"6	c #BEBEBE",
"7	c #BDBDBD",
"8	c #BCBCBC",
"....+@#$% ",
"++++&*=-%;",
">>>>$,')!;",
"~~~~{{{,]^",
"~~~~{{{$/(",
"~~~~>>>_~:",
"%%%%>>>>%<",
"%%%%%%%%%[",
"%%%%%%%%%}",
"|||||||||1",
"|||||||||2",
"3333333334",
"3333333334",
"5555555554",
"5555555554",
"6666666664",
"6666666664",
"7777777774",
"8888888884"};
