/* XPM */
static char * top_left_active_xpm[] = {
"10 19 37 1",
" 	c None",
".	c #C2C2C2",
"+	c #C7C7C6",
"@	c #E3E3E3",
"#	c #E7E7E6",
"$	c #D7D7D7",
"%	c #ECECEC",
"&	c #A6A6A6",
"*	c #E3E3E2",
"=	c #E2E2E2",
"-	c #DEDEDD",
";	c #DBDBDB",
">	c #D4D4D3",
",	c #D5D5D4",
"'	c #CECECD",
")	c #CACAC9",
"!	c #C4C4C4",
"~	c #A8A8A9",
"{	c #CBCBCA",
"]	c #C5C5C4",
"^	c #C3C3C3",
"/	c #ACACAC",
"(	c #C8C8C7",
"_	c #AEAFB0",
":	c #C5C5C5",
"<	c #ABABAC",
"[	c #A3A3A4",
"}	c #9E9E9F",
"|	c #999999",
"1	c #C1C1C1",
"2	c #929292",
"3	c #8D8D8D",
"4	c #C0C0C0",
"5	c #BFBFBF",
"6	c #BEBEBE",
"7	c #BDBDBD",
"8	c #BCBCBC",
" .+@#$%%%%",
"&.*=-;$$$$",
"&>,')+!!!!",
"~{)]]]^^^^",
"/(+]]]^^^^",
"_^:!!!^^^^",
"<.!!!!....",
"[.........",
"}.........",
"|111111111",
"2111111111",
"3444444444",
"3444444444",
"3555555555",
"3555555555",
"3666666666",
"3666666666",
"3777777777",
"3888888888"};
