<?xml version="1.0" encoding="UTF-8" standalone="no"?>
<svg
   xmlns:dc="http://purl.org/dc/elements/1.1/"
   xmlns:cc="http://creativecommons.org/ns#"
   xmlns:rdf="http://www.w3.org/1999/02/22-rdf-syntax-ns#"
   xmlns:svg="http://www.w3.org/2000/svg"
   xmlns="http://www.w3.org/2000/svg"
   xmlns:sodipodi="http://sodipodi.sourceforge.net/DTD/sodipodi-0.dtd"
   xmlns:inkscape="http://www.inkscape.org/namespaces/inkscape"
   contentScriptType="text/ecmascript"
   contentStyleType="text/css"
   height="16"
   preserveAspectRatio="xMidYMid meet"
   version="1.1"
   viewBox="0 0 16 16"
   width="16"
   x="0px"
   y="0px"
   zoomAndPan="magnify"
   id="svg2"
   inkscape:version="0.91 r13725"
   sodipodi:docname="preferences-system-symbolic.svg">
  <metadata
     id="metadata63">
    <rdf:RDF>
      <cc:Work
         rdf:about="">
        <dc:format>image/svg+xml</dc:format>
        <dc:type
           rdf:resource="http://purl.org/dc/dcmitype/StillImage" />
        <dc:title></dc:title>
      </cc:Work>
    </rdf:RDF>
  </metadata>
  <sodipodi:namedview
     pagecolor="#ffffff"
     bordercolor="#666666"
     borderopacity="1"
     objecttolerance="10"
     gridtolerance="10"
     guidetolerance="10"
     inkscape:pageopacity="0"
     inkscape:pageshadow="2"
     inkscape:window-width="1336"
     inkscape:window-height="704"
     id="namedview61"
     showgrid="false"
     fit-margin-top="0"
     fit-margin-left="0"
     fit-margin-right="0"
     fit-margin-bottom="0"
     inkscape:zoom="4.1403509"
     inkscape:cx="20.148773"
     inkscape:cy="23.516944"
     inkscape:window-x="0"
     inkscape:window-y="27"
     inkscape:window-maximized="1"
     inkscape:current-layer="g55" />
  <defs
     id="defs4">
    <defs
       id="defs6">
      <linearGradient
         gradientTransform="matrix(1,0,0,-1,-249.4805,-316.0195)"
         gradientUnits="userSpaceOnUse"
         x1="282.97949"
         x2="282.97949"
         y1="-368.2988"
         y2="-320.7388"
         id="linearGradient8">
        <stop
           offset="0"
           stop-color="#d0cbc5"
           id="stop10" />
        <stop
           offset="0.5031"
           stop-color="#fafcef"
           id="stop12" />
        <stop
           offset="0.9693"
           stop-color="#ffffff"
           id="stop14" />
        <stop
           offset="1"
           stop-color="#ffffff"
           id="stop16" />
      </linearGradient>
    </defs>
    <linearGradient
       gradientTransform="translate(-69.258623,1.564)"
       gradientUnits="userSpaceOnUse"
       x1="103.13136"
       x2="103.13136"
       y1="49.754238"
       y2="6.273623"
       id="linearGradient18">
      <stop
         offset="0"
         stop-color="#d0cbc5"
         id="stop20" />
      <stop
         offset="0.5031"
         stop-color="#fafcef"
         id="stop22" />
      <stop
         offset="0.9693"
         stop-color="#ffffff"
         id="stop24" />
      <stop
         offset="1"
         stop-color="#ffffff"
         id="stop26" />
    </linearGradient>
    <linearGradient
       gradientTransform="translate(-69.258623,1.564)"
       gradientUnits="userSpaceOnUse"
       x1="103.13136"
       x2="103.13136"
       y1="49.754238"
       y2="6.273623"
       id="linearGradient28">
      <stop
         offset="0"
         stop-color="#d0cbc5"
         id="stop30" />
      <stop
         offset="0.5031"
         stop-color="#fafcef"
         id="stop32" />
      <stop
         offset="0.9693"
         stop-color="#ffffff"
         id="stop34" />
      <stop
         offset="1"
         stop-color="#ffffff"
         id="stop36" />
    </linearGradient>
    <linearGradient
       gradientTransform="translate(-69.258623,1.564)"
       gradientUnits="userSpaceOnUse"
       id="linearGradient3874"
       x1="103.13136"
       x2="103.13136"
       y1="49.754238"
       y2="6.273623">
      <stop
         offset="0"
         stop-color="#d0cbc5"
         id="stop39" />
      <stop
         offset="0.5031"
         stop-color="#fafcef"
         id="stop41" />
      <stop
         offset="0.9693"
         stop-color="#ffffff"
         id="stop43" />
      <stop
         offset="1"
         stop-color="#ffffff"
         id="stop45" />
    </linearGradient>
    <linearGradient
       y2="129.12996"
       y1="98.246292"
       x2="-833.87506"
       x1="-833.87506"
       id="linearGradient4261"
       gradientUnits="userSpaceOnUse"
       gradientTransform="matrix(0.94204942,0,0,0.94204942,911.91536,-70.031235)">
      <stop
         id="stop4200"
         stop-opacity="1"
         stop-color="#a1a1bf"
         offset="0" />
      <stop
         id="stop4202"
         stop-opacity="1"
         stop-color="#fcfdfd"
         offset="1" />
    </linearGradient>
    <linearGradient
       y2="129.12996"
       y1="98.246292"
       x2="-833.87506"
       x1="-833.87506"
       id="linearGradient4204"
       gradientUnits="userSpaceOnUse">
      <stop
         id="stop4206"
         stop-opacity="1"
         stop-color="#a1a1bf"
         offset="0" />
      <stop
         id="stop4208"
         stop-opacity="1"
         stop-color="#fcfdfd"
         offset="1" />
    </linearGradient>
    <linearGradient
       y2="25.500147"
       y1="66.831848"
       x2="60.634407"
       x1="60.634407"
       id="linearGradient4298"
       gradientUnits="userSpaceOnUse">
      <stop
         id="stop4211"
         stop-opacity="1"
         stop-color="#c2c2dd"
         offset="0" />
      <stop
         id="stop4213"
         stop-opacity="1"
         stop-color="#edecf6"
         offset="1" />
    </linearGradient>
    <linearGradient
       y2="25.500147"
       y1="66.831848"
       x2="60.634407"
       x1="60.634407"
       id="linearGradient4221"
       gradientUnits="userSpaceOnUse"
       gradientTransform="translate(77.363858,-11.694915)">
      <stop
         id="stop4223"
         stop-opacity="1"
         stop-color="#c2c2dd"
         offset="0" />
      <stop
         id="stop4225"
         stop-opacity="1"
         stop-color="#edecf6"
         offset="1" />
    </linearGradient>
    <radialGradient
       r="15.467961"
       id="radialGradient4276"
       gradientUnits="userSpaceOnUse"
       gradientTransform="matrix(0.39352973,-0.39352973,0.39875305,0.39875312,378.08236,-404.75103)"
       fy="121.75859"
       fx="-830.93866"
       cy="121.75859"
       cx="-830.93866">
      <stop
         id="stop4228"
         stop-opacity="1"
         stop-color="#532fa9"
         offset="0" />
      <stop
         id="stop4230"
         stop-opacity="1"
         stop-color="#512ea5"
         offset="0.82291651" />
      <stop
         id="stop4232"
         stop-opacity="1"
         stop-color="#4d2c9a"
         offset="1" />
    </radialGradient>
    <radialGradient
       r="15.467961"
       id="radialGradient4234"
       gradientUnits="userSpaceOnUse"
       gradientTransform="matrix(0.6076803,-0.6076803,0.61574604,0.61574614,-404.24594,-459.03203)"
       fy="121.75859"
       fx="-830.93866"
       cy="121.75859"
       cx="-830.93866">
      <stop
         id="stop4236"
         stop-opacity="1"
         stop-color="#532fa9"
         offset="0" />
      <stop
         id="stop4238"
         stop-opacity="1"
         stop-color="#512ea5"
         offset="0.82291651" />
      <stop
         id="stop4240"
         stop-opacity="1"
         stop-color="#4d2c9a"
         offset="1" />
    </radialGradient>
    <linearGradient
       y2="129.12996"
       y1="98.246292"
       x2="-833.87506"
       x1="-833.87506"
       id="linearGradient4261-7"
       gradientUnits="userSpaceOnUse"
       gradientTransform="matrix(0.94204942,0,0,0.94204942,885.67014,-140.91259)">
      <stop
         id="stop4243"
         stop-opacity="1"
         stop-color="#a1a1bf"
         offset="0" />
      <stop
         id="stop4245"
         stop-opacity="1"
         stop-color="#fcfdfd"
         offset="1" />
    </linearGradient>
    <linearGradient
       y2="25.500147"
       y1="66.831848"
       x2="60.634407"
       x1="60.634407"
       id="linearGradient4264"
       gradientUnits="userSpaceOnUse"
       gradientTransform="translate(51.118644,-82.576271)">
      <stop
         id="stop4266"
         stop-opacity="1"
         stop-color="#c2c2dd"
         offset="0" />
      <stop
         id="stop4268"
         stop-opacity="1"
         stop-color="#edecf6"
         offset="1" />
    </linearGradient>
    <linearGradient
       y2="129.12996"
       y1="98.246292"
       x2="-833.87506"
       x1="-833.87506"
       id="linearGradient4270"
       gradientUnits="userSpaceOnUse"
       gradientTransform="matrix(0.94204942,0,0,0.94204942,830.92438,-146.96344)">
      <stop
         id="stop4272"
         stop-opacity="1"
         stop-color="#a1a1bf"
         offset="0" />
      <stop
         id="stop4274"
         stop-opacity="1"
         stop-color="#fcfdfd"
         offset="1" />
    </linearGradient>
  </defs>
  <g
     id="g55"
     transform="matrix(0.99775167,0,0,0.99775167,-10.476397,-36.881273)">
    <path
       inkscape:connector-curvature="0"
       style="fill:#808080;fill-opacity:1;fill-rule:nonzero;stroke:none"
       id="path57"
       d="m 18.518025,36.964381 c -0.559257,0 -1.009493,0.450191 -1.009493,1.009429 l 0,1.038402 c -0.568443,0.09087 -1.10982,0.25519 -1.615183,0.490283 L 15.287655,38.66615 c -0.322848,-0.456606 -0.927785,-0.553573 -1.384443,-0.230709 -0.456659,0.322864 -0.582432,0.95651 -0.259584,1.413116 l 0.576853,0.807587 c -0.450712,0.4333 -0.850753,0.918557 -1.153704,1.470953 l -0.894119,-0.288332 c -0.531157,-0.175116 -1.094024,0.103702 -1.269073,0.634503 -0.17505,0.531228 0.103382,1.0941 0.634536,1.269003 l 0.865278,0.288438 c -0.06078,0.347667 -0.08653,0.702282 -0.08653,1.067162 0,0.284055 0.02052,0.562552 0.05769,0.836344 l -0.836434,0.288439 c -0.531158,0.175009 -0.809587,0.737882 -0.634537,1.269004 0.175048,0.531121 0.737916,0.809725 1.269072,0.634501 l 0.807591,-0.259573 c 0.297814,0.591204 0.6903,1.123074 1.153703,1.586414 l -0.490323,0.663366 c -0.322848,0.456607 -0.197075,1.09036 0.259583,1.413224 0.456658,0.322863 1.061595,0.225897 1.384443,-0.230709 l 0.490323,-0.663368 c 0.537734,0.264065 1.118762,0.449872 1.730555,0.548014 l 0,0.80748 c 0,0.559236 0.450234,1.009428 1.009491,1.009428 0.55926,0 1.009491,-0.450192 1.009491,-1.00943 l 0,-0.807479 c 0.612553,-0.103701 1.193639,-0.3064 1.730553,-0.576879 l 0.490327,0.692233 c 0.322851,0.456607 0.927784,0.553573 1.384444,0.230708 0.45666,-0.322865 0.58243,-0.956618 0.25958,-1.413223 l -0.49032,-0.721205 c 0.44422,-0.45607 0.809034,-0.981847 1.096017,-1.557336 l 0.865277,0.288225 c 0.531157,0.175117 1.094023,-0.103701 1.26907,-0.6345 0.175053,-0.531122 -0.10338,-1.093995 -0.634533,-1.269004 l -0.89412,-0.288439 c 0.03715,-0.273899 0.05769,-0.552396 0.05769,-0.836345 0,-0.35515 -0.02893,-0.699609 -0.08652,-1.038295 l 0.92296,-0.317305 c 0.531157,-0.175009 0.809587,-0.737881 0.634537,-1.269003 -0.17505,-0.531121 -0.737917,-0.809618 -1.269073,-0.634502 l -0.951804,0.317305 c -0.298151,-0.548975 -0.681037,-1.038723 -1.124864,-1.470955 l 0.605696,-0.836452 c 0.32285,-0.456605 0.197074,-1.090252 -0.259584,-1.413116 -0.45666,-0.322863 -1.061593,-0.225897 -1.384443,0.230709 l -0.605694,0.865317 c -0.504856,-0.2414 -1.045846,-0.422395 -1.615183,-0.519147 l 0,-1.038402 c 0,-0.559239 -0.450234,-1.00943 -1.00949,-1.00943 z m -0.02883,3.922897 c 2.32568,0 4.211015,1.885224 4.211015,4.21091 0,2.325687 -1.885335,4.210912 -4.211015,4.210912 -2.325683,0 -4.211018,-1.885331 -4.211018,-4.210912 0,-2.325687 1.885335,-4.21091 4.211018,-4.21091 z m -4e-6,1.961129 c -1.242484,0 -2.249719,1.007292 -2.249719,2.249676 0,1.242489 1.007236,2.249566 2.249719,2.249566 1.242487,0 2.249722,-1.007184 2.249722,-2.249567 0,-1.24249 -1.007235,-2.249676 -2.249722,-2.249676 z" />
  </g>
</svg>
