<?xml version="1.0" encoding="UTF-8" standalone="no"?>
<svg
   xmlns:dc="http://purl.org/dc/elements/1.1/"
   xmlns:cc="http://creativecommons.org/ns#"
   xmlns:rdf="http://www.w3.org/1999/02/22-rdf-syntax-ns#"
   xmlns:svg="http://www.w3.org/2000/svg"
   xmlns="http://www.w3.org/2000/svg"
   xmlns:xlink="http://www.w3.org/1999/xlink"
   xmlns:sodipodi="http://sodipodi.sourceforge.net/DTD/sodipodi-0.dtd"
   xmlns:inkscape="http://www.inkscape.org/namespaces/inkscape"
   width="16"
   viewBox="0 0 16 16"
   height="16"
   id="svg2"
   version="1.1"
   inkscape:version="0.91 r13725"
   sodipodi:docname="checkbox-checked-insensitive-dark.svg">
  <metadata
     id="metadata20">
    <rdf:RDF>
      <cc:Work
         rdf:about="">
        <dc:format>image/svg+xml</dc:format>
        <dc:type
           rdf:resource="http://purl.org/dc/dcmitype/StillImage" />
        <dc:title></dc:title>
      </cc:Work>
    </rdf:RDF>
  </metadata>
  <sodipodi:namedview
     pagecolor="#ffffff"
     bordercolor="#666666"
     borderopacity="1"
     objecttolerance="10"
     gridtolerance="10"
     guidetolerance="10"
     inkscape:pageopacity="0"
     inkscape:pageshadow="2"
     inkscape:window-width="1366"
     inkscape:window-height="636"
     id="namedview18"
     showgrid="false"
     inkscape:zoom="9.731371"
     inkscape:cx="7.8683542"
     inkscape:cy="3.9685695"
     inkscape:window-x="0"
     inkscape:window-y="28"
     inkscape:window-maximized="1"
     inkscape:current-layer="svg2" />
  <defs
     id="defs4">
    <linearGradient
       id="linearGradient3809">
      <stop
         offset="0"
         style="stop-color:#e5e5e5"
         id="stop7" />
      <stop
         offset="1"
         style="stop-color:#f9f9f9"
         id="stop9" />
    </linearGradient>
    <linearGradient
       gradientTransform="translate(0 -16)"
       id="linearGradient3832"
       xlink:href="#linearGradient3809"
       x1="1"
       x2="15"
       gradientUnits="userSpaceOnUse" />
    <linearGradient
       inkscape:collect="always"
       xlink:href="#linearGradient3053"
       id="linearGradient3853"
       gradientUnits="userSpaceOnUse"
       gradientTransform="matrix(1.0666667,0,0,1.0666667,-418.66669,-532.65303)"
       x1="402.25"
       y1="507.86218"
       x2="396.61667"
       y2="502.85385" />
    <linearGradient
       id="linearGradient3053"
       inkscape:collect="always">
      <stop
         id="stop3055"
         offset="0"
         style="stop-color:#113fa3;stop-opacity:1" />
      <stop
         id="stop3057"
         offset="1"
         style="stop-color:#2e57b2;stop-opacity:1" />
    </linearGradient>
    <linearGradient
       inkscape:collect="always"
       xlink:href="#linearGradient3046"
       id="linearGradient3856"
       gradientUnits="userSpaceOnUse"
       gradientTransform="matrix(1.0666667,0,0,1.0666667,-418.66669,-532.65303)"
       x1="404"
       y1="514.23718"
       x2="398.375"
       y2="503.70303" />
    <linearGradient
       id="linearGradient3046"
       inkscape:collect="always">
      <stop
         id="stop3049"
         offset="0"
         style="stop-color:#1142aa;stop-opacity:1" />
      <stop
         id="stop3051"
         offset="1"
         style="stop-color:#2952ab;stop-opacity:1" />
    </linearGradient>
    <linearGradient
       gradientTransform="translate(0 -16)"
       id="linearGradient3832-6"
       xlink:href="#linearGradient3809"
       x1="1"
       x2="15"
       gradientUnits="userSpaceOnUse" />
  </defs>
  <rect
     style="fill:url(#linearGradient3856);fill-opacity:1;stroke:none"
     id="rect3024"
     width="16"
     height="16"
     x="-7.2848013e-07"
     y="-2.4944501e-07"
     rx="3.2666667"
     ry="3.2666667" />
  <rect
     ry="2.8311112"
     rx="2.8311112"
     y="1.0666665"
     x="1.066666"
     height="13.866667"
     width="13.866667"
     id="rect3026"
     style="fill:url(#linearGradient3853);fill-opacity:1;stroke:none" />
  <path
     style="opacity:0.2;fill:#000000;fill-opacity:1;stroke:none"
     d="m 11.594475,4.3380773 c -0.267296,0.050027 -0.533483,0.2235521 -0.7,0.4666667 l -4.3000009,6.3 -1.6333334,-1.6333332 c -0.416736,-0.416736 -1.083264,-0.416736 -1.5,0 -0.4167361,0.4167365 -0.4167361,1.0832642 0,1.4999992 l 2.3666667,2.366667 0.1666667,0.166667 c 0.044907,0.04437 0.079253,0.09632 0.1333333,0.133333 0.041707,0.02859 0.089387,0.0448 0.1333333,0.06667 0.054507,0.02688 0.1092907,0.04971 0.1666667,0.06667 0.032427,0.0096 0.0672,0.02667 0.099947,0.03328 0.021013,0.0043 0.04544,-0.0032 0.066667,0 0.090027,0.01152 0.176608,0.01152 0.2666666,0 0.090027,-0.01163 0.1813227,-0.03189 0.2666667,-0.06667 0.1339627,-0.05301 0.2612587,-0.126603 0.3666667,-0.233334 0.044373,-0.04491 0.09632,-0.07936 0.1333333,-0.133333 L 12.661088,6.0046907 c 0.333035,-0.4862293 0.219563,-1.1669547 -0.266667,-1.5 -0.243114,-0.1665174 -0.532704,-0.2166507 -0.8,-0.1666667 z"
     id="rect3067"
     inkscape:connector-curvature="0" />
  <path
     style="fill:#9fb0c8;fill-opacity:1;stroke:none"
     d="m 11.594475,3.271592 c -0.267296,0.050027 -0.533483,0.223552 -0.7,0.4666667 L 6.5944741,10.038259 4.9611407,8.4049255 c -0.416736,-0.416736 -1.083264,-0.416736 -1.5,0 -0.4167361,0.416736 -0.4167361,1.083264 0,1.5000004 l 2.3666667,2.3666661 0.1666667,0.166666 c 0.044907,0.04437 0.079253,0.09632 0.1333333,0.133334 0.041707,0.02859 0.089387,0.0448 0.1333333,0.06667 0.054507,0.02688 0.1092907,0.04971 0.1666667,0.06667 0.032427,0.0096 0.0672,0.02667 0.099947,0.03328 0.021013,0.0043 0.04544,-0.0032 0.066667,0 0.090027,0.01163 0.176608,0.01163 0.2666666,0 0.090027,-0.01163 0.1813227,-0.03189 0.2666667,-0.06667 0.1339627,-0.05301 0.2612587,-0.126613 0.3666667,-0.233333 0.044373,-0.04491 0.09632,-0.07925 0.1333333,-0.133333 L 12.661088,4.9382054 C 12.994123,4.451976 12.880651,3.7712507 12.394421,3.4382053 12.151307,3.271688 11.861717,3.2215546 11.594421,3.2715386 Z"
     id="rect3828"
     inkscape:connector-curvature="0" />
</svg>
