<?xml version="1.0" encoding="UTF-8" standalone="no"?>
<svg
   xmlns:dc="http://purl.org/dc/elements/1.1/"
   xmlns:cc="http://creativecommons.org/ns#"
   xmlns:rdf="http://www.w3.org/1999/02/22-rdf-syntax-ns#"
   xmlns:svg="http://www.w3.org/2000/svg"
   xmlns="http://www.w3.org/2000/svg"
   xmlns:xlink="http://www.w3.org/1999/xlink"
   xmlns:sodipodi="http://sodipodi.sourceforge.net/DTD/sodipodi-0.dtd"
   xmlns:inkscape="http://www.inkscape.org/namespaces/inkscape"
   width="80"
   viewBox="0 0 80 80"
   height="80"
   id="svg2"
   version="1.1"
   inkscape:version="0.91 r13725"
   sodipodi:docname="grid-selection-checked-dark@2.svg">
  <metadata
     id="metadata20">
    <rdf:RDF>
      <cc:Work
         rdf:about="">
        <dc:format>image/svg+xml</dc:format>
        <dc:type
           rdf:resource="http://purl.org/dc/dcmitype/StillImage" />
        <dc:title />
      </cc:Work>
    </rdf:RDF>
  </metadata>
  <sodipodi:namedview
     pagecolor="#ffffff"
     bordercolor="#666666"
     borderopacity="1"
     objecttolerance="10"
     gridtolerance="10"
     guidetolerance="10"
     inkscape:pageopacity="0"
     inkscape:pageshadow="2"
     inkscape:window-width="1366"
     inkscape:window-height="636"
     id="namedview18"
     showgrid="false"
     inkscape:zoom="1.6875"
     inkscape:cx="-13.65747"
     inkscape:cy="26.541564"
     inkscape:window-x="0"
     inkscape:window-y="28"
     inkscape:window-maximized="1"
     inkscape:current-layer="svg2" />
  <defs
     id="defs4">
    <linearGradient
       id="linearGradient5418">
      <stop
         offset="0"
         style="stop-color:#e5e5e5"
         id="stop7" />
      <stop
         offset="1"
         style="stop-color:#f9f9f9"
         id="stop9" />
    </linearGradient>
    <linearGradient
       gradientTransform="translate(-1.8e-4,-40.35782)"
       xlink:href="#linearGradient5418"
       id="linearGradient5424"
       x1="1.429"
       x2="38.929001"
       gradientUnits="userSpaceOnUse" />
    <linearGradient
       gradientUnits="userSpaceOnUse"
       x2="15"
       x1="1"
       xlink:href="#linearGradient5418"
       id="linearGradient3832"
       gradientTransform="translate(0,-16)" />
    <linearGradient
       y2="502.85385"
       x2="396.61667"
       y1="507.86218"
       x1="402.25"
       gradientTransform="matrix(5.5384614,0,0,5.5384614,-2175.3845,-2767.2366)"
       gradientUnits="userSpaceOnUse"
       id="linearGradient3853"
       xlink:href="#linearGradient3053-7"
       inkscape:collect="always" />
    <linearGradient
       y2="503.70303"
       x2="398.375"
       y1="514.23718"
       x1="404"
       gradientTransform="matrix(5.3333334,0,0,5.3333334,-2093.3333,-2663.265)"
       gradientUnits="userSpaceOnUse"
       id="linearGradient3856"
       xlink:href="#linearGradient3046-3"
       inkscape:collect="always" />
    <linearGradient
       gradientUnits="userSpaceOnUse"
       x2="15"
       x1="1"
       xlink:href="#linearGradient5418"
       id="linearGradient3832-3"
       gradientTransform="translate(0 -16)" />
    <linearGradient
       inkscape:collect="always"
       id="linearGradient3053-7">
      <stop
         style="stop-color:#1859e7;stop-opacity:1"
         offset="0"
         id="stop3055-1" />
      <stop
         style="stop-color:#154ecb;stop-opacity:1"
         offset="1"
         id="stop3057-7" />
    </linearGradient>
    <linearGradient
       inkscape:collect="always"
       id="linearGradient3046-3">
      <stop
         style="stop-color:#1754da;stop-opacity:1"
         offset="0"
         id="stop3049-8" />
      <stop
         style="stop-color:#144cc6;stop-opacity:1"
         offset="1"
         id="stop3051-9" />
    </linearGradient>
  </defs>
  <rect
     ry="16.333334"
     rx="16.333334"
     y="2.848053e-08"
     x="2.4707032e-07"
     height="80"
     width="80"
     id="rect3024"
     style="fill:url(#linearGradient3856);fill-opacity:1;stroke:none" />
  <rect
     style="fill:url(#linearGradient3853);fill-opacity:1;stroke:none"
     id="rect3026"
     width="72"
     height="72"
     x="4.0000005"
     y="4"
     rx="14.7"
     ry="14.7" />
  <path
     inkscape:connector-curvature="0"
     id="rect3067"
     d="m 57.972378,21.690388 c -1.33648,0.250132 -2.667414,1.11776 -3.5,2.333332 L 32.972376,55.523718 24.80571,47.357054 c -2.083682,-2.08368 -5.416322,-2.08368 -7.500002,0 -2.08368,2.083682 -2.08368,5.416322 0,7.499998 l 11.833334,11.833332 0.833334,0.833334 c 0.224534,0.221866 0.396266,0.4816 0.666666,0.666666 0.208534,0.14294 0.446934,0.224 0.666668,0.333334 0.272532,0.1344 0.546452,0.248534 0.833332,0.333334 0.16214,0.048 0.336,0.13334 0.499734,0.1664 0.10506,0.02134 0.2272,-0.016 0.333334,0 0.450132,0.0576 0.88304,0.0576 1.333332,0 0.450134,-0.05814 0.906614,-0.15946 1.333334,-0.333334 0.669814,-0.265066 1.306294,-0.633014 1.833334,-1.166666 0.221866,-0.224534 0.4816,-0.3968 0.666666,-0.666668 l 25.166668,-36.83333 c 1.665174,-2.431146 1.097814,-5.834774 -1.333332,-7.5 -1.215574,-0.832586 -2.66352,-1.083254 -4,-0.833334 z"
     style="opacity:0.2;fill:#000000;fill-opacity:1;stroke:none" />
  <path
     inkscape:connector-curvature="0"
     id="rect3828"
     d="m 57.972378,16.357961 c -1.33648,0.250133 -2.667414,1.11776 -3.5,2.333333 L 32.972376,50.191296 24.80571,42.024628 c -2.083682,-2.08368 -5.416322,-2.08368 -7.500002,0 -2.08368,2.08368 -2.08368,5.41632 0,7.500002 l 11.833334,11.833328 0.833334,0.833334 c 0.224534,0.221866 0.396266,0.4816 0.666666,0.666666 0.208534,0.14294 0.446934,0.224 0.666668,0.333334 0.272532,0.1344 0.546452,0.248532 0.833332,0.333332 0.16214,0.048 0.336,0.13334 0.499734,0.1664 0.10506,0.02134 0.2272,-0.016 0.333334,0 0.450132,0.05814 0.88304,0.05814 1.333332,0 0.450134,-0.05814 0.906614,-0.15946 1.333334,-0.333332 0.669814,-0.265068 1.306294,-0.633068 1.833334,-1.166668 0.221866,-0.224532 0.4816,-0.396266 0.666666,-0.666666 l 25.166668,-36.83333 c 1.665174,-2.431148 1.097814,-5.834774 -1.333332,-7.5 -1.215574,-0.832587 -2.66352,-1.083254 -4,-0.833334 z"
     style="fill:#e9f1fc;fill-opacity:1;stroke:none" />
</svg>
