<?xml version="1.0" encoding="UTF-8" standalone="no"?>
<!-- Created with Inkscape (http://www.inkscape.org/) -->

<svg
   xmlns:dc="http://purl.org/dc/elements/1.1/"
   xmlns:cc="http://creativecommons.org/ns#"
   xmlns:rdf="http://www.w3.org/1999/02/22-rdf-syntax-ns#"
   xmlns:svg="http://www.w3.org/2000/svg"
   xmlns="http://www.w3.org/2000/svg"
   xmlns:xlink="http://www.w3.org/1999/xlink"
   xmlns:sodipodi="http://sodipodi.sourceforge.net/DTD/sodipodi-0.dtd"
   xmlns:inkscape="http://www.inkscape.org/namespaces/inkscape"
   width="96"
   height="96"
   id="svg2"
   version="1.1"
   inkscape:version="0.48.4 r9939"
   sodipodi:docname="accessories-dictionary.svg">
  <defs
     id="defs4">
    <linearGradient
       id="linearGradient3193">
      <stop
         style="stop-color:#413044;stop-opacity:1"
         offset="0"
         id="stop3195" />
      <stop
         style="stop-color:#6b4b70;stop-opacity:1"
         offset="1"
         id="stop3197" />
    </linearGradient>
    <linearGradient
       id="linearGradient3081"
       inkscape:collect="always">
      <stop
         id="stop3084"
         offset="0"
         style="stop-color:#563d5a;stop-opacity:1" />
      <stop
         id="stop3086"
         offset="1"
         style="stop-color:#6d4c72;stop-opacity:1" />
    </linearGradient>
    <linearGradient
       id="linearGradient3587"
       inkscape:collect="always">
      <stop
         id="stop3589"
         offset="0"
         style="stop-color:#563d5a;stop-opacity:1" />
      <stop
         id="stop3591"
         offset="1"
         style="stop-color:#6d4c72;stop-opacity:1" />
    </linearGradient>
    <linearGradient
       id="linearGradient4298"
       inkscape:collect="always">
      <stop
         id="stop4300"
         offset="0"
         style="stop-color:#4a695a;stop-opacity:1" />
      <stop
         style="stop-color:#3f6252;stop-opacity:0.66666667;"
         offset="0.51535559"
         id="stop4304" />
      <stop
         id="stop4302"
         offset="1"
         style="stop-color:#295542;stop-opacity:0" />
    </linearGradient>
    <linearGradient
       inkscape:collect="always"
       id="linearGradient3142">
      <stop
         style="stop-color:#ffdb94;stop-opacity:1"
         offset="0"
         id="stop3144" />
      <stop
         style="stop-color:#efc142;stop-opacity:0"
         offset="1"
         id="stop3146" />
    </linearGradient>
    <linearGradient
       inkscape:collect="always"
       id="linearGradient3225">
      <stop
         style="stop-color:#1b2a2e;stop-opacity:1"
         offset="0"
         id="stop3227" />
      <stop
         style="stop-color:#425c52;stop-opacity:1"
         offset="1"
         id="stop3231" />
    </linearGradient>
    <linearGradient
       id="linearGradient3199"
       inkscape:collect="always">
      <stop
         id="stop3201"
         offset="0"
         style="stop-color:#182c21;stop-opacity:1" />
      <stop
         id="stop3203"
         offset="1"
         style="stop-color:#414c49;stop-opacity:1" />
    </linearGradient>
    <linearGradient
       inkscape:collect="always"
       id="linearGradient3222">
      <stop
         style="stop-color:#de005a;stop-opacity:1"
         offset="0"
         id="stop3224" />
      <stop
         style="stop-color:#a30444;stop-opacity:1"
         offset="1"
         id="stop3226" />
    </linearGradient>
    <linearGradient
       id="linearGradient3076"
       inkscape:collect="always">
      <stop
         id="stop3078"
         offset="0"
         style="stop-color:#ffe7f7;stop-opacity:1" />
      <stop
         id="stop3080"
         offset="1"
         style="stop-color:#ffc3ef;stop-opacity:1" />
    </linearGradient>
    <linearGradient
       inkscape:collect="always"
       id="linearGradient3048">
      <stop
         style="stop-color:#c16d16;stop-opacity:1"
         offset="0"
         id="stop3050" />
      <stop
         style="stop-color:#ff8e31;stop-opacity:1"
         offset="1"
         id="stop3052" />
    </linearGradient>
    <linearGradient
       inkscape:collect="always"
       id="linearGradient3119">
      <stop
         style="stop-color:#92948f;stop-opacity:0"
         offset="0"
         id="stop3121" />
      <stop
         id="stop3123"
         offset="0.4283945"
         style="stop-color:#9b9e98;stop-opacity:1" />
      <stop
         style="stop-color:#939690;stop-opacity:0"
         offset="1"
         id="stop3125" />
    </linearGradient>
    <linearGradient
       id="linearGradient3073"
       inkscape:collect="always">
      <stop
         id="stop3075"
         offset="0"
         style="stop-color:#ffffff;stop-opacity:0" />
      <stop
         style="stop-color:#ffffff;stop-opacity:1"
         offset="0.45872402"
         id="stop3085" />
      <stop
         id="stop3083"
         offset="1"
         style="stop-color:#ffffff;stop-opacity:0" />
    </linearGradient>
    <linearGradient
       inkscape:collect="always"
       id="linearGradient3047">
      <stop
         style="stop-color:#000000;stop-opacity:1"
         offset="0"
         id="stop3049" />
      <stop
         id="stop3055"
         offset="0.06123874"
         style="stop-color:#1a1a1a;stop-opacity:1" />
      <stop
         style="stop-color:#333333;stop-opacity:1"
         offset="0.16480456"
         id="stop3057" />
      <stop
         id="stop3059"
         offset="0.55385184"
         style="stop-color:#4d4d4d;stop-opacity:1" />
      <stop
         style="stop-color:#999999;stop-opacity:1"
         offset="1"
         id="stop3051" />
    </linearGradient>
    <linearGradient
       id="linearGradient3041"
       inkscape:collect="always">
      <stop
         id="stop3043"
         offset="0"
         style="stop-color:#1a1a1a;stop-opacity:1" />
      <stop
         id="stop3045"
         offset="1"
         style="stop-color:#808080;stop-opacity:1" />
    </linearGradient>
    <linearGradient
       inkscape:collect="always"
       id="linearGradient3029">
      <stop
         style="stop-color:#333333;stop-opacity:1"
         offset="0"
         id="stop3031" />
      <stop
         style="stop-color:#e0e0dd;stop-opacity:0;"
         offset="1"
         id="stop3033" />
    </linearGradient>
    <linearGradient
       inkscape:collect="always"
       xlink:href="#linearGradient3029"
       id="linearGradient3035"
       x1="35.355339"
       y1="1030.3622"
       x2="35.355339"
       y2="975.33282"
       gradientUnits="userSpaceOnUse"
       gradientTransform="matrix(1.1638085,0,0,1.1638085,-7.862809,-164.23642)" />
    <linearGradient
       inkscape:collect="always"
       xlink:href="#linearGradient3041"
       id="linearGradient3039"
       gradientUnits="userSpaceOnUse"
       x1="35.355339"
       y1="1030.3622"
       x2="35.355339"
       y2="975.33282"
       gradientTransform="matrix(1.1218695,0,0,1.1218695,-5.8497348,-122.18782)" />
    <linearGradient
       inkscape:collect="always"
       xlink:href="#linearGradient3047"
       id="linearGradient3053"
       x1="40"
       y1="1043.4336"
       x2="39.285713"
       y2="972.33325"
       gradientUnits="userSpaceOnUse" />
    <linearGradient
       inkscape:collect="always"
       xlink:href="#linearGradient3073"
       id="linearGradient3113"
       gradientUnits="userSpaceOnUse"
       gradientTransform="translate(0,-956.36218)"
       x1="14.869445"
       y1="978.90387"
       x2="24.52651"
       y2="969.24683" />
    <linearGradient
       inkscape:collect="always"
       xlink:href="#linearGradient3073"
       id="linearGradient3115"
       gradientUnits="userSpaceOnUse"
       gradientTransform="matrix(-1,0,0,1,96,-956.36218)"
       x1="15.152279"
       y1="978.62103"
       x2="26.263966"
       y2="967.50934" />
    <linearGradient
       inkscape:collect="always"
       xlink:href="#linearGradient3119"
       id="linearGradient3117"
       gradientUnits="userSpaceOnUse"
       gradientTransform="translate(0,-956.36218)"
       x1="13.131983"
       y1="980.64136"
       x2="25.549681"
       y2="967.86646" />
    <linearGradient
       inkscape:collect="always"
       xlink:href="#linearGradient3119"
       id="linearGradient3129"
       gradientUnits="userSpaceOnUse"
       gradientTransform="matrix(-1,0,0,1,96,0)"
       x1="13.131983"
       y1="980.64136"
       x2="25.549681"
       y2="967.86646" />
    <linearGradient
       inkscape:collect="always"
       xlink:href="#linearGradient3048"
       id="linearGradient3054"
       x1="49.267925"
       y1="996.57349"
       x2="49.267925"
       y2="1045.8627"
       gradientUnits="userSpaceOnUse" />
    <linearGradient
       inkscape:collect="always"
       xlink:href="#linearGradient3048"
       id="linearGradient3058"
       x1="115.80308"
       y1="985.47241"
       x2="115.80308"
       y2="1033.5543"
       gradientUnits="userSpaceOnUse" />
    <linearGradient
       inkscape:collect="always"
       xlink:href="#linearGradient3222"
       id="linearGradient3055"
       gradientUnits="userSpaceOnUse"
       x1="115.80308"
       y1="985.47241"
       x2="115.80308"
       y2="1025.3639"
       gradientTransform="matrix(1.4144782,0,0,1.4144782,-119.78686,-419.05496)" />
    <linearGradient
       inkscape:collect="always"
       xlink:href="#linearGradient3076"
       id="linearGradient3086"
       gradientUnits="userSpaceOnUse"
       gradientTransform="matrix(1.4144782,0,0,1.4144782,-119.78686,-417.12598)"
       x1="115.80308"
       y1="985.47241"
       x2="115.80308"
       y2="1025.3639" />
    <linearGradient
       inkscape:collect="always"
       xlink:href="#linearGradient3076"
       id="linearGradient3091"
       gradientUnits="userSpaceOnUse"
       gradientTransform="matrix(1.4144782,0,0,1.4144782,-119.78686,-418.126)"
       x1="115.80308"
       y1="985.47241"
       x2="115.80308"
       y2="1025.3639" />
    <linearGradient
       inkscape:collect="always"
       xlink:href="#linearGradient3076"
       id="linearGradient3093"
       gradientUnits="userSpaceOnUse"
       gradientTransform="matrix(1.4144782,0,0,1.4144782,-119.78686,-1375.4171)"
       x1="115.80308"
       y1="985.47241"
       x2="115.80308"
       y2="1025.3639" />
    <linearGradient
       inkscape:collect="always"
       xlink:href="#linearGradient3081"
       id="linearGradient3155"
       gradientUnits="userSpaceOnUse"
       x1="34.368782"
       y1="1045.1626"
       x2="34.368782"
       y2="962.46661"
       gradientTransform="translate(-99.133705,0)" />
    <linearGradient
       inkscape:collect="always"
       xlink:href="#linearGradient3199"
       id="linearGradient3346"
       gradientUnits="userSpaceOnUse"
       gradientTransform="matrix(0,-1,-1,0,1053.3622,1052.3622)"
       x1="6.4664979"
       y1="963.49542"
       x2="89.618896"
       y2="963.49542" />
    <linearGradient
       inkscape:collect="always"
       xlink:href="#linearGradient3142"
       id="linearGradient3148"
       x1="75.713211"
       y1="1036.0603"
       x2="67.381134"
       y2="1024.4679"
       gradientUnits="userSpaceOnUse" />
    <linearGradient
       inkscape:collect="always"
       xlink:href="#linearGradient4298"
       id="linearGradient3191"
       gradientUnits="userSpaceOnUse"
       x1="75.325203"
       y1="1035.9027"
       x2="66.832405"
       y2="1024.5504" />
    <linearGradient
       inkscape:collect="always"
       xlink:href="#linearGradient3225"
       id="linearGradient3575"
       gradientUnits="userSpaceOnUse"
       gradientTransform="matrix(-1,0,0,1,96,-956.36218)"
       x1="34.368782"
       y1="1045.1626"
       x2="34.368782"
       y2="962.46661" />
    <linearGradient
       inkscape:collect="always"
       xlink:href="#linearGradient3587"
       id="linearGradient3580"
       gradientUnits="userSpaceOnUse"
       x1="34.368782"
       y1="1045.1626"
       x2="34.368782"
       y2="962.46661" />
    <linearGradient
       inkscape:collect="always"
       xlink:href="#linearGradient3193"
       id="linearGradient3145"
       gradientUnits="userSpaceOnUse"
       x1="34.368782"
       y1="1045.1626"
       x2="34.368782"
       y2="962.46661"
       gradientTransform="translate(-99.133705,0)" />
    <linearGradient
       gradientTransform="translate(0,956.36296)"
       inkscape:collect="always"
       xlink:href="#linearGradient3148-4"
       id="linearGradient3154"
       x1="16.503042"
       y1="58.25"
       x2="6.2307978"
       y2="58.25"
       gradientUnits="userSpaceOnUse" />
    <linearGradient
       inkscape:collect="always"
       id="linearGradient3148-4">
      <stop
         style="stop-color:#000000;stop-opacity:1"
         offset="0"
         id="stop3150" />
      <stop
         style="stop-color:#274f3b;stop-opacity:0;"
         offset="1"
         id="stop3152" />
    </linearGradient>
    <linearGradient
       inkscape:collect="always"
       xlink:href="#linearGradient3143"
       id="linearGradient3183"
       gradientUnits="userSpaceOnUse"
       gradientTransform="translate(165.17783,-19.21395)"
       x1="-72.606209"
       y1="1059.8721"
       x2="-117.01132"
       y2="982.96021" />
    <linearGradient
       id="linearGradient3143"
       inkscape:collect="always">
      <stop
         id="stop3145"
         offset="0"
         style="stop-color:#3e1e1e;stop-opacity:1" />
      <stop
         id="stop3147"
         offset="1"
         style="stop-color:#5a4040;stop-opacity:1" />
    </linearGradient>
    <linearGradient
       y2="982.96021"
       x2="-117.01132"
       y1="1059.8721"
       x1="-72.606209"
       gradientTransform="translate(165.17783,-19.21317)"
       gradientUnits="userSpaceOnUse"
       id="linearGradient3150"
       xlink:href="#linearGradient3193"
       inkscape:collect="always" />
    <linearGradient
       inkscape:collect="always"
       xlink:href="#linearGradient3081"
       id="linearGradient3172"
       gradientUnits="userSpaceOnUse"
       gradientTransform="translate(-99.133705,0)"
       x1="34.368782"
       y1="1045.1626"
       x2="34.368782"
       y2="962.46661" />
    <linearGradient
       inkscape:collect="always"
       xlink:href="#linearGradient3193"
       id="linearGradient3174"
       gradientUnits="userSpaceOnUse"
       gradientTransform="translate(-99.133705,0)"
       x1="34.368782"
       y1="1045.1626"
       x2="34.368782"
       y2="962.46661" />
    <linearGradient
       inkscape:collect="always"
       xlink:href="#linearGradient3193"
       id="linearGradient3200"
       gradientUnits="userSpaceOnUse"
       gradientTransform="translate(-99.133705,0)"
       x1="34.368782"
       y1="1045.1626"
       x2="34.368782"
       y2="962.46661" />
    <linearGradient
       inkscape:collect="always"
       xlink:href="#linearGradient3081"
       id="linearGradient3205"
       gradientUnits="userSpaceOnUse"
       gradientTransform="translate(-99.133705,0)"
       x1="34.368782"
       y1="1045.1626"
       x2="34.368782"
       y2="962.46661" />
  </defs>
  <sodipodi:namedview
     id="base"
     pagecolor="#ffffff"
     bordercolor="#666666"
     borderopacity="1.0"
     inkscape:pageopacity="0.0"
     inkscape:pageshadow="2"
     inkscape:zoom="2.7604166"
     inkscape:cx="-44.364579"
     inkscape:cy="95.833818"
     inkscape:document-units="px"
     inkscape:current-layer="layer1"
     showgrid="false"
     inkscape:window-width="1366"
     inkscape:window-height="715"
     inkscape:window-x="0"
     inkscape:window-y="25"
     inkscape:window-maximized="1"
     showguides="false"
     inkscape:guide-bbox="true">
    <sodipodi:guide
       orientation="0,1"
       position="120.2717,73.17736"
       id="guide4443" />
    <sodipodi:guide
       orientation="0,1"
       position="142.73208,28.256604"
       id="guide4445" />
    <sodipodi:guide
       orientation="0,1"
       position="193.81133,64.845285"
       id="guide3247" />
    <sodipodi:guide
       orientation="0,1"
       position="112.32592,86.966131"
       id="guide3344" />
  </sodipodi:namedview>
  <metadata
     id="metadata7">
    <rdf:RDF>
      <cc:Work
         rdf:about="">
        <dc:format>image/svg+xml</dc:format>
        <dc:type
           rdf:resource="http://purl.org/dc/dcmitype/StillImage" />
        <dc:title />
      </cc:Work>
    </rdf:RDF>
  </metadata>
  <g
     inkscape:label="Layer 1"
     inkscape:groupmode="layer"
     id="layer1"
     transform="translate(0,-956.36218)">
    <g
       id="g3033"
       transform="translate(0,-1.0000026)">
      <rect
         ry="10.595235"
         rx="10.595235"
         y="961.86218"
         x="3.5"
         height="89"
         width="89"
         id="rect3826"
         style="opacity:0.05;fill:#000000;fill-opacity:1;stroke:none" />
      <rect
         style="opacity:0.05;fill:#000000;fill-opacity:1;stroke:none"
         id="rect3824"
         width="88"
         height="88"
         x="4"
         y="962.36218"
         rx="10.476188"
         ry="10.476188" />
      <rect
         ry="10.357141"
         rx="10.357141"
         y="962.86218"
         x="4.5"
         height="87"
         width="87"
         id="rect3822"
         style="opacity:0.05;fill:#000000;fill-opacity:1;stroke:none" />
      <rect
         style="opacity:0.1;fill:#000000;fill-opacity:1;stroke:none"
         id="rect3820"
         width="86"
         height="86"
         x="5"
         y="963.36218"
         rx="10.238094"
         ry="10.238094" />
      <rect
         ry="10.119047"
         rx="10.119047"
         y="963.86218"
         x="5.5"
         height="85"
         width="85"
         id="rect3818"
         style="opacity:0.1;fill:#000000;fill-opacity:1;stroke:none" />
      <rect
         style="opacity:0.3;fill:#000000;fill-opacity:1;stroke:none"
         id="rect3131"
         width="84"
         height="84"
         x="6"
         y="964.36218"
         rx="10"
         ry="10" />
    </g>
    <g
       style="font-size:40px;font-style:normal;font-variant:normal;font-weight:normal;font-stretch:normal;line-height:125%;letter-spacing:0px;word-spacing:0px;fill:#ffffff;fill-opacity:1;stroke:none;font-family:Webdings;-inkscape-font-specification:Webdings"
       id="text3167"
       transform="matrix(3.2606187,0,0,3.2606187,-2.8862981,-2180.6197)" />
    <path
       style="fill:url(#linearGradient3150);fill-opacity:1;stroke:none"
       d="m 16,962.36364 c -0.6925,0 -1.37865,0.0543 -2.03125,0.1875 -0.32607,0.0664 -0.65524,0.1529 -0.96875,0.25 -0.61765,0.19371 -1.22184,0.44646 -1.78125,0.75 -0.28343,0.15359 -0.57783,0.32064 -0.84375,0.5 -0.53184,0.35871 -1.01687,0.76687 -1.46875,1.21875 -0.45188,0.45188 -0.86004,0.93691 -1.21875,1.46875 -0.36552,0.53862 -0.64993,1.11178 -0.90625,1.71875 -0.12617,0.2993 -0.24665,0.59274 -0.34375,0.90625 -0.29778,0.94951 -0.4375,1.95108 -0.4375,3 l 0,63.96876 0,0.031 c 0.003,1.0275 0.1482,2.0055 0.4375,2.9375 0.003,0.01 -0.003,0.022 0,0.031 0.292,0.931 0.71577,1.8024 1.25,2.5938 0.005,0.01 -0.005,0.024 0,0.031 0.35871,0.5318 0.76687,1.0169 1.21875,1.4688 0.45188,0.4518 0.93691,0.86 1.46875,1.2187 0.53861,0.3655 1.11179,0.6499 1.71875,0.9063 0.2993,0.1261 0.59274,0.2466 0.90625,0.3437 0.94951,0.2978 1.95108,0.4688 3,0.4688 l 5.34375,0 26.65625,0 31.96875,0 c 2.08628,0 4.02265,-0.6314 5.625,-1.7188 0.53184,-0.3587 1.01687,-0.7669 1.46875,-1.2187 0.45187,-0.4519 0.86004,-0.937 1.21875,-1.4688 1.0874,-1.6023 1.71875,-3.5387 1.71875,-5.625 l 0,-63.96876 c 0,-2.08628 -0.63135,-4.02264 -1.71875,-5.625 -0.35871,-0.53184 -0.76688,-1.01687 -1.21875,-1.46875 -0.45188,-0.45188 -0.93691,-0.86004 -1.46875,-1.21875 -0.007,-0.005 -0.02405,0.005 -0.03125,0 -0.79137,-0.53423 -1.66266,-0.95799 -2.59375,-1.25 -0.01,-0.003 -0.02185,0.003 -0.03125,0 -0.93197,-0.28931 -1.90998,-0.43436 -2.9375,-0.4375 l -32,0 -26.65625,0 -5.34375,0 z"
       id="rect3108"
       inkscape:connector-curvature="0" />
    <rect
       ry="0"
       rx="0"
       y="16"
       x="-1046.3622"
       height="1"
       width="84"
       id="rect3122"
       style="opacity:0.1;fill:#ffffff;fill-opacity:1;stroke:none"
       transform="matrix(0,-1,1,0,0,0)" />
    <path
       inkscape:connector-curvature="0"
       style="opacity:0.5;fill:url(#linearGradient3154);fill-opacity:1;stroke:none"
       d="m 16,962.36296 c -0.6925,0 -1.37865,0.0543 -2.03125,0.1875 -0.32607,0.0664 -0.65524,0.1529 -0.96875,0.25 -0.61765,0.19371 -1.22184,0.44646 -1.78125,0.75 -0.28343,0.15359 -0.57783,0.32064 -0.84375,0.5 -0.53184,0.35871 -1.01687,0.76687 -1.46875,1.21875 -0.45188,0.45188 -0.86004,0.93691 -1.21875,1.46875 -0.36552,0.53862 -0.64993,1.11178 -0.90625,1.71875 -0.12617,0.2993 -0.24665,0.59274 -0.34375,0.90625 -0.29778,0.94951 -0.4375,1.95108 -0.4375,3 l 0,63.96884 0,0.031 c 0.003,1.0275 0.1482,2.0055 0.4375,2.9375 0.003,0.01 -0.003,0.022 0,0.031 0.292,0.931 0.71577,1.8023 1.25,2.5937 0.005,0.01 -0.005,0.024 0,0.031 0.35871,0.5318 0.76687,1.0168 1.21875,1.4687 0.45188,0.4518 0.93691,0.8601 1.46875,1.2188 0.53861,0.3655 1.11179,0.6498 1.71875,0.9062 0.2993,0.1261 0.59274,0.2467 0.90625,0.3438 0.94951,0.2978 1.95108,0.4687 3,0.4687 l 0,-84.00004 z"
       id="rect3143" />
    <g
       style="font-size:34.33147812px;font-style:normal;font-variant:normal;font-weight:bold;font-stretch:normal;text-align:center;line-height:125%;letter-spacing:0px;word-spacing:0px;text-anchor:middle;fill:#ffffff;fill-opacity:1;stroke:none;font-family:Ubuntu;-inkscape-font-specification:Sans Bold"
       id="text3131">
      <path
         d="m 40.072029,985.20582 -9.36,24.98398 4.32,0 2.484,-6.552 9.18,0 2.52,6.552 4.572,0 -9.36,-24.98398 -4.356,0 m 5.22,14.4 -6.372,0 3.204,-9.288 3.168,9.288"
         style="font-size:36px;font-family:Cantarell;-inkscape-font-specification:Cantarell Bold"
         id="path3133" />
      <path
         d="m 62.816154,992.47782 c -2.987997,0 -4.464001,0.72 -5.724,1.152 l 0,3.312 c 1.583998,-0.648 3.024002,-1.188 4.788,-1.188 3.563996,0 4.392,0.972 4.392,3.924 l -3.348,0.18 c -4.643995,0.28798 -7.236,2.12398 -7.236,5.54398 0,3.024 2.304004,5.148 6.084,5.148 2.087998,0 3.744001,-0.648 5.112,-1.512 l 0.468,1.152 3.456,0 0,-10.65598 c 0,-4.068 -1.620006,-7.056 -7.992,-7.056 m 3.672,13.85998 c -0.935999,0.576 -1.764002,1.008 -3.6,1.008 -1.799998,0 -2.916,-0.864 -2.916,-2.232 0,-1.368 1.080002,-2.16 3.42,-2.304 l 3.096,-0.18 0,3.708"
         style="font-size:36px;font-family:Cantarell;-inkscape-font-specification:Cantarell Bold"
         id="path3135" />
    </g>
    <g
       style="font-size:3.86797071px;font-style:normal;font-variant:normal;font-weight:bold;font-stretch:normal;text-align:start;line-height:125%;letter-spacing:0px;word-spacing:0px;text-anchor:start;opacity:0.5;fill:#ffffff;fill-opacity:1;stroke:none;font-family:Ubuntu;-inkscape-font-specification:Sans Bold"
       id="text3135">
      <path
         d="m 27.416782,1031.9247 0,-1.2184 -1.168127,0 0,0.4177 0.700103,0 0,0.5725 c -0.119907,0.066 -0.232079,0.1006 -0.456421,0.1006 -0.576327,0 -0.994068,-0.3984 -0.994068,-0.9554 0,-0.5725 0.456421,-0.909 0.932181,-0.909 0.270757,0 0.53378,0.097 0.680762,0.1741 l 0.06962,0.039 0.197266,-0.3751 -0.06575,-0.039 c -0.22821,-0.1277 -0.537648,-0.236 -0.897369,-0.236 -0.901237,0 -1.400206,0.6615 -1.400206,1.3654 0,0.6614 0.44095,1.377 1.404074,1.377 0.622742,0 0.897369,-0.2398 0.997936,-0.3133"
         style="text-align:center;text-anchor:middle;font-family:Cantarell;-inkscape-font-specification:Cantarell Bold"
         id="path3086" />
      <path
         d="m 27.941134,1029.515 0,2.6843 0.47576,0 0,-1.9958 1.288035,1.9958 0.580195,0 0,-2.6843 -0.47576,0 0,1.992 -1.29577,-1.992 -0.57246,0"
         style="text-align:center;text-anchor:middle;font-family:Cantarell;-inkscape-font-specification:Cantarell Bold"
         id="path3088" />
      <path
         d="m 32.113224,1029.4879 c -0.746518,0 -1.326714,0.5376 -1.326714,1.377 0,0.9128 0.657556,1.3615 1.311242,1.3615 0.765857,0 1.33445,-0.5647 1.33445,-1.3963 0,-0.8278 -0.580196,-1.3422 -1.318978,-1.3422 m -0.01934,0.4371 c 0.394533,0 0.850954,0.2707 0.850954,0.936 0,0.6576 -0.429346,0.9283 -0.82001,0.9283 -0.471892,0 -0.850954,-0.3674 -0.850954,-0.9631 0,-0.6305 0.421609,-0.9012 0.82001,-0.9012"
         style="text-align:center;text-anchor:middle;font-family:Cantarell;-inkscape-font-specification:Cantarell Bold"
         id="path3090" />
      <path
         d="m 33.93951,1029.515 0,2.6843 0.475761,0 0,-2.0229 0.673026,1.3344 0.402269,0 0.680763,-1.3344 0,2.0229 0.475761,0 0,-2.6843 -0.61114,0 -0.738782,1.4698 -0.723311,-1.4698 -0.634347,0"
         style="text-align:center;text-anchor:middle;font-family:Cantarell;-inkscape-font-specification:Cantarell Bold"
         id="path3092" />
      <path
         d="m 37.263548,1032.1993 1.748322,0 0,-0.437 -1.272562,0 0,-0.704 1.133316,0 0,-0.4371 -1.133316,0 0,-0.6692 1.272562,0 0,-0.437 -1.748322,0 0,2.6843"
         style="text-align:center;text-anchor:middle;font-family:Cantarell;-inkscape-font-specification:Cantarell Bold"
         id="path3094" />
      <path
         d="m 41.60468,1029.9443 c 0.243682,0 0.460288,0.062 0.676895,0.147 l 0.15085,-0.4332 -0.04642,-0.019 c -0.108303,-0.035 -0.371326,-0.1431 -0.796802,-0.1431 -0.615007,0 -1.001805,0.3172 -1.001805,0.7543 0,0.9438 1.454357,0.6962 1.442753,1.2068 0,0.1934 -0.235946,0.3326 -0.584063,0.3326 -0.146983,0 -0.38293,-0.043 -0.731047,-0.1702 l -0.07349,-0.031 -0.162455,0.4371 0.06962,0.023 c 0.259153,0.1006 0.518308,0.1895 0.858689,0.1895 0.827745,0 1.113976,-0.41 1.113976,-0.7813 0,-0.9245 -1.442753,-0.7272 -1.442753,-1.1875 0,-0.1934 0.201134,-0.3249 0.526044,-0.3249"
         style="text-align:center;text-anchor:middle;font-family:Cantarell;-inkscape-font-specification:Cantarell Bold"
         id="path3096" />
      <path
         d="m 44.308029,1032.1336 -0.06962,-0.3288 c -0.07349,0.019 -0.220475,0.054 -0.355854,0.054 -0.255286,0 -0.313305,-0.1277 -0.313305,-0.2708 l 0,-0.8935 0.653687,0 0,-0.3597 -0.653687,0 0,-0.5377 -0.464157,0 0,0.5377 -0.309437,0 0,0.3597 0.309437,0 0,0.9051 c 0,0.3288 0.08123,0.6382 0.673027,0.6382 0.177927,0 0.398401,-0.054 0.529912,-0.1044"
         style="text-align:center;text-anchor:middle;font-family:Cantarell;-inkscape-font-specification:Cantarell Bold"
         id="path3098" />
      <path
         d="m 45.26644,1030.2963 c -0.321041,0 -0.479629,0.077 -0.615007,0.1238 l 0,0.3558 c 0.17019,-0.07 0.324909,-0.1276 0.51444,-0.1276 0.382928,0 0.471892,0.1044 0.471892,0.4216 l -0.359721,0.019 c -0.498968,0.031 -0.777462,0.2282 -0.777462,0.5957 0,0.3249 0.24755,0.5531 0.653687,0.5531 0.224342,0 0.402269,-0.07 0.549252,-0.1624 l 0.05028,0.1237 0.371325,0 0,-1.1449 c 0,-0.4371 -0.174059,-0.7581 -0.858689,-0.7581 m 0.394533,1.4892 c -0.100567,0.062 -0.189531,0.1083 -0.386797,0.1083 -0.193398,0 -0.313306,-0.093 -0.313306,-0.2398 0,-0.147 0.11604,-0.2321 0.367458,-0.2476 l 0.332645,-0.019 0,0.3984"
         style="text-align:center;text-anchor:middle;font-family:Cantarell;-inkscape-font-specification:Cantarell Bold"
         id="path3100" />
      <path
         d="m 46.893948,1030.335 -0.324909,0 0,1.8643 0.464156,0 0,-1.4156 c 0.205003,-0.085 0.359722,-0.1045 0.444817,-0.1045 0.297833,0 0.336513,0.2398 0.336513,0.3791 l 0,1.141 0.464157,0 0,-1.0598 c 0,-0.3249 -0.03094,-0.8393 -0.676895,-0.8393 -0.255286,0 -0.498968,0.1005 -0.645951,0.1624 l -0.06189,-0.1276"
         style="text-align:center;text-anchor:middle;font-family:Cantarell;-inkscape-font-specification:Cantarell Bold"
         id="path3102" />
      <path
         d="m 49.9792,1029.515 0,0.8625 c -0.127643,-0.05 -0.278494,-0.081 -0.444817,-0.081 -0.379061,0 -0.908973,0.2553 -0.908973,0.9709 0,0.5995 0.34425,0.9708 0.951521,0.9708 0.201134,0 0.371325,-0.073 0.498968,-0.1392 l 0.03481,0.1005 0.332645,0 0,-2.6843 -0.464156,0 m -0.336514,1.1488 c 0.100568,0 0.212739,0.015 0.336514,0.062 l 0,1.0637 c -0.08509,0.05 -0.189531,0.093 -0.321042,0.093 -0.309437,0 -0.556987,-0.1509 -0.556987,-0.588 0,-0.4835 0.232078,-0.6304 0.541515,-0.6304"
         style="text-align:center;text-anchor:middle;font-family:Cantarell;-inkscape-font-specification:Cantarell Bold"
         id="path3104" />
      <path
         d="m 51.574555,1030.2963 c -0.321041,0 -0.479629,0.077 -0.615007,0.1238 l 0,0.3558 c 0.17019,-0.07 0.324909,-0.1276 0.51444,-0.1276 0.382928,0 0.471892,0.1044 0.471892,0.4216 l -0.359721,0.019 c -0.498968,0.031 -0.777462,0.2282 -0.777462,0.5957 0,0.3249 0.24755,0.5531 0.653687,0.5531 0.224342,0 0.402269,-0.07 0.549252,-0.1624 l 0.05028,0.1237 0.371325,0 0,-1.1449 c 0,-0.4371 -0.174059,-0.7581 -0.858689,-0.7581 m 0.394533,1.4892 c -0.100567,0.062 -0.189531,0.1083 -0.386797,0.1083 -0.193398,0 -0.313306,-0.093 -0.313306,-0.2398 0,-0.147 0.11604,-0.2321 0.367458,-0.2476 l 0.332645,-0.019 0,0.3984"
         style="text-align:center;text-anchor:middle;font-family:Cantarell;-inkscape-font-specification:Cantarell Bold"
         id="path3106" />
      <path
         d="m 53.263953,1030.4626 -0.06189,-0.1276 -0.324909,0 0,1.8643 0.464156,0 0,-1.4388 c 0.127643,-0.039 0.274626,-0.07 0.425477,-0.07 0.116039,0 0.239814,0.019 0.355853,0.07 l 0.03094,0 0,-0.3907 c -0.108303,-0.05 -0.224342,-0.073 -0.340381,-0.073 -0.193399,0 -0.390665,0.066 -0.549252,0.1663"
         style="text-align:center;text-anchor:middle;font-family:Cantarell;-inkscape-font-specification:Cantarell Bold"
         id="path3108" />
      <path
         d="m 55.705608,1029.515 0,0.8625 c -0.127643,-0.05 -0.278494,-0.081 -0.444817,-0.081 -0.379061,0 -0.908973,0.2553 -0.908973,0.9709 0,0.5995 0.34425,0.9708 0.951521,0.9708 0.201134,0 0.371325,-0.073 0.498968,-0.1392 l 0.03481,0.1005 0.332645,0 0,-2.6843 -0.464156,0 m -0.336514,1.1488 c 0.100568,0 0.212739,0.015 0.336514,0.062 l 0,1.0637 c -0.08509,0.05 -0.189531,0.093 -0.321042,0.093 -0.309437,0 -0.556987,-0.1509 -0.556987,-0.588 0,-0.4835 0.232078,-0.6304 0.541515,-0.6304"
         style="text-align:center;text-anchor:middle;font-family:Cantarell;-inkscape-font-specification:Cantarell Bold"
         id="path3110" />
      <path
         d="m 58.679654,1029.952 c 0.599535,0 0.936049,0.3018 0.936049,0.8897 0,0.2514 -0.06962,0.4139 -0.119907,0.5028 -0.220474,0.4062 -0.649819,0.4178 -0.943785,0.4178 l -0.309438,0 0,-1.8103 0.437081,0 m -0.0077,-0.437 -0.905105,0 0,2.6843 0.669159,0 c 0.224342,0 0.464157,0 0.692367,-0.058 0.746517,-0.1779 0.974728,-0.8161 0.974728,-1.3615 0,-0.5531 -0.297834,-1.2648 -1.431149,-1.2648"
         style="text-align:center;text-anchor:middle;font-family:Cantarell;-inkscape-font-specification:Cantarell Bold"
         id="path3112" />
      <path
         d="m 60.529996,1029.515 0,0.4525 0.464156,0 0,-0.4525 -0.464156,0 m 0,0.82 0,1.8643 0.464156,0 0,-1.8643 -0.464156,0"
         style="text-align:center;text-anchor:middle;font-family:Cantarell;-inkscape-font-specification:Cantarell Bold"
         id="path3114" />
      <path
         d="m 61.838275,1031.271 c 0,-0.3558 0.185663,-0.6111 0.564724,-0.6111 0.197266,0 0.355853,0.058 0.502836,0.116 l 0.135379,-0.3055 c -0.170191,-0.085 -0.367458,-0.1741 -0.715575,-0.1741 -0.587931,0 -0.963124,0.3907 -0.963124,0.9747 0,0.5841 0.375193,0.9748 0.963124,0.9748 0.348117,0 0.545384,-0.089 0.715575,-0.1741 l -0.135379,-0.3056 c -0.146983,0.058 -0.30557,0.1161 -0.502836,0.1161 -0.359721,0 -0.564724,-0.2553 -0.564724,-0.6112"
         style="text-align:center;text-anchor:middle;font-family:Cantarell;-inkscape-font-specification:Cantarell Bold"
         id="path3116" />
      <path
         d="m 64.750858,1032.1336 -0.06962,-0.3288 c -0.07349,0.019 -0.220475,0.054 -0.355854,0.054 -0.255285,0 -0.313305,-0.1277 -0.313305,-0.2708 l 0,-0.8935 0.653687,0 0,-0.3597 -0.653687,0 0,-0.5377 -0.464157,0 0,0.5377 -0.309437,0 0,0.3597 0.309437,0 0,0.9051 c 0,0.3288 0.08123,0.6382 0.673027,0.6382 0.177927,0 0.398401,-0.054 0.529912,-0.1044"
         style="text-align:center;text-anchor:middle;font-family:Cantarell;-inkscape-font-specification:Cantarell Bold"
         id="path3118" />
      <path
         d="m 65.040108,1029.515 0,0.4525 0.464157,0 0,-0.4525 -0.464157,0 m 0,0.82 0,1.8643 0.464157,0 0,-1.8643 -0.464157,0"
         style="text-align:center;text-anchor:middle;font-family:Cantarell;-inkscape-font-specification:Cantarell Bold"
         id="path3120" />
      <path
         d="m 66.82802,1030.6599 c 0.263022,0 0.479628,0.2127 0.479628,0.6111 0,0.3984 -0.212738,0.5996 -0.479628,0.5996 -0.263022,0 -0.479628,-0.205 -0.479628,-0.5996 0,-0.3945 0.220474,-0.6111 0.479628,-0.6111 m 0,1.5781 c 0.584063,0 0.959257,-0.3906 0.959257,-0.9708 0,-0.5841 -0.367458,-0.9709 -0.955389,-0.9709 -0.584063,0 -0.959257,0.3907 -0.959257,0.9747 0,0.5802 0.371326,0.967 0.955389,0.967"
         style="text-align:center;text-anchor:middle;font-family:Cantarell;-inkscape-font-specification:Cantarell Bold"
         id="path3122" />
      <path
         d="m 68.477528,1030.335 -0.324909,0 0,1.8643 0.464156,0 0,-1.4156 c 0.205003,-0.085 0.359722,-0.1045 0.444817,-0.1045 0.297834,0 0.336514,0.2398 0.336514,0.3791 l 0,1.141 0.464156,0 0,-1.0598 c 0,-0.3249 -0.03094,-0.8393 -0.676895,-0.8393 -0.255286,0 -0.498968,0.1005 -0.645951,0.1624 l -0.06189,-0.1276"
         style="text-align:center;text-anchor:middle;font-family:Cantarell;-inkscape-font-specification:Cantarell Bold"
         id="path3124" />
      <path
         d="m 70.974846,1030.2963 c -0.321041,0 -0.479628,0.077 -0.615007,0.1238 l 0,0.3558 c 0.170191,-0.07 0.32491,-0.1276 0.51444,-0.1276 0.382929,0 0.471893,0.1044 0.471893,0.4216 l -0.359722,0.019 c -0.498967,0.031 -0.777462,0.2282 -0.777462,0.5957 0,0.3249 0.247551,0.5531 0.653687,0.5531 0.224342,0 0.402269,-0.07 0.549252,-0.1624 l 0.05028,0.1237 0.371325,0 0,-1.1449 c 0,-0.4371 -0.174059,-0.7581 -0.85869,-0.7581 m 0.394533,1.4892 c -0.100567,0.062 -0.18953,0.1083 -0.386797,0.1083 -0.193398,0 -0.313305,-0.093 -0.313305,-0.2398 0,-0.147 0.116039,-0.2321 0.367457,-0.2476 l 0.332645,-0.019 0,0.3984"
         style="text-align:center;text-anchor:middle;font-family:Cantarell;-inkscape-font-specification:Cantarell Bold"
         id="path3126" />
      <path
         d="m 72.664244,1030.4626 -0.06189,-0.1276 -0.32491,0 0,1.8643 0.464157,0 0,-1.4388 c 0.127643,-0.039 0.274626,-0.07 0.425477,-0.07 0.116039,0 0.239814,0.019 0.355853,0.07 l 0.03094,0 0,-0.3907 c -0.108303,-0.05 -0.224343,-0.073 -0.340382,-0.073 -0.193398,0 -0.390665,0.066 -0.549252,0.1663"
         style="text-align:center;text-anchor:middle;font-family:Cantarell;-inkscape-font-specification:Cantarell Bold"
         id="path3128" />
      <path
         d="m 73.616731,1030.335 0.843217,1.8798 -0.425477,0.9863 0.522176,0 1.141052,-2.8661 -0.491232,0 -0.502837,1.4311 -0.553119,-1.4311 -0.53378,0"
         style="text-align:center;text-anchor:middle;font-family:Cantarell;-inkscape-font-specification:Cantarell Bold"
         id="path3130" />
    </g>
  </g>
</svg>
