<?xml version="1.0" encoding="UTF-8" standalone="no"?>
<!-- Created with Inkscape (http://www.inkscape.org/) -->

<svg
   xmlns:dc="http://purl.org/dc/elements/1.1/"
   xmlns:cc="http://creativecommons.org/ns#"
   xmlns:rdf="http://www.w3.org/1999/02/22-rdf-syntax-ns#"
   xmlns:svg="http://www.w3.org/2000/svg"
   xmlns="http://www.w3.org/2000/svg"
   xmlns:xlink="http://www.w3.org/1999/xlink"
   xmlns:sodipodi="http://sodipodi.sourceforge.net/DTD/sodipodi-0.dtd"
   xmlns:inkscape="http://www.inkscape.org/namespaces/inkscape"
   width="96"
   height="96"
   id="svg2"
   version="1.1"
   inkscape:version="0.48.4 r9939"
   sodipodi:docname="audacity.svg">
  <defs
     id="defs4">
    <linearGradient
       inkscape:collect="always"
       id="linearGradient3236">
      <stop
         style="stop-color:#00ffff;stop-opacity:1"
         offset="0"
         id="stop3238" />
      <stop
         style="stop-color:#ffffff;stop-opacity:0"
         offset="1"
         id="stop3240" />
    </linearGradient>
    <linearGradient
       inkscape:collect="always"
       id="linearGradient3197">
      <stop
         style="stop-color:#ffffff;stop-opacity:0"
         offset="0"
         id="stop3199" />
      <stop
         id="stop3205"
         offset="0.5311414"
         style="stop-color:#ffffff;stop-opacity:0.7" />
      <stop
         style="stop-color:#ffffff;stop-opacity:0"
         offset="1"
         id="stop3201" />
    </linearGradient>
    <linearGradient
       id="linearGradient3875"
       inkscape:collect="always">
      <stop
         id="stop3877"
         offset="0"
         style="stop-color:#cbffa5;stop-opacity:1" />
      <stop
         id="stop3879"
         offset="1"
         style="stop-color:#f2ffef;stop-opacity:1" />
    </linearGradient>
    <linearGradient
       inkscape:collect="always"
       id="linearGradient3539">
      <stop
         style="stop-color:#9c9ea5;stop-opacity:1"
         offset="0"
         id="stop3541" />
      <stop
         style="stop-color:#e5dde5;stop-opacity:1"
         offset="1"
         id="stop3543" />
    </linearGradient>
    <linearGradient
       id="linearGradient3533"
       inkscape:collect="always">
      <stop
         id="stop3535"
         offset="0"
         style="stop-color:#ada2ad;stop-opacity:1" />
      <stop
         id="stop3537"
         offset="1"
         style="stop-color:#d6d7d6;stop-opacity:1" />
    </linearGradient>
    <inkscape:perspective
       sodipodi:type="inkscape:persp3d"
       inkscape:vp_x="0 : 48 : 1"
       inkscape:vp_y="0 : 1000 : 0"
       inkscape:vp_z="96 : 48 : 1"
       inkscape:persp3d-origin="48 : 32 : 1"
       id="perspective3054" />
    <linearGradient
       id="linearGradient4357"
       inkscape:collect="always">
      <stop
         id="stop4359"
         offset="0"
         style="stop-color:#ded3d6;stop-opacity:1" />
      <stop
         id="stop4361"
         offset="1"
         style="stop-color:#f7ebef;stop-opacity:1" />
    </linearGradient>
    <linearGradient
       inkscape:collect="always"
       id="linearGradient3558">
      <stop
         style="stop-color:#ded3d6;stop-opacity:1"
         offset="0"
         id="stop3560" />
      <stop
         style="stop-color:#efebef;stop-opacity:1"
         offset="1"
         id="stop3562" />
    </linearGradient>
    <linearGradient
       id="linearGradient3076"
       inkscape:collect="always">
      <stop
         id="stop3078"
         offset="0"
         style="stop-color:#ffe7f7;stop-opacity:1" />
      <stop
         id="stop3080"
         offset="1"
         style="stop-color:#ffc3ef;stop-opacity:1" />
    </linearGradient>
    <linearGradient
       id="linearGradient3070"
       inkscape:collect="always">
      <stop
         id="stop3072"
         offset="0"
         style="stop-color:#943410;stop-opacity:1" />
      <stop
         id="stop3074"
         offset="1"
         style="stop-color:#dc7952;stop-opacity:1" />
    </linearGradient>
    <linearGradient
       inkscape:collect="always"
       id="linearGradient3059">
      <stop
         style="stop-color:#a53810;stop-opacity:1"
         offset="0"
         id="stop3061" />
      <stop
         style="stop-color:#e75911;stop-opacity:1"
         offset="1"
         id="stop3064" />
    </linearGradient>
    <linearGradient
       inkscape:collect="always"
       id="linearGradient3048">
      <stop
         style="stop-color:#c16d16;stop-opacity:1"
         offset="0"
         id="stop3050" />
      <stop
         style="stop-color:#ff8e31;stop-opacity:1"
         offset="1"
         id="stop3052" />
    </linearGradient>
    <linearGradient
       inkscape:collect="always"
       id="linearGradient3119">
      <stop
         style="stop-color:#92948f;stop-opacity:0"
         offset="0"
         id="stop3121" />
      <stop
         id="stop3123"
         offset="0.4283945"
         style="stop-color:#9b9e98;stop-opacity:1" />
      <stop
         style="stop-color:#939690;stop-opacity:0"
         offset="1"
         id="stop3125" />
    </linearGradient>
    <linearGradient
       id="linearGradient3073"
       inkscape:collect="always">
      <stop
         id="stop3075"
         offset="0"
         style="stop-color:#ffffff;stop-opacity:0" />
      <stop
         style="stop-color:#ffffff;stop-opacity:1"
         offset="0.45872402"
         id="stop3085" />
      <stop
         id="stop3083"
         offset="1"
         style="stop-color:#ffffff;stop-opacity:0" />
    </linearGradient>
    <linearGradient
       inkscape:collect="always"
       id="linearGradient3047">
      <stop
         style="stop-color:#000000;stop-opacity:1"
         offset="0"
         id="stop3049" />
      <stop
         id="stop3055"
         offset="0.06123874"
         style="stop-color:#1a1a1a;stop-opacity:1" />
      <stop
         style="stop-color:#333333;stop-opacity:1"
         offset="0.16480456"
         id="stop3057" />
      <stop
         id="stop3059"
         offset="0.55385184"
         style="stop-color:#4d4d4d;stop-opacity:1" />
      <stop
         style="stop-color:#999999;stop-opacity:1"
         offset="1"
         id="stop3051" />
    </linearGradient>
    <linearGradient
       id="linearGradient3041"
       inkscape:collect="always">
      <stop
         id="stop3043"
         offset="0"
         style="stop-color:#1a1a1a;stop-opacity:1" />
      <stop
         id="stop3045"
         offset="1"
         style="stop-color:#808080;stop-opacity:1" />
    </linearGradient>
    <linearGradient
       inkscape:collect="always"
       id="linearGradient3029">
      <stop
         style="stop-color:#333333;stop-opacity:1"
         offset="0"
         id="stop3031" />
      <stop
         style="stop-color:#e0e0dd;stop-opacity:0;"
         offset="1"
         id="stop3033" />
    </linearGradient>
    <linearGradient
       inkscape:collect="always"
       xlink:href="#linearGradient3029"
       id="linearGradient3035"
       x1="35.355339"
       y1="1030.3622"
       x2="35.355339"
       y2="975.33282"
       gradientUnits="userSpaceOnUse"
       gradientTransform="matrix(1.1638085,0,0,1.1638085,-7.862809,-164.23642)" />
    <linearGradient
       inkscape:collect="always"
       xlink:href="#linearGradient3041"
       id="linearGradient3039"
       gradientUnits="userSpaceOnUse"
       x1="35.355339"
       y1="1030.3622"
       x2="35.355339"
       y2="975.33282"
       gradientTransform="matrix(1.1218695,0,0,1.1218695,-5.8497348,-122.18782)" />
    <linearGradient
       inkscape:collect="always"
       xlink:href="#linearGradient3047"
       id="linearGradient3053"
       x1="40"
       y1="1043.4336"
       x2="39.285713"
       y2="972.33325"
       gradientUnits="userSpaceOnUse" />
    <linearGradient
       inkscape:collect="always"
       xlink:href="#linearGradient3073"
       id="linearGradient3113"
       gradientUnits="userSpaceOnUse"
       gradientTransform="translate(0,-956.36218)"
       x1="14.869445"
       y1="978.90387"
       x2="24.52651"
       y2="969.24683" />
    <linearGradient
       inkscape:collect="always"
       xlink:href="#linearGradient3073"
       id="linearGradient3115"
       gradientUnits="userSpaceOnUse"
       gradientTransform="matrix(-1,0,0,1,96,-956.36218)"
       x1="15.152279"
       y1="978.62103"
       x2="26.263966"
       y2="967.50934" />
    <linearGradient
       inkscape:collect="always"
       xlink:href="#linearGradient3119"
       id="linearGradient3117"
       gradientUnits="userSpaceOnUse"
       gradientTransform="translate(0,-956.36218)"
       x1="13.131983"
       y1="980.64136"
       x2="25.549681"
       y2="967.86646" />
    <linearGradient
       inkscape:collect="always"
       xlink:href="#linearGradient3119"
       id="linearGradient3129"
       gradientUnits="userSpaceOnUse"
       gradientTransform="matrix(-1,0,0,1,96,0)"
       x1="13.131983"
       y1="980.64136"
       x2="25.549681"
       y2="967.86646" />
    <linearGradient
       inkscape:collect="always"
       xlink:href="#linearGradient3048"
       id="linearGradient3054"
       x1="49.267925"
       y1="996.57349"
       x2="49.267925"
       y2="1045.8627"
       gradientUnits="userSpaceOnUse" />
    <linearGradient
       inkscape:collect="always"
       xlink:href="#linearGradient3048"
       id="linearGradient3058"
       x1="115.80308"
       y1="985.47241"
       x2="115.80308"
       y2="1033.5543"
       gradientUnits="userSpaceOnUse" />
    <linearGradient
       inkscape:collect="always"
       xlink:href="#linearGradient3076"
       id="linearGradient3055"
       gradientUnits="userSpaceOnUse"
       x1="115.80308"
       y1="985.47241"
       x2="115.80308"
       y2="1025.3639"
       gradientTransform="matrix(1.4144782,0,0,1.4144782,-119.78686,-419.05496)" />
    <linearGradient
       inkscape:collect="always"
       xlink:href="#linearGradient3059"
       id="linearGradient3066"
       x1="22.54203"
       y1="1043.3966"
       x2="22.54203"
       y2="964.45898"
       gradientUnits="userSpaceOnUse" />
    <linearGradient
       inkscape:collect="always"
       xlink:href="#linearGradient3070"
       id="linearGradient3068"
       x1="53.796227"
       y1="1046.0226"
       x2="53.796227"
       y2="962.97437"
       gradientUnits="userSpaceOnUse" />
    <linearGradient
       inkscape:collect="always"
       xlink:href="#linearGradient3076"
       id="linearGradient3086"
       gradientUnits="userSpaceOnUse"
       gradientTransform="matrix(1.4144782,0,0,1.4144782,-119.78686,-417.12598)"
       x1="115.80308"
       y1="985.47241"
       x2="115.80308"
       y2="1025.3639" />
    <linearGradient
       inkscape:collect="always"
       xlink:href="#linearGradient3076"
       id="linearGradient3091"
       gradientUnits="userSpaceOnUse"
       gradientTransform="matrix(1.4144782,0,0,1.4144782,-119.78686,-418.126)"
       x1="115.80308"
       y1="985.47241"
       x2="115.80308"
       y2="1025.3639" />
    <linearGradient
       inkscape:collect="always"
       xlink:href="#linearGradient3076"
       id="linearGradient3093"
       gradientUnits="userSpaceOnUse"
       gradientTransform="matrix(1.4144782,0,0,1.4144782,-119.78686,-1375.4171)"
       x1="115.80308"
       y1="985.47241"
       x2="115.80308"
       y2="1025.3639" />
    <linearGradient
       inkscape:collect="always"
       xlink:href="#linearGradient3558"
       id="linearGradient3564"
       x1="93.242035"
       y1="1027.2615"
       x2="93.242035"
       y2="980.7262"
       gradientUnits="userSpaceOnUse" />
    <linearGradient
       inkscape:collect="always"
       xlink:href="#linearGradient3558"
       id="linearGradient4350"
       gradientUnits="userSpaceOnUse"
       x1="93.242035"
       y1="1027.2615"
       x2="93.242035"
       y2="980.7262" />
    <linearGradient
       inkscape:collect="always"
       xlink:href="#linearGradient4357"
       id="linearGradient4354"
       gradientUnits="userSpaceOnUse"
       x1="93.242035"
       y1="1027.2615"
       x2="93.242035"
       y2="980.7262"
       gradientTransform="translate(-56.571856,0)" />
    <linearGradient
       inkscape:collect="always"
       xlink:href="#linearGradient4357"
       id="linearGradient3517"
       gradientUnits="userSpaceOnUse"
       gradientTransform="translate(-131.19827,0)"
       x1="93.242035"
       y1="1027.2615"
       x2="93.242035"
       y2="980.7262" />
    <linearGradient
       inkscape:collect="always"
       xlink:href="#linearGradient3533"
       id="linearGradient3521"
       gradientUnits="userSpaceOnUse"
       x1="71.212326"
       y1="1032.4589"
       x2="22.54203"
       y2="964.45898"
       gradientTransform="translate(0,-2.6171874e-6)" />
    <linearGradient
       inkscape:collect="always"
       xlink:href="#linearGradient3539"
       id="linearGradient3524"
       gradientUnits="userSpaceOnUse"
       x1="53.796227"
       y1="1046.0226"
       x2="53.796227"
       y2="962.52112" />
    <linearGradient
       inkscape:collect="always"
       xlink:href="#linearGradient3092"
       id="linearGradient3098"
       x1="54.305801"
       y1="1025.2092"
       x2="54.305801"
       y2="978.07318"
       gradientUnits="userSpaceOnUse" />
    <linearGradient
       inkscape:collect="always"
       id="linearGradient3092">
      <stop
         style="stop-color:#a5cbff;stop-opacity:1"
         offset="0"
         id="stop3094" />
      <stop
         style="stop-color:#eff3ff;stop-opacity:1"
         offset="1"
         id="stop3096" />
    </linearGradient>
    <linearGradient
       inkscape:collect="always"
       xlink:href="#linearGradient3875"
       id="linearGradient3885"
       gradientUnits="userSpaceOnUse"
       gradientTransform="matrix(-1,0,0,-1,100.96799,2009.0572)"
       x1="48.870052"
       y1="978.07318"
       x2="48.870052"
       y2="1028.1566" />
    <linearGradient
       inkscape:collect="always"
       xlink:href="#linearGradient3875"
       id="linearGradient3887"
       gradientUnits="userSpaceOnUse"
       gradientTransform="matrix(-1,0,0,-1,100.96799,1051.6954)"
       x1="48.870052"
       y1="978.07318"
       x2="48.870052"
       y2="1028.1566" />
    <linearGradient
       inkscape:collect="always"
       xlink:href="#linearGradient3197"
       id="linearGradient3203"
       x1="-53.607376"
       y1="-8.0132647"
       x2="-12.256078"
       y2="24.827251"
       gradientUnits="userSpaceOnUse" />
    <linearGradient
       inkscape:collect="always"
       xlink:href="#linearGradient3197"
       id="linearGradient3209"
       gradientUnits="userSpaceOnUse"
       x1="-53.607376"
       y1="-8.0132647"
       x2="-12.256078"
       y2="24.827251" />
    <linearGradient
       inkscape:collect="always"
       xlink:href="#linearGradient3236"
       id="linearGradient3242"
       x1="72.236961"
       y1="51.428257"
       x2="52.768845"
       y2="27.861588"
       gradientUnits="userSpaceOnUse"
       gradientTransform="matrix(-1,0,0,-1,96,1052.3622)" />
  </defs>
  <sodipodi:namedview
     id="base"
     pagecolor="#ffffff"
     bordercolor="#666666"
     borderopacity="1.0"
     inkscape:pageopacity="0.0"
     inkscape:pageshadow="2"
     inkscape:zoom="0.34505208"
     inkscape:cx="-709.46072"
     inkscape:cy="-213.44405"
     inkscape:document-units="px"
     inkscape:current-layer="layer1"
     showgrid="false"
     inkscape:window-width="1366"
     inkscape:window-height="696"
     inkscape:window-x="0"
     inkscape:window-y="35"
     inkscape:window-maximized="1"
     showguides="true"
     inkscape:guide-bbox="true" />
  <metadata
     id="metadata7">
    <rdf:RDF>
      <cc:Work
         rdf:about="">
        <dc:format>image/svg+xml</dc:format>
        <dc:type
           rdf:resource="http://purl.org/dc/dcmitype/StillImage" />
        <dc:title />
      </cc:Work>
    </rdf:RDF>
  </metadata>
  <g
     inkscape:label="Layer 1"
     inkscape:groupmode="layer"
     id="layer1"
     transform="translate(0,-956.36218)">
    <rect
       style="opacity:0.05;fill:#000000;fill-opacity:1;stroke:none"
       id="rect3826"
       width="89"
       height="89"
       x="3.5"
       y="960.86218"
       rx="10.595235"
       ry="10.595235" />
    <g
       id="g3041">
      <rect
         style="opacity:0.05;fill:#000000;fill-opacity:1;stroke:none"
         id="rect3824"
         width="88"
         height="88"
         x="4"
         y="961.36218"
         rx="10.476188"
         ry="10.476188" />
      <rect
         ry="10.357141"
         rx="10.357141"
         y="961.86218"
         x="4.5"
         height="87"
         width="87"
         id="rect3822"
         style="opacity:0.05;fill:#000000;fill-opacity:1;stroke:none" />
      <rect
         style="opacity:0.1;fill:#000000;fill-opacity:1;stroke:none"
         id="rect3820"
         width="86"
         height="86"
         x="5"
         y="962.36218"
         rx="10.238094"
         ry="10.238094" />
      <rect
         ry="10.119047"
         rx="10.119047"
         y="962.86218"
         x="5.5"
         height="85"
         width="85"
         id="rect3818"
         style="opacity:0.1;fill:#000000;fill-opacity:1;stroke:none" />
      <rect
         style="opacity:0.3;fill:#000000;fill-opacity:1;stroke:none"
         id="rect3131"
         width="84"
         height="84"
         x="6"
         y="963.36218"
         rx="10"
         ry="10" />
    </g>
    <rect
       ry="10"
       rx="10"
       y="962.36218"
       x="6"
       height="84"
       width="84"
       id="rect3036"
       style="fill:url(#linearGradient3524);fill-opacity:1;stroke:none" />
    <rect
       style="fill:url(#linearGradient3521);fill-opacity:1;stroke:none"
       id="rect3034"
       width="82"
       height="82"
       x="7"
       y="963.36218"
       rx="9.7619047"
       ry="9.7619047" />
    <path
       transform="matrix(0.79627403,0,0,0.79627403,88.096154,978.40065)"
       d="m -12.679245,32.603771 c 0,20.807589 -16.867883,37.675472 -37.675472,37.675472 -20.807589,0 -37.675473,-16.867883 -37.675473,-37.675472 0,-20.807589 16.867884,-37.675472 37.675473,-37.675472 20.807589,0 37.675472,16.867883 37.675472,37.675472 z"
       sodipodi:ry="37.675472"
       sodipodi:rx="37.675472"
       sodipodi:cy="32.603771"
       sodipodi:cx="-50.354717"
       id="path3095"
       style="fill:#312831;fill-opacity:1"
       sodipodi:type="arc" />
    <path
       sodipodi:type="arc"
       style="fill:#100c10;fill-opacity:1"
       id="path3093"
       sodipodi:cx="-50.354717"
       sodipodi:cy="32.603771"
       sodipodi:rx="37.675472"
       sodipodi:ry="37.675472"
       d="m -12.679245,32.603771 c 0,20.807589 -16.867883,37.675472 -37.675472,37.675472 -20.807589,0 -37.675473,-16.867883 -37.675473,-37.675472 0,-20.807589 16.867884,-37.675472 37.675473,-37.675472 20.807589,0 37.675472,16.867883 37.675472,37.675472 z"
       transform="matrix(0.77685269,0,0,0.77685269,87.118198,979.03386)" />
    <path
       transform="matrix(0.7373031,0,0,0.7373031,85.126688,980.32333)"
       d="m -12.679245,32.603771 c 0,20.807589 -16.867883,37.675472 -37.675472,37.675472 -20.807589,0 -37.675473,-16.867883 -37.675473,-37.675472 0,-20.807589 16.867884,-37.675472 37.675473,-37.675472 20.807589,0 37.675472,16.867883 37.675472,37.675472 z"
       sodipodi:ry="37.675472"
       sodipodi:rx="37.675472"
       sodipodi:cy="32.603771"
       sodipodi:cx="-50.354717"
       id="path3097"
       style="fill:#181018;fill-opacity:1"
       sodipodi:type="arc" />
    <path
       sodipodi:type="arc"
       style="fill:#100c10;fill-opacity:1"
       id="path3099"
       sodipodi:cx="-50.354717"
       sodipodi:cy="32.603771"
       sodipodi:rx="37.675472"
       sodipodi:ry="37.675472"
       d="m -12.679245,32.603771 c 0,20.807589 -16.867883,37.675472 -37.675472,37.675472 -20.807589,0 -37.675473,-16.867883 -37.675473,-37.675472 0,-20.807589 16.867884,-37.675472 37.675473,-37.675472 20.807589,0 37.675472,16.867883 37.675472,37.675472 z"
       transform="matrix(0.72237824,0,0,0.72237824,84.37515,980.80993)" />
    <path
       transform="matrix(0.68755356,0,0,0.68755356,82.621563,981.94534)"
       d="m -12.679245,32.603771 c 0,20.807589 -16.867883,37.675472 -37.675472,37.675472 -20.807589,0 -37.675473,-16.867883 -37.675473,-37.675472 0,-20.807589 16.867884,-37.675472 37.675473,-37.675472 20.807589,0 37.675472,16.867883 37.675472,37.675472 z"
       sodipodi:ry="37.675472"
       sodipodi:rx="37.675472"
       sodipodi:cy="32.603771"
       sodipodi:cx="-50.354717"
       id="path3101"
       style="fill:#181018;fill-opacity:1"
       sodipodi:type="arc" />
    <path
       sodipodi:type="arc"
       style="fill:#100c10;fill-opacity:1"
       id="path3103"
       sodipodi:cx="-50.354717"
       sodipodi:cy="32.603771"
       sodipodi:rx="37.675472"
       sodipodi:ry="37.675472"
       d="m -12.679245,32.603771 c 0,20.807589 -16.867883,37.675472 -37.675472,37.675472 -20.807589,0 -37.675473,-16.867883 -37.675473,-37.675472 0,-20.807589 16.867884,-37.675472 37.675473,-37.675472 20.807589,0 37.675472,16.867883 37.675472,37.675472 z"
       transform="matrix(0.66516627,0,0,0.66516627,81.494258,982.67525)" />
    <path
       transform="matrix(0.55056556,0,0,0.55056556,75.723571,986.41166)"
       d="m -12.679245,32.603771 c 0,20.807589 -16.867883,37.675472 -37.675472,37.675472 -20.807589,0 -37.675473,-16.867883 -37.675473,-37.675472 0,-20.807589 16.867884,-37.675472 37.675473,-37.675472 20.807589,0 37.675472,16.867883 37.675472,37.675472 z"
       sodipodi:ry="37.675472"
       sodipodi:rx="37.675472"
       sodipodi:cy="32.603771"
       sodipodi:cx="-50.354717"
       id="path3105"
       style="fill:#181418;fill-opacity:1"
       sodipodi:type="arc" />
    <path
       sodipodi:type="arc"
       style="fill:#101010;fill-opacity:1"
       id="path3107"
       sodipodi:cx="-50.354717"
       sodipodi:cy="32.603771"
       sodipodi:rx="37.675472"
       sodipodi:ry="37.675472"
       d="m -12.679245,32.603771 c 0,20.807589 -16.867883,37.675472 -37.675472,37.675472 -20.807589,0 -37.675473,-16.867883 -37.675473,-37.675472 0,-20.807589 16.867884,-37.675472 37.675473,-37.675472 20.807589,0 37.675472,16.867883 37.675472,37.675472 z"
       transform="matrix(0.53084252,0,0,0.53084252,74.730423,987.05471)" />
    <path
       transform="matrix(0.5009928,0,0,0.5009928,73.227349,988.02793)"
       d="m -12.679245,32.603771 c 0,20.807589 -16.867883,37.675472 -37.675472,37.675472 -20.807589,0 -37.675473,-16.867883 -37.675473,-37.675472 0,-20.807589 16.867884,-37.675472 37.675473,-37.675472 20.807589,0 37.675472,16.867883 37.675472,37.675472 z"
       sodipodi:ry="37.675472"
       sodipodi:rx="37.675472"
       sodipodi:cy="32.603771"
       sodipodi:cx="-50.354717"
       id="path3109"
       style="fill:#181418;fill-opacity:1"
       sodipodi:type="arc" />
    <path
       sodipodi:type="arc"
       style="fill:#100c10;fill-opacity:1"
       id="path3111"
       sodipodi:cx="-50.354717"
       sodipodi:cy="32.603771"
       sodipodi:rx="37.675472"
       sodipodi:ry="37.675472"
       d="m -12.679245,32.603771 c 0,20.807589 -16.867883,37.675472 -37.675472,37.675472 -20.807589,0 -37.675473,-16.867883 -37.675473,-37.675472 0,-20.807589 16.867884,-37.675472 37.675473,-37.675472 20.807589,0 37.675472,16.867883 37.675472,37.675472 z"
       transform="matrix(0.4786055,0,0,0.4786055,72.100043,988.75783)" />
    <path
       sodipodi:type="arc"
       style="fill:#181418;fill-opacity:1"
       id="path3123"
       sodipodi:cx="-50.354717"
       sodipodi:cy="32.603771"
       sodipodi:rx="37.675472"
       sodipodi:ry="37.675472"
       d="m -12.679245,32.603771 c 0,20.807589 -16.867883,37.675472 -37.675472,37.675472 -20.807589,0 -37.675473,-16.867883 -37.675473,-37.675472 0,-20.807589 16.867884,-37.675472 37.675473,-37.675472 20.807589,0 37.675472,16.867883 37.675472,37.675472 z"
       transform="matrix(0.43415415,0,0,0.43415415,69.861707,990.20712)" />
    <path
       transform="matrix(0.40952938,0,0,0.40952938,68.621734,991.00998)"
       d="m -12.679245,32.603771 c 0,20.807589 -16.867883,37.675472 -37.675472,37.675472 -20.807589,0 -37.675473,-16.867883 -37.675473,-37.675472 0,-20.807589 16.867884,-37.675472 37.675473,-37.675472 20.807589,0 37.675472,16.867883 37.675472,37.675472 z"
       sodipodi:ry="37.675472"
       sodipodi:rx="37.675472"
       sodipodi:cy="32.603771"
       sodipodi:cx="-50.354717"
       id="path3125"
       style="fill:#100c10;fill-opacity:1"
       sodipodi:type="arc" />
    <path
       sodipodi:end="6.0213859"
       sodipodi:start="4.712389"
       transform="matrix(-0.79627403,0,0,-0.79627403,7.8978604,1030.3237)"
       d="m -50.354717,-5.071701 c 17.052133,3e-7 31.978294,11.453247 36.391711,27.924342 l -36.391711,9.75113 z"
       sodipodi:ry="37.675472"
       sodipodi:rx="37.675472"
       sodipodi:cy="32.603771"
       sodipodi:cx="-50.354717"
       id="path3207"
       style="opacity:0.2;fill:url(#linearGradient3209);fill-opacity:1"
       sodipodi:type="arc" />
    <path
       sodipodi:type="arc"
       style="opacity:0.20000000000000001;fill:url(#linearGradient3203);fill-opacity:1"
       id="path3195"
       sodipodi:cx="-50.354717"
       sodipodi:cy="32.603771"
       sodipodi:rx="37.675472"
       sodipodi:ry="37.675472"
       d="m -50.354717,-5.071701 c 17.052133,3e-7 31.978294,11.453247 36.391711,27.924342 l -36.391711,9.75113 z"
       transform="matrix(0.79627403,0,0,0.79627403,88.096154,978.40065)"
       sodipodi:start="4.712389"
       sodipodi:end="6.0213859" />
    <path
       style="opacity:0.1;fill:#000000;fill-opacity:1;stroke:none"
       d="m 74.316929,973.39474 c -1.726292,0 -3.283808,0.70508 -4.415097,1.83637 -0.431389,0.47799 -0.914615,1.16239 -1.133016,1.56287 l -7.211656,12.44995 c -0.954104,1.65256 0.75086,4.57963 3.27848,3.11719 l 12.7243,-7.3621 c 0.267375,-0.17743 0.475123,-0.34317 0.703228,-0.50792 0.163688,-0.13351 0.316273,-0.27721 0.468859,-0.42979 1.131291,-1.1313 1.836369,-2.68881 1.836369,-4.4151 0,-3.45258 -2.798882,-6.25147 -6.251467,-6.25147 z"
       id="path3223"
       inkscape:connector-curvature="0"
       sodipodi:nodetypes="sccccccsss" />
    <path
       transform="matrix(0.36603514,0,0,0.36603514,66.431595,992.42805)"
       d="m -12.679245,32.603771 c 0,20.807589 -16.867883,37.675472 -37.675472,37.675472 -20.807589,0 -37.675473,-16.867883 -37.675473,-37.675472 0,-20.807589 16.867884,-37.675472 37.675473,-37.675472 20.807589,0 37.675472,16.867883 37.675472,37.675472 z"
       sodipodi:ry="37.675472"
       sodipodi:rx="37.675472"
       sodipodi:cy="32.603771"
       sodipodi:cx="-50.354717"
       id="path3113"
       style="fill:#181818;fill-opacity:1"
       sodipodi:type="arc" />
    <path
       sodipodi:nodetypes="sccccccsss"
       inkscape:connector-curvature="0"
       id="path3215"
       d="m 74.316929,972.39521 c -1.726292,0 -3.283808,0.70508 -4.415097,1.83637 -0.431389,0.47799 -0.914615,1.16239 -1.133016,1.56287 L 61.55716,988.2444 c -0.954104,1.65256 0.75086,4.57963 3.27848,3.11719 l 12.7243,-7.3621 c 0.267375,-0.17743 0.475123,-0.34317 0.703228,-0.50792 0.163688,-0.13351 0.316273,-0.27721 0.468859,-0.42979 1.131291,-1.1313 1.836369,-2.68881 1.836369,-4.4151 0,-3.45258 -2.798882,-6.25147 -6.251467,-6.25147 z"
       style="opacity:0.1;fill:#000000;fill-opacity:1;stroke:none" />
    <path
       sodipodi:nodetypes="scccsscccsss"
       inkscape:connector-curvature="0"
       id="path3221"
       d="m 74.364944,974.20638 c -1.488704,0 -2.83186,0.60804 -3.807452,1.58363 -0.372017,0.4122 -0.788737,1.00241 -0.97708,1.34777 l -7.182701,12.39997 c -0.187006,0.26795 -0.263732,0.52503 -0.263732,0.84188 0,0.80962 0.639231,1.48255 1.448853,1.48255 0.244055,0 0.470211,-0.0675 0.669368,-0.17941 l 12.909423,-7.46919 c 0.230576,-0.15301 0.409733,-0.29595 0.606443,-0.43803 0.14116,-0.11513 0.272745,-0.23905 0.404331,-0.37063 0.975592,-0.97559 1.58363,-2.31875 1.58363,-3.80746 0,-2.9774 -2.413674,-5.39108 -5.391083,-5.39108 z"
       style="fill:#000000;fill-opacity:1;stroke:none;opacity:0.1" />
    <path
       style="fill:#d6d3d6;fill-opacity:1;stroke:none"
       d="m 74.364944,973.21297 c -1.488704,0 -2.83186,0.60804 -3.807452,1.58363 -0.372017,0.4122 -0.788737,1.00241 -0.97708,1.34777 l -7.182701,12.39997 c -0.187006,0.26795 -0.263732,0.52503 -0.263732,0.84188 0,0.80962 0.639231,1.48255 1.448853,1.48255 0.244055,0 0.470211,-0.0675 0.669368,-0.17941 l 12.909423,-7.46919 c 0.230576,-0.15301 0.409733,-0.29595 0.606443,-0.43803 0.14116,-0.11513 0.272745,-0.23905 0.404331,-0.37063 0.975592,-0.97559 1.58363,-2.31875 1.58363,-3.80746 0,-2.9774 -2.413674,-5.39108 -5.391083,-5.39108 z"
       id="path3199"
       inkscape:connector-curvature="0"
       sodipodi:nodetypes="scccsscccsss" />
    <path
       sodipodi:nodetypes="cscccsscc"
       inkscape:connector-curvature="0"
       id="path3208"
       d="m 62.534224,990.40943 c 0.262381,0.28206 0.63305,0.45934 1.048608,0.45934 0.244055,0 0.470211,-0.0675 0.669368,-0.17941 l 12.909423,-7.46919 c 0.230576,-0.15301 0.409733,-0.29595 0.606443,-0.43803 0.14116,-0.11513 0.272745,-0.23905 0.404331,-0.37063 0.975592,-0.97559 1.58363,-2.31875 1.58363,-3.80746 0,-1.70047 -0.787304,-3.21707 -2.017281,-4.20515 z"
       style="fill:#bdb6bd;fill-opacity:1;stroke:none" />
    <path
       sodipodi:type="arc"
       style="fill:#524d4a;fill-opacity:1;stroke:none"
       id="path3197"
       sodipodi:cx="146.90744"
       sodipodi:cy="23.634956"
       sodipodi:rx="2.1773553"
       sodipodi:ry="2.1773553"
       d="m 149.0848,23.634956 a 2.1773553,2.1773553 0 1 1 -4.35472,0 2.1773553,2.1773553 0 1 1 4.35472,0 z"
       transform="matrix(0.99039105,0,0,0.99039105,-71.118649,955.20514)" />
    <path
       sodipodi:type="arc"
       style="fill:#ffad02;fill-opacity:1"
       id="path3115"
       sodipodi:cx="-50.354717"
       sodipodi:cy="32.603771"
       sodipodi:rx="37.675472"
       sodipodi:ry="37.675472"
       d="m -12.679245,32.603771 c 0,20.807589 -16.867883,37.675472 -37.675472,37.675472 -20.807589,0 -37.675473,-16.867883 -37.675473,-37.675472 0,-20.807589 16.867884,-37.675472 37.675473,-37.675472 20.807589,0 37.675472,16.867883 37.675472,37.675472 z"
       transform="matrix(0.34141037,0,0,0.34141037,65.191621,993.23091)" />
    <path
       transform="matrix(0.17079593,0,0,0.17079593,56.60038,998.79358)"
       d="m -12.679245,32.603771 c 0,20.807589 -16.867883,37.675472 -37.675472,37.675472 -20.807589,0 -37.675473,-16.867883 -37.675473,-37.675472 0,-20.807589 16.867884,-37.675472 37.675473,-37.675472 20.807589,0 37.675472,16.867883 37.675472,37.675472 z"
       sodipodi:ry="37.675472"
       sodipodi:rx="37.675472"
       sodipodi:cy="32.603771"
       sodipodi:cx="-50.354717"
       id="path3117"
       style="fill:#d37c1e;fill-opacity:1"
       sodipodi:type="arc" />
    <path
       sodipodi:type="arc"
       style="fill:#000000;fill-opacity:1"
       id="path3119"
       sodipodi:cx="-50.354717"
       sodipodi:cy="32.603771"
       sodipodi:rx="37.675472"
       sodipodi:ry="37.675472"
       d="m -12.679245,32.603771 c 0,20.807589 -16.867883,37.675472 -37.675472,37.675472 -20.807589,0 -37.675473,-16.867883 -37.675473,-37.675472 0,-20.807589 16.867884,-37.675472 37.675473,-37.675472 20.807589,0 37.675472,16.867883 37.675472,37.675472 z"
       transform="matrix(0.05118993,0,0,0.05118993,50.577653,1002.6932)" />
    <path
       style="fill:#333333;fill-opacity:1;stroke:none"
       d="M 74.375 20.09375 C 73.184035 20.09375 72.21875 21.059035 72.21875 22.25 C 72.21875 22.423012 72.242769 22.588774 72.28125 22.75 C 72.507661 21.801393 73.357047 21.09375 74.375 21.09375 C 75.392953 21.09375 76.242339 21.801393 76.46875 22.75 C 76.507231 22.588774 76.53125 22.423012 76.53125 22.25 C 76.53125 21.059035 75.565965 20.09375 74.375 20.09375 z "
       transform="translate(0,956.36218)"
       id="path3225" />
  </g>
</svg>
