<?xml version="1.0" encoding="UTF-8" standalone="no"?>
<!-- Created with Inkscape (http://www.inkscape.org/) -->

<svg
   xmlns:dc="http://purl.org/dc/elements/1.1/"
   xmlns:cc="http://creativecommons.org/ns#"
   xmlns:rdf="http://www.w3.org/1999/02/22-rdf-syntax-ns#"
   xmlns:svg="http://www.w3.org/2000/svg"
   xmlns="http://www.w3.org/2000/svg"
   xmlns:xlink="http://www.w3.org/1999/xlink"
   xmlns:sodipodi="http://sodipodi.sourceforge.net/DTD/sodipodi-0.dtd"
   xmlns:inkscape="http://www.inkscape.org/namespaces/inkscape"
   width="96"
   height="96"
   id="svg2"
   version="1.1"
   inkscape:version="0.91 r13725"
   sodipodi:docname="atom.svg">
  <defs
     id="defs4">
    <linearGradient
       id="linearGradient3488"
       inkscape:collect="always">
      <stop
         id="stop3490"
         offset="0"
         style="stop-color:#cae6da;stop-opacity:1" />
      <stop
         id="stop3492"
         offset="1"
         style="stop-color:#fefefe;stop-opacity:1" />
    </linearGradient>
    <linearGradient
       id="linearGradient3482"
       inkscape:collect="always">
      <stop
         id="stop3484"
         offset="0"
         style="stop-color:#cae6da;stop-opacity:1" />
      <stop
         id="stop3486"
         offset="1"
         style="stop-color:#fefefe;stop-opacity:1" />
    </linearGradient>
    <linearGradient
       id="linearGradient3476"
       inkscape:collect="always">
      <stop
         id="stop3478"
         offset="0"
         style="stop-color:#cae6da;stop-opacity:1" />
      <stop
         id="stop3480"
         offset="1"
         style="stop-color:#fefefe;stop-opacity:1" />
    </linearGradient>
    <linearGradient
       inkscape:collect="always"
       id="linearGradient3462">
      <stop
         style="stop-color:#cae6da;stop-opacity:1"
         offset="0"
         id="stop3464" />
      <stop
         style="stop-color:#fefefe;stop-opacity:1"
         offset="1"
         id="stop3466" />
    </linearGradient>
    <linearGradient
       id="linearGradient3992"
       inkscape:collect="always">
      <stop
         id="stop3994"
         offset="0"
         style="stop-color:#f3eeea;stop-opacity:1" />
      <stop
         id="stop3996"
         offset="1"
         style="stop-color:#fefff3;stop-opacity:1" />
    </linearGradient>
    <linearGradient
       id="linearGradient3932"
       inkscape:collect="always">
      <stop
         id="stop3934"
         offset="0"
         style="stop-color:#18a170;stop-opacity:1" />
      <stop
         style="stop-color:#59be81;stop-opacity:1"
         offset="0.50365889"
         id="stop3936" />
      <stop
         id="stop3938"
         offset="1"
         style="stop-color:#b0e298;stop-opacity:1" />
    </linearGradient>
    <linearGradient
       inkscape:collect="always"
       id="linearGradient3071">
      <stop
         style="stop-color:#d0dfda;stop-opacity:1"
         offset="0"
         id="stop3073" />
      <stop
         style="stop-color:#f5f8fd;stop-opacity:1"
         offset="1"
         id="stop3076" />
    </linearGradient>
    <linearGradient
       id="linearGradient3076"
       inkscape:collect="always">
      <stop
         id="stop3078"
         offset="0"
         style="stop-color:#ffe7f7;stop-opacity:1" />
      <stop
         id="stop3080"
         offset="1"
         style="stop-color:#ffc3ef;stop-opacity:1" />
    </linearGradient>
    <linearGradient
       id="linearGradient3070"
       inkscape:collect="always">
      <stop
         id="stop3072"
         offset="0"
         style="stop-color:#cacaca;stop-opacity:1" />
      <stop
         style="stop-color:#e5e5e5;stop-opacity:1"
         offset="0.50818431"
         id="stop3062" />
      <stop
         id="stop3074"
         offset="1"
         style="stop-color:#fdfdfd;stop-opacity:1" />
    </linearGradient>
    <linearGradient
       inkscape:collect="always"
       id="linearGradient3048">
      <stop
         style="stop-color:#c16d16;stop-opacity:1"
         offset="0"
         id="stop3050" />
      <stop
         style="stop-color:#ff8e31;stop-opacity:1"
         offset="1"
         id="stop3052" />
    </linearGradient>
    <linearGradient
       inkscape:collect="always"
       id="linearGradient3119">
      <stop
         style="stop-color:#92948f;stop-opacity:0"
         offset="0"
         id="stop3121" />
      <stop
         id="stop3123"
         offset="0.4283945"
         style="stop-color:#9b9e98;stop-opacity:1" />
      <stop
         style="stop-color:#939690;stop-opacity:0"
         offset="1"
         id="stop3125" />
    </linearGradient>
    <linearGradient
       id="linearGradient3073"
       inkscape:collect="always">
      <stop
         id="stop3075"
         offset="0"
         style="stop-color:#ffffff;stop-opacity:0" />
      <stop
         style="stop-color:#ffffff;stop-opacity:1"
         offset="0.45872402"
         id="stop3085" />
      <stop
         id="stop3083"
         offset="1"
         style="stop-color:#ffffff;stop-opacity:0" />
    </linearGradient>
    <linearGradient
       inkscape:collect="always"
       id="linearGradient3047">
      <stop
         style="stop-color:#000000;stop-opacity:1"
         offset="0"
         id="stop3049" />
      <stop
         id="stop3055"
         offset="0.06123874"
         style="stop-color:#1a1a1a;stop-opacity:1" />
      <stop
         style="stop-color:#333333;stop-opacity:1"
         offset="0.16480456"
         id="stop3057" />
      <stop
         id="stop3059"
         offset="0.55385184"
         style="stop-color:#4d4d4d;stop-opacity:1" />
      <stop
         style="stop-color:#999999;stop-opacity:1"
         offset="1"
         id="stop3051" />
    </linearGradient>
    <linearGradient
       id="linearGradient3041"
       inkscape:collect="always">
      <stop
         id="stop3043"
         offset="0"
         style="stop-color:#1a1a1a;stop-opacity:1" />
      <stop
         id="stop3045"
         offset="1"
         style="stop-color:#808080;stop-opacity:1" />
    </linearGradient>
    <linearGradient
       inkscape:collect="always"
       id="linearGradient3029">
      <stop
         style="stop-color:#333333;stop-opacity:1"
         offset="0"
         id="stop3031" />
      <stop
         style="stop-color:#e0e0dd;stop-opacity:0;"
         offset="1"
         id="stop3033" />
    </linearGradient>
    <linearGradient
       inkscape:collect="always"
       xlink:href="#linearGradient3029"
       id="linearGradient3035"
       x1="35.355339"
       y1="1030.3622"
       x2="35.355339"
       y2="975.33282"
       gradientUnits="userSpaceOnUse"
       gradientTransform="matrix(1.1638085,0,0,1.1638085,-7.862809,-164.23642)" />
    <linearGradient
       inkscape:collect="always"
       xlink:href="#linearGradient3041"
       id="linearGradient3039"
       gradientUnits="userSpaceOnUse"
       x1="35.355339"
       y1="1030.3622"
       x2="35.355339"
       y2="975.33282"
       gradientTransform="matrix(1.1218695,0,0,1.1218695,-5.8497348,-122.18782)" />
    <linearGradient
       inkscape:collect="always"
       xlink:href="#linearGradient3047"
       id="linearGradient3053"
       x1="40"
       y1="1043.4336"
       x2="39.285713"
       y2="972.33325"
       gradientUnits="userSpaceOnUse" />
    <linearGradient
       inkscape:collect="always"
       xlink:href="#linearGradient3073"
       id="linearGradient3113"
       gradientUnits="userSpaceOnUse"
       gradientTransform="translate(0,-956.36218)"
       x1="14.869445"
       y1="978.90387"
       x2="24.52651"
       y2="969.24683" />
    <linearGradient
       inkscape:collect="always"
       xlink:href="#linearGradient3073"
       id="linearGradient3115"
       gradientUnits="userSpaceOnUse"
       gradientTransform="matrix(-1,0,0,1,96,-956.36218)"
       x1="15.152279"
       y1="978.62103"
       x2="26.263966"
       y2="967.50934" />
    <linearGradient
       inkscape:collect="always"
       xlink:href="#linearGradient3119"
       id="linearGradient3117"
       gradientUnits="userSpaceOnUse"
       gradientTransform="translate(0,-956.36218)"
       x1="13.131983"
       y1="980.64136"
       x2="25.549681"
       y2="967.86646" />
    <linearGradient
       inkscape:collect="always"
       xlink:href="#linearGradient3119"
       id="linearGradient3129"
       gradientUnits="userSpaceOnUse"
       gradientTransform="matrix(-1,0,0,1,96,0)"
       x1="13.131983"
       y1="980.64136"
       x2="25.549681"
       y2="967.86646" />
    <linearGradient
       inkscape:collect="always"
       xlink:href="#linearGradient3048"
       id="linearGradient3054"
       x1="49.267925"
       y1="996.57349"
       x2="49.267925"
       y2="1045.8627"
       gradientUnits="userSpaceOnUse" />
    <linearGradient
       inkscape:collect="always"
       xlink:href="#linearGradient3048"
       id="linearGradient3058"
       x1="115.80308"
       y1="985.47241"
       x2="115.80308"
       y2="1033.5543"
       gradientUnits="userSpaceOnUse" />
    <linearGradient
       inkscape:collect="always"
       xlink:href="#linearGradient3932"
       id="linearGradient3066"
       x1="22.54203"
       y1="1043.3966"
       x2="22.54203"
       y2="964.45898"
       gradientUnits="userSpaceOnUse"
       gradientTransform="matrix(0.95121952,0,0,0.95121952,2.3414634,48.993259)" />
    <linearGradient
       inkscape:collect="always"
       xlink:href="#linearGradient3070"
       id="linearGradient3068"
       x1="69.165794"
       y1="1045.5103"
       x2="53.796227"
       y2="962.97437"
       gradientUnits="userSpaceOnUse" />
    <linearGradient
       inkscape:collect="always"
       xlink:href="#linearGradient3076"
       id="linearGradient3086"
       gradientUnits="userSpaceOnUse"
       gradientTransform="matrix(1.4144782,0,0,1.4144782,-119.78686,-417.12598)"
       x1="115.80308"
       y1="985.47241"
       x2="115.80308"
       y2="1025.3639" />
    <linearGradient
       inkscape:collect="always"
       xlink:href="#linearGradient3076"
       id="linearGradient3091"
       gradientUnits="userSpaceOnUse"
       gradientTransform="matrix(1.4144782,0,0,1.4144782,-119.78686,-418.126)"
       x1="115.80308"
       y1="985.47241"
       x2="115.80308"
       y2="1025.3639" />
    <linearGradient
       inkscape:collect="always"
       xlink:href="#linearGradient3076"
       id="linearGradient3093"
       gradientUnits="userSpaceOnUse"
       gradientTransform="matrix(1.4144782,0,0,1.4144782,-119.78686,-1375.4171)"
       x1="115.80308"
       y1="985.47241"
       x2="115.80308"
       y2="1025.3639" />
    <linearGradient
       inkscape:collect="always"
       xlink:href="#linearGradient3071"
       id="linearGradient3915"
       gradientUnits="userSpaceOnUse"
       gradientTransform="translate(0.701036,3.1045074)"
       x1="60.965946"
       y1="1019.5738"
       x2="60.965946"
       y2="974.48969" />
    <linearGradient
       inkscape:collect="always"
       xlink:href="#linearGradient3071"
       id="linearGradient3986"
       gradientUnits="userSpaceOnUse"
       gradientTransform="translate(0.701036,3.1045074)"
       x1="60.965946"
       y1="1019.5738"
       x2="60.965946"
       y2="974.48969" />
    <linearGradient
       inkscape:collect="always"
       xlink:href="#linearGradient3992"
       id="linearGradient3990"
       gradientUnits="userSpaceOnUse"
       gradientTransform="translate(188.9977,3.1045086)"
       x1="60.965946"
       y1="1019.5738"
       x2="60.965946"
       y2="978.3313" />
    <linearGradient
       inkscape:collect="always"
       xlink:href="#linearGradient3462"
       id="linearGradient3468"
       x1="-9.5459414"
       y1="1026.1992"
       x2="-9.5459414"
       y2="979.35339"
       gradientUnits="userSpaceOnUse"
       gradientTransform="translate(63.993163,0)" />
    <linearGradient
       inkscape:collect="always"
       xlink:href="#linearGradient3488"
       id="linearGradient3470"
       x1="-9.5459414"
       y1="1026.1992"
       x2="-9.5459414"
       y2="979.35339"
       gradientUnits="userSpaceOnUse"
       gradientTransform="translate(63.993163,0)" />
    <linearGradient
       inkscape:collect="always"
       xlink:href="#linearGradient3482"
       id="linearGradient3472"
       x1="-472.54443"
       y1="910.97626"
       x2="-451.36154"
       y2="869.1933"
       gradientUnits="userSpaceOnUse"
       gradientTransform="translate(57.077104,28.936641)" />
    <linearGradient
       inkscape:collect="always"
       xlink:href="#linearGradient3476"
       id="linearGradient3474"
       x1="-9.5459414"
       y1="1026.1992"
       x2="-9.5459414"
       y2="979.35339"
       gradientUnits="userSpaceOnUse"
       gradientTransform="translate(63.993163,0)" />
    <filter
       inkscape:collect="always"
       style="color-interpolation-filters:sRGB"
       id="filter4457"
       x="-0.057363677"
       width="1.1147274"
       y="-0.062890316"
       height="1.1257806">
      <feGaussianBlur
         inkscape:collect="always"
         stdDeviation="1.3361551"
         id="feGaussianBlur4459" />
    </filter>
  </defs>
  <sodipodi:namedview
     id="base"
     pagecolor="#ffffff"
     bordercolor="#666666"
     borderopacity="1.0"
     inkscape:pageopacity="0.0"
     inkscape:pageshadow="2"
     inkscape:zoom="1.4142136"
     inkscape:cx="113.63702"
     inkscape:cy="32.662803"
     inkscape:document-units="px"
     inkscape:current-layer="layer1"
     showgrid="false"
     inkscape:window-width="1360"
     inkscape:window-height="713"
     inkscape:window-x="0"
     inkscape:window-y="29"
     inkscape:window-maximized="1"
     showguides="true"
     inkscape:guide-bbox="true" />
  <metadata
     id="metadata7">
    <rdf:RDF>
      <cc:Work
         rdf:about="">
        <dc:format>image/svg+xml</dc:format>
        <dc:type
           rdf:resource="http://purl.org/dc/dcmitype/StillImage" />
        <dc:title />
      </cc:Work>
    </rdf:RDF>
  </metadata>
  <g
     inkscape:label="Layer 1"
     inkscape:groupmode="layer"
     id="layer1"
     transform="translate(0,-956.36218)">
    <rect
       style="opacity:0.05;fill:#000000;fill-opacity:1;stroke:none"
       id="rect3826"
       width="89"
       height="89"
       x="3.5"
       y="960.86218"
       rx="10.595235"
       ry="10.595235" />
    <g
       id="g3041">
      <rect
         style="opacity:0.05;fill:#000000;fill-opacity:1;stroke:none"
         id="rect3824"
         width="88"
         height="88"
         x="4"
         y="961.36218"
         rx="10.476188"
         ry="10.476188" />
      <rect
         ry="10.357141"
         rx="10.357141"
         y="961.86218"
         x="4.5"
         height="87"
         width="87"
         id="rect3822"
         style="opacity:0.05;fill:#000000;fill-opacity:1;stroke:none" />
      <rect
         style="opacity:0.1;fill:#000000;fill-opacity:1;stroke:none"
         id="rect3820"
         width="86"
         height="86"
         x="5"
         y="962.36218"
         rx="10.238094"
         ry="10.238094" />
      <rect
         ry="10.119047"
         rx="10.119047"
         y="962.86218"
         x="5.5"
         height="85"
         width="85"
         id="rect3818"
         style="opacity:0.1;fill:#000000;fill-opacity:1;stroke:none" />
      <rect
         style="opacity:0.3;fill:#000000;fill-opacity:1;stroke:none"
         id="rect3131"
         width="84"
         height="84"
         x="6"
         y="963.36218"
         rx="10"
         ry="10" />
    </g>
    <rect
       ry="10"
       rx="10"
       y="962.36218"
       x="6"
       height="84"
       width="84"
       id="rect3036"
       style="fill:url(#linearGradient3068);fill-opacity:1;stroke:none" />
    <rect
       style="fill:url(#linearGradient3066);fill-opacity:1;stroke:none"
       id="rect3034"
       width="78"
       height="78"
       x="9"
       y="965.36218"
       rx="9.2857141"
       ry="9.2857141" />
    <path
       style="opacity:0.2;fill:#000000;fill-opacity:1;filter:url(#filter4457)"
       d="m 37.508225,980.87366 c -0.725754,0.035 -1.39522,0.19757 -1.992187,0.48242 -0.16092,0.077 -0.318824,0.16312 -0.46875,0.25782 -1.952257,1.23181 -3.063656,3.94081 -3.191406,7.77341 -0.02152,2.021 0.24869,4.2694 0.74414,6.6426 -3.081367,0.671 -5.679222,1.566 -7.6875,2.6406 l 0,0.012 c -3.886059,2.07929 -5.607495,4.81189 -4.564453,7.79889 0.804606,2.303 2.821544,4.2257 5.701172,5.789 a 1.3579315,1.3579315 0 0 0 0.664063,0.2168 1.3579315,1.3579315 0 0 0 1.429687,-1.2832 1.3579315,1.3579315 0 0 0 -0.845703,-1.33 l 0.002,-0.01 c -2.870375,-1.5599 -4.511235,-3.3516 -4.419922,-5.1426 0.147047,-2.7097 4.202573,-4.89479 10.333985,-6.08589 0.555402,2.06529 1.270708,4.20049 2.113281,6.35149 -0.849788,1.5411 -1.645684,3.0971 -2.359375,4.6543 -4.855815,11.3387 -4.396974,19.5524 1.128906,20.6016 2.78995,0.5293 5.955479,-0.6225 9.248047,-2.9609 a 1.3520721,1.3520721 0 0 0 0.103516,-0.07 c 0.01318,-0.01 0.02589,-0.019 0.03906,-0.027 a 1.3520721,1.3520721 0 0 0 0.002,0 1.3520721,1.3520721 0 0 0 0.285157,-0.3125 1.3520721,1.3520721 0 0 0 -0.394532,-1.873 1.3520721,1.3520721 0 0 0 -1.550781,0.053 l -0.0059,-0.01 c -3.35183,2.3803 -6.242772,3.2559 -7.980469,2.1309 -3.105147,-2.0247 -1.741461,-9.8589 2.867187,-18.9082 1.965578,4.3704 4.409362,8.6935 7.128907,12.5234 7.391623,9.8746 14.734642,13.5851 18.40625,9.3242 4.2604,-4.9457 1.841671,-16.0436 -3.66211,-27.7148 l -0.0078,0 a 1.3208221,1.3208221 0 0 0 -1.746094,-0.5293 1.3208221,1.3208221 0 0 0 -0.582031,1.7754 1.3208221,1.3208221 0 0 0 0.03711,0.064 c 5.785974,11.9762 7.106291,23.0763 3.175781,25.086 -4.106731,2.0829 -12.530245,-6.2786 -18.814453,-18.6739 -0.841332,-1.6594 -1.595395,-3.3037 -2.271484,-4.9179 0.695779,-1.2121 1.432671,-2.4341 2.232422,-3.6602 0.885466,-1.3575 1.796679,-2.64969 2.716797,-3.88279 1.660794,-0.024 3.378454,0.01 5.134765,0.1055 13.877534,0.7553 24.924973,5.09519 24.673828,9.69329 -0.099,1.8084 -2.045435,3.494 -5.349609,4.7481 -0.474751,0.1915 -0.795872,0.6411 -0.824219,1.1523 -0.03962,0.7288 0.519279,1.3515 1.248047,1.3907 0.165748,0.011 0.333026,-0.015 0.490234,-0.068 l 0.002,0 c 0.03451,-0.012 0.06345,-0.029 0.09766,-0.041 l 0.01563,-0.01 c 0.003,3e-4 0.0048,-2e-4 0.0078,0 4.697463,-1.7298 7.23941,-4.656 7.128907,-7.4648 -0.09064,-2.3065 -1.879497,-4.6254 -5.134766,-6.6524 -5.913059,-3.49839 -15.659325,-5.46239 -25.318359,-5.61129 6.327875,-7.6311 12.788497,-11.8745 15.84375,-9.8809 1.515516,0.9893 1.842091,3.8627 1.210937,7.9063 -5.02e-4,0 -0.0015,0.01 -0.002,0.01 a 1.3208221,1.3208221 0 0 0 0.583984,1.2929 1.3208221,1.3208221 0 0 0 1.826172,-0.3847 1.3208221,1.3208221 0 0 0 0.191407,-0.461 l 0.0039,0 c 1.145277,-5.617 -0.14405,-9.6227 -2.654297,-10.9433 -2.042904,-1.07484 -4.945126,-0.6845 -8.328125,1.1211 l 0,0 c -4.024696,2.2669 -8.314525,6.3887 -12.203125,11.3594 -1.464609,0.046 -2.91766,0.1335 -4.341797,0.2676 -0.82581,0.099 -1.618523,0.2161 -2.394531,0.3418 -1.305793,-5.9503 -0.910351,-10.4174 1.472656,-11.625 1.615806,-0.8185 4.046429,0.02 6.785156,2.2558 l 0.002,0 a 1.3208221,1.3208221 0 0 0 1.410157,0.1406 1.3208221,1.3208221 0 0 0 0.580078,-1.7754 1.3208221,1.3208221 0 0 0 -0.302735,-0.3906 l 0.002,0 c -0.01552,-0.013 -0.03128,-0.021 -0.04688,-0.035 a 1.3208221,1.3208221 0 0 0 -0.07031,-0.055 c -2.699804,-2.2442 -5.377423,-3.27672 -7.554688,-3.17185 z m 2.306641,16.93355 c -0.942415,1.3352 -1.846177,2.71529 -2.708984,4.12109 -0.459894,-1.2827 -0.862276,-2.52899 -1.203125,-3.73429 1.243893,-0.1676 2.552123,-0.2966 3.912109,-0.3868 z m 8.353516,5.10549 a 3.3448706,3.3448706 0 0 0 -1.617188,0.3594 3.3448706,3.3448706 0 0 0 -1.470703,4.4961 3.3448706,3.3448706 0 0 0 4.496094,1.4707 3.3448706,3.3448706 0 0 0 1.470703,-4.4961 3.3448706,3.3448706 0 0 0 -2.878906,-1.8301 z"
       id="path3528"
       inkscape:connector-curvature="0" />
    <g
       id="g3494"
       transform="translate(-2.6170107,-0.03508012)">
      <path
         inkscape:connector-curvature="0"
         id="path3428"
         d="m 38.132229,979.39363 c -0.16092,0.0768 -0.317705,0.16219 -0.467631,0.2568 -1.952257,1.2318 -3.065221,3.94165 -3.192971,7.77424 -0.09328,8.75959 5.075932,21.67483 11.982389,31.40123 7.391623,9.8746 14.734654,13.5842 18.406262,9.3233 4.2604,-4.9457 1.84169,-16.0431 -3.662091,-27.7143 l -0.0072,-10e-5 a 1.3208221,1.3208221 0 0 0 -1.746392,-0.52921 1.3208221,1.3208221 0 0 0 -0.582343,1.77561 1.3208221,1.3208221 0 0 0 0.03707,0.064 c 5.785974,11.9762 7.10717,23.0755 3.17666,25.0852 -4.106731,2.0829 -12.530452,-6.2772 -18.81466,-18.6725 -6.284708,-12.39593 -8.04968,-24.13314 -3.942001,-26.21473 1.615806,-0.81854 4.046785,0.0224 6.785512,2.25774 l 0.0022,-0.004 a 1.3208221,1.3208221 0 0 0 1.410565,0.13889 1.3208221,1.3208221 0 0 0 0.580589,-1.77464 1.3208221,1.3208221 0 0 0 -0.303524,-0.39137 l 0.002,-8.7e-4 c -0.01552,-0.0131 -0.03093,-0.0225 -0.04653,-0.0356 a 1.3208221,1.3208221 0 0 0 -0.07108,-0.0537 c -3.599739,-2.99231 -7.159364,-3.82986 -9.547232,-2.69047 z"
         style="opacity:1;fill:url(#linearGradient3474);fill-opacity:1" />
      <circle
         transform="matrix(0.89192502,-0.45218332,0.45218332,0.89192502,0,0)"
         r="3.3448706"
         cy="918.67126"
         cx="-408.92078"
         id="circle3437"
         style="opacity:1;fill:url(#linearGradient3472);fill-opacity:1" />
      <path
         inkscape:connector-curvature="0"
         id="path3444"
         d="m 27.529399,996.71867 c -3.886059,2.07932 -5.607234,4.81233 -4.564192,7.79933 0.804606,2.303 2.821451,4.2268 5.701079,5.7901 a 1.3579315,1.3579315 0 0 0 0.663298,0.2155 1.3579315,1.3579315 0 0 0 1.429728,-1.2832 1.3579315,1.3579315 0 0 0 -0.84507,-1.33 l 0.0016,-0.01 c -2.870375,-1.5599 -4.510893,-3.3502 -4.41958,-5.1412 0.249517,-4.59794 11.700146,-7.7134 25.576892,-6.95802 13.877534,0.75526 24.925795,5.09472 24.67465,9.69282 -0.09902,1.8087 -2.043725,3.4941 -5.348965,4.7483 l 0.002,10e-5 c -0.475634,0.1912 -0.797628,0.6405 -0.826007,1.1523 -0.03962,0.7288 0.519304,1.3515 1.248072,1.3907 0.165748,0.011 0.331577,-0.015 0.488786,-0.068 l 0.002,10e-5 c 0.03451,-0.012 0.06335,-0.029 0.09756,-0.041 l 0.01673,-0.01 c 0.003,3e-4 0.004,3e-4 0.007,5e-4 4.697463,-1.7298 7.240219,-4.6555 7.129716,-7.4643 -0.09064,-2.3065 -1.88023,-4.6256 -5.135499,-6.65263 -7.539399,-4.46059 -21.310386,-6.44064 -33.186833,-5.32261 -5.358252,0.64052 -9.689961,1.86263 -12.712446,3.47991 z"
         style="opacity:1;fill:url(#linearGradient3470);fill-opacity:1" />
      <path
         inkscape:connector-curvature="0"
         id="path3454"
         d="m 56.787147,981.60106 c -7.632671,4.29901 -16.232706,15.23344 -21.202701,26.07774 -4.855815,11.3387 -4.397137,19.5516 1.128743,20.6008 2.78995,0.5293 5.955929,-0.6226 9.248497,-2.961 a 1.3520721,1.3520721 0 0 0 0.102631,-0.07 c 0.01363,-0.01 0.0273,-0.018 0.04092,-0.027 l -9.69e-4,0 a 1.3520721,1.3520721 0 0 0 0.285631,-0.3134 1.3520721,1.3520721 0 0 0 -0.394743,-1.8714 1.3520721,1.3520721 0 0 0 -1.550136,0.052 l -0.0054,-0.01 c -3.35183,2.3803 -6.243646,3.2552 -7.981343,2.1302 -3.857208,-2.515 -0.827726,-13.9897 6.764846,-25.62956 7.592807,-11.64068 16.874369,-19.03758 20.730911,-16.52101 1.515516,0.98923 1.842101,3.86076 1.210947,7.90434 -5.02e-4,0.003 -0.0011,0.006 -0.0016,0.01 a 1.3208221,1.3208221 0 0 0 0.585439,1.29299 1.3208221,1.3208221 0 0 0 1.826043,-0.38489 1.3208221,1.3208221 0 0 0 0.189616,-0.45963 l 0.004,-5e-5 c 1.145277,-5.61701 -0.143123,-9.62334 -2.65337,-10.94388 -2.042904,-1.0748 -4.945476,-0.68407 -8.328475,1.12159 z"
         style="opacity:1;fill:url(#linearGradient3468);fill-opacity:1" />
    </g>
    <path
       style="opacity:0.5;fill:#ffffff;fill-opacity:1"
       d="M 37.507812 22.511719 C 36.782058 22.54667 36.112592 22.707339 35.515625 22.992188 L 35.515625 22.996094 C 35.354705 23.072894 35.196801 23.159296 35.046875 23.253906 C 33.094618 24.485706 31.983219 27.194754 31.855469 31.027344 C 31.85426 31.140816 31.862662 31.262066 31.863281 31.376953 C 32.011226 27.611732 33.116326 24.944665 35.046875 23.726562 C 35.196801 23.631953 35.354705 23.54555 35.515625 23.46875 L 35.515625 23.464844 C 36.112592 23.180004 36.782058 23.019375 37.507812 22.984375 L 37.507812 22.986328 C 39.685078 22.881478 42.362696 23.91201 45.0625 26.15625 A 1.3208221 1.3208221 0 0 1 45.132812 26.210938 C 45.148412 26.224038 45.164167 26.232994 45.179688 26.246094 L 45.177734 26.248047 A 1.3208221 1.3208221 0 0 1 45.480469 26.638672 A 1.3208221 1.3208221 0 0 1 45.601562 27 A 1.3208221 1.3208221 0 0 0 45.480469 26.164062 A 1.3208221 1.3208221 0 0 0 45.177734 25.773438 L 45.179688 25.771484 C 45.164167 25.758384 45.148413 25.749428 45.132812 25.736328 A 1.3208221 1.3208221 0 0 0 45.0625 25.681641 C 42.362696 23.437408 39.685077 22.406864 37.507812 22.511719 z M 59.857422 23.486328 C 58.211072 23.496953 56.284296 24.072634 54.169922 25.201172 L 54.169922 25.203125 C 50.145226 27.469986 45.855397 31.591815 41.966797 36.5625 C 40.502188 36.608536 39.049137 36.696012 37.625 36.830078 C 36.79919 36.928795 36.006477 37.046212 35.230469 37.171875 C 34.76464 35.049169 34.525679 33.127442 34.505859 31.462891 C 34.478907 33.230204 34.719703 35.319006 35.230469 37.646484 C 36.006477 37.520824 36.79919 37.403388 37.625 37.304688 C 39.049137 37.170628 40.502188 37.083109 41.966797 37.037109 C 45.855397 32.066419 50.145226 27.944594 54.169922 25.677734 L 54.169922 25.675781 C 57.552921 23.870121 60.455143 23.479888 62.498047 24.554688 C 64.323139 25.514795 65.498555 27.898918 65.566406 31.285156 C 65.603351 27.647445 64.407009 25.084307 62.498047 24.080078 C 61.731958 23.677028 60.845232 23.479953 59.857422 23.486328 z M 62.839844 31.763672 C 62.805384 32.616959 62.706617 33.555511 62.548828 34.566406 C 62.548326 34.569406 62.547375 34.572172 62.546875 34.576172 A 1.3208221 1.3208221 0 0 0 62.554688 34.998047 C 62.738895 33.807111 62.828598 32.731675 62.839844 31.763672 z M 45.886719 36.556641 C 45.756013 36.711252 45.624765 36.8581 45.494141 37.015625 C 55.153175 37.164505 64.899441 39.128563 70.8125 42.626953 C 74.040205 44.63671 75.821081 46.933547 75.939453 49.220703 C 75.946842 49.081799 75.952714 48.943178 75.947266 48.804688 C 75.856626 46.498187 74.067769 44.179354 70.8125 42.152344 C 64.97962 38.701393 55.416403 36.752005 45.886719 36.556641 z M 32.515625 37.691406 C 29.472581 38.360232 26.901338 39.246145 24.912109 40.310547 L 24.912109 40.322266 C 21.66555 42.059407 19.937663 44.253467 20.0625 46.669922 C 20.172822 44.440558 21.8788 42.41796 24.912109 40.794922 L 24.912109 40.783203 C 26.920387 39.708613 29.518242 38.813558 32.599609 38.142578 C 32.567753 37.989981 32.545602 37.842943 32.515625 37.691406 z M 39.814453 39.919922 C 39.698263 39.927623 39.588083 39.938997 39.472656 39.947266 C 38.654631 41.127526 37.862062 42.335591 37.105469 43.568359 C 36.702765 42.445125 36.352825 41.355306 36.041016 40.291016 C 35.995761 40.296988 35.94743 40.300567 35.902344 40.306641 C 36.243193 41.511951 36.645575 42.758186 37.105469 44.041016 C 37.968276 42.635106 38.872038 41.255112 39.814453 39.919922 z M 57.367188 43.367188 A 1.3208221 1.3208221 0 0 0 56.828125 43.507812 A 1.3208221 1.3208221 0 0 0 56.126953 44.925781 A 1.3208221 1.3208221 0 0 1 56.828125 43.982422 A 1.3208221 1.3208221 0 0 1 58.574219 44.511719 L 58.582031 44.511719 C 62.007618 51.775945 64.235523 58.816118 64.404297 64.291016 C 64.357014 58.750769 62.109048 51.516424 58.582031 44.037109 L 58.574219 44.037109 A 1.3208221 1.3208221 0 0 0 57.367188 43.367188 z M 48.167969 44.552734 A 3.3448706 3.3448706 0 0 0 46.550781 44.912109 A 3.3448706 3.3448706 0 0 0 44.730469 48.140625 A 3.3448706 3.3448706 0 0 1 46.550781 45.384766 A 3.3448706 3.3448706 0 0 1 48.167969 45.025391 A 3.3448706 3.3448706 0 0 1 51.046875 46.855469 A 3.3448706 3.3448706 0 0 1 51.396484 48.123047 A 3.3448706 3.3448706 0 0 0 51.046875 46.382812 A 3.3448706 3.3448706 0 0 0 48.167969 44.552734 z M 22.900391 46.679688 C 22.894699 46.73132 22.881729 46.781962 22.878906 46.833984 C 22.787593 48.624984 24.428453 50.416663 27.298828 51.976562 L 27.296875 51.986328 A 1.3579315 1.3579315 0 0 1 28.121094 53.009766 A 1.3579315 1.3579315 0 0 0 28.142578 52.84375 A 1.3579315 1.3579315 0 0 0 27.296875 51.513672 L 27.298828 51.503906 C 24.598437 50.036384 23.005837 48.363933 22.900391 46.679688 z M 35.224609 46.818359 C 34.414185 48.296993 33.651047 49.788249 32.966797 51.28125 C 30.752845 56.450998 29.656709 60.95964 29.628906 64.447266 C 29.749473 61.029443 30.853646 56.688276 32.966797 51.753906 C 33.680488 50.196706 34.476384 48.640709 35.326172 47.099609 C 35.289248 47.005351 35.261042 46.912553 35.224609 46.818359 z M 38.492188 47.113281 C 38.4533 47.180639 38.411678 47.249109 38.373047 47.316406 C 39.049136 48.930606 39.803199 50.574875 40.644531 52.234375 C 46.928739 64.629675 55.352253 72.991103 59.458984 70.908203 C 60.986133 70.12736 61.711357 67.961583 61.699219 64.917969 C 61.636866 67.713839 60.906573 69.69343 59.458984 70.433594 C 55.352253 72.516494 46.928739 64.155066 40.644531 51.759766 C 39.849957 50.192554 39.138914 48.640921 38.492188 47.113281 z M 73.121094 49.150391 C 72.987202 50.938605 71.052995 52.603881 67.78125 53.845703 C 67.306499 54.037269 66.985378 54.486824 66.957031 54.998047 C 66.950771 55.113209 66.964391 55.224054 66.986328 55.332031 C 67.061346 54.881846 67.351777 54.493639 67.78125 54.320312 C 71.085424 53.066213 73.031859 51.380566 73.130859 49.572266 C 73.138565 49.431186 73.134416 49.290888 73.121094 49.150391 z M 32.179688 64.623047 C 32.120575 66.861621 32.646651 68.507857 33.841797 69.287109 C 35.579494 70.412109 38.470436 69.53655 41.822266 67.15625 L 41.828125 67.166016 A 1.3520721 1.3520721 0 0 1 43.378906 67.113281 A 1.3520721 1.3520721 0 0 1 43.972656 68.011719 A 1.3520721 1.3520721 0 0 0 43.378906 66.638672 A 1.3520721 1.3520721 0 0 0 41.828125 66.691406 L 41.822266 66.681641 C 38.470436 69.061941 35.579494 69.9375 33.841797 68.8125 C 32.733449 68.089829 32.204985 66.617122 32.179688 64.623047 z "
       transform="translate(0,956.36218)"
       id="path3502" />
  </g>
</svg>
