<?xml version="1.0" encoding="UTF-8" standalone="no"?>
<!-- Created with Inkscape (http://www.inkscape.org/) -->

<svg
   xmlns:dc="http://purl.org/dc/elements/1.1/"
   xmlns:cc="http://creativecommons.org/ns#"
   xmlns:rdf="http://www.w3.org/1999/02/22-rdf-syntax-ns#"
   xmlns:svg="http://www.w3.org/2000/svg"
   xmlns="http://www.w3.org/2000/svg"
   xmlns:xlink="http://www.w3.org/1999/xlink"
   xmlns:sodipodi="http://sodipodi.sourceforge.net/DTD/sodipodi-0.dtd"
   xmlns:inkscape="http://www.inkscape.org/namespaces/inkscape"
   width="96"
   height="96"
   id="svg2"
   version="1.1"
   inkscape:version="0.91 r13725"
   sodipodi:docname="avidemux.svg">
  <defs
     id="defs4">
    <linearGradient
       inkscape:collect="always"
       id="linearGradient3325">
      <stop
         style="stop-color:#c6bede;stop-opacity:1"
         offset="0"
         id="stop3327" />
      <stop
         style="stop-color:#f7e7ff;stop-opacity:1"
         offset="1"
         id="stop3329" />
    </linearGradient>
    <linearGradient
       inkscape:collect="always"
       id="linearGradient3315">
      <stop
         style="stop-color:#a69fc6;stop-opacity:1"
         offset="0"
         id="stop3317" />
      <stop
         style="stop-color:#fffbff;stop-opacity:1"
         offset="1"
         id="stop3319" />
    </linearGradient>
    <linearGradient
       inkscape:collect="always"
       id="linearGradient3307">
      <stop
         style="stop-color:#5228ad;stop-opacity:1"
         offset="0"
         id="stop3309" />
      <stop
         id="stop3341"
         offset="0.6955229"
         style="stop-color:#4f28a7;stop-opacity:1;" />
      <stop
         id="stop3339"
         offset="0.84899038"
         style="stop-color:#4b289f;stop-opacity:1;" />
      <stop
         style="stop-color:#4a289c;stop-opacity:1"
         offset="1"
         id="stop3311" />
    </linearGradient>
    <linearGradient
       inkscape:collect="always"
       id="linearGradient3153">
      <stop
         style="stop-color:#ffffff;stop-opacity:1"
         offset="0"
         id="stop3155" />
      <stop
         id="stop3163"
         offset="0.71368068"
         style="stop-color:#ffffff;stop-opacity:1" />
      <stop
         style="stop-color:#000000;stop-opacity:1"
         offset="1"
         id="stop3157" />
    </linearGradient>
    <inkscape:perspective
       sodipodi:type="inkscape:persp3d"
       inkscape:vp_x="0 : 48 : 1"
       inkscape:vp_y="0 : 1000 : 0"
       inkscape:vp_z="96 : 48 : 1"
       inkscape:persp3d-origin="48 : 32 : 1"
       id="perspective3054" />
    <linearGradient
       id="linearGradient4357"
       inkscape:collect="always">
      <stop
         id="stop4359"
         offset="0"
         style="stop-color:#ded3d6;stop-opacity:1" />
      <stop
         id="stop4361"
         offset="1"
         style="stop-color:#f7ebef;stop-opacity:1" />
    </linearGradient>
    <linearGradient
       inkscape:collect="always"
       id="linearGradient3558">
      <stop
         style="stop-color:#ded3d6;stop-opacity:1"
         offset="0"
         id="stop3560" />
      <stop
         style="stop-color:#efebef;stop-opacity:1"
         offset="1"
         id="stop3562" />
    </linearGradient>
    <linearGradient
       id="linearGradient3076"
       inkscape:collect="always">
      <stop
         id="stop3078"
         offset="0"
         style="stop-color:#ffe7f7;stop-opacity:1" />
      <stop
         id="stop3080"
         offset="1"
         style="stop-color:#ffc3ef;stop-opacity:1" />
    </linearGradient>
    <linearGradient
       id="linearGradient3070"
       inkscape:collect="always">
      <stop
         id="stop3072"
         offset="0"
         style="stop-color:#943410;stop-opacity:1" />
      <stop
         id="stop3074"
         offset="1"
         style="stop-color:#dc7952;stop-opacity:1" />
    </linearGradient>
    <linearGradient
       inkscape:collect="always"
       id="linearGradient3059">
      <stop
         style="stop-color:#a53810;stop-opacity:1"
         offset="0"
         id="stop3061" />
      <stop
         style="stop-color:#e75911;stop-opacity:1"
         offset="1"
         id="stop3064" />
    </linearGradient>
    <linearGradient
       inkscape:collect="always"
       id="linearGradient3048">
      <stop
         style="stop-color:#c16d16;stop-opacity:1"
         offset="0"
         id="stop3050" />
      <stop
         style="stop-color:#ff8e31;stop-opacity:1"
         offset="1"
         id="stop3052" />
    </linearGradient>
    <linearGradient
       inkscape:collect="always"
       id="linearGradient3119">
      <stop
         style="stop-color:#92948f;stop-opacity:0"
         offset="0"
         id="stop3121" />
      <stop
         id="stop3123"
         offset="0.4283945"
         style="stop-color:#9b9e98;stop-opacity:1" />
      <stop
         style="stop-color:#939690;stop-opacity:0"
         offset="1"
         id="stop3125" />
    </linearGradient>
    <linearGradient
       id="linearGradient3073"
       inkscape:collect="always">
      <stop
         id="stop3075"
         offset="0"
         style="stop-color:#ffffff;stop-opacity:0" />
      <stop
         style="stop-color:#ffffff;stop-opacity:1"
         offset="0.45872402"
         id="stop3085" />
      <stop
         id="stop3083"
         offset="1"
         style="stop-color:#ffffff;stop-opacity:0" />
    </linearGradient>
    <linearGradient
       inkscape:collect="always"
       id="linearGradient3047">
      <stop
         style="stop-color:#000000;stop-opacity:1"
         offset="0"
         id="stop3049" />
      <stop
         id="stop3055"
         offset="0.06123874"
         style="stop-color:#1a1a1a;stop-opacity:1" />
      <stop
         style="stop-color:#333333;stop-opacity:1"
         offset="0.16480456"
         id="stop3057" />
      <stop
         id="stop3059"
         offset="0.55385184"
         style="stop-color:#4d4d4d;stop-opacity:1" />
      <stop
         style="stop-color:#999999;stop-opacity:1"
         offset="1"
         id="stop3051" />
    </linearGradient>
    <linearGradient
       id="linearGradient3041"
       inkscape:collect="always">
      <stop
         id="stop3043"
         offset="0"
         style="stop-color:#1a1a1a;stop-opacity:1" />
      <stop
         id="stop3045"
         offset="1"
         style="stop-color:#808080;stop-opacity:1" />
    </linearGradient>
    <linearGradient
       inkscape:collect="always"
       id="linearGradient3029">
      <stop
         style="stop-color:#333333;stop-opacity:1"
         offset="0"
         id="stop3031" />
      <stop
         style="stop-color:#e0e0dd;stop-opacity:0;"
         offset="1"
         id="stop3033" />
    </linearGradient>
    <linearGradient
       inkscape:collect="always"
       xlink:href="#linearGradient3029"
       id="linearGradient3035"
       x1="35.355339"
       y1="1030.3622"
       x2="35.355339"
       y2="975.33282"
       gradientUnits="userSpaceOnUse"
       gradientTransform="matrix(1.1638085,0,0,1.1638085,-7.862809,-164.23642)" />
    <linearGradient
       inkscape:collect="always"
       xlink:href="#linearGradient3041"
       id="linearGradient3039"
       gradientUnits="userSpaceOnUse"
       x1="35.355339"
       y1="1030.3622"
       x2="35.355339"
       y2="975.33282"
       gradientTransform="matrix(1.1218695,0,0,1.1218695,-5.8497348,-122.18782)" />
    <linearGradient
       inkscape:collect="always"
       xlink:href="#linearGradient3047"
       id="linearGradient3053"
       x1="40"
       y1="1043.4336"
       x2="39.285713"
       y2="972.33325"
       gradientUnits="userSpaceOnUse" />
    <linearGradient
       inkscape:collect="always"
       xlink:href="#linearGradient3073"
       id="linearGradient3113"
       gradientUnits="userSpaceOnUse"
       gradientTransform="translate(0,-956.36218)"
       x1="14.869445"
       y1="978.90387"
       x2="24.52651"
       y2="969.24683" />
    <linearGradient
       inkscape:collect="always"
       xlink:href="#linearGradient3073"
       id="linearGradient3115"
       gradientUnits="userSpaceOnUse"
       gradientTransform="matrix(-1,0,0,1,96,-956.36218)"
       x1="15.152279"
       y1="978.62103"
       x2="26.263966"
       y2="967.50934" />
    <linearGradient
       inkscape:collect="always"
       xlink:href="#linearGradient3119"
       id="linearGradient3117"
       gradientUnits="userSpaceOnUse"
       gradientTransform="translate(0,-956.36218)"
       x1="13.131983"
       y1="980.64136"
       x2="25.549681"
       y2="967.86646" />
    <linearGradient
       inkscape:collect="always"
       xlink:href="#linearGradient3119"
       id="linearGradient3129"
       gradientUnits="userSpaceOnUse"
       gradientTransform="matrix(-1,0,0,1,96,0)"
       x1="13.131983"
       y1="980.64136"
       x2="25.549681"
       y2="967.86646" />
    <linearGradient
       inkscape:collect="always"
       xlink:href="#linearGradient3048"
       id="linearGradient3054"
       x1="49.267925"
       y1="996.57349"
       x2="49.267925"
       y2="1045.8627"
       gradientUnits="userSpaceOnUse" />
    <linearGradient
       inkscape:collect="always"
       xlink:href="#linearGradient3048"
       id="linearGradient3058"
       x1="115.80308"
       y1="985.47241"
       x2="115.80308"
       y2="1033.5543"
       gradientUnits="userSpaceOnUse" />
    <linearGradient
       inkscape:collect="always"
       xlink:href="#linearGradient3076"
       id="linearGradient3055"
       gradientUnits="userSpaceOnUse"
       x1="115.80308"
       y1="985.47241"
       x2="115.80308"
       y2="1025.3639"
       gradientTransform="matrix(1.4144782,0,0,1.4144782,-119.78686,-419.05496)" />
    <linearGradient
       inkscape:collect="always"
       xlink:href="#linearGradient3059"
       id="linearGradient3066"
       x1="22.54203"
       y1="1043.3966"
       x2="22.54203"
       y2="964.45898"
       gradientUnits="userSpaceOnUse" />
    <linearGradient
       inkscape:collect="always"
       xlink:href="#linearGradient3070"
       id="linearGradient3068"
       x1="53.796227"
       y1="1046.0226"
       x2="53.796227"
       y2="962.97437"
       gradientUnits="userSpaceOnUse" />
    <linearGradient
       inkscape:collect="always"
       xlink:href="#linearGradient3076"
       id="linearGradient3086"
       gradientUnits="userSpaceOnUse"
       gradientTransform="matrix(1.4144782,0,0,1.4144782,-119.78686,-417.12598)"
       x1="115.80308"
       y1="985.47241"
       x2="115.80308"
       y2="1025.3639" />
    <linearGradient
       inkscape:collect="always"
       xlink:href="#linearGradient3076"
       id="linearGradient3091"
       gradientUnits="userSpaceOnUse"
       gradientTransform="matrix(1.4144782,0,0,1.4144782,-119.78686,-418.126)"
       x1="115.80308"
       y1="985.47241"
       x2="115.80308"
       y2="1025.3639" />
    <linearGradient
       inkscape:collect="always"
       xlink:href="#linearGradient3076"
       id="linearGradient3093"
       gradientUnits="userSpaceOnUse"
       gradientTransform="matrix(1.4144782,0,0,1.4144782,-119.78686,-1375.4171)"
       x1="115.80308"
       y1="985.47241"
       x2="115.80308"
       y2="1025.3639" />
    <linearGradient
       inkscape:collect="always"
       xlink:href="#linearGradient3558"
       id="linearGradient3564"
       x1="93.242035"
       y1="1027.2615"
       x2="93.242035"
       y2="980.7262"
       gradientUnits="userSpaceOnUse" />
    <linearGradient
       inkscape:collect="always"
       xlink:href="#linearGradient3558"
       id="linearGradient4350"
       gradientUnits="userSpaceOnUse"
       x1="93.242035"
       y1="1027.2615"
       x2="93.242035"
       y2="980.7262" />
    <linearGradient
       inkscape:collect="always"
       xlink:href="#linearGradient4357"
       id="linearGradient4354"
       gradientUnits="userSpaceOnUse"
       x1="93.242035"
       y1="1027.2615"
       x2="93.242035"
       y2="980.7262"
       gradientTransform="translate(-56.571856,0)" />
    <linearGradient
       inkscape:collect="always"
       xlink:href="#linearGradient4357"
       id="linearGradient3067"
       gradientUnits="userSpaceOnUse"
       gradientTransform="translate(106.08939,0)"
       x1="93.242035"
       y1="1027.2615"
       x2="93.242035"
       y2="980.7262" />
    <linearGradient
       inkscape:collect="always"
       xlink:href="#linearGradient4017"
       id="linearGradient3071"
       gradientUnits="userSpaceOnUse"
       x1="22.54203"
       y1="1043.3966"
       x2="22.54203"
       y2="964.45898" />
    <linearGradient
       inkscape:collect="always"
       xlink:href="#linearGradient3933"
       id="linearGradient3074"
       gradientUnits="userSpaceOnUse"
       x1="53.796227"
       y1="1046.2493"
       x2="53.796227"
       y2="962.97437" />
    <radialGradient
       inkscape:collect="always"
       xlink:href="#linearGradient3153"
       id="radialGradient3159"
       cx="54.880909"
       cy="34.52375"
       fx="54.880909"
       fy="34.52375"
       r="22.501422"
       gradientTransform="matrix(1.6150702e-6,-1.2742782,1.2647002,0,4.4956971,76.124529)"
       gradientUnits="userSpaceOnUse" />
    <linearGradient
       inkscape:collect="always"
       xlink:href="#linearGradient3315"
       id="linearGradient4282"
       gradientUnits="userSpaceOnUse"
       x1="-103.53697"
       y1="34.18985"
       x2="-103.53697"
       y2="76.055702" />
    <radialGradient
       inkscape:collect="always"
       xlink:href="#linearGradient3307"
       id="radialGradient4284"
       gradientUnits="userSpaceOnUse"
       gradientTransform="matrix(0.8933484,-0.8933484,0.93715766,0.93715776,-63.178404,-85.969131)"
       cx="-106.66165"
       cy="64.455704"
       fx="-106.66165"
       fy="64.455704"
       r="21.375" />
    <linearGradient
       inkscape:collect="always"
       xlink:href="#linearGradient3325"
       id="linearGradient4289"
       gradientUnits="userSpaceOnUse"
       gradientTransform="matrix(1.0625,0,0,1.0625,332.05186,944.84632)"
       x1="-109.75"
       y1="81"
       x2="-109.75"
       y2="30.747408" />
    <linearGradient
       id="linearGradient3904">
      <stop
         id="stop3445"
         stop-opacity="1"
         stop-color="#000000"
         offset="0" />
      <stop
         id="stop3447"
         stop-opacity="1"
         stop-color="#5a307b"
         offset="1" />
    </linearGradient>
    <linearGradient
       id="linearGradient3896">
      <stop
         id="stop3450"
         stop-opacity="1"
         stop-color="#010101"
         offset="0" />
      <stop
         id="stop3452"
         stop-opacity="1"
         stop-color="#53256c"
         offset="1" />
    </linearGradient>
    <linearGradient
       id="linearGradient3888">
      <stop
         id="stop3455"
         stop-opacity="1"
         stop-color="#010101"
         offset="0" />
      <stop
         id="stop3457"
         stop-opacity="1"
         stop-color="#4b2864"
         offset="1" />
    </linearGradient>
    <linearGradient
       id="linearGradient3880">
      <stop
         id="stop3460"
         stop-opacity="1"
         stop-color="#ffffff"
         offset="0" />
      <stop
         id="stop3462"
         stop-opacity="0"
         stop-color="#ffffff"
         offset="1" />
    </linearGradient>
    <linearGradient
       id="linearGradient3869">
      <stop
         id="stop3465"
         stop-opacity="1"
         stop-color="#000000"
         offset="0" />
      <stop
         id="stop3467"
         stop-opacity="1"
         stop-color="#3a3143"
         offset="1" />
    </linearGradient>
    <linearGradient
       id="linearGradient3834">
      <stop
         id="stop3470"
         stop-opacity="1"
         stop-color="#000000"
         offset="0" />
      <stop
         id="stop3472"
         stop-opacity="1"
         stop-color="#6f2fa4"
         offset="1" />
    </linearGradient>
    <linearGradient
       id="linearGradient3814">
      <stop
         id="stop3475"
         stop-opacity="1"
         stop-color="#a69fa6"
         offset="0" />
      <stop
         id="stop3477"
         stop-opacity="0"
         stop-color="#656165"
         offset="0.47202668" />
      <stop
         id="stop3479"
         stop-opacity="0.3"
         stop-color="#a7a0a7"
         offset="1" />
    </linearGradient>
    <linearGradient
       id="linearGradient3805">
      <stop
         id="stop3482"
         stop-opacity="1"
         stop-color="#fffbff"
         offset="0" />
      <stop
         id="stop3484"
         stop-opacity="1"
         stop-color="#a59ea5"
         offset="0.4338176" />
      <stop
         id="stop3486"
         stop-opacity="1"
         stop-color="#eee6ef"
         offset="1" />
    </linearGradient>
    <linearGradient
       id="linearGradient3530">
      <stop
         id="stop3489"
         stop-opacity="1"
         stop-color="#0f2519"
         offset="0" />
      <stop
         id="stop3491"
         stop-opacity="1"
         stop-color="#264336"
         offset="1" />
    </linearGradient>
    <linearGradient
       id="linearGradient3370">
      <stop
         id="stop3494"
         stop-opacity="1"
         stop-color="#cccccc"
         offset="0" />
      <stop
         id="stop3496"
         stop-opacity="1"
         stop-color="#ffffff"
         offset="1" />
    </linearGradient>
    <linearGradient
       id="linearGradient4037">
      <stop
         id="stop3499"
         stop-opacity="1"
         stop-color="#826bd3"
         offset="0" />
      <stop
         id="stop3501"
         stop-opacity="1"
         stop-color="#f6f0ff"
         offset="1" />
    </linearGradient>
    <linearGradient
       id="linearGradient4011">
      <stop
         id="stop3504"
         stop-opacity="1"
         stop-color="#520098"
         offset="0" />
      <stop
         id="stop3506"
         stop-opacity="1"
         stop-color="#a55dde"
         offset="1" />
    </linearGradient>
    <linearGradient
       id="linearGradient3927">
      <stop
         id="stop3509"
         stop-opacity="1"
         stop-color="#4e0094"
         offset="0" />
      <stop
         id="stop3511"
         stop-opacity="1"
         stop-color="#bc81e5"
         offset="1" />
    </linearGradient>
    <linearGradient
       id="linearGradient3513">
      <stop
         id="stop3515"
         stop-opacity="1"
         stop-color="#b5492f"
         offset="0" />
      <stop
         id="stop3517"
         stop-opacity="1"
         stop-color="#c6513d"
         offset="1" />
    </linearGradient>
    <linearGradient
       y2="962.12079"
       y1="1046.3013"
       x2="19.697975"
       x1="19.697975"
       id="linearGradient3933"
       gradientUnits="userSpaceOnUse"
       gradientTransform="translate(0.00335007,0)">
      <stop
         id="stop3520"
         stop-opacity="1"
         stop-color="#4e0094"
         offset="0" />
      <stop
         id="stop3522"
         stop-opacity="1"
         stop-color="#bc81e5"
         offset="1" />
    </linearGradient>
    <linearGradient
       y2="965.20648"
       y1="1044.505"
       x2="27.857143"
       x1="27.857143"
       id="linearGradient4017"
       gradientUnits="userSpaceOnUse">
      <stop
         id="stop3525"
         stop-opacity="1"
         stop-color="#520098"
         offset="0" />
      <stop
         id="stop3527"
         stop-opacity="1"
         stop-color="#a55dde"
         offset="1" />
    </linearGradient>
    <linearGradient
       y2="61.654812"
       y1="31.855312"
       x2="-251.0229"
       x1="-262.89221"
       id="linearGradient3529"
       gradientUnits="userSpaceOnUse">
      <stop
         id="stop3531"
         stop-opacity="1"
         stop-color="#826bd3"
         offset="0" />
      <stop
         id="stop3533"
         stop-opacity="1"
         stop-color="#f6f0ff"
         offset="1" />
    </linearGradient>
    <linearGradient
       y2="47.607143"
       y1="47.607143"
       x2="-236.42857"
       x1="-286.78571"
       id="linearGradient3535"
       gradientUnits="userSpaceOnUse">
      <stop
         id="stop3537"
         stop-opacity="1"
         stop-color="#826bd3"
         offset="0" />
      <stop
         id="stop3539"
         stop-opacity="1"
         stop-color="#f6f0ff"
         offset="1" />
    </linearGradient>
    <linearGradient
       y2="988.63739"
       y1="1007.5123"
       x2="49.449284"
       x1="49.449284"
       id="linearGradient3547"
       gradientUnits="userSpaceOnUse">
      <stop
         id="stop3549"
         stop-opacity="1"
         stop-color="#cccccc"
         offset="0" />
      <stop
         id="stop3551"
         stop-opacity="1"
         stop-color="#ffffff"
         offset="1" />
    </linearGradient>
    <linearGradient
       id="linearGradient3553">
      <stop
         id="stop3555"
         stop-opacity="1"
         stop-color="#931b4e"
         offset="0" />
      <stop
         id="stop3557"
         stop-opacity="1"
         stop-color="#e84082"
         offset="1" />
    </linearGradient>
    <linearGradient
       y2="982.05328"
       y1="1023.4351"
       x2="52.229477"
       x1="52.229477"
       id="linearGradient3559"
       gradientUnits="userSpaceOnUse"
       gradientTransform="matrix(1.1073076,0,0,1.1073076,-1.9945616,-106.68408)">
      <stop
         id="stop3561"
         stop-opacity="1"
         stop-color="#0f2519"
         offset="0" />
      <stop
         id="stop3563"
         stop-opacity="1"
         stop-color="#264336"
         offset="1" />
    </linearGradient>
    <linearGradient
       y2="982.05328"
       y1="1023.4351"
       x2="52.229477"
       x1="52.229477"
       id="linearGradient3565"
       gradientUnits="userSpaceOnUse"
       gradientTransform="matrix(1.1073076,0,0,1.1073076,-5.6104486,-75.346393)">
      <stop
         id="stop3567"
         stop-opacity="1"
         stop-color="#0f2519"
         offset="0" />
      <stop
         id="stop3569"
         stop-opacity="1"
         stop-color="#264336"
         offset="1" />
    </linearGradient>
    <linearGradient
       y2="982.05328"
       y1="1023.4351"
       x2="52.229477"
       x1="52.229477"
       id="linearGradient3571"
       gradientUnits="userSpaceOnUse"
       gradientTransform="matrix(1.1073076,0,0,1.1073076,-1.9945616,-1062.0463)">
      <stop
         id="stop3573"
         stop-opacity="1"
         stop-color="#0f2519"
         offset="0" />
      <stop
         id="stop3575"
         stop-opacity="1"
         stop-color="#264336"
         offset="1" />
    </linearGradient>
    <linearGradient
       y2="982.05328"
       y1="1023.4351"
       x2="52.229477"
       x1="52.229477"
       id="linearGradient3577"
       gradientUnits="userSpaceOnUse"
       gradientTransform="matrix(1.1073076,0,0,1.1073076,-1.9945616,-108.68408)">
      <stop
         id="stop3579"
         stop-opacity="1"
         stop-color="#0f2519"
         offset="0" />
      <stop
         id="stop3581"
         stop-opacity="1"
         stop-color="#264336"
         offset="1" />
    </linearGradient>
    <linearGradient
       y2="982.05328"
       y1="1023.4351"
       x2="52.229477"
       x1="52.229477"
       id="linearGradient3595"
       gradientUnits="userSpaceOnUse"
       gradientTransform="matrix(1.1073076,0,0,1.1073076,-2.0461464,-107.18393)">
      <stop
         id="stop3597"
         stop-opacity="1"
         stop-color="#0f2519"
         offset="0" />
      <stop
         id="stop3599"
         stop-opacity="1"
         stop-color="#264336"
         offset="1" />
    </linearGradient>
    <linearGradient
       y2="73.863831"
       y1="21.107197"
       x2="22.923319"
       x1="22.923319"
       id="linearGradient3820"
       gradientUnits="userSpaceOnUse"
       gradientTransform="translate(103.1915,956.3622)">
      <stop
         id="stop3602"
         stop-opacity="1"
         stop-color="#a69fa6"
         offset="0" />
      <stop
         id="stop3604"
         stop-opacity="0"
         stop-color="#656165"
         offset="0.47202668" />
      <stop
         id="stop3606"
         stop-opacity="0.3"
         stop-color="#a7a0a7"
         offset="1" />
    </linearGradient>
    <linearGradient
       y2="18.542936"
       y1="74.252411"
       x2="-81.965073"
       x1="-81.965073"
       id="linearGradient3608"
       gradientUnits="userSpaceOnUse"
       gradientTransform="matrix(0.99939697,0,0,1,206.12987,957.6816)">
      <stop
         id="stop3610"
         stop-opacity="1"
         stop-color="#fffbff"
         offset="0" />
      <stop
         id="stop3612"
         stop-opacity="1"
         stop-color="#a59ea5"
         offset="0.4338176" />
      <stop
         id="stop3614"
         stop-opacity="1"
         stop-color="#eee6ef"
         offset="1" />
    </linearGradient>
    <linearGradient
       y2="39.424603"
       y1="47.988636"
       x2="25.739946"
       x1="38.49432"
       id="linearGradient3840"
       gradientUnits="userSpaceOnUse"
       gradientTransform="translate(103.1915,956.3622)">
      <stop
         id="stop3617"
         stop-opacity="1"
         stop-color="#000000"
         offset="0" />
      <stop
         id="stop3619"
         stop-opacity="1"
         stop-color="#6f2fa4"
         offset="1" />
    </linearGradient>
    <linearGradient
       y2="24.122395"
       y1="39.607956"
       x2="48.011364"
       x1="48.011364"
       id="linearGradient3875"
       gradientUnits="userSpaceOnUse"
       gradientTransform="translate(103.1915,956.3622)">
      <stop
         id="stop3645"
         stop-opacity="1"
         stop-color="#000000"
         offset="0" />
      <stop
         id="stop3647"
         stop-opacity="1"
         stop-color="#3a3143"
         offset="1" />
    </linearGradient>
    <linearGradient
       y2="44.28862"
       y1="50.971592"
       x2="48.295456"
       x1="48.295456"
       id="linearGradient3886"
       gradientUnits="userSpaceOnUse"
       gradientTransform="translate(103.1915,956.3622)">
      <stop
         id="stop3650"
         stop-opacity="1"
         stop-color="#ffffff"
         offset="0" />
      <stop
         id="stop3652"
         stop-opacity="0"
         stop-color="#ffffff"
         offset="1" />
    </linearGradient>
    <linearGradient
       y2="66.73864"
       y1="54.664772"
       x2="62.357956"
       x1="53.125"
       id="linearGradient3894"
       gradientUnits="userSpaceOnUse"
       gradientTransform="translate(103.1915,956.3622)">
      <stop
         id="stop3655"
         stop-opacity="1"
         stop-color="#010101"
         offset="0" />
      <stop
         id="stop3657"
         stop-opacity="1"
         stop-color="#4b2864"
         offset="1" />
    </linearGradient>
    <linearGradient
       y2="67.322166"
       y1="54.31686"
       x2="34.475849"
       x1="41.984467"
       id="linearGradient3902"
       gradientUnits="userSpaceOnUse"
       gradientTransform="translate(103.1915,956.3622)">
      <stop
         id="stop3660"
         stop-opacity="1"
         stop-color="#010101"
         offset="0" />
      <stop
         id="stop3662"
         stop-opacity="1"
         stop-color="#53256c"
         offset="1" />
    </linearGradient>
    <linearGradient
       y2="39.18182"
       y1="46.710228"
       x2="68.75"
       x1="55.823864"
       id="linearGradient3910"
       gradientUnits="userSpaceOnUse"
       gradientTransform="translate(103.1915,956.3622)">
      <stop
         id="stop3665"
         stop-opacity="1"
         stop-color="#000000"
         offset="0" />
      <stop
         id="stop3667"
         stop-opacity="1"
         stop-color="#5a307b"
         offset="1" />
    </linearGradient>
  </defs>
  <sodipodi:namedview
     id="base"
     pagecolor="#ffffff"
     bordercolor="#666666"
     borderopacity="1.0"
     inkscape:pageopacity="0.0"
     inkscape:pageshadow="2"
     inkscape:zoom="2"
     inkscape:cx="39.24548"
     inkscape:cy="62.129001"
     inkscape:document-units="px"
     inkscape:current-layer="layer1"
     showgrid="false"
     inkscape:window-width="1360"
     inkscape:window-height="713"
     inkscape:window-x="0"
     inkscape:window-y="29"
     inkscape:window-maximized="1"
     showguides="true"
     inkscape:guide-bbox="true" />
  <metadata
     id="metadata7">
    <rdf:RDF>
      <cc:Work
         rdf:about="">
        <dc:format>image/svg+xml</dc:format>
        <dc:type
           rdf:resource="http://purl.org/dc/dcmitype/StillImage" />
        <dc:title />
      </cc:Work>
    </rdf:RDF>
  </metadata>
  <g
     inkscape:label="Layer 1"
     inkscape:groupmode="layer"
     id="layer1"
     transform="translate(0,-956.36218)">
    <rect
       style="opacity:0.05;fill:#000000;fill-opacity:1;stroke:none"
       id="rect3826"
       width="89"
       height="89"
       x="3.5"
       y="960.86218"
       rx="10.595235"
       ry="10.595235" />
    <g
       id="g3041">
      <rect
         style="opacity:0.05;fill:#000000;fill-opacity:1;stroke:none"
         id="rect3824"
         width="88"
         height="88"
         x="4"
         y="961.36218"
         rx="10.476188"
         ry="10.476188" />
      <rect
         ry="10.357141"
         rx="10.357141"
         y="961.86218"
         x="4.5"
         height="87"
         width="87"
         id="rect3822"
         style="opacity:0.05;fill:#000000;fill-opacity:1;stroke:none" />
      <rect
         style="opacity:0.1;fill:#000000;fill-opacity:1;stroke:none"
         id="rect3820"
         width="86"
         height="86"
         x="5"
         y="962.36218"
         rx="10.238094"
         ry="10.238094" />
      <rect
         ry="10.119047"
         rx="10.119047"
         y="962.86218"
         x="5.5"
         height="85"
         width="85"
         id="rect3818"
         style="opacity:0.1;fill:#000000;fill-opacity:1;stroke:none" />
      <rect
         style="opacity:0.3;fill:#000000;fill-opacity:1;stroke:none"
         id="rect3131"
         width="84"
         height="84"
         x="6"
         y="963.36218"
         rx="10"
         ry="10" />
    </g>
    <rect
       ry="10"
       rx="10"
       y="962.36218"
       x="6"
       height="84"
       width="84"
       id="rect3036"
       style="fill:url(#linearGradient3074);fill-opacity:1;stroke:none" />
    <rect
       style="fill:url(#linearGradient3071);fill-opacity:1;stroke:none"
       id="rect3034"
       width="82"
       height="82"
       x="7"
       y="963.36218"
       rx="9.7619047"
       ry="9.7619047" />
    <g
       id="g3875"
       transform="translate(-103.1915,0)">
      <g
         transform="translate(103.1915,-2.6171874e-6)"
         id="g3683">
        <path
           id="path3685"
           transform="matrix(0.63373351,0,0,0.6341159,82.837263,974.66818)"
           d="m -26.704546,46.426136 c 0,15.611458 -12.655588,28.267048 -28.267046,28.267048 -15.611458,0 -28.267048,-12.65559 -28.267048,-28.267048 0,-15.611458 12.65559,-28.267046 28.267044,-28.267046 15.611462,0 28.267048,12.655588 28.267048,28.267046 z"
           inkscape:connector-curvature="0"
           style="fill:#000000;fill-opacity:1;fill-rule:nonzero;stroke:none;stroke-opacity:1" />
        <path
           id="path3687"
           transform="matrix(0.48800487,0,0,0.48829933,74.826328,981.43788)"
           d="m -26.704546,46.426136 c 0,15.611458 -12.655588,28.267048 -28.267046,28.267048 -15.611458,0 -28.267048,-12.65559 -28.267048,-28.267048 0,-15.611458 12.65559,-28.267046 28.267044,-28.267046 15.611462,0 28.267048,12.655588 28.267048,28.267046 z"
           inkscape:connector-curvature="0"
           style="fill:#008080;fill-opacity:0.3;fill-rule:nonzero;stroke:none;stroke-opacity:0.3" />
        <path
           id="path3689"
           transform="matrix(0.45282899,0,0,0.45310223,72.892654,983.07195)"
           d="m -26.704546,46.426136 c 0,15.611458 -12.655588,28.267048 -28.267046,28.267048 -15.611458,0 -28.267048,-12.65559 -28.267048,-28.267048 0,-15.611458 12.65559,-28.267046 28.267044,-28.267046 15.611462,0 28.267048,12.655588 28.267048,28.267046 z"
           inkscape:connector-curvature="0"
           style="fill:#000000;fill-opacity:0.3;fill-rule:nonzero;stroke:none;stroke-opacity:0.3" />
      </g>
      <path
         id="path3691"
         d="m 175.04326,1028.7722 2.86258,2.8626 c 0,0 -4.77563,2.479 -8.28641,0.452 -3.10644,-1.7935 -2.81235,-6.2273 -2.81235,-8.4371 0,-2.2097 0,-7.5331 0,-7.5331 0,0 0.0529,-2.9001 -0.7771,-2.9001 -0.82996,0 0.7771,-1.017 0.7771,-1.017 0,0 1.00441,0.7031 1.00441,2.7119 0,2.0088 0,10.6467 0,10.6467 -0.27818,2.5576 0.91229,4.8289 2.41059,5.6248 1.90145,1.0977 3.97665,0.7413 4.82118,-2.4106 z"
         inkscape:connector-curvature="0"
         style="fill:#000000;stroke:none" />
      <path
         style="fill:url(#linearGradient3608);fill-opacity:1;fill-rule:nonzero;stroke:none;stroke-opacity:1"
         id="path3693"
         d="m 151.1915,975.83095 c -15.60204,0 -28.25,12.66979 -28.25,28.28125 0,15.6115 12.64796,28.25 28.25,28.25 15.60204,0 28.25,-12.6385 28.25,-28.25 0,-15.61146 -12.64796,-28.28125 -28.25,-28.28125 z m 0,5.75 c 3.80808,0 6.90625,3.06692 6.90625,6.875 0,3.80808 -3.09817,6.90625 -6.90625,6.90625 -3.80808,0 -6.90625,-3.09817 -6.90625,-6.90625 0,-3.80808 3.09817,-6.875 6.90625,-6.875 z m -15.40625,11.03125 c 3.80808,0 6.875,3.09817 6.875,6.90625 0,3.80805 -3.06692,6.87505 -6.875,6.87505 -3.80808,0 -6.90625,-3.067 -6.90625,-6.87505 0,-3.80808 3.09817,-6.90625 6.90625,-6.90625 z m 30.3125,0 c 3.80808,0 6.90625,3.09817 6.90625,6.90625 0,3.80805 -3.09817,6.87505 -6.90625,6.87505 -3.80808,0 -6.90625,-3.067 -6.90625,-6.87505 0,-3.80808 3.09817,-6.90625 6.90625,-6.90625 z m -24.65625,17.875 c 3.80808,0 6.875,3.0982 6.875,6.9063 0,3.808 -3.06692,6.9062 -6.875,6.9062 -3.80808,0 -6.90625,-3.0982 -6.90625,-6.9062 0,-3.8081 3.09817,-6.9063 6.90625,-6.9063 z m 19.03125,0 c 3.80809,0 6.875,3.0982 6.875,6.9063 0,3.808 -3.06691,6.9062 -6.875,6.9062 -3.80808,0 -6.90625,-3.0982 -6.90625,-6.9062 0,-3.8081 3.09817,-6.9063 6.90625,-6.9063 z"
         inkscape:connector-curvature="0" />
      <path
         id="path3695"
         d="m 151.1915,977.8622 c -14.4926,0 -26.25,11.74866 -26.25,26.25 0,14.5013 11.7574,26.25 26.25,26.25 14.4926,0 26.25,-11.7487 26.25,-26.25 0,-14.50134 -11.7574,-26.25 -26.25,-26.25 z m 0,0.78125 c 14.04882,0 25.4375,11.41145 25.4375,25.46875 0,14.0573 -11.38868,25.4375 -25.4375,25.4375 -14.04882,0 -25.4375,-11.3802 -25.4375,-25.4375 0,-14.0573 11.38868,-25.46875 25.4375,-25.46875 z"
         inkscape:connector-curvature="0"
         style="fill:url(#linearGradient3820);fill-opacity:1;fill-rule:nonzero;stroke:none;stroke-opacity:1" />
      <path
         id="path3697"
         d="m 151.1915,1000.6747 c -1.88921,0 -3.40625,1.5485 -3.40625,3.4375 0,1.889 1.51704,3.4063 3.40625,3.4063 1.88921,0 3.40625,-1.5173 3.40625,-3.4063 0,-1.889 -1.51704,-3.4375 -3.40625,-3.4375 z m 0,1.1563 c 1.26155,0 2.28125,1.0198 2.28125,2.2812 0,1.2614 -1.0197,2.2813 -2.28125,2.2813 -1.26155,0 -2.28125,-1.0199 -2.28125,-2.2813 0,-1.2614 1.0197,-2.2812 2.28125,-2.2812 z"
         inkscape:connector-curvature="0"
         style="fill:url(#linearGradient3886);fill-opacity:0.3;fill-rule:nonzero;stroke:none;stroke-opacity:0.3" />
      <path
         id="path3699"
         d="m 153.47566,1004.1078 c 0,1.2614 -1.02269,2.284 -2.28423,2.284 -1.26155,0 -2.28424,-1.0226 -2.28424,-2.284 0,-1.2614 1.02269,-2.284 2.28424,-2.284 1.26154,0 2.28423,1.0226 2.28423,2.284 z"
         inkscape:connector-curvature="0"
         style="fill:#7328b5;fill-opacity:1;fill-rule:nonzero;stroke:none;stroke-opacity:1" />
      <path
         id="path3701"
         d="m 151.20227,1001.8201 c -1.26155,0 -2.28125,1.0198 -2.28125,2.2812 0,0.1577 8.2e-4,0.3202 0.0312,0.4688 0.23637,-1.0095 1.16831,-1.75 2.25,-1.75 1.08169,0 1.98238,0.7405 2.21875,1.75 0.0304,-0.1486 0.0625,-0.3111 0.0625,-0.4688 0,-1.2614 -1.0197,-2.2812 -2.28125,-2.2812 z"
         inkscape:connector-curvature="0"
         style="fill:#000000;fill-opacity:0.3;fill-rule:nonzero;stroke:none;stroke-opacity:0.3" />
      <path
         id="path3703"
         d="m 151.1915,979.456 c -4.41828,0 -8,3.5817 -8,8 0,0.1701 0.0208,0.3325 0.0312,0.5 0.26124,-4.1824 3.72061,-7.5 7.96875,-7.5 4.24814,0 7.70751,3.3176 7.96875,7.5 0.0105,-0.1675 0.0312,-0.3299 0.0312,-0.5 0,-4.4183 -3.58172,-8 -8,-8 z m -15.40625,11.0625 c -4.41828,0 -8,3.5817 -8,8 0,0.1701 0.0208,0.3325 0.0312,0.5 0.26124,-4.1824 3.72061,-7.5 7.96875,-7.5 4.24814,0 7.70751,3.3176 7.96875,7.5 0.0105,-0.1675 0.0312,-0.3299 0.0312,-0.5 0,-4.4183 -3.58172,-8 -8,-8 z m 30.3125,0 c -4.41828,0 -8,3.5817 -8,8 0,0.1701 0.0208,0.3325 0.0312,0.5 0.26124,-4.1824 3.72061,-7.5 7.96875,-7.5 4.24814,0 7.70751,3.3176 7.96875,7.5 0.0105,-0.1675 0.0312,-0.3299 0.0312,-0.5 0,-4.4183 -3.58172,-8 -8,-8 z"
         inkscape:connector-curvature="0"
         style="fill:#000000;fill-opacity:0.3;fill-rule:nonzero;stroke:none;stroke-opacity:0.3" />
      <path
         id="path3705"
         d="m 151.1915,980.45595 c -4.41828,0 -8,3.58172 -8,8 0,4.41828 3.58172,8 8,8 4.41828,0 8,-3.58172 8,-8 0,-4.41828 -3.58172,-8 -8,-8 z m 0,1.125 c 3.80808,0 6.90625,3.06692 6.90625,6.875 0,3.80808 -3.09817,6.90625 -6.90625,6.90625 -3.80808,0 -6.90625,-3.09817 -6.90625,-6.90625 0,-3.80808 3.09817,-6.875 6.90625,-6.875 z"
         inkscape:connector-curvature="0"
         style="fill:url(#linearGradient3875);fill-opacity:1;fill-rule:nonzero;stroke:none;stroke-opacity:1" />
      <path
         id="path3707"
         d="m 135.78525,991.51845 c -4.41828,0 -8,3.58172 -8,8 0,4.41825 3.58172,8.00005 8,8.00005 4.41828,0 8,-3.5818 8,-8.00005 0,-4.41828 -3.58172,-8 -8,-8 z m 0,1.09375 c 3.80808,0 6.875,3.09817 6.875,6.90625 0,3.80805 -3.06692,6.87505 -6.875,6.87505 -3.80808,0 -6.90625,-3.067 -6.90625,-6.87505 0,-3.80808 3.09817,-6.90625 6.90625,-6.90625 z"
         inkscape:connector-curvature="0"
         style="fill:url(#linearGradient3840);fill-opacity:1;fill-rule:nonzero;stroke:none;stroke-opacity:1" />
      <path
         id="path3709"
         d="m 166.09775,991.51845 c -4.41828,0 -8,3.58172 -8,8 0,4.41825 3.58172,8.00005 8,8.00005 4.41828,0 8,-3.5818 8,-8.00005 0,-4.41828 -3.58172,-8 -8,-8 z m 0,1.09375 c 3.80808,0 6.90625,3.09817 6.90625,6.90625 0,3.80805 -3.09817,6.87505 -6.90625,6.87505 -3.80808,0 -6.90625,-3.067 -6.90625,-6.87505 0,-3.80808 3.09817,-6.90625 6.90625,-6.90625 z"
         inkscape:connector-curvature="0"
         style="fill:url(#linearGradient3910);fill-opacity:1;fill-rule:nonzero;stroke:none;stroke-opacity:1" />
      <path
         id="path3711"
         d="m 141.4415,1009.3935 c -4.41828,0 -8,3.5817 -8,8 0,4.4182 3.58172,8 8,8 4.41828,0 8,-3.5818 8,-8 0,-4.4183 -3.58172,-8 -8,-8 z m 0,1.0937 c 3.80808,0 6.875,3.0982 6.875,6.9063 0,3.808 -3.06692,6.9062 -6.875,6.9062 -3.80808,0 -6.90625,-3.0982 -6.90625,-6.9062 0,-3.8081 3.09817,-6.9063 6.90625,-6.9063 z"
         inkscape:connector-curvature="0"
         style="fill:url(#linearGradient3902);fill-opacity:1;fill-rule:nonzero;stroke:none;stroke-opacity:1" />
      <path
         id="path3713"
         d="m 160.47275,1009.3935 c -4.41828,0 -8,3.5817 -8,8 0,4.4182 3.58172,8 8,8 4.41828,0 8,-3.5818 8,-8 0,-4.4183 -3.58172,-8 -8,-8 z m 0,1.0937 c 3.80809,0 6.875,3.0982 6.875,6.9063 0,3.808 -3.06691,6.9062 -6.875,6.9062 -3.80808,0 -6.90625,-3.0982 -6.90625,-6.9062 0,-3.8081 3.09817,-6.9063 6.90625,-6.9063 z"
         inkscape:connector-curvature="0"
         style="fill:url(#linearGradient3894);fill-opacity:1;fill-rule:nonzero;stroke:none;stroke-opacity:1" />
      <path
         id="path3715"
         d="m 133.47275,1017.8935 c -0.0105,0.1674 -0.0312,0.3299 -0.0312,0.5 0,4.4182 3.58172,8 8,8 4.41828,0 8,-3.5818 8,-8 0,-0.1701 -0.0208,-0.3326 -0.0312,-0.5 -0.26124,4.1823 -3.72056,7.5 -7.96875,7.5 -4.24819,0 -7.70751,-3.3177 -7.96875,-7.5 z m 19.03125,0 c -0.0105,0.1674 -0.0312,0.3299 -0.0312,0.5 0,4.4182 3.58172,8 8,8 4.41828,0 8,-3.5818 8,-8 0,-0.1701 -0.0208,-0.3326 -0.0312,-0.5 -0.26125,4.1823 -3.72057,7.5 -7.96875,7.5 -4.24818,0 -7.7075,-3.3177 -7.96875,-7.5 z"
         inkscape:connector-curvature="0"
         style="fill:#ffffff;fill-opacity:0.3;fill-rule:nonzero;stroke:none;stroke-opacity:0.3" />
    </g>
  </g>
</svg>
