<?xml version="1.0" encoding="UTF-8" standalone="no"?>
<!-- Created with Inkscape (http://www.inkscape.org/) -->

<svg
   xmlns:dc="http://purl.org/dc/elements/1.1/"
   xmlns:cc="http://creativecommons.org/ns#"
   xmlns:rdf="http://www.w3.org/1999/02/22-rdf-syntax-ns#"
   xmlns:svg="http://www.w3.org/2000/svg"
   xmlns="http://www.w3.org/2000/svg"
   xmlns:xlink="http://www.w3.org/1999/xlink"
   xmlns:sodipodi="http://sodipodi.sourceforge.net/DTD/sodipodi-0.dtd"
   xmlns:inkscape="http://www.inkscape.org/namespaces/inkscape"
   width="96"
   height="96"
   id="svg2"
   version="1.1"
   inkscape:version="0.91 r13725"
   sodipodi:docname="blender.svg">
  <defs
     id="defs4">
    <linearGradient
       inkscape:collect="always"
       id="linearGradient4270">
      <stop
         style="stop-color:#f68121;stop-opacity:1"
         offset="0"
         id="stop4272" />
      <stop
         id="stop4278"
         offset="0.26506048"
         style="stop-color:#fcc28f;stop-opacity:1" />
      <stop
         style="stop-color:#f68121;stop-opacity:1"
         offset="1"
         id="stop4274" />
    </linearGradient>
    <linearGradient
       inkscape:collect="always"
       id="linearGradient3105">
      <stop
         style="stop-color:#f8f8f8;stop-opacity:1"
         offset="0"
         id="stop3107" />
      <stop
         style="stop-color:#ececec;stop-opacity:1"
         offset="1"
         id="stop3109" />
    </linearGradient>
    <linearGradient
       id="linearGradient12782"
       inkscape:collect="always">
      <stop
         id="stop12784"
         offset="0"
         style="stop-color:#1f2427;stop-opacity:1" />
      <stop
         style="stop-color:#1e2326;stop-opacity:1"
         offset="0.45815042"
         id="stop12786" />
      <stop
         id="stop12788"
         offset="1"
         style="stop-color:#101113;stop-opacity:1" />
    </linearGradient>
    <linearGradient
       inkscape:collect="always"
       id="linearGradient12772">
      <stop
         style="stop-color:#071119;stop-opacity:1"
         offset="0"
         id="stop12774" />
      <stop
         id="stop12776"
         offset="0.43454874"
         style="stop-color:#1c2021;stop-opacity:1" />
      <stop
         style="stop-color:#1f2427;stop-opacity:1"
         offset="1"
         id="stop12778" />
    </linearGradient>
    <linearGradient
       inkscape:collect="always"
       id="linearGradient3222">
      <stop
         style="stop-color:#de005a;stop-opacity:1"
         offset="0"
         id="stop3224" />
      <stop
         style="stop-color:#a30444;stop-opacity:1"
         offset="1"
         id="stop3226" />
    </linearGradient>
    <linearGradient
       id="linearGradient3076"
       inkscape:collect="always">
      <stop
         id="stop3078"
         offset="0"
         style="stop-color:#ffe7f7;stop-opacity:1" />
      <stop
         id="stop3080"
         offset="1"
         style="stop-color:#ffc3ef;stop-opacity:1" />
    </linearGradient>
    <linearGradient
       inkscape:collect="always"
       id="linearGradient3048">
      <stop
         style="stop-color:#c16d16;stop-opacity:1"
         offset="0"
         id="stop3050" />
      <stop
         style="stop-color:#ff8e31;stop-opacity:1"
         offset="1"
         id="stop3052" />
    </linearGradient>
    <linearGradient
       inkscape:collect="always"
       id="linearGradient3119">
      <stop
         style="stop-color:#92948f;stop-opacity:0"
         offset="0"
         id="stop3121" />
      <stop
         id="stop3123"
         offset="0.4283945"
         style="stop-color:#9b9e98;stop-opacity:1" />
      <stop
         style="stop-color:#939690;stop-opacity:0"
         offset="1"
         id="stop3125" />
    </linearGradient>
    <linearGradient
       id="linearGradient3073"
       inkscape:collect="always">
      <stop
         id="stop3075"
         offset="0"
         style="stop-color:#ffffff;stop-opacity:0" />
      <stop
         style="stop-color:#ffffff;stop-opacity:1"
         offset="0.45872402"
         id="stop3085" />
      <stop
         id="stop3083"
         offset="1"
         style="stop-color:#ffffff;stop-opacity:0" />
    </linearGradient>
    <linearGradient
       inkscape:collect="always"
       id="linearGradient3047">
      <stop
         style="stop-color:#000000;stop-opacity:1"
         offset="0"
         id="stop3049" />
      <stop
         id="stop3055"
         offset="0.06123874"
         style="stop-color:#1a1a1a;stop-opacity:1" />
      <stop
         style="stop-color:#333333;stop-opacity:1"
         offset="0.16480456"
         id="stop3057" />
      <stop
         id="stop3059"
         offset="0.55385184"
         style="stop-color:#4d4d4d;stop-opacity:1" />
      <stop
         style="stop-color:#999999;stop-opacity:1"
         offset="1"
         id="stop3051" />
    </linearGradient>
    <linearGradient
       id="linearGradient3041"
       inkscape:collect="always">
      <stop
         id="stop3043"
         offset="0"
         style="stop-color:#1a1a1a;stop-opacity:1" />
      <stop
         id="stop3045"
         offset="1"
         style="stop-color:#808080;stop-opacity:1" />
    </linearGradient>
    <linearGradient
       inkscape:collect="always"
       id="linearGradient3029">
      <stop
         style="stop-color:#333333;stop-opacity:1"
         offset="0"
         id="stop3031" />
      <stop
         style="stop-color:#e0e0dd;stop-opacity:0;"
         offset="1"
         id="stop3033" />
    </linearGradient>
    <linearGradient
       inkscape:collect="always"
       xlink:href="#linearGradient3029"
       id="linearGradient3035"
       x1="35.355339"
       y1="1030.3622"
       x2="35.355339"
       y2="975.33282"
       gradientUnits="userSpaceOnUse"
       gradientTransform="matrix(1.1638085,0,0,1.1638085,-7.862809,-164.23642)" />
    <linearGradient
       inkscape:collect="always"
       xlink:href="#linearGradient3041"
       id="linearGradient3039"
       gradientUnits="userSpaceOnUse"
       x1="35.355339"
       y1="1030.3622"
       x2="35.355339"
       y2="975.33282"
       gradientTransform="matrix(1.1218695,0,0,1.1218695,-5.8497348,-122.18782)" />
    <linearGradient
       inkscape:collect="always"
       xlink:href="#linearGradient3047"
       id="linearGradient3053"
       x1="40"
       y1="1043.4336"
       x2="39.285713"
       y2="972.33325"
       gradientUnits="userSpaceOnUse" />
    <linearGradient
       inkscape:collect="always"
       xlink:href="#linearGradient3073"
       id="linearGradient3113"
       gradientUnits="userSpaceOnUse"
       gradientTransform="translate(0,-956.36218)"
       x1="14.869445"
       y1="978.90387"
       x2="24.52651"
       y2="969.24683" />
    <linearGradient
       inkscape:collect="always"
       xlink:href="#linearGradient3073"
       id="linearGradient3115"
       gradientUnits="userSpaceOnUse"
       gradientTransform="matrix(-1,0,0,1,96,-956.36218)"
       x1="15.152279"
       y1="978.62103"
       x2="26.263966"
       y2="967.50934" />
    <linearGradient
       inkscape:collect="always"
       xlink:href="#linearGradient3119"
       id="linearGradient3117"
       gradientUnits="userSpaceOnUse"
       gradientTransform="translate(0,-956.36218)"
       x1="13.131983"
       y1="980.64136"
       x2="25.549681"
       y2="967.86646" />
    <linearGradient
       inkscape:collect="always"
       xlink:href="#linearGradient3119"
       id="linearGradient3129"
       gradientUnits="userSpaceOnUse"
       gradientTransform="matrix(-1,0,0,1,96,0)"
       x1="13.131983"
       y1="980.64136"
       x2="25.549681"
       y2="967.86646" />
    <linearGradient
       inkscape:collect="always"
       xlink:href="#linearGradient3048"
       id="linearGradient3054"
       x1="49.267925"
       y1="996.57349"
       x2="49.267925"
       y2="1045.8627"
       gradientUnits="userSpaceOnUse" />
    <linearGradient
       inkscape:collect="always"
       xlink:href="#linearGradient3048"
       id="linearGradient3058"
       x1="115.80308"
       y1="985.47241"
       x2="115.80308"
       y2="1033.5543"
       gradientUnits="userSpaceOnUse" />
    <linearGradient
       inkscape:collect="always"
       xlink:href="#linearGradient3222"
       id="linearGradient3055"
       gradientUnits="userSpaceOnUse"
       x1="115.80308"
       y1="985.47241"
       x2="115.80308"
       y2="1025.3639"
       gradientTransform="matrix(1.4144782,0,0,1.4144782,-119.78686,-419.05496)" />
    <linearGradient
       inkscape:collect="always"
       xlink:href="#linearGradient3076"
       id="linearGradient3086"
       gradientUnits="userSpaceOnUse"
       gradientTransform="matrix(1.4144782,0,0,1.4144782,-119.78686,-417.12598)"
       x1="115.80308"
       y1="985.47241"
       x2="115.80308"
       y2="1025.3639" />
    <linearGradient
       inkscape:collect="always"
       xlink:href="#linearGradient3076"
       id="linearGradient3091"
       gradientUnits="userSpaceOnUse"
       gradientTransform="matrix(1.4144782,0,0,1.4144782,-119.78686,-418.126)"
       x1="115.80308"
       y1="985.47241"
       x2="115.80308"
       y2="1025.3639" />
    <linearGradient
       inkscape:collect="always"
       xlink:href="#linearGradient3076"
       id="linearGradient3093"
       gradientUnits="userSpaceOnUse"
       gradientTransform="matrix(1.4144782,0,0,1.4144782,-119.78686,-1375.4171)"
       x1="115.80308"
       y1="985.47241"
       x2="115.80308"
       y2="1025.3639" />
    <linearGradient
       inkscape:collect="always"
       xlink:href="#linearGradient12772"
       id="linearGradient12751"
       gradientUnits="userSpaceOnUse"
       x1="41.436974"
       y1="1044.5088"
       x2="41.436974"
       y2="971.16656"
       gradientTransform="translate(61.478268,0)" />
    <radialGradient
       inkscape:collect="always"
       xlink:href="#linearGradient12782"
       id="radialGradient12780"
       cx="59.600365"
       cy="1018.5097"
       fx="59.600365"
       fy="1018.5097"
       r="41"
       gradientUnits="userSpaceOnUse"
       gradientTransform="matrix(0.92610524,-0.92610523,0.94192231,0.94192231,-882.79521,107.99027)" />
    <clipPath
       clipPathUnits="userSpaceOnUse"
       id="clipPath3070">
      <path
         id="path3072"
         d="m 48,962.36218 c -23.195959,0 -42,18.80404 -42,42.00002 0,23.1959 18.804041,42 42,42 23.195959,0 42,-18.8041 42,-42 0,-23.19598 -18.804041,-42.00002 -42,-42.00002 z"
         style="fill:url(#radialGradient3074);fill-opacity:1;stroke:none"
         inkscape:connector-curvature="0"
         sodipodi:nodetypes="sssss" />
    </clipPath>
    <radialGradient
       inkscape:collect="always"
       xlink:href="#linearGradient3105"
       id="radialGradient3074"
       gradientUnits="userSpaceOnUse"
       gradientTransform="matrix(0,-1.4424846,1,0,-40.211316,1094.9939)"
       cx="76.266251"
       cy="87.305656"
       fx="76.266251"
       fy="87.305656"
       r="42" />
    <linearGradient
       inkscape:collect="always"
       xlink:href="#linearGradient12772"
       id="linearGradient3120"
       gradientUnits="userSpaceOnUse"
       gradientTransform="translate(61.478268,0)"
       x1="41.436974"
       y1="1044.5088"
       x2="41.436974"
       y2="971.16656" />
    <radialGradient
       inkscape:collect="always"
       xlink:href="#linearGradient12782"
       id="radialGradient3122"
       gradientUnits="userSpaceOnUse"
       gradientTransform="matrix(0.92610524,-0.92610523,0.94192231,0.94192231,-882.79521,107.99027)"
       cx="59.600365"
       cy="1018.5097"
       fx="59.600365"
       fy="1018.5097"
       r="41" />
    <linearGradient
       inkscape:collect="always"
       xlink:href="#linearGradient4270"
       id="linearGradient4276"
       x1="-18.69964"
       y1="1012.6575"
       x2="-18.69964"
       y2="991.39624"
       gradientUnits="userSpaceOnUse"
       gradientTransform="translate(103.48432,-956.36218)" />
  </defs>
  <sodipodi:namedview
     id="base"
     pagecolor="#ffffff"
     bordercolor="#666666"
     borderopacity="1.0"
     inkscape:pageopacity="0.0"
     inkscape:pageshadow="2"
     inkscape:zoom="0.69010415"
     inkscape:cx="-103.71465"
     inkscape:cy="220.95467"
     inkscape:document-units="px"
     inkscape:current-layer="layer1"
     showgrid="false"
     inkscape:window-width="1360"
     inkscape:window-height="714"
     inkscape:window-x="0"
     inkscape:window-y="28"
     inkscape:window-maximized="1"
     showguides="false"
     inkscape:guide-bbox="true">
    <sodipodi:guide
       orientation="0,1"
       position="120.2717,73.17736"
       id="guide4443" />
    <sodipodi:guide
       orientation="0,1"
       position="142.73208,28.256604"
       id="guide4445" />
  </sodipodi:namedview>
  <metadata
     id="metadata7">
    <rdf:RDF>
      <cc:Work
         rdf:about="">
        <dc:format>image/svg+xml</dc:format>
        <dc:type
           rdf:resource="http://purl.org/dc/dcmitype/StillImage" />
        <dc:title />
      </cc:Work>
    </rdf:RDF>
  </metadata>
  <g
     inkscape:label="Layer 1"
     inkscape:groupmode="layer"
     id="layer1"
     transform="translate(0,-956.36218)">
    <path
       id="path4418"
       d="m 55.666225,997.80058 c -8.980981,0 -16.261483,7.28062 -16.261483,16.26162 0,8.981 7.280502,16.2614 16.261483,16.2614 8.98097,0 16.261481,-7.2804 16.261481,-16.2614 0,-8.981 -7.280511,-16.26162 -16.261481,-16.26162 z"
       style="opacity:0.05;fill:#000000;fill-opacity:1;stroke:none"
       inkscape:connector-curvature="0"
       sodipodi:nodetypes="sssss" />
    <path
       sodipodi:nodetypes="sssss"
       inkscape:connector-curvature="0"
       style="opacity:0.05;fill:#000000;fill-opacity:1;stroke:none"
       d="m 55.666225,998.25341 c -8.730889,0 -15.808653,7.07789 -15.808653,15.80879 0,8.7309 7.077764,15.8086 15.808653,15.8086 8.730879,0 15.808651,-7.0777 15.808651,-15.8086 0,-8.7309 -7.077772,-15.80879 -15.808651,-15.80879 z"
       id="path4416" />
    <path
       id="path4414"
       d="m 55.666225,998.66096 c -8.505808,0 -15.401108,6.89544 -15.401108,15.40124 0,8.5058 6.8953,15.4011 15.401108,15.4011 8.505798,0 15.401106,-6.8953 15.401106,-15.4011 0,-8.5058 -6.895308,-15.40124 -15.401106,-15.40124 z"
       style="opacity:0.05;fill:#000000;fill-opacity:1;stroke:none"
       inkscape:connector-curvature="0"
       sodipodi:nodetypes="sssss" />
    <path
       sodipodi:nodetypes="sssss"
       inkscape:connector-curvature="0"
       style="opacity:0.05;fill:#000000;fill-opacity:1;stroke:none"
       d="m 55.666225,999.11379 c -8.255716,0 -14.948278,6.69271 -14.948278,14.94841 0,8.2557 6.692562,14.9483 14.948278,14.9483 8.255707,0 14.948276,-6.6926 14.948276,-14.9483 0,-8.2557 -6.692569,-14.94841 -14.948276,-14.94841 z"
       id="path4412" />
    <path
       id="path4410"
       d="m 55.666225,999.56207 c -8.008139,0 -14.500001,6.49203 -14.500001,14.50013 0,8.0081 6.491862,14.5 14.500001,14.5 8.00813,0 14.499999,-6.4919 14.499999,-14.5 0,-8.0081 -6.491869,-14.50013 -14.499999,-14.50013 z"
       style="opacity:0.1;fill:#000000;fill-opacity:1;stroke:none"
       inkscape:connector-curvature="0"
       sodipodi:nodetypes="sssss" />
    <path
       sodipodi:nodetypes="sssss"
       inkscape:connector-curvature="0"
       style="opacity:0.2;fill:#000000;fill-opacity:1;stroke:none"
       d="m 55.666225,999.12197 c -8.008139,0 -14.500001,6.49193 -14.500001,14.50003 0,8.0081 6.491862,14.5 14.500001,14.5 8.00813,0 14.499999,-6.4919 14.499999,-14.5 0,-8.0081 -6.491869,-14.50003 -14.499999,-14.50003 z"
       id="path4408" />
    <path
       style="opacity:0.05;fill:#000000;fill-opacity:1"
       d="m 48.617188,6.8105469 c -1.707932,0 -3.415904,0.6541851 -4.72461,1.9628906 -2.617411,2.6174115 -2.617411,6.8318075 0,9.4492185 l 4.955078,4.955078 c -1.826389,0.352928 -3.604491,0.839413 -5.320312,1.458985 l -29.095703,0 c -3.701579,0 -6.6796879,2.980062 -6.6796879,6.68164 C 7.7519531,35.019938 10.730062,38 14.431641,38 l 11.794921,0 c -1.323923,1.920056 -2.465594,3.973992 -3.398437,6.140625 L 4.4023438,62.564453 c -2.6174111,2.617411 -2.6174111,6.831808 0,9.449219 2.617411,2.617411 6.8318072,2.617411 9.4492182,0 l 6.763672,-6.761719 C 23.866809,81.64225 38.320808,94 55.666016,94 75.404649,94 91.40625,77.998266 91.40625,58.259766 c 0,-14.577925 -8.732593,-27.109427 -21.248047,-32.669922 L 53.341797,8.7734375 C 52.033091,7.464732 50.325119,6.8105469 48.617188,6.8105469 Z m 7.048828,31.3515621 c 4.21158,0 8.138712,1.210247 11.460937,3.294922 1.431442,0.9696 3.333763,2.64474 4.650391,3.955078 3.401584,3.816869 5.486328,8.83266 5.486328,14.347657 0,11.9281 -9.669463,21.597656 -21.597656,21.597656 -11.928202,0 -21.597657,-9.669556 -21.597657,-21.597656 0,-3.992432 1.087944,-7.729026 2.976563,-10.9375 1.084058,-1.771331 2.478704,-3.387337 4.128906,-5.042969 3.833985,-3.479095 8.907058,-5.617188 14.492188,-5.617188 z"
       transform="translate(0,956.36218)"
       id="rect4384"
       inkscape:connector-curvature="0"
       sodipodi:nodetypes="sssccssscccsccsscsssccsssccs" />
    <path
       style="opacity:0.05;fill:#000000;fill-opacity:1"
       d="m 48.617188,6.3105469 c -1.707932,0 -3.415904,0.6541851 -4.72461,1.9628906 -2.617411,2.6174115 -2.617411,6.8318075 0,9.4492185 l 5.820313,5.820313 c -1.138302,0.193779 -2.257157,0.440065 -3.355469,0.740234 l -32.279297,0 c -3.701578,0 -6.6796875,2.980063 -6.6796875,6.681641 0,3.701578 2.9781095,6.68164 6.6796875,6.68164 l 13.021484,0 c -1.054309,1.457664 -1.997477,2.999792 -2.822265,4.613282 L 4.1289062,62.40625 c -2.617411,2.617411 -2.617411,6.831808 0,9.449219 2.6174111,2.617411 6.8318078,2.617411 9.4492188,0 l 7.400391,-7.400391 c 2.924492,16.512136 17.335905,29.056641 34.6875,29.056641 19.462516,0 35.240234,-15.777735 35.240234,-35.240235 0,-13.470404 -7.56134,-25.170789 -18.667969,-31.101562 L 53.341797,8.2734375 C 52.033091,6.964732 50.325119,6.3105469 48.617188,6.3105469 Z m 7.048828,31.3515621 c 4.21158,0 8.138712,1.210247 11.460937,3.294922 1.719622,1.20975 3.253714,2.61272 4.650391,3.955078 3.401584,3.816869 5.486328,8.83266 5.486328,14.347657 0,11.9281 -9.669463,21.597656 -21.597656,21.597656 -11.928202,0 -21.597657,-9.669556 -21.597657,-21.597656 0,-3.926453 1.053613,-7.60471 2.884766,-10.777344 1.126104,-1.757579 2.283899,-3.227951 3.994141,-4.998047 3.858732,-3.601823 9.023695,-5.822266 14.71875,-5.822266 z"
       id="rect4386"
       transform="translate(0,956.36218)"
       inkscape:connector-curvature="0"
       sodipodi:nodetypes="sssccssscccsscsscsssccsssccs" />
    <path
       style="opacity:0.05;fill:#000000;fill-opacity:1"
       d="m 48.617188,5.9101562 c -1.707932,0 -3.415904,0.6541852 -4.72461,1.9628907 -2.617411,2.6174111 -2.617411,6.8318081 0,9.4492191 l 6.595703,6.595703 c -0.187204,0.02815 -0.376244,0.05105 -0.5625,0.08203 l -36.128906,0 c -3.701578,0 -6.6816406,2.980061 -6.6816406,6.681641 0,3.70158 2.9800626,6.68164 6.6816406,6.68164 l 14.119141,0 C 27.305351,38.172941 26.732605,39.0124 26.193359,39.875 L 3.8886719,62.179688 c -2.6174111,2.617399 -2.6174111,6.831818 0,9.449218 2.617411,2.6174 6.8318081,2.6174 9.4492191,0 l 8.001953,-8.001953 C 23.920253,80.264853 38.305062,93 55.666016,93 74.85239,93 90.40625,77.446166 90.40625,58.259766 c 0,-12.190815 -6.284405,-22.907704 -15.785156,-29.107422 L 53.341797,7.8730469 C 52.033091,6.5643414 50.325119,5.9101562 48.617188,5.9101562 Z m 7.048828,31.2519528 c 4.094688,0 7.922973,1.14003 11.185546,3.119141 1.726523,1.150863 3.586744,2.794263 5.072266,4.291016 3.316035,3.796601 5.339844,8.750575 5.339844,14.1875 0,11.9281 -9.669463,21.597656 -21.597656,21.597656 -11.928202,0 -21.597657,-9.669556 -21.597657,-21.597656 0,-3.8958 1.037091,-7.547325 2.841797,-10.703125 1.02892,-1.84227 2.476834,-3.480179 3.826172,-4.878907 3.879576,-3.71808 9.131702,-6.015625 14.929688,-6.015625 z"
       transform="translate(0,956.36218)"
       id="rect4388"
       inkscape:connector-curvature="0"
       sodipodi:nodetypes="sssccsssccssscsscsssccsssccs" />
    <path
       style="opacity:0.05;fill:#000000;fill-opacity:1"
       d="m 48.617188,5.4101562 c -1.707932,0 -3.415904,0.6541852 -4.72461,1.9628907 -2.617411,2.617411 -2.617411,6.8318081 0,9.4492191 l 6.894531,6.894531 c -0.301256,-0.0416 -0.606794,-0.07031 -0.919921,-0.07031 l -36.423829,0 c -3.7015774,0 -6.6816403,2.980061 -6.6816402,6.681641 0,3.70157 2.9800628,6.681641 6.6816402,6.681641 l 15.115235,0 -24.8535159,24.853515 c -2.617411,2.6174 -2.617411,6.831819 0,9.449219 2.6174111,2.6174 6.8318079,2.6174 9.4492189,0 l 8.572265,-8.572266 c 2.191131,16.7971 16.544971,29.771485 33.939454,29.771485 18.910231,0 34.240234,-15.330035 34.240234,-34.240235 0,-9.468064 -3.843493,-18.038057 -10.054688,-24.236328 -0.222151,-0.31705 -0.470291,-0.622635 -0.753906,-0.90625 L 53.341797,7.3730469 C 52.033091,6.0643414 50.325119,5.4101562 48.617188,5.4101562 Z m 7.048828,31.2519528 c 4.094688,0 7.922973,1.14003 11.185546,3.119141 1.758543,1.102833 3.634774,2.842293 5.072266,4.291016 3.316035,3.796601 5.339844,8.750575 5.339844,14.1875 0,11.9281 -9.669463,21.597656 -21.597656,21.597656 -11.928202,0 -21.597657,-9.669556 -21.597657,-21.597656 0,-3.8958 1.037091,-7.547325 2.841797,-10.703125 1.145981,-1.874984 2.308857,-3.187273 3.650391,-4.71875 3.895163,-3.81567 9.221944,-6.175782 15.105469,-6.175782 z"
       transform="translate(0,956.36218)"
       id="rect4390"
       inkscape:connector-curvature="0"
       sodipodi:nodetypes="ssscsssscssscsscssssccsssccs" />
    <path
       style="opacity:0.1;fill:#000000;fill-opacity:1"
       d="m 48.617188,4.9101562 c -1.707932,10e-8 -3.415904,0.6541852 -4.72461,1.9628907 -2.617411,2.617411 -2.617411,6.8318081 0,9.4492191 l 7.175781,7.175781 c -0.500692,-0.120572 -1.015806,-0.205078 -1.554687,-0.205078 l -36.423828,0 c -3.7015786,0 -6.6816409,2.980062 -6.6816409,6.68164 0,3.701579 2.9800622,6.681641 6.6816409,6.681641 l 15.367187,0 -24.9121091,24.912109 c -2.61741108,2.617411 -2.61741108,6.831808 0,9.449219 2.617411,2.617411 6.8318081,2.617411 9.4492191,0 l 9.128906,-9.128906 C 23.933992,78.815432 38.25845,92 55.666016,92 74.300174,92 89.40625,76.893866 89.40625,58.259766 c 0,-8.600806 -3.223635,-16.445215 -8.521484,-22.404297 -0.272047,-1.18005 -0.864151,-2.303604 -1.78711,-3.226563 L 53.341797,6.8730469 C 52.033091,5.5643414 50.325119,4.9101562 48.617188,4.9101562 Z m 7.048828,31.2519528 c 4.094688,0 7.922973,1.140023 11.185546,3.119141 1.70802,1.120449 3.55347,2.612971 5.072266,4.291016 3.316035,3.796612 5.339844,8.750575 5.339844,14.1875 0,11.9281 -9.669463,21.597656 -21.597656,21.597656 -11.928202,0 -21.597657,-9.669556 -21.597657,-21.597656 0,-3.852334 1.013774,-7.466147 2.78125,-10.597657 1.007464,-1.680441 2.49625,-3.502187 3.582032,-4.707031 3.905571,-3.887715 9.288185,-6.292969 15.234375,-6.292969 z"
       transform="translate(0,956.36218)"
       id="rect4392"
       inkscape:connector-curvature="0"
       sodipodi:nodetypes="ssscsssscssscsscssssccsssccs" />
    <path
       style="opacity:0.2;fill:#000000;fill-opacity:1"
       d="m 48.617188,4.4101562 c -1.707932,0 -3.415904,0.6541852 -4.72461,1.9628907 -2.617411,2.617411 -2.617411,6.8318081 0,9.4492191 l 7.283203,7.283203 C 50.692475,22.99506 50.191545,22.931641 49.673828,22.931641 l -36.425781,0 c -3.7015783,0 -6.6816408,2.980062 -6.6816408,6.68164 0,3.701578 2.9800625,6.681641 6.6816408,6.681641 l 15.056641,0 -24.9042974,24.904297 c -2.61741099,2.617411 -2.61741099,6.831806 0,9.449219 2.6174111,2.617411 6.8318074,2.617411 9.4492184,0 l 8.88086,-8.88086 C 23.938669,78.545798 38.284949,91.5 55.666016,91.5 74.576248,91.5 89.90625,76.169966 89.90625,57.259766 c 0,-9.482505 -3.856126,-18.063222 -10.083984,-24.263672 -0.215309,-0.302575 -0.452883,-0.593508 -0.72461,-0.865235 L 53.341797,6.3730469 C 52.033091,5.0643414 50.325119,4.4101563 48.617188,4.4101562 Z m 7.048828,31.2519528 c 4.09313,0 7.919878,1.139462 11.18164,3.117188 1.971097,0.847933 3.70691,2.536968 5.076172,4.292969 3.316035,3.796612 5.339844,8.750575 5.339844,14.1875 0,11.9281 -9.669463,21.597656 -21.597656,21.597656 -11.928202,0 -21.597657,-9.669556 -21.597657,-21.597656 0,-3.866102 1.021548,-7.491643 2.800782,-10.63086 0.790931,-1.667462 2.206363,-3.264691 3.40625,-4.509765 3.91783,-3.982168 9.362866,-6.457032 15.390625,-6.457032 z"
       transform="translate(0,956.36218)"
       id="rect4394"
       inkscape:connector-curvature="0"
       sodipodi:nodetypes="ssscsssscssscsscccssccsssccs" />
    <path
       style="opacity:1;fill:url(#linearGradient4276);fill-opacity:1;stroke:none"
       d="M 48.617188 5 C 47.059733 5 45.501996 5.5976136 44.308594 6.7910156 C 41.92179 9.1778197 41.92179 13.019446 44.308594 15.40625 L 52.421875 23.519531 L 13.253906 23.519531 C 9.8784556 23.519531 7.1601562 26.237831 7.1601562 29.613281 C 7.1601562 32.988732 9.8784556 35.705078 13.253906 35.705078 L 29.666016 35.705078 L 3.7910156 61.580078 C 1.4042116 63.966882 1.4042116 67.810462 3.7910156 70.197266 C 6.1778197 72.58407 10.019446 72.58407 12.40625 70.197266 L 22.085938 60.517578 C 23.725597 77.62236 38.131444 91 55.666016 91 C 74.300174 91 89.40625 75.893866 89.40625 57.259766 C 89.40625 47.701177 85.424017 39.078617 79.037109 32.939453 C 78.92409 32.805308 78.808049 32.673284 78.681641 32.546875 L 52.925781 6.7910156 C 51.732379 5.5976136 50.174642 5 48.617188 5 z M 55.726562 35.664062 C 67.626742 35.696917 77.263672 45.351878 77.263672 57.259766 C 77.263672 69.187866 67.594209 78.857422 55.666016 78.857422 C 43.737814 78.857422 34.068359 69.187866 34.068359 57.259766 C 34.068359 52.186576 35.82975 47.531593 38.757812 43.845703 L 41.949219 40.654297 C 42.025798 40.577718 42.092397 40.495497 42.164062 40.416016 C 45.543042 37.703967 49.749246 35.981894 54.349609 35.705078 L 55.033203 35.705078 C 55.267957 35.705078 55.498867 35.689657 55.726562 35.664062 z "
       transform="translate(0,956.36218)"
       id="path4231" />
    <path
       id="path4243"
       d="m 55.666226,999.62199 c -7.731997,0 -14.000002,6.26811 -14.000002,14.00001 0,7.732 6.268005,14 14.000002,14 7.731986,0 13.999998,-6.268 13.999998,-14 0,-7.7319 -6.268012,-14.00001 -13.999998,-14.00001 z"
       style="opacity:1;fill:#0094da;fill-opacity:1;stroke:none"
       inkscape:connector-curvature="0"
       sodipodi:nodetypes="sssss" />
    <path
       style="opacity:0.3;fill:#ffffff;fill-opacity:1;stroke:none"
       d="M 55.666016 34.662109 C 43.737814 34.662109 34.068359 44.331566 34.068359 56.259766 C 34.068359 56.427467 34.076276 56.592978 34.080078 56.759766 C 34.346704 45.063333 43.905516 35.662109 55.666016 35.662109 C 67.426506 35.662109 76.985327 45.063333 77.251953 56.759766 C 77.255755 56.592978 77.263672 56.427467 77.263672 56.259766 C 77.263672 44.331566 67.594209 34.662109 55.666016 34.662109 z M 21.9375 56.759766 C 21.935062 56.926867 21.925781 57.092084 21.925781 57.259766 C 21.925781 75.893866 37.031856 91 55.666016 91 C 74.300174 91 89.40625 75.893866 89.40625 57.259766 C 89.40625 57.092084 89.396969 56.926867 89.394531 56.759766 C 89.12604 75.162335 74.132493 90 55.666016 90 C 37.199537 90 22.205991 75.162335 21.9375 56.759766 z "
       transform="translate(0,956.36218)"
       id="path4334" />
    <path
       style="opacity:0.3;fill:#ffffff;fill-opacity:1;stroke:none"
       d="m 41.691674,1013.1209 c -0.006,0.1677 -0.02545,0.3319 -0.02545,0.5011 0,7.7316 6.268423,14 14.000001,14 7.731567,0 13.999999,-6.2684 13.999999,-14 0,-0.1692 -0.0195,-0.3334 -0.02545,-0.5011 -0.266118,7.4973 -6.412211,13.4988 -13.974549,13.4988 -7.56235,0 -13.708433,-6.0015 -13.974551,-13.4988 z"
       id="path4343"
       inkscape:connector-curvature="0" />
  </g>
</svg>
