<?xml version="1.0" encoding="UTF-8" standalone="no"?>
<!-- Created with Inkscape (http://www.inkscape.org/) -->

<svg
   xmlns:dc="http://purl.org/dc/elements/1.1/"
   xmlns:cc="http://creativecommons.org/ns#"
   xmlns:rdf="http://www.w3.org/1999/02/22-rdf-syntax-ns#"
   xmlns:svg="http://www.w3.org/2000/svg"
   xmlns="http://www.w3.org/2000/svg"
   xmlns:xlink="http://www.w3.org/1999/xlink"
   xmlns:sodipodi="http://sodipodi.sourceforge.net/DTD/sodipodi-0.dtd"
   xmlns:inkscape="http://www.inkscape.org/namespaces/inkscape"
   width="96"
   height="96"
   id="svg2"
   version="1.1"
   inkscape:version="0.48.4 r9939"
   sodipodi:docname="preferences-system-privacy.svg">
  <defs
     id="defs4">
    <linearGradient
       id="linearGradient3162"
       inkscape:collect="always">
      <stop
         id="stop3164"
         offset="0"
         style="stop-color:#b9d0e9;stop-opacity:1" />
      <stop
         id="stop3166"
         offset="1"
         style="stop-color:#e9f1f9;stop-opacity:1" />
    </linearGradient>
    <linearGradient
       inkscape:collect="always"
       id="linearGradient3143">
      <stop
         style="stop-color:#a3c6e9;stop-opacity:1"
         offset="0"
         id="stop3145" />
      <stop
         style="stop-color:#d7e7f7;stop-opacity:1"
         offset="1"
         id="stop3147" />
    </linearGradient>
    <linearGradient
       inkscape:collect="always"
       id="linearGradient3112">
      <stop
         style="stop-color:#c0f5a5;stop-opacity:1"
         offset="0"
         id="stop3114" />
      <stop
         style="stop-color:#f7f7f9;stop-opacity:1"
         offset="1"
         id="stop3116" />
    </linearGradient>
    <linearGradient
       inkscape:collect="always"
       id="linearGradient3121">
      <stop
         style="stop-color:#000000;stop-opacity:1;"
         offset="0"
         id="stop3124" />
      <stop
         style="stop-color:#3e383e;stop-opacity:1"
         offset="1"
         id="stop3126" />
    </linearGradient>
    <linearGradient
       inkscape:collect="always"
       id="linearGradient3104">
      <stop
         style="stop-color:#ff9a00;stop-opacity:1"
         offset="0"
         id="stop3106" />
      <stop
         style="stop-color:#fdca00;stop-opacity:1"
         offset="1"
         id="stop3108" />
    </linearGradient>
    <linearGradient
       inkscape:collect="always"
       id="linearGradient4330">
      <stop
         style="stop-color:#adcff7;stop-opacity:1"
         offset="0"
         id="stop4332" />
      <stop
         style="stop-color:#efefff;stop-opacity:1"
         offset="1"
         id="stop4334" />
    </linearGradient>
    <linearGradient
       inkscape:collect="always"
       id="linearGradient3325">
      <stop
         style="stop-color:#c6bede;stop-opacity:1"
         offset="0"
         id="stop3327" />
      <stop
         style="stop-color:#f7e7ff;stop-opacity:1"
         offset="1"
         id="stop3329" />
    </linearGradient>
    <linearGradient
       inkscape:collect="always"
       id="linearGradient3315">
      <stop
         style="stop-color:#a69fc6;stop-opacity:1"
         offset="0"
         id="stop3317" />
      <stop
         style="stop-color:#fffbff;stop-opacity:1"
         offset="1"
         id="stop3319" />
    </linearGradient>
    <linearGradient
       inkscape:collect="always"
       id="linearGradient3307">
      <stop
         style="stop-color:#5228ad;stop-opacity:1"
         offset="0"
         id="stop3309" />
      <stop
         id="stop3341"
         offset="0.6955229"
         style="stop-color:#4f28a7;stop-opacity:1;" />
      <stop
         id="stop3339"
         offset="0.84899038"
         style="stop-color:#4b289f;stop-opacity:1;" />
      <stop
         style="stop-color:#4a289c;stop-opacity:1"
         offset="1"
         id="stop3311" />
    </linearGradient>
    <linearGradient
       inkscape:collect="always"
       id="linearGradient3153">
      <stop
         style="stop-color:#ffffff;stop-opacity:1"
         offset="0"
         id="stop3155" />
      <stop
         id="stop3163"
         offset="0.71368068"
         style="stop-color:#ffffff;stop-opacity:1" />
      <stop
         style="stop-color:#000000;stop-opacity:1"
         offset="1"
         id="stop3157" />
    </linearGradient>
    <linearGradient
       id="linearGradient3090"
       inkscape:collect="always">
      <stop
         id="stop3092"
         offset="0"
         style="stop-color:#000000;stop-opacity:1" />
      <stop
         id="stop3094"
         offset="1"
         style="stop-color:#211821;stop-opacity:1" />
    </linearGradient>
    <linearGradient
       inkscape:collect="always"
       id="linearGradient3083">
      <stop
         style="stop-color:#1c6cbb;stop-opacity:1"
         offset="0"
         id="stop3086" />
      <stop
         style="stop-color:#3691e9;stop-opacity:1"
         offset="1"
         id="stop3088" />
    </linearGradient>
    <inkscape:perspective
       sodipodi:type="inkscape:persp3d"
       inkscape:vp_x="0 : 48 : 1"
       inkscape:vp_y="0 : 1000 : 0"
       inkscape:vp_z="96 : 48 : 1"
       inkscape:persp3d-origin="48 : 32 : 1"
       id="perspective3054" />
    <linearGradient
       id="linearGradient4357"
       inkscape:collect="always">
      <stop
         id="stop4359"
         offset="0"
         style="stop-color:#ded3d6;stop-opacity:1" />
      <stop
         id="stop4361"
         offset="1"
         style="stop-color:#f7ebef;stop-opacity:1" />
    </linearGradient>
    <linearGradient
       inkscape:collect="always"
       id="linearGradient3558">
      <stop
         style="stop-color:#ded3d6;stop-opacity:1"
         offset="0"
         id="stop3560" />
      <stop
         style="stop-color:#efebef;stop-opacity:1"
         offset="1"
         id="stop3562" />
    </linearGradient>
    <linearGradient
       id="linearGradient3076"
       inkscape:collect="always">
      <stop
         id="stop3078"
         offset="0"
         style="stop-color:#ffe7f7;stop-opacity:1" />
      <stop
         id="stop3080"
         offset="1"
         style="stop-color:#ffc3ef;stop-opacity:1" />
    </linearGradient>
    <linearGradient
       id="linearGradient3070"
       inkscape:collect="always">
      <stop
         id="stop3072"
         offset="0"
         style="stop-color:#943410;stop-opacity:1" />
      <stop
         id="stop3074"
         offset="1"
         style="stop-color:#dc7952;stop-opacity:1" />
    </linearGradient>
    <linearGradient
       inkscape:collect="always"
       id="linearGradient3059">
      <stop
         style="stop-color:#a53810;stop-opacity:1"
         offset="0"
         id="stop3061" />
      <stop
         style="stop-color:#e75911;stop-opacity:1"
         offset="1"
         id="stop3064" />
    </linearGradient>
    <linearGradient
       inkscape:collect="always"
       id="linearGradient3048">
      <stop
         style="stop-color:#c16d16;stop-opacity:1"
         offset="0"
         id="stop3050" />
      <stop
         style="stop-color:#ff8e31;stop-opacity:1"
         offset="1"
         id="stop3052" />
    </linearGradient>
    <linearGradient
       inkscape:collect="always"
       id="linearGradient3119">
      <stop
         style="stop-color:#92948f;stop-opacity:0"
         offset="0"
         id="stop3121" />
      <stop
         id="stop3123"
         offset="0.4283945"
         style="stop-color:#9b9e98;stop-opacity:1" />
      <stop
         style="stop-color:#939690;stop-opacity:0"
         offset="1"
         id="stop3125" />
    </linearGradient>
    <linearGradient
       id="linearGradient3073"
       inkscape:collect="always">
      <stop
         id="stop3075"
         offset="0"
         style="stop-color:#ffffff;stop-opacity:0" />
      <stop
         style="stop-color:#ffffff;stop-opacity:1"
         offset="0.45872402"
         id="stop3085" />
      <stop
         id="stop3083"
         offset="1"
         style="stop-color:#ffffff;stop-opacity:0" />
    </linearGradient>
    <linearGradient
       inkscape:collect="always"
       id="linearGradient3047">
      <stop
         style="stop-color:#000000;stop-opacity:1"
         offset="0"
         id="stop3049" />
      <stop
         id="stop3055"
         offset="0.06123874"
         style="stop-color:#1a1a1a;stop-opacity:1" />
      <stop
         style="stop-color:#333333;stop-opacity:1"
         offset="0.16480456"
         id="stop3057" />
      <stop
         id="stop3059"
         offset="0.55385184"
         style="stop-color:#4d4d4d;stop-opacity:1" />
      <stop
         style="stop-color:#999999;stop-opacity:1"
         offset="1"
         id="stop3051" />
    </linearGradient>
    <linearGradient
       id="linearGradient3041"
       inkscape:collect="always">
      <stop
         id="stop3043"
         offset="0"
         style="stop-color:#1a1a1a;stop-opacity:1" />
      <stop
         id="stop3045"
         offset="1"
         style="stop-color:#808080;stop-opacity:1" />
    </linearGradient>
    <linearGradient
       inkscape:collect="always"
       id="linearGradient3029">
      <stop
         style="stop-color:#333333;stop-opacity:1"
         offset="0"
         id="stop3031" />
      <stop
         style="stop-color:#e0e0dd;stop-opacity:0;"
         offset="1"
         id="stop3033" />
    </linearGradient>
    <linearGradient
       inkscape:collect="always"
       xlink:href="#linearGradient3029"
       id="linearGradient3035"
       x1="35.355339"
       y1="1030.3622"
       x2="35.355339"
       y2="975.33282"
       gradientUnits="userSpaceOnUse"
       gradientTransform="matrix(1.1638085,0,0,1.1638085,-7.862809,-164.23642)" />
    <linearGradient
       inkscape:collect="always"
       xlink:href="#linearGradient3041"
       id="linearGradient3039"
       gradientUnits="userSpaceOnUse"
       x1="35.355339"
       y1="1030.3622"
       x2="35.355339"
       y2="975.33282"
       gradientTransform="matrix(1.1218695,0,0,1.1218695,-5.8497348,-122.18782)" />
    <linearGradient
       inkscape:collect="always"
       xlink:href="#linearGradient3047"
       id="linearGradient3053"
       x1="40"
       y1="1043.4336"
       x2="39.285713"
       y2="972.33325"
       gradientUnits="userSpaceOnUse" />
    <linearGradient
       inkscape:collect="always"
       xlink:href="#linearGradient3073"
       id="linearGradient3113"
       gradientUnits="userSpaceOnUse"
       gradientTransform="translate(0,-956.36218)"
       x1="14.869445"
       y1="978.90387"
       x2="24.52651"
       y2="969.24683" />
    <linearGradient
       inkscape:collect="always"
       xlink:href="#linearGradient3073"
       id="linearGradient3115"
       gradientUnits="userSpaceOnUse"
       gradientTransform="matrix(-1,0,0,1,96,-956.36218)"
       x1="15.152279"
       y1="978.62103"
       x2="26.263966"
       y2="967.50934" />
    <linearGradient
       inkscape:collect="always"
       xlink:href="#linearGradient3119"
       id="linearGradient3117"
       gradientUnits="userSpaceOnUse"
       gradientTransform="translate(0,-956.36218)"
       x1="13.131983"
       y1="980.64136"
       x2="25.549681"
       y2="967.86646" />
    <linearGradient
       inkscape:collect="always"
       xlink:href="#linearGradient3119"
       id="linearGradient3129"
       gradientUnits="userSpaceOnUse"
       gradientTransform="matrix(-1,0,0,1,96,0)"
       x1="13.131983"
       y1="980.64136"
       x2="25.549681"
       y2="967.86646" />
    <linearGradient
       inkscape:collect="always"
       xlink:href="#linearGradient3048"
       id="linearGradient3054"
       x1="49.267925"
       y1="996.57349"
       x2="49.267925"
       y2="1045.8627"
       gradientUnits="userSpaceOnUse" />
    <linearGradient
       inkscape:collect="always"
       xlink:href="#linearGradient3048"
       id="linearGradient3058"
       x1="115.80308"
       y1="985.47241"
       x2="115.80308"
       y2="1033.5543"
       gradientUnits="userSpaceOnUse" />
    <linearGradient
       inkscape:collect="always"
       xlink:href="#linearGradient3076"
       id="linearGradient3055"
       gradientUnits="userSpaceOnUse"
       x1="115.80308"
       y1="985.47241"
       x2="115.80308"
       y2="1025.3639"
       gradientTransform="matrix(1.4144782,0,0,1.4144782,-119.78686,-419.05496)" />
    <linearGradient
       inkscape:collect="always"
       xlink:href="#linearGradient3059"
       id="linearGradient3066"
       x1="22.54203"
       y1="1043.3966"
       x2="22.54203"
       y2="964.45898"
       gradientUnits="userSpaceOnUse" />
    <linearGradient
       inkscape:collect="always"
       xlink:href="#linearGradient3070"
       id="linearGradient3068"
       x1="53.796227"
       y1="1046.0226"
       x2="53.796227"
       y2="962.97437"
       gradientUnits="userSpaceOnUse" />
    <linearGradient
       inkscape:collect="always"
       xlink:href="#linearGradient3076"
       id="linearGradient3086"
       gradientUnits="userSpaceOnUse"
       gradientTransform="matrix(1.4144782,0,0,1.4144782,-119.78686,-417.12598)"
       x1="115.80308"
       y1="985.47241"
       x2="115.80308"
       y2="1025.3639" />
    <linearGradient
       inkscape:collect="always"
       xlink:href="#linearGradient3076"
       id="linearGradient3091"
       gradientUnits="userSpaceOnUse"
       gradientTransform="matrix(1.4144782,0,0,1.4144782,-119.78686,-418.126)"
       x1="115.80308"
       y1="985.47241"
       x2="115.80308"
       y2="1025.3639" />
    <linearGradient
       inkscape:collect="always"
       xlink:href="#linearGradient3076"
       id="linearGradient3093"
       gradientUnits="userSpaceOnUse"
       gradientTransform="matrix(1.4144782,0,0,1.4144782,-119.78686,-1375.4171)"
       x1="115.80308"
       y1="985.47241"
       x2="115.80308"
       y2="1025.3639" />
    <linearGradient
       inkscape:collect="always"
       xlink:href="#linearGradient3558"
       id="linearGradient3564"
       x1="93.242035"
       y1="1027.2615"
       x2="93.242035"
       y2="980.7262"
       gradientUnits="userSpaceOnUse" />
    <linearGradient
       inkscape:collect="always"
       xlink:href="#linearGradient3558"
       id="linearGradient4350"
       gradientUnits="userSpaceOnUse"
       x1="93.242035"
       y1="1027.2615"
       x2="93.242035"
       y2="980.7262" />
    <linearGradient
       inkscape:collect="always"
       xlink:href="#linearGradient4357"
       id="linearGradient4354"
       gradientUnits="userSpaceOnUse"
       x1="93.242035"
       y1="1027.2615"
       x2="93.242035"
       y2="980.7262"
       gradientTransform="translate(-56.571856,0)" />
    <linearGradient
       inkscape:collect="always"
       xlink:href="#linearGradient4357"
       id="linearGradient3067"
       gradientUnits="userSpaceOnUse"
       gradientTransform="translate(106.08939,0)"
       x1="93.242035"
       y1="1027.2615"
       x2="93.242035"
       y2="980.7262" />
    <linearGradient
       inkscape:collect="always"
       xlink:href="#linearGradient3090"
       id="linearGradient3071"
       gradientUnits="userSpaceOnUse"
       x1="22.54203"
       y1="1043.3966"
       x2="22.54203"
       y2="964.45898" />
    <linearGradient
       inkscape:collect="always"
       xlink:href="#linearGradient3083"
       id="linearGradient3074"
       gradientUnits="userSpaceOnUse"
       x1="53.796227"
       y1="1046.2493"
       x2="53.796227"
       y2="962.97437" />
    <radialGradient
       inkscape:collect="always"
       xlink:href="#linearGradient3153"
       id="radialGradient3159"
       cx="54.880909"
       cy="34.52375"
       fx="54.880909"
       fy="34.52375"
       r="22.501422"
       gradientTransform="matrix(1.6150702e-6,-1.2742782,1.2647002,0,4.4956971,76.124529)"
       gradientUnits="userSpaceOnUse" />
    <linearGradient
       inkscape:collect="always"
       xlink:href="#linearGradient3315"
       id="linearGradient4282"
       gradientUnits="userSpaceOnUse"
       x1="-103.53697"
       y1="34.18985"
       x2="-103.53697"
       y2="76.055702" />
    <radialGradient
       inkscape:collect="always"
       xlink:href="#linearGradient3307"
       id="radialGradient4284"
       gradientUnits="userSpaceOnUse"
       gradientTransform="matrix(0.8933484,-0.8933484,0.93715766,0.93715776,-63.178404,-85.969131)"
       cx="-106.66165"
       cy="64.455704"
       fx="-106.66165"
       fy="64.455704"
       r="21.375" />
    <linearGradient
       inkscape:collect="always"
       xlink:href="#linearGradient3325"
       id="linearGradient4289"
       gradientUnits="userSpaceOnUse"
       gradientTransform="matrix(1.0625,0,0,1.0625,332.05186,944.84632)"
       x1="-109.75"
       y1="81"
       x2="-109.75"
       y2="30.747408" />
    <linearGradient
       inkscape:collect="always"
       xlink:href="#linearGradient4330"
       id="linearGradient4336"
       x1="67.5"
       y1="1027.4835"
       x2="67.5"
       y2="980.20618"
       gradientUnits="userSpaceOnUse" />
    <linearGradient
       inkscape:collect="always"
       xlink:href="#linearGradient3104"
       id="linearGradient3102"
       gradientUnits="userSpaceOnUse"
       x1="22.54203"
       y1="1044.2549"
       x2="22.54203"
       y2="964.45898"
       gradientTransform="matrix(0.92682926,0,0,0.92682926,3.5121956,73.489888)" />
    <linearGradient
       inkscape:collect="always"
       xlink:href="#linearGradient3121"
       id="linearGradient3136"
       gradientUnits="userSpaceOnUse"
       gradientTransform="translate(0.95588675,955.84397)"
       x1="66"
       y1="51"
       x2="42"
       y2="32.5" />
    <linearGradient
       inkscape:collect="always"
       xlink:href="#linearGradient3112"
       id="linearGradient3118"
       x1="29.5"
       y1="1028.3849"
       x2="29.5"
       y2="978.69403"
       gradientUnits="userSpaceOnUse"
       gradientTransform="translate(94.752309,0)" />
    <linearGradient
       inkscape:collect="always"
       xlink:href="#linearGradient3143"
       id="linearGradient3149"
       x1="49"
       y1="1027.3622"
       x2="49"
       y2="978.86218"
       gradientUnits="userSpaceOnUse"
       gradientTransform="translate(0,-956.36218)" />
    <linearGradient
       inkscape:collect="always"
       xlink:href="#linearGradient3162"
       id="linearGradient3160"
       x1="35.623322"
       y1="70.352592"
       x2="35.623322"
       y2="26.206047"
       gradientUnits="userSpaceOnUse" />
    <linearGradient
       inkscape:collect="always"
       xlink:href="#linearGradient3143"
       id="linearGradient3168"
       gradientUnits="userSpaceOnUse"
       gradientTransform="translate(26.75,26.75)"
       x1="49"
       y1="1027.3622"
       x2="49"
       y2="978.86218" />
    <linearGradient
       inkscape:collect="always"
       xlink:href="#linearGradient3143"
       id="linearGradient3205"
       gradientUnits="userSpaceOnUse"
       gradientTransform="translate(0,-956.36218)"
       x1="49"
       y1="1027.3622"
       x2="49"
       y2="978.86218" />
    <linearGradient
       inkscape:collect="always"
       xlink:href="#linearGradient3162"
       id="linearGradient3207"
       gradientUnits="userSpaceOnUse"
       x1="35.623322"
       y1="70.352592"
       x2="35.623322"
       y2="26.206047" />
    <linearGradient
       inkscape:collect="always"
       xlink:href="#linearGradient3162"
       id="linearGradient3211"
       gradientUnits="userSpaceOnUse"
       x1="35.623322"
       y1="70.352592"
       x2="35.623322"
       y2="26.206047"
       gradientTransform="matrix(0.9999868,0,0,0.9999868,3.1609358e-4,956.36315)" />
    <linearGradient
       inkscape:collect="always"
       xlink:href="#linearGradient3143"
       id="linearGradient3214"
       gradientUnits="userSpaceOnUse"
       x1="49"
       y1="1027.3622"
       x2="49"
       y2="978.86218"
       gradientTransform="matrix(0.99997825,0,0,0.99997825,5.2068045e-4,0.02240258)" />
    <linearGradient
       inkscape:collect="always"
       xlink:href="#linearGradient3143"
       id="linearGradient3221"
       gradientUnits="userSpaceOnUse"
       gradientTransform="matrix(0.99997825,0,0,0.99997825,5.2068045e-4,0.02240258)"
       x1="49"
       y1="1027.3622"
       x2="49"
       y2="978.86218" />
    <linearGradient
       inkscape:collect="always"
       xlink:href="#linearGradient3162"
       id="linearGradient3223"
       gradientUnits="userSpaceOnUse"
       gradientTransform="matrix(0.9999868,0,0,0.9999868,3.1609358e-4,956.36315)"
       x1="35.623322"
       y1="70.352592"
       x2="35.623322"
       y2="26.206047" />
  </defs>
  <sodipodi:namedview
     id="base"
     pagecolor="#ffffff"
     bordercolor="#666666"
     borderopacity="1.0"
     inkscape:pageopacity="0.0"
     inkscape:pageshadow="2"
     inkscape:zoom="2"
     inkscape:cx="30.191185"
     inkscape:cy="95.14095"
     inkscape:document-units="px"
     inkscape:current-layer="layer1"
     showgrid="false"
     inkscape:window-width="1366"
     inkscape:window-height="714"
     inkscape:window-x="0"
     inkscape:window-y="27"
     inkscape:window-maximized="1"
     showguides="true"
     inkscape:guide-bbox="true" />
  <metadata
     id="metadata7">
    <rdf:RDF>
      <cc:Work
         rdf:about="">
        <dc:format>image/svg+xml</dc:format>
        <dc:type
           rdf:resource="http://purl.org/dc/dcmitype/StillImage" />
        <dc:title></dc:title>
      </cc:Work>
    </rdf:RDF>
  </metadata>
  <g
     inkscape:label="Layer 1"
     inkscape:groupmode="layer"
     id="layer1"
     transform="translate(0,-956.36218)">
    <rect
       style="opacity:0.05;fill:#000000;fill-opacity:1;stroke:none"
       id="rect3826"
       width="89"
       height="89"
       x="3.5"
       y="960.86218"
       rx="10.595235"
       ry="10.595235" />
    <g
       id="g3041">
      <rect
         style="opacity:0.05;fill:#000000;fill-opacity:1;stroke:none"
         id="rect3824"
         width="88"
         height="88"
         x="4"
         y="961.36218"
         rx="10.476188"
         ry="10.476188" />
      <rect
         ry="10.357141"
         rx="10.357141"
         y="961.86218"
         x="4.5"
         height="87"
         width="87"
         id="rect3822"
         style="opacity:0.05;fill:#000000;fill-opacity:1;stroke:none" />
      <rect
         style="opacity:0.1;fill:#000000;fill-opacity:1;stroke:none"
         id="rect3820"
         width="86"
         height="86"
         x="5"
         y="962.36218"
         rx="10.238094"
         ry="10.238094" />
      <rect
         ry="10.119047"
         rx="10.119047"
         y="962.86218"
         x="5.5"
         height="85"
         width="85"
         id="rect3818"
         style="opacity:0.1;fill:#000000;fill-opacity:1;stroke:none" />
      <rect
         style="opacity:0.3;fill:#000000;fill-opacity:1;stroke:none"
         id="rect3131"
         width="84"
         height="84"
         x="6"
         y="963.36218"
         rx="10"
         ry="10" />
    </g>
    <rect
       ry="10"
       rx="10"
       y="962.36218"
       x="6"
       height="84"
       width="84"
       id="rect3036"
       style="fill:url(#linearGradient3074);fill-opacity:1;stroke:none" />
    <g
       id="g3187"
       transform="translate(-0.78125,0.43695778)">
      <path
         inkscape:connector-curvature="0"
         style="opacity:0.05;fill:#000000;fill-opacity:1;stroke:none"
         d="m 48.46875,982.92494 c -8.904217,0.16005 -24.4375,6.3542 -24.4375,10.46875 l -0.09375,15.56251 c 0,10.7121 17.64005,25.7233 24.71875,25.9688 0.01039,5e-4 0.02074,0 0.03125,0 l 0.15625,0 c 0.0092,0 0.02143,3e-4 0.03125,0 7.0787,-0.2455 24.75,-15.2567 24.75,-25.9688 l -0.15625,-15.56251 c 0,-4.11565 -15.50321,-10.31189 -24.40625,-10.46875 -0.114779,-0.002 -0.262426,0 -0.375,0 -0.07506,0 -0.144548,-10e-4 -0.21875,0 z m 0.40625,10.34375 c 4.143087,0 7.5,3.38816 7.5,7.53121 0,3.1358 -1.9244,5.7854 -4.65625,6.9063 l 2.3125,16.75 -10.34375,0 L 46,1007.675 c -2.709091,-1.1314 -4.625,-3.7557 -4.625,-6.8751 0,-4.14305 3.356913,-7.53121 7.5,-7.53121 z"
         id="path3181" />
      <path
         id="path3179"
         d="m 48.46875,981.92468 c -8.904217,0.16005 -24.4375,6.3542 -24.4375,10.46875 l -0.09375,15.56247 c 0,10.7121 17.64005,25.7233 24.71875,25.9688 0.01039,5e-4 0.02074,0 0.03125,0 l 0.15625,0 c 0.0092,0 0.02143,3e-4 0.03125,0 7.0787,-0.2455 24.75,-15.2567 24.75,-25.9688 l -0.15625,-15.56247 c 0,-4.11565 -15.50321,-10.31189 -24.40625,-10.46875 -0.114779,-0.002 -0.262426,0 -0.375,0 -0.07506,0 -0.144548,-10e-4 -0.21875,0 z m 0.40625,10.34375 c 4.143087,0 7.5,3.38816 7.5,7.53125 0,3.13572 -1.9244,5.78532 -4.65625,6.90622 l 2.3125,16.75 -10.34375,0 L 46,1006.6747 c -2.709091,-1.1314 -4.625,-3.7557 -4.625,-6.87502 0,-4.14309 3.356913,-7.53125 7.5,-7.53125 z"
         style="opacity:0.05;fill:#000000;fill-opacity:1;stroke:none"
         inkscape:connector-curvature="0" />
      <path
         id="path3183"
         d="m 48.46875,980.92494 c -8.904217,0.16005 -24.4375,6.3542 -24.4375,10.46875 l -0.09375,15.56251 c 0,10.7121 17.64005,25.7233 24.71875,25.9688 0.01039,5e-4 0.02074,0 0.03125,0 l 0.15625,0 c 0.0092,0 0.02143,3e-4 0.03125,0 7.0787,-0.2455 24.75,-15.2567 24.75,-25.9688 l -0.15625,-15.56251 c 0,-4.11565 -15.50321,-10.31189 -24.40625,-10.46875 -0.114779,-0.002 -0.262426,0 -0.375,0 -0.07506,0 -0.144548,-10e-4 -0.21875,0 z m 0.40625,10.34375 c 4.143087,0 7.5,3.38816 7.5,7.53121 0,3.1358 -1.9244,5.7854 -4.65625,6.9063 l 2.3125,16.75 -10.34375,0 L 46,1005.675 c -2.709091,-1.1314 -4.625,-3.7557 -4.625,-6.8751 0,-4.14305 3.356913,-7.53121 7.5,-7.53121 z"
         style="opacity:0.05;fill:#000000;fill-opacity:1;stroke:none"
         inkscape:connector-curvature="0" />
      <path
         inkscape:connector-curvature="0"
         style="opacity:0.05;fill:#000000;fill-opacity:1;stroke:none"
         d="m 48.46875,979.92468 c -8.904217,0.16005 -24.4375,6.3542 -24.4375,10.46875 l -0.09375,15.56247 c 0,10.7121 17.64005,25.7233 24.71875,25.9688 0.01039,5e-4 0.02074,0 0.03125,0 l 0.15625,0 c 0.0092,0 0.02143,3e-4 0.03125,0 7.0787,-0.2455 24.75,-15.2567 24.75,-25.9688 l -0.15625,-15.56247 c 0,-4.11565 -15.50321,-10.31189 -24.40625,-10.46875 -0.114779,-0.002 -0.262426,0 -0.375,0 -0.07506,0 -0.144548,-10e-4 -0.21875,0 z m 0.40625,10.34375 c 4.143087,0 7.5,3.38816 7.5,7.53125 0,3.13572 -1.9244,5.78532 -4.65625,6.90622 l 2.3125,16.75 -10.34375,0 L 46,1004.6747 c -2.709091,-1.1314 -4.625,-3.7557 -4.625,-6.87502 0,-4.14309 3.356913,-7.53125 7.5,-7.53125 z"
         id="path3177" />
      <path
         id="path3185"
         d="m 48.46875,978.92494 c -8.904217,0.16005 -24.4375,6.3542 -24.4375,10.46875 l -0.09375,15.56251 c 0,10.7121 17.64005,25.7233 24.71875,25.9688 0.01039,5e-4 0.02074,0 0.03125,0 l 0.15625,0 c 0.0092,0 0.02143,3e-4 0.03125,0 7.0787,-0.2455 24.75,-15.2567 24.75,-25.9688 l -0.15625,-15.56251 c 0,-4.11565 -15.50321,-10.31189 -24.40625,-10.46875 -0.114779,-0.002 -0.262426,0 -0.375,0 -0.07506,0 -0.144548,-10e-4 -0.21875,0 z m 0.40625,10.34375 c 4.143087,0 7.5,3.38816 7.5,7.53125 0,3.13572 -1.9244,5.78536 -4.65625,6.90626 l 2.3125,16.75 -10.34375,0 L 46,1003.675 c -2.709091,-1.1314 -4.625,-3.75574 -4.625,-6.87506 0,-4.14309 3.356913,-7.53125 7.5,-7.53125 z"
         style="opacity:0.05;fill:#000000;fill-opacity:1;stroke:none"
         inkscape:connector-curvature="0" />
    </g>
    <g
       id="g3216"
       transform="translate(-0.7807075,0.43726833)">
      <path
         id="path3123"
         d="m 48.468216,977.92581 c -8.904023,0.16005 -24.436968,6.35406 -24.436968,10.46852 l -0.09375,15.56217 c 0,10.7118 17.639666,25.7227 24.718212,25.9682 0.01039,5e-4 0.02074,0 0.03125,0 l 0.156246,0 c 0.0092,0 0.02143,3e-4 0.03125,0 7.078546,-0.2455 24.749461,-15.2564 24.749461,-25.9682 l -0.156246,-15.56217 c 0,-4.11556 -15.502873,-10.31166 -24.40572,-10.46852 -0.114776,-0.002 -0.26242,0 -0.374991,0 -0.07506,0 -0.144545,-10e-4 -0.218746,0 z m 0.406242,10.34353 c 4.142996,0 7.499836,3.38808 7.499836,7.53108 0,3.13567 -1.924358,5.78518 -4.656148,6.90608 l 2.312449,16.7496 -10.343525,0 2.31245,-16.7808 c -2.709032,-1.1314 -4.624899,-3.75563 -4.624899,-6.87488 0,-4.143 3.35684,-7.53108 7.499837,-7.53108 z"
         style="fill:url(#linearGradient3221);fill-opacity:1;stroke:none"
         inkscape:connector-curvature="0" />
      <path
         id="rect3154"
         d="m 48.468426,977.92537 c -8.904099,0.16004 -24.437177,6.35411 -24.437177,10.46861 l -0.09375,15.56222 c 0,10.712 17.639817,25.723 24.718424,25.9685 0.01039,5e-4 0.02074,0 0.03125,0 l 0.09375,0 0,-10.4687 -5.093683,0 2.31247,-16.7809 c -2.709056,-1.1314 -4.624939,-3.75569 -4.624939,-6.87497 0,-4.11202 3.305971,-7.48094 7.406152,-7.53115 l 0,-10.34361 c -0.03147,1.6e-4 -0.06561,0 -0.09375,0 -0.07506,0 -0.144546,-0.001 -0.218747,0 z"
         style="fill:url(#linearGradient3223);fill-opacity:1;stroke:none"
         inkscape:connector-curvature="0" />
      <path
         id="path3172"
         d="m 48.468113,977.92579 c -8.903985,0.16004 -24.436863,6.35403 -24.436863,10.46848 l 0,0.99997 c 0,-4.11444 15.532878,-10.30843 24.436863,-10.46848 0.0742,-10e-4 0.143686,0 0.218744,0 0.112571,0 0.260214,-0.002 0.37499,0 8.902808,0.15686 24.405614,6.35294 24.405614,10.46848 l 0,-0.99997 c 0,-4.11555 -15.502806,-10.31163 -24.405614,-10.46848 -0.114776,-0.002 -0.262419,0 -0.37499,0 -0.07506,0 -0.144544,-10e-4 -0.218744,0 z m -7.062316,18.21827 c -0.01814,0.21303 -0.03125,0.43866 -0.03125,0.65624 0,3.06926 1.859562,5.6523 4.499882,6.8123 l 0.124997,-0.9374 c -2.608268,-1.0893 -4.457918,-3.56468 -4.59363,-6.53114 z m 14.937111,0 c -0.136329,2.98284 -1.9947,5.48314 -4.62488,6.56234 l 0.124997,0.9374 c 2.663988,-1.15 4.531132,-3.75684 4.531132,-6.8435 0,-0.21758 -0.01311,-0.44321 -0.03125,-0.65624 z m -12.530924,23.31184 -0.124996,1 10.34348,0 -0.124997,-1 -10.093487,0 z"
         style="opacity:0.5;fill:#ffffff;fill-opacity:1;stroke:none"
         inkscape:connector-curvature="0" />
    </g>
  </g>
</svg>
