<?xml version="1.0" encoding="UTF-8" standalone="no"?>
<!-- Created with Inkscape (http://www.inkscape.org/) -->

<svg
   xmlns:dc="http://purl.org/dc/elements/1.1/"
   xmlns:cc="http://creativecommons.org/ns#"
   xmlns:rdf="http://www.w3.org/1999/02/22-rdf-syntax-ns#"
   xmlns:svg="http://www.w3.org/2000/svg"
   xmlns="http://www.w3.org/2000/svg"
   xmlns:xlink="http://www.w3.org/1999/xlink"
   xmlns:sodipodi="http://sodipodi.sourceforge.net/DTD/sodipodi-0.dtd"
   xmlns:inkscape="http://www.inkscape.org/namespaces/inkscape"
   width="96"
   height="96"
   id="svg2"
   version="1.1"
   inkscape:version="0.48.4 r9939"
   sodipodi:docname="evolution-memos.svg">
  <defs
     id="defs4">
    <linearGradient
       inkscape:collect="always"
       id="linearGradient3142">
      <stop
         style="stop-color:#ffdb94;stop-opacity:1"
         offset="0"
         id="stop3144" />
      <stop
         style="stop-color:#efc142;stop-opacity:0"
         offset="1"
         id="stop3146" />
    </linearGradient>
    <linearGradient
       id="linearGradient3126"
       inkscape:collect="always">
      <stop
         id="stop3128"
         offset="0"
         style="stop-color:#efbf42;stop-opacity:1" />
      <stop
         id="stop3130"
         offset="1"
         style="stop-color:#efc342;stop-opacity:1" />
    </linearGradient>
    <linearGradient
       inkscape:collect="always"
       id="linearGradient3225">
      <stop
         style="stop-color:#deae39;stop-opacity:1"
         offset="0"
         id="stop3227" />
      <stop
         style="stop-color:#eec242;stop-opacity:1"
         offset="1"
         id="stop3231" />
    </linearGradient>
    <linearGradient
       id="linearGradient3219"
       inkscape:collect="always">
      <stop
         id="stop3221"
         offset="0"
         style="stop-color:#e7a208;stop-opacity:1" />
      <stop
         id="stop3223"
         offset="1"
         style="stop-color:#f7b208;stop-opacity:1" />
    </linearGradient>
    <linearGradient
       id="linearGradient3199"
       inkscape:collect="always">
      <stop
         id="stop3201"
         offset="0"
         style="stop-color:#e69d08;stop-opacity:1" />
      <stop
         id="stop3203"
         offset="1"
         style="stop-color:#f5c229;stop-opacity:1" />
    </linearGradient>
    <linearGradient
       inkscape:collect="always"
       id="linearGradient3222">
      <stop
         style="stop-color:#de005a;stop-opacity:1"
         offset="0"
         id="stop3224" />
      <stop
         style="stop-color:#a30444;stop-opacity:1"
         offset="1"
         id="stop3226" />
    </linearGradient>
    <linearGradient
       id="linearGradient3076"
       inkscape:collect="always">
      <stop
         id="stop3078"
         offset="0"
         style="stop-color:#ffe7f7;stop-opacity:1" />
      <stop
         id="stop3080"
         offset="1"
         style="stop-color:#ffc3ef;stop-opacity:1" />
    </linearGradient>
    <linearGradient
       inkscape:collect="always"
       id="linearGradient3048">
      <stop
         style="stop-color:#c16d16;stop-opacity:1"
         offset="0"
         id="stop3050" />
      <stop
         style="stop-color:#ff8e31;stop-opacity:1"
         offset="1"
         id="stop3052" />
    </linearGradient>
    <linearGradient
       inkscape:collect="always"
       id="linearGradient3119">
      <stop
         style="stop-color:#92948f;stop-opacity:0"
         offset="0"
         id="stop3121" />
      <stop
         id="stop3123"
         offset="0.4283945"
         style="stop-color:#9b9e98;stop-opacity:1" />
      <stop
         style="stop-color:#939690;stop-opacity:0"
         offset="1"
         id="stop3125" />
    </linearGradient>
    <linearGradient
       id="linearGradient3073"
       inkscape:collect="always">
      <stop
         id="stop3075"
         offset="0"
         style="stop-color:#ffffff;stop-opacity:0" />
      <stop
         style="stop-color:#ffffff;stop-opacity:1"
         offset="0.45872402"
         id="stop3085" />
      <stop
         id="stop3083"
         offset="1"
         style="stop-color:#ffffff;stop-opacity:0" />
    </linearGradient>
    <linearGradient
       inkscape:collect="always"
       id="linearGradient3047">
      <stop
         style="stop-color:#000000;stop-opacity:1"
         offset="0"
         id="stop3049" />
      <stop
         id="stop3055"
         offset="0.06123874"
         style="stop-color:#1a1a1a;stop-opacity:1" />
      <stop
         style="stop-color:#333333;stop-opacity:1"
         offset="0.16480456"
         id="stop3057" />
      <stop
         id="stop3059"
         offset="0.55385184"
         style="stop-color:#4d4d4d;stop-opacity:1" />
      <stop
         style="stop-color:#999999;stop-opacity:1"
         offset="1"
         id="stop3051" />
    </linearGradient>
    <linearGradient
       id="linearGradient3041"
       inkscape:collect="always">
      <stop
         id="stop3043"
         offset="0"
         style="stop-color:#1a1a1a;stop-opacity:1" />
      <stop
         id="stop3045"
         offset="1"
         style="stop-color:#808080;stop-opacity:1" />
    </linearGradient>
    <linearGradient
       inkscape:collect="always"
       id="linearGradient3029">
      <stop
         style="stop-color:#333333;stop-opacity:1"
         offset="0"
         id="stop3031" />
      <stop
         style="stop-color:#e0e0dd;stop-opacity:0;"
         offset="1"
         id="stop3033" />
    </linearGradient>
    <linearGradient
       inkscape:collect="always"
       xlink:href="#linearGradient3029"
       id="linearGradient3035"
       x1="35.355339"
       y1="1030.3622"
       x2="35.355339"
       y2="975.33282"
       gradientUnits="userSpaceOnUse"
       gradientTransform="matrix(1.1638085,0,0,1.1638085,-7.862809,-164.23642)" />
    <linearGradient
       inkscape:collect="always"
       xlink:href="#linearGradient3041"
       id="linearGradient3039"
       gradientUnits="userSpaceOnUse"
       x1="35.355339"
       y1="1030.3622"
       x2="35.355339"
       y2="975.33282"
       gradientTransform="matrix(1.1218695,0,0,1.1218695,-5.8497348,-122.18782)" />
    <linearGradient
       inkscape:collect="always"
       xlink:href="#linearGradient3047"
       id="linearGradient3053"
       x1="40"
       y1="1043.4336"
       x2="39.285713"
       y2="972.33325"
       gradientUnits="userSpaceOnUse" />
    <linearGradient
       inkscape:collect="always"
       xlink:href="#linearGradient3073"
       id="linearGradient3113"
       gradientUnits="userSpaceOnUse"
       gradientTransform="translate(0,-956.36218)"
       x1="14.869445"
       y1="978.90387"
       x2="24.52651"
       y2="969.24683" />
    <linearGradient
       inkscape:collect="always"
       xlink:href="#linearGradient3073"
       id="linearGradient3115"
       gradientUnits="userSpaceOnUse"
       gradientTransform="matrix(-1,0,0,1,96,-956.36218)"
       x1="15.152279"
       y1="978.62103"
       x2="26.263966"
       y2="967.50934" />
    <linearGradient
       inkscape:collect="always"
       xlink:href="#linearGradient3119"
       id="linearGradient3117"
       gradientUnits="userSpaceOnUse"
       gradientTransform="translate(0,-956.36218)"
       x1="13.131983"
       y1="980.64136"
       x2="25.549681"
       y2="967.86646" />
    <linearGradient
       inkscape:collect="always"
       xlink:href="#linearGradient3119"
       id="linearGradient3129"
       gradientUnits="userSpaceOnUse"
       gradientTransform="matrix(-1,0,0,1,96,0)"
       x1="13.131983"
       y1="980.64136"
       x2="25.549681"
       y2="967.86646" />
    <linearGradient
       inkscape:collect="always"
       xlink:href="#linearGradient3048"
       id="linearGradient3054"
       x1="49.267925"
       y1="996.57349"
       x2="49.267925"
       y2="1045.8627"
       gradientUnits="userSpaceOnUse" />
    <linearGradient
       inkscape:collect="always"
       xlink:href="#linearGradient3048"
       id="linearGradient3058"
       x1="115.80308"
       y1="985.47241"
       x2="115.80308"
       y2="1033.5543"
       gradientUnits="userSpaceOnUse" />
    <linearGradient
       inkscape:collect="always"
       xlink:href="#linearGradient3222"
       id="linearGradient3055"
       gradientUnits="userSpaceOnUse"
       x1="115.80308"
       y1="985.47241"
       x2="115.80308"
       y2="1025.3639"
       gradientTransform="matrix(1.4144782,0,0,1.4144782,-119.78686,-419.05496)" />
    <linearGradient
       inkscape:collect="always"
       xlink:href="#linearGradient3076"
       id="linearGradient3086"
       gradientUnits="userSpaceOnUse"
       gradientTransform="matrix(1.4144782,0,0,1.4144782,-119.78686,-417.12598)"
       x1="115.80308"
       y1="985.47241"
       x2="115.80308"
       y2="1025.3639" />
    <linearGradient
       inkscape:collect="always"
       xlink:href="#linearGradient3076"
       id="linearGradient3091"
       gradientUnits="userSpaceOnUse"
       gradientTransform="matrix(1.4144782,0,0,1.4144782,-119.78686,-418.126)"
       x1="115.80308"
       y1="985.47241"
       x2="115.80308"
       y2="1025.3639" />
    <linearGradient
       inkscape:collect="always"
       xlink:href="#linearGradient3076"
       id="linearGradient3093"
       gradientUnits="userSpaceOnUse"
       gradientTransform="matrix(1.4144782,0,0,1.4144782,-119.78686,-1375.4171)"
       x1="115.80308"
       y1="985.47241"
       x2="115.80308"
       y2="1025.3639" />
    <linearGradient
       inkscape:collect="always"
       xlink:href="#linearGradient3225"
       id="linearGradient3155"
       gradientUnits="userSpaceOnUse"
       x1="12.85139"
       y1="1045.9362"
       x2="12.85139"
       y2="985.31757" />
    <linearGradient
       inkscape:collect="always"
       xlink:href="#linearGradient3219"
       id="linearGradient3217"
       x1="49.086792"
       y1="29.786251"
       x2="49.086792"
       y2="7.7886772"
       gradientUnits="userSpaceOnUse"
       gradientTransform="translate(0,-1)" />
    <linearGradient
       inkscape:collect="always"
       xlink:href="#linearGradient3199"
       id="linearGradient3346"
       gradientUnits="userSpaceOnUse"
       gradientTransform="translate(0,-957.36218)"
       x1="58.101124"
       y1="986.07019"
       x2="58.101124"
       y2="963.49542" />
    <linearGradient
       inkscape:collect="always"
       xlink:href="#linearGradient3126"
       id="linearGradient3124"
       gradientUnits="userSpaceOnUse"
       gradientTransform="translate(0,-2.6171874e-6)"
       x1="62.620525"
       y1="1044.8497"
       x2="62.620525"
       y2="985.95312" />
    <linearGradient
       inkscape:collect="always"
       xlink:href="#linearGradient3142"
       id="linearGradient3148"
       x1="75.713211"
       y1="1036.0603"
       x2="67.381134"
       y2="1024.4679"
       gradientUnits="userSpaceOnUse" />
    <linearGradient
       inkscape:collect="always"
       xlink:href="#linearGradient3142"
       id="linearGradient3191"
       gradientUnits="userSpaceOnUse"
       x1="74.176254"
       y1="1033.7549"
       x2="63.758492"
       y2="1019.9396" />
    <linearGradient
       inkscape:collect="always"
       xlink:href="#linearGradient6414"
       id="linearGradient3191-1"
       gradientUnits="userSpaceOnUse"
       gradientTransform="matrix(0.46800014,0.46800014,-0.47019737,0.47019737,395.00459,402.78182)"
       x1="269.19125"
       y1="1039.683"
       x2="273.35651"
       y2="1039.683" />
    <linearGradient
       id="linearGradient6414">
      <stop
         id="stop6416"
         offset="0"
         style="stop-color:#353535;stop-opacity:1" />
      <stop
         style="stop-color:#7d7d7d;stop-opacity:1"
         offset="0.46625364"
         id="stop6418" />
      <stop
         id="stop6420"
         offset="1"
         style="stop-color:#2c2c2c;stop-opacity:1" />
    </linearGradient>
    <linearGradient
       inkscape:collect="always"
       xlink:href="#linearGradient6427"
       id="linearGradient3194"
       gradientUnits="userSpaceOnUse"
       gradientTransform="matrix(0.46800014,0.46800014,-0.47019737,0.47019737,395.00459,402.78182)"
       x1="264.04221"
       y1="1039.558"
       x2="274.77737"
       y2="1039.683" />
    <linearGradient
       id="linearGradient6427">
      <stop
         id="stop6429"
         offset="0"
         style="stop-color:#c1b68f;stop-opacity:1" />
      <stop
         style="stop-color:#e0dac7;stop-opacity:1"
         offset="0.63999116"
         id="stop6431" />
      <stop
         id="stop6433"
         offset="1"
         style="stop-color:#c2b78f;stop-opacity:1" />
    </linearGradient>
    <linearGradient
       inkscape:collect="always"
       xlink:href="#linearGradient6451"
       id="linearGradient3197"
       gradientUnits="userSpaceOnUse"
       gradientTransform="matrix(0.47019737,0.47019737,-0.47019737,0.47019737,394.35441,402.13164)"
       x1="264.63397"
       y1="970.67163"
       x2="279.49121"
       y2="970.67163" />
    <linearGradient
       inkscape:collect="always"
       id="linearGradient6451">
      <stop
         style="stop-color:#fcaf3e;stop-opacity:1"
         offset="0"
         id="stop6453" />
      <stop
         id="stop6455"
         offset="0.20576303"
         style="stop-color:#fbad3d;stop-opacity:1;" />
      <stop
         id="stop6457"
         offset="0.30206144"
         style="stop-color:#f09a2e;stop-opacity:1" />
      <stop
         style="stop-color:#f09a2e;stop-opacity:1"
         offset="0.69539386"
         id="stop6459" />
      <stop
         style="stop-color:#d9700f;stop-opacity:1"
         offset="0.79209822"
         id="stop6461" />
      <stop
         style="stop-color:#db7f29;stop-opacity:1"
         offset="1"
         id="stop6463" />
    </linearGradient>
    <linearGradient
       inkscape:collect="always"
       xlink:href="#linearGradient3155-5"
       id="linearGradient3200"
       gradientUnits="userSpaceOnUse"
       gradientTransform="matrix(0.56416595,1.0837795,-0.56416595,1.0837795,468.10385,-412.44832)"
       x1="276.17441"
       y1="1046.8199"
       x2="303.62424"
       y2="985.3631" />
    <linearGradient
       id="linearGradient3155-5"
       inkscape:collect="always">
      <stop
         id="stop3157"
         offset="0"
         style="stop-color:#000000;stop-opacity:0.5" />
      <stop
         style="stop-color:#000000;stop-opacity:0.1372549;"
         offset="0.67504984"
         id="stop3159" />
      <stop
         id="stop3161"
         offset="1"
         style="stop-color:#000000;stop-opacity:0;" />
    </linearGradient>
    <linearGradient
       inkscape:collect="always"
       xlink:href="#linearGradient5568"
       id="linearGradient3203"
       gradientUnits="userSpaceOnUse"
       gradientTransform="matrix(0.47019737,0.47019737,-0.47019737,0.47019737,-55.324576,851.81062)"
       x1="279.21381"
       y1="-32.207802"
       x2="264.22849"
       y2="-32.207802" />
    <linearGradient
       inkscape:collect="always"
       id="linearGradient5568">
      <stop
         style="stop-color:#b0b0b0;stop-opacity:1"
         offset="0"
         id="stop5570" />
      <stop
         id="stop5594"
         offset="0.22522596"
         style="stop-color:#6f6f6f;stop-opacity:1" />
      <stop
         style="stop-color:#fdfdfd;stop-opacity:1"
         offset="0.70270312"
         id="stop5596" />
      <stop
         id="stop5592"
         offset="0.83783817"
         style="stop-color:#d8d8d8;stop-opacity:1" />
      <stop
         style="stop-color:#b0adab;stop-opacity:0.96862745"
         offset="1"
         id="stop5572" />
    </linearGradient>
    <linearGradient
       inkscape:collect="always"
       xlink:href="#linearGradient5598"
       id="linearGradient3206"
       gradientUnits="userSpaceOnUse"
       gradientTransform="matrix(0.44275507,0.44275507,-0.44275507,0.44275507,376.96001,434.45984)"
       x1="278.71259"
       y1="913.77991"
       x2="265.88797"
       y2="913.77991" />
    <linearGradient
       inkscape:collect="always"
       id="linearGradient5598">
      <stop
         style="stop-color:#915555;stop-opacity:0.94901961"
         offset="0"
         id="stop5600" />
      <stop
         id="stop5608"
         offset="0.23249434"
         style="stop-color:#c87c7c;stop-opacity:1" />
      <stop
         id="stop5606"
         offset="0.79048359"
         style="stop-color:#ebb2b2;stop-opacity:1" />
      <stop
         style="stop-color:#c68080;stop-opacity:1"
         offset="1"
         id="stop5602" />
    </linearGradient>
    <linearGradient
       y2="913.77991"
       x2="265.88797"
       y1="913.77991"
       x1="278.71259"
       gradientTransform="matrix(0.44275507,0.44275507,-0.44275507,0.44275507,376.96001,434.45984)"
       gradientUnits="userSpaceOnUse"
       id="linearGradient3397"
       xlink:href="#linearGradient5598"
       inkscape:collect="always" />
  </defs>
  <sodipodi:namedview
     id="base"
     pagecolor="#ffffff"
     bordercolor="#666666"
     borderopacity="1.0"
     inkscape:pageopacity="0.0"
     inkscape:pageshadow="2"
     inkscape:zoom="0.48797732"
     inkscape:cx="581.86243"
     inkscape:cy="-30.479441"
     inkscape:document-units="px"
     inkscape:current-layer="layer1"
     showgrid="false"
     inkscape:window-width="1366"
     inkscape:window-height="705"
     inkscape:window-x="0"
     inkscape:window-y="28"
     inkscape:window-maximized="1"
     showguides="false"
     inkscape:guide-bbox="true">
    <sodipodi:guide
       orientation="0,1"
       position="120.2717,73.17736"
       id="guide4443" />
    <sodipodi:guide
       orientation="0,1"
       position="142.73208,28.256604"
       id="guide4445" />
    <sodipodi:guide
       orientation="0,1"
       position="193.81133,64.845285"
       id="guide3247" />
    <sodipodi:guide
       orientation="0,1"
       position="112.32592,86.966131"
       id="guide3344" />
  </sodipodi:namedview>
  <metadata
     id="metadata7">
    <rdf:RDF>
      <cc:Work
         rdf:about="">
        <dc:format>image/svg+xml</dc:format>
        <dc:type
           rdf:resource="http://purl.org/dc/dcmitype/StillImage" />
        <dc:title />
      </cc:Work>
    </rdf:RDF>
  </metadata>
  <g
     inkscape:label="Layer 1"
     inkscape:groupmode="layer"
     id="layer1"
     transform="translate(0,-956.36218)">
    <g
       id="g3033"
       transform="translate(0,-1.0000026)">
      <rect
         ry="10.595235"
         rx="10.595235"
         y="961.86218"
         x="3.5"
         height="89"
         width="89"
         id="rect3826"
         style="opacity:0.05;fill:#000000;fill-opacity:1;stroke:none" />
      <rect
         style="opacity:0.05;fill:#000000;fill-opacity:1;stroke:none"
         id="rect3824"
         width="88"
         height="88"
         x="4"
         y="962.36218"
         rx="10.476188"
         ry="10.476188" />
      <rect
         ry="10.357141"
         rx="10.357141"
         y="962.86218"
         x="4.5"
         height="87"
         width="87"
         id="rect3822"
         style="opacity:0.05;fill:#000000;fill-opacity:1;stroke:none" />
      <rect
         style="opacity:0.1;fill:#000000;fill-opacity:1;stroke:none"
         id="rect3820"
         width="86"
         height="86"
         x="5"
         y="963.36218"
         rx="10.238094"
         ry="10.238094" />
      <rect
         ry="10.119047"
         rx="10.119047"
         y="963.86218"
         x="5.5"
         height="85"
         width="85"
         id="rect3818"
         style="opacity:0.1;fill:#000000;fill-opacity:1;stroke:none" />
      <rect
         style="opacity:0.3;fill:#000000;fill-opacity:1;stroke:none"
         id="rect3131"
         width="84"
         height="84"
         x="6"
         y="964.36218"
         rx="10"
         ry="10" />
    </g>
    <rect
       ry="10"
       rx="10"
       y="962.36218"
       x="6"
       height="84"
       width="84"
       id="rect3036"
       style="fill:url(#linearGradient3155);fill-opacity:1;stroke:none" />
    <rect
       style="fill:url(#linearGradient3124);fill-opacity:1;stroke:none"
       id="rect3034"
       width="82"
       height="82"
       x="7"
       y="963.36218"
       rx="9.7619047"
       ry="9.7619047" />
    <path
       style="fill:url(#linearGradient3346);fill-opacity:1;stroke:none"
       d="M 16,6 C 10.46,6 6,10.46 6,16 l 0,13 84,0 0,-13 C 90,10.46 85.54,6 80,6 z"
       transform="translate(0,956.36218)"
       id="rect3180"
       inkscape:connector-curvature="0"
       sodipodi:nodetypes="sccccss" />
    <path
       style="fill:url(#linearGradient3217);fill-opacity:1;stroke:none"
       d="M 16.75,7 C 11.341905,7 7,11.341905 7,16.75 L 7,29 89,29 89,16.75 C 89,11.341905 84.658095,7 79.25,7 z"
       transform="translate(0,956.36218)"
       id="rect3166"
       inkscape:connector-curvature="0"
       sodipodi:nodetypes="ssccsss" />
    <rect
       style="opacity:0.05;fill:#000000;fill-opacity:1;stroke:none"
       id="rect3395"
       width="84"
       height="1"
       x="6"
       y="983.36218"
       rx="0"
       ry="0" />
    <rect
       ry="0"
       rx="0"
       y="984.36218"
       x="6"
       height="1"
       width="84"
       id="rect3233"
       style="opacity:0.10000000000000001;fill:#000000;fill-opacity:1;stroke:none" />
    <rect
       ry="0"
       rx="0"
       y="985.36218"
       x="6"
       height="1"
       width="84"
       id="rect3122"
       style="opacity:0.1;fill:#ffffff;fill-opacity:1;stroke:none" />
    <path
       style="fill:#000000;fill-opacity:1;stroke:none;opacity:0.05"
       d="m 90,1014.9872 c 0,16.3666 -12.6407,31.375 -42.3125,31.375 l 27.09375,0 c 7.10112,-2.9511 12.08866,-7.3478 15.21875,-12.5 l 0,-18.875 z"
       id="path3158"
       inkscape:connector-curvature="0" />
    <path
       style="fill:#000000;fill-opacity:1;stroke:none;opacity:0.05"
       d="m 90,1014.9872 c 0,16.3666 -12.6407,31.375 -42.3125,31.375 l 23.40625,0 c 9.384557,-3.1985 15.56197,-8.6959 18.90625,-15.25 l 0,-16.125 z"
       id="path3156"
       inkscape:connector-curvature="0" />
    <path
       style="fill:#000000;fill-opacity:1;stroke:none;opacity:0.05"
       d="m 90,1014.9872 c 0,16.3666 -12.6407,31.375 -42.3125,31.375 l 19.125,0 c 12.38366,-3.2645 19.861625,-10.2037 23.1875,-18.5 l 0,-12.875 z"
       id="path3154"
       inkscape:connector-curvature="0" />
    <path
       style="fill:#000000;fill-opacity:1;stroke:none;opacity:0.05"
       d="m 90,1014.9872 c 0,16.3666 -12.6407,31.375 -42.3125,31.375 l 13.375,0 C 77.894685,1043.4719 87.064779,1034.553 90,1023.9247 l 0,-8.9375 z"
       id="path3150"
       inkscape:connector-curvature="0" />
    <path
       style="opacity:1;fill:url(#linearGradient3191);fill-opacity:1;stroke:none"
       d="m 90,1001.6122 -62.0625,44.75 19.75,0 c 29.6718,0 42.3125,-15.0084 42.3125,-31.375 l 0,-13.375 z"
       id="rect3132"
       inkscape:connector-curvature="0" />
    <path
       style="fill:url(#linearGradient3397);fill-opacity:1;stroke:none"
       d="m 94.606977,957.75521 c 1.857365,1.85737 1.857365,4.84793 -4e-6,6.7053 l -9.317831,9.31783 -6.22412,-7.18648 8.836649,-8.83665 c 1.857369,-1.85737 4.847938,-1.85737 6.705306,0 z"
       id="rect5554"
       inkscape:connector-curvature="0"
       sodipodi:nodetypes="ssccss" />
    <path
       style="fill:url(#linearGradient3203);fill-opacity:1;stroke:none"
       d="m 90.848031,961.01396 c -1.830746,-1.83075 -4.078623,-2.53353 -5.025234,-1.58692 l -4.907685,4.90769 c 1.246883,-1.24689 3.365715,-1.15994 4.746055,0.2204 l 2.145275,2.14528 c 1.38034,1.38034 1.467289,3.49917 0.220405,4.74605 l 4.907685,-4.90768 c 0.946611,-0.94661 0.243826,-3.19449 -1.586916,-5.02524 z"
       id="rect5556"
       inkscape:connector-curvature="0"
       sodipodi:nodetypes="sscsscsss" />
    <path
       sodipodi:nodetypes="cccc"
       inkscape:connector-curvature="0"
       id="path6518"
       d="m 94.557173,973.5442 -69.228192,52.8125 70.362042,-24.6446 z"
       style="fill:url(#linearGradient3200);fill-opacity:1;stroke:none" />
    <path
       style="fill:url(#linearGradient3197);fill-opacity:1;stroke:none"
       d="m 85.661167,964.55513 c -1.370917,-1.38969 -3.499172,-1.46729 -4.746055,-0.2204 l -45.065479,45.12427 1.719159,-0.1616 -0.191018,2.4832 3.908516,-0.088 -0.132243,1.9543 1.92487,0.1028 0.293874,2.3804 44.654056,-44.65405 c 1.246884,-1.24688 1.150512,-3.35636 -0.220405,-4.74605 z"
       id="rect5558"
       inkscape:connector-curvature="0"
       sodipodi:nodetypes="sccccccccsss" />
    <path
       style="fill:url(#linearGradient3194);fill-opacity:1;stroke:none"
       d="m 25.3357,1026.3622 10.515922,-16.9445 1.720993,-0.1527 -0.197036,2.4858 3.908764,-0.094 -0.131998,1.9545 1.932756,0.1017 0.291748,2.4209 z"
       id="path5563"
       inkscape:connector-curvature="0" />
    <path
       style="fill:url(#linearGradient3191-1);fill-opacity:1;stroke:none"
       d="m 30.897867,1020.5821 c -0.500953,-0.501 -1.002407,-0.83 -1.43998,-0.8816 l -4.12892,6.6562 6.920717,-3.9232 c -0.115577,-0.5558 -0.911858,-1.4115 -1.351817,-1.8514 z"
       id="path6410"
       inkscape:connector-curvature="0"
       sodipodi:nodetypes="scccs" />
    <g
       transform="matrix(0.70710678,-0.70710678,0.70710678,0.70710678,0,-4.9999994e-7)"
       style="font-size:2.71167278px;font-style:normal;font-variant:normal;font-weight:bold;font-stretch:normal;line-height:125%;letter-spacing:0px;word-spacing:0px;fill:#a26629;fill-opacity:1;stroke:none;font-family:Cantarell;-inkscape-font-specification:Cantarell Bold"
       id="text6467">
      <path
         inkscape:connector-curvature="0"
         d="m -667.26433,743.30804 0,1.8819 0.33354,0 0,-0.73215 c 0.0488,0.003 0.0949,0.005 0.14643,0.005 0.40675,0 0.9057,-0.0624 0.9057,-0.59928 0,-0.51793 -0.52878,-0.55589 -0.77283,-0.55589 l -0.61284,0 m 0.33354,0.30642 0.24676,0 c 0.24134,0 0.4637,0.0298 0.4637,0.26032 0,0.26032 -0.26033,0.28473 -0.54505,0.28473 -0.0569,0 -0.10847,-0.005 -0.16541,-0.008 l 0,-0.53691"
         id="path3209" />
      <path
         inkscape:connector-curvature="0"
         d="m -665.55364,745.18994 1.22567,0 0,-0.30642 -0.89214,0 0,-0.49352 0.79452,0 0,-0.30642 -0.79452,0 0,-0.46912 0.89214,0 0,-0.30642 -1.22567,0 0,1.8819"
         id="path3211" />
      <path
         inkscape:connector-curvature="0"
         d="m -663.95948,743.30804 0,1.8819 0.33354,0 0,-1.39922 0.90299,1.39922 0.40675,0 0,-1.8819 -0.33354,0 0,1.39651 -0.90841,-1.39651 -0.40133,0"
         id="path3213" />
      <path
         inkscape:connector-curvature="0"
         d="m -662.0813,743.30804 0.66978,1.03044 0,0.85146 0.33353,0 0,-0.85146 0.70233,-1.03044 -0.37693,0 -0.47996,0.72944 -0.47454,-0.72944 -0.37421,0"
         id="path3215" />
      <path
         inkscape:connector-curvature="0"
         d="m -659.39777,745.21706 c 0.73758,0 0.77012,-0.47726 0.77012,-0.70504 l 0,-1.20398 -0.33354,0 0,1.18771 c 0,0.0569 -0.005,0.11118 -0.0163,0.15999 -0.0407,0.1627 -0.19524,0.25219 -0.42031,0.25219 -0.22506,0 -0.37963,-0.0895 -0.4203,-0.25219 -0.0109,-0.0488 -0.0163,-0.10304 -0.0163,-0.15999 l 0,-1.18771 -0.33354,0 0,1.20398 c 0,0.22778 0.0325,0.70504 0.77011,0.70504"
         id="path3217" />
      <path
         inkscape:connector-curvature="0"
         d="m -658.21306,743.30804 0,1.8819 0.33353,0 0,-1.39922 0.90299,1.39922 0.40675,0 0,-1.8819 -0.33353,0 0,1.39651 -0.90841,-1.39651 -0.40133,0"
         id="path3219" />
      <path
         inkscape:connector-curvature="0"
         d="m -656.32675,743.30804 0,0.30642 0.61826,0 0,1.57548 0.33353,0 0,-1.57548 0.61826,0 0,-0.30642 -1.57005,0"
         id="path3221" />
      <path
         inkscape:connector-curvature="0"
         d="m -654.51629,743.30804 0,1.8819 0.33354,0 0,-1.8819 -0.33354,0"
         id="path3223" />
      <path
         inkscape:connector-curvature="0"
         d="m -653.74833,743.30804 0,1.8819 0.33353,0 0,-1.39922 0.90299,1.39922 0.40675,0 0,-1.8819 -0.33354,0 0,1.39651 -0.90841,-1.39651 -0.40132,0"
         id="path3225" />
      <path
         inkscape:connector-curvature="0"
         d="m -650.06961,744.99741 0,-0.85417 -0.81893,0 0,0.29286 0.49082,0 0,0.40132 c -0.0841,0.0461 -0.1627,0.0705 -0.31998,0.0705 -0.40404,0 -0.6969,-0.27931 -0.6969,-0.66979 0,-0.40132 0.31998,-0.63724 0.65351,-0.63724 0.18982,0 0.37421,0.0678 0.47726,0.12203 l 0.0488,0.0271 0.13829,-0.26303 -0.0461,-0.0271 c -0.15999,-0.0895 -0.37692,-0.16541 -0.6291,-0.16541 -0.63182,0 -0.98163,0.4637 -0.98163,0.95722 0,0.4637 0.30913,0.96536 0.98434,0.96536 0.43658,0 0.62911,-0.16813 0.69961,-0.21965"
         id="path3227" />
    </g>
    <g
       transform="matrix(0.70710678,-0.70710678,0.70710678,0.70710678,0,-4.9999994e-7)"
       style="font-size:2.71167278px;font-style:normal;font-variant:normal;font-weight:bold;font-stretch:normal;line-height:125%;letter-spacing:0px;word-spacing:0px;fill:#a26629;fill-opacity:1;stroke:none;font-family:Cantarell;-inkscape-font-specification:Cantarell Bold"
       id="text6471">
      <path
         inkscape:connector-curvature="0"
         d="m -639.54723,743.30804 0,1.8819 0.33354,0 0,-1.39922 0.90299,1.39922 0.40675,0 0,-1.8819 -0.33354,0 0,1.39651 -0.90841,-1.39651 -0.40133,0"
         id="path3230" />
      <path
         inkscape:connector-curvature="0"
         d="m -636.92334,744.1107 c 0.18439,0 0.33624,0.14914 0.33624,0.42844 0,0.2793 -0.14914,0.42031 -0.33624,0.42031 -0.1844,0 -0.33625,-0.14372 -0.33625,-0.42031 0,-0.27659 0.15456,-0.42844 0.33625,-0.42844 m 0,1.10636 c 0.40946,0 0.67249,-0.27388 0.67249,-0.68063 0,-0.40946 -0.25761,-0.68063 -0.66978,-0.68063 -0.40946,0 -0.6725,0.27388 -0.6725,0.68334 0,0.40675 0.26032,0.67792 0.66979,0.67792"
         id="path3232" />
      <path
         inkscape:connector-curvature="0"
         d="m -636.02455,744.85641 0,0.38776 0.38506,0 0,-0.38776 -0.38506,0"
         id="path3234" />
      <path
         inkscape:connector-curvature="0"
         d="m -634.43098,743.74462 c 0.15728,-0.0678 0.30913,-0.14372 0.49895,-0.14372 0.23863,0 0.32811,0.0949 0.32811,0.24676 0,0.23863 -0.29557,0.5098 -0.56674,0.79452 -0.141,0.14643 -0.25489,0.24405 -0.35523,0.33896 l 0,0.2088 1.29347,0 0,-0.29286 -0.75656,0 c 0.35523,-0.36336 0.7186,-0.69961 0.7186,-1.07111 0,-0.30642 -0.2088,-0.54233 -0.66165,-0.54233 -0.2549,0 -0.46641,0.10304 -0.59657,0.17083 l 0.0976,0.29015"
         id="path3236" />
      <path
         inkscape:connector-curvature="0"
         d="m -631.89667,743.01518 0,2.63575 0.32541,0 0,-2.63575 -0.32541,0"
         id="path3238" />
      <path
         inkscape:connector-curvature="0"
         d="m -630.28941,745.18994 1.22568,0 0,-0.30642 -0.89214,0 0,-0.49352 0.79452,0 0,-0.30642 -0.79452,0 0,-0.46912 0.89214,0 0,-0.30642 -1.22568,0 0,1.8819"
         id="path3240" />
      <path
         inkscape:connector-curvature="0"
         d="m -628.3617,743.61446 0.88129,0 0,-0.30642 -1.21483,0 0,1.8819 0.33354,0 0,-0.71588 0.77282,0 0,-0.30642 -0.77282,0 0,-0.55318"
         id="path3242" />
    </g>
    <path
       inkscape:connector-curvature="0"
       style="fill:#f7ce9b;fill-opacity:1;stroke:none"
       d="m 85.117501,964.09963 c -0.137147,-0.0949 -0.281315,-0.17592 -0.426116,-0.24979 l -47.254836,47.25486 -0.05877,0.6759 0.05877,0 47.680952,-47.68097 z"
       id="path6475" />
    <path
       inkscape:connector-curvature="0"
       style="fill:#e79b45;fill-opacity:1;stroke:none"
       d="m 88.129703,967.11183 -46.564233,46.56427 0.646521,0.029 46.182198,-46.18225 c -0.0068,-0.0204 -0.02183,-0.0384 -0.02936,-0.0587 -0.07228,-0.12043 -0.147971,-0.23823 -0.235099,-0.35265 z"
       id="path6487" />
  </g>
</svg>
