<?xml version="1.0" encoding="UTF-8" standalone="no"?>
<!-- Created with Inkscape (http://www.inkscape.org/) -->

<svg
   xmlns:dc="http://purl.org/dc/elements/1.1/"
   xmlns:cc="http://creativecommons.org/ns#"
   xmlns:rdf="http://www.w3.org/1999/02/22-rdf-syntax-ns#"
   xmlns:svg="http://www.w3.org/2000/svg"
   xmlns="http://www.w3.org/2000/svg"
   xmlns:xlink="http://www.w3.org/1999/xlink"
   xmlns:sodipodi="http://sodipodi.sourceforge.net/DTD/sodipodi-0.dtd"
   xmlns:inkscape="http://www.inkscape.org/namespaces/inkscape"
   width="96"
   height="96"
   id="svg2"
   version="1.1"
   inkscape:version="0.48.4 r9939"
   sodipodi:docname="file-roller.svg">
  <defs
     id="defs4">
    <linearGradient
       id="linearGradient3101">
      <stop
         style="stop-color:#ffffff;stop-opacity:0.19259259;"
         offset="0"
         id="stop3103" />
      <stop
         id="stop3226"
         offset="0.22095624"
         style="stop-color:#ffffff;stop-opacity:0.3037037;" />
      <stop
         id="stop3224"
         offset="0.48518145"
         style="stop-color:#ffffff;stop-opacity:0.15555556;" />
      <stop
         id="stop3111"
         offset="0.76176167"
         style="stop-color:#ffffff;stop-opacity:0.37777779;" />
      <stop
         style="stop-color:#ffffff;stop-opacity:0;"
         offset="1"
         id="stop3105" />
    </linearGradient>
    <linearGradient
       id="linearGradient3076"
       inkscape:collect="always">
      <stop
         id="stop3078"
         offset="0"
         style="stop-color:#ffe7f7;stop-opacity:1" />
      <stop
         id="stop3080"
         offset="1"
         style="stop-color:#ffc3ef;stop-opacity:1" />
    </linearGradient>
    <linearGradient
       id="linearGradient3070"
       inkscape:collect="always">
      <stop
         id="stop3072"
         offset="0"
         style="stop-color:#945518;stop-opacity:1" />
      <stop
         id="stop3074"
         offset="1"
         style="stop-color:#f5e1c5;stop-opacity:1" />
    </linearGradient>
    <linearGradient
       inkscape:collect="always"
       id="linearGradient3059">
      <stop
         style="stop-color:#9c6518;stop-opacity:1"
         offset="0"
         id="stop3061" />
      <stop
         style="stop-color:#e7c794;stop-opacity:1"
         offset="1"
         id="stop3064" />
    </linearGradient>
    <linearGradient
       inkscape:collect="always"
       id="linearGradient3048">
      <stop
         style="stop-color:#c16d16;stop-opacity:1"
         offset="0"
         id="stop3050" />
      <stop
         style="stop-color:#ff8e31;stop-opacity:1"
         offset="1"
         id="stop3052" />
    </linearGradient>
    <linearGradient
       inkscape:collect="always"
       id="linearGradient3119">
      <stop
         style="stop-color:#92948f;stop-opacity:0"
         offset="0"
         id="stop3121" />
      <stop
         id="stop3123"
         offset="0.4283945"
         style="stop-color:#9b9e98;stop-opacity:1" />
      <stop
         style="stop-color:#939690;stop-opacity:0"
         offset="1"
         id="stop3125" />
    </linearGradient>
    <linearGradient
       id="linearGradient3073"
       inkscape:collect="always">
      <stop
         id="stop3075"
         offset="0"
         style="stop-color:#ffffff;stop-opacity:0" />
      <stop
         style="stop-color:#ffffff;stop-opacity:1"
         offset="0.45872402"
         id="stop3085" />
      <stop
         id="stop3083"
         offset="1"
         style="stop-color:#ffffff;stop-opacity:0" />
    </linearGradient>
    <linearGradient
       inkscape:collect="always"
       id="linearGradient3047">
      <stop
         style="stop-color:#000000;stop-opacity:1"
         offset="0"
         id="stop3049" />
      <stop
         id="stop3055"
         offset="0.06123874"
         style="stop-color:#1a1a1a;stop-opacity:1" />
      <stop
         style="stop-color:#333333;stop-opacity:1"
         offset="0.16480456"
         id="stop3057" />
      <stop
         id="stop3059"
         offset="0.55385184"
         style="stop-color:#4d4d4d;stop-opacity:1" />
      <stop
         style="stop-color:#999999;stop-opacity:1"
         offset="1"
         id="stop3051" />
    </linearGradient>
    <linearGradient
       id="linearGradient3041"
       inkscape:collect="always">
      <stop
         id="stop3043"
         offset="0"
         style="stop-color:#1a1a1a;stop-opacity:1" />
      <stop
         id="stop3045"
         offset="1"
         style="stop-color:#808080;stop-opacity:1" />
    </linearGradient>
    <linearGradient
       inkscape:collect="always"
       id="linearGradient3029">
      <stop
         style="stop-color:#333333;stop-opacity:1"
         offset="0"
         id="stop3031" />
      <stop
         style="stop-color:#e0e0dd;stop-opacity:0;"
         offset="1"
         id="stop3033" />
    </linearGradient>
    <linearGradient
       inkscape:collect="always"
       xlink:href="#linearGradient3029"
       id="linearGradient3035"
       x1="35.355339"
       y1="1030.3622"
       x2="35.355339"
       y2="975.33282"
       gradientUnits="userSpaceOnUse"
       gradientTransform="matrix(1.1638085,0,0,1.1638085,-7.862809,-164.23642)" />
    <linearGradient
       inkscape:collect="always"
       xlink:href="#linearGradient3041"
       id="linearGradient3039"
       gradientUnits="userSpaceOnUse"
       x1="35.355339"
       y1="1030.3622"
       x2="35.355339"
       y2="975.33282"
       gradientTransform="matrix(1.1218695,0,0,1.1218695,-5.8497348,-122.18782)" />
    <linearGradient
       inkscape:collect="always"
       xlink:href="#linearGradient3047"
       id="linearGradient3053"
       x1="40"
       y1="1043.4336"
       x2="39.285713"
       y2="972.33325"
       gradientUnits="userSpaceOnUse" />
    <linearGradient
       inkscape:collect="always"
       xlink:href="#linearGradient3073"
       id="linearGradient3113"
       gradientUnits="userSpaceOnUse"
       gradientTransform="translate(0,-956.36218)"
       x1="14.869445"
       y1="978.90387"
       x2="24.52651"
       y2="969.24683" />
    <linearGradient
       inkscape:collect="always"
       xlink:href="#linearGradient3073"
       id="linearGradient3115"
       gradientUnits="userSpaceOnUse"
       gradientTransform="matrix(-1,0,0,1,96,-956.36218)"
       x1="15.152279"
       y1="978.62103"
       x2="26.263966"
       y2="967.50934" />
    <linearGradient
       inkscape:collect="always"
       xlink:href="#linearGradient3119"
       id="linearGradient3117"
       gradientUnits="userSpaceOnUse"
       gradientTransform="translate(0,-956.36218)"
       x1="13.131983"
       y1="980.64136"
       x2="25.549681"
       y2="967.86646" />
    <linearGradient
       inkscape:collect="always"
       xlink:href="#linearGradient3119"
       id="linearGradient3129"
       gradientUnits="userSpaceOnUse"
       gradientTransform="matrix(-1,0,0,1,96,0)"
       x1="13.131983"
       y1="980.64136"
       x2="25.549681"
       y2="967.86646" />
    <linearGradient
       inkscape:collect="always"
       xlink:href="#linearGradient3048"
       id="linearGradient3054"
       x1="49.267925"
       y1="996.57349"
       x2="49.267925"
       y2="1045.8627"
       gradientUnits="userSpaceOnUse" />
    <linearGradient
       inkscape:collect="always"
       xlink:href="#linearGradient3048"
       id="linearGradient3058"
       x1="115.80308"
       y1="985.47241"
       x2="115.80308"
       y2="1033.5543"
       gradientUnits="userSpaceOnUse" />
    <linearGradient
       inkscape:collect="always"
       xlink:href="#linearGradient3059"
       id="linearGradient3066"
       x1="22.54203"
       y1="1043.3966"
       x2="22.54203"
       y2="964.45898"
       gradientUnits="userSpaceOnUse" />
    <linearGradient
       inkscape:collect="always"
       xlink:href="#linearGradient3070"
       id="linearGradient3068"
       x1="53.796227"
       y1="1046.0226"
       x2="53.796227"
       y2="962.97437"
       gradientUnits="userSpaceOnUse" />
    <linearGradient
       inkscape:collect="always"
       xlink:href="#linearGradient3076"
       id="linearGradient3086"
       gradientUnits="userSpaceOnUse"
       gradientTransform="matrix(1.4144782,0,0,1.4144782,-119.78686,-417.12598)"
       x1="115.80308"
       y1="985.47241"
       x2="115.80308"
       y2="1025.3639" />
    <linearGradient
       inkscape:collect="always"
       xlink:href="#linearGradient3076"
       id="linearGradient3091"
       gradientUnits="userSpaceOnUse"
       gradientTransform="matrix(1.4144782,0,0,1.4144782,-119.78686,-418.126)"
       x1="115.80308"
       y1="985.47241"
       x2="115.80308"
       y2="1025.3639" />
    <linearGradient
       inkscape:collect="always"
       xlink:href="#linearGradient3076"
       id="linearGradient3093"
       gradientUnits="userSpaceOnUse"
       gradientTransform="matrix(1.4144782,0,0,1.4144782,-119.78686,-1375.4171)"
       x1="115.80308"
       y1="985.47241"
       x2="115.80308"
       y2="1025.3639" />
    <linearGradient
       inkscape:collect="always"
       xlink:href="#linearGradient3101"
       id="linearGradient3109"
       x1="1042.2887"
       y1="-53.590767"
       x2="964.11871"
       y2="-42.711437"
       gradientUnits="userSpaceOnUse"
       gradientTransform="translate(-956.36218,1052.3622)" />
  </defs>
  <sodipodi:namedview
     id="base"
     pagecolor="#ffffff"
     bordercolor="#666666"
     borderopacity="1.0"
     inkscape:pageopacity="0.0"
     inkscape:pageshadow="2"
     inkscape:zoom="1.754877"
     inkscape:cx="-82.500029"
     inkscape:cy="57.180378"
     inkscape:document-units="px"
     inkscape:current-layer="layer1"
     showgrid="false"
     inkscape:window-width="1366"
     inkscape:window-height="704"
     inkscape:window-x="0"
     inkscape:window-y="28"
     inkscape:window-maximized="1"
     showguides="true"
     inkscape:guide-bbox="true" />
  <metadata
     id="metadata7">
    <rdf:RDF>
      <cc:Work
         rdf:about="">
        <dc:format>image/svg+xml</dc:format>
        <dc:type
           rdf:resource="http://purl.org/dc/dcmitype/StillImage" />
        <dc:title />
      </cc:Work>
    </rdf:RDF>
  </metadata>
  <g
     inkscape:label="Layer 1"
     inkscape:groupmode="layer"
     id="layer1"
     transform="translate(0,-956.36218)">
    <rect
       style="opacity:0.05;fill:#000000;fill-opacity:1;stroke:none"
       id="rect3826"
       width="89"
       height="89"
       x="3.5"
       y="960.86218"
       rx="10.595235"
       ry="10.595235" />
    <g
       id="g3041">
      <rect
         style="opacity:0.05;fill:#000000;fill-opacity:1;stroke:none"
         id="rect3824"
         width="88"
         height="88"
         x="4"
         y="961.36218"
         rx="10.476188"
         ry="10.476188" />
      <rect
         ry="10.357141"
         rx="10.357141"
         y="961.86218"
         x="4.5"
         height="87"
         width="87"
         id="rect3822"
         style="opacity:0.05;fill:#000000;fill-opacity:1;stroke:none" />
      <rect
         style="opacity:0.1;fill:#000000;fill-opacity:1;stroke:none"
         id="rect3820"
         width="86"
         height="86"
         x="5"
         y="962.36218"
         rx="10.238094"
         ry="10.238094" />
      <rect
         ry="10.119047"
         rx="10.119047"
         y="962.86218"
         x="5.5"
         height="85"
         width="85"
         id="rect3818"
         style="opacity:0.1;fill:#000000;fill-opacity:1;stroke:none" />
      <rect
         style="opacity:0.3;fill:#000000;fill-opacity:1;stroke:none"
         id="rect3131"
         width="84"
         height="84"
         x="6"
         y="963.36218"
         rx="10"
         ry="10" />
    </g>
    <rect
       ry="10"
       rx="10"
       y="962.36218"
       x="6"
       height="84"
       width="84"
       id="rect3036"
       style="fill:url(#linearGradient3068);fill-opacity:1;stroke:none" />
    <rect
       style="fill:url(#linearGradient3066);fill-opacity:1;stroke:none"
       id="rect3034"
       width="82"
       height="82"
       x="7"
       y="963.36218"
       rx="9.7619047"
       ry="9.7619047" />
    <rect
       style="fill:url(#linearGradient3109);fill-opacity:1;stroke:none"
       id="rect3087"
       width="84"
       height="24"
       x="6"
       y="992.36218" />
    <rect
       style="opacity:0.15;fill:#000000;fill-opacity:1;stroke:none"
       id="rect3083"
       width="84"
       height="1"
       x="6"
       y="1003.3622" />
    <rect
       y="1004.3622"
       x="6"
       height="1"
       width="84"
       id="rect3085"
       style="opacity:0.15;fill:#ffffff;fill-opacity:1;stroke:none" />
    <rect
       style="opacity:0.15;fill:#ffffff;fill-opacity:1;stroke:none"
       id="rect3996"
       width="84"
       height="1"
       x="6"
       y="992.36218" />
    <g
       id="g4199"
       transform="translate(-0.10028076,-0.16602778)">
      <rect
         ry="0"
         rx="0"
         y="1025.4219"
         x="48.100281"
         height="13.106333"
         width="30.344007"
         id="rect4110"
         style="fill:#ffffff;fill-opacity:1;stroke:none" />
      <g
         transform="matrix(0.90719476,0,0,0.90719476,6.6730189,95.772729)"
         id="text4100"
         style="font-size:2.30694222px;font-style:normal;font-variant:normal;font-weight:normal;font-stretch:normal;line-height:125%;letter-spacing:0px;word-spacing:0px;fill:#333333;fill-opacity:1;stroke:none;font-family:Cantarell;-inkscape-font-specification:Cantarell">
        <path
           inkscape:connector-curvature="0"
           id="path4117"
           d="m 50.509834,1026.5478 0,1.601 0.191476,0 0,-1.601 -0.191476,0 m 0.895093,0 -0.678241,0.7797 0.715152,0.8213 0.246843,0 -0.719766,-0.8374 0.675934,-0.7636 -0.239922,0" />
        <path
           inkscape:connector-curvature="0"
           id="path4119"
           d="m 52.384945,1027.0184 c -0.161486,0 -0.286061,0.058 -0.376031,0.173 -0.08536,0.1154 -0.124575,0.2538 -0.124575,0.4199 0,0.3599 0.193783,0.5583 0.555973,0.5583 0.124575,0 0.244536,-0.021 0.357576,-0.06 l 0,-0.15 c -0.108426,0.035 -0.209932,0.055 -0.306824,0.055 -0.140723,0 -0.251456,-0.035 -0.316051,-0.1038 -0.06459,-0.069 -0.106119,-0.1592 -0.108426,-0.2653 l 0.763598,0 0.01154,-0.018 0,-0.1015 c 0,-0.3206 -0.163793,-0.5075 -0.456775,-0.5075 m 0.267605,0.4822 -0.581349,0 c 0.02076,-0.1777 0.115347,-0.3346 0.329893,-0.3346 0.17302,0 0.251456,0.1523 0.251456,0.3346" />
        <path
           inkscape:connector-curvature="0"
           id="path4121"
           d="m 53.55853,1027.173 c 0.242229,0 0.36219,0.1753 0.36219,0.4244 0,0.2469 -0.126882,0.4314 -0.364497,0.4314 -0.08536,0 -0.168407,-0.018 -0.24915,-0.053 l 0,-0.7336 c 0.07844,-0.044 0.138417,-0.069 0.251457,-0.069 m -0.251457,1.5779 0,-0.6275 c 0.08766,0.037 0.177635,0.055 0.267606,0.055 0.152258,0 0.27914,-0.053 0.380645,-0.1523 0.106119,-0.1038 0.161486,-0.2537 0.161486,-0.4452 0,-0.2307 -0.08074,-0.3922 -0.235308,-0.4914 -0.07844,-0.048 -0.170714,-0.074 -0.281447,-0.074 -0.110733,0 -0.214546,0.035 -0.313744,0.099 l -0.0346,-0.078 -0.13611,0 0,1.714 0.191476,0" />
        <path
           inkscape:connector-curvature="0"
           id="path4123"
           d="m 54.766755,1027.1799 c 0.138416,0 0.221466,0.044 0.253764,0.1315 0.01384,0.037 0.02076,0.092 0.02076,0.173 l 0,0.01 c -0.170714,0 -0.30913,0.021 -0.419864,0.048 -0.145337,0.039 -0.272219,0.1453 -0.272219,0.3299 0,0.1799 0.163793,0.3045 0.357576,0.3045 0.124575,0 0.237616,-0.046 0.341428,-0.1315 l 0.04153,0.1038 0.14303,0 0,-0.7221 c 0,-0.1822 -0.03922,-0.2653 -0.156872,-0.3437 -0.06229,-0.042 -0.159179,-0.062 -0.288368,-0.062 -0.129188,0 -0.253763,0.023 -0.373724,0.069 l 0,0.15 c 0.09458,-0.032 0.258377,-0.06 0.352962,-0.06 m -0.0323,0.8466 c -0.02768,0 -0.05537,0 -0.07613,-0.014 -0.0646,-0.03 -0.122268,-0.085 -0.122268,-0.1638 0,-0.028 0.0092,-0.053 0.02538,-0.081 0.03691,-0.06 0.0992,-0.097 0.184555,-0.1154 0.04614,-0.01 0.143031,-0.016 0.295289,-0.021 l 0,0.2653 c -0.08074,0.078 -0.173021,0.1292 -0.306823,0.1292" />
        <path
           inkscape:connector-curvature="0"
           id="path4125"
           d="m 56.049415,1028.0127 c -0.244536,0 -0.359883,-0.1753 -0.359883,-0.4245 0,-0.2468 0.115347,-0.4268 0.36219,-0.4268 0.08766,0 0.168407,0.014 0.24915,0.049 l 0,0.7336 c -0.07844,0.044 -0.138417,0.069 -0.251457,0.069 m -0.04153,0.1569 c 0.110733,0 0.216853,-0.035 0.316051,-0.099 l 0.0323,0.078 0.13611,0 0,-1.5456 -0.191476,0 0,0.459 c -0.08766,-0.037 -0.177635,-0.053 -0.267606,-0.053 -0.152258,0 -0.27914,0.048 -0.380645,0.1476 -0.106119,0.1061 -0.159179,0.2561 -0.159179,0.4476 0,0.3322 0.173021,0.5652 0.514448,0.5652" />
        <path
           inkscape:connector-curvature="0"
           id="path4127"
           d="m 57.190846,1027.1799 c 0.138417,0 0.221467,0.044 0.253764,0.1315 0.01384,0.037 0.02076,0.092 0.02076,0.173 l 0,0.01 c -0.170714,0 -0.309131,0.021 -0.419864,0.048 -0.145337,0.039 -0.272219,0.1453 -0.272219,0.3299 0,0.1799 0.163793,0.3045 0.357576,0.3045 0.124575,0 0.237615,-0.046 0.341427,-0.1315 l 0.04153,0.1038 0.143031,0 0,-0.7221 c 0,-0.1822 -0.03922,-0.2653 -0.156872,-0.3437 -0.06229,-0.042 -0.159179,-0.062 -0.288368,-0.062 -0.129189,0 -0.253764,0.023 -0.373725,0.069 l 0,0.15 c 0.09458,-0.032 0.258378,-0.06 0.352962,-0.06 m -0.0323,0.8466 c -0.02768,0 -0.05537,0 -0.07613,-0.014 -0.06459,-0.03 -0.122268,-0.085 -0.122268,-0.1638 0,-0.028 0.0092,-0.053 0.02538,-0.081 0.03691,-0.06 0.0992,-0.097 0.184555,-0.1154 0.04614,-0.01 0.143031,-0.016 0.295289,-0.021 l 0,0.2653 c -0.08074,0.078 -0.173021,0.1292 -0.306824,0.1292" />
        <path
           inkscape:connector-curvature="0"
           id="path4129"
           d="m 51.679453,1031.0325 -0.546745,-1.601 -0.235308,0 -0.544438,1.601 0.198397,0 0.152258,-0.466 0.609033,0 0.152258,0.466 0.214545,0 m -0.67132,-1.398 0.24915,0.7636 -0.4983,0 0.24915,-0.7636" />
        <path
           inkscape:connector-curvature="0"
           id="path4131"
           d="m 52.386243,1030.8964 c -0.244536,0 -0.359883,-0.1754 -0.359883,-0.4245 0,-0.2468 0.115347,-0.4268 0.36219,-0.4268 0.08766,0 0.168407,0.014 0.24915,0.048 l 0,0.7336 c -0.07844,0.044 -0.138417,0.069 -0.251457,0.069 m -0.04153,0.1568 c 0.110733,0 0.216853,-0.035 0.316051,-0.099 l 0.0323,0.079 0.13611,0 0,-1.5457 -0.191476,0 0,0.4591 c -0.08766,-0.037 -0.177635,-0.053 -0.267606,-0.053 -0.152258,0 -0.27914,0.048 -0.380645,0.1476 -0.106119,0.1061 -0.159179,0.2561 -0.159179,0.4475 0,0.3322 0.173021,0.5652 0.514448,0.5652" />
        <path
           inkscape:connector-curvature="0"
           id="path4133"
           d="m 54.487363,1030.3243 0,0.7082 0.191476,0 0,-0.7544 c 0,-0.2238 -0.117654,-0.3829 -0.350655,-0.3829 -0.149951,0 -0.265299,0.067 -0.378339,0.1453 -0.05767,-0.083 -0.156872,-0.1453 -0.288368,-0.1453 -0.04845,0 -0.0992,0.01 -0.154565,0.023 -0.04614,0.014 -0.108426,0.042 -0.184555,0.09 l -0.03691,-0.088 -0.133803,0 0,1.112 0.191476,0 0,-0.8974 c 0.0992,-0.055 0.186863,-0.085 0.258378,-0.085 0.156872,0 0.219159,0.1038 0.219159,0.2746 l 0,0.7082 0.18917,0 0,-0.7544 c 0,-0.053 -0.0023,-0.097 -0.01153,-0.1292 0.108426,-0.065 0.191476,-0.099 0.269912,-0.099 0.154565,0 0.21916,0.1038 0.21916,0.2746" />
        <path
           inkscape:connector-curvature="0"
           id="path4135"
           d="m 54.989988,1029.9205 0,1.112 0.191476,0 0,-1.112 -0.191476,0 m 0,-0.4337 0,0.1915 0.191476,0 0,-0.1915 -0.191476,0" />
        <path
           inkscape:connector-curvature="0"
           id="path4137"
           d="m 56.24637,1030.3243 0,0.7082 0.191476,0 0,-0.7544 c 0,-0.2353 -0.124575,-0.3806 -0.364497,-0.3806 -0.117654,0 -0.253763,0.037 -0.394487,0.1107 l -0.03691,-0.088 -0.133803,0 0,1.112 0.191477,0 0,-0.8951 c 0.11304,-0.053 0.219159,-0.081 0.306823,-0.081 0.179941,0 0.239922,0.083 0.239922,0.2677" />
        <path
           inkscape:connector-curvature="0"
           id="path4139"
           d="m 56.747229,1029.9205 0,1.112 0.191476,0 0,-1.112 -0.191476,0 m 0,-0.4337 0,0.1915 0.191476,0 0,-0.1915 -0.191476,0" />
        <path
           inkscape:connector-curvature="0"
           id="path4141"
           d="m 57.618352,1030.8987 c -0.13611,0 -0.267606,-0.028 -0.39218,-0.076 l 0,0.1685 c 0.101505,0.044 0.237615,0.065 0.408328,0.065 0.170714,0 0.292982,-0.051 0.369111,-0.1477 0.03922,-0.048 0.05767,-0.1107 0.05767,-0.1707 0,-0.072 -0.01615,-0.1246 -0.06459,-0.1776 -0.04153,-0.046 -0.07844,-0.083 -0.230694,-0.1385 l -0.170714,-0.062 c -0.05075,-0.018 -0.08536,-0.037 -0.101505,-0.048 -0.03922,-0.025 -0.0669,-0.044 -0.0669,-0.1107 0,-0.023 0.01153,-0.048 0.03691,-0.071 0.05998,-0.055 0.138416,-0.072 0.239922,-0.072 0.14303,0 0.244536,0.065 0.295288,0.088 l 0,-0.1546 c -0.101505,-0.048 -0.170714,-0.078 -0.311437,-0.081 l -0.0092,0 c -0.08305,0 -0.161486,0.014 -0.233001,0.041 -0.110733,0.044 -0.209932,0.1223 -0.209932,0.2746 0,0.1753 0.149952,0.2306 0.239922,0.2722 l 0.173021,0.067 c 0.05537,0.021 0.11304,0.048 0.149951,0.074 0.04383,0.03 0.06459,0.062 0.06459,0.1061 0,0.1107 -0.122268,0.1546 -0.244536,0.1546" />
        <path
           inkscape:connector-curvature="0"
           id="path4143"
           d="m 58.72071,1031.0532 c 0.07844,0 0.159179,-0.014 0.244536,-0.042 l 0,-0.1407 c -0.05998,0.016 -0.122268,0.025 -0.18917,0.025 -0.14303,0 -0.175327,-0.076 -0.175327,-0.2238 l 0,-0.5975 0.364497,0 0,-0.1569 -0.364497,0 0,-0.286 -0.191476,0.01 0,0.2768 -0.186863,0 0,0.1569 0.186863,0 0,0.6113 c 0,0.2353 0.08074,0.3668 0.311437,0.3668" />
        <path
           inkscape:connector-curvature="0"
           id="path4145"
           d="m 59.691824,1029.9021 c -0.108426,0 -0.209932,0.037 -0.30913,0.113 l -0.03691,-0.092 -0.138417,0 0,1.1097 0.191476,0 0,-0.8836 c 0.08074,-0.053 0.163793,-0.081 0.237616,-0.081 0.07152,0 0.126881,0.014 0.184555,0.037 l 0.02307,0 0,-0.1823 c -0.04845,-0.014 -0.0992,-0.021 -0.152258,-0.021" />
        <path
           inkscape:connector-curvature="0"
           id="path4147"
           d="m 60.439489,1030.0636 c 0.138417,0 0.221467,0.044 0.253764,0.1315 0.01384,0.037 0.02076,0.092 0.02076,0.173 l 0,0.01 c -0.170713,0 -0.30913,0.021 -0.419863,0.048 -0.145337,0.039 -0.272219,0.1453 -0.272219,0.3298 0,0.18 0.163793,0.3046 0.357576,0.3046 0.124575,0 0.237615,-0.046 0.341427,-0.1315 l 0.04153,0.1038 0.143031,0 0,-0.7221 c 0,-0.1822 -0.03922,-0.2653 -0.156872,-0.3437 -0.06229,-0.042 -0.15918,-0.062 -0.288368,-0.062 -0.129189,0 -0.253764,0.023 -0.373725,0.069 l 0,0.1499 c 0.09459,-0.032 0.258378,-0.06 0.352962,-0.06 m -0.0323,0.8466 c -0.02768,0 -0.05537,0 -0.07613,-0.014 -0.06459,-0.03 -0.122268,-0.085 -0.122268,-0.1638 0,-0.028 0.0092,-0.053 0.02538,-0.081 0.03691,-0.06 0.0992,-0.097 0.184556,-0.1153 0.04614,-0.01 0.14303,-0.016 0.295288,-0.021 l 0,0.2653 c -0.08074,0.079 -0.17302,0.1292 -0.306823,0.1292" />
        <path
           inkscape:connector-curvature="0"
           id="path4149"
           d="m 61.599882,1031.0532 c 0.07844,0 0.159179,-0.014 0.244536,-0.042 l 0,-0.1407 c -0.05998,0.016 -0.122268,0.025 -0.189169,0.025 -0.143031,0 -0.175328,-0.076 -0.175328,-0.2238 l 0,-0.5975 0.364497,0 0,-0.1569 -0.364497,0 0,-0.286 -0.191476,0.01 0,0.2768 -0.186862,0 0,0.1569 0.186862,0 0,0.6113 c 0,0.2353 0.08074,0.3668 0.311437,0.3668" />
        <path
           inkscape:connector-curvature="0"
           id="path4151"
           d="m 62.57561,1030.0497 c 0.22608,0 0.343735,0.1915 0.343735,0.4291 0,0.2376 -0.115348,0.4268 -0.343735,0.4268 -0.22608,0 -0.343734,-0.1915 -0.343734,-0.4268 0,-0.2353 0.119961,-0.4291 0.343734,-0.4291 m -0.0046,1.0059 c 0.341428,0 0.544439,-0.2331 0.544439,-0.5791 0,-0.3483 -0.193784,-0.5744 -0.537518,-0.5744 -0.341427,0 -0.542131,0.2284 -0.542131,0.5767 0,0.3461 0.193783,0.5768 0.53521,0.5768" />
        <path
           inkscape:connector-curvature="0"
           id="path4153"
           d="m 63.873157,1029.9021 c -0.108426,0 -0.209932,0.037 -0.309131,0.113 l -0.03691,-0.092 -0.138416,0 0,1.1097 0.191476,0 0,-0.8836 c 0.08074,-0.053 0.163793,-0.081 0.237615,-0.081 0.07151,0 0.126882,0.014 0.184555,0.037 l 0.02307,0 0,-0.1823 c -0.04845,-0.014 -0.0992,-0.021 -0.152258,-0.021" />
        <path
           inkscape:connector-curvature="0"
           id="path4155"
           d="m 65.306994,1030.202 c -0.05998,0 -0.129189,0 -0.205318,-0.01 l 0,-0.5929 0.207625,0 c 0.103812,0 0.170713,0 0.200703,0.01 0.159179,0.016 0.267606,0.113 0.267606,0.2861 0,0.2814 -0.209932,0.3091 -0.470616,0.3091 m 0.664399,-0.293 c 0,-0.2261 -0.110733,-0.3853 -0.297596,-0.4475 -0.03922,-0.012 -0.08536,-0.03 -0.260684,-0.03 l -0.502913,0 0,1.601 0.191476,0 0,-0.669 c 0.0669,0 0.131495,0.01 0.191476,0.01 0.133802,0 0.297596,-0.016 0.380645,-0.044 0.170714,-0.058 0.290675,-0.2054 0.297596,-0.4176" />
        <path
           inkscape:connector-curvature="0"
           id="path4157"
           d="m 67.470653,1029.4961 c -0.152258,-0.058 -0.272219,-0.085 -0.482151,-0.085 -0.233001,0 -0.461388,0.1061 -0.583656,0.2307 -0.126882,0.1315 -0.207625,0.3391 -0.207625,0.5883 0,0.2445 0.07382,0.4429 0.21916,0.5952 0.129188,0.1338 0.336813,0.2307 0.592884,0.2307 0.179941,0 0.33912,-0.032 0.482151,-0.097 l -0.04845,-0.1546 c -0.126882,0.051 -0.24915,0.076 -0.376032,0.076 -0.126881,0 -0.25607,-0.025 -0.352962,-0.081 -0.179941,-0.1038 -0.306823,-0.2999 -0.306823,-0.5721 0,-0.2723 0.101505,-0.466 0.281447,-0.5699 0.09689,-0.055 0.22608,-0.074 0.352962,-0.074 0.159179,0 0.24915,0.023 0.376031,0.069 l 0.05306,-0.1568" />
        <path
           inkscape:connector-curvature="0"
           id="path4159"
           d="m 50.807429,1033.7662 c -0.14303,0 -0.147644,-0.074 -0.147644,-0.1592 l 0,-1.2388 -0.184555,0 0,1.3057 c 0.0023,0.1569 0.09458,0.2653 0.239922,0.2653 0.108426,0 0.184555,-0.042 0.223773,-0.055 l 0,-0.1431 c -0.05075,0.016 -0.08766,0.025 -0.131496,0.025" />
        <path
           inkscape:connector-curvature="0"
           id="path4161"
           d="m 51.124057,1032.8042 0,1.112 0.191476,0 0,-1.112 -0.191476,0 m 0,-0.4337 0,0.1915 0.191476,0 0,-0.1915 -0.191476,0" />
        <path
           inkscape:connector-curvature="0"
           id="path4163"
           d="m 52.380439,1033.2079 0,0.7083 0.191477,0 0,-0.7544 c 0,-0.2353 -0.124575,-0.3807 -0.364497,-0.3807 -0.117654,0 -0.253764,0.037 -0.394487,0.1108 l -0.03691,-0.088 -0.133803,0 0,1.112 0.191476,0 0,-0.8951 c 0.11304,-0.053 0.21916,-0.081 0.306823,-0.081 0.179942,0 0.239922,0.083 0.239922,0.2676" />
        <path
           inkscape:connector-curvature="0"
           id="path4165"
           d="m 53.072775,1033.5171 0,-0.7083 -0.191477,0 0,0.7544 c 0,0.2353 0.126882,0.3806 0.366804,0.3806 0.117654,0 0.251457,-0.037 0.39218,-0.1107 l 0.03691,0.083 0.133803,0 0,-1.1074 -0.191476,0 0,0.8951 c -0.11304,0.053 -0.216853,0.081 -0.304517,0.081 -0.179941,0 -0.242228,-0.083 -0.242228,-0.2676" />
        <path
           inkscape:connector-curvature="0"
           id="path4167"
           d="m 54.267698,1032.8042 -0.221466,0 0.401408,0.5606 -0.389873,0.5514 0.209931,0 0.286061,-0.4084 0.288368,0.4084 0.228387,0 -0.396794,-0.556 0.403715,-0.556 -0.214546,0 -0.297595,0.4153 -0.297596,-0.4153" />
        <path
           inkscape:connector-curvature="0"
           id="path4169"
           d="m 55.279797,1033.0972 0,0.1546 0.669014,0 0,-0.1546 -0.669014,0" />
        <path
           inkscape:connector-curvature="0"
           id="path4171"
           d="m 56.095157,1032.3151 0.55828,1.6011 0.237615,0 0.55828,-1.6011 -0.212238,0 -0.456775,1.398 -0.456775,-1.398 -0.228387,0" />
        <path
           inkscape:connector-curvature="0"
           id="path4173"
           d="m 58.105477,1033.0764 c 0.170714,0 0.292982,0.012 0.387566,0.097 0.0669,0.062 0.0992,0.1477 0.0992,0.2515 0,0.1246 -0.0669,0.2007 -0.143031,0.2561 -0.09228,0.067 -0.228387,0.074 -0.33912,0.074 -0.140723,0 -0.246843,-0.037 -0.359883,-0.072 l -0.05306,0.1799 c 0.140724,0.051 0.306824,0.076 0.426785,0.076 0.07613,0 0.154565,-0.01 0.237615,-0.025 0.09228,-0.018 0.170713,-0.06 0.242229,-0.1177 0.117653,-0.099 0.179941,-0.2284 0.179941,-0.3968 0,-0.072 -0.01615,-0.1407 -0.04614,-0.2076 -0.08766,-0.1823 -0.256071,-0.2861 -0.549052,-0.2861 -0.06921,0 -0.147644,0.01 -0.235308,0.016 l 0,-0.4384 0.738221,0 0,-0.1684 -0.922777,0 0,0.789 c 0.01615,0 0.03461,0 0.05075,0 0.0992,-0.012 0.186863,-0.023 0.286061,-0.023" />
        <path
           inkscape:connector-curvature="0"
           id="path4175"
           d="m 59.064624,1033.0972 0,0.1546 0.669013,0 0,-0.1546 -0.669013,0" />
        <path
           inkscape:connector-curvature="0"
           id="path4177"
           d="m 60.717404,1032.3151 -0.21916,0 -0.343734,0.15 0.06921,0.1569 0.311438,-0.1269 0,1.2527 -0.399101,0 0,0.1684 0.952767,0 0,-0.1684 -0.371418,0 0,-1.4327" />
        <path
           inkscape:connector-curvature="0"
           id="path4179"
           d="m 62.391704,1033.4663 c 0,0.095 -0.04153,0.1684 -0.124575,0.2284 -0.08305,0.06 -0.170714,0.076 -0.272219,0.076 -0.124575,0 -0.281448,-0.048 -0.419864,-0.095 l -0.05537,0.1661 c 0.140724,0.051 0.30221,0.1062 0.486765,0.1062 0.156872,0 0.288368,-0.03 0.406022,-0.1292 0.117654,-0.099 0.170714,-0.21 0.170714,-0.3714 0,-0.2169 -0.152259,-0.353 -0.316051,-0.3968 0.122268,-0.06 0.242229,-0.1961 0.242229,-0.3761 0,-0.2399 -0.184556,-0.3783 -0.484458,-0.3783 -0.143031,0 -0.292982,0.039 -0.447547,0.1153 l 0.06229,0.1523 c 0.13611,-0.062 0.256071,-0.099 0.357576,-0.099 0.223774,0 0.320665,0.076 0.320665,0.233 0,0.058 -0.02538,0.1107 -0.06229,0.1546 -0.06921,0.083 -0.189169,0.1222 -0.378339,0.1291 l 0,0.1638 0.02307,0 c 0.262991,0 0.491379,0.092 0.491379,0.3207" />
        <path
           inkscape:connector-curvature="0"
           id="path4181"
           d="m 63.090167,1032.5735 c 0.152258,-0.058 0.233001,-0.1015 0.394487,-0.1015 0.239921,0 0.306823,0.1592 0.306823,0.293 0,0.1638 -0.147644,0.346 -0.373725,0.5883 l -0.406021,0.4198 0,0.1431 0.994292,0 0,-0.1684 -0.715152,0 0.28606,-0.293 c 0.200704,-0.2146 0.412943,-0.4614 0.412943,-0.7129 0,-0.2699 -0.214546,-0.4452 -0.482151,-0.4452 -0.216852,0 -0.316051,0.048 -0.482151,0.113 l 0.0646,0.1638" />
        <path
           inkscape:connector-curvature="0"
           id="path4183"
           d="m 50.98045,1036.6637 c -0.244536,0 -0.359883,-0.1753 -0.359883,-0.4244 0,-0.2469 0.115347,-0.4268 0.36219,-0.4268 0.08766,0 0.168407,0.014 0.24915,0.048 l 0,0.7336 c -0.07844,0.044 -0.138417,0.069 -0.251457,0.069 m -0.04153,0.1569 c 0.110733,0 0.216853,-0.035 0.316051,-0.099 l 0.0323,0.078 0.13611,0 0,-1.5456 -0.191476,0 0,0.4591 c -0.08766,-0.037 -0.177635,-0.053 -0.267606,-0.053 -0.152258,0 -0.27914,0.048 -0.380645,0.1477 -0.106119,0.1061 -0.159179,0.256 -0.159179,0.4475 0,0.3322 0.173021,0.5652 0.514448,0.5652" />
        <path
           inkscape:connector-curvature="0"
           id="path4185"
           d="m 51.74585,1035.6879 0,1.1119 0.191476,0 0,-1.1119 -0.191476,0 m 0,-0.4337 0,0.1915 0.191476,0 0,-0.1915 -0.191476,0" />
        <path
           inkscape:connector-curvature="0"
           id="path4187"
           d="m 53.277768,1036.8206 c 0.07844,0 0.159179,-0.014 0.244536,-0.042 l 0,-0.1407 c -0.05998,0.016 -0.122268,0.025 -0.189169,0.025 -0.143031,0 -0.175328,-0.076 -0.175328,-0.2237 l 0,-0.5975 0.364497,0 0,-0.1569 -0.364497,0 0,-0.2861 -0.191476,0.01 0,0.2768 -0.186863,0 0,0.1569 0.186863,0 0,0.6113 c 0,0.2353 0.08074,0.3668 0.311437,0.3668" />
        <path
           inkscape:connector-curvature="0"
           id="path4189"
           d="m 54.214278,1035.6694 c -0.161485,0 -0.286061,0.058 -0.376031,0.1731 -0.08536,0.1153 -0.124575,0.2537 -0.124575,0.4198 0,0.3599 0.193783,0.5583 0.555973,0.5583 0.124575,0 0.244536,-0.021 0.357576,-0.06 l 0,-0.1499 c -0.108426,0.035 -0.209932,0.055 -0.306823,0.055 -0.140724,0 -0.251457,-0.035 -0.316051,-0.1038 -0.0646,-0.069 -0.10612,-0.1592 -0.108427,-0.2653 l 0.763598,0 0.01154,-0.018 0,-0.1015 c 0,-0.3207 -0.163793,-0.5076 -0.456775,-0.5076 m 0.267606,0.4822 -0.58135,0 c 0.02076,-0.1776 0.115348,-0.3345 0.329893,-0.3345 0.17302,0 0.251457,0.1522 0.251457,0.3345" />
        <path
           inkscape:connector-curvature="0"
           id="path4191"
           d="m 56.28065,1036.0916 0,0.7082 0.191476,0 0,-0.7543 c 0,-0.2238 -0.117654,-0.383 -0.350655,-0.383 -0.149951,0 -0.265299,0.067 -0.378339,0.1454 -0.05767,-0.083 -0.156872,-0.1454 -0.288367,-0.1454 -0.04845,0 -0.0992,0.01 -0.154566,0.023 -0.04614,0.014 -0.108426,0.042 -0.184555,0.09 l -0.03691,-0.088 -0.133803,0 0,1.1119 0.191477,0 0,-0.8974 c 0.0992,-0.055 0.186862,-0.085 0.258377,-0.085 0.156872,0 0.21916,0.1038 0.21916,0.2745 l 0,0.7082 0.189169,0 0,-0.7543 c 0,-0.053 -0.0023,-0.097 -0.01154,-0.1292 0.108426,-0.065 0.191476,-0.099 0.269912,-0.099 0.154565,0 0.21916,0.1038 0.21916,0.2745" />
        <path
           inkscape:connector-curvature="0"
           id="path4193"
           d="m 57.226208,1035.824 c 0.242229,0 0.36219,0.1753 0.36219,0.4245 0,0.2468 -0.126882,0.4314 -0.364497,0.4314 -0.08536,0 -0.168407,-0.019 -0.24915,-0.053 l 0,-0.7336 c 0.07844,-0.044 0.138417,-0.069 0.251457,-0.069 m -0.251457,1.5779 0,-0.6274 c 0.08766,0.037 0.177635,0.055 0.267605,0.055 0.152258,0 0.279141,-0.053 0.380646,-0.1522 0.106119,-0.1038 0.161486,-0.2538 0.161486,-0.4453 0,-0.2307 -0.08074,-0.3922 -0.235308,-0.4913 -0.07844,-0.048 -0.170714,-0.074 -0.281447,-0.074 -0.110733,0 -0.214546,0.035 -0.313744,0.099 l -0.0346,-0.078 -0.13611,0 0,1.714 0.191476,0" />
        <path
           inkscape:connector-curvature="0"
           id="path4195"
           d="m 58.434432,1035.8309 c 0.138417,0 0.221467,0.044 0.253764,0.1315 0.01384,0.037 0.02076,0.092 0.02076,0.173 l 0,0.01 c -0.170714,0 -0.309131,0.021 -0.419864,0.048 -0.145337,0.039 -0.272219,0.1453 -0.272219,0.3299 0,0.1799 0.163793,0.3045 0.357576,0.3045 0.124575,0 0.237615,-0.046 0.341427,-0.1315 l 0.04153,0.1038 0.143031,0 0,-0.722 c 0,-0.1823 -0.03922,-0.2653 -0.156872,-0.3438 -0.06229,-0.041 -0.159179,-0.062 -0.288368,-0.062 -0.129189,0 -0.253764,0.023 -0.373725,0.069 l 0,0.1499 c 0.09458,-0.032 0.258378,-0.06 0.352962,-0.06 m -0.0323,0.8467 c -0.02768,0 -0.05537,0 -0.07613,-0.014 -0.06459,-0.03 -0.122268,-0.085 -0.122268,-0.1638 0,-0.028 0.0092,-0.053 0.02538,-0.081 0.03691,-0.06 0.0992,-0.097 0.184555,-0.1154 0.04614,-0.01 0.143031,-0.016 0.295289,-0.021 l 0,0.2653 c -0.08074,0.078 -0.173021,0.1292 -0.306824,0.1292" />
        <path
           inkscape:connector-curvature="0"
           id="path4197"
           d="m 59.594825,1036.8206 c 0.07844,0 0.159179,-0.014 0.244536,-0.042 l 0,-0.1407 c -0.05998,0.016 -0.122268,0.025 -0.18917,0.025 -0.14303,0 -0.175327,-0.076 -0.175327,-0.2237 l 0,-0.5975 0.364497,0 0,-0.1569 -0.364497,0 0,-0.2861 -0.191476,0.01 0,0.2768 -0.186863,0 0,0.1569 0.186863,0 0,0.6113 c 0,0.2353 0.08074,0.3668 0.311437,0.3668" />
      </g>
    </g>
  </g>
</svg>
