<?xml version="1.0" encoding="UTF-8" standalone="no"?>
<!-- Created with Inkscape (http://www.inkscape.org/) -->

<svg
   xmlns:dc="http://purl.org/dc/elements/1.1/"
   xmlns:cc="http://creativecommons.org/ns#"
   xmlns:rdf="http://www.w3.org/1999/02/22-rdf-syntax-ns#"
   xmlns:svg="http://www.w3.org/2000/svg"
   xmlns="http://www.w3.org/2000/svg"
   xmlns:xlink="http://www.w3.org/1999/xlink"
   xmlns:sodipodi="http://sodipodi.sourceforge.net/DTD/sodipodi-0.dtd"
   xmlns:inkscape="http://www.inkscape.org/namespaces/inkscape"
   width="96"
   height="96"
   id="svg2"
   version="1.1"
   inkscape:version="0.48.4 r9939"
   sodipodi:docname="gnome-documents.svg">
  <defs
     id="defs4">
    <linearGradient
       id="linearGradient3120"
       inkscape:collect="always">
      <stop
         id="stop3122"
         offset="0"
         style="stop-color:#cf7e2c;stop-opacity:1" />
      <stop
         style="stop-color:#e79231;stop-opacity:1"
         offset="0.46720874"
         id="stop3124" />
      <stop
         id="stop3126"
         offset="1"
         style="stop-color:#de8e31;stop-opacity:1" />
    </linearGradient>
    <linearGradient
       inkscape:collect="always"
       id="linearGradient3333">
      <stop
         style="stop-color:#ef9639;stop-opacity:1"
         offset="0"
         id="stop3335" />
      <stop
         id="stop3337"
         offset="0.46720874"
         style="stop-color:#e79231;stop-opacity:1" />
      <stop
         style="stop-color:#de8e31;stop-opacity:1"
         offset="1"
         id="stop3339" />
    </linearGradient>
    <linearGradient
       id="linearGradient3285"
       inkscape:collect="always">
      <stop
         id="stop3287"
         offset="0"
         style="stop-color:#de9252;stop-opacity:1" />
      <stop
         style="stop-color:#efab63;stop-opacity:1;"
         offset="0.05954358"
         id="stop3291" />
      <stop
         id="stop3289"
         offset="1"
         style="stop-color:#ffbe73;stop-opacity:1" />
    </linearGradient>
    <linearGradient
       inkscape:collect="always"
       id="linearGradient3220">
      <stop
         style="stop-color:#d68639;stop-opacity:1"
         offset="0"
         id="stop3222" />
      <stop
         style="stop-color:#fdce94;stop-opacity:1"
         offset="1"
         id="stop3224" />
    </linearGradient>
    <linearGradient
       inkscape:collect="always"
       id="linearGradient3205">
      <stop
         style="stop-color:#efaa63;stop-opacity:1"
         offset="0"
         id="stop3207" />
      <stop
         style="stop-color:#ffbe73;stop-opacity:1"
         offset="1"
         id="stop3209" />
    </linearGradient>
    <linearGradient
       inkscape:collect="always"
       id="linearGradient3155">
      <stop
         style="stop-color:#cccccc;stop-opacity:1"
         offset="0"
         id="stop3157" />
      <stop
         style="stop-color:#fffbff;stop-opacity:1"
         offset="1"
         id="stop3159" />
    </linearGradient>
    <linearGradient
       inkscape:collect="always"
       id="linearGradient3147">
      <stop
         style="stop-color:#fff3ff;stop-opacity:1"
         offset="0"
         id="stop3149" />
      <stop
         style="stop-color:#fffbff;stop-opacity:1"
         offset="1"
         id="stop3151" />
    </linearGradient>
    <linearGradient
       id="linearGradient3095"
       inkscape:collect="always">
      <stop
         id="stop3097"
         offset="0"
         style="stop-color:#cd7c29;stop-opacity:1" />
      <stop
         id="stop3099"
         offset="1"
         style="stop-color:#ed995a;stop-opacity:1" />
    </linearGradient>
    <linearGradient
       inkscape:collect="always"
       id="linearGradient3082">
      <stop
         style="stop-color:#de8a21;stop-opacity:1"
         offset="0"
         id="stop3084" />
      <stop
         style="stop-color:#e99533;stop-opacity:1"
         offset="1"
         id="stop3086" />
    </linearGradient>
    <linearGradient
       inkscape:collect="always"
       id="linearGradient3048">
      <stop
         style="stop-color:#c16d16;stop-opacity:1"
         offset="0"
         id="stop3050" />
      <stop
         style="stop-color:#ff8e31;stop-opacity:1"
         offset="1"
         id="stop3052" />
    </linearGradient>
    <linearGradient
       inkscape:collect="always"
       id="linearGradient3119">
      <stop
         style="stop-color:#92948f;stop-opacity:0"
         offset="0"
         id="stop3121" />
      <stop
         id="stop3123"
         offset="0.4283945"
         style="stop-color:#9b9e98;stop-opacity:1" />
      <stop
         style="stop-color:#939690;stop-opacity:0"
         offset="1"
         id="stop3125" />
    </linearGradient>
    <linearGradient
       id="linearGradient3073"
       inkscape:collect="always">
      <stop
         id="stop3075"
         offset="0"
         style="stop-color:#ffffff;stop-opacity:0" />
      <stop
         style="stop-color:#ffffff;stop-opacity:1"
         offset="0.45872402"
         id="stop3085" />
      <stop
         id="stop3083"
         offset="1"
         style="stop-color:#ffffff;stop-opacity:0" />
    </linearGradient>
    <linearGradient
       inkscape:collect="always"
       id="linearGradient3047">
      <stop
         style="stop-color:#000000;stop-opacity:1"
         offset="0"
         id="stop3049" />
      <stop
         id="stop3055"
         offset="0.06123874"
         style="stop-color:#1a1a1a;stop-opacity:1" />
      <stop
         style="stop-color:#333333;stop-opacity:1"
         offset="0.16480456"
         id="stop3057" />
      <stop
         id="stop3059"
         offset="0.55385184"
         style="stop-color:#4d4d4d;stop-opacity:1" />
      <stop
         style="stop-color:#999999;stop-opacity:1"
         offset="1"
         id="stop3051" />
    </linearGradient>
    <linearGradient
       id="linearGradient3041"
       inkscape:collect="always">
      <stop
         id="stop3043"
         offset="0"
         style="stop-color:#1a1a1a;stop-opacity:1" />
      <stop
         id="stop3045"
         offset="1"
         style="stop-color:#808080;stop-opacity:1" />
    </linearGradient>
    <linearGradient
       inkscape:collect="always"
       id="linearGradient3029">
      <stop
         style="stop-color:#333333;stop-opacity:1"
         offset="0"
         id="stop3031" />
      <stop
         style="stop-color:#e0e0dd;stop-opacity:0;"
         offset="1"
         id="stop3033" />
    </linearGradient>
    <linearGradient
       inkscape:collect="always"
       xlink:href="#linearGradient3029"
       id="linearGradient3035"
       x1="35.355339"
       y1="1030.3622"
       x2="35.355339"
       y2="975.33282"
       gradientUnits="userSpaceOnUse"
       gradientTransform="matrix(1.1638085,0,0,1.1638085,-7.862809,-164.23642)" />
    <linearGradient
       inkscape:collect="always"
       xlink:href="#linearGradient3041"
       id="linearGradient3039"
       gradientUnits="userSpaceOnUse"
       x1="35.355339"
       y1="1030.3622"
       x2="35.355339"
       y2="975.33282"
       gradientTransform="matrix(1.1218695,0,0,1.1218695,-5.8497348,-122.18782)" />
    <linearGradient
       inkscape:collect="always"
       xlink:href="#linearGradient3047"
       id="linearGradient3053"
       x1="40"
       y1="1043.4336"
       x2="39.285713"
       y2="972.33325"
       gradientUnits="userSpaceOnUse" />
    <linearGradient
       inkscape:collect="always"
       xlink:href="#linearGradient3073"
       id="linearGradient3113"
       gradientUnits="userSpaceOnUse"
       gradientTransform="translate(0,-956.36218)"
       x1="14.869445"
       y1="978.90387"
       x2="24.52651"
       y2="969.24683" />
    <linearGradient
       inkscape:collect="always"
       xlink:href="#linearGradient3073"
       id="linearGradient3115"
       gradientUnits="userSpaceOnUse"
       gradientTransform="matrix(-1,0,0,1,96,-956.36218)"
       x1="15.152279"
       y1="978.62103"
       x2="26.263966"
       y2="967.50934" />
    <linearGradient
       inkscape:collect="always"
       xlink:href="#linearGradient3119"
       id="linearGradient3117"
       gradientUnits="userSpaceOnUse"
       gradientTransform="translate(0,-956.36218)"
       x1="13.131983"
       y1="980.64136"
       x2="25.549681"
       y2="967.86646" />
    <linearGradient
       inkscape:collect="always"
       xlink:href="#linearGradient3119"
       id="linearGradient3129"
       gradientUnits="userSpaceOnUse"
       gradientTransform="matrix(-1,0,0,1,96,0)"
       x1="13.131983"
       y1="980.64136"
       x2="25.549681"
       y2="967.86646" />
    <linearGradient
       inkscape:collect="always"
       xlink:href="#linearGradient3048"
       id="linearGradient3054"
       x1="49.267925"
       y1="996.57349"
       x2="49.267925"
       y2="1045.8627"
       gradientUnits="userSpaceOnUse" />
    <linearGradient
       inkscape:collect="always"
       xlink:href="#linearGradient3048"
       id="linearGradient3077"
       x1="-29.961773"
       y1="1002.8451"
       x2="-29.961773"
       y2="1032.9509"
       gradientUnits="userSpaceOnUse"
       gradientTransform="translate(12.135849,-0.9056604)" />
    <linearGradient
       inkscape:collect="always"
       xlink:href="#linearGradient3048"
       id="linearGradient3088"
       gradientUnits="userSpaceOnUse"
       gradientTransform="translate(12.135849,-0.9056604)"
       x1="-29.961773"
       y1="1002.8451"
       x2="-29.961773"
       y2="1032.9509" />
    <linearGradient
       inkscape:collect="always"
       xlink:href="#linearGradient3048"
       id="linearGradient3092"
       gradientUnits="userSpaceOnUse"
       gradientTransform="matrix(1.0312233,0,0,1.0312233,88.110185,-39.476681)"
       x1="-29.961773"
       y1="1002.8451"
       x2="-29.961773"
       y2="1032.9509" />
    <linearGradient
       inkscape:collect="always"
       xlink:href="#linearGradient3048"
       id="linearGradient3101"
       gradientUnits="userSpaceOnUse"
       gradientTransform="matrix(1.0312233,0,0,1.0312233,88.110185,-39.476681)"
       x1="-29.961773"
       y1="1002.8451"
       x2="-29.961773"
       y2="1032.9509" />
    <linearGradient
       inkscape:collect="always"
       xlink:href="#linearGradient3048"
       id="linearGradient3105"
       gradientUnits="userSpaceOnUse"
       gradientTransform="matrix(1.0312233,0,0,1.0312233,89.610518,-39.476681)"
       x1="-29.961773"
       y1="1002.8451"
       x2="-29.961773"
       y2="1044.0049" />
    <linearGradient
       inkscape:collect="always"
       xlink:href="#linearGradient3082"
       id="linearGradient3090"
       x1="53.025005"
       y1="1032.3817"
       x2="53.025005"
       y2="973.79565"
       gradientUnits="userSpaceOnUse" />
    <linearGradient
       inkscape:collect="always"
       xlink:href="#linearGradient3095"
       id="linearGradient3093"
       x1="6.5207548"
       y1="1037.5094"
       x2="6.5207548"
       y2="964.87518"
       gradientUnits="userSpaceOnUse" />
    <linearGradient
       inkscape:collect="always"
       xlink:href="#linearGradient3147"
       id="linearGradient3153"
       x1="-58.976463"
       y1="8.6096468"
       x2="-58.976463"
       y2="21.734367"
       gradientUnits="userSpaceOnUse" />
    <linearGradient
       inkscape:collect="always"
       xlink:href="#linearGradient3155"
       id="linearGradient3161"
       x1="-58.1334"
       y1="8.6621637"
       x2="-58.1334"
       y2="21.13158"
       gradientUnits="userSpaceOnUse" />
    <linearGradient
       inkscape:collect="always"
       xlink:href="#linearGradient3147"
       id="linearGradient3169"
       gradientUnits="userSpaceOnUse"
       x1="-58.976463"
       y1="8.6096468"
       x2="-58.976463"
       y2="21.734367" />
    <linearGradient
       inkscape:collect="always"
       xlink:href="#linearGradient3155"
       id="linearGradient3171"
       gradientUnits="userSpaceOnUse"
       x1="-58.1334"
       y1="8.6621637"
       x2="-58.1334"
       y2="21.13158" />
    <linearGradient
       inkscape:collect="always"
       xlink:href="#linearGradient3205"
       id="linearGradient3211"
       x1="49.811321"
       y1="23.909431"
       x2="49.811321"
       y2="7.2442966"
       gradientUnits="userSpaceOnUse" />
    <linearGradient
       inkscape:collect="always"
       xlink:href="#linearGradient3220"
       id="linearGradient3226"
       x1="89.38868"
       y1="16.301886"
       x2="89.38868"
       y2="14.895193"
       gradientUnits="userSpaceOnUse" />
    <linearGradient
       inkscape:collect="always"
       xlink:href="#linearGradient3285"
       id="linearGradient3245"
       gradientUnits="userSpaceOnUse"
       x1="77.989586"
       y1="25.744297"
       x2="77.989586"
       y2="7.527349" />
    <linearGradient
       inkscape:collect="always"
       xlink:href="#linearGradient3220"
       id="linearGradient3253"
       gradientUnits="userSpaceOnUse"
       x1="89.38868"
       y1="16.301886"
       x2="89.38868"
       y2="14.895193"
       gradientTransform="translate(0,957.36218)" />
    <linearGradient
       inkscape:collect="always"
       xlink:href="#linearGradient3220"
       id="linearGradient3255"
       gradientUnits="userSpaceOnUse"
       x1="89.38868"
       y1="16.301886"
       x2="89.38868"
       y2="14.895193" />
    <linearGradient
       inkscape:collect="always"
       xlink:href="#linearGradient3147"
       id="linearGradient3262"
       gradientUnits="userSpaceOnUse"
       x1="-58.976463"
       y1="8.6096468"
       x2="-58.976463"
       y2="21.734367" />
    <linearGradient
       inkscape:collect="always"
       xlink:href="#linearGradient3155"
       id="linearGradient3264"
       gradientUnits="userSpaceOnUse"
       x1="-58.1334"
       y1="8.6621637"
       x2="-58.1334"
       y2="21.13158" />
    <linearGradient
       inkscape:collect="always"
       xlink:href="#linearGradient3205"
       id="linearGradient3321"
       gradientUnits="userSpaceOnUse"
       x1="49.811321"
       y1="23.909431"
       x2="49.811321"
       y2="7.2442966"
       gradientTransform="matrix(1,0,0,-1,0,1052.3617)" />
    <linearGradient
       inkscape:collect="always"
       xlink:href="#linearGradient3333"
       id="linearGradient3323"
       gradientUnits="userSpaceOnUse"
       x1="77.989586"
       y1="25.744297"
       x2="77.989586"
       y2="7.527349"
       gradientTransform="matrix(1,0,0,-1,0,1052.3617)" />
    <linearGradient
       inkscape:collect="always"
       xlink:href="#linearGradient3220"
       id="linearGradient3325"
       gradientUnits="userSpaceOnUse"
       x1="89.38868"
       y1="16.301886"
       x2="89.38868"
       y2="14.895193"
       gradientTransform="matrix(1,0,0,-1,0,1052.3617)" />
    <linearGradient
       inkscape:collect="always"
       xlink:href="#linearGradient3147"
       id="linearGradient3327"
       gradientUnits="userSpaceOnUse"
       x1="-58.976463"
       y1="8.6096468"
       x2="-58.976463"
       y2="21.734367" />
    <linearGradient
       inkscape:collect="always"
       xlink:href="#linearGradient3155"
       id="linearGradient3329"
       gradientUnits="userSpaceOnUse"
       x1="-58.1334"
       y1="8.6621637"
       x2="-58.1334"
       y2="21.13158" />
    <linearGradient
       inkscape:collect="always"
       xlink:href="#linearGradient3147"
       id="linearGradient3356"
       gradientUnits="userSpaceOnUse"
       x1="-58.976463"
       y1="8.6096468"
       x2="-58.976463"
       y2="21.734367" />
    <linearGradient
       inkscape:collect="always"
       xlink:href="#linearGradient3155"
       id="linearGradient3358"
       gradientUnits="userSpaceOnUse"
       x1="-58.1334"
       y1="8.6621637"
       x2="-58.1334"
       y2="21.13158" />
    <linearGradient
       inkscape:collect="always"
       xlink:href="#linearGradient3147"
       id="linearGradient3364"
       gradientUnits="userSpaceOnUse"
       x1="-58.976463"
       y1="8.6096468"
       x2="-58.976463"
       y2="21.734367" />
    <linearGradient
       inkscape:collect="always"
       xlink:href="#linearGradient3155"
       id="linearGradient3366"
       gradientUnits="userSpaceOnUse"
       x1="-58.1334"
       y1="8.6621637"
       x2="-58.1334"
       y2="21.13158" />
    <linearGradient
       inkscape:collect="always"
       xlink:href="#linearGradient3120"
       id="linearGradient3118"
       gradientUnits="userSpaceOnUse"
       gradientTransform="matrix(1,0,0,-1,0,95.99952)"
       x1="16.394205"
       y1="6.7877455"
       x2="16.394205"
       y2="25.487823" />
    <linearGradient
       inkscape:collect="always"
       xlink:href="#linearGradient3120"
       id="linearGradient3130"
       gradientUnits="userSpaceOnUse"
       gradientTransform="matrix(1,0,0,-1,0,1051.3617)"
       x1="16.394205"
       y1="6.7877455"
       x2="16.394205"
       y2="25.487823" />
    <linearGradient
       inkscape:collect="always"
       xlink:href="#linearGradient3095"
       id="linearGradient3137"
       gradientUnits="userSpaceOnUse"
       x1="6.5207548"
       y1="1037.5094"
       x2="6.5207548"
       y2="964.87518"
       gradientTransform="translate(0,-956.36218)" />
    <linearGradient
       inkscape:collect="always"
       xlink:href="#linearGradient3095"
       id="linearGradient3148"
       gradientUnits="userSpaceOnUse"
       gradientTransform="translate(-57.682892,12.334729)"
       x1="6.5207548"
       y1="1037.5094"
       x2="6.5207548"
       y2="964.87518" />
    <linearGradient
       inkscape:collect="always"
       xlink:href="#linearGradient3205"
       id="linearGradient3152"
       gradientUnits="userSpaceOnUse"
       gradientTransform="matrix(1,0,0,-1,-28,1052.3617)"
       x1="49.811321"
       y1="23.909431"
       x2="49.811321"
       y2="7.2442966" />
    <linearGradient
       inkscape:collect="always"
       xlink:href="#linearGradient3333"
       id="linearGradient3160"
       gradientUnits="userSpaceOnUse"
       gradientTransform="matrix(1,0,0,-1,32.875473,1045.9277)"
       x1="77.989586"
       y1="25.744297"
       x2="77.989586"
       y2="7.527349" />
    <linearGradient
       inkscape:collect="always"
       xlink:href="#linearGradient3095"
       id="linearGradient3162"
       gradientUnits="userSpaceOnUse"
       x1="6.5207548"
       y1="1037.5094"
       x2="6.5207548"
       y2="964.87518"
       gradientTransform="translate(56.422643,-2.6264152)" />
    <linearGradient
       inkscape:collect="always"
       xlink:href="#linearGradient3333"
       id="linearGradient3170"
       gradientUnits="userSpaceOnUse"
       gradientTransform="matrix(1,0,0,-1,0,95.99952)"
       x1="77.989586"
       y1="25.744297"
       x2="77.989586"
       y2="7.527349" />
  </defs>
  <sodipodi:namedview
     id="base"
     pagecolor="#ffffff"
     bordercolor="#666666"
     borderopacity="1.0"
     inkscape:pageopacity="0.0"
     inkscape:pageshadow="2"
     inkscape:zoom="1.3802083"
     inkscape:cx="76.327314"
     inkscape:cy="45.904776"
     inkscape:document-units="px"
     inkscape:current-layer="layer1"
     showgrid="false"
     inkscape:window-width="1366"
     inkscape:window-height="704"
     inkscape:window-x="0"
     inkscape:window-y="35"
     inkscape:window-maximized="1"
     showguides="true"
     inkscape:guide-bbox="true" />
  <metadata
     id="metadata7">
    <rdf:RDF>
      <cc:Work
         rdf:about="">
        <dc:format>image/svg+xml</dc:format>
        <dc:type
           rdf:resource="http://purl.org/dc/dcmitype/StillImage" />
        <dc:title />
      </cc:Work>
    </rdf:RDF>
  </metadata>
  <g
     inkscape:label="Layer 1"
     inkscape:groupmode="layer"
     id="layer1"
     transform="translate(0,-956.36218)">
    <rect
       style="opacity:0.05;fill:#000000;fill-opacity:1;stroke:none"
       id="rect3826"
       width="89"
       height="89"
       x="3.5"
       y="960.86218"
       rx="10.595235"
       ry="10.595235" />
    <g
       id="g3041">
      <rect
         style="opacity:0.05;fill:#000000;fill-opacity:1;stroke:none"
         id="rect3824"
         width="88"
         height="88"
         x="4"
         y="961.36218"
         rx="10.476188"
         ry="10.476188" />
      <rect
         ry="10.357141"
         rx="10.357141"
         y="961.86218"
         x="4.5"
         height="87"
         width="87"
         id="rect3822"
         style="opacity:0.05;fill:#000000;fill-opacity:1;stroke:none" />
      <rect
         style="opacity:0.1;fill:#000000;fill-opacity:1;stroke:none"
         id="rect3820"
         width="86"
         height="86"
         x="5"
         y="962.36218"
         rx="10.238094"
         ry="10.238094" />
      <rect
         ry="10.119047"
         rx="10.119047"
         y="962.86218"
         x="5.5"
         height="85"
         width="85"
         id="rect3818"
         style="opacity:0.1;fill:#000000;fill-opacity:1;stroke:none" />
      <rect
         style="opacity:0.3;fill:#000000;fill-opacity:1;stroke:none"
         id="rect3131"
         width="84"
         height="84"
         x="6"
         y="963.36218"
         rx="10"
         ry="10" />
    </g>
    <rect
       ry="10"
       rx="10"
       y="962.36218"
       x="6"
       height="84"
       width="84"
       id="rect3036"
       style="fill:url(#linearGradient3093);fill-opacity:1;stroke:none" />
    <rect
       style="fill:url(#linearGradient3090);fill-opacity:1;stroke:none"
       id="rect3034"
       width="82"
       height="82"
       x="7"
       y="963.36218"
       rx="9.7619047"
       ry="9.7619047" />
    <path
       id="path3180"
       d="m 16,962.36218 c -4.50125,0 -8.3001416,2.95561 -9.5625,7.03125 -0.089313,0.29478 -0.1877452,0.56922 -0.25,0.875 -0.00425,0.0203 0.00413,0.0422 0,0.0625 -0.060477,0.30668 -0.093075,0.62125 -0.125,0.9375 -0.00222,0.0207 0.00209,0.0418 0,0.0625 C 6.0324218,971.64814 6,971.97434 6,972.29968 c -1.269e-4,0.0209 0,0.0416 0,0.0625 l 0,0.125 8.625,12.875 66.75,0 8.625,-12.875 0,-0.125 c 0,-1.03875 -0.146187,-2.02822 -0.4375,-2.96875 -1.262358,-4.07564 -5.06125,-7.03125 -9.5625,-7.03125 z"
       style="opacity:0.05;fill:#000000;fill-opacity:1;stroke:none"
       inkscape:connector-curvature="0"
       sodipodi:nodetypes="sccccccsccccssss" />
    <path
       sodipodi:nodetypes="sccccccsccccssss"
       inkscape:connector-curvature="0"
       style="opacity:0.05;fill:#000000;fill-opacity:1;stroke:none"
       d="m 16,962.36218 c -4.50125,0 -8.3001416,2.95561 -9.5625,7.03125 -0.089313,0.29478 -0.1877452,0.56922 -0.25,0.875 -0.00425,0.0203 0.00413,0.0422 0,0.0625 -0.060477,0.30668 -0.093075,0.62125 -0.125,0.9375 -0.00222,0.0207 0.00209,0.0418 0,0.0625 C 6.0324218,971.64814 6,971.97434 6,972.29968 c -1.269e-4,0.0209 0,0.0416 0,0.0625 l 0,0.125 8.625,12.375 66.75,0 8.625,-12.375 0,-0.125 c 0,-1.03875 -0.146187,-2.02822 -0.4375,-2.96875 -1.262358,-4.07564 -5.06125,-7.03125 -9.5625,-7.03125 z"
       id="path3184" />
    <path
       sodipodi:nodetypes="sccccccsccccccssss"
       inkscape:connector-curvature="0"
       style="opacity:0.05;fill:#000000;fill-opacity:1;stroke:none"
       d="m 16,962.36218 c -4.50125,0 -8.3001416,2.95561 -9.5625,7.03125 -0.089313,0.29478 -0.1877452,0.56922 -0.25,0.875 -0.00425,0.0203 0.00413,0.0422 0,0.0625 -0.060477,0.30668 -0.093075,0.62125 -0.125,0.9375 -0.00222,0.0207 0.00209,0.0418 0,0.0625 C 6.0324218,971.64814 6,971.97434 6,972.29968 c -1.269e-4,0.0209 0,0.0416 0,0.0625 l 0,0.125 0.875,1 7.75,10.875 66.75,0 7.75,-10.875 0.875,-1 0,-0.125 c 0,-1.03875 -0.146187,-2.02822 -0.4375,-2.96875 -1.262358,-4.07564 -5.06125,-7.03125 -9.5625,-7.03125 z"
       id="path3230" />
    <rect
       style="opacity:0.15;fill:#ffffff;fill-opacity:1;stroke:none"
       id="rect3109"
       width="1"
       height="50"
       x="48"
       y="979.36218" />
    <path
       id="path3186"
       d="m 16,962.36218 c -4.50125,0 -8.3001416,2.95561 -9.5625,7.03125 -0.089313,0.29478 -0.1877452,0.56922 -0.25,0.875 -0.00425,0.0203 0.00413,0.0422 0,0.0625 -0.060477,0.30668 -0.093075,0.62125 -0.125,0.9375 -0.00222,0.0207 0.00209,0.0418 0,0.0625 C 6.0324218,971.64814 6,971.97434 6,972.29968 c -1.269e-4,0.0209 0,0.0416 0,0.0625 l 0,0.125 0.875,1 7.75,10.375 66.75,0 7.75,-10.375 0.875,-1 0,-0.125 c 0,-1.03875 -0.146187,-2.02822 -0.4375,-2.96875 -1.262358,-4.07564 -5.06125,-7.03125 -9.5625,-7.03125 z"
       style="opacity:0.05;fill:#000000;fill-opacity:1;stroke:none"
       inkscape:connector-curvature="0"
       sodipodi:nodetypes="sccccccsccccccssss" />
    <path
       id="path3228"
       d="m 16,962.36218 c -4.50125,0 -8.3001416,2.95561 -9.5625,7.03125 -0.089313,0.29478 -0.1877452,0.56922 -0.25,0.875 -0.00425,0.0203 0.00413,0.0422 0,0.0625 -0.060477,0.30668 -0.093075,0.62125 -0.125,0.9375 -0.00222,0.0207 0.00209,0.0418 0,0.0625 C 6.0324218,971.64814 6,971.97434 6,972.29968 c -1.269e-4,0.0209 0,0.0416 0,0.0625 l 0,0.125 0.875,1 7.75,9.875 66.75,0 7.75,-9.875 0.875,-1 0,-0.125 c 0,-1.03875 -0.146187,-2.02822 -0.4375,-2.96875 -1.262358,-4.07564 -5.06125,-7.03125 -9.5625,-7.03125 z"
       style="opacity:0.05;fill:#000000;fill-opacity:1;stroke:none"
       inkscape:connector-curvature="0"
       sodipodi:nodetypes="sccccccsccccccssss" />
    <rect
       y="979.36218"
       x="47"
       height="50"
       width="1"
       id="rect3111"
       style="opacity:0.15;fill:#000000;fill-opacity:1;stroke:none" />
    <path
       style="opacity:1;fill:url(#linearGradient3211);fill-opacity:1;stroke:none"
       d="M 16.75 7 C 11.765073 7 7.7000188 10.686522 7.09375 15.5 L 15.4375 25 L 80.5625 25 L 88.90625 15.53125 C 88.313301 10.7029 84.245434 7 79.25 7 L 16.75 7 z "
       transform="translate(0,956.36218)"
       id="path3185" />
    <path
       style="fill:url(#linearGradient3245);fill-opacity:1;stroke:none"
       d="M 16 6 C 11.49875 6 7.6998584 8.9556104 6.4375 13.03125 C 6.3481871 13.326026 6.2497548 13.600471 6.1875 13.90625 C 6.1832461 13.926499 6.191632 13.948455 6.1875 13.96875 C 6.1270232 14.275433 6.0944251 14.59 6.0625 14.90625 C 6.060281 14.926949 6.0645934 14.948012 6.0625 14.96875 C 6.0324218 15.285958 6 15.612158 6 15.9375 C 5.9998731 15.958377 6 15.979092 6 16 L 6 16.125 L 6.875 17.125 L 14.625 26 L 81.375 26 L 89.125 17.125 L 90 16.125 L 90 16 C 90 14.96125 89.853813 13.971782 89.5625 13.03125 C 88.300142 8.9556104 84.50125 6 80 6 L 16 6 z "
       id="path3243"
       transform="translate(0,956.36218)" />
    <rect
       style="opacity:0.15;fill:#ffffff;fill-opacity:1;stroke:none"
       id="rect3117"
       width="1"
       height="18.799999"
       x="44"
       y="975.0188" />
    <rect
       y="975.0188"
       x="45"
       height="18.799999"
       width="1"
       id="rect3119"
       style="opacity:0.5;fill:#ffffff;fill-opacity:1;stroke:none" />
    <rect
       style="opacity:0.15;fill:#ffffff;fill-opacity:1;stroke:none"
       id="rect3121"
       width="1"
       height="18.799999"
       x="50.5"
       y="975.0188" />
    <rect
       y="975.0188"
       x="51.5"
       height="18.799999"
       width="1"
       id="rect3123"
       style="opacity:0.5;fill:#ffffff;fill-opacity:1;stroke:none" />
    <path
       sodipodi:type="arc"
       style="opacity:0.1;fill:#000000;fill-opacity:1;stroke:none"
       id="path3271"
       sodipodi:cx="-58.754719"
       sodipodi:cy="15.147168"
       sodipodi:rx="6.8603773"
       sodipodi:ry="6.8603773"
       d="m -51.894341,15.147168 a 6.8603773,6.8603773 0 1 1 -13.720755,0 6.8603773,6.8603773 0 1 1 13.720755,0 z"
       transform="matrix(1.020352,0,0,1.020352,107.95049,981.40674)" />
    <path
       transform="matrix(1.020352,0,0,1.020352,107.95049,980.40674)"
       d="m -51.894341,15.147168 a 6.8603773,6.8603773 0 1 1 -13.720755,0 6.8603773,6.8603773 0 1 1 13.720755,0 z"
       sodipodi:ry="6.8603773"
       sodipodi:rx="6.8603773"
       sodipodi:cy="15.147168"
       sodipodi:cx="-58.754719"
       id="path3163"
       style="fill:url(#linearGradient3364);fill-opacity:1;stroke:none"
       sodipodi:type="arc" />
    <path
       sodipodi:type="arc"
       style="opacity:0.5;fill:url(#linearGradient3366);fill-opacity:1;stroke:none"
       id="path3165"
       sodipodi:cx="-58.754719"
       sodipodi:cy="15.147168"
       sodipodi:rx="6.8603773"
       sodipodi:ry="6.8603773"
       d="m -51.894341,15.147168 a 6.8603773,6.8603773 0 1 1 -13.720755,0 6.8603773,6.8603773 0 1 1 13.720755,0 z"
       transform="matrix(0.87458746,0,0,0.87458746,99.386145,982.61466)" />
    <path
       sodipodi:type="arc"
       style="fill:#7b717b;fill-opacity:1;stroke:none"
       id="path3167"
       sodipodi:cx="-58.754719"
       sodipodi:cy="15.147168"
       sodipodi:rx="6.8603773"
       sodipodi:ry="6.8603773"
       d="m -51.894341,15.147168 a 6.8603773,6.8603773 0 1 1 -13.720755,0 6.8603773,6.8603773 0 1 1 13.720755,0 z"
       transform="matrix(0.36441144,0,0,0.36441144,69.410895,990.34238)" />
    <path
       style="fill:url(#linearGradient3255);fill-opacity:1;stroke:none"
       d="M 16 6 C 11.49875 6 7.6998584 8.9556104 6.4375 13.03125 C 6.3481871 13.326026 6.2497548 13.600471 6.1875 13.90625 C 6.1832461 13.926499 6.191632 13.948455 6.1875 13.96875 C 6.1270232 14.275433 6.0944251 14.59 6.0625 14.90625 C 6.060281 14.926949 6.0645934 14.948012 6.0625 14.96875 C 6.0324218 15.285958 6 15.612158 6 15.9375 C 5.9998731 15.958377 6 15.979092 6 16 L 6 16.125 L 6.0625 16.1875 C 6.0691054 16.115372 6.0557363 16.040081 6.0625 15.96875 C 6.06459 15.94805 6.06028 15.92695 6.0625 15.90625 C 6.094425 15.59 6.127023 15.27543 6.1875 14.96875 C 6.19163 14.94845 6.18325 14.92655 6.1875 14.90625 C 6.2497548 14.60047 6.348187 14.32603 6.4375 14.03125 C 7.6998584 9.95561 11.49875 7 16 7 L 80 7 C 84.50125 7 88.300142 9.95561 89.5625 14.03125 C 89.775009 14.717355 89.911111 15.417926 89.96875 16.15625 L 90 16.125 L 90 16 C 90 14.96125 89.853813 13.971782 89.5625 13.03125 C 88.300142 8.9556104 84.50125 6 80 6 L 16 6 z "
       transform="translate(0,956.36218)"
       id="path3177" />
    <path
       transform="matrix(1.020352,0,0,1.020352,107.95049,956.90674)"
       d="m -51.894341,15.147168 a 6.8603773,6.8603773 0 1 1 -13.720755,0 6.8603773,6.8603773 0 1 1 13.720755,0 z"
       sodipodi:ry="6.8603773"
       sodipodi:rx="6.8603773"
       sodipodi:cy="15.147168"
       sodipodi:cx="-58.754719"
       id="path3269"
       style="opacity:0.1;fill:#000000;fill-opacity:1;stroke:none"
       sodipodi:type="arc" />
    <path
       sodipodi:type="arc"
       style="fill:url(#linearGradient3356);fill-opacity:1;stroke:none"
       id="path3101"
       sodipodi:cx="-58.754719"
       sodipodi:cy="15.147168"
       sodipodi:rx="6.8603773"
       sodipodi:ry="6.8603773"
       d="m -51.894341,15.147168 a 6.8603773,6.8603773 0 1 1 -13.720755,0 6.8603773,6.8603773 0 1 1 13.720755,0 z"
       transform="matrix(1.020352,0,0,1.020352,107.95049,955.90674)" />
    <path
       transform="matrix(0.87458746,0,0,0.87458746,99.386145,958.11466)"
       d="m -51.894341,15.147168 a 6.8603773,6.8603773 0 1 1 -13.720755,0 6.8603773,6.8603773 0 1 1 13.720755,0 z"
       sodipodi:ry="6.8603773"
       sodipodi:rx="6.8603773"
       sodipodi:cy="15.147168"
       sodipodi:cx="-58.754719"
       id="path3115"
       style="opacity:0.5;fill:url(#linearGradient3358);fill-opacity:1;stroke:none"
       sodipodi:type="arc" />
    <path
       transform="matrix(0.36441144,0,0,0.36441144,69.410895,965.84238)"
       d="m -51.894341,15.147168 a 6.8603773,6.8603773 0 1 1 -13.720755,0 6.8603773,6.8603773 0 1 1 13.720755,0 z"
       sodipodi:ry="6.8603773"
       sodipodi:rx="6.8603773"
       sodipodi:cy="15.147168"
       sodipodi:cx="-58.754719"
       id="path3105"
       style="fill:#7b717b;fill-opacity:1;stroke:none"
       sodipodi:type="arc" />
    <path
       style="opacity:0.15;fill:#000000;fill-opacity:1;stroke:none"
       d="M 14.625 69 L 7 77.75 L 7 79.25 C 7 84.658095 11.341905 89 16.75 89 L 79.25 89 C 84.658095 89 89 84.658095 89 79.25 L 89 77.6875 L 81.375 69 L 14.625 69 z "
       transform="translate(0,956.36218)"
       id="path3303" />
    <path
       style="fill:url(#linearGradient3170);fill-opacity:1;stroke:none"
       d="M 14.625 70 L 7 78.71875 L 7 79.25 C 7 84.658095 11.341905 89 16.75 89 L 79.25 89 C 84.658095 89 89 84.658095 89 79.25 L 89 78.71875 L 81.375 70 L 14.625 70 z "
       id="path3307"
       transform="translate(0,956.36218)" />
    <path
       style="fill:#ef9e42;fill-opacity:1;stroke:none"
       d="m 14.625,70 -7.75,8.875 8.1875,-7.90625 65.84375,0 L 89.125,78.875 81.375,70 z"
       transform="translate(0,956.36218)"
       id="path3341"
       inkscape:connector-curvature="0"
       sodipodi:nodetypes="ccccccc" />
    <path
       style="fill:#666666;fill-opacity:1;stroke:none"
       d="M 48 12.5 C 46.619288 12.5 45.5 13.619288 45.5 15 C 45.5 15.172589 45.529198 15.337256 45.5625 15.5 C 45.795616 14.360792 46.791877 13.5 48 13.5 C 49.208123 13.5 50.204384 14.360792 50.4375 15.5 C 50.470802 15.337256 50.5 15.172589 50.5 15 C 50.5 13.619288 49.380712 12.5 48 12.5 z "
       transform="translate(0,956.36218)"
       id="path3372" />
    <path
       id="path3377"
       d="m 48,993.36218 c -1.380712,0 -2.5,1.11929 -2.5,2.5 0,0.17259 0.0292,0.33726 0.0625,0.5 0.233116,-1.13921 1.229377,-2 2.4375,-2 1.208123,0 2.204384,0.86079 2.4375,2 0.0333,-0.16274 0.0625,-0.32741 0.0625,-0.5 0,-1.38071 -1.119288,-2.5 -2.5,-2.5 z"
       style="fill:#666666;fill-opacity:1;stroke:none"
       inkscape:connector-curvature="0" />
  </g>
</svg>
