<?xml version="1.0" encoding="UTF-8" standalone="no"?>
<!-- Created with Inkscape (http://www.inkscape.org/) -->

<svg
   xmlns:dc="http://purl.org/dc/elements/1.1/"
   xmlns:cc="http://creativecommons.org/ns#"
   xmlns:rdf="http://www.w3.org/1999/02/22-rdf-syntax-ns#"
   xmlns:svg="http://www.w3.org/2000/svg"
   xmlns="http://www.w3.org/2000/svg"
   xmlns:xlink="http://www.w3.org/1999/xlink"
   xmlns:sodipodi="http://sodipodi.sourceforge.net/DTD/sodipodi-0.dtd"
   xmlns:inkscape="http://www.inkscape.org/namespaces/inkscape"
   width="96"
   height="96"
   id="svg2"
   version="1.1"
   inkscape:version="0.48.4 r9939"
   sodipodi:docname="goa-panel.svg">
  <defs
     id="defs4">
    <linearGradient
       inkscape:collect="always"
       id="linearGradient3280">
      <stop
         style="stop-color:#7aaad6;stop-opacity:1;"
         offset="0"
         id="stop3282" />
      <stop
         style="stop-color:#7aaad6;stop-opacity:0;"
         offset="1"
         id="stop3284" />
    </linearGradient>
    <linearGradient
       inkscape:collect="always"
       id="linearGradient3260">
      <stop
         style="stop-color:#99bde1;stop-opacity:1"
         offset="0"
         id="stop3262" />
      <stop
         style="stop-color:#d7e9f5;stop-opacity:1"
         offset="1"
         id="stop3264" />
    </linearGradient>
    <linearGradient
       inkscape:collect="always"
       id="linearGradient3223">
      <stop
         style="stop-color:#b3d6ec;stop-opacity:1"
         offset="0"
         id="stop3225" />
      <stop
         style="stop-color:#dcecf6;stop-opacity:1"
         offset="1"
         id="stop3227" />
    </linearGradient>
    <linearGradient
       inkscape:collect="always"
       id="linearGradient3215">
      <stop
         style="stop-color:#b3d6ec;stop-opacity:1"
         offset="0"
         id="stop3217" />
      <stop
         style="stop-color:#ffffff;stop-opacity:1"
         offset="1"
         id="stop3219" />
    </linearGradient>
    <linearGradient
       inkscape:collect="always"
       id="linearGradient3090">
      <stop
         style="stop-color:#0369b2;stop-opacity:1"
         offset="0"
         id="stop3092" />
      <stop
         style="stop-color:#81cbe9;stop-opacity:1"
         offset="1"
         id="stop3094" />
    </linearGradient>
    <linearGradient
       id="linearGradient3083"
       inkscape:collect="always">
      <stop
         id="stop3086"
         offset="0"
         style="stop-color:#0269b2;stop-opacity:1" />
      <stop
         id="stop3088"
         offset="1"
         style="stop-color:#52bee1;stop-opacity:1" />
    </linearGradient>
    <inkscape:perspective
       sodipodi:type="inkscape:persp3d"
       inkscape:vp_x="0 : 48 : 1"
       inkscape:vp_y="0 : 1000 : 0"
       inkscape:vp_z="96 : 48 : 1"
       inkscape:persp3d-origin="48 : 32 : 1"
       id="perspective3054" />
    <linearGradient
       id="linearGradient4357"
       inkscape:collect="always">
      <stop
         id="stop4359"
         offset="0"
         style="stop-color:#ded3d6;stop-opacity:1" />
      <stop
         id="stop4361"
         offset="1"
         style="stop-color:#f7ebef;stop-opacity:1" />
    </linearGradient>
    <linearGradient
       inkscape:collect="always"
       id="linearGradient3558">
      <stop
         style="stop-color:#ded3d6;stop-opacity:1"
         offset="0"
         id="stop3560" />
      <stop
         style="stop-color:#efebef;stop-opacity:1"
         offset="1"
         id="stop3562" />
    </linearGradient>
    <linearGradient
       id="linearGradient3076"
       inkscape:collect="always">
      <stop
         id="stop3078"
         offset="0"
         style="stop-color:#ffe7f7;stop-opacity:1" />
      <stop
         id="stop3080"
         offset="1"
         style="stop-color:#ffc3ef;stop-opacity:1" />
    </linearGradient>
    <linearGradient
       inkscape:collect="always"
       id="linearGradient3048">
      <stop
         style="stop-color:#c16d16;stop-opacity:1"
         offset="0"
         id="stop3050" />
      <stop
         style="stop-color:#ff8e31;stop-opacity:1"
         offset="1"
         id="stop3052" />
    </linearGradient>
    <linearGradient
       inkscape:collect="always"
       id="linearGradient3119">
      <stop
         style="stop-color:#92948f;stop-opacity:0"
         offset="0"
         id="stop3121" />
      <stop
         id="stop3123"
         offset="0.4283945"
         style="stop-color:#9b9e98;stop-opacity:1" />
      <stop
         style="stop-color:#939690;stop-opacity:0"
         offset="1"
         id="stop3125" />
    </linearGradient>
    <linearGradient
       id="linearGradient3073"
       inkscape:collect="always">
      <stop
         id="stop3075"
         offset="0"
         style="stop-color:#ffffff;stop-opacity:0" />
      <stop
         style="stop-color:#ffffff;stop-opacity:1"
         offset="0.45872402"
         id="stop3085" />
      <stop
         id="stop3083"
         offset="1"
         style="stop-color:#ffffff;stop-opacity:0" />
    </linearGradient>
    <linearGradient
       inkscape:collect="always"
       id="linearGradient3047">
      <stop
         style="stop-color:#000000;stop-opacity:1"
         offset="0"
         id="stop3049" />
      <stop
         id="stop3055"
         offset="0.06123874"
         style="stop-color:#1a1a1a;stop-opacity:1" />
      <stop
         style="stop-color:#333333;stop-opacity:1"
         offset="0.16480456"
         id="stop3057" />
      <stop
         id="stop3059"
         offset="0.55385184"
         style="stop-color:#4d4d4d;stop-opacity:1" />
      <stop
         style="stop-color:#999999;stop-opacity:1"
         offset="1"
         id="stop3051" />
    </linearGradient>
    <linearGradient
       id="linearGradient3041"
       inkscape:collect="always">
      <stop
         id="stop3043"
         offset="0"
         style="stop-color:#1a1a1a;stop-opacity:1" />
      <stop
         id="stop3045"
         offset="1"
         style="stop-color:#808080;stop-opacity:1" />
    </linearGradient>
    <linearGradient
       inkscape:collect="always"
       id="linearGradient3029">
      <stop
         style="stop-color:#333333;stop-opacity:1"
         offset="0"
         id="stop3031" />
      <stop
         style="stop-color:#e0e0dd;stop-opacity:0;"
         offset="1"
         id="stop3033" />
    </linearGradient>
    <linearGradient
       inkscape:collect="always"
       xlink:href="#linearGradient3029"
       id="linearGradient3035"
       x1="35.355339"
       y1="1030.3622"
       x2="35.355339"
       y2="975.33282"
       gradientUnits="userSpaceOnUse"
       gradientTransform="matrix(1.1638085,0,0,1.1638085,-7.862809,-164.23642)" />
    <linearGradient
       inkscape:collect="always"
       xlink:href="#linearGradient3041"
       id="linearGradient3039"
       gradientUnits="userSpaceOnUse"
       x1="35.355339"
       y1="1030.3622"
       x2="35.355339"
       y2="975.33282"
       gradientTransform="matrix(1.1218695,0,0,1.1218695,-5.8497348,-122.18782)" />
    <linearGradient
       inkscape:collect="always"
       xlink:href="#linearGradient3047"
       id="linearGradient3053"
       x1="40"
       y1="1043.4336"
       x2="39.285713"
       y2="972.33325"
       gradientUnits="userSpaceOnUse" />
    <linearGradient
       inkscape:collect="always"
       xlink:href="#linearGradient3073"
       id="linearGradient3113"
       gradientUnits="userSpaceOnUse"
       gradientTransform="translate(0,-956.36218)"
       x1="14.869445"
       y1="978.90387"
       x2="24.52651"
       y2="969.24683" />
    <linearGradient
       inkscape:collect="always"
       xlink:href="#linearGradient3073"
       id="linearGradient3115"
       gradientUnits="userSpaceOnUse"
       gradientTransform="matrix(-1,0,0,1,96,-956.36218)"
       x1="15.152279"
       y1="978.62103"
       x2="26.263966"
       y2="967.50934" />
    <linearGradient
       inkscape:collect="always"
       xlink:href="#linearGradient3119"
       id="linearGradient3117"
       gradientUnits="userSpaceOnUse"
       gradientTransform="translate(0,-956.36218)"
       x1="13.131983"
       y1="980.64136"
       x2="25.549681"
       y2="967.86646" />
    <linearGradient
       inkscape:collect="always"
       xlink:href="#linearGradient3119"
       id="linearGradient3129"
       gradientUnits="userSpaceOnUse"
       gradientTransform="matrix(-1,0,0,1,96,0)"
       x1="13.131983"
       y1="980.64136"
       x2="25.549681"
       y2="967.86646" />
    <linearGradient
       inkscape:collect="always"
       xlink:href="#linearGradient3048"
       id="linearGradient3054"
       x1="49.267925"
       y1="996.57349"
       x2="49.267925"
       y2="1045.8627"
       gradientUnits="userSpaceOnUse" />
    <linearGradient
       inkscape:collect="always"
       xlink:href="#linearGradient3048"
       id="linearGradient3058"
       x1="115.80308"
       y1="985.47241"
       x2="115.80308"
       y2="1033.5543"
       gradientUnits="userSpaceOnUse" />
    <linearGradient
       inkscape:collect="always"
       xlink:href="#linearGradient3076"
       id="linearGradient3055"
       gradientUnits="userSpaceOnUse"
       x1="115.80308"
       y1="985.47241"
       x2="115.80308"
       y2="1025.3639"
       gradientTransform="matrix(1.4144782,0,0,1.4144782,-119.78686,-419.05496)" />
    <linearGradient
       inkscape:collect="always"
       xlink:href="#linearGradient3076"
       id="linearGradient3086"
       gradientUnits="userSpaceOnUse"
       gradientTransform="matrix(1.4144782,0,0,1.4144782,-119.78686,-417.12598)"
       x1="115.80308"
       y1="985.47241"
       x2="115.80308"
       y2="1025.3639" />
    <linearGradient
       inkscape:collect="always"
       xlink:href="#linearGradient3076"
       id="linearGradient3091"
       gradientUnits="userSpaceOnUse"
       gradientTransform="matrix(1.4144782,0,0,1.4144782,-119.78686,-418.126)"
       x1="115.80308"
       y1="985.47241"
       x2="115.80308"
       y2="1025.3639" />
    <linearGradient
       inkscape:collect="always"
       xlink:href="#linearGradient3076"
       id="linearGradient3093"
       gradientUnits="userSpaceOnUse"
       gradientTransform="matrix(1.4144782,0,0,1.4144782,-119.78686,-1375.4171)"
       x1="115.80308"
       y1="985.47241"
       x2="115.80308"
       y2="1025.3639" />
    <linearGradient
       inkscape:collect="always"
       xlink:href="#linearGradient3558"
       id="linearGradient3564"
       x1="93.242035"
       y1="1027.2615"
       x2="93.242035"
       y2="980.7262"
       gradientUnits="userSpaceOnUse" />
    <linearGradient
       inkscape:collect="always"
       xlink:href="#linearGradient3558"
       id="linearGradient4350"
       gradientUnits="userSpaceOnUse"
       x1="93.242035"
       y1="1027.2615"
       x2="93.242035"
       y2="980.7262" />
    <linearGradient
       inkscape:collect="always"
       xlink:href="#linearGradient4357"
       id="linearGradient3067"
       gradientUnits="userSpaceOnUse"
       gradientTransform="translate(-206.68129,0)"
       x1="93.242035"
       y1="1027.2615"
       x2="93.242035"
       y2="980.7262" />
    <linearGradient
       inkscape:collect="always"
       xlink:href="#linearGradient3083"
       id="linearGradient3071"
       gradientUnits="userSpaceOnUse"
       x1="22.54203"
       y1="1043.3966"
       x2="22.54203"
       y2="964.45898" />
    <linearGradient
       inkscape:collect="always"
       xlink:href="#linearGradient3090"
       id="linearGradient3074"
       gradientUnits="userSpaceOnUse"
       x1="53.796227"
       y1="1046.0226"
       x2="53.796227"
       y2="962.97437" />
    <linearGradient
       inkscape:collect="always"
       xlink:href="#linearGradient3215"
       id="linearGradient3221"
       x1="155.04906"
       y1="1027.7283"
       x2="155.04906"
       y2="991.66064"
       gradientUnits="userSpaceOnUse"
       gradientTransform="translate(-101.82338,-7.0710678)" />
    <linearGradient
       inkscape:collect="always"
       xlink:href="#linearGradient3223"
       id="linearGradient3229"
       x1="181.875"
       y1="1030.1122"
       x2="174.5"
       y2="1008.6122"
       gradientUnits="userSpaceOnUse"
       gradientTransform="translate(-101.82338,-7.0710678)" />
    <linearGradient
       inkscape:collect="always"
       xlink:href="#linearGradient3215"
       id="linearGradient3235"
       gradientUnits="userSpaceOnUse"
       gradientTransform="translate(-101.82338,-7.0710678)"
       x1="155.04906"
       y1="1027.7283"
       x2="155.04906"
       y2="991.66064" />
    <linearGradient
       inkscape:collect="always"
       xlink:href="#linearGradient3223"
       id="linearGradient3237"
       gradientUnits="userSpaceOnUse"
       gradientTransform="translate(-101.82338,-7.0710678)"
       x1="181.875"
       y1="1030.1122"
       x2="174.5"
       y2="1008.6122" />
    <linearGradient
       inkscape:collect="always"
       xlink:href="#linearGradient3223"
       id="linearGradient3240"
       gradientUnits="userSpaceOnUse"
       gradientTransform="translate(-112.95681,-11.313709)"
       x1="181.875"
       y1="1030.1122"
       x2="174.5"
       y2="1008.6122" />
    <linearGradient
       inkscape:collect="always"
       xlink:href="#linearGradient3215"
       id="linearGradient3243"
       gradientUnits="userSpaceOnUse"
       gradientTransform="translate(-112.95681,-11.313709)"
       x1="155.04906"
       y1="1027.7283"
       x2="155.04906"
       y2="991.66064" />
    <linearGradient
       inkscape:collect="always"
       xlink:href="#linearGradient3223"
       id="linearGradient3250"
       gradientUnits="userSpaceOnUse"
       gradientTransform="translate(-112.95681,-967.67589)"
       x1="181.875"
       y1="1030.1122"
       x2="174.5"
       y2="1008.6122" />
    <linearGradient
       inkscape:collect="always"
       xlink:href="#linearGradient3260"
       id="linearGradient3266"
       x1="60.75"
       y1="42.125"
       x2="66.255951"
       y2="42.125"
       gradientUnits="userSpaceOnUse"
       gradientTransform="translate(0,956.31756)" />
    <linearGradient
       inkscape:collect="always"
       xlink:href="#linearGradient3215"
       id="linearGradient3274"
       gradientUnits="userSpaceOnUse"
       gradientTransform="translate(-112.95681,-967.67589)"
       x1="155.04906"
       y1="1027.7283"
       x2="155.04906"
       y2="991.66064" />
    <linearGradient
       inkscape:collect="always"
       xlink:href="#linearGradient3215"
       id="linearGradient3277"
       gradientUnits="userSpaceOnUse"
       gradientTransform="translate(-112.95681,-967.67589)"
       x1="155.04906"
       y1="1027.7283"
       x2="155.04906"
       y2="991.66064" />
    <linearGradient
       inkscape:collect="always"
       xlink:href="#linearGradient3280"
       id="linearGradient3286"
       x1="53.25"
       y1="60.75"
       x2="49.625"
       y2="63.25"
       gradientUnits="userSpaceOnUse"
       gradientTransform="translate(0,956.31756)" />
    <linearGradient
       inkscape:collect="always"
       xlink:href="#linearGradient3215"
       id="linearGradient3292"
       gradientUnits="userSpaceOnUse"
       gradientTransform="translate(-112.95681,-967.67589)"
       x1="155.04906"
       y1="1027.7283"
       x2="155.04906"
       y2="991.66064" />
    <linearGradient
       inkscape:collect="always"
       xlink:href="#linearGradient3223"
       id="linearGradient3295"
       gradientUnits="userSpaceOnUse"
       gradientTransform="translate(-112.95681,-11.358329)"
       x1="181.875"
       y1="1030.1122"
       x2="174.5"
       y2="1008.6122" />
    <linearGradient
       inkscape:collect="always"
       xlink:href="#linearGradient3215"
       id="linearGradient3297"
       gradientUnits="userSpaceOnUse"
       gradientTransform="translate(-112.95681,-11.358329)"
       x1="155.04906"
       y1="1027.7283"
       x2="155.04906"
       y2="991.66064" />
    <linearGradient
       inkscape:collect="always"
       xlink:href="#linearGradient3215"
       id="linearGradient3332"
       gradientUnits="userSpaceOnUse"
       gradientTransform="translate(-112.95681,-11.358329)"
       x1="155.04906"
       y1="1027.7283"
       x2="155.04906"
       y2="991.66064" />
    <linearGradient
       inkscape:collect="always"
       xlink:href="#linearGradient3280"
       id="linearGradient3334"
       gradientUnits="userSpaceOnUse"
       gradientTransform="translate(0,956.31756)"
       x1="53.25"
       y1="60.75"
       x2="49.625"
       y2="63.25" />
    <linearGradient
       inkscape:collect="always"
       xlink:href="#linearGradient3223"
       id="linearGradient3336"
       gradientUnits="userSpaceOnUse"
       gradientTransform="translate(-112.95681,-11.358329)"
       x1="181.875"
       y1="1030.1122"
       x2="174.5"
       y2="1008.6122" />
    <linearGradient
       inkscape:collect="always"
       xlink:href="#linearGradient3260"
       id="linearGradient3338"
       gradientUnits="userSpaceOnUse"
       gradientTransform="translate(0,956.31756)"
       x1="60.75"
       y1="42.125"
       x2="66.255951"
       y2="42.125" />
    <linearGradient
       inkscape:collect="always"
       xlink:href="#linearGradient3260"
       id="linearGradient3341"
       gradientUnits="userSpaceOnUse"
       gradientTransform="translate(0,956.81754)"
       x1="60.75"
       y1="42.125"
       x2="66.255951"
       y2="42.125" />
    <linearGradient
       inkscape:collect="always"
       xlink:href="#linearGradient3223"
       id="linearGradient3344"
       gradientUnits="userSpaceOnUse"
       gradientTransform="translate(-112.95681,-10.858349)"
       x1="181.875"
       y1="1030.1122"
       x2="174.5"
       y2="1008.6122" />
    <linearGradient
       inkscape:collect="always"
       xlink:href="#linearGradient3280"
       id="linearGradient3347"
       gradientUnits="userSpaceOnUse"
       gradientTransform="translate(0,956.81754)"
       x1="53.25"
       y1="60.75"
       x2="49.625"
       y2="63.25" />
    <linearGradient
       inkscape:collect="always"
       xlink:href="#linearGradient3215"
       id="linearGradient3350"
       gradientUnits="userSpaceOnUse"
       gradientTransform="translate(-112.95681,-10.858349)"
       x1="155.04906"
       y1="1027.7283"
       x2="155.04906"
       y2="991.66064" />
    <linearGradient
       inkscape:collect="always"
       xlink:href="#linearGradient3215"
       id="linearGradient3360"
       gradientUnits="userSpaceOnUse"
       gradientTransform="translate(-112.95681,-967.22053)"
       x1="155.04906"
       y1="1027.7283"
       x2="155.04906"
       y2="991.66064" />
  </defs>
  <sodipodi:namedview
     id="base"
     pagecolor="#ffffff"
     bordercolor="#666666"
     borderopacity="1.0"
     inkscape:pageopacity="0.0"
     inkscape:pageshadow="2"
     inkscape:zoom="2.8284271"
     inkscape:cx="91.383297"
     inkscape:cy="35.66602"
     inkscape:document-units="px"
     inkscape:current-layer="layer1"
     showgrid="false"
     inkscape:window-width="1366"
     inkscape:window-height="715"
     inkscape:window-x="0"
     inkscape:window-y="29"
     inkscape:window-maximized="1"
     showguides="true"
     inkscape:guide-bbox="true" />
  <metadata
     id="metadata7">
    <rdf:RDF>
      <cc:Work
         rdf:about="">
        <dc:format>image/svg+xml</dc:format>
        <dc:type
           rdf:resource="http://purl.org/dc/dcmitype/StillImage" />
        <dc:title />
      </cc:Work>
    </rdf:RDF>
  </metadata>
  <g
     inkscape:label="Layer 1"
     inkscape:groupmode="layer"
     id="layer1"
     transform="translate(0,-956.36218)">
    <rect
       style="opacity:0.05;fill:#000000;fill-opacity:1;stroke:none"
       id="rect3826"
       width="89"
       height="89"
       x="3.5"
       y="960.86218"
       rx="10.595235"
       ry="10.595235" />
    <g
       id="g3041">
      <rect
         style="opacity:0.05;fill:#000000;fill-opacity:1;stroke:none"
         id="rect3824"
         width="88"
         height="88"
         x="4"
         y="961.36218"
         rx="10.476188"
         ry="10.476188" />
      <rect
         ry="10.357141"
         rx="10.357141"
         y="961.86218"
         x="4.5"
         height="87"
         width="87"
         id="rect3822"
         style="opacity:0.05;fill:#000000;fill-opacity:1;stroke:none" />
      <rect
         style="opacity:0.1;fill:#000000;fill-opacity:1;stroke:none"
         id="rect3820"
         width="86"
         height="86"
         x="5"
         y="962.36218"
         rx="10.238094"
         ry="10.238094" />
      <rect
         ry="10.119047"
         rx="10.119047"
         y="962.86218"
         x="5.5"
         height="85"
         width="85"
         id="rect3818"
         style="opacity:0.1;fill:#000000;fill-opacity:1;stroke:none" />
      <rect
         style="opacity:0.3;fill:#000000;fill-opacity:1;stroke:none"
         id="rect3131"
         width="84"
         height="84"
         x="6"
         y="963.36218"
         rx="10"
         ry="10" />
    </g>
    <rect
       ry="10"
       rx="10"
       y="962.36218"
       x="6"
       height="84"
       width="84"
       id="rect3036"
       style="fill:url(#linearGradient3074);fill-opacity:1;stroke:none" />
    <rect
       style="fill:url(#linearGradient3071);fill-opacity:1;stroke:none"
       id="rect3034"
       width="82"
       height="82"
       x="7"
       y="963.36218"
       rx="9.7619047"
       ry="9.7619047" />
    <g
       id="g3319"
       transform="translate(0,0.49998)">
      <path
         inkscape:connector-curvature="0"
         id="path3288"
         d="m 43.375,983.11216 c -6.82459,0 -12.63505,4.2326 -15,10.2187 -7.37316,2.1119 -12.78125,8.92734 -12.78125,16.96884 0,9.6106 7.74425,17.3841 17.3125,17.5625 l 0.3125,0 32.5,0 c 0.0214,0 0.04107,0 0.0625,0 8.07078,0 14.625,-6.523 14.625,-14.5938 0,-8.0708 -6.55422,-14.62504 -14.625,-14.62504 -2.225427,0 -4.330655,0.5163 -6.21875,1.40634 l 0,-1.40634 c -0.34978,-8.6225 -7.48023,-15.5312 -16.1875,-15.5312 z m 0,8.375 c 4.08653,0 7.41205,3.1579 7.75,7.1562 l 0.0625,0 0,14.62504 c 0,2.2502 0.49762,4.3772 1.40625,6.2813 l -4.4375,0 -14.75,0 c -0.13106,0 -0.36552,-0.044 -0.5,-0.062 -4.94777,-0.1805 -8.9375,-4.1952 -8.9375,-9.1875 0,-4.9922 3.98973,-9.0354 8.9375,-9.2188 l 2.75,0 0,-2.43754 c 0.33794,-3.9983 3.63222,-7.1562 7.71875,-7.1562 z m 22.40625,15.56254 c 3.45523,0 6.3125,2.7635 6.3125,6.2187 0,3.4553 -2.85727,6.2813 -6.3125,6.2813 -0.02154,0 -0.04101,2e-4 -0.0625,0 -3.425119,-0.035 -6.15625,-2.8475 -6.15625,-6.2813 0,-3.4552 2.76353,-6.2187 6.21875,-6.2187 z"
         style="opacity:0.05;fill:#000000;fill-opacity:1;stroke:none" />
      <path
         style="opacity:0.05;fill:#000000;fill-opacity:1;stroke:none"
         d="m 43.375,982.11214 c -6.82459,0 -12.63505,4.2326 -15,10.2187 -7.37316,2.1119 -12.78125,8.92736 -12.78125,16.96886 0,9.6106 7.74425,17.3841 17.3125,17.5625 l 0.3125,0 32.5,0 c 0.0214,0 0.04107,0 0.0625,0 8.07078,0 14.625,-6.523 14.625,-14.5938 0,-8.0708 -6.55422,-14.62506 -14.625,-14.62506 -2.225427,0 -4.330655,0.5163 -6.21875,1.40634 l 0,-1.40634 c -0.34978,-8.6225 -7.48023,-15.5312 -16.1875,-15.5312 z m 0,8.375 c 4.08653,0 7.41205,3.1579 7.75,7.1562 l 0.0625,0 0,14.62506 c 0,2.2502 0.49762,4.3772 1.40625,6.2813 l -4.4375,0 -14.75,0 c -0.13106,0 -0.36552,-0.044 -0.5,-0.062 -4.94777,-0.1805 -8.9375,-4.1952 -8.9375,-9.1875 0,-4.9922 3.98973,-9.0354 8.9375,-9.2188 l 2.75,0 0,-2.43756 c 0.33794,-3.9983 3.63222,-7.1562 7.71875,-7.1562 z m 22.40625,15.56256 c 3.45523,0 6.3125,2.7635 6.3125,6.2187 0,3.4553 -2.85727,6.2813 -6.3125,6.2813 -0.02154,0 -0.04101,2e-4 -0.0625,0 -3.425119,-0.035 -6.15625,-2.8475 -6.15625,-6.2813 0,-3.4552 2.76353,-6.2187 6.21875,-6.2187 z"
         id="path3299"
         inkscape:connector-curvature="0" />
      <path
         inkscape:connector-curvature="0"
         id="path3301"
         d="m 43.375,981.11212 c -6.82459,0 -12.63505,4.2326 -15,10.2187 -7.37316,2.1119 -12.78125,8.92738 -12.78125,16.96888 0,9.6106 7.74425,17.3841 17.3125,17.5625 l 0.3125,0 32.5,0 c 0.0214,0 0.04107,0 0.0625,0 8.07078,0 14.625,-6.523 14.625,-14.5938 0,-8.0708 -6.55422,-14.62508 -14.625,-14.62508 -2.225427,0 -4.330655,0.5163 -6.21875,1.40634 l 0,-1.40634 c -0.34978,-8.6225 -7.48023,-15.5312 -16.1875,-15.5312 z m 0,8.375 c 4.08653,0 7.41205,3.1579 7.75,7.1562 l 0.0625,0 0,14.62508 c 0,2.2502 0.49762,4.3772 1.40625,6.2813 l -4.4375,0 -14.75,0 c -0.13106,0 -0.36552,-0.044 -0.5,-0.062 -4.94777,-0.1805 -8.9375,-4.1952 -8.9375,-9.1875 0,-4.9922 3.98973,-9.03542 8.9375,-9.21882 l 2.75,0 0,-2.43756 c 0.33794,-3.9983 3.63222,-7.1562 7.71875,-7.1562 z m 22.40625,15.56258 c 3.45523,0 6.3125,2.7635 6.3125,6.2187 0,3.4553 -2.85727,6.2813 -6.3125,6.2813 -0.02154,0 -0.04101,2e-4 -0.0625,0 -3.425119,-0.035 -6.15625,-2.8475 -6.15625,-6.2813 0,-3.4552 2.76353,-6.2187 6.21875,-6.2187 z"
         style="opacity:0.05;fill:#000000;fill-opacity:1;stroke:none" />
      <path
         style="opacity:0.05;fill:#000000;fill-opacity:1;stroke:none"
         d="m 43.375,980.1121 c -6.82459,0 -12.63505,4.2326 -15,10.2187 -7.37316,2.1119 -12.78125,8.92738 -12.78125,16.9689 0,9.6106 7.74425,17.3841 17.3125,17.5625 l 0.3125,0 32.5,0 c 0.0214,0 0.04107,0 0.0625,0 8.07078,0 14.625,-6.523 14.625,-14.5938 0,-8.0708 -6.55422,-14.6251 -14.625,-14.6251 -2.225427,0 -4.330655,0.5163 -6.21875,1.40634 l 0,-1.40634 C 59.21272,987.0208 52.08227,980.1121 43.375,980.1121 z m 0,8.375 c 4.08653,0 7.41205,3.1579 7.75,7.1562 l 0.0625,0 0,14.6251 c 0,2.2502 0.49762,4.3772 1.40625,6.2813 l -4.4375,0 -14.75,0 c -0.13106,0 -0.36552,-0.044 -0.5,-0.062 -4.94777,-0.1805 -8.9375,-4.1952 -8.9375,-9.1875 0,-4.9922 3.98973,-9.03544 8.9375,-9.21884 l 2.75,0 0,-2.43756 c 0.33794,-3.9983 3.63222,-7.1562 7.71875,-7.1562 z m 22.40625,15.5626 c 3.45523,0 6.3125,2.7635 6.3125,6.2187 0,3.4553 -2.85727,6.2813 -6.3125,6.2813 -0.02154,0 -0.04101,2e-4 -0.0625,0 -3.425119,-0.035 -6.15625,-2.8475 -6.15625,-6.2813 0,-3.4552 2.76353,-6.2187 6.21875,-6.2187 z"
         id="path3303"
         inkscape:connector-curvature="0" />
      <path
         inkscape:connector-curvature="0"
         id="path3305"
         d="m 43.375,979.11208 c -6.82459,0 -12.63505,4.2326 -15,10.2187 -7.37316,2.1119 -12.78125,8.92738 -12.78125,16.96892 0,9.6106 7.74425,17.3841 17.3125,17.5625 l 0.3125,0 32.5,0 c 0.0214,0 0.04107,0 0.0625,0 8.07078,0 14.625,-6.523 14.625,-14.5938 0,-8.0708 -6.55422,-14.62512 -14.625,-14.62512 -2.225427,0 -4.330655,0.5163 -6.21875,1.40634 l 0,-1.40634 c -0.34978,-8.6225 -7.48023,-15.5312 -16.1875,-15.5312 z m 0,8.375 c 4.08653,0 7.41205,3.1579 7.75,7.1562 l 0.0625,0 0,14.62512 c 0,2.2502 0.49762,4.3772 1.40625,6.2813 l -4.4375,0 -14.75,0 c -0.13106,0 -0.36552,-0.044 -0.5,-0.062 -4.94777,-0.1805 -8.9375,-4.1952 -8.9375,-9.1875 0,-4.9922 3.98973,-9.03546 8.9375,-9.21886 l 2.75,0 0,-2.43756 c 0.33794,-3.9983 3.63222,-7.1562 7.71875,-7.1562 z m 22.40625,15.56262 c 3.45523,0 6.3125,2.7635 6.3125,6.2187 0,3.4553 -2.85727,6.2813 -6.3125,6.2813 -0.02154,0 -0.04101,2e-4 -0.0625,0 -3.425119,-0.035 -6.15625,-2.8475 -6.15625,-6.2813 0,-3.4552 2.76353,-6.2187 6.21875,-6.2187 z"
         style="opacity:0.05;fill:#000000;fill-opacity:1;stroke:none" />
    </g>
    <g
       id="g3943"
       transform="translate(-22,0)"
       style="fill:none">
      <text
         sodipodi:linespacing="125%"
         id="text3115"
         y="1009.9579"
         x="-65.777588"
         style="font-size:9px;font-style:normal;font-variant:normal;font-weight:normal;font-stretch:normal;line-height:125%;letter-spacing:0px;word-spacing:0px;fill:none;fill-opacity:1;stroke:none;font-family:Rage Italic;-inkscape-font-specification:Rage Italic"
         xml:space="preserve"><tspan
           style="font-size:9px;font-style:normal;font-variant:normal;font-weight:normal;font-stretch:normal;font-family:MV Boli;-inkscape-font-specification:MV Boli;fill:none"
           y="1009.9579"
           x="-65.777588"
           id="tspan3117"
           sodipodi:role="line">Certificate</tspan></text>
      <text
         sodipodi:linespacing="125%"
         id="text3125"
         y="1013.3022"
         x="-52.981575"
         style="font-size:4px;font-style:normal;font-variant:normal;font-weight:normal;font-stretch:normal;line-height:125%;letter-spacing:0px;word-spacing:0px;fill:none;fill-opacity:1;stroke:none;font-family:Cantarell;-inkscape-font-specification:Cantarell"
         xml:space="preserve"><tspan
           y="1013.3022"
           x="-52.981575"
           id="tspan3127"
           sodipodi:role="line">is given to</tspan></text>
      <text
         xml:space="preserve"
         style="font-size:3.46744393999999989px;font-style:normal;font-variant:normal;font-weight:normal;font-stretch:normal;line-height:125%;letter-spacing:0px;word-spacing:0px;fill:none;fill-opacity:1;stroke:none;font-family:Cantarell;-inkscape-font-specification:Cantarell"
         x="-73.856857"
         y="1026.5074"
         id="text3131"
         sodipodi:linespacing="125%"><tspan
           sodipodi:role="line"
           id="tspan3133"
           x="-73.856857"
           y="1026.5074">for his/her participation in the congress</tspan></text>
    </g>
    <g
       id="g3366">
      <path
         sodipodi:nodetypes="ccscscccccscccsccccccc"
         id="path3156"
         d="m 43.379565,978.59969 c -6.82459,0 -12.64325,4.23783 -15.0082,10.22393 -7.37316,2.11193 -12.77991,8.9329 -12.77991,16.97438 0,9.6106 7.73378,17.3858 17.30203,17.5642 0.11178,0 0.2153,0 0.32769,0 l 32.50258,0 0,-8.3233 -17.55991,0 -14.76909,0 c -0.13106,0 -0.36679,-0.048 -0.50127,-0.066 -4.94777,-0.1805 -8.91317,-4.183 -8.91317,-9.1753 0,-4.9922 3.9654,-9.05748 8.91317,-9.24088 l 2.7526,0 0,-2.42487 c 0.33794,-3.9983 3.64695,-7.14369 7.73348,-7.14369 4.08653,0 7.39554,3.14539 7.73349,7.14369 l 0.0654,0 0,14.60975 8.38887,0 0,-14.60975 c -0.34978,-8.62251 -7.48052,-15.53256 -16.18779,-15.53256 z"
         style="fill:url(#linearGradient3350);fill-opacity:1;stroke:none"
         inkscape:connector-curvature="0" />
      <path
         inkscape:connector-curvature="0"
         id="path3268"
         d="m 51.1875,1008.6301 0,0.125 8.375,0 0,-0.125 -8.375,0 z m -5.59375,6.4062 0,8.3125 20.125,0 0,-8.3125 -17.5625,0 -2.5625,0 z"
         style="fill:url(#linearGradient3347);fill-opacity:1;stroke:none" />
      <path
         id="path3162"
         d="m 65.793565,994.13225 c -8.07078,0 -14.61497,6.54415 -14.61497,14.61495 0,8.0708 6.54419,14.615 14.61497,14.615 8.07078,0 14.61498,-6.5442 14.61498,-14.615 0,-8.0708 -6.5442,-14.61495 -14.61498,-14.61495 z m 0,8.38885 c 3.45523,0 6.29165,2.7709 6.29165,6.2261 0,3.4553 -2.83642,6.2917 -6.29165,6.2917 -3.45522,0 -6.22611,-2.8364 -6.22611,-6.2917 0,-3.4552 2.77089,-6.2261 6.22611,-6.2261 z"
         style="fill:url(#linearGradient3344);fill-opacity:1;stroke:none"
         inkscape:connector-curvature="0" />
      <path
         inkscape:connector-curvature="0"
         id="path3245"
         d="m 65.78125,994.13004 c -2.225427,0 -4.330655,0.51632 -6.21875,1.40625 l 0,12.90631 c 0.164969,-3.3038 2.871236,-5.9063 6.21875,-5.9063 0.3564,0 0.690054,0.037 1.03125,0.094 l 0,-8.46881 c -0.340634,-0.0238 -0.684623,-0.0312 -1.03125,-0.0312 z"
         style="fill:url(#linearGradient3341);fill-opacity:1;stroke:none" />
    </g>
    <path
       style="fill:#ffffff;fill-opacity:1;stroke:none"
       d="M 43.375 22.25 C 36.55041 22.25 30.73995 26.48265 28.375 32.46875 C 21.00184 34.58068 15.59375 41.39602 15.59375 49.4375 C 15.59375 49.585177 15.621364 49.728212 15.625 49.875 C 15.870853 42.080166 21.174748 35.531153 28.375 33.46875 C 30.73995 27.48265 36.55041 23.25 43.375 23.25 C 52.08227 23.25 59.21272 30.15874 59.5625 38.78125 L 59.5625 37.78125 C 59.21272 29.15874 52.08227 22.25 43.375 22.25 z M 65.78125 37.78125 C 65.212265 37.78125 64.677052 37.811707 64.125 37.875 C 63.654905 37.928896 63.174206 37.996319 62.71875 38.09375 C 62.492846 38.142835 62.284411 38.221858 62.0625 38.28125 C 61.713863 38.373094 61.369187 38.4773 61.03125 38.59375 C 60.531707 38.765888 60.035883 38.933125 59.5625 39.15625 L 59.5625 40.15625 C 60.035883 39.93312 60.531707 39.76589 61.03125 39.59375 C 61.369187 39.4773 61.713863 39.37305 62.0625 39.28125 C 62.284411 39.22186 62.492846 39.14285 62.71875 39.09375 C 63.174206 38.99632 63.654905 38.9289 64.125 38.875 C 64.677052 38.8118 65.212265 38.78125 65.78125 38.78125 C 66.127877 38.78125 66.471866 38.7887 66.8125 38.8125 C 74.237166 39.330108 80.121473 45.381202 80.375 52.875 C 80.380654 52.708077 80.40625 52.543287 80.40625 52.375 C 80.40625 44.650828 74.402298 38.341622 66.8125 37.8125 C 66.471866 37.7887 66.127877 37.78125 65.78125 37.78125 z M 24 49.9375 C 23.991229 50.101914 23.96875 50.270932 23.96875 50.4375 C 23.96875 55.4298 27.95848 59.4445 32.90625 59.625 C 33.04073 59.642 33.27519 59.6875 33.40625 59.6875 L 48.15625 59.6875 L 52.625 59.6875 C 52.468477 59.361898 52.320162 59.025431 52.1875 58.6875 L 48.15625 58.6875 L 33.40625 58.6875 C 33.27519 58.6875 33.04073 58.643 32.90625 58.625 C 28.123566 58.450523 24.254095 54.697094 24 49.9375 z M 59.59375 52.875 C 59.584655 52.947972 59.56609 53.021165 59.5625 53.09375 C 59.5596 53.15755 59.563465 53.21725 59.5625 53.28125 L 59.5625 53.375 C 59.5625 56.8303 62.32603 59.6875 65.78125 59.6875 C 69.23648 59.6875 72.09375 56.8303 72.09375 53.375 C 72.09375 53.245247 72.070404 53.127647 72.0625 53 C 71.735938 56.160981 69.020528 58.6875 65.78125 58.6875 C 62.498899 58.6875 59.851514 56.095202 59.59375 52.875 z "
       id="path3352"
       transform="translate(0,956.36218)" />
  </g>
</svg>
