<?xml version="1.0" encoding="UTF-8" standalone="no"?>
<!-- Created with Inkscape (http://www.inkscape.org/) -->

<svg
   xmlns:dc="http://purl.org/dc/elements/1.1/"
   xmlns:cc="http://creativecommons.org/ns#"
   xmlns:rdf="http://www.w3.org/1999/02/22-rdf-syntax-ns#"
   xmlns:svg="http://www.w3.org/2000/svg"
   xmlns="http://www.w3.org/2000/svg"
   xmlns:xlink="http://www.w3.org/1999/xlink"
   xmlns:sodipodi="http://sodipodi.sourceforge.net/DTD/sodipodi-0.dtd"
   xmlns:inkscape="http://www.inkscape.org/namespaces/inkscape"
   width="96"
   height="96"
   id="svg2"
   version="1.1"
   inkscape:version="0.48.4 r9939"
   sodipodi:docname="grsync.svg">
  <defs
     id="defs4">
    <linearGradient
       inkscape:collect="always"
       id="linearGradient6239">
      <stop
         style="stop-color:#c7cbd7;stop-opacity:1"
         offset="0"
         id="stop6241" />
      <stop
         style="stop-color:#f7ebf7;stop-opacity:1"
         offset="1"
         id="stop6243" />
    </linearGradient>
    <linearGradient
       inkscape:collect="always"
       id="linearGradient3150">
      <stop
         style="stop-color:#ffffff;stop-opacity:1"
         offset="0"
         id="stop3152" />
      <stop
         style="stop-color:#ffffff;stop-opacity:1"
         offset="1"
         id="stop3154" />
    </linearGradient>
    <linearGradient
       inkscape:collect="always"
       id="linearGradient4196">
      <stop
         style="stop-color:#a0e65d;stop-opacity:1"
         offset="0"
         id="stop4198" />
      <stop
         style="stop-color:#7fcd35;stop-opacity:1"
         offset="1"
         id="stop4200" />
    </linearGradient>
    <linearGradient
       inkscape:collect="always"
       id="linearGradient4149">
      <stop
         style="stop-color:#4d9309;stop-opacity:1"
         offset="0"
         id="stop4151" />
      <stop
         style="stop-color:#83d92e;stop-opacity:1"
         offset="1"
         id="stop4153" />
    </linearGradient>
    <linearGradient
       id="linearGradient4137"
       inkscape:collect="always">
      <stop
         id="stop4139"
         offset="0"
         style="stop-color:#524d63;stop-opacity:1" />
      <stop
         id="stop4141"
         offset="1"
         style="stop-color:#838994;stop-opacity:1" />
    </linearGradient>
    <linearGradient
       id="linearGradient4131"
       inkscape:collect="always">
      <stop
         id="stop4133"
         offset="0"
         style="stop-color:#7dba41;stop-opacity:1" />
      <stop
         id="stop4135"
         offset="1"
         style="stop-color:#a0e65c;stop-opacity:1" />
    </linearGradient>
    <linearGradient
       inkscape:collect="always"
       id="linearGradient4398">
      <stop
         style="stop-color:#ebe3e3;stop-opacity:1"
         offset="0"
         id="stop4400" />
      <stop
         id="stop3856"
         offset="0.43727577"
         style="stop-color:#f7ebef;stop-opacity:1" />
      <stop
         style="stop-color:#f7f7f7;stop-opacity:1"
         offset="1"
         id="stop4402" />
    </linearGradient>
    <linearGradient
       id="linearGradient4357"
       inkscape:collect="always">
      <stop
         id="stop4359"
         offset="0"
         style="stop-color:#ded3d6;stop-opacity:1" />
      <stop
         id="stop4361"
         offset="1"
         style="stop-color:#f7ebef;stop-opacity:1" />
    </linearGradient>
    <linearGradient
       id="linearGradient3076"
       inkscape:collect="always">
      <stop
         id="stop3078"
         offset="0"
         style="stop-color:#ffe7f7;stop-opacity:1" />
      <stop
         id="stop3080"
         offset="1"
         style="stop-color:#ffc3ef;stop-opacity:1" />
    </linearGradient>
    <linearGradient
       inkscape:collect="always"
       id="linearGradient3059">
      <stop
         style="stop-color:#29a221;stop-opacity:1"
         offset="0"
         id="stop3061" />
      <stop
         style="stop-color:#63db4a;stop-opacity:1"
         offset="1"
         id="stop3064" />
    </linearGradient>
    <linearGradient
       inkscape:collect="always"
       id="linearGradient3048">
      <stop
         style="stop-color:#c16d16;stop-opacity:1"
         offset="0"
         id="stop3050" />
      <stop
         style="stop-color:#ff8e31;stop-opacity:1"
         offset="1"
         id="stop3052" />
    </linearGradient>
    <linearGradient
       inkscape:collect="always"
       id="linearGradient3119">
      <stop
         style="stop-color:#92948f;stop-opacity:0"
         offset="0"
         id="stop3121" />
      <stop
         id="stop3123"
         offset="0.4283945"
         style="stop-color:#9b9e98;stop-opacity:1" />
      <stop
         style="stop-color:#939690;stop-opacity:0"
         offset="1"
         id="stop3125" />
    </linearGradient>
    <linearGradient
       id="linearGradient3073"
       inkscape:collect="always">
      <stop
         id="stop3075"
         offset="0"
         style="stop-color:#ffffff;stop-opacity:0" />
      <stop
         style="stop-color:#ffffff;stop-opacity:1"
         offset="0.45872402"
         id="stop3085" />
      <stop
         id="stop3083"
         offset="1"
         style="stop-color:#ffffff;stop-opacity:0" />
    </linearGradient>
    <linearGradient
       inkscape:collect="always"
       id="linearGradient3047">
      <stop
         style="stop-color:#000000;stop-opacity:1"
         offset="0"
         id="stop3049" />
      <stop
         id="stop3055"
         offset="0.06123874"
         style="stop-color:#1a1a1a;stop-opacity:1" />
      <stop
         style="stop-color:#333333;stop-opacity:1"
         offset="0.16480456"
         id="stop3057" />
      <stop
         id="stop3059"
         offset="0.55385184"
         style="stop-color:#4d4d4d;stop-opacity:1" />
      <stop
         style="stop-color:#999999;stop-opacity:1"
         offset="1"
         id="stop3051" />
    </linearGradient>
    <linearGradient
       id="linearGradient3041"
       inkscape:collect="always">
      <stop
         id="stop3043"
         offset="0"
         style="stop-color:#1a1a1a;stop-opacity:1" />
      <stop
         id="stop3045"
         offset="1"
         style="stop-color:#808080;stop-opacity:1" />
    </linearGradient>
    <linearGradient
       inkscape:collect="always"
       id="linearGradient3029">
      <stop
         style="stop-color:#333333;stop-opacity:1"
         offset="0"
         id="stop3031" />
      <stop
         style="stop-color:#e0e0dd;stop-opacity:0;"
         offset="1"
         id="stop3033" />
    </linearGradient>
    <linearGradient
       inkscape:collect="always"
       xlink:href="#linearGradient3029"
       id="linearGradient3035"
       x1="35.355339"
       y1="1030.3622"
       x2="35.355339"
       y2="975.33282"
       gradientUnits="userSpaceOnUse"
       gradientTransform="matrix(1.1638085,0,0,1.1638085,-7.862809,-164.23642)" />
    <linearGradient
       inkscape:collect="always"
       xlink:href="#linearGradient3041"
       id="linearGradient3039"
       gradientUnits="userSpaceOnUse"
       x1="35.355339"
       y1="1030.3622"
       x2="35.355339"
       y2="975.33282"
       gradientTransform="matrix(1.1218695,0,0,1.1218695,-5.8497348,-122.18782)" />
    <linearGradient
       inkscape:collect="always"
       xlink:href="#linearGradient3047"
       id="linearGradient3053"
       x1="40"
       y1="1043.4336"
       x2="39.285713"
       y2="972.33325"
       gradientUnits="userSpaceOnUse" />
    <linearGradient
       inkscape:collect="always"
       xlink:href="#linearGradient3073"
       id="linearGradient3113"
       gradientUnits="userSpaceOnUse"
       gradientTransform="translate(0,-956.36218)"
       x1="14.869445"
       y1="978.90387"
       x2="24.52651"
       y2="969.24683" />
    <linearGradient
       inkscape:collect="always"
       xlink:href="#linearGradient3073"
       id="linearGradient3115"
       gradientUnits="userSpaceOnUse"
       gradientTransform="matrix(-1,0,0,1,96,-956.36218)"
       x1="15.152279"
       y1="978.62103"
       x2="26.263966"
       y2="967.50934" />
    <linearGradient
       inkscape:collect="always"
       xlink:href="#linearGradient3119"
       id="linearGradient3117"
       gradientUnits="userSpaceOnUse"
       gradientTransform="translate(0,-956.36218)"
       x1="13.131983"
       y1="980.64136"
       x2="25.549681"
       y2="967.86646" />
    <linearGradient
       inkscape:collect="always"
       xlink:href="#linearGradient3119"
       id="linearGradient3129"
       gradientUnits="userSpaceOnUse"
       gradientTransform="matrix(-1,0,0,1,96,0)"
       x1="13.131983"
       y1="980.64136"
       x2="25.549681"
       y2="967.86646" />
    <linearGradient
       inkscape:collect="always"
       xlink:href="#linearGradient3048"
       id="linearGradient3054"
       x1="49.267925"
       y1="996.57349"
       x2="49.267925"
       y2="1045.8627"
       gradientUnits="userSpaceOnUse" />
    <linearGradient
       inkscape:collect="always"
       xlink:href="#linearGradient3048"
       id="linearGradient3058"
       x1="115.80308"
       y1="985.47241"
       x2="115.80308"
       y2="1033.5543"
       gradientUnits="userSpaceOnUse" />
    <linearGradient
       inkscape:collect="always"
       xlink:href="#linearGradient3059"
       id="linearGradient3066"
       x1="22.54203"
       y1="1043.3966"
       x2="22.54203"
       y2="964.45898"
       gradientUnits="userSpaceOnUse" />
    <linearGradient
       inkscape:collect="always"
       xlink:href="#linearGradient4137"
       id="linearGradient3068"
       x1="53.796227"
       y1="1041.7183"
       x2="53.796227"
       y2="962.96771"
       gradientUnits="userSpaceOnUse" />
    <linearGradient
       inkscape:collect="always"
       xlink:href="#linearGradient3076"
       id="linearGradient3086"
       gradientUnits="userSpaceOnUse"
       gradientTransform="matrix(1.4144782,0,0,1.4144782,-119.78686,-417.12598)"
       x1="115.80308"
       y1="985.47241"
       x2="115.80308"
       y2="1025.3639" />
    <linearGradient
       inkscape:collect="always"
       xlink:href="#linearGradient3076"
       id="linearGradient3091"
       gradientUnits="userSpaceOnUse"
       gradientTransform="matrix(1.4144782,0,0,1.4144782,-119.78686,-418.126)"
       x1="115.80308"
       y1="985.47241"
       x2="115.80308"
       y2="1025.3639" />
    <linearGradient
       inkscape:collect="always"
       xlink:href="#linearGradient3076"
       id="linearGradient3093"
       gradientUnits="userSpaceOnUse"
       gradientTransform="matrix(1.4144782,0,0,1.4144782,-119.78686,-1375.4171)"
       x1="115.80308"
       y1="985.47241"
       x2="115.80308"
       y2="1025.3639" />
    <linearGradient
       inkscape:collect="always"
       xlink:href="#linearGradient4357"
       id="linearGradient4354"
       gradientUnits="userSpaceOnUse"
       x1="93.242035"
       y1="1027.2615"
       x2="93.242035"
       y2="980.7262"
       gradientTransform="translate(86.884751,0)" />
    <linearGradient
       inkscape:collect="always"
       xlink:href="#linearGradient4398"
       id="linearGradient4404"
       x1="47.094341"
       y1="1025.5547"
       x2="47.094341"
       y2="975.55695"
       gradientUnits="userSpaceOnUse"
       gradientTransform="translate(86.218871,0)" />
    <linearGradient
       inkscape:collect="always"
       xlink:href="#linearGradient4131"
       id="linearGradient4129"
       gradientUnits="userSpaceOnUse"
       x1="53.796227"
       y1="1046.0226"
       x2="53.796227"
       y2="962.97437"
       gradientTransform="matrix(0.97619048,0,0,0.97619048,1.1428571,23.913382)" />
    <linearGradient
       inkscape:collect="always"
       xlink:href="#linearGradient4149"
       id="linearGradient4147"
       gradientUnits="userSpaceOnUse"
       gradientTransform="matrix(0.95238096,0,0,0.95238096,2.2857142,47.826764)"
       x1="53.796227"
       y1="1046.0226"
       x2="53.796227"
       y2="962.97437" />
    <linearGradient
       inkscape:collect="always"
       xlink:href="#linearGradient4131"
       id="linearGradient4171"
       gradientUnits="userSpaceOnUse"
       gradientTransform="matrix(0.97619048,0,0,0.97619048,1.1428571,23.913382)"
       x1="53.796227"
       y1="1046.0226"
       x2="53.796227"
       y2="962.97437" />
    <linearGradient
       inkscape:collect="always"
       xlink:href="#linearGradient4149"
       id="linearGradient4173"
       gradientUnits="userSpaceOnUse"
       gradientTransform="matrix(0.95238096,0,0,0.95238096,2.2857142,47.826764)"
       x1="53.796227"
       y1="1046.0226"
       x2="53.796227"
       y2="962.97437" />
    <linearGradient
       inkscape:collect="always"
       xlink:href="#linearGradient4149"
       id="linearGradient4176"
       gradientUnits="userSpaceOnUse"
       gradientTransform="matrix(0.95238096,0,0,0.95238096,2.2857142,59.610099)"
       x1="53.796227"
       y1="1046.0226"
       x2="53.796227"
       y2="962.97437" />
    <linearGradient
       inkscape:collect="always"
       xlink:href="#linearGradient4131"
       id="linearGradient4179"
       gradientUnits="userSpaceOnUse"
       gradientTransform="matrix(0.97619048,0,0,0.97619048,1.1428571,37.696717)"
       x1="53.796227"
       y1="1046.0226"
       x2="53.796227"
       y2="962.97437" />
    <linearGradient
       inkscape:collect="always"
       xlink:href="#linearGradient4131"
       id="linearGradient4185"
       gradientUnits="userSpaceOnUse"
       gradientTransform="matrix(0.97619048,0,0,0.97619048,1.1428571,23.913382)"
       x1="53.796227"
       y1="1046.0226"
       x2="53.796227"
       y2="962.97437" />
    <linearGradient
       inkscape:collect="always"
       xlink:href="#linearGradient4149"
       id="linearGradient4187"
       gradientUnits="userSpaceOnUse"
       gradientTransform="matrix(0.95238096,0,0,0.95238096,2.2857142,47.826764)"
       x1="53.796227"
       y1="1046.0226"
       x2="53.796227"
       y2="962.97437" />
    <linearGradient
       inkscape:collect="always"
       xlink:href="#linearGradient4149"
       id="linearGradient4190"
       gradientUnits="userSpaceOnUse"
       gradientTransform="matrix(0.95238096,0,0,0.95238096,2.2857142,-908.53542)"
       x1="53.796227"
       y1="1046.0226"
       x2="53.796227"
       y2="962.97437" />
    <linearGradient
       inkscape:collect="always"
       xlink:href="#linearGradient4131"
       id="linearGradient4193"
       gradientUnits="userSpaceOnUse"
       gradientTransform="matrix(0.97619048,0,0,0.97619048,1.1428571,23.913382)"
       x1="53.796227"
       y1="1046.0226"
       x2="53.796227"
       y2="962.97437" />
    <linearGradient
       inkscape:collect="always"
       xlink:href="#linearGradient4196"
       id="linearGradient4202"
       x1="16.906523"
       y1="8.3934689"
       x2="16.906523"
       y2="26.588005"
       gradientUnits="userSpaceOnUse" />
    <radialGradient
       inkscape:collect="always"
       xlink:href="#linearGradient3307"
       id="radialGradient4284"
       gradientUnits="userSpaceOnUse"
       gradientTransform="matrix(1.0514484,-1.0514485,1.1030109,1.1030109,-57.005386,-113.52253)"
       cx="-106.66165"
       cy="64.455704"
       fx="-106.66165"
       fy="64.455704"
       r="21.375" />
    <linearGradient
       inkscape:collect="always"
       id="linearGradient3307">
      <stop
         style="stop-color:#66b41a;stop-opacity:1"
         offset="0"
         id="stop3309" />
      <stop
         id="stop3341"
         offset="0.6955229"
         style="stop-color:#569817;stop-opacity:1" />
      <stop
         id="stop3339"
         offset="0.84899038"
         style="stop-color:#477b12;stop-opacity:1" />
      <stop
         style="stop-color:#3e6d10;stop-opacity:1"
         offset="1"
         id="stop3311" />
    </linearGradient>
    <linearGradient
       inkscape:collect="always"
       xlink:href="#linearGradient3315"
       id="linearGradient4282"
       gradientUnits="userSpaceOnUse"
       x1="-103.53697"
       y1="34.18985"
       x2="-103.53697"
       y2="76.055702" />
    <linearGradient
       inkscape:collect="always"
       id="linearGradient3315">
      <stop
         style="stop-color:#a5c69f;stop-opacity:1"
         offset="0"
         id="stop3317" />
      <stop
         style="stop-color:#fffbff;stop-opacity:1"
         offset="1"
         id="stop3319" />
    </linearGradient>
    <linearGradient
       inkscape:collect="always"
       xlink:href="#linearGradient3325"
       id="linearGradient4289"
       gradientUnits="userSpaceOnUse"
       gradientTransform="matrix(1.0625,0,0,1.0625,281.9462,944.84632)"
       x1="-109.75"
       y1="81"
       x2="-109.75"
       y2="30.747408" />
    <linearGradient
       inkscape:collect="always"
       id="linearGradient3325">
      <stop
         style="stop-color:#c2debe;stop-opacity:1"
         offset="0"
         id="stop3327" />
      <stop
         style="stop-color:#eeffe7;stop-opacity:1"
         offset="1"
         id="stop3329" />
    </linearGradient>
    <linearGradient
       inkscape:collect="always"
       xlink:href="#linearGradient4149"
       id="linearGradient3111"
       gradientUnits="userSpaceOnUse"
       gradientTransform="matrix(0.95238096,0,0,0.95238096,2.2857142,47.826764)"
       x1="53.796227"
       y1="1046.0226"
       x2="53.796227"
       y2="962.97437" />
    <linearGradient
       inkscape:collect="always"
       xlink:href="#linearGradient3150"
       id="linearGradient3156"
       x1="33.436245"
       y1="1024.1847"
       x2="33.436245"
       y2="990.54865"
       gradientUnits="userSpaceOnUse" />
    <linearGradient
       inkscape:collect="always"
       xlink:href="#linearGradient3150"
       id="linearGradient3158"
       gradientUnits="userSpaceOnUse"
       x1="33.436245"
       y1="1024.1847"
       x2="33.436245"
       y2="990.54865" />
    <linearGradient
       inkscape:collect="always"
       xlink:href="#linearGradient3150"
       id="linearGradient3160"
       gradientUnits="userSpaceOnUse"
       x1="33.436245"
       y1="1024.1847"
       x2="33.436245"
       y2="990.54865" />
    <linearGradient
       inkscape:collect="always"
       xlink:href="#linearGradient3150"
       id="linearGradient3163"
       gradientUnits="userSpaceOnUse"
       x1="33.436245"
       y1="1024.1847"
       x2="33.436245"
       y2="990.54865"
       gradientTransform="translate(0.889122,0)" />
    <linearGradient
       inkscape:collect="always"
       xlink:href="#linearGradient3150"
       id="linearGradient3166"
       gradientUnits="userSpaceOnUse"
       x1="33.436245"
       y1="1024.1847"
       x2="33.436245"
       y2="990.54865"
       gradientTransform="translate(0.889122,-956.36218)" />
    <linearGradient
       inkscape:collect="always"
       xlink:href="#linearGradient6239"
       id="linearGradient6247"
       x1="-76.951889"
       y1="1018.5491"
       x2="-39.808765"
       y2="992.93323"
       gradientUnits="userSpaceOnUse" />
    <linearGradient
       inkscape:collect="always"
       xlink:href="#linearGradient6239"
       id="linearGradient6258"
       gradientUnits="userSpaceOnUse"
       x1="-78.232689"
       y1="994.72626"
       x2="-39.808765"
       y2="992.93323"
       gradientTransform="translate(108.91947,0.05127262)" />
    <linearGradient
       inkscape:collect="always"
       xlink:href="#linearGradient6239"
       id="linearGradient6261"
       gradientUnits="userSpaceOnUse"
       x1="-72.597176"
       y1="68.078621"
       x2="-28.793911"
       y2="44.768112"
       gradientTransform="translate(108.91947,956.41345)" />
  </defs>
  <sodipodi:namedview
     id="base"
     pagecolor="#ffffff"
     bordercolor="#666666"
     borderopacity="1.0"
     inkscape:pageopacity="0.0"
     inkscape:pageshadow="2"
     inkscape:zoom="0.97595465"
     inkscape:cx="-177.04088"
     inkscape:cy="25.867055"
     inkscape:document-units="px"
     inkscape:current-layer="layer1"
     showgrid="false"
     inkscape:window-width="1364"
     inkscape:window-height="711"
     inkscape:window-x="0"
     inkscape:window-y="27"
     inkscape:window-maximized="1"
     showguides="true"
     inkscape:guide-bbox="true" />
  <metadata
     id="metadata7">
    <rdf:RDF>
      <cc:Work
         rdf:about="">
        <dc:format>image/svg+xml</dc:format>
        <dc:type
           rdf:resource="http://purl.org/dc/dcmitype/StillImage" />
        <dc:title></dc:title>
      </cc:Work>
    </rdf:RDF>
  </metadata>
  <g
     inkscape:label="Layer 1"
     inkscape:groupmode="layer"
     id="layer1"
     transform="translate(0,-956.36218)">
    <rect
       style="opacity:0.05;fill:#000000;fill-opacity:1;stroke:none"
       id="rect3826"
       width="89"
       height="89"
       x="3.5"
       y="960.86218"
       rx="10.595235"
       ry="10.595235" />
    <g
       id="g3041">
      <rect
         style="opacity:0.05;fill:#000000;fill-opacity:1;stroke:none"
         id="rect3824"
         width="88"
         height="88"
         x="4"
         y="961.36218"
         rx="10.476188"
         ry="10.476188" />
      <rect
         ry="10.357141"
         rx="10.357141"
         y="961.86218"
         x="4.5"
         height="87"
         width="87"
         id="rect3822"
         style="opacity:0.05;fill:#000000;fill-opacity:1;stroke:none" />
      <rect
         style="opacity:0.1;fill:#000000;fill-opacity:1;stroke:none"
         id="rect3820"
         width="86"
         height="86"
         x="5"
         y="962.36218"
         rx="10.238094"
         ry="10.238094" />
      <rect
         ry="10.119047"
         rx="10.119047"
         y="962.86218"
         x="5.5"
         height="85"
         width="85"
         id="rect3818"
         style="opacity:0.1;fill:#000000;fill-opacity:1;stroke:none" />
      <rect
         style="opacity:0.3;fill:#000000;fill-opacity:1;stroke:none"
         id="rect3131"
         width="84"
         height="84"
         x="6"
         y="963.36218"
         rx="10"
         ry="10" />
    </g>
    <rect
       ry="10"
       rx="10"
       y="962.36218"
       x="6"
       height="84"
       width="84"
       id="rect3036"
       style="fill:url(#linearGradient3068);fill-opacity:1;stroke:none" />
    <path
       style="opacity:0.05;fill:#000000;fill-opacity:1;stroke:none"
       d="m 48.59375,982.39371 c -10.083879,0 -18.815872,5.802 -23.03125,14.25 -0.154999,0.3245 -0.28125,0.68195 -0.28125,1.09375 0,1.2004 0.987062,2.15625 2.1875,2.15625 0.649627,0 1.226701,-0.26695 1.625,-0.71875 3.817578,-4.3037 9.384331,-7.03125 15.59375,-7.03125 7.244563,0 13.634777,3.7058 17.375,9.31249 l -4.1875,4.1875 c -0.209625,0.2653 -0.375,0.6137 -0.375,1.2188 0,0.7526 0.622396,1.3437 1.375,1.3437 l 14.625,0 c 0.752604,0 1.34375,-0.5911 1.34375,-1.3437 l 0,-14.59379 c 0,-0.7526 -0.591146,-1.34375 -1.34375,-1.34375 -0.682887,0 -0.902468,0.107 -1.34375,0.4375 l -2.3125,2.3125 c -4.622928,-6.8018 -12.404217,-11.28125 -21.25,-11.28125 z M 22.5,1010.5187 c -0.752604,0 -1.34375,0.5912 -1.34375,1.3438 l 0,14.5937 c 0,0.7526 0.591146,1.3438 1.34375,1.3438 0.682887,0 0.902468,-0.107 1.34375,-0.4375 l 2.3125,-2.3125 c 4.622928,6.8019 12.404217,11.2812 21.25,11.2812 10.083879,0 18.815872,-5.8019 23.03125,-14.25 0.154999,-0.3244 0.28125,-0.6819 0.28125,-1.0937 0,-1.2004 -0.987062,-2.1563 -2.1875,-2.1563 -0.649627,0 -1.226701,0.2671 -1.625,0.7188 -3.817578,4.3037 -9.384331,7.0312 -15.59375,7.0312 -7.244563,0 -13.634777,-3.7057 -17.375,-9.3125 l 4.1875,-4.1875 c 0.209625,-0.2653 0.375,-0.6136 0.375,-1.2187 0,-0.7526 -0.622396,-1.3438 -1.375,-1.3438 l -14.625,0 z"
       id="path6286"
       inkscape:connector-curvature="0" />
    <path
       inkscape:connector-curvature="0"
       id="path6282"
       d="m 48.59375,981.39343 c -10.083879,0 -18.815872,5.802 -23.03125,14.25 -0.154999,0.3245 -0.28125,0.68195 -0.28125,1.09375 0,1.2004 0.987062,2.15625 2.1875,2.15625 0.649627,0 1.226701,-0.26695 1.625,-0.71875 3.817578,-4.3037 9.384331,-7.03125 15.59375,-7.03125 7.244563,0 13.634777,3.7058 17.375,9.31247 l -4.1875,4.1875 c -0.209625,0.2653 -0.375,0.6137 -0.375,1.2188 0,0.7526 0.622396,1.3437 1.375,1.3437 l 14.625,0 c 0.752604,0 1.34375,-0.5911 1.34375,-1.3437 l 0,-14.59377 c 0,-0.7526 -0.591146,-1.34375 -1.34375,-1.34375 -0.682887,0 -0.902468,0.107 -1.34375,0.4375 l -2.3125,2.3125 c -4.622928,-6.8018 -12.404217,-11.28125 -21.25,-11.28125 z M 22.5,1009.5184 c -0.752604,0 -1.34375,0.5912 -1.34375,1.3438 l 0,14.5937 c 0,0.7526 0.591146,1.3438 1.34375,1.3438 0.682887,0 0.902468,-0.107 1.34375,-0.4375 l 2.3125,-2.3125 c 4.622928,6.8019 12.404217,11.2812 21.25,11.2812 10.083879,0 18.815872,-5.8019 23.03125,-14.25 0.154999,-0.3244 0.28125,-0.6819 0.28125,-1.0937 0,-1.2004 -0.987062,-2.1563 -2.1875,-2.1563 -0.649627,0 -1.226701,0.2671 -1.625,0.7188 -3.817578,4.3037 -9.384331,7.0312 -15.59375,7.0312 -7.244563,0 -13.634777,-3.7057 -17.375,-9.3125 l 4.1875,-4.1875 c 0.209625,-0.2653 0.375,-0.6136 0.375,-1.2187 0,-0.7526 -0.622396,-1.3438 -1.375,-1.3438 l -14.625,0 z"
       style="opacity:0.05;fill:#000000;fill-opacity:1;stroke:none" />
    <path
       style="opacity:0.1;fill:#000000;fill-opacity:1;stroke:none"
       d="m 48.59375,980.39371 c -10.083879,0 -18.815872,5.802 -23.03125,14.25 -0.154999,0.3245 -0.28125,0.68195 -0.28125,1.09375 0,1.2004 0.987062,2.15625 2.1875,2.15625 0.649627,0 1.226701,-0.26695 1.625,-0.71875 3.817578,-4.3037 9.384331,-7.03125 15.59375,-7.03125 7.244563,0 13.634777,3.7058 17.375,9.31247 l -4.1875,4.18752 c -0.209625,0.2653 -0.375,0.6137 -0.375,1.2188 0,0.7526 0.622396,1.3437 1.375,1.3437 l 14.625,0 c 0.752604,0 1.34375,-0.5911 1.34375,-1.3437 l 0,-14.59379 c 0,-0.7526 -0.591146,-1.34375 -1.34375,-1.34375 -0.682887,0 -0.902468,0.107 -1.34375,0.4375 l -2.3125,2.3125 c -4.622928,-6.8018 -12.404217,-11.28125 -21.25,-11.28125 z M 22.5,1008.5187 c -0.752604,0 -1.34375,0.5912 -1.34375,1.3438 l 0,14.5937 c 0,0.7526 0.591146,1.3438 1.34375,1.3438 0.682887,0 0.902468,-0.107 1.34375,-0.4375 l 2.3125,-2.3125 c 4.622928,6.8019 12.404217,11.2812 21.25,11.2812 10.083879,0 18.815872,-5.8019 23.03125,-14.25 0.154999,-0.3244 0.28125,-0.6819 0.28125,-1.0937 0,-1.2004 -0.987062,-2.1563 -2.1875,-2.1563 -0.649627,0 -1.226701,0.2671 -1.625,0.7188 -3.817578,4.3037 -9.384331,7.0312 -15.59375,7.0312 -7.244563,0 -13.634777,-3.7057 -17.375,-9.3125 l 4.1875,-4.1875 c 0.209625,-0.2653 0.375,-0.6136 0.375,-1.2187 0,-0.7526 -0.622396,-1.3438 -1.375,-1.3438 l -14.625,0 z"
       id="path6284"
       inkscape:connector-curvature="0" />
    <path
       style="fill:#000000;fill-opacity:1;stroke:none;opacity:0.1"
       d="m 48.59375,979.39343 c -10.083879,0 -18.815872,5.802 -23.03125,14.25 -0.154999,0.3245 -0.28125,0.68195 -0.28125,1.09375 0,1.2004 0.987062,2.15625 2.1875,2.15625 0.649627,0 1.226701,-0.26695 1.625,-0.71875 3.817578,-4.3037 9.384331,-7.03125 15.59375,-7.03125 7.244563,0 13.634777,3.7058 17.375,9.3125 l -4.1875,4.18747 c -0.209625,0.2653 -0.375,0.6137 -0.375,1.2188 0,0.7526 0.622396,1.3437 1.375,1.3437 l 14.625,0 c 0.752604,0 1.34375,-0.5911 1.34375,-1.3437 l 0,-14.59377 c 0,-0.7526 -0.591146,-1.34375 -1.34375,-1.34375 -0.682887,0 -0.902468,0.107 -1.34375,0.4375 l -2.3125,2.3125 c -4.622928,-6.8018 -12.404217,-11.28125 -21.25,-11.28125 z M 22.5,1007.5184 c -0.752604,0 -1.34375,0.5912 -1.34375,1.3438 l 0,14.5937 c 0,0.7526 0.591146,1.3438 1.34375,1.3438 0.682887,0 0.902468,-0.107 1.34375,-0.4375 l 2.3125,-2.3125 c 4.622928,6.8019 12.404217,11.2812 21.25,11.2812 10.083879,0 18.815872,-5.8019 23.03125,-14.25 0.154999,-0.3244 0.28125,-0.6819 0.28125,-1.0937 0,-1.2004 -0.987062,-2.1563 -2.1875,-2.1563 -0.649627,0 -1.226701,0.2671 -1.625,0.7188 -3.817578,4.3037 -9.384331,7.0312 -15.59375,7.0312 -7.244563,0 -13.634777,-3.7057 -17.375,-9.3125 l 4.1875,-4.1875 c 0.209625,-0.2653 0.375,-0.6136 0.375,-1.2187 0,-0.7526 -0.622396,-1.3438 -1.375,-1.3438 l -14.625,0 z"
       id="path6273"
       inkscape:connector-curvature="0" />
    <path
       inkscape:connector-curvature="0"
       id="path6280"
       d="m 48.59375,978.39371 c -10.083879,0 -18.815872,5.802 -23.03125,14.25 -0.154999,0.3245 -0.28125,0.68195 -0.28125,1.09375 0,1.2004 0.987062,2.15625 2.1875,2.15625 0.649627,0 1.226701,-0.26695 1.625,-0.71875 3.817578,-4.3037 9.384331,-7.03125 15.59375,-7.03125 7.244563,0 13.634777,3.7058 17.375,9.3125 l -4.1875,4.18749 c -0.209625,0.2653 -0.375,0.6137 -0.375,1.2188 0,0.7526 0.622396,1.3437 1.375,1.3437 l 14.625,0 c 0.752604,0 1.34375,-0.5911 1.34375,-1.3437 l 0,-14.59379 c 0,-0.7526 -0.591146,-1.34375 -1.34375,-1.34375 -0.682887,0 -0.902468,0.107 -1.34375,0.4375 l -2.3125,2.3125 c -4.622928,-6.8018 -12.404217,-11.28125 -21.25,-11.28125 z M 22.5,1006.5187 c -0.752604,0 -1.34375,0.5912 -1.34375,1.3438 l 0,14.5937 c 0,0.7526 0.591146,1.3438 1.34375,1.3438 0.682887,0 0.902468,-0.107 1.34375,-0.4375 l 2.3125,-2.3125 c 4.622928,6.8019 12.404217,11.2812 21.25,11.2812 10.083879,0 18.815872,-5.8019 23.03125,-14.25 0.154999,-0.3244 0.28125,-0.6819 0.28125,-1.0937 0,-1.2004 -0.987062,-2.1563 -2.1875,-2.1563 -0.649627,0 -1.226701,0.2671 -1.625,0.7188 -3.817578,4.3037 -9.384331,7.0312 -15.59375,7.0312 -7.244563,0 -13.634777,-3.7057 -17.375,-9.3125 l 4.1875,-4.1875 c 0.209625,-0.2653 0.375,-0.6136 0.375,-1.2187 0,-0.7526 -0.622396,-1.3438 -1.375,-1.3438 l -14.625,0 z"
       style="opacity:0.1;fill:#000000;fill-opacity:1;stroke:none" />
    <path
       style="fill:url(#linearGradient6261);fill-opacity:1;stroke:none"
       d="m 22.51322,1005.5072 c -0.752604,0 -1.34375,0.5911 -1.34375,1.3437 l 0,14.5938 c 0,0.7526 0.591146,1.3437 1.34375,1.3437 0.682887,0 0.902468,-0.107 1.34375,-0.4375 l 2.3125,-2.3125 c 4.622928,6.8019 12.404217,11.2813 21.25,11.2813 10.083879,0 18.815872,-5.8019 23.03125,-14.25 0.154999,-0.3244 0.28125,-0.682 0.28125,-1.0938 0,-1.2004 -0.987062,-2.1562 -2.1875,-2.1562 -0.649627,0 -1.226701,0.267 -1.625,0.7187 -3.817578,4.3037 -9.384331,7.0313 -15.59375,7.0313 -7.244563,0 -13.634777,-3.7057 -17.375,-9.3125 l 4.172287,-4.1723 c 0.209625,-0.2653 0.390213,-0.6289 0.390213,-1.234 0,-0.7526 -0.622396,-1.3437 -1.375,-1.3437 z"
       id="path6213"
       inkscape:connector-curvature="0"
       sodipodi:nodetypes="ssscccsccscscccss" />
    <path
       sodipodi:nodetypes="ssscccsccscscccss"
       inkscape:connector-curvature="0"
       id="path6233"
       d="m 73.486771,1003.2172 c 0.752604,0 1.34375,-0.5911 1.34375,-1.3437 l 0,-14.59384 c 0,-0.7526 -0.591146,-1.3437 -1.34375,-1.3437 -0.682887,0 -0.902468,0.107 -1.34375,0.4375 l -2.3125,2.3125 c -4.622928,-6.8018 -12.404217,-11.2813 -21.25,-11.2813 -10.083879,0 -18.815872,5.802 -23.03125,14.25 -0.154999,0.3245 -0.28125,0.682 -0.28125,1.0938 0,1.2004 0.987062,2.1562 2.1875,2.1562 0.649627,0 1.226701,-0.2669 1.625,-0.7187 3.817578,-4.3037 9.384331,-7.0313 15.59375,-7.0313 7.244563,0 13.634777,3.7058 17.375,9.3125 l -4.172287,4.17234 c -0.209625,0.2653 -0.390213,0.6289 -0.390213,1.234 0,0.7526 0.622396,1.3437 1.375,1.3437 z"
       style="fill:url(#linearGradient6258);fill-opacity:1;stroke:none" />
    <path
       style="fill:#ffffff;fill-opacity:1;stroke:none;opacity:0.5"
       d="M 48.59375 21.03125 C 38.509871 21.03125 29.777878 26.83325 25.5625 35.28125 C 25.407501 35.60575 25.28125 35.9632 25.28125 36.375 C 25.28125 36.559082 25.300116 36.736235 25.34375 36.90625 C 25.394849 36.680316 25.468453 36.478143 25.5625 36.28125 C 29.777878 27.83325 38.509871 22.03125 48.59375 22.03125 C 57.439533 22.03125 65.220822 26.5107 69.84375 33.3125 L 72.15625 31 C 72.597532 30.6695 72.817113 30.5625 73.5 30.5625 C 74.252604 30.5625 74.84375 31.15365 74.84375 31.90625 L 74.84375 30.90625 C 74.84375 30.15365 74.252604 29.5625 73.5 29.5625 C 72.817113 29.5625 72.597532 29.6695 72.15625 30 L 69.84375 32.3125 C 65.220822 25.5107 57.439533 21.03125 48.59375 21.03125 z M 61.65625 40.5 L 57.875 44.28125 C 57.665375 44.54655 57.5 44.8949 57.5 45.5 C 57.5 45.641112 57.521982 45.779322 57.5625 45.90625 C 57.629808 45.640544 57.74629 45.444144 57.875 45.28125 L 62.0625 41.09375 C 61.928714 40.893201 61.796735 40.695602 61.65625 40.5 z M 22.5 49.15625 C 21.747396 49.15625 21.15625 49.7474 21.15625 50.5 L 21.15625 51.5 C 21.15625 50.7474 21.747396 50.15625 22.5 50.15625 L 37.125 50.15625 C 37.736491 50.15625 38.261923 50.543741 38.4375 51.09375 C 38.479814 50.926701 38.5 50.733569 38.5 50.5 C 38.5 49.7474 37.877604 49.15625 37.125 49.15625 L 22.5 49.15625 z M 34.34375 56.5 L 33.9375 56.90625 C 37.677723 62.51305 44.067937 66.21875 51.3125 66.21875 C 57.521919 66.21875 63.088672 63.4912 66.90625 59.1875 C 67.304549 58.7358 67.881623 58.46875 68.53125 58.46875 C 69.5476 58.46875 70.415346 59.155107 70.65625 60.09375 C 70.689368 59.947308 70.71875 59.786938 70.71875 59.625 C 70.71875 58.4246 69.731688 57.46875 68.53125 57.46875 C 67.881623 57.46875 67.304549 57.7358 66.90625 58.1875 C 63.088672 62.4912 57.521919 65.21875 51.3125 65.21875 C 44.327071 65.21875 38.130768 61.772883 34.34375 56.5 z "
       id="path6263"
       transform="translate(0,956.36218)" />
  </g>
</svg>
