<?xml version="1.0" encoding="UTF-8" standalone="no"?>
<!-- Created with Inkscape (http://www.inkscape.org/) -->

<svg
   xmlns:dc="http://purl.org/dc/elements/1.1/"
   xmlns:cc="http://creativecommons.org/ns#"
   xmlns:rdf="http://www.w3.org/1999/02/22-rdf-syntax-ns#"
   xmlns:svg="http://www.w3.org/2000/svg"
   xmlns="http://www.w3.org/2000/svg"
   xmlns:xlink="http://www.w3.org/1999/xlink"
   xmlns:sodipodi="http://sodipodi.sourceforge.net/DTD/sodipodi-0.dtd"
   xmlns:inkscape="http://www.inkscape.org/namespaces/inkscape"
   width="96"
   height="96"
   id="svg2"
   version="1.1"
   inkscape:version="0.48.4 r9939"
   sodipodi:docname="transmission.svg">
  <defs
     id="defs4">
    <linearGradient
       id="linearGradient3875"
       inkscape:collect="always">
      <stop
         id="stop3877"
         offset="0"
         style="stop-color:#cbffa5;stop-opacity:1" />
      <stop
         id="stop3879"
         offset="1"
         style="stop-color:#f2ffef;stop-opacity:1" />
    </linearGradient>
    <linearGradient
       inkscape:collect="always"
       id="linearGradient3539">
      <stop
         style="stop-color:#397110;stop-opacity:1"
         offset="0"
         id="stop3541" />
      <stop
         style="stop-color:#7ab531;stop-opacity:1"
         offset="1"
         id="stop3543" />
    </linearGradient>
    <linearGradient
       id="linearGradient3533"
       inkscape:collect="always">
      <stop
         id="stop3535"
         offset="0"
         style="stop-color:#397908;stop-opacity:1" />
      <stop
         id="stop3537"
         offset="1"
         style="stop-color:#6bae10;stop-opacity:1" />
    </linearGradient>
    <inkscape:perspective
       sodipodi:type="inkscape:persp3d"
       inkscape:vp_x="0 : 48 : 1"
       inkscape:vp_y="0 : 1000 : 0"
       inkscape:vp_z="96 : 48 : 1"
       inkscape:persp3d-origin="48 : 32 : 1"
       id="perspective3054" />
    <linearGradient
       id="linearGradient4357"
       inkscape:collect="always">
      <stop
         id="stop4359"
         offset="0"
         style="stop-color:#ded3d6;stop-opacity:1" />
      <stop
         id="stop4361"
         offset="1"
         style="stop-color:#f7ebef;stop-opacity:1" />
    </linearGradient>
    <linearGradient
       inkscape:collect="always"
       id="linearGradient3558">
      <stop
         style="stop-color:#ded3d6;stop-opacity:1"
         offset="0"
         id="stop3560" />
      <stop
         style="stop-color:#efebef;stop-opacity:1"
         offset="1"
         id="stop3562" />
    </linearGradient>
    <linearGradient
       id="linearGradient3076"
       inkscape:collect="always">
      <stop
         id="stop3078"
         offset="0"
         style="stop-color:#ffe7f7;stop-opacity:1" />
      <stop
         id="stop3080"
         offset="1"
         style="stop-color:#ffc3ef;stop-opacity:1" />
    </linearGradient>
    <linearGradient
       id="linearGradient3070"
       inkscape:collect="always">
      <stop
         id="stop3072"
         offset="0"
         style="stop-color:#943410;stop-opacity:1" />
      <stop
         id="stop3074"
         offset="1"
         style="stop-color:#dc7952;stop-opacity:1" />
    </linearGradient>
    <linearGradient
       inkscape:collect="always"
       id="linearGradient3059">
      <stop
         style="stop-color:#a53810;stop-opacity:1"
         offset="0"
         id="stop3061" />
      <stop
         style="stop-color:#e75911;stop-opacity:1"
         offset="1"
         id="stop3064" />
    </linearGradient>
    <linearGradient
       inkscape:collect="always"
       id="linearGradient3048">
      <stop
         style="stop-color:#c16d16;stop-opacity:1"
         offset="0"
         id="stop3050" />
      <stop
         style="stop-color:#ff8e31;stop-opacity:1"
         offset="1"
         id="stop3052" />
    </linearGradient>
    <linearGradient
       inkscape:collect="always"
       id="linearGradient3119">
      <stop
         style="stop-color:#92948f;stop-opacity:0"
         offset="0"
         id="stop3121" />
      <stop
         id="stop3123"
         offset="0.4283945"
         style="stop-color:#9b9e98;stop-opacity:1" />
      <stop
         style="stop-color:#939690;stop-opacity:0"
         offset="1"
         id="stop3125" />
    </linearGradient>
    <linearGradient
       id="linearGradient3073"
       inkscape:collect="always">
      <stop
         id="stop3075"
         offset="0"
         style="stop-color:#ffffff;stop-opacity:0" />
      <stop
         style="stop-color:#ffffff;stop-opacity:1"
         offset="0.45872402"
         id="stop3085" />
      <stop
         id="stop3083"
         offset="1"
         style="stop-color:#ffffff;stop-opacity:0" />
    </linearGradient>
    <linearGradient
       inkscape:collect="always"
       id="linearGradient3047">
      <stop
         style="stop-color:#000000;stop-opacity:1"
         offset="0"
         id="stop3049" />
      <stop
         id="stop3055"
         offset="0.06123874"
         style="stop-color:#1a1a1a;stop-opacity:1" />
      <stop
         style="stop-color:#333333;stop-opacity:1"
         offset="0.16480456"
         id="stop3057" />
      <stop
         id="stop3059"
         offset="0.55385184"
         style="stop-color:#4d4d4d;stop-opacity:1" />
      <stop
         style="stop-color:#999999;stop-opacity:1"
         offset="1"
         id="stop3051" />
    </linearGradient>
    <linearGradient
       id="linearGradient3041"
       inkscape:collect="always">
      <stop
         id="stop3043"
         offset="0"
         style="stop-color:#1a1a1a;stop-opacity:1" />
      <stop
         id="stop3045"
         offset="1"
         style="stop-color:#808080;stop-opacity:1" />
    </linearGradient>
    <linearGradient
       inkscape:collect="always"
       id="linearGradient3029">
      <stop
         style="stop-color:#333333;stop-opacity:1"
         offset="0"
         id="stop3031" />
      <stop
         style="stop-color:#e0e0dd;stop-opacity:0;"
         offset="1"
         id="stop3033" />
    </linearGradient>
    <linearGradient
       inkscape:collect="always"
       xlink:href="#linearGradient3029"
       id="linearGradient3035"
       x1="35.355339"
       y1="1030.3622"
       x2="35.355339"
       y2="975.33282"
       gradientUnits="userSpaceOnUse"
       gradientTransform="matrix(1.1638085,0,0,1.1638085,-7.862809,-164.23642)" />
    <linearGradient
       inkscape:collect="always"
       xlink:href="#linearGradient3041"
       id="linearGradient3039"
       gradientUnits="userSpaceOnUse"
       x1="35.355339"
       y1="1030.3622"
       x2="35.355339"
       y2="975.33282"
       gradientTransform="matrix(1.1218695,0,0,1.1218695,-5.8497348,-122.18782)" />
    <linearGradient
       inkscape:collect="always"
       xlink:href="#linearGradient3047"
       id="linearGradient3053"
       x1="40"
       y1="1043.4336"
       x2="39.285713"
       y2="972.33325"
       gradientUnits="userSpaceOnUse" />
    <linearGradient
       inkscape:collect="always"
       xlink:href="#linearGradient3073"
       id="linearGradient3113"
       gradientUnits="userSpaceOnUse"
       gradientTransform="translate(0,-956.36218)"
       x1="14.869445"
       y1="978.90387"
       x2="24.52651"
       y2="969.24683" />
    <linearGradient
       inkscape:collect="always"
       xlink:href="#linearGradient3073"
       id="linearGradient3115"
       gradientUnits="userSpaceOnUse"
       gradientTransform="matrix(-1,0,0,1,96,-956.36218)"
       x1="15.152279"
       y1="978.62103"
       x2="26.263966"
       y2="967.50934" />
    <linearGradient
       inkscape:collect="always"
       xlink:href="#linearGradient3119"
       id="linearGradient3117"
       gradientUnits="userSpaceOnUse"
       gradientTransform="translate(0,-956.36218)"
       x1="13.131983"
       y1="980.64136"
       x2="25.549681"
       y2="967.86646" />
    <linearGradient
       inkscape:collect="always"
       xlink:href="#linearGradient3119"
       id="linearGradient3129"
       gradientUnits="userSpaceOnUse"
       gradientTransform="matrix(-1,0,0,1,96,0)"
       x1="13.131983"
       y1="980.64136"
       x2="25.549681"
       y2="967.86646" />
    <linearGradient
       inkscape:collect="always"
       xlink:href="#linearGradient3048"
       id="linearGradient3054"
       x1="49.267925"
       y1="996.57349"
       x2="49.267925"
       y2="1045.8627"
       gradientUnits="userSpaceOnUse" />
    <linearGradient
       inkscape:collect="always"
       xlink:href="#linearGradient3048"
       id="linearGradient3058"
       x1="115.80308"
       y1="985.47241"
       x2="115.80308"
       y2="1033.5543"
       gradientUnits="userSpaceOnUse" />
    <linearGradient
       inkscape:collect="always"
       xlink:href="#linearGradient3076"
       id="linearGradient3055"
       gradientUnits="userSpaceOnUse"
       x1="115.80308"
       y1="985.47241"
       x2="115.80308"
       y2="1025.3639"
       gradientTransform="matrix(1.4144782,0,0,1.4144782,-119.78686,-419.05496)" />
    <linearGradient
       inkscape:collect="always"
       xlink:href="#linearGradient3059"
       id="linearGradient3066"
       x1="22.54203"
       y1="1043.3966"
       x2="22.54203"
       y2="964.45898"
       gradientUnits="userSpaceOnUse" />
    <linearGradient
       inkscape:collect="always"
       xlink:href="#linearGradient3070"
       id="linearGradient3068"
       x1="53.796227"
       y1="1046.0226"
       x2="53.796227"
       y2="962.97437"
       gradientUnits="userSpaceOnUse" />
    <linearGradient
       inkscape:collect="always"
       xlink:href="#linearGradient3076"
       id="linearGradient3086"
       gradientUnits="userSpaceOnUse"
       gradientTransform="matrix(1.4144782,0,0,1.4144782,-119.78686,-417.12598)"
       x1="115.80308"
       y1="985.47241"
       x2="115.80308"
       y2="1025.3639" />
    <linearGradient
       inkscape:collect="always"
       xlink:href="#linearGradient3076"
       id="linearGradient3091"
       gradientUnits="userSpaceOnUse"
       gradientTransform="matrix(1.4144782,0,0,1.4144782,-119.78686,-418.126)"
       x1="115.80308"
       y1="985.47241"
       x2="115.80308"
       y2="1025.3639" />
    <linearGradient
       inkscape:collect="always"
       xlink:href="#linearGradient3076"
       id="linearGradient3093"
       gradientUnits="userSpaceOnUse"
       gradientTransform="matrix(1.4144782,0,0,1.4144782,-119.78686,-1375.4171)"
       x1="115.80308"
       y1="985.47241"
       x2="115.80308"
       y2="1025.3639" />
    <linearGradient
       inkscape:collect="always"
       xlink:href="#linearGradient3558"
       id="linearGradient3564"
       x1="93.242035"
       y1="1027.2615"
       x2="93.242035"
       y2="980.7262"
       gradientUnits="userSpaceOnUse" />
    <linearGradient
       inkscape:collect="always"
       xlink:href="#linearGradient3558"
       id="linearGradient4350"
       gradientUnits="userSpaceOnUse"
       x1="93.242035"
       y1="1027.2615"
       x2="93.242035"
       y2="980.7262" />
    <linearGradient
       inkscape:collect="always"
       xlink:href="#linearGradient4357"
       id="linearGradient4354"
       gradientUnits="userSpaceOnUse"
       x1="93.242035"
       y1="1027.2615"
       x2="93.242035"
       y2="980.7262"
       gradientTransform="translate(-56.571856,0)" />
    <linearGradient
       inkscape:collect="always"
       xlink:href="#linearGradient4357"
       id="linearGradient3517"
       gradientUnits="userSpaceOnUse"
       gradientTransform="translate(-131.19827,0)"
       x1="93.242035"
       y1="1027.2615"
       x2="93.242035"
       y2="980.7262" />
    <linearGradient
       inkscape:collect="always"
       xlink:href="#linearGradient3533"
       id="linearGradient3521"
       gradientUnits="userSpaceOnUse"
       x1="22.54203"
       y1="1043.3966"
       x2="22.54203"
       y2="964.45898"
       gradientTransform="translate(0,-2.6171874e-6)" />
    <linearGradient
       inkscape:collect="always"
       xlink:href="#linearGradient3539"
       id="linearGradient3524"
       gradientUnits="userSpaceOnUse"
       x1="53.796227"
       y1="1046.0226"
       x2="53.796227"
       y2="962.97437" />
    <linearGradient
       inkscape:collect="always"
       xlink:href="#linearGradient3092"
       id="linearGradient3098"
       x1="54.305801"
       y1="1025.2092"
       x2="54.305801"
       y2="978.07318"
       gradientUnits="userSpaceOnUse" />
    <linearGradient
       inkscape:collect="always"
       id="linearGradient3092">
      <stop
         style="stop-color:#a5cbff;stop-opacity:1"
         offset="0"
         id="stop3094" />
      <stop
         style="stop-color:#eff3ff;stop-opacity:1"
         offset="1"
         id="stop3096" />
    </linearGradient>
    <linearGradient
       gradientTransform="matrix(-1,0,0,-1,100.96799,2008.0576)"
       y2="1028.1566"
       x2="48.870052"
       y1="978.07318"
       x1="48.870052"
       gradientUnits="userSpaceOnUse"
       id="linearGradient3123"
       xlink:href="#linearGradient3875"
       inkscape:collect="always" />
    <linearGradient
       inkscape:collect="always"
       xlink:href="#linearGradient3875"
       id="linearGradient3885"
       gradientUnits="userSpaceOnUse"
       gradientTransform="matrix(-1,0,0,-1,100.96799,2009.0572)"
       x1="48.870052"
       y1="978.07318"
       x2="48.870052"
       y2="1028.1566" />
    <linearGradient
       inkscape:collect="always"
       xlink:href="#linearGradient3875"
       id="linearGradient3887"
       gradientUnits="userSpaceOnUse"
       gradientTransform="matrix(-1,0,0,-1,100.96799,1051.6954)"
       x1="48.870052"
       y1="978.07318"
       x2="48.870052"
       y2="1028.1566" />
  </defs>
  <sodipodi:namedview
     id="base"
     pagecolor="#ffffff"
     bordercolor="#666666"
     borderopacity="1.0"
     inkscape:pageopacity="0.0"
     inkscape:pageshadow="2"
     inkscape:zoom="2.7604166"
     inkscape:cx="37.501749"
     inkscape:cy="31.919473"
     inkscape:document-units="px"
     inkscape:current-layer="layer1"
     showgrid="false"
     inkscape:window-width="1366"
     inkscape:window-height="709"
     inkscape:window-x="0"
     inkscape:window-y="28"
     inkscape:window-maximized="1"
     showguides="true"
     inkscape:guide-bbox="true" />
  <metadata
     id="metadata7">
    <rdf:RDF>
      <cc:Work
         rdf:about="">
        <dc:format>image/svg+xml</dc:format>
        <dc:type
           rdf:resource="http://purl.org/dc/dcmitype/StillImage" />
        <dc:title></dc:title>
      </cc:Work>
    </rdf:RDF>
  </metadata>
  <g
     inkscape:label="Layer 1"
     inkscape:groupmode="layer"
     id="layer1"
     transform="translate(0,-956.36218)">
    <rect
       style="opacity:0.05;fill:#000000;fill-opacity:1;stroke:none"
       id="rect3826"
       width="89"
       height="89"
       x="3.5"
       y="960.86218"
       rx="10.595235"
       ry="10.595235" />
    <g
       id="g3041">
      <rect
         style="opacity:0.05;fill:#000000;fill-opacity:1;stroke:none"
         id="rect3824"
         width="88"
         height="88"
         x="4"
         y="961.36218"
         rx="10.476188"
         ry="10.476188" />
      <rect
         ry="10.357141"
         rx="10.357141"
         y="961.86218"
         x="4.5"
         height="87"
         width="87"
         id="rect3822"
         style="opacity:0.05;fill:#000000;fill-opacity:1;stroke:none" />
      <rect
         style="opacity:0.1;fill:#000000;fill-opacity:1;stroke:none"
         id="rect3820"
         width="86"
         height="86"
         x="5"
         y="962.36218"
         rx="10.238094"
         ry="10.238094" />
      <rect
         ry="10.119047"
         rx="10.119047"
         y="962.86218"
         x="5.5"
         height="85"
         width="85"
         id="rect3818"
         style="opacity:0.1;fill:#000000;fill-opacity:1;stroke:none" />
      <rect
         style="opacity:0.3;fill:#000000;fill-opacity:1;stroke:none"
         id="rect3131"
         width="84"
         height="84"
         x="6"
         y="963.36218"
         rx="10"
         ry="10" />
    </g>
    <rect
       ry="10"
       rx="10"
       y="962.36218"
       x="6"
       height="84"
       width="84"
       id="rect3036"
       style="fill:url(#linearGradient3524);fill-opacity:1;stroke:none" />
    <rect
       style="fill:url(#linearGradient3521);fill-opacity:1;stroke:none"
       id="rect3034"
       width="82"
       height="82"
       x="7"
       y="963.36218"
       rx="9.7619047"
       ry="9.7619047" />
    <path
       inkscape:connector-curvature="0"
       style="opacity:0.05;fill:#000000;fill-opacity:1"
       d="m 48.125,1031.6429 c 0.536045,-0.01 1.064167,-0.078 1.59375,-0.1875 0.277543,-0.058 0.54001,-0.1331 0.8125,-0.2187 0.420764,-0.1323 0.848122,-0.3008 1.25,-0.5 0.248884,-0.1234 0.484564,-0.26 0.71875,-0.4063 0.269554,-0.1678 0.526821,-0.3621 0.78125,-0.5625 0.272095,-0.2142 0.561045,-0.4048 0.8125,-0.6562 L 71.375,1011.7992 c 3.329766,-3.3298 3.398416,-8.6329 0.15625,-11.87512 l -0.3125,-0.3125 c -3.242166,-3.2421 -8.545234,-3.1735 -11.875,0.1563 l -2.84375,2.84372 0,-17.06252 c 0,-4.709 -3.791,-8.5 -8.5,-8.5 -4.709,0 -8.5,3.791 -8.5,8.5 l 0,17.06252 -2.84375,-2.84372 c -3.329766,-3.3298 -8.601584,-3.3984 -11.84375,-0.1563 l -0.34375,0.3125 c -3.242166,3.24222 -3.173516,8.54532 0.15625,11.87512 l 17.3125,17.3125 c 0.01061,0.011 0.0206,0.021 0.03125,0.031 0.346895,0.3469 0.753472,0.6547 1.15625,0.9375 0.055,0.039 0.1003,0.088 0.15625,0.125 0.05181,0.035 0.103894,0.06 0.15625,0.094 0.02704,0.017 0.06654,0.014 0.09375,0.031 0.165715,0.1084 0.328412,0.1861 0.5,0.2812 0.186613,0.099 0.366996,0.1957 0.5625,0.2813 0.05413,0.025 0.10169,0.07 0.15625,0.094 0.07518,0.031 0.144745,0.067 0.21875,0.094 0.160285,0.063 0.336637,0.1033 0.5,0.1562 0.09603,0.03 0.186867,0.066 0.28125,0.094 0.175379,0.05 0.35331,0.087 0.53125,0.125 0.272427,0.058 0.53589,0.095 0.8125,0.125 0.01049,0 0.02076,-10e-4 0.03125,0 0.06216,0.01 0.124534,0.025 0.1875,0.031 0.266702,0.022 0.544477,0.035 0.8125,0.031 z"
       id="path3154" />
    <path
       id="path3152"
       d="m 48.125,1032.6429 c 0.536045,-0.01 1.064167,-0.078 1.59375,-0.1875 0.277543,-0.058 0.54001,-0.1331 0.8125,-0.2188 0.420764,-0.1322 0.848122,-0.3007 1.25,-0.5 0.248884,-0.1234 0.484564,-0.2599 0.71875,-0.4062 0.269554,-0.1678 0.526821,-0.3622 0.78125,-0.5625 0.272095,-0.2143 0.561045,-0.4048 0.8125,-0.6563 L 71.375,1012.7991 c 3.329766,-3.3297 3.398416,-8.6328 0.15625,-11.875 l -0.3125,-0.3125 c -3.242166,-3.24212 -8.545234,-3.17352 -11.875,0.1563 l -2.84375,2.8437 0,-17.06252 c 0,-4.709 -3.791,-8.5 -8.5,-8.5 -4.709,0 -8.5,3.791 -8.5,8.5 l 0,17.06252 -2.84375,-2.8437 c -3.329766,-3.32982 -8.601584,-3.39842 -11.84375,-0.1563 l -0.34375,0.3125 c -3.242166,3.2422 -3.173516,8.5453 0.15625,11.875 l 17.3125,17.3125 c 0.01061,0.011 0.0206,0.021 0.03125,0.031 0.346895,0.3469 0.753472,0.6548 1.15625,0.9375 0.055,0.039 0.1003,0.088 0.15625,0.125 0.05181,0.035 0.103894,0.06 0.15625,0.094 0.02704,0.017 0.06654,0.014 0.09375,0.031 0.165715,0.1084 0.328412,0.1862 0.5,0.2813 0.186613,0.099 0.366996,0.1957 0.5625,0.2812 0.05413,0.025 0.10169,0.07 0.15625,0.094 0.07518,0.031 0.144745,0.067 0.21875,0.094 0.160285,0.063 0.336637,0.1034 0.5,0.1563 0.09603,0.03 0.186867,0.066 0.28125,0.094 0.175379,0.05 0.35331,0.087 0.53125,0.125 0.272427,0.058 0.53589,0.095 0.8125,0.125 0.01049,0 0.02076,-10e-4 0.03125,0 0.06216,0.01 0.124534,0.025 0.1875,0.031 0.266702,0.022 0.544477,0.035 0.8125,0.031 z"
       style="opacity:0.05;fill:#000000;fill-opacity:1"
       inkscape:connector-curvature="0" />
    <path
       inkscape:connector-curvature="0"
       style="opacity:0.05;fill:#000000;fill-opacity:1"
       d="m 48.125,1033.6429 c 0.536045,-0.01 1.064167,-0.078 1.59375,-0.1875 0.277543,-0.058 0.54001,-0.1331 0.8125,-0.2188 0.420764,-0.1322 0.848122,-0.3008 1.25,-0.5 0.248884,-0.1234 0.484564,-0.2599 0.71875,-0.4062 0.269554,-0.1678 0.526821,-0.3622 0.78125,-0.5625 0.272095,-0.2143 0.561045,-0.4048 0.8125,-0.6563 L 71.375,1013.7991 c 3.329766,-3.3297 3.398416,-8.6328 0.15625,-11.875 l -0.3125,-0.3125 c -3.242166,-3.24212 -8.545234,-3.17352 -11.875,0.1563 l -2.84375,2.8437 0,-17.06252 c 0,-4.709 -3.791,-8.5 -8.5,-8.5 -4.709,0 -8.5,3.791 -8.5,8.5 l 0,17.06252 -2.84375,-2.8437 c -3.329766,-3.32982 -8.601584,-3.39842 -11.84375,-0.1563 l -0.34375,0.3125 c -3.242166,3.2422 -3.173516,8.5453 0.15625,11.875 l 17.3125,17.3125 c 0.01061,0.011 0.0206,0.021 0.03125,0.031 0.346895,0.3469 0.753472,0.6548 1.15625,0.9375 0.055,0.039 0.1003,0.088 0.15625,0.125 0.05181,0.035 0.103894,0.06 0.15625,0.094 0.02704,0.017 0.06654,0.014 0.09375,0.031 0.165715,0.1084 0.328412,0.1862 0.5,0.2813 0.186613,0.099 0.366996,0.1956 0.5625,0.2812 0.05413,0.025 0.10169,0.07 0.15625,0.094 0.07518,0.031 0.144745,0.067 0.21875,0.094 0.160285,0.063 0.336637,0.1034 0.5,0.1563 0.09603,0.03 0.186867,0.066 0.28125,0.094 0.175379,0.05 0.35331,0.087 0.53125,0.125 0.272427,0.058 0.53589,0.095 0.8125,0.125 0.01049,0 0.02076,-10e-4 0.03125,0 0.06216,0.01 0.124534,0.025 0.1875,0.031 0.266702,0.022 0.544477,0.035 0.8125,0.031 z"
       id="path3150" />
    <path
       id="path3148"
       d="m 48.125,1034.6429 c 0.536045,-0.01 1.064167,-0.078 1.59375,-0.1875 0.277543,-0.058 0.54001,-0.1332 0.8125,-0.2188 0.420764,-0.1322 0.848122,-0.3008 1.25,-0.5 0.248884,-0.1234 0.484564,-0.2599 0.71875,-0.4062 0.269554,-0.1678 0.526821,-0.3622 0.78125,-0.5625 0.272095,-0.2143 0.561045,-0.4048 0.8125,-0.6563 L 71.375,1014.7991 c 3.329766,-3.3297 3.398416,-8.6328 0.15625,-11.875 l -0.3125,-0.3125 c -3.242166,-3.24212 -8.545234,-3.17352 -11.875,0.1563 l -2.84375,2.8437 0,-17.06252 c 0,-4.709 -3.791,-8.5 -8.5,-8.5 -4.709,0 -8.5,3.791 -8.5,8.5 l 0,17.06252 -2.84375,-2.8437 c -3.329766,-3.32982 -8.601584,-3.39842 -11.84375,-0.1563 l -0.34375,0.3125 c -3.242166,3.2422 -3.173516,8.5453 0.15625,11.875 l 17.3125,17.3125 c 0.01061,0.011 0.0206,0.021 0.03125,0.031 0.346895,0.3469 0.753472,0.6548 1.15625,0.9375 0.055,0.039 0.1003,0.088 0.15625,0.125 0.05181,0.035 0.103894,0.06 0.15625,0.094 0.02704,0.017 0.06654,0.014 0.09375,0.031 0.165715,0.1084 0.328412,0.1862 0.5,0.2813 0.186613,0.099 0.366996,0.1956 0.5625,0.2812 0.05413,0.025 0.10169,0.07 0.15625,0.094 0.07518,0.031 0.144745,0.067 0.21875,0.094 0.160285,0.063 0.336637,0.1033 0.5,0.1563 0.09603,0.03 0.186867,0.066 0.28125,0.094 0.175379,0.05 0.35331,0.087 0.53125,0.125 0.272427,0.058 0.53589,0.095 0.8125,0.125 0.01049,0 0.02076,-10e-4 0.03125,0 0.06216,0.01 0.124534,0.025 0.1875,0.031 0.266702,0.022 0.544477,0.035 0.8125,0.031 z"
       style="opacity:0.05;fill:#000000;fill-opacity:1"
       inkscape:connector-curvature="0" />
    <path
       style="opacity:0.05;fill:#000000;fill-opacity:1"
       d="m 48.125,1035.6426 c 0.536045,-0.01 1.064167,-0.078 1.59375,-0.1875 0.277543,-0.057 0.54001,-0.1331 0.8125,-0.2187 0.420764,-0.1323 0.848122,-0.3008 1.25,-0.5 0.248884,-0.1234 0.484564,-0.26 0.71875,-0.4063 0.269554,-0.1678 0.526821,-0.3622 0.78125,-0.5625 0.272095,-0.2143 0.561045,-0.4048 0.8125,-0.6562 L 71.375,1015.7989 c 3.329766,-3.3298 3.398416,-8.6329 0.15625,-11.875 l -0.3125,-0.3125 c -3.242166,-3.2422 -8.545234,-3.1736 -11.875,0.1562 l -2.84375,2.8438 0,-17.06255 c 0,-4.709 -3.791,-8.5 -8.5,-8.5 -4.709,0 -8.5,3.791 -8.5,8.5 l 0,17.06255 -2.84375,-2.8438 c -3.329766,-3.3298 -8.601584,-3.3984 -11.84375,-0.1562 l -0.34375,0.3125 c -3.242166,3.2421 -3.173516,8.5452 0.15625,11.875 l 17.3125,17.3125 c 0.01061,0.011 0.0206,0.021 0.03125,0.031 0.346895,0.3469 0.753472,0.6548 1.15625,0.9375 0.055,0.039 0.1003,0.088 0.15625,0.125 0.05181,0.035 0.103894,0.06 0.15625,0.094 0.02704,0.017 0.06654,0.014 0.09375,0.031 0.165715,0.1084 0.328412,0.1862 0.5,0.2813 0.186613,0.099 0.366996,0.1956 0.5625,0.2812 0.05413,0.025 0.10169,0.07 0.15625,0.094 0.07518,0.031 0.144745,0.067 0.21875,0.094 0.160285,0.063 0.336637,0.1033 0.5,0.1563 0.09603,0.03 0.186867,0.066 0.28125,0.094 0.175379,0.05 0.35331,0.087 0.53125,0.125 0.272427,0.058 0.53589,0.095 0.8125,0.125 0.01049,0 0.02076,-0 0.03125,0 0.06216,0.01 0.124534,0.025 0.1875,0.031 0.266702,0.022 0.544477,0.035 0.8125,0.031 z"
       id="rect3084"
       inkscape:connector-curvature="0" />
    <path
       style="fill:url(#linearGradient3123);fill-opacity:1"
       d="m 53.359375,1028.258 17.28125,-17.2813 c 2.938029,-2.9381 2.938029,-7.6557 0,-10.5937 -2.938029,-2.93796 -7.686971,-2.93796 -10.625,0 l -4.53125,4.5313 0,-19.62486 c 0,-4.1231 -3.345,-7.4376 -7.5,-7.4376 -4.155,0 -7.5,3.3144 -7.5,7.4375 l 0,19.59356 -4.5,-4.5 c -2.938029,-2.93796 -7.686971,-2.93796 -10.625,0 -2.938029,2.938 -2.938029,7.6557 0,10.5938 l 17.3125,17.3126 c 4.287013,3.4146 6.637463,3.4843 10.6875,-0.031 z"
       id="rect3084-3"
       inkscape:connector-curvature="0"
       sodipodi:nodetypes="cssscssscssscc" />
    <path
       style="fill:#ffffff;fill-opacity:1"
       d="M 48 21.5 C 43.845 21.5 40.5 24.8144 40.5 28.9375 L 40.5 29.9375 C 40.5 25.8144 43.845 22.5 48 22.5 C 52.155 22.5 55.5 25.8144 55.5 29.9375 L 55.5 28.9375 C 55.5 24.8144 52.155 21.5 48 21.5 z M 30.6875 41.8125 C 28.765757 41.8125 26.844015 42.56227 25.375 44.03125 C 23.77814 45.628095 23.048528 47.735656 23.1875 49.8125 C 23.30422 48.068208 24.033831 46.372405 25.375 45.03125 C 28.313029 42.09334 33.061971 42.09334 36 45.03125 L 40.5 49.53125 L 40.5 48.53125 L 36 44.03125 C 34.530985 42.56227 32.609243 41.8125 30.6875 41.8125 z M 65.3125 41.8125 C 63.390757 41.8125 61.469015 42.56227 60 44.03125 L 55.5 48.5625 L 55.5 49.5625 L 60 45.03125 C 62.938029 42.09334 67.686971 42.09334 70.625 45.03125 C 71.966169 46.372405 72.69578 48.06823 72.8125 49.8125 C 72.951472 47.735683 72.22186 45.628095 70.625 44.03125 C 69.155985 42.56227 67.234243 41.8125 65.3125 41.8125 z "
       transform="translate(0,956.36218)"
       id="path3881" />
  </g>
</svg>
