<?xml version="1.0" encoding="UTF-8" standalone="no"?>
<!-- Created with Inkscape (http://www.inkscape.org/) -->

<svg
   xmlns:dc="http://purl.org/dc/elements/1.1/"
   xmlns:cc="http://creativecommons.org/ns#"
   xmlns:rdf="http://www.w3.org/1999/02/22-rdf-syntax-ns#"
   xmlns:svg="http://www.w3.org/2000/svg"
   xmlns="http://www.w3.org/2000/svg"
   xmlns:xlink="http://www.w3.org/1999/xlink"
   xmlns:sodipodi="http://sodipodi.sourceforge.net/DTD/sodipodi-0.dtd"
   xmlns:inkscape="http://www.inkscape.org/namespaces/inkscape"
   width="96"
   height="96"
   id="svg2"
   version="1.1"
   inkscape:version="0.48.4 r9939"
   sodipodi:docname="konsole-linux32.svg">
  <defs
     id="defs4">
    <linearGradient
       inkscape:collect="always"
       id="linearGradient3173">
      <stop
         style="stop-color:#cccccc;stop-opacity:1"
         offset="0"
         id="stop3175" />
      <stop
         style="stop-color:#ffffff;stop-opacity:1"
         offset="1"
         id="stop3177" />
    </linearGradient>
    <linearGradient
       id="linearGradient3076"
       inkscape:collect="always">
      <stop
         id="stop3078"
         offset="0"
         style="stop-color:#ffe7f7;stop-opacity:1" />
      <stop
         id="stop3080"
         offset="1"
         style="stop-color:#ffc3ef;stop-opacity:1" />
    </linearGradient>
    <linearGradient
       inkscape:collect="always"
       id="linearGradient3048">
      <stop
         style="stop-color:#c16d16;stop-opacity:1"
         offset="0"
         id="stop3050" />
      <stop
         style="stop-color:#ff8e31;stop-opacity:1"
         offset="1"
         id="stop3052" />
    </linearGradient>
    <linearGradient
       inkscape:collect="always"
       id="linearGradient3119">
      <stop
         style="stop-color:#92948f;stop-opacity:0"
         offset="0"
         id="stop3121" />
      <stop
         id="stop3123"
         offset="0.4283945"
         style="stop-color:#9b9e98;stop-opacity:1" />
      <stop
         style="stop-color:#939690;stop-opacity:0"
         offset="1"
         id="stop3125" />
    </linearGradient>
    <linearGradient
       id="linearGradient3073"
       inkscape:collect="always">
      <stop
         id="stop3075"
         offset="0"
         style="stop-color:#ffffff;stop-opacity:0" />
      <stop
         style="stop-color:#ffffff;stop-opacity:1"
         offset="0.45872402"
         id="stop3085" />
      <stop
         id="stop3083"
         offset="1"
         style="stop-color:#ffffff;stop-opacity:0" />
    </linearGradient>
    <linearGradient
       inkscape:collect="always"
       id="linearGradient3047">
      <stop
         style="stop-color:#000000;stop-opacity:1"
         offset="0"
         id="stop3049" />
      <stop
         id="stop3055"
         offset="0.06123874"
         style="stop-color:#1a1a1a;stop-opacity:1" />
      <stop
         style="stop-color:#333333;stop-opacity:1"
         offset="0.16480456"
         id="stop3057" />
      <stop
         id="stop3059"
         offset="0.55385184"
         style="stop-color:#4d4d4d;stop-opacity:1" />
      <stop
         style="stop-color:#999999;stop-opacity:1"
         offset="1"
         id="stop3051" />
    </linearGradient>
    <linearGradient
       id="linearGradient3041"
       inkscape:collect="always">
      <stop
         id="stop3043"
         offset="0"
         style="stop-color:#1a1a1a;stop-opacity:1" />
      <stop
         id="stop3045"
         offset="1"
         style="stop-color:#808080;stop-opacity:1" />
    </linearGradient>
    <linearGradient
       inkscape:collect="always"
       id="linearGradient3029">
      <stop
         style="stop-color:#333333;stop-opacity:1"
         offset="0"
         id="stop3031" />
      <stop
         style="stop-color:#e0e0dd;stop-opacity:0;"
         offset="1"
         id="stop3033" />
    </linearGradient>
    <linearGradient
       inkscape:collect="always"
       xlink:href="#linearGradient3029"
       id="linearGradient3035"
       x1="35.355339"
       y1="1030.3622"
       x2="35.355339"
       y2="975.33282"
       gradientUnits="userSpaceOnUse"
       gradientTransform="matrix(1.1638085,0,0,1.1638085,-7.862809,-164.23642)" />
    <linearGradient
       inkscape:collect="always"
       xlink:href="#linearGradient3041"
       id="linearGradient3039"
       gradientUnits="userSpaceOnUse"
       x1="35.355339"
       y1="1030.3622"
       x2="35.355339"
       y2="975.33282"
       gradientTransform="matrix(1.1218695,0,0,1.1218695,-5.8497348,-122.18782)" />
    <linearGradient
       inkscape:collect="always"
       xlink:href="#linearGradient3047"
       id="linearGradient3053"
       x1="40"
       y1="1043.4336"
       x2="39.285713"
       y2="972.33325"
       gradientUnits="userSpaceOnUse" />
    <linearGradient
       inkscape:collect="always"
       xlink:href="#linearGradient3073"
       id="linearGradient3113"
       gradientUnits="userSpaceOnUse"
       gradientTransform="translate(0,-956.36218)"
       x1="14.869445"
       y1="978.90387"
       x2="24.52651"
       y2="969.24683" />
    <linearGradient
       inkscape:collect="always"
       xlink:href="#linearGradient3073"
       id="linearGradient3115"
       gradientUnits="userSpaceOnUse"
       gradientTransform="matrix(-1,0,0,1,96,-956.36218)"
       x1="15.152279"
       y1="978.62103"
       x2="26.263966"
       y2="967.50934" />
    <linearGradient
       inkscape:collect="always"
       xlink:href="#linearGradient3119"
       id="linearGradient3117"
       gradientUnits="userSpaceOnUse"
       gradientTransform="translate(0,-956.36218)"
       x1="13.131983"
       y1="980.64136"
       x2="25.549681"
       y2="967.86646" />
    <linearGradient
       inkscape:collect="always"
       xlink:href="#linearGradient3119"
       id="linearGradient3129"
       gradientUnits="userSpaceOnUse"
       gradientTransform="matrix(-1,0,0,1,96,0)"
       x1="13.131983"
       y1="980.64136"
       x2="25.549681"
       y2="967.86646" />
    <linearGradient
       inkscape:collect="always"
       xlink:href="#linearGradient3048"
       id="linearGradient3054"
       x1="49.267925"
       y1="996.57349"
       x2="49.267925"
       y2="1045.8627"
       gradientUnits="userSpaceOnUse" />
    <linearGradient
       inkscape:collect="always"
       xlink:href="#linearGradient3048"
       id="linearGradient3058"
       x1="115.80308"
       y1="985.47241"
       x2="115.80308"
       y2="1033.5543"
       gradientUnits="userSpaceOnUse" />
    <linearGradient
       inkscape:collect="always"
       xlink:href="#linearGradient3076"
       id="linearGradient3055"
       gradientUnits="userSpaceOnUse"
       x1="115.80308"
       y1="985.47241"
       x2="115.80308"
       y2="1025.3639"
       gradientTransform="matrix(1.4144782,0,0,1.4144782,-119.78686,-419.05496)" />
    <linearGradient
       inkscape:collect="always"
       xlink:href="#linearGradient3076"
       id="linearGradient3086"
       gradientUnits="userSpaceOnUse"
       gradientTransform="matrix(1.4144782,0,0,1.4144782,-119.78686,-417.12598)"
       x1="115.80308"
       y1="985.47241"
       x2="115.80308"
       y2="1025.3639" />
    <linearGradient
       inkscape:collect="always"
       xlink:href="#linearGradient3076"
       id="linearGradient3091"
       gradientUnits="userSpaceOnUse"
       gradientTransform="matrix(1.4144782,0,0,1.4144782,-119.78686,-418.126)"
       x1="115.80308"
       y1="985.47241"
       x2="115.80308"
       y2="1025.3639" />
    <linearGradient
       inkscape:collect="always"
       xlink:href="#linearGradient3076"
       id="linearGradient3093"
       gradientUnits="userSpaceOnUse"
       gradientTransform="matrix(1.4144782,0,0,1.4144782,-119.78686,-1375.4171)"
       x1="115.80308"
       y1="985.47241"
       x2="115.80308"
       y2="1025.3639" />
    <linearGradient
       inkscape:collect="always"
       xlink:href="#linearGradient3173"
       id="linearGradient3179"
       x1="59.68515"
       y1="974.74585"
       x2="59.68515"
       y2="963.21582"
       gradientUnits="userSpaceOnUse" />
  </defs>
  <sodipodi:namedview
     id="base"
     pagecolor="#ffffff"
     bordercolor="#666666"
     borderopacity="1.0"
     inkscape:pageopacity="0.0"
     inkscape:pageshadow="2"
     inkscape:zoom="5.5208332"
     inkscape:cx="55.305073"
     inkscape:cy="88.192222"
     inkscape:document-units="px"
     inkscape:current-layer="layer1"
     showgrid="false"
     inkscape:window-width="763"
     inkscape:window-height="443"
     inkscape:window-x="464"
     inkscape:window-y="177"
     inkscape:window-maximized="0"
     showguides="true"
     inkscape:guide-bbox="true" />
  <metadata
     id="metadata7">
    <rdf:RDF>
      <cc:Work
         rdf:about="">
        <dc:format>image/svg+xml</dc:format>
        <dc:type
           rdf:resource="http://purl.org/dc/dcmitype/StillImage" />
        <dc:title />
      </cc:Work>
    </rdf:RDF>
  </metadata>
  <g
     inkscape:label="Layer 1"
     inkscape:groupmode="layer"
     id="layer1"
     transform="translate(0,-956.36218)">
    <rect
       style="opacity:0.05;fill:#000000;fill-opacity:1;stroke:none"
       id="rect3826"
       width="89"
       height="89"
       x="3.5"
       y="960.86218"
       rx="10.595235"
       ry="10.595235" />
    <g
       id="g3041">
      <rect
         style="opacity:0.05;fill:#000000;fill-opacity:1;stroke:none"
         id="rect3824"
         width="88"
         height="88"
         x="4"
         y="961.36218"
         rx="10.476188"
         ry="10.476188" />
      <rect
         ry="10.357141"
         rx="10.357141"
         y="961.86218"
         x="4.5"
         height="87"
         width="87"
         id="rect3822"
         style="opacity:0.05;fill:#000000;fill-opacity:1;stroke:none" />
      <rect
         style="opacity:0.1;fill:#000000;fill-opacity:1;stroke:none"
         id="rect3820"
         width="86"
         height="86"
         x="5"
         y="962.36218"
         rx="10.238094"
         ry="10.238094" />
      <rect
         ry="10.119047"
         rx="10.119047"
         y="962.86218"
         x="5.5"
         height="85"
         width="85"
         id="rect3818"
         style="opacity:0.1;fill:#000000;fill-opacity:1;stroke:none" />
      <rect
         style="opacity:0.3;fill:#000000;fill-opacity:1;stroke:none"
         id="rect3131"
         width="84"
         height="84"
         x="6"
         y="963.36218"
         rx="10"
         ry="10" />
    </g>
    <rect
       ry="10"
       rx="10"
       y="962.36218"
       x="6"
       height="84"
       width="84"
       id="rect3036"
       style="fill:#333333;fill-opacity:1;stroke:none" />
    <text
       xml:space="preserve"
       style="font-size:12px;font-style:normal;font-variant:normal;font-weight:normal;font-stretch:normal;line-height:0%;letter-spacing:0px;word-spacing:0px;fill:#24221c;fill-opacity:1;stroke:none;font-family:Sans;-inkscape-font-specification:Schumacher Clean"
       x="17.645103"
       y="897.00348"
       id="text3410"
       sodipodi:linespacing="0%"
       transform="scale(0.90555633,1.1042935)"><tspan
         sodipodi:role="line"
         id="tspan3412"
         x="17.645103"
         y="897.00348"
         style="font-size:12px;font-style:normal;font-variant:normal;font-weight:normal;font-stretch:normal;line-height:0%;fill:#24221c;font-family:Sans;-inkscape-font-specification:Schumacher Clean" /></text>
    <path
       style="fill:#7d7d7d;fill-opacity:1;stroke:none"
       d="M 6 20 L 6 80 C 6 85.54 10.46 90 16 90 L 16 20 L 6 20 z "
       transform="translate(0,956.36218)"
       id="rect3181" />
    <g
       style="font-size:4.82049608px;font-style:normal;font-variant:normal;font-weight:normal;font-stretch:normal;text-align:start;line-height:100%;letter-spacing:0px;word-spacing:0px;writing-mode:lr-tb;text-anchor:start;fill:#00ff00;fill-opacity:1;stroke:none;font-family:Trebuchet MS;-inkscape-font-specification:Trebuchet MS"
       id="text3033">
      <path
         d="m 19.113576,981.953 0,-3.27311 0.400101,-0.0675 0,1.13764 c 0.06427,-0.0257 0.13658,-0.045 0.216922,-0.0579 0.08034,-0.0161 0.159075,-0.0241 0.236204,-0.0241 0.170323,0 0.311724,0.0257 0.424204,0.0771 0.11569,0.0482 0.20728,0.1173 0.274768,0.20728 0.06749,0.09 0.11569,0.19764 0.144615,0.32297 0.02892,0.12533 0.04338,0.26352 0.04338,0.41456 l 0,1.26297 -0.395281,0 0,-1.1762 c -2e-6,-0.27637 -0.03857,-0.4708 -0.115692,-0.58328 -0.07713,-0.11569 -0.215317,-0.17353 -0.414563,-0.17354 -0.08356,10e-6 -0.165504,0.01 -0.245845,0.0289 -0.07713,0.0161 -0.133368,0.0321 -0.168717,0.0482 l 0,1.85589 -0.400101,0"
         style="line-height:100%;fill:#00ff00;font-family:Ubuntu Mono;-inkscape-font-specification:Ubuntu Mono"
         id="path3050" />
      <path
         d="m 22.410795,981.66859 c 0.09962,0 0.187998,-0.003 0.265127,-0.01 0.08034,-0.006 0.14622,-0.0145 0.197641,-0.0241 l 0,-0.66523 c -0.05142,-0.0161 -0.114087,-0.0289 -0.188,-0.0386 -0.0707,-0.01 -0.146223,-0.0145 -0.226563,-0.0145 -0.07392,0 -0.146223,0.006 -0.216922,0.0193 -0.0707,0.01 -0.133368,0.0289 -0.188,0.0578 -0.05463,0.0289 -0.09962,0.0675 -0.134974,0.1157 -0.03535,0.045 -0.05303,0.10283 -0.05303,0.17353 -10e-7,0.14462 0.0482,0.24585 0.144615,0.3037 0.09962,0.0546 0.232989,0.0819 0.400101,0.0819 m -0.03856,-2.00532 c 0.167109,0 0.306903,0.0209 0.419383,0.0627 0.11569,0.0418 0.208886,0.0996 0.279589,0.17354 0.0707,0.0739 0.12051,0.1639 0.149435,0.26995 0.02892,0.10605 0.04338,0.22174 0.04339,0.34708 l 0,1.39794 c -0.0932,0.0161 -0.216924,0.0353 -0.371179,0.0578 -0.151043,0.0225 -0.306906,0.0338 -0.467588,0.0338 -0.12212,0 -0.241025,-0.0113 -0.356716,-0.0338 -0.115693,-0.0193 -0.21853,-0.0546 -0.308512,-0.10605 -0.08998,-0.0546 -0.162291,-0.12854 -0.216922,-0.22174 -0.05463,-0.0932 -0.08195,-0.2121 -0.08195,-0.35672 0,-0.12854 0.02732,-0.2362 0.08195,-0.32297 0.05784,-0.09 0.130152,-0.16229 0.216922,-0.21692 0.08998,-0.0546 0.191212,-0.0932 0.303691,-0.11569 0.115691,-0.0257 0.231383,-0.0386 0.347076,-0.0386 0.157468,0 0.311724,0.0177 0.462768,0.053 l 0,-0.11087 c -2e-6,-0.0675 -0.008,-0.13176 -0.0241,-0.19282 -0.01286,-0.0643 -0.04017,-0.12212 -0.08195,-0.17354 -0.03857,-0.0514 -0.0932,-0.0916 -0.163897,-0.12051 -0.06749,-0.0321 -0.155864,-0.0482 -0.265128,-0.0482 -0.138188,0 -0.2587,0.01 -0.361537,0.0289 -0.102838,0.0193 -0.181572,0.0386 -0.236204,0.0579 l -0.04821,-0.32779 c 0.05463,-0.0257 0.144614,-0.0482 0.269948,-0.0675 0.128545,-0.0193 0.265126,-0.0289 0.409742,-0.0289"
         style="line-height:100%;fill:#00ff00;font-family:Ubuntu Mono;-inkscape-font-specification:Ubuntu Mono"
         id="path3052" />
      <path
         d="m 24.739094,980.72378 c 0.08677,0.0643 0.184785,0.14622 0.294051,0.24584 0.109263,0.0964 0.21692,0.20086 0.322973,0.31333 0.109263,0.11248 0.2121,0.22817 0.308512,0.34708 0.09641,0.11569 0.173535,0.22335 0.231384,0.32297 l -0.472409,0 c -0.06106,-0.0996 -0.136582,-0.20085 -0.226563,-0.30369 -0.08998,-0.10605 -0.186394,-0.20728 -0.28923,-0.30369 -0.09962,-0.0964 -0.200855,-0.18478 -0.303691,-0.26513 -0.09962,-0.0803 -0.189607,-0.14782 -0.269948,-0.20246 l 0,1.07497 -0.400101,0 0,-3.27311 0.400101,-0.0675 0,2.03907 c 0.17675,-0.15426 0.353502,-0.3069 0.530254,-0.45795 0.17675,-0.15425 0.335827,-0.31333 0.47723,-0.47723 l 0.467588,0 c -0.13819,0.1639 -0.3053,0.33262 -0.501332,0.50615 -0.192821,0.17354 -0.382427,0.34065 -0.568819,0.50134"
         style="line-height:100%;fill:#00ff00;font-family:Ubuntu Mono;-inkscape-font-specification:Ubuntu Mono"
         id="path3054" />
      <path
         d="m 27.231291,981.66859 c 0.09962,0 0.187998,-0.003 0.265127,-0.01 0.08034,-0.006 0.146221,-0.0145 0.197641,-0.0241 l 0,-0.66523 c -0.05142,-0.0161 -0.114087,-0.0289 -0.188,-0.0386 -0.0707,-0.01 -0.146223,-0.0145 -0.226563,-0.0145 -0.07392,0 -0.146223,0.006 -0.216922,0.0193 -0.0707,0.01 -0.133368,0.0289 -0.188,0.0578 -0.05463,0.0289 -0.09962,0.0675 -0.134973,0.1157 -0.03535,0.045 -0.05303,0.10283 -0.05303,0.17353 -1e-6,0.14462 0.0482,0.24585 0.144615,0.3037 0.09962,0.0546 0.23299,0.0819 0.400101,0.0819 m -0.03856,-2.00532 c 0.167109,0 0.306904,0.0209 0.419383,0.0627 0.115691,0.0418 0.208887,0.0996 0.279589,0.17354 0.0707,0.0739 0.120511,0.1639 0.149436,0.26995 0.02892,0.10605 0.04338,0.22174 0.04338,0.34708 l 0,1.39794 c -0.0932,0.0161 -0.216924,0.0353 -0.371178,0.0578 -0.151044,0.0225 -0.306907,0.0338 -0.467588,0.0338 -0.122121,0 -0.241026,-0.0113 -0.356717,-0.0338 -0.115693,-0.0193 -0.21853,-0.0546 -0.308512,-0.10605 -0.08998,-0.0546 -0.16229,-0.12854 -0.216922,-0.22174 -0.05463,-0.0932 -0.08195,-0.2121 -0.08195,-0.35672 0,-0.12854 0.02732,-0.2362 0.08195,-0.32297 0.05785,-0.09 0.130153,-0.16229 0.216922,-0.21692 0.08998,-0.0546 0.191212,-0.0932 0.303691,-0.11569 0.115691,-0.0257 0.231383,-0.0386 0.347076,-0.0386 0.157468,0 0.311724,0.0177 0.462768,0.053 l 0,-0.11087 c -2e-6,-0.0675 -0.008,-0.13176 -0.0241,-0.19282 -0.01286,-0.0643 -0.04017,-0.12212 -0.08195,-0.17354 -0.03857,-0.0514 -0.0932,-0.0916 -0.163897,-0.12051 -0.06749,-0.0321 -0.155864,-0.0482 -0.265127,-0.0482 -0.138189,0 -0.258701,0.01 -0.361537,0.0289 -0.102838,0.0193 -0.181573,0.0386 -0.236205,0.0579 l -0.0482,-0.32779 c 0.05463,-0.0257 0.144615,-0.0482 0.269948,-0.0675 0.128546,-0.0193 0.265126,-0.0289 0.409742,-0.0289"
         style="line-height:100%;fill:#00ff00;font-family:Ubuntu Mono;-inkscape-font-specification:Ubuntu Mono"
         id="path3056" />
      <path
         d="m 28.609953,979.77896 c 0.192819,-0.0739 0.374391,-0.11087 0.544716,-0.11087 0.0932,0 0.179964,0.0145 0.260307,0.0434 0.08355,0.0257 0.154254,0.0675 0.212102,0.12534 0.138186,-0.11248 0.286014,-0.16872 0.443485,-0.16872 0.07713,0 0.149434,0.0145 0.216922,0.0434 0.0707,0.0289 0.131759,0.0723 0.183179,0.13016 0.05463,0.0578 0.09802,0.13015 0.130154,0.21692 0.03213,0.0868 0.0482,0.188 0.0482,0.30369 l 0,1.59076 -0.361538,0 0,-1.6004 c -1e-6,-0.11569 -0.02571,-0.20407 -0.07713,-0.26513 -0.05142,-0.0611 -0.115694,-0.0916 -0.19282,-0.0916 -0.03857,0 -0.07874,0.01 -0.120513,0.0289 -0.04178,0.0193 -0.08034,0.0498 -0.115692,0.0916 0.01928,0.0739 0.02892,0.15587 0.02892,0.24585 l 0,0.72789 -0.361537,0 0,-0.73271 c -1e-6,-0.11248 -0.01768,-0.20085 -0.05303,-0.26513 -0.03535,-0.0643 -0.104445,-0.0964 -0.207282,-0.0964 -0.06427,0 -0.136581,0.0145 -0.216922,0.0434 l 0,1.91373 -0.361537,0 0,-2.17404"
         style="line-height:100%;fill:#00ff00;font-family:Ubuntu Mono;-inkscape-font-specification:Ubuntu Mono"
         id="path3058" />
      <path
         d="m 31.068406,982.37239 c 0.02892,0.0161 0.06909,0.0289 0.120512,0.0386 0.05463,0.01 0.104444,0.0145 0.149435,0.0145 0.157469,0 0.279588,-0.0354 0.366358,-0.10605 0.08998,-0.0675 0.17193,-0.17996 0.245845,-0.33743 -0.179966,-0.34065 -0.348683,-0.7054 -0.506152,-1.09426 -0.15747,-0.39206 -0.287623,-0.78252 -0.39046,-1.17138 l 0.433845,0 c 0.03214,0.12855 0.06909,0.26835 0.110871,0.41939 0.04499,0.14783 0.0948,0.30048 0.149436,0.45794 0.05463,0.15747 0.112477,0.31655 0.173537,0.47723 0.06427,0.15747 0.131759,0.30851 0.202461,0.45313 0.05142,-0.14783 0.09962,-0.29405 0.144615,-0.43867 0.04499,-0.14461 0.08677,-0.28922 0.125333,-0.43384 0.03856,-0.14783 0.07713,-0.29726 0.115692,-0.44831 0.03856,-0.15425 0.07873,-0.31654 0.120512,-0.48687 l 0.414563,0 c -0.102839,0.41778 -0.218531,0.8227 -0.347076,1.21477 -0.125334,0.39207 -0.260308,0.75521 -0.404921,1.08943 -0.05463,0.12855 -0.114087,0.23942 -0.178359,0.33261 -0.06106,0.0932 -0.128547,0.17033 -0.202461,0.23139 -0.07392,0.0611 -0.15747,0.10605 -0.250665,0.13497 -0.0932,0.0289 -0.199248,0.0434 -0.318153,0.0434 -0.06106,0 -0.128547,-0.008 -0.202461,-0.0241 -0.0707,-0.0161 -0.118906,-0.0305 -0.144615,-0.0434 l 0.07231,-0.32297"
         style="line-height:100%;fill:#00ff00;font-family:Ubuntu Mono;-inkscape-font-specification:Ubuntu Mono"
         id="path3060" />
      <path
         d="m 33.975165,979.79824 c 0.04821,-0.0289 0.117298,-0.0578 0.207282,-0.0868 0.09319,-0.0321 0.196032,-0.0482 0.308512,-0.0482 0.15104,0 0.286014,0.0289 0.404921,0.0868 0.118904,0.0578 0.218527,0.13819 0.298871,0.24102 0.08355,0.10284 0.14622,0.22657 0.187999,0.37118 0.04499,0.1414 0.06748,0.29887 0.06749,0.47241 -2e-6,0.17996 -0.02571,0.34225 -0.07713,0.48687 -0.05142,0.14461 -0.123728,0.26834 -0.216922,0.37118 -0.0932,0.0996 -0.205676,0.17675 -0.337435,0.23138 -0.131761,0.0546 -0.277983,0.082 -0.438665,0.082 -0.176752,0 -0.334222,-0.0129 -0.472408,-0.0386 -0.138189,-0.0257 -0.24906,-0.0514 -0.332615,-0.0771 l 0,-3.21045 0.400101,-0.0675 0,1.18584 m 0,1.80769 c 0.06106,0.0161 0.122119,0.0289 0.183179,0.0386 0.06106,0.006 0.118905,0.01 0.173538,0.01 0.221742,0 0.395279,-0.0675 0.520614,-0.20246 0.125331,-0.13819 0.187997,-0.34386 0.187999,-0.61702 -2e-6,-0.11569 -0.01125,-0.22335 -0.03374,-0.32298 -0.0225,-0.10283 -0.05785,-0.1896 -0.106051,-0.2603 -0.04821,-0.0739 -0.110873,-0.13176 -0.188,-0.17354 -0.07391,-0.0418 -0.163898,-0.0627 -0.269947,-0.0627 -0.0932,10e-6 -0.18318,0.0193 -0.269948,0.0578 -0.08677,0.0353 -0.15265,0.0739 -0.197641,0.11569 l 0,1.41723"
         style="line-height:100%;fill:#00ff00;font-family:Ubuntu Mono;-inkscape-font-specification:Ubuntu Mono"
         id="path3062" />
      <path
         d="m 37.335051,981.39383 c -2e-6,-0.0803 -0.03375,-0.14623 -0.10123,-0.19764 -0.06428,-0.0514 -0.146224,-0.0964 -0.245846,-0.13498 -0.09641,-0.0386 -0.202462,-0.0755 -0.318152,-0.11087 -0.115693,-0.0386 -0.223351,-0.0852 -0.322974,-0.13979 -0.09641,-0.0546 -0.178359,-0.12212 -0.245845,-0.20247 -0.06427,-0.0803 -0.09641,-0.18478 -0.09641,-0.31333 0,-0.17996 0.07231,-0.3294 0.216922,-0.4483 0.147828,-0.12212 0.377605,-0.18318 0.689331,-0.18318 0.122118,0 0.247451,0.01 0.375999,0.0289 0.131758,0.0161 0.244237,0.0386 0.337435,0.0675 l -0.07231,0.35671 c -0.02571,-0.0129 -0.06106,-0.0257 -0.106051,-0.0386 -0.04499,-0.0161 -0.09641,-0.0289 -0.154255,-0.0386 -0.05785,-0.0129 -0.120514,-0.0225 -0.188,-0.0289 -0.06427,-0.006 -0.126941,-0.01 -0.187999,-0.01 -0.347077,0 -0.520614,0.0948 -0.520614,0.28441 0,0.0675 0.03214,0.12534 0.09641,0.17354 0.06749,0.045 0.151041,0.0868 0.250666,0.12533 0.09962,0.0386 0.20728,0.0787 0.322973,0.12051 0.115691,0.0386 0.223348,0.0868 0.322973,0.14462 0.09962,0.0579 0.181571,0.12855 0.245846,0.2121 0.06749,0.0803 0.101228,0.18318 0.10123,0.30851 -2e-6,0.20246 -0.07874,0.35993 -0.236204,0.47241 -0.157471,0.10927 -0.40653,0.1639 -0.747177,0.1639 -0.154257,0 -0.295658,-0.0129 -0.424204,-0.0386 -0.128547,-0.0257 -0.250666,-0.0643 -0.366357,-0.11569 l 0.07713,-0.36153 c 0.112477,0.0514 0.229776,0.0948 0.351896,0.13015 0.125332,0.0321 0.258699,0.0482 0.400101,0.0482 0.363142,0 0.544714,-0.0916 0.544716,-0.27476"
         style="line-height:100%;fill:#00ff00;font-family:Ubuntu Mono;-inkscape-font-specification:Ubuntu Mono"
         id="path3064" />
      <path
         d="m 40.309297,981.64931 c -0.09641,0.0386 -0.194429,0.0659 -0.29405,0.082 -0.09963,0.0128 -0.191215,0.0193 -0.274769,0.0193 -0.11248,0 -0.216923,-0.0177 -0.313332,-0.053 -0.09641,-0.0386 -0.181573,-0.0964 -0.255486,-0.17354 -0.0707,-0.0771 -0.126941,-0.17515 -0.168718,-0.29405 -0.03856,-0.12212 -0.05785,-0.26673 -0.05785,-0.43385 0,-0.29887 0.07713,-0.52543 0.231384,-0.67969 0.154255,-0.15746 0.355109,-0.2362 0.602562,-0.2362 0.02571,0 0.04981,0.002 0.07231,0.005 0.02571,0 0.05142,0.002 0.07713,0.005 -2e-6,-0.20246 -0.04178,-0.36314 -0.125333,-0.48205 -0.08356,-0.1189 -0.216924,-0.17835 -0.400101,-0.17836 -0.11248,10e-6 -0.215317,0.0273 -0.308512,0.082 -0.0932,0.0546 -0.173539,0.14301 -0.241025,0.26513 -0.06749,0.11891 -0.120513,0.27316 -0.159076,0.46277 -0.03856,0.1896 -0.05785,0.41938 -0.05785,0.68933 -10e-7,0.20246 0.01928,0.39849 0.05785,0.5881 0.03856,0.18639 0.09802,0.35029 0.178358,0.49169 0.08355,0.1414 0.187998,0.25388 0.313332,0.33743 0.128546,0.0868 0.281194,0.13016 0.457947,0.13016 0.128545,0 0.261912,-0.0209 0.400102,-0.0627 l 0.03856,0.32297 c -0.170327,0.045 -0.327796,0.0675 -0.472409,0.0675 -0.234599,0 -0.438666,-0.053 -0.612203,-0.15908 -0.170325,-0.10283 -0.311726,-0.23941 -0.424204,-0.40974 -0.109265,-0.17032 -0.191213,-0.36475 -0.245845,-0.58328 -0.05463,-0.21853 -0.08195,-0.44188 -0.08195,-0.67005 -10e-7,-0.331 0.02892,-0.61541 0.08677,-0.85323 0.06106,-0.2378 0.143008,-0.43223 0.245846,-0.58328 0.10605,-0.15103 0.228169,-0.26191 0.366357,-0.33261 0.138187,-0.0739 0.287622,-0.11087 0.448307,-0.11087 0.2828,0 0.50615,0.0964 0.670049,0.28923 0.163894,0.18961 0.245843,0.45473 0.245845,0.79538 l 0,1.66307 m -0.978561,-0.85323 c -1e-6,0.0643 0.0032,0.13337 0.0096,0.20729 0.0096,0.0739 0.02892,0.143 0.05785,0.20728 0.02892,0.0611 0.06909,0.11408 0.120512,0.15907 0.05463,0.0418 0.128545,0.0627 0.221743,0.0627 0.02571,0 0.05463,-0.002 0.08677,-0.005 0.03213,-0.003 0.06588,-0.01 0.101231,-0.0193 l 0,-1.18102 c -0.02893,-0.01 -0.05785,-0.0161 -0.08677,-0.0193 -0.02571,-0.003 -0.05142,-0.005 -0.07713,-0.005 -0.138189,0 -0.245847,0.0546 -0.322973,0.1639 -0.07392,0.10605 -0.110873,0.24906 -0.110872,0.42902"
         style="line-height:100%;fill:#00ff00;font-family:Ubuntu Mono;-inkscape-font-specification:Ubuntu Mono"
         id="path3066" />
      <path
         d="m 42.09288,982.00603 c -0.141403,0 -0.258701,-0.0193 -0.351896,-0.0579 -0.0932,-0.0386 -0.167112,-0.0964 -0.221743,-0.17354 -0.05463,-0.0771 -0.0932,-0.17193 -0.115692,-0.2844 -0.0225,-0.1157 -0.03374,-0.24906 -0.03374,-0.40011 l 0,-2.11619 -0.645947,0 0,-0.33744 1.041227,0 0,2.45363 c -10e-7,0.11248 0.0064,0.20407 0.01928,0.27477 0.01607,0.0707 0.03856,0.12855 0.06749,0.17354 0.03214,0.0418 0.0707,0.0707 0.115692,0.0868 0.04499,0.0161 0.09801,0.0241 0.159077,0.0241 0.09319,0 0.179963,-0.0113 0.260306,-0.0337 0.08034,-0.0225 0.143006,-0.0466 0.188,-0.0723 l 0.05785,0.33744 c -0.01928,0.01 -0.0466,0.0225 -0.08195,0.0386 -0.03535,0.0128 -0.07713,0.0257 -0.125333,0.0386 -0.04821,0.0129 -0.101232,0.0241 -0.159076,0.0338 -0.05463,0.01 -0.11248,0.0145 -0.173538,0.0145"
         style="line-height:100%;fill:#00ff00;font-family:Ubuntu Mono;-inkscape-font-specification:Ubuntu Mono"
         id="path3068" />
      <path
         d="m 43.881284,979.36922 c -0.08356,0 -0.155864,-0.0289 -0.216922,-0.0868 -0.06106,-0.0579 -0.09159,-0.13658 -0.09159,-0.23621 0,-0.0996 0.03053,-0.17835 0.09159,-0.2362 0.06106,-0.0578 0.133366,-0.0868 0.216922,-0.0868 0.08677,0 0.159075,0.0289 0.216922,0.0868 0.06106,0.0579 0.09159,0.13658 0.09159,0.2362 -2e-6,0.0996 -0.03053,0.17836 -0.09159,0.23621 -0.05785,0.0578 -0.130154,0.0868 -0.216922,0.0868 m -0.10123,0.67969 -0.645947,0 0,-0.33262 1.041227,0 0,1.37384 c -10e-7,0.22175 0.03053,0.37118 0.09159,0.44831 0.06106,0.0739 0.152647,0.11087 0.274768,0.11087 0.09319,0 0.178356,-0.0113 0.255486,-0.0337 0.08034,-0.0225 0.143006,-0.0466 0.188,-0.0723 l 0.05785,0.33744 c -0.01929,0.01 -0.0466,0.0225 -0.08195,0.0386 -0.03535,0.0128 -0.07713,0.0257 -0.125333,0.0386 -0.04499,0.0129 -0.09641,0.0241 -0.154256,0.0338 -0.05463,0.01 -0.11248,0.0145 -0.173538,0.0145 -0.141402,0 -0.258701,-0.0193 -0.351896,-0.0579 -0.0932,-0.0386 -0.168718,-0.0964 -0.226563,-0.17354 -0.05463,-0.0771 -0.0932,-0.17193 -0.115692,-0.2844 -0.0225,-0.1157 -0.03374,-0.24906 -0.03374,-0.40011 l 0,-1.04122"
         style="line-height:100%;fill:#00ff00;font-family:Ubuntu Mono;-inkscape-font-specification:Ubuntu Mono"
         id="path3070" />
      <path
         d="m 45.626303,979.77896 c 0.144615,-0.0353 0.287623,-0.0627 0.429024,-0.082 0.144614,-0.0193 0.279588,-0.0289 0.404922,-0.0289 0.298869,0 0.523826,0.0771 0.67487,0.23138 0.154253,0.15426 0.231381,0.40171 0.231383,0.74236 l 0,1.31117 -0.39528,0 0,-1.23886 c -2e-6,-0.14462 -0.01286,-0.26192 -0.03856,-0.3519 -0.02571,-0.09 -0.06267,-0.15908 -0.110872,-0.20728 -0.04499,-0.0514 -0.101232,-0.0868 -0.168717,-0.10605 -0.06428,-0.0193 -0.134975,-0.0289 -0.212102,-0.0289 -0.06427,10e-6 -0.133368,0.005 -0.207281,0.0145 -0.0707,0.006 -0.139795,0.0161 -0.207282,0.0289 l 0,1.88963 -0.400101,0 0,-2.17404"
         style="line-height:100%;fill:#00ff00;font-family:Ubuntu Mono;-inkscape-font-specification:Ubuntu Mono"
         id="path3072" />
      <path
         d="m 49.762291,981.89034 c -0.08677,0.0225 -0.202463,0.0466 -0.347076,0.0723 -0.141403,0.0257 -0.308513,0.0386 -0.501332,0.0386 -0.170325,0 -0.311726,-0.0241 -0.424203,-0.0723 -0.112479,-0.0514 -0.204069,-0.12212 -0.274769,-0.2121 -0.0707,-0.0932 -0.120512,-0.20246 -0.149435,-0.3278 -0.02892,-0.12533 -0.04338,-0.26351 -0.04338,-0.41456 l 0,-1.25815 0.39528,0 0,1.17138 c -10e-7,0.27638 0.04017,0.47241 0.120513,0.5881 0.08355,0.1157 0.221741,0.17354 0.414562,0.17354 0.04178,0 0.08355,-0.002 0.125333,-0.005 0.04499,-0.003 0.08677,-0.006 0.125333,-0.01 0.03856,-0.006 0.07231,-0.0113 0.10123,-0.0145 0.02892,-0.006 0.0482,-0.0113 0.05785,-0.0145 l 0,-1.88964 0.400102,0 0,2.17405"
         style="line-height:100%;fill:#00ff00;font-family:Ubuntu Mono;-inkscape-font-specification:Ubuntu Mono"
         id="path3074" />
      <path
         d="m 51.936334,981.953 c -0.03214,-0.0643 -0.07231,-0.13497 -0.120512,-0.2121 -0.04499,-0.0771 -0.0948,-0.15586 -0.149436,-0.2362 -0.05463,-0.0836 -0.112479,-0.16551 -0.173538,-0.24585 -0.05785,-0.0803 -0.115693,-0.15586 -0.173537,-0.22656 -0.05785,0.0739 -0.118907,0.15104 -0.183179,0.23138 -0.06427,0.0803 -0.126941,0.16229 -0.188,0.24585 -0.05785,0.0803 -0.112479,0.15907 -0.163896,0.2362 -0.05142,0.0771 -0.0948,0.14622 -0.130154,0.20728 l -0.409742,0 c 0.106051,-0.19282 0.234597,-0.39046 0.38564,-0.59292 0.154255,-0.20567 0.305297,-0.4001 0.453126,-0.58328 l -0.805023,-1.06051 0.448307,0 0.602562,0.78092 0.554357,-0.78092 0.424203,0 -0.737536,1.03641 c 0.144614,0.18961 0.289228,0.38725 0.433845,0.59292 0.147827,0.20568 0.273159,0.40814 0.375999,0.60738 l -0.443486,0"
         style="line-height:100%;fill:#00ff00;font-family:Ubuntu Mono;-inkscape-font-specification:Ubuntu Mono"
         id="path3076" />
      <path
         d="m 53.189663,980.5406 1.060509,0 0,0.376 -1.060509,0 0,-0.376"
         style="line-height:100%;fill:#00ff00;font-family:Ubuntu Mono;-inkscape-font-specification:Ubuntu Mono"
         id="path3078" />
      <path
         d="m 55.286578,979.58614 c 0.163897,-0.0643 0.322973,-0.14461 0.47723,-0.24103 0.154254,-0.0996 0.297262,-0.22495 0.429024,-0.37599 l 0.279588,0 0,2.64645 0.563998,0 0,0.33743 -1.605225,0 0,-0.33743 0.645947,0 0,-2.0921 c -0.03535,0.0321 -0.07874,0.0659 -0.130154,0.10123 -0.04821,0.0321 -0.102838,0.0643 -0.163896,0.0964 -0.05785,0.0321 -0.118907,0.0627 -0.183179,0.0916 -0.06427,0.0289 -0.126941,0.053 -0.188,0.0723 l -0.125333,-0.29887"
         style="line-height:100%;fill:#00ff00;font-family:Ubuntu Mono;-inkscape-font-specification:Ubuntu Mono"
         id="path3080" />
      <path
         d="m 57.571493,980.83947 c 0,-0.20246 0.03214,-0.37761 0.09641,-0.52544 0.06427,-0.14782 0.152649,-0.26994 0.265128,-0.36635 0.112477,-0.0964 0.24263,-0.16711 0.39046,-0.21211 0.151041,-0.0482 0.311724,-0.0723 0.482049,-0.0723 0.109263,0 0.216921,0.008 0.322974,0.0241 0.109262,0.0129 0.224954,0.0386 0.347075,0.0771 l -0.09159,0.34225 c -0.106053,-0.0386 -0.20407,-0.0627 -0.29405,-0.0723 -0.08677,-0.0129 -0.175147,-0.0193 -0.265128,-0.0193 -0.115693,10e-6 -0.224957,0.0161 -0.327793,0.0482 -0.102839,0.0289 -0.192821,0.0771 -0.269948,0.14461 -0.07391,0.0643 -0.133368,0.14944 -0.178359,0.25549 -0.04499,0.10284 -0.06749,0.22817 -0.06749,0.376 0,0.1414 0.02089,0.26352 0.06267,0.36636 0.04178,0.0996 0.09962,0.18318 0.173538,0.25066 0.07713,0.0643 0.168716,0.11248 0.274768,0.14462 0.10605,0.0321 0.223348,0.0482 0.351896,0.0482 0.102836,0 0.200853,-0.005 0.294051,-0.0145 0.09641,-0.0129 0.200852,-0.0386 0.313332,-0.0771 l 0.05785,0.33262 c -0.112481,0.0418 -0.226566,0.0707 -0.342255,0.0868 -0.115694,0.0193 -0.241027,0.0289 -0.375999,0.0289 -0.179967,0 -0.34547,-0.0241 -0.496511,-0.0723 -0.14783,-0.0514 -0.276376,-0.12533 -0.38564,-0.22174 -0.106051,-0.0964 -0.189607,-0.21692 -0.250666,-0.36154 -0.05785,-0.14783 -0.08677,-0.31815 -0.08677,-0.51097"
         style="line-height:100%;fill:#00ff00;font-family:Ubuntu Mono;-inkscape-font-specification:Ubuntu Mono"
         id="path3082" />
      <path
         d="m 59.919075,980.92142 c 0.05463,-0.12855 0.128546,-0.27638 0.221742,-0.44349 0.09641,-0.16711 0.204068,-0.33904 0.322974,-0.51579 0.118904,-0.17996 0.245844,-0.35511 0.380819,-0.52544 0.134973,-0.17353 0.271553,-0.32939 0.409742,-0.46758 l 0.38564,0 0,1.89445 0.351896,0 0,0.32779 -0.351896,0 0,0.76164 -0.38564,0 0,-0.76164 -1.335277,0 0,-0.26994 m 1.335277,-1.4799 c -0.08677,0.0932 -0.175146,0.19604 -0.265127,0.30852 -0.08677,0.11248 -0.171932,0.23138 -0.255486,0.35671 -0.08356,0.12212 -0.162291,0.24746 -0.236205,0.376 -0.0707,0.12855 -0.134974,0.25549 -0.19282,0.38082 l 0.949638,0 0,-1.42205"
         style="line-height:100%;fill:#00ff00;font-family:Ubuntu Mono;-inkscape-font-specification:Ubuntu Mono"
         id="path3084" />
      <path
         d="m 64.180393,979.73075 c -2e-6,0.10284 -0.02089,0.20247 -0.06267,0.29887 -0.03857,0.0964 -0.09159,0.19122 -0.159077,0.28441 -0.06428,0.0932 -0.138189,0.18479 -0.221743,0.27477 -0.08356,0.09 -0.168718,0.17836 -0.255486,0.26513 -0.04821,0.0482 -0.104445,0.10605 -0.168717,0.17354 -0.06427,0.0675 -0.125334,0.13658 -0.183179,0.20728 -0.05785,0.0707 -0.106052,0.13979 -0.144615,0.20728 -0.03856,0.0675 -0.05785,0.12533 -0.05785,0.17354 l 1.373841,0 0,0.33743 -1.807686,0 c -0.0032,-0.0161 -0.0048,-0.0321 -0.0048,-0.0482 0,-0.0193 0,-0.037 0,-0.053 0,-0.13497 0.02249,-0.2603 0.06749,-0.376 0.04499,-0.11569 0.102837,-0.22495 0.173538,-0.32779 0.0707,-0.10284 0.149434,-0.19925 0.236204,-0.28923 0.08998,-0.0932 0.178357,-0.18318 0.265127,-0.26995 0.0707,-0.0707 0.138187,-0.13979 0.202461,-0.20728 0.06749,-0.0675 0.125332,-0.13497 0.173538,-0.20246 0.05142,-0.0675 0.09159,-0.13658 0.120512,-0.20728 0.03213,-0.0739 0.0482,-0.14943 0.04821,-0.22656 -1e-6,-0.0868 -0.01446,-0.16069 -0.04338,-0.22175 -0.02571,-0.0611 -0.06267,-0.11087 -0.110872,-0.14943 -0.04499,-0.0418 -0.09802,-0.0723 -0.159076,-0.0916 -0.06106,-0.0193 -0.126941,-0.0289 -0.19764,-0.0289 -0.08356,0 -0.160684,0.0113 -0.231384,0.0337 -0.06749,0.0225 -0.128547,0.0498 -0.183179,0.082 -0.05142,0.0321 -0.09641,0.0643 -0.134974,0.0964 -0.03856,0.0289 -0.06749,0.053 -0.08677,0.0723 l -0.19764,-0.27958 c 0.02571,-0.0289 0.06427,-0.0643 0.115692,-0.10606 0.05142,-0.0418 0.112478,-0.0803 0.183179,-0.11569 0.07391,-0.0386 0.155862,-0.0707 0.245845,-0.0964 0.08998,-0.0257 0.186391,-0.0386 0.28923,-0.0386 0.311724,0 0.5415,0.0723 0.689331,0.21692 0.15104,0.14141 0.226561,0.34547 0.226563,0.6122"
         style="line-height:100%;fill:#00ff00;font-family:Ubuntu Mono;-inkscape-font-specification:Ubuntu Mono"
         id="path3086" />
      <path
         d="m 66.127873,981.64449 c -10e-7,0.0964 -0.03214,0.18157 -0.09641,0.25549 -0.06427,0.0739 -0.149436,0.11087 -0.255486,0.11087 -0.109266,0 -0.196035,-0.037 -0.260307,-0.11087 -0.06427,-0.0739 -0.09641,-0.15908 -0.09641,-0.25549 -10e-7,-0.0996 0.03214,-0.18639 0.09641,-0.26031 0.06427,-0.0739 0.151041,-0.11087 0.260307,-0.11087 0.10605,0 0.191212,0.037 0.255486,0.11087 0.06427,0.0739 0.09641,0.16069 0.09641,0.26031 m 0,-1.55702 c -10e-7,0.0964 -0.03214,0.18157 -0.09641,0.25549 -0.06427,0.0739 -0.149436,0.11087 -0.255486,0.11087 -0.109266,0 -0.196035,-0.037 -0.260307,-0.11087 -0.06427,-0.0739 -0.09641,-0.15908 -0.09641,-0.25549 -10e-7,-0.0996 0.03214,-0.18639 0.09641,-0.26031 0.06427,-0.0739 0.151041,-0.11087 0.260307,-0.11087 0.10605,0 0.191212,0.037 0.255486,0.11087 0.06427,0.0739 0.09641,0.16069 0.09641,0.26031"
         style="line-height:100%;fill:#00ff00;font-family:Ubuntu Mono;-inkscape-font-specification:Ubuntu Mono"
         id="path3088" />
      <path
         d="m 69.20817,980.43937 c -0.0096,0.0546 -0.02732,0.1173 -0.05303,0.188 -0.0225,0.0707 -0.05785,0.13658 -0.10605,0.19764 -0.04499,0.0611 -0.10284,0.11248 -0.173538,0.15425 -0.0707,0.0418 -0.155865,0.0627 -0.255487,0.0627 -0.08677,0 -0.167112,-0.0161 -0.241024,-0.0482 -0.0707,-0.0354 -0.139796,-0.0739 -0.207282,-0.11569 -0.07713,-0.045 -0.151043,-0.09 -0.221743,-0.13497 -0.0707,-0.045 -0.147829,-0.0675 -0.231383,-0.0675 -0.04499,0 -0.08356,0.0113 -0.115692,0.0337 -0.03214,0.0193 -0.05945,0.045 -0.08195,0.0771 -0.01928,0.0321 -0.03696,0.0691 -0.05302,0.11087 -0.01607,0.0386 -0.02892,0.0755 -0.03856,0.11088 l -0.274768,-0.0771 c 0.0096,-0.0546 0.02732,-0.1173 0.05302,-0.188 0.02571,-0.0707 0.06106,-0.13658 0.106051,-0.19764 0.04499,-0.0611 0.10123,-0.11248 0.168717,-0.15426 0.0707,-0.0418 0.157469,-0.0627 0.260307,-0.0627 0.08677,0 0.165503,0.0177 0.236204,0.053 0.07391,0.0321 0.144614,0.0691 0.212102,0.11087 0.07713,0.045 0.151041,0.09 0.221743,0.13498 0.07391,0.045 0.151041,0.0675 0.231384,0.0675 0.04499,0 0.08355,-0.01 0.115692,-0.0289 0.03214,-0.0225 0.05784,-0.0498 0.07713,-0.082 0.02249,-0.0321 0.04178,-0.0675 0.05785,-0.10605 0.01607,-0.0418 0.02892,-0.0803 0.03856,-0.11569 l 0.274768,0.0771"
         style="line-height:100%;fill:#00ff00;font-family:Ubuntu Mono;-inkscape-font-specification:Ubuntu Mono"
         id="path3090" />
      <path
         d="m 69.622732,980.09711 0.110872,-0.33261 1.860711,0.79056 0,0.34225 -1.860711,0.79057 -0.110872,-0.33262 1.528098,-0.63148 -1.528098,-0.62667"
         style="line-height:100%;fill:#00ff00;font-family:Ubuntu Mono;-inkscape-font-specification:Ubuntu Mono"
         id="path3092" />
      <path
         d="m 74.245588,982.41095 2.33312,0 0,0.33743 -2.33312,0 0,-0.33743"
         style="line-height:100%;fill:#00ff00;font-family:Ubuntu Mono;-inkscape-font-specification:Ubuntu Mono"
         id="path3094" />
    </g>
    <rect
       ry="0"
       rx="0"
       y="-17"
       x="976.36218"
       height="1"
       width="70"
       id="rect12790"
       style="fill:#1e1e1e;fill-opacity:1;stroke:none"
       transform="matrix(0,1,-1,0,0,0)" />
    <path
       style="opacity:1;fill:url(#linearGradient3179);fill-opacity:1;stroke:none"
       d="m 16,962.36218 c -5.54,0 -10,4.46 -10,10 l 0,4 84,0 0,-4 c 0,-5.54 -4.46,-10 -10,-10 z"
       id="rect12760"
       inkscape:connector-curvature="0"
       sodipodi:nodetypes="ssccsss" />
    <g
       style="font-size:5.75597763px;font-style:normal;font-variant:normal;font-weight:bold;font-stretch:normal;text-align:center;line-height:125%;letter-spacing:0px;word-spacing:0px;text-anchor:middle;fill:#333333;fill-opacity:1;stroke:none;font-family:Cantarell;-inkscape-font-specification:Cantarell Bold"
       id="text3051">
      <path
         d="m 27.821792,970.63137 c -0.27053,0 -0.322334,-0.16693 -0.322334,-0.43746 l 0,-3.07369 -0.679206,0 0,3.27515 c 0,0.39141 0.120876,0.77706 0.707986,0.77706 0.316578,0 0.523794,-0.10361 0.621645,-0.13815 l 0,-0.44896 c -0.09785,0.023 -0.218727,0.046 -0.328091,0.046"
         style=""
         id="path3097" />
      <path
         d="m 28.574027,967.12022 0,0.67345 0.690717,0 0,-0.67345 -0.690717,0 m 0,1.22027 0,2.77438 0.690717,0 0,-2.77438 -0.690717,0"
         style=""
         id="path3099" />
      <path
         d="m 30.440313,968.34049 -0.483503,0 0,2.77438 0.690718,0 0,-2.10669 c 0.305066,-0.12663 0.535306,-0.15541 0.661937,-0.15541 0.44321,0 0.50077,0.35687 0.50077,0.56408 l 0,1.69802 0.690718,0 0,-1.57714 c 0,-0.4835 -0.04605,-1.24905 -1.007297,-1.24905 -0.379894,0 -0.742521,0.14966 -0.961248,0.24175 l -0.0921,-0.18994"
         style=""
         id="path3101" />
      <path
         d="m 35.135122,971.12062 0.483502,0 0,-2.77438 -0.690717,0 0,2.10669 c -0.247507,0.12663 -0.477747,0.15541 -0.604378,0.15541 -0.44321,0 -0.50077,-0.35687 -0.50077,-0.56408 l 0,-1.69802 -0.690717,0 0,1.57714 c 0,0.4835 0.04605,1.24905 1.007296,1.24905 0.379894,0 0.684961,-0.14966 0.903688,-0.24175 l 0.0921,0.18994"
         style=""
         id="path3103" />
      <path
         d="m 36.049602,968.34049 0.984273,1.41021 -0.938225,1.36417 0.759789,0 0.592866,-0.89793 0.604378,0.89793 0.817348,0 -1.024564,-1.36417 1.00154,-1.41021 -0.782812,0 -0.610134,0.95549 -0.638914,-0.95549 -0.765545,0"
         style=""
         id="path3105" />
      <path
         d="m 39.637286,967.37348 -0.0921,0.0461 0.241751,0.56984 0.109364,-0.0518 c 0.420186,-0.18419 0.650425,-0.21297 0.851884,-0.21297 0.466234,0 0.667694,0.18994 0.667694,0.4317 0,0.20145 -0.06332,0.55257 -0.932469,0.55257 l -0.132387,0 0,0.6274 0.132387,0 c 0.94398,0 1.14544,0.39716 1.14544,0.64467 0,0.35111 -0.31658,0.55257 -0.903689,0.55257 -0.339602,0 -0.523794,-0.0518 -0.926712,-0.17843 l -0.103608,-0.0403 -0.207215,0.58711 0.103608,0.046 c 0.379894,0.15542 0.759789,0.236 1.145439,0.236 1.099391,0 1.582894,-0.54106 1.582894,-1.19724 0,-0.49502 -0.339603,-0.82311 -0.788569,-0.97276 0.431698,-0.26478 0.581354,-0.58136 0.581354,-0.93247 0,-0.56409 -0.431699,-1.0073 -1.295095,-1.0073 -0.546817,0 -0.915201,0.16693 -1.179975,0.29931"
         style=""
         id="path3107" />
      <path
         d="m 43.517714,968.04693 c 0.333846,-0.1439 0.656182,-0.30506 1.0591,-0.30506 0.506525,0 0.696473,0.20145 0.696473,0.52379 0,0.50652 -0.627402,1.08212 -1.202999,1.6865 -0.299311,0.31082 -0.541062,0.51804 -0.754033,0.7195 l 0,0.44321 2.745601,0 0,-0.62165 -1.605918,0 c 0.754033,-0.7713 1.525334,-1.48504 1.525334,-2.27361 0,-0.65042 -0.443211,-1.15119 -1.404458,-1.15119 -0.541061,0 -0.990029,0.21872 -1.266315,0.36262 l 0.207215,0.61589"
         style=""
         id="path3109" />
      <path
         d="m 49.472813,968.39229 c 0,-0.11512 0.195703,-0.27053 0.684961,-0.27053 0.32809,0 0.52955,0.0518 0.713741,0.0978 l 0.103608,0.023 0.189947,-0.53531 -0.115119,-0.0345 c -0.247507,-0.0691 -0.391407,-0.1036 -0.707986,-0.10936 l 0,-0.69647 -0.696473,0 0,0.74827 c -0.702229,0.13815 -0.903688,0.54682 -0.903688,0.83462 0,0.95549 1.772841,0.82886 1.801621,1.19149 0,0.20721 -0.184192,0.31658 -0.754034,0.31658 -0.276286,0 -0.47199,-0.0403 -0.823104,-0.17844 l -0.11512,-0.0403 -0.207215,0.53531 0.103608,0.0403 c 0.333846,0.12663 0.633157,0.18994 0.897932,0.20146 l 0,0.78281 0.696473,0 0,-0.81159 c 0.759789,-0.12663 0.943981,-0.5756 0.943981,-0.89794 0,-0.90368 -1.813133,-0.84612 -1.813133,-1.19724"
         style=""
         id="path3111" />
      <path
         d="m 53.642568,967.75913 c 0.362626,0 0.684961,0.0921 1.007296,0.21873 l 0.224483,-0.64467 -0.06907,-0.0288 c -0.161167,-0.0518 -0.552574,-0.21297 -1.185731,-0.21297 -0.9152,0 -1.490799,0.47199 -1.490799,1.12242 0,1.40445 2.164248,1.03607 2.14698,1.79586 0,0.2878 -0.351115,0.49501 -0.869153,0.49501 -0.218726,0 -0.569842,-0.0633 -1.087879,-0.25326 l -0.109364,-0.0461 -0.241751,0.65043 0.103608,0.0345 c 0.38565,0.14965 0.771301,0.28204 1.277827,0.28204 1.231778,0 1.657721,-0.61014 1.657721,-1.16271 0,-1.37568 -2.146979,-1.08212 -2.146979,-1.76708 0,-0.2878 0.299311,-0.48351 0.782813,-0.48351"
         style=""
         id="path3113" />
      <path
         d="m 58.39071,967.12022 0,1.67499 -1.922497,0 0,-1.67499 -0.707985,0 0,3.99465 0.707985,0 0,-1.66924 1.922497,0 0,1.66924 0.707985,0 0,-3.99465 -0.707985,0"
         style=""
         id="path3115" />
      <path
         d="m 60.021,971.11487 2.601702,0 0,-0.65043 -1.893716,0 0,-1.04759 1.686501,0 0,-0.65042 -1.686501,0 0,-0.99578 1.893716,0 0,-0.65043 -2.601702,0 0,3.99465"
         style=""
         id="path3117" />
      <path
         d="m 63.404885,967.12022 0,3.99465 2.595946,0 0,-0.65043 -1.887961,0 0,-3.34422 -0.707985,0"
         style=""
         id="path3119" />
      <path
         d="m 66.608899,967.12022 0,3.99465 2.595946,0 0,-0.65043 -1.887961,0 0,-3.34422 -0.707985,0"
         style=""
         id="path3121" />
    </g>
    <g
       id="g5455"
       transform="translate(1.1422958,0.43163801)">
      <rect
         y="967.43054"
         x="78.857704"
         height="3"
         width="3"
         id="rect5451"
         style="fill:#333333;fill-opacity:1;stroke:none" />
      <rect
         style="fill:#e6e6e6;fill-opacity:1;stroke:none"
         id="rect5453"
         width="1.5"
         height="1.5"
         x="79.607704"
         y="968.1806" />
    </g>
    <g
       id="g5463"
       transform="translate(-54.839933,1.4956621)">
      <rect
         transform="matrix(0.70710678,-0.70710678,0.70710678,0.70710678,0,0)"
         y="731.14795"
         x="-636.62201"
         height="3"
         width="1"
         id="rect5459"
         style="fill:#333333;fill-opacity:1;stroke:none" />
      <rect
         transform="matrix(0.70710678,0.70710678,-0.70710678,0.70710678,0,0)"
         style="fill:#333333;fill-opacity:1;stroke:none"
         id="rect5461"
         width="1"
         height="3"
         x="732.14795"
         y="634.62201" />
    </g>
  </g>
</svg>
