<?xml version="1.0" encoding="UTF-8" standalone="no"?>
<!-- Created with Inkscape (http://www.inkscape.org/) -->

<svg
   xmlns:dc="http://purl.org/dc/elements/1.1/"
   xmlns:cc="http://creativecommons.org/ns#"
   xmlns:rdf="http://www.w3.org/1999/02/22-rdf-syntax-ns#"
   xmlns:svg="http://www.w3.org/2000/svg"
   xmlns="http://www.w3.org/2000/svg"
   xmlns:sodipodi="http://sodipodi.sourceforge.net/DTD/sodipodi-0.dtd"
   xmlns:inkscape="http://www.inkscape.org/namespaces/inkscape"
   width="96"
   height="96"
   id="svg16495"
   version="1.1"
   inkscape:version="0.48.4 r9939"
   sodipodi:docname="libreoffice-calc.svg">
  <defs
     id="defs16497" />
  <sodipodi:namedview
     id="base"
     pagecolor="#ffffff"
     bordercolor="#666666"
     borderopacity="1.0"
     inkscape:pageopacity="0.0"
     inkscape:pageshadow="2"
     inkscape:zoom="2.8"
     inkscape:cx="136.50607"
     inkscape:cy="25.846823"
     inkscape:document-units="px"
     inkscape:current-layer="layer1"
     showgrid="false"
     inkscape:window-width="1366"
     inkscape:window-height="715"
     inkscape:window-x="0"
     inkscape:window-y="28"
     inkscape:window-maximized="1" />
  <metadata
     id="metadata16500">
    <rdf:RDF>
      <cc:Work
         rdf:about="">
        <dc:format>image/svg+xml</dc:format>
        <dc:type
           rdf:resource="http://purl.org/dc/dcmitype/StillImage" />
        <dc:title></dc:title>
      </cc:Work>
    </rdf:RDF>
  </metadata>
  <g
     inkscape:label="Layer 1"
     inkscape:groupmode="layer"
     id="layer1"
     transform="translate(0,-956.36217)">
    <g
       id="g3033"
       transform="matrix(-1,0,0,1,96,-1.0000126)">
      <rect
         ry="10.595235"
         rx="10.595235"
         y="961.86218"
         x="3.5"
         height="89"
         width="89"
         id="rect3826"
         style="opacity:0.05;fill:#000000;fill-opacity:1;stroke:none" />
      <rect
         style="opacity:0.05;fill:#000000;fill-opacity:1;stroke:none"
         id="rect3824"
         width="88"
         height="88"
         x="4"
         y="962.36218"
         rx="10.476188"
         ry="10.476188" />
      <rect
         ry="10.357141"
         rx="10.357141"
         y="962.86218"
         x="4.5"
         height="87"
         width="87"
         id="rect3822"
         style="opacity:0.05;fill:#000000;fill-opacity:1;stroke:none" />
      <rect
         style="opacity:0.1;fill:#000000;fill-opacity:1;stroke:none"
         id="rect3820"
         width="86"
         height="86"
         x="5"
         y="963.36218"
         rx="10.238094"
         ry="10.238094" />
      <rect
         ry="10.119047"
         rx="10.119047"
         y="963.86218"
         x="5.5"
         height="85"
         width="85"
         id="rect3818"
         style="opacity:0.1;fill:#000000;fill-opacity:1;stroke:none" />
      <rect
         style="opacity:0.3;fill:#000000;fill-opacity:1;stroke:none"
         id="rect3131"
         width="84"
         height="84"
         x="6"
         y="964.36218"
         rx="10"
         ry="10" />
    </g>
    <rect
       ry="10"
       rx="10"
       y="962.36218"
       x="-90"
       height="84"
       width="84"
       id="rect3036"
       style="fill:#106b9a;fill-opacity:1;stroke:none"
       transform="scale(-1,1)" />
    <path
       inkscape:connector-curvature="0"
       id="path18983"
       style="font-size:48px;font-style:normal;font-variant:normal;font-weight:bold;font-stretch:normal;text-align:center;line-height:125%;letter-spacing:0px;word-spacing:0px;text-anchor:middle;fill:#ffffff;fill-opacity:1;stroke:none;font-family:Harlow Solid Italic;-inkscape-font-specification:Harlow Solid Italic"
       d="m 71.25,993.53405 -14.4375,24.82035 c -1.078168,1.8437 -2.382854,2.7656 -3.914063,2.7656 -1.171913,0 -2.078162,-0.3672 -2.71875,-1.1016 -0.640661,-0.7187 -0.960973,-1.75 -0.960937,-3.0937 l 0.609375,-16.8047 -8.53125,18.2344 c -0.859402,1.8437 -2.101589,2.7656 -3.726563,2.7656 -1.171898,0 -2.093772,-0.375 -2.765625,-1.125 -0.65627,-0.7344 -0.984395,-1.7578 -0.984375,-3.0703 l -0.492187,-16.1953 c -2e-5,-2.85939 -0.25002,-4.78127 -0.75,-5.76566 -0.484394,-0.99998 -1.437518,-1.49998 -2.859375,-1.5 -1.26564,2e-5 -2.523452,0.6719 -3.773438,2.01562 -1.250011,1.32815 -1.87501,2.6719 -1.875,4.03125 -10e-6,1.14069 0.351552,2.06249 1.054688,2.76559 0.703112,0.7032 1.624986,1.0547 2.765625,1.0547 0.32811,0 0.64061,-0.01 0.9375,-0.023 0.296859,-0.016 0.484359,-0.023 0.5625,-0.023 1.906232,0 2.859356,0.789 2.859375,2.3671 -1.9e-5,1.0469 -0.539081,1.9219 -1.617188,2.625 -1.078141,0.6876 -2.437515,1.0313 -4.078125,1.0313 -2.53126,0 -4.625008,-0.8672 -6.28125,-2.6016 -1.656255,-1.7343 -2.484379,-3.9296 -2.484375,-6.5859 -4e-6,-3.23437 1.312495,-6.12499 3.9375,-8.67189 2.640614,-2.56247 5.624986,-3.84372 8.953125,-3.84375 3.046855,3e-5 5.249978,0.89847 6.609375,2.69531 1.374975,1.78128 2.062474,4.64065 2.0625,8.57813 l 0.02344,1.8516 0.140625,8.1562 8.367187,-18.16405 c 0.937465,-2.0781 2.367151,-3.11716 4.289063,-3.11719 1.09371,3e-5 1.976522,0.32816 2.648437,0.98438 0.671833,0.64065 1.00777,1.50002 1.007813,2.57812 l -0.02344,0.25781 -0.421875,17.83593 10.546875,-18.16405 0.492188,-0.91406 c 0.859321,-1.49997 2.179632,-2.24997 3.960937,-2.25 l 4.570313,0 c 2.171811,3e-5 3.257747,0.76565 3.257812,2.29687 -6.5e-5,1.03128 -0.382877,1.84378 -1.148437,2.4375 -0.765688,0.57815 -1.828187,0.86721 -3.1875,0.86719 l -2.625,0" />
  </g>
</svg>
