<?xml version="1.0" encoding="UTF-8" standalone="no"?>
<!-- Created with Inkscape (http://www.inkscape.org/) -->

<svg
   xmlns:dc="http://purl.org/dc/elements/1.1/"
   xmlns:cc="http://creativecommons.org/ns#"
   xmlns:rdf="http://www.w3.org/1999/02/22-rdf-syntax-ns#"
   xmlns:svg="http://www.w3.org/2000/svg"
   xmlns="http://www.w3.org/2000/svg"
   xmlns:sodipodi="http://sodipodi.sourceforge.net/DTD/sodipodi-0.dtd"
   xmlns:inkscape="http://www.inkscape.org/namespaces/inkscape"
   width="96"
   height="96"
   id="svg16495"
   version="1.1"
   inkscape:version="0.48.4 r9939"
   sodipodi:docname="libreoffice-calc.svg">
  <defs
     id="defs16497" />
  <sodipodi:namedview
     id="base"
     pagecolor="#ffffff"
     bordercolor="#666666"
     borderopacity="1.0"
     inkscape:pageopacity="0.0"
     inkscape:pageshadow="2"
     inkscape:zoom="0.49497475"
     inkscape:cx="208.71319"
     inkscape:cy="-118.45897"
     inkscape:document-units="px"
     inkscape:current-layer="layer1"
     showgrid="false"
     inkscape:window-width="683"
     inkscape:window-height="709"
     inkscape:window-x="0"
     inkscape:window-y="28"
     inkscape:window-maximized="0" />
  <metadata
     id="metadata16500">
    <rdf:RDF>
      <cc:Work
         rdf:about="">
        <dc:format>image/svg+xml</dc:format>
        <dc:type
           rdf:resource="http://purl.org/dc/dcmitype/StillImage" />
        <dc:title />
      </cc:Work>
    </rdf:RDF>
  </metadata>
  <g
     inkscape:label="Layer 1"
     inkscape:groupmode="layer"
     id="layer1"
     transform="translate(0,-956.36217)">
    <g
       id="g3033"
       transform="matrix(-1,0,0,1,96,-1.0000126)">
      <rect
         ry="10.595235"
         rx="10.595235"
         y="961.86218"
         x="3.5"
         height="89"
         width="89"
         id="rect3826"
         style="opacity:0.05;fill:#000000;fill-opacity:1;stroke:none" />
      <rect
         style="opacity:0.05;fill:#000000;fill-opacity:1;stroke:none"
         id="rect3824"
         width="88"
         height="88"
         x="4"
         y="962.36218"
         rx="10.476188"
         ry="10.476188" />
      <rect
         ry="10.357141"
         rx="10.357141"
         y="962.86218"
         x="4.5"
         height="87"
         width="87"
         id="rect3822"
         style="opacity:0.05;fill:#000000;fill-opacity:1;stroke:none" />
      <rect
         style="opacity:0.1;fill:#000000;fill-opacity:1;stroke:none"
         id="rect3820"
         width="86"
         height="86"
         x="5"
         y="963.36218"
         rx="10.238094"
         ry="10.238094" />
      <rect
         ry="10.119047"
         rx="10.119047"
         y="963.86218"
         x="5.5"
         height="85"
         width="85"
         id="rect3818"
         style="opacity:0.1;fill:#000000;fill-opacity:1;stroke:none" />
      <rect
         style="opacity:0.3;fill:#000000;fill-opacity:1;stroke:none"
         id="rect3131"
         width="84"
         height="84"
         x="6"
         y="964.36218"
         rx="10"
         ry="10" />
    </g>
    <rect
       ry="10"
       rx="10"
       y="962.36218"
       x="-90"
       height="84"
       width="84"
       id="rect3036"
       style="fill:#1f7246;fill-opacity:1;stroke:none"
       transform="scale(-1,1)" />
    <g
       transform="translate(0,-1.2617188e-5)"
       style="font-size:4px;font-style:normal;font-variant:normal;font-weight:normal;font-stretch:normal;line-height:125%;letter-spacing:0px;word-spacing:0px;fill:#ffffff;fill-opacity:1;stroke:none;font-family:Cantarell;-inkscape-font-specification:Cantarell"
       id="text51541">
      <path
         inkscape:connector-curvature="0"
         d="m 52.148437,1004.4091 2.953125,14.8125 c 0.124968,0.5937 0.359343,0.9921 0.703125,1.1953 0.343717,0.2031 0.953092,0.3047 1.828125,0.3047 l 8.90625,0 c 2.17183,0 3.257766,0.7343 3.257813,2.2031 -4.7e-5,1.0781 -0.382859,1.914 -1.148438,2.5078 -0.750045,0.5937 -1.812544,0.8906 -3.1875,0.8906 l -8.882812,0 -1.265625,0 c -1.890656,0 -3.250029,-0.3594 -4.078125,-1.0781 -0.828153,-0.7031 -1.429714,-2.0156 -1.804688,-3.9375 l -2.085937,-10.9453 -6.867188,8.3437 -0.515625,0.6328 c -1.031266,1.2344 -2.140639,1.8516 -3.328125,1.8516 -0.781263,0 -1.429699,-0.2578 -1.945312,-0.7734 -0.515636,-0.5 -0.773449,-1.1407 -0.773438,-1.9219 -1.1e-5,-0.8281 0.546864,-1.9219 1.640625,-3.2813 l 10.171875,-12.4921 -0.914062,-4.94535 c -0.484397,-2.64061 -1.640645,-3.96092 -3.46875,-3.96094 -1.453142,2e-5 -2.789078,0.6719 -4.007813,2.01562 -1.203138,1.32815 -1.8047,2.78909 -1.804687,4.38277 -1.3e-5,1.7501 0.867174,2.7813 2.601562,3.0938 1.874983,0.3281 2.812482,1.1953 2.8125,2.6016 -1.8e-5,0.9687 -0.398455,1.7812 -1.195312,2.4375 -0.781266,0.6406 -1.76564,0.9609 -2.953125,0.9609 -2.140637,0 -3.93751,-0.8047 -5.390625,-2.4141 -1.453132,-1.625 -2.179694,-3.625 -2.179688,-6 -6e-6,-3.46869 1.296868,-6.50775 3.890625,-9.11715 2.609363,-2.62497 5.632797,-3.93747 9.070313,-3.9375 2.046854,3e-5 3.781227,0.6094 5.203125,1.82812 1.437474,1.21878 2.382786,2.89846 2.835937,5.03906 l 0.492188,2.34375 5.203125,-6.53906 c 0.406216,-0.49997 0.703091,-0.87497 0.890625,-1.125 0.437466,-0.60934 0.851528,-0.99997 1.242187,-1.17187 0.406215,-0.18747 1.039027,-0.28122 1.898438,-0.28125 l 4.945312,0 c 2.156206,3e-5 3.23433,0.74221 3.234375,2.22656 -4.5e-5,1.07815 -0.375044,1.91409 -1.125,2.50781 -0.750043,0.57815 -1.812542,0.86721 -3.1875,0.86719 l -3.117187,0 -8.554688,10.87504"
         style="font-size:48px;text-align:center;text-anchor:middle;fill:#ffffff;font-family:Harlow Solid Italic;-inkscape-font-specification:Harlow Solid Italic"
         id="path55540" />
    </g>
  </g>
</svg>
