<?xml version="1.0" encoding="UTF-8" standalone="no"?>
<!-- Created with Inkscape (http://www.inkscape.org/) -->

<svg
   xmlns:dc="http://purl.org/dc/elements/1.1/"
   xmlns:cc="http://creativecommons.org/ns#"
   xmlns:rdf="http://www.w3.org/1999/02/22-rdf-syntax-ns#"
   xmlns:svg="http://www.w3.org/2000/svg"
   xmlns="http://www.w3.org/2000/svg"
   xmlns:sodipodi="http://sodipodi.sourceforge.net/DTD/sodipodi-0.dtd"
   xmlns:inkscape="http://www.inkscape.org/namespaces/inkscape"
   width="96"
   height="96"
   id="svg16495"
   version="1.1"
   inkscape:version="0.48.4 r9939"
   sodipodi:docname="libreoffice-impress.svg">
  <defs
     id="defs16497" />
  <sodipodi:namedview
     id="base"
     pagecolor="#ffffff"
     bordercolor="#666666"
     borderopacity="1.0"
     inkscape:pageopacity="0.0"
     inkscape:pageshadow="2"
     inkscape:zoom="2.8"
     inkscape:cx="136.50607"
     inkscape:cy="25.846823"
     inkscape:document-units="px"
     inkscape:current-layer="layer1"
     showgrid="false"
     inkscape:window-width="1366"
     inkscape:window-height="715"
     inkscape:window-x="0"
     inkscape:window-y="28"
     inkscape:window-maximized="1" />
  <metadata
     id="metadata16500">
    <rdf:RDF>
      <cc:Work
         rdf:about="">
        <dc:format>image/svg+xml</dc:format>
        <dc:type
           rdf:resource="http://purl.org/dc/dcmitype/StillImage" />
        <dc:title></dc:title>
      </cc:Work>
    </rdf:RDF>
  </metadata>
  <g
     inkscape:label="Layer 1"
     inkscape:groupmode="layer"
     id="layer1"
     transform="translate(0,-956.36217)">
    <g
       id="g3033"
       transform="matrix(-1,0,0,1,96,-1.0000126)">
      <rect
         ry="10.595235"
         rx="10.595235"
         y="961.86218"
         x="3.5"
         height="89"
         width="89"
         id="rect3826"
         style="opacity:0.05;fill:#000000;fill-opacity:1;stroke:none" />
      <rect
         style="opacity:0.05;fill:#000000;fill-opacity:1;stroke:none"
         id="rect3824"
         width="88"
         height="88"
         x="4"
         y="962.36218"
         rx="10.476188"
         ry="10.476188" />
      <rect
         ry="10.357141"
         rx="10.357141"
         y="962.86218"
         x="4.5"
         height="87"
         width="87"
         id="rect3822"
         style="opacity:0.05;fill:#000000;fill-opacity:1;stroke:none" />
      <rect
         style="opacity:0.1;fill:#000000;fill-opacity:1;stroke:none"
         id="rect3820"
         width="86"
         height="86"
         x="5"
         y="963.36218"
         rx="10.238094"
         ry="10.238094" />
      <rect
         ry="10.119047"
         rx="10.119047"
         y="963.86218"
         x="5.5"
         height="85"
         width="85"
         id="rect3818"
         style="opacity:0.1;fill:#000000;fill-opacity:1;stroke:none" />
      <rect
         style="opacity:0.3;fill:#000000;fill-opacity:1;stroke:none"
         id="rect3131"
         width="84"
         height="84"
         x="6"
         y="964.36218"
         rx="10"
         ry="10" />
    </g>
    <rect
       ry="10"
       rx="10"
       y="962.36218"
       x="-90"
       height="84"
       width="84"
       id="rect3036"
       style="fill:#ffcc00;fill-opacity:1;stroke:none"
       transform="scale(-1,1)" />
    <path
       inkscape:connector-curvature="0"
       id="path14987"
       style="font-size:48px;font-style:normal;font-variant:normal;font-weight:bold;font-stretch:normal;text-align:center;line-height:125%;letter-spacing:0px;word-spacing:0px;text-anchor:middle;fill:#ffffff;fill-opacity:1;stroke:none;font-family:Harlow Solid Italic;-inkscape-font-specification:Harlow Solid Italic"
       d="m 45.140625,991.33874 -2.320313,0 -0.632812,0 c -1.734396,2e-5 -2.601583,-0.74998 -2.601563,-2.25 -2e-5,-0.9531 0.351542,-1.74997 1.054688,-2.39063 0.718728,-0.64059 1.593727,-0.96091 2.625,-0.96094 l 0.632812,0 6.867188,0 c 4.593714,3e-5 8.117148,1.09378 10.570312,3.28125 2.453081,2.18753 3.679642,5.33596 3.679688,9.44532 -4.6e-5,6.26566 -2.085981,12.00786 -6.257813,17.22656 -2.359411,2.9375 -5.031284,5.0781 -8.015625,6.4219 -2.968778,1.3437 -6.531274,2.0156 -10.6875,2.0156 l -1.640625,0 -0.28125,0.6563 c -1.093767,2.4374 -1.953141,4.1484 -2.578125,5.1328 -0.625015,0.9843 -1.437514,1.9375 -2.4375,2.8593 -2.609386,2.3907 -5.60157,3.586 -8.976562,3.586 -2.781252,0 -5.0625,-0.8282 -6.84375,-2.4844 -1.796871,-1.6406 -2.695308,-3.7344 -2.695312,-6.2812 4e-6,-1.5626 0.382816,-3.0313 1.148437,-4.4063 0.765628,-1.3594 1.804689,-2.4219 3.117187,-3.1875 1.703124,-0.9844 4.00781,-1.4766 6.914063,-1.4766 l 8.320312,0 11.039063,-27.18746 m -4.453125,27.18746 0.9375,0 c 4.843723,0 8.898406,-2.1484 12.164062,-6.4453 1.57809,-2.0625 2.820276,-4.2968 3.726563,-6.7031 0.921836,-2.4062 1.382773,-4.6328 1.382812,-6.67969 -3.9e-5,-2.28123 -0.640663,-4.0781 -1.921875,-5.39062 -1.281286,-1.31248 -3.023472,-1.96873 -5.226562,-1.96875 l -11.0625,27.18746 m -8.859375,5.6016 -6.210938,0 c -3.062503,0 -4.593751,1.0859 -4.59375,3.2578 -1e-6,0.8906 0.335936,1.6406 1.007813,2.25 0.671872,0.6094 1.492183,0.9141 2.460937,0.9141 1.437494,0 2.80468,-0.5703 4.101563,-1.711 1.296865,-1.125 2.374988,-2.6953 3.234375,-4.7109" />
  </g>
</svg>
