<?xml version="1.0" encoding="UTF-8" standalone="no"?>
<!-- Created with Inkscape (http://www.inkscape.org/) -->

<svg
   xmlns:dc="http://purl.org/dc/elements/1.1/"
   xmlns:cc="http://creativecommons.org/ns#"
   xmlns:rdf="http://www.w3.org/1999/02/22-rdf-syntax-ns#"
   xmlns:svg="http://www.w3.org/2000/svg"
   xmlns="http://www.w3.org/2000/svg"
   xmlns:xlink="http://www.w3.org/1999/xlink"
   xmlns:sodipodi="http://sodipodi.sourceforge.net/DTD/sodipodi-0.dtd"
   xmlns:inkscape="http://www.inkscape.org/namespaces/inkscape"
   width="96"
   height="96"
   id="svg16495"
   version="1.1"
   inkscape:version="0.48.4 r9939"
   sodipodi:docname="libreoffice.svg">
  <defs
     id="defs16497">
    <radialGradient
       inkscape:collect="always"
       xlink:href="#linearGradient1147-8-0"
       id="radialGradient11016"
       gradientUnits="userSpaceOnUse"
       gradientTransform="matrix(13.286575,0,0,13.286566,-8379.7115,13175.693)"
       cx="781.42499"
       cy="-840.3576"
       fx="781.42499"
       fy="-840.3576"
       r="16.233601" />
    <linearGradient
       id="linearGradient1147-8-0"
       inkscape:collect="always">
      <stop
         id="stop1149-2-1"
         offset="0"
         style="stop-color:#ffffff;stop-opacity:1;" />
      <stop
         id="stop1151-8-4"
         offset="1"
         style="stop-color:#ffffff;stop-opacity:0;" />
    </linearGradient>
    <radialGradient
       inkscape:collect="always"
       xlink:href="#linearGradient1147-8-0"
       id="radialGradient19192"
       gradientUnits="userSpaceOnUse"
       gradientTransform="matrix(13.286575,0,0,13.286566,-8379.7115,13175.693)"
       cx="781.42499"
       cy="-840.3576"
       fx="781.42499"
       fy="-840.3576"
       r="16.233601" />
  </defs>
  <sodipodi:namedview
     id="base"
     pagecolor="#ffffff"
     bordercolor="#666666"
     borderopacity="1.0"
     inkscape:pageopacity="0.0"
     inkscape:pageshadow="2"
     inkscape:zoom="0.7"
     inkscape:cx="22.20573"
     inkscape:cy="128.11905"
     inkscape:document-units="px"
     inkscape:current-layer="layer1"
     showgrid="false"
     inkscape:window-width="648"
     inkscape:window-height="430"
     inkscape:window-x="206"
     inkscape:window-y="106"
     inkscape:window-maximized="0" />
  <metadata
     id="metadata16500">
    <rdf:RDF>
      <cc:Work
         rdf:about="">
        <dc:format>image/svg+xml</dc:format>
        <dc:type
           rdf:resource="http://purl.org/dc/dcmitype/StillImage" />
        <dc:title />
      </cc:Work>
    </rdf:RDF>
  </metadata>
  <g
     inkscape:label="Layer 1"
     inkscape:groupmode="layer"
     id="layer1"
     transform="translate(0,-956.36217)">
    <g
       id="g3033"
       transform="matrix(-1,0,0,1,96,-1.0000126)">
      <rect
         ry="10.595235"
         rx="10.595235"
         y="961.86218"
         x="3.5"
         height="89"
         width="89"
         id="rect3826"
         style="opacity:0.05;fill:#000000;fill-opacity:1;stroke:none" />
      <rect
         style="opacity:0.05;fill:#000000;fill-opacity:1;stroke:none"
         id="rect3824"
         width="88"
         height="88"
         x="4"
         y="962.36218"
         rx="10.476188"
         ry="10.476188" />
      <rect
         ry="10.357141"
         rx="10.357141"
         y="962.86218"
         x="4.5"
         height="87"
         width="87"
         id="rect3822"
         style="opacity:0.05;fill:#000000;fill-opacity:1;stroke:none" />
      <rect
         style="opacity:0.1;fill:#000000;fill-opacity:1;stroke:none"
         id="rect3820"
         width="86"
         height="86"
         x="5"
         y="963.36218"
         rx="10.238094"
         ry="10.238094" />
      <rect
         ry="10.119047"
         rx="10.119047"
         y="963.86218"
         x="5.5"
         height="85"
         width="85"
         id="rect3818"
         style="opacity:0.1;fill:#000000;fill-opacity:1;stroke:none" />
      <rect
         style="opacity:0.3;fill:#000000;fill-opacity:1;stroke:none"
         id="rect3131"
         width="84"
         height="84"
         x="6"
         y="964.36218"
         rx="10"
         ry="10" />
    </g>
    <rect
       ry="10"
       rx="10"
       y="962.36218"
       x="-90"
       height="84"
       width="84"
       id="rect3036"
       style="fill:#216778;fill-opacity:1;stroke:none"
       transform="scale(-1,1)" />
    <g
       id="text3205"
       style="font-size:0.57657659px;font-style:normal;font-variant:normal;font-weight:normal;font-stretch:normal;text-align:start;line-height:125%;letter-spacing:0px;word-spacing:0px;text-anchor:start;fill:#ffffff;fill-opacity:1;stroke:none;font-family:Cantarell;-inkscape-font-specification:Cantarell"
       transform="matrix(0.63329375,0,0,0.63329375,42.005566,985.08174)">
      <path
         id="path3076"
         style="font-size:83.02702332px;fill:#ffffff;font-family:Harlow Solid Italic;-inkscape-font-specification:Harlow Solid Italic"
         d="m -9.87235,25.13387 -2.027027,0 c -3.756763,2.8e-5 -5.63514,-1.283755 -5.635135,-3.851351 -5e-6,-1.837805 0.648643,-3.270236 1.945946,-4.297297 1.324316,-1.026991 3.175666,-1.540504 5.554054,-1.540541 l 5.675675,0 1.135136,-1.54054 C 5.181676,2.4177051 13.627613,-3.3255319 22.114135,-3.3255879 c 4.216168,5.6e-5 7.66211,1.216271 10.337838,3.64864801 2.675618,2.43248299 4.013454,5.56761399 4.013513,9.40540499 -5.9e-5,5.4054429 -2.540597,9.5676009 -7.621621,12.4864859 -3.378426,1.945975 -8.445989,2.918947 -15.202702,2.918919 l -12.162162,0 c -4.00002,7.567587 -6.000018,14.000013 -6,19.297296 -1.8e-5,2.972979 0.783765,5.351354 2.351352,7.135135 1.56754504,1.783783 3.648624,2.675674 6.243243,2.675676 3.594564,-2e-6 7.162128,-2.108108 10.702702,-6.324324 3.540499,-4.216207 6.162118,-9.499986 7.864864,-15.851351 l 0.648649,-2.432432 c 0.891845,-3.324298 2.675627,-4.986458 5.351351,-4.986487 1.43238,2.9e-5 2.594541,0.527055 3.486486,1.581081 0.918864,1.05408 1.378323,2.418943 1.378379,4.094595 -5.6e-5,5.297314 -2.270324,11.554064 -6.810811,18.770269 -6.324367,10.081075 -13.94598,15.12161 -22.864864,15.121621 -5.540561,-1.1e-5 -10.081097,-1.864874 -13.621621,-5.594594 -3.513522,-3.702705 -5.270277,-8.47297 -5.27027,-14.31081 -7e-6,-5.5135 1.729721,-11.905385 5.189189,-19.175675 m 17.675675,-9.689189 7.905405,0 c 6.702658,3.7e-5 10.054006,-1.824285 10.054054,-5.4729729 -4.8e-5,-1.081037 -0.445994,-1.972928 -1.337838,-2.675675 -0.864911,-0.729684 -1.973018,-1.094548 -3.324324,-1.094595 -2.081123,4.7e-5 -4.31085,0.82437 -6.689189,2.472973 C 12.03302,10.323102 9.83032,12.579857 7.803325,15.444681"
         inkscape:connector-curvature="0" />
    </g>
  </g>
</svg>
