<?xml version="1.0" encoding="UTF-8" standalone="no"?>
<!-- Created with Inkscape (http://www.inkscape.org/) -->

<svg
   xmlns:dc="http://purl.org/dc/elements/1.1/"
   xmlns:cc="http://creativecommons.org/ns#"
   xmlns:rdf="http://www.w3.org/1999/02/22-rdf-syntax-ns#"
   xmlns:svg="http://www.w3.org/2000/svg"
   xmlns="http://www.w3.org/2000/svg"
   xmlns:sodipodi="http://sodipodi.sourceforge.net/DTD/sodipodi-0.dtd"
   xmlns:inkscape="http://www.inkscape.org/namespaces/inkscape"
   width="96"
   height="96"
   id="svg16495"
   version="1.1"
   inkscape:version="0.48.4 r9939"
   sodipodi:docname="libreoffice-writer.svg">
  <defs
     id="defs16497" />
  <sodipodi:namedview
     id="base"
     pagecolor="#ffffff"
     bordercolor="#666666"
     borderopacity="1.0"
     inkscape:pageopacity="0.0"
     inkscape:pageshadow="2"
     inkscape:zoom="2.8"
     inkscape:cx="136.50607"
     inkscape:cy="25.846823"
     inkscape:document-units="px"
     inkscape:current-layer="layer1"
     showgrid="false"
     inkscape:window-width="1366"
     inkscape:window-height="715"
     inkscape:window-x="0"
     inkscape:window-y="28"
     inkscape:window-maximized="1" />
  <metadata
     id="metadata16500">
    <rdf:RDF>
      <cc:Work
         rdf:about="">
        <dc:format>image/svg+xml</dc:format>
        <dc:type
           rdf:resource="http://purl.org/dc/dcmitype/StillImage" />
        <dc:title></dc:title>
      </cc:Work>
    </rdf:RDF>
  </metadata>
  <g
     inkscape:label="Layer 1"
     inkscape:groupmode="layer"
     id="layer1"
     transform="translate(0,-956.36217)">
    <g
       id="g3033"
       transform="matrix(-1,0,0,1,96,-1.0000126)">
      <rect
         ry="10.595235"
         rx="10.595235"
         y="961.86218"
         x="3.5"
         height="89"
         width="89"
         id="rect3826"
         style="opacity:0.05;fill:#000000;fill-opacity:1;stroke:none" />
      <rect
         style="opacity:0.05;fill:#000000;fill-opacity:1;stroke:none"
         id="rect3824"
         width="88"
         height="88"
         x="4"
         y="962.36218"
         rx="10.476188"
         ry="10.476188" />
      <rect
         ry="10.357141"
         rx="10.357141"
         y="962.86218"
         x="4.5"
         height="87"
         width="87"
         id="rect3822"
         style="opacity:0.05;fill:#000000;fill-opacity:1;stroke:none" />
      <rect
         style="opacity:0.1;fill:#000000;fill-opacity:1;stroke:none"
         id="rect3820"
         width="86"
         height="86"
         x="5"
         y="963.36218"
         rx="10.238094"
         ry="10.238094" />
      <rect
         ry="10.119047"
         rx="10.119047"
         y="963.86218"
         x="5.5"
         height="85"
         width="85"
         id="rect3818"
         style="opacity:0.1;fill:#000000;fill-opacity:1;stroke:none" />
      <rect
         style="opacity:0.3;fill:#000000;fill-opacity:1;stroke:none"
         id="rect3131"
         width="84"
         height="84"
         x="6"
         y="964.36218"
         rx="10"
         ry="10" />
    </g>
    <rect
       ry="10"
       rx="10"
       y="962.36218"
       x="-90"
       height="84"
       width="84"
       id="rect3036"
       style="fill:#d64529;fill-opacity:1;stroke:none"
       transform="scale(-1,1)" />
    <path
       inkscape:connector-curvature="0"
       id="path6978"
       style="font-size:48px;font-style:normal;font-variant:normal;font-weight:bold;font-stretch:normal;text-align:center;line-height:125%;letter-spacing:0px;word-spacing:0px;text-anchor:middle;fill:#ffffff;fill-opacity:1;stroke:none;font-family:Harlow Solid Italic;-inkscape-font-specification:Harlow Solid Italic"
       d="m 52.992187,1003.9169 -3.890625,9.6093 c -1.937525,4.75 -3.437523,8.0235 -4.5,9.8204 -1.046896,1.7968 -2.37502,3.3281 -3.984375,4.5937 -2.343766,1.8437 -5.062513,2.7656 -8.15625,2.7656 -3.265632,0 -5.914067,-1.0312 -7.945312,-3.0937 -2.031251,-2.0625 -3.046875,-4.7422 -3.046875,-8.0391 0,-4.4062 1.609374,-8.2578 4.828125,-11.5547 1.734369,-1.7812 3.906242,-3.2109 6.515625,-4.289 2.609361,-1.0938 5.195296,-1.6406 7.757812,-1.6407 1.234355,10e-5 2.226542,0.2813 2.976563,0.8438 0.749977,0.5469 1.124977,1.2734 1.125,2.1797 -2.3e-5,0.9531 -0.406272,1.7187 -1.21875,2.2969 -0.468771,0.3437 -1.367208,0.5781 -2.695313,0.7031 -3.093765,0.2812 -5.601575,0.9922 -7.523437,2.1328 -1.59376,0.9531 -2.851571,2.2031 -3.773438,3.75 -0.921881,1.5312 -1.382818,3.1484 -1.382812,4.8516 -6e-6,1.7343 0.445306,3.1093 1.335937,4.125 0.906242,1.0312 2.117178,1.5468 3.632813,1.5468 1.906237,0 3.554673,-0.8047 4.945312,-2.414 1.390608,-1.6094 2.921856,-4.4688 4.59375,-8.5782 l 8.132813,-19.99215 -2.554688,0 c -2.156274,2e-5 -3.234398,-0.74998 -3.234375,-2.25 -2.3e-5,-1.06247 0.374977,-1.88278 1.125,-2.46094 0.7656,-0.59372 1.835912,-0.89059 3.210938,-0.89062 l 8.929687,0 c 2.999961,3e-5 5.210896,0.57034 6.632813,1.71093 1.437456,1.12503 2.156205,2.86722 2.15625,5.22657 -4.5e-5,2.87502 -1.109419,5.22661 -3.328125,7.05471 -1.609415,1.3281 -4.093788,1.9922 -7.453125,1.9922 l -3.210938,0 m 2.273438,-5.6016 1.898437,0 c 2.499963,2e-5 3.749961,-1.0156 3.75,-3.04688 -3.9e-5,-1.15622 -0.710975,-1.73435 -2.132812,-1.73437 l -1.570313,0 -1.945312,4.78125" />
  </g>
</svg>
