<?xml version="1.0" encoding="UTF-8" standalone="no"?>
<!-- Created with Inkscape (http://www.inkscape.org/) -->

<svg
   xmlns:dc="http://purl.org/dc/elements/1.1/"
   xmlns:cc="http://creativecommons.org/ns#"
   xmlns:rdf="http://www.w3.org/1999/02/22-rdf-syntax-ns#"
   xmlns:svg="http://www.w3.org/2000/svg"
   xmlns="http://www.w3.org/2000/svg"
   xmlns:xlink="http://www.w3.org/1999/xlink"
   xmlns:sodipodi="http://sodipodi.sourceforge.net/DTD/sodipodi-0.dtd"
   xmlns:inkscape="http://www.inkscape.org/namespaces/inkscape"
   width="96"
   height="96"
   id="svg2"
   version="1.1"
   inkscape:version="0.48.4 r9939"
   sodipodi:docname="liferea.svg">
  <defs
     id="defs4">
    <linearGradient
       inkscape:collect="always"
       id="linearGradient3144">
      <stop
         style="stop-color:#ed4b18;stop-opacity:1"
         offset="0"
         id="stop3146" />
      <stop
         style="stop-color:#ed9c00;stop-opacity:1"
         offset="1"
         id="stop3148" />
    </linearGradient>
    <linearGradient
       inkscape:collect="always"
       id="linearGradient3126">
      <stop
         style="stop-color:#dce0ea;stop-opacity:1"
         offset="0"
         id="stop3128" />
      <stop
         style="stop-color:#ffffff;stop-opacity:1"
         offset="1"
         id="stop3130" />
    </linearGradient>
    <linearGradient
       id="linearGradient3533"
       inkscape:collect="always">
      <stop
         id="stop3535"
         offset="0"
         style="stop-color:#38497d;stop-opacity:1" />
      <stop
         id="stop3537"
         offset="1"
         style="stop-color:#496cb9;stop-opacity:1" />
    </linearGradient>
    <inkscape:perspective
       sodipodi:type="inkscape:persp3d"
       inkscape:vp_x="0 : 48 : 1"
       inkscape:vp_y="0 : 1000 : 0"
       inkscape:vp_z="96 : 48 : 1"
       inkscape:persp3d-origin="48 : 32 : 1"
       id="perspective3054" />
    <linearGradient
       id="linearGradient4357"
       inkscape:collect="always">
      <stop
         id="stop4359"
         offset="0"
         style="stop-color:#ded3d6;stop-opacity:1" />
      <stop
         id="stop4361"
         offset="1"
         style="stop-color:#f7ebef;stop-opacity:1" />
    </linearGradient>
    <linearGradient
       inkscape:collect="always"
       id="linearGradient3558">
      <stop
         style="stop-color:#ded3d6;stop-opacity:1"
         offset="0"
         id="stop3560" />
      <stop
         style="stop-color:#efebef;stop-opacity:1"
         offset="1"
         id="stop3562" />
    </linearGradient>
    <linearGradient
       id="linearGradient3076"
       inkscape:collect="always">
      <stop
         id="stop3078"
         offset="0"
         style="stop-color:#ffe7f7;stop-opacity:1" />
      <stop
         id="stop3080"
         offset="1"
         style="stop-color:#ffc3ef;stop-opacity:1" />
    </linearGradient>
    <linearGradient
       id="linearGradient3070"
       inkscape:collect="always">
      <stop
         id="stop3072"
         offset="0"
         style="stop-color:#943410;stop-opacity:1" />
      <stop
         id="stop3074"
         offset="1"
         style="stop-color:#dc7952;stop-opacity:1" />
    </linearGradient>
    <linearGradient
       inkscape:collect="always"
       id="linearGradient3059">
      <stop
         style="stop-color:#a53810;stop-opacity:1"
         offset="0"
         id="stop3061" />
      <stop
         style="stop-color:#e75911;stop-opacity:1"
         offset="1"
         id="stop3064" />
    </linearGradient>
    <linearGradient
       inkscape:collect="always"
       id="linearGradient3048">
      <stop
         style="stop-color:#c16d16;stop-opacity:1"
         offset="0"
         id="stop3050" />
      <stop
         style="stop-color:#ff8e31;stop-opacity:1"
         offset="1"
         id="stop3052" />
    </linearGradient>
    <linearGradient
       inkscape:collect="always"
       id="linearGradient3119">
      <stop
         style="stop-color:#92948f;stop-opacity:0"
         offset="0"
         id="stop3121" />
      <stop
         id="stop3123"
         offset="0.4283945"
         style="stop-color:#9b9e98;stop-opacity:1" />
      <stop
         style="stop-color:#939690;stop-opacity:0"
         offset="1"
         id="stop3125" />
    </linearGradient>
    <linearGradient
       id="linearGradient3073"
       inkscape:collect="always">
      <stop
         id="stop3075"
         offset="0"
         style="stop-color:#ffffff;stop-opacity:0" />
      <stop
         style="stop-color:#ffffff;stop-opacity:1"
         offset="0.45872402"
         id="stop3085" />
      <stop
         id="stop3083"
         offset="1"
         style="stop-color:#ffffff;stop-opacity:0" />
    </linearGradient>
    <linearGradient
       inkscape:collect="always"
       id="linearGradient3047">
      <stop
         style="stop-color:#000000;stop-opacity:1"
         offset="0"
         id="stop3049" />
      <stop
         id="stop3055"
         offset="0.06123874"
         style="stop-color:#1a1a1a;stop-opacity:1" />
      <stop
         style="stop-color:#333333;stop-opacity:1"
         offset="0.16480456"
         id="stop3057" />
      <stop
         id="stop3059"
         offset="0.55385184"
         style="stop-color:#4d4d4d;stop-opacity:1" />
      <stop
         style="stop-color:#999999;stop-opacity:1"
         offset="1"
         id="stop3051" />
    </linearGradient>
    <linearGradient
       id="linearGradient3041"
       inkscape:collect="always">
      <stop
         id="stop3043"
         offset="0"
         style="stop-color:#1a1a1a;stop-opacity:1" />
      <stop
         id="stop3045"
         offset="1"
         style="stop-color:#808080;stop-opacity:1" />
    </linearGradient>
    <linearGradient
       inkscape:collect="always"
       id="linearGradient3029">
      <stop
         style="stop-color:#333333;stop-opacity:1"
         offset="0"
         id="stop3031" />
      <stop
         style="stop-color:#e0e0dd;stop-opacity:0;"
         offset="1"
         id="stop3033" />
    </linearGradient>
    <linearGradient
       inkscape:collect="always"
       xlink:href="#linearGradient3029"
       id="linearGradient3035"
       x1="35.355339"
       y1="1030.3622"
       x2="35.355339"
       y2="975.33282"
       gradientUnits="userSpaceOnUse"
       gradientTransform="matrix(1.1638085,0,0,1.1638085,-7.862809,-164.23642)" />
    <linearGradient
       inkscape:collect="always"
       xlink:href="#linearGradient3041"
       id="linearGradient3039"
       gradientUnits="userSpaceOnUse"
       x1="35.355339"
       y1="1030.3622"
       x2="35.355339"
       y2="975.33282"
       gradientTransform="matrix(1.1218695,0,0,1.1218695,-5.8497348,-122.18782)" />
    <linearGradient
       inkscape:collect="always"
       xlink:href="#linearGradient3047"
       id="linearGradient3053"
       x1="40"
       y1="1043.4336"
       x2="39.285713"
       y2="972.33325"
       gradientUnits="userSpaceOnUse" />
    <linearGradient
       inkscape:collect="always"
       xlink:href="#linearGradient3073"
       id="linearGradient3113"
       gradientUnits="userSpaceOnUse"
       gradientTransform="translate(0,-956.36218)"
       x1="14.869445"
       y1="978.90387"
       x2="24.52651"
       y2="969.24683" />
    <linearGradient
       inkscape:collect="always"
       xlink:href="#linearGradient3073"
       id="linearGradient3115"
       gradientUnits="userSpaceOnUse"
       gradientTransform="matrix(-1,0,0,1,96,-956.36218)"
       x1="15.152279"
       y1="978.62103"
       x2="26.263966"
       y2="967.50934" />
    <linearGradient
       inkscape:collect="always"
       xlink:href="#linearGradient3119"
       id="linearGradient3117"
       gradientUnits="userSpaceOnUse"
       gradientTransform="translate(0,-956.36218)"
       x1="13.131983"
       y1="980.64136"
       x2="25.549681"
       y2="967.86646" />
    <linearGradient
       inkscape:collect="always"
       xlink:href="#linearGradient3119"
       id="linearGradient3129"
       gradientUnits="userSpaceOnUse"
       gradientTransform="matrix(-1,0,0,1,96,0)"
       x1="13.131983"
       y1="980.64136"
       x2="25.549681"
       y2="967.86646" />
    <linearGradient
       inkscape:collect="always"
       xlink:href="#linearGradient3048"
       id="linearGradient3054"
       x1="49.267925"
       y1="996.57349"
       x2="49.267925"
       y2="1045.8627"
       gradientUnits="userSpaceOnUse" />
    <linearGradient
       inkscape:collect="always"
       xlink:href="#linearGradient3048"
       id="linearGradient3058"
       x1="115.80308"
       y1="985.47241"
       x2="115.80308"
       y2="1033.5543"
       gradientUnits="userSpaceOnUse" />
    <linearGradient
       inkscape:collect="always"
       xlink:href="#linearGradient3076"
       id="linearGradient3055"
       gradientUnits="userSpaceOnUse"
       x1="115.80308"
       y1="985.47241"
       x2="115.80308"
       y2="1025.3639"
       gradientTransform="matrix(1.4144782,0,0,1.4144782,-119.78686,-419.05496)" />
    <linearGradient
       inkscape:collect="always"
       xlink:href="#linearGradient3059"
       id="linearGradient3066"
       x1="22.54203"
       y1="1043.3966"
       x2="22.54203"
       y2="964.45898"
       gradientUnits="userSpaceOnUse" />
    <linearGradient
       inkscape:collect="always"
       xlink:href="#linearGradient3070"
       id="linearGradient3068"
       x1="53.796227"
       y1="1046.0226"
       x2="53.796227"
       y2="962.97437"
       gradientUnits="userSpaceOnUse" />
    <linearGradient
       inkscape:collect="always"
       xlink:href="#linearGradient3076"
       id="linearGradient3086"
       gradientUnits="userSpaceOnUse"
       gradientTransform="matrix(1.4144782,0,0,1.4144782,-119.78686,-417.12598)"
       x1="115.80308"
       y1="985.47241"
       x2="115.80308"
       y2="1025.3639" />
    <linearGradient
       inkscape:collect="always"
       xlink:href="#linearGradient3076"
       id="linearGradient3091"
       gradientUnits="userSpaceOnUse"
       gradientTransform="matrix(1.4144782,0,0,1.4144782,-119.78686,-418.126)"
       x1="115.80308"
       y1="985.47241"
       x2="115.80308"
       y2="1025.3639" />
    <linearGradient
       inkscape:collect="always"
       xlink:href="#linearGradient3076"
       id="linearGradient3093"
       gradientUnits="userSpaceOnUse"
       gradientTransform="matrix(1.4144782,0,0,1.4144782,-119.78686,-1375.4171)"
       x1="115.80308"
       y1="985.47241"
       x2="115.80308"
       y2="1025.3639" />
    <linearGradient
       inkscape:collect="always"
       xlink:href="#linearGradient3558"
       id="linearGradient3564"
       x1="93.242035"
       y1="1027.2615"
       x2="93.242035"
       y2="980.7262"
       gradientUnits="userSpaceOnUse" />
    <linearGradient
       inkscape:collect="always"
       xlink:href="#linearGradient3558"
       id="linearGradient4350"
       gradientUnits="userSpaceOnUse"
       x1="93.242035"
       y1="1027.2615"
       x2="93.242035"
       y2="980.7262" />
    <linearGradient
       inkscape:collect="always"
       xlink:href="#linearGradient4357"
       id="linearGradient4354"
       gradientUnits="userSpaceOnUse"
       x1="93.242035"
       y1="1027.2615"
       x2="93.242035"
       y2="980.7262"
       gradientTransform="translate(-56.571856,0)" />
    <linearGradient
       inkscape:collect="always"
       xlink:href="#linearGradient4357"
       id="linearGradient3517"
       gradientUnits="userSpaceOnUse"
       gradientTransform="translate(-131.19827,0)"
       x1="93.242035"
       y1="1027.2615"
       x2="93.242035"
       y2="980.7262" />
    <linearGradient
       inkscape:collect="always"
       xlink:href="#linearGradient3533"
       id="linearGradient3521"
       gradientUnits="userSpaceOnUse"
       x1="22.54203"
       y1="1043.3966"
       x2="22.54203"
       y2="964.45898"
       gradientTransform="translate(-121.67574,-2.6171874e-6)" />
    <linearGradient
       inkscape:collect="always"
       xlink:href="#linearGradient3144"
       id="linearGradient3524"
       gradientUnits="userSpaceOnUse"
       x1="53.796227"
       y1="1043.8563"
       x2="53.796227"
       y2="962.97437" />
    <linearGradient
       inkscape:collect="always"
       xlink:href="#linearGradient3092"
       id="linearGradient3098"
       x1="54.305801"
       y1="1025.2092"
       x2="54.305801"
       y2="978.07318"
       gradientUnits="userSpaceOnUse" />
    <linearGradient
       inkscape:collect="always"
       id="linearGradient3092">
      <stop
         style="stop-color:#a5cbff;stop-opacity:1"
         offset="0"
         id="stop3094" />
      <stop
         style="stop-color:#eff3ff;stop-opacity:1"
         offset="1"
         id="stop3096" />
    </linearGradient>
    <linearGradient
       gradientTransform="translate(-103.56421,-0.42000038)"
       y2="978.07318"
       x2="54.305801"
       y1="1025.2092"
       x1="54.305801"
       gradientUnits="userSpaceOnUse"
       id="linearGradient3123"
       xlink:href="#linearGradient3092"
       inkscape:collect="always" />
    <linearGradient
       inkscape:collect="always"
       xlink:href="#linearGradient3126"
       id="linearGradient3132"
       x1="-106.05001"
       y1="1026.7462"
       x2="-106.05001"
       y2="976.02667"
       gradientUnits="userSpaceOnUse"
       gradientTransform="translate(61.535098,2.59374)" />
    <linearGradient
       inkscape:collect="always"
       xlink:href="#linearGradient3126"
       id="linearGradient3099"
       gradientUnits="userSpaceOnUse"
       gradientTransform="translate(66.737824,87.814364)"
       x1="-106.05001"
       y1="1026.7462"
       x2="-106.05001"
       y2="976.02667" />
  </defs>
  <sodipodi:namedview
     id="base"
     pagecolor="#ffffff"
     bordercolor="#666666"
     borderopacity="1.0"
     inkscape:pageopacity="0.0"
     inkscape:pageshadow="2"
     inkscape:zoom="2.7604166"
     inkscape:cx="53.296856"
     inkscape:cy="22.076895"
     inkscape:document-units="px"
     inkscape:current-layer="layer1"
     showgrid="false"
     inkscape:window-width="1366"
     inkscape:window-height="712"
     inkscape:window-x="0"
     inkscape:window-y="28"
     inkscape:window-maximized="1"
     showguides="true"
     inkscape:guide-bbox="true" />
  <metadata
     id="metadata7">
    <rdf:RDF>
      <cc:Work
         rdf:about="">
        <dc:format>image/svg+xml</dc:format>
        <dc:type
           rdf:resource="http://purl.org/dc/dcmitype/StillImage" />
        <dc:title />
      </cc:Work>
    </rdf:RDF>
  </metadata>
  <g
     inkscape:label="Layer 1"
     inkscape:groupmode="layer"
     id="layer1"
     transform="translate(0,-956.36218)">
    <rect
       style="opacity:0.05;fill:#000000;fill-opacity:1;stroke:none"
       id="rect3826"
       width="89"
       height="89"
       x="3.5"
       y="960.86218"
       rx="10.595235"
       ry="10.595235" />
    <g
       id="g3041">
      <rect
         style="opacity:0.05;fill:#000000;fill-opacity:1;stroke:none"
         id="rect3824"
         width="88"
         height="88"
         x="4"
         y="961.36218"
         rx="10.476188"
         ry="10.476188" />
      <rect
         ry="10.357141"
         rx="10.357141"
         y="961.86218"
         x="4.5"
         height="87"
         width="87"
         id="rect3822"
         style="opacity:0.05;fill:#000000;fill-opacity:1;stroke:none" />
      <rect
         style="opacity:0.1;fill:#000000;fill-opacity:1;stroke:none"
         id="rect3820"
         width="86"
         height="86"
         x="5"
         y="962.36218"
         rx="10.238094"
         ry="10.238094" />
      <rect
         ry="10.119047"
         rx="10.119047"
         y="962.86218"
         x="5.5"
         height="85"
         width="85"
         id="rect3818"
         style="opacity:0.1;fill:#000000;fill-opacity:1;stroke:none" />
      <rect
         style="opacity:0.3;fill:#000000;fill-opacity:1;stroke:none"
         id="rect3131"
         width="84"
         height="84"
         x="6"
         y="963.36218"
         rx="10"
         ry="10" />
    </g>
    <rect
       ry="10"
       rx="10"
       y="962.36218"
       x="6"
       height="84"
       width="84"
       id="rect3036"
       style="fill:url(#linearGradient3524);fill-opacity:1;stroke:none" />
    <path
       inkscape:connector-curvature="0"
       id="path3119"
       d="m 21.499976,982.86238 0,8.69587 7.496439,0 c 0.08819,-6.2e-4 0.174037,0 0.262375,0 20.200719,0 36.582623,16.34445 36.582623,36.54515 0,0.089 6.26e-4,0.1741 0,0.2624 l 0,7.4964 8.658387,0 0,-7.4964 c 5.03e-4,-0.088 0,-0.1742 0,-0.2624 0,-24.9948 -20.246119,-45.24102 -45.24101,-45.24102 -0.0881,0 -0.174397,-5e-4 -0.262375,0 l -7.496439,0 z m 0,18.36632 0,8.6209 7.496439,0 0.262375,0 c 10.086477,0 18.25383,8.1674 18.25383,18.2538 0,0.088 0.0012,0.1747 0,0.2624 l 0,7.4964 8.658387,0 0,-7.4964 c 8.39e-4,-0.088 0,-0.1746 0,-0.2624 0,-14.8589 -12.053303,-26.8747 -26.912217,-26.8747 -0.08779,0 -0.174793,-9e-4 -0.262375,0 l -7.496439,0 z m 7.721332,19.1534 c -4.27803,0 -7.721332,3.4433 -7.721332,7.7213 0,4.2781 3.443302,7.7588 7.721332,7.7588 4.278031,0 7.758815,-3.4807 7.758815,-7.7588 0,-4.278 -3.480784,-7.7213 -7.758815,-7.7213 z"
       style="opacity:0.05;fill:#000000;fill-opacity:1;stroke:none" />
    <path
       style="opacity:0.05;fill:#000000;fill-opacity:1;stroke:none"
       d="m 21.499976,981.86236 0,8.69587 7.496439,0 c 0.08819,-6.2e-4 0.174037,0 0.262375,0 20.200719,0 36.582623,16.34447 36.582623,36.54517 0,0.089 6.26e-4,0.1741 0,0.2624 l 0,7.4964 8.658387,0 0,-7.4964 c 5.03e-4,-0.088 0,-0.1742 0,-0.2624 0,-24.9948 -20.246119,-45.24104 -45.24101,-45.24104 -0.0881,0 -0.174397,-5e-4 -0.262375,0 l -7.496439,0 z m 0,18.36634 0,8.6209 7.496439,0 0.262375,0 c 10.086477,0 18.25383,8.1674 18.25383,18.2538 0,0.088 0.0012,0.1747 0,0.2624 l 0,7.4964 8.658387,0 0,-7.4964 c 8.39e-4,-0.088 0,-0.1746 0,-0.2624 0,-14.8589 -12.053303,-26.8747 -26.912217,-26.8747 -0.08779,0 -0.174793,-9e-4 -0.262375,0 l -7.496439,0 z m 7.721332,19.1534 c -4.27803,0 -7.721332,3.4433 -7.721332,7.7213 0,4.2781 3.443302,7.7588 7.721332,7.7588 4.278031,0 7.758815,-3.4807 7.758815,-7.7588 0,-4.278 -3.480784,-7.7213 -7.758815,-7.7213 z"
       id="path3121"
       inkscape:connector-curvature="0" />
    <path
       inkscape:connector-curvature="0"
       id="path3123"
       d="m 21.499976,980.86234 0,8.69587 7.496439,0 c 0.08819,-6.2e-4 0.174037,0 0.262375,0 20.200719,0 36.582623,16.34449 36.582623,36.54519 0,0.089 6.26e-4,0.1741 0,0.2624 l 0,7.4964 8.658387,0 0,-7.4964 c 5.03e-4,-0.088 0,-0.1742 0,-0.2624 0,-24.9948 -20.246119,-45.24106 -45.24101,-45.24106 -0.0881,0 -0.174397,-5e-4 -0.262375,0 l -7.496439,0 z m 0,18.36636 0,8.6209 7.496439,0 0.262375,0 c 10.086477,0 18.25383,8.1674 18.25383,18.2538 0,0.088 0.0012,0.1747 0,0.2624 l 0,7.4964 8.658387,0 0,-7.4964 c 8.39e-4,-0.088 0,-0.1746 0,-0.2624 0,-14.8589 -12.053303,-26.8747 -26.912217,-26.8747 -0.08779,0 -0.174793,-9e-4 -0.262375,0 l -7.496439,0 z m 7.721332,19.1534 c -4.27803,0 -7.721332,3.4433 -7.721332,7.7213 0,4.2781 3.443302,7.7588 7.721332,7.7588 4.278031,0 7.758815,-3.4807 7.758815,-7.7588 0,-4.278 -3.480784,-7.7213 -7.758815,-7.7213 z"
       style="opacity:0.05;fill:#000000;fill-opacity:1;stroke:none" />
    <path
       style="opacity:0.1;fill:#000000;fill-opacity:1;stroke:none"
       d="m 21.499976,979.86232 0,8.69587 7.496439,0 c 0.08819,-6.2e-4 0.174037,0 0.262375,0 20.200719,0 36.582623,16.34451 36.582623,36.54521 0,0.089 6.26e-4,0.1741 0,0.2624 l 0,7.4964 8.658387,0 0,-7.4964 c 5.03e-4,-0.088 0,-0.1742 0,-0.2624 0,-24.9948 -20.246119,-45.24108 -45.24101,-45.24108 -0.0881,0 -0.174397,-5e-4 -0.262375,0 l -7.496439,0 z m 0,18.36638 0,8.6209 7.496439,0 0.262375,0 c 10.086477,0 18.25383,8.1674 18.25383,18.2538 0,0.088 0.0012,0.1747 0,0.2624 l 0,7.4964 8.658387,0 0,-7.4964 c 8.39e-4,-0.088 0,-0.1746 0,-0.2624 0,-14.8589 -12.053303,-26.8747 -26.912217,-26.8747 -0.08779,0 -0.174793,-9e-4 -0.262375,0 l -7.496439,0 z m 7.721332,19.1534 c -4.27803,0 -7.721332,3.4433 -7.721332,7.7213 0,4.2781 3.443302,7.7588 7.721332,7.7588 4.278031,0 7.758815,-3.4807 7.758815,-7.7588 0,-4.278 -3.480784,-7.7213 -7.758815,-7.7213 z"
       id="path3125"
       inkscape:connector-curvature="0" />
    <path
       inkscape:connector-curvature="0"
       id="path3127"
       d="m 21.499976,978.8623 0,8.69587 7.496439,0 c 0.08819,-6.2e-4 0.174037,0 0.262375,0 20.200719,0 36.582623,16.34453 36.582623,36.54523 0,0.089 6.26e-4,0.1741 0,0.2624 l 0,7.4964 8.658387,0 0,-7.4964 c 5.03e-4,-0.088 0,-0.1742 0,-0.2624 0,-24.9948 -20.246119,-45.2411 -45.24101,-45.2411 -0.0881,0 -0.174397,-5e-4 -0.262375,0 l -7.496439,0 z m 0,18.36638 0,8.62092 7.496439,0 0.262375,0 c 10.086477,0 18.25383,8.1674 18.25383,18.2538 0,0.088 0.0012,0.1747 0,0.2624 l 0,7.4964 8.658387,0 0,-7.4964 c 8.39e-4,-0.088 0,-0.1746 0,-0.2624 0,-14.8589 -12.053303,-26.87472 -26.912217,-26.87472 -0.08779,0 -0.174793,-9e-4 -0.262375,0 l -7.496439,0 z m 7.721332,19.15342 c -4.27803,0 -7.721332,3.4433 -7.721332,7.7213 0,4.2781 3.443302,7.7588 7.721332,7.7588 4.278031,0 7.758815,-3.4807 7.758815,-7.7588 0,-4.278 -3.480784,-7.7213 -7.758815,-7.7213 z"
       style="opacity:0.1;fill:#000000;fill-opacity:1;stroke:none" />
    <path
       style="fill:#ffffff;fill-opacity:1;stroke:none"
       d="m 21.499976,977.8624 0,8.69587 7.496439,0 c 0.08819,-6.2e-4 0.174037,0 0.262375,0 20.200719,0 36.582623,16.34443 36.582623,36.54513 0,0.089 6.26e-4,0.1741 0,0.2624 l 0,7.4964 8.658387,0 0,-7.4964 c 5.03e-4,-0.088 0,-0.1742 0,-0.2624 0,-24.99485 -20.246119,-45.241 -45.24101,-45.241 -0.0881,0 -0.174397,-5e-4 -0.262375,0 l -7.496439,0 z m 0,18.36628 0,8.62092 7.496439,0 0.262375,0 c 10.086477,0 18.25383,8.1674 18.25383,18.2538 0,0.088 0.0012,0.1747 0,0.2624 l 0,7.4964 8.658387,0 0,-7.4964 c 8.39e-4,-0.088 0,-0.1746 0,-0.2624 0,-14.8589 -12.053303,-26.87472 -26.912217,-26.87472 -0.08779,0 -0.174793,-8.4e-4 -0.262375,0 l -7.496439,0 z m 7.721332,19.15342 c -4.27803,0 -7.721332,3.4433 -7.721332,7.7213 0,4.2781 3.443302,7.7588 7.721332,7.7588 4.278031,0 7.758815,-3.4807 7.758815,-7.7588 0,-4.278 -3.480784,-7.7213 -7.758815,-7.7213 z"
       id="path3092"
       inkscape:connector-curvature="0" />
  </g>
</svg>
