<?xml version="1.0" encoding="UTF-8" standalone="no"?>
<!-- Created with Inkscape (http://www.inkscape.org/) -->

<svg
   xmlns:dc="http://purl.org/dc/elements/1.1/"
   xmlns:cc="http://creativecommons.org/ns#"
   xmlns:rdf="http://www.w3.org/1999/02/22-rdf-syntax-ns#"
   xmlns:svg="http://www.w3.org/2000/svg"
   xmlns="http://www.w3.org/2000/svg"
   xmlns:xlink="http://www.w3.org/1999/xlink"
   xmlns:sodipodi="http://sodipodi.sourceforge.net/DTD/sodipodi-0.dtd"
   xmlns:inkscape="http://www.inkscape.org/namespaces/inkscape"
   width="96"
   height="96"
   id="svg2"
   version="1.1"
   inkscape:version="0.91 r13725"
   sodipodi:docname="banshee.svg">
  <defs
     id="defs4">
    <linearGradient
       inkscape:collect="always"
       id="linearGradient4211">
      <stop
         style="stop-color:#eeeeee;stop-opacity:1"
         offset="0"
         id="stop4213" />
      <stop
         style="stop-color:#e5e5e5;stop-opacity:1"
         offset="1"
         id="stop4215" />
    </linearGradient>
    <linearGradient
       id="linearGradient4205"
       inkscape:collect="always">
      <stop
         id="stop4207"
         offset="0"
         style="stop-color:#357cc7;stop-opacity:1" />
      <stop
         id="stop4209"
         offset="1"
         style="stop-color:#6d9ccc;stop-opacity:1" />
    </linearGradient>
    <linearGradient
       id="linearGradient3076"
       inkscape:collect="always">
      <stop
         id="stop3078"
         offset="0"
         style="stop-color:#ffe7f7;stop-opacity:1" />
      <stop
         id="stop3080"
         offset="1"
         style="stop-color:#ffc3ef;stop-opacity:1" />
    </linearGradient>
    <linearGradient
       inkscape:collect="always"
       id="linearGradient3059">
      <stop
         style="stop-color:#336dac;stop-opacity:1"
         offset="0"
         id="stop3061" />
      <stop
         style="stop-color:#87add6;stop-opacity:1"
         offset="1"
         id="stop3064" />
    </linearGradient>
    <linearGradient
       inkscape:collect="always"
       id="linearGradient3048">
      <stop
         style="stop-color:#c16d16;stop-opacity:1"
         offset="0"
         id="stop3050" />
      <stop
         style="stop-color:#ff8e31;stop-opacity:1"
         offset="1"
         id="stop3052" />
    </linearGradient>
    <linearGradient
       inkscape:collect="always"
       id="linearGradient3119">
      <stop
         style="stop-color:#92948f;stop-opacity:0"
         offset="0"
         id="stop3121" />
      <stop
         id="stop3123"
         offset="0.4283945"
         style="stop-color:#9b9e98;stop-opacity:1" />
      <stop
         style="stop-color:#939690;stop-opacity:0"
         offset="1"
         id="stop3125" />
    </linearGradient>
    <linearGradient
       id="linearGradient3073"
       inkscape:collect="always">
      <stop
         id="stop3075"
         offset="0"
         style="stop-color:#ffffff;stop-opacity:0" />
      <stop
         style="stop-color:#ffffff;stop-opacity:1"
         offset="0.45872402"
         id="stop3085" />
      <stop
         id="stop3083"
         offset="1"
         style="stop-color:#ffffff;stop-opacity:0" />
    </linearGradient>
    <linearGradient
       inkscape:collect="always"
       id="linearGradient3047">
      <stop
         style="stop-color:#000000;stop-opacity:1"
         offset="0"
         id="stop3049" />
      <stop
         id="stop3055"
         offset="0.06123874"
         style="stop-color:#1a1a1a;stop-opacity:1" />
      <stop
         style="stop-color:#333333;stop-opacity:1"
         offset="0.16480456"
         id="stop3057" />
      <stop
         id="stop3059"
         offset="0.55385184"
         style="stop-color:#4d4d4d;stop-opacity:1" />
      <stop
         style="stop-color:#999999;stop-opacity:1"
         offset="1"
         id="stop3051" />
    </linearGradient>
    <linearGradient
       id="linearGradient3041"
       inkscape:collect="always">
      <stop
         id="stop3043"
         offset="0"
         style="stop-color:#1a1a1a;stop-opacity:1" />
      <stop
         id="stop3045"
         offset="1"
         style="stop-color:#808080;stop-opacity:1" />
    </linearGradient>
    <linearGradient
       inkscape:collect="always"
       id="linearGradient3029">
      <stop
         style="stop-color:#333333;stop-opacity:1"
         offset="0"
         id="stop3031" />
      <stop
         style="stop-color:#e0e0dd;stop-opacity:0;"
         offset="1"
         id="stop3033" />
    </linearGradient>
    <linearGradient
       inkscape:collect="always"
       xlink:href="#linearGradient3029"
       id="linearGradient3035"
       x1="35.355339"
       y1="1030.3622"
       x2="35.355339"
       y2="975.33282"
       gradientUnits="userSpaceOnUse"
       gradientTransform="matrix(1.1638085,0,0,1.1638085,-7.862809,-164.23642)" />
    <linearGradient
       inkscape:collect="always"
       xlink:href="#linearGradient3041"
       id="linearGradient3039"
       gradientUnits="userSpaceOnUse"
       x1="35.355339"
       y1="1030.3622"
       x2="35.355339"
       y2="975.33282"
       gradientTransform="matrix(1.1218695,0,0,1.1218695,-5.8497348,-122.18782)" />
    <linearGradient
       inkscape:collect="always"
       xlink:href="#linearGradient3047"
       id="linearGradient3053"
       x1="40"
       y1="1043.4336"
       x2="39.285713"
       y2="972.33325"
       gradientUnits="userSpaceOnUse" />
    <linearGradient
       inkscape:collect="always"
       xlink:href="#linearGradient3073"
       id="linearGradient3113"
       gradientUnits="userSpaceOnUse"
       gradientTransform="translate(0,-956.36218)"
       x1="14.869445"
       y1="978.90387"
       x2="24.52651"
       y2="969.24683" />
    <linearGradient
       inkscape:collect="always"
       xlink:href="#linearGradient3073"
       id="linearGradient3115"
       gradientUnits="userSpaceOnUse"
       gradientTransform="matrix(-1,0,0,1,96,-956.36218)"
       x1="15.152279"
       y1="978.62103"
       x2="26.263966"
       y2="967.50934" />
    <linearGradient
       inkscape:collect="always"
       xlink:href="#linearGradient3119"
       id="linearGradient3117"
       gradientUnits="userSpaceOnUse"
       gradientTransform="translate(0,-956.36218)"
       x1="13.131983"
       y1="980.64136"
       x2="25.549681"
       y2="967.86646" />
    <linearGradient
       inkscape:collect="always"
       xlink:href="#linearGradient3119"
       id="linearGradient3129"
       gradientUnits="userSpaceOnUse"
       gradientTransform="matrix(-1,0,0,1,96,0)"
       x1="13.131983"
       y1="980.64136"
       x2="25.549681"
       y2="967.86646" />
    <linearGradient
       inkscape:collect="always"
       xlink:href="#linearGradient3048"
       id="linearGradient3054"
       x1="49.267925"
       y1="996.57349"
       x2="49.267925"
       y2="1045.8627"
       gradientUnits="userSpaceOnUse" />
    <linearGradient
       inkscape:collect="always"
       xlink:href="#linearGradient3048"
       id="linearGradient3058"
       x1="115.80308"
       y1="985.47241"
       x2="115.80308"
       y2="1033.5543"
       gradientUnits="userSpaceOnUse" />
    <linearGradient
       inkscape:collect="always"
       xlink:href="#linearGradient4211"
       id="linearGradient3055"
       gradientUnits="userSpaceOnUse"
       x1="115.80308"
       y1="985.47241"
       x2="115.80308"
       y2="1025.3639"
       gradientTransform="matrix(-1.4144782,0,0,1.4144782,207.78686,-419.05496)" />
    <linearGradient
       inkscape:collect="always"
       xlink:href="#linearGradient4205"
       id="linearGradient3066"
       x1="22.54203"
       y1="1043.3966"
       x2="22.54203"
       y2="964.45898"
       gradientUnits="userSpaceOnUse"
       gradientTransform="translate(-96,0)" />
    <linearGradient
       inkscape:collect="always"
       xlink:href="#linearGradient3059"
       id="linearGradient3068"
       x1="53.796227"
       y1="1046.0226"
       x2="53.796227"
       y2="962.97437"
       gradientUnits="userSpaceOnUse"
       gradientTransform="translate(-96,0)" />
    <linearGradient
       inkscape:collect="always"
       xlink:href="#linearGradient3076"
       id="linearGradient3086"
       gradientUnits="userSpaceOnUse"
       gradientTransform="matrix(1.4144782,0,0,1.4144782,-119.78686,-417.12598)"
       x1="115.80308"
       y1="985.47241"
       x2="115.80308"
       y2="1025.3639" />
    <linearGradient
       inkscape:collect="always"
       xlink:href="#linearGradient3076"
       id="linearGradient3091"
       gradientUnits="userSpaceOnUse"
       gradientTransform="matrix(1.4144782,0,0,1.4144782,-119.78686,-418.126)"
       x1="115.80308"
       y1="985.47241"
       x2="115.80308"
       y2="1025.3639" />
    <linearGradient
       inkscape:collect="always"
       xlink:href="#linearGradient3076"
       id="linearGradient3093"
       gradientUnits="userSpaceOnUse"
       gradientTransform="matrix(1.4144782,0,0,1.4144782,-119.78686,-1375.4171)"
       x1="115.80308"
       y1="985.47241"
       x2="115.80308"
       y2="1025.3639" />
    <filter
       inkscape:collect="always"
       id="filter3922"
       x="-0.17709341"
       width="1.3541868"
       y="-0.14927732"
       height="1.2985546">
      <feGaussianBlur
         inkscape:collect="always"
         stdDeviation="3.5486726"
         id="feGaussianBlur3924" />
    </filter>
  </defs>
  <sodipodi:namedview
     id="base"
     pagecolor="#ffffff"
     bordercolor="#666666"
     borderopacity="1.0"
     inkscape:pageopacity="0.0"
     inkscape:pageshadow="2"
     inkscape:zoom="1.9519093"
     inkscape:cx="47.332104"
     inkscape:cy="81.263502"
     inkscape:document-units="px"
     inkscape:current-layer="layer1"
     showgrid="false"
     inkscape:window-width="1332"
     inkscape:window-height="714"
     inkscape:window-x="0"
     inkscape:window-y="28"
     inkscape:window-maximized="1"
     showguides="true"
     inkscape:guide-bbox="true" />
  <metadata
     id="metadata7">
    <rdf:RDF>
      <cc:Work
         rdf:about="">
        <dc:format>image/svg+xml</dc:format>
        <dc:type
           rdf:resource="http://purl.org/dc/dcmitype/StillImage" />
        <dc:title />
      </cc:Work>
    </rdf:RDF>
  </metadata>
  <g
     inkscape:label="Layer 1"
     inkscape:groupmode="layer"
     id="layer1"
     transform="translate(0,-956.36218)">
    <rect
       style="opacity:0.05;fill:#000000;fill-opacity:1;stroke:none"
       id="rect3826"
       width="89"
       height="89"
       x="-92.5"
       y="960.86218"
       rx="10.595235"
       ry="10.595235"
       transform="scale(-1,1)" />
    <g
       id="g3041"
       transform="matrix(-1,0,0,1,96,0)">
      <rect
         style="opacity:0.05;fill:#000000;fill-opacity:1;stroke:none"
         id="rect3824"
         width="88"
         height="88"
         x="4"
         y="961.36218"
         rx="10.476188"
         ry="10.476188" />
      <rect
         ry="10.357141"
         rx="10.357141"
         y="961.86218"
         x="4.5"
         height="87"
         width="87"
         id="rect3822"
         style="opacity:0.05;fill:#000000;fill-opacity:1;stroke:none" />
      <rect
         style="opacity:0.1;fill:#000000;fill-opacity:1;stroke:none"
         id="rect3820"
         width="86"
         height="86"
         x="5"
         y="962.36218"
         rx="10.238094"
         ry="10.238094" />
      <rect
         ry="10.119047"
         rx="10.119047"
         y="962.86218"
         x="5.5"
         height="85"
         width="85"
         id="rect3818"
         style="opacity:0.1;fill:#000000;fill-opacity:1;stroke:none" />
      <rect
         style="opacity:0.3;fill:#000000;fill-opacity:1;stroke:none"
         id="rect3131"
         width="84"
         height="84"
         x="6"
         y="963.36218"
         rx="10"
         ry="10" />
    </g>
    <rect
       ry="10"
       rx="10"
       y="962.36218"
       x="-90"
       height="84"
       width="84"
       id="rect3036"
       style="fill:url(#linearGradient3068);fill-opacity:1;stroke:none"
       transform="scale(-1,1)" />
    <rect
       style="fill:url(#linearGradient3066);fill-opacity:1;stroke:none"
       id="rect3034"
       width="82"
       height="82"
       x="-89"
       y="963.36218"
       rx="9.7619047"
       ry="9.7619047"
       transform="scale(-1,1)" />
    <g
       id="g4217"
       transform="translate(5.5629197,0)">
      <path
         transform="matrix(-1,0,0,1,88,0)"
         style="opacity:0.3;fill:#000000;fill-opacity:1;stroke:none;filter:url(#filter3922)"
         d="m 48.068348,980.37956 0,26.09834 c -2.29051,-1.2115 -4.89054,-1.9157 -7.6619,-1.9157 -9.078093,0 -16.452555,7.3746 -16.452555,16.4527 0,9.078 7.374462,16.4183 16.452555,16.4183 8.92734,0 16.1453,-7.1042 16.38414,-15.9737 l 0.0343,0 0,-0.4446 0,-22.50674 9.20112,4.89104 c 2.94126,1.9826 1.72429,8.7074 0.0341,11.5957 5.01561,-3.7414 9.24357,-16.91914 2.46274,-21.65163 -7.54204,-4.74301 -13.74313,-8.75816 -20.45452,-12.96371 z m -7.6619,33.79404 c 3.77448,0 6.84099,3.0668 6.84099,6.8413 0,3.7744 -3.06651,6.8067 -6.84099,6.8067 -3.774463,0 -6.840983,-3.0323 -6.840983,-6.8067 0,-3.7745 3.06652,-6.8413 6.840983,-6.8413 z"
         id="path3096"
         inkscape:connector-curvature="0" />
      <path
         inkscape:connector-curvature="0"
         id="path3051"
         d="m 39.931652,974.37956 0,26.09834 c 2.29051,-1.21145 4.89054,-1.91572 7.6619,-1.91572 9.078093,0 16.452555,7.37462 16.452555,16.45272 0,9.078 -7.374462,16.4183 -16.452555,16.4183 -8.92734,0 -16.1453,-7.1042 -16.38414,-15.9737 l -0.0343,0 0,-0.4446 0,-22.50674 -9.20112,4.89106 c -2.94126,1.98255 -1.72429,8.70738 -0.0341,11.59568 -5.01561,-3.7414 -9.24357,-16.91914 -2.46274,-21.65163 7.54204,-4.74301 13.74313,-8.75816 20.45452,-12.96371 z m 7.6619,33.79404 c -3.77448,0 -6.84099,3.0668 -6.84099,6.8413 0,3.7744 3.06651,6.8067 6.84099,6.8067 3.774463,0 6.840983,-3.0323 6.840983,-6.8067 0,-3.7745 -3.06652,-6.8413 -6.840983,-6.8413 z"
         style="fill:url(#linearGradient3055);fill-opacity:1;stroke:none" />
      <path
         inkscape:connector-curvature="0"
         id="path3082"
         d="m 39.9375,974.39343 0,0.90625 c -6.71139,4.20555 -12.92671,8.22574 -20.46875,12.96875 -2.423998,1.69176 -3.391465,4.46666 -3.46875,7.5 -0.117649,-3.38711 0.801157,-6.57573 3.46875,-8.4375 7.54204,-4.74301 13.75736,-8.73195 20.46875,-12.9375 z m 7.65625,24.15625 c 9.078093,0 16.4375,7.39062 16.4375,16.46872 0,0.1578 -0.02683,0.3121 -0.03125,0.4688 -0.2502,-8.8605 -7.485935,-16.00002 -16.40625,-16.00002 -2.77136,0 -5.36574,0.69472 -7.65625,1.90622 l 0,-0.9062 c 2.29051,-1.21147 4.88489,-1.93752 7.65625,-1.93752 z m -27.375,3.93752 c 0.08676,2.4004 0.82677,4.9757 1.71875,6.5 -0.229537,-0.1712 -0.462242,-0.3847 -0.6875,-0.5938 -0.657904,-1.7188 -1.113626,-3.9293 -1.03125,-5.9062 z m 34.1875,13 c 0.01005,0.1515 0.03125,0.3147 0.03125,0.4687 0,3.7744 -3.069287,6.7813 -6.84375,6.7813 -3.77448,0 -6.84375,-3.0069 -6.84375,-6.7813 0,-0.154 0.0212,-0.3172 0.03125,-0.4687 0.246335,3.5488 3.199019,6.3437 6.8125,6.3437 3.613465,0 6.566164,-2.7949 6.8125,-6.3437 z"
         style="fill:#ffffff;fill-opacity:1;stroke:none" />
    </g>
  </g>
</svg>
