<?xml version="1.0" encoding="UTF-8" standalone="no"?>
<!-- Created with Inkscape (http://www.inkscape.org/) -->

<svg
   xmlns:dc="http://purl.org/dc/elements/1.1/"
   xmlns:cc="http://creativecommons.org/ns#"
   xmlns:rdf="http://www.w3.org/1999/02/22-rdf-syntax-ns#"
   xmlns:svg="http://www.w3.org/2000/svg"
   xmlns="http://www.w3.org/2000/svg"
   xmlns:xlink="http://www.w3.org/1999/xlink"
   xmlns:sodipodi="http://sodipodi.sourceforge.net/DTD/sodipodi-0.dtd"
   xmlns:inkscape="http://www.inkscape.org/namespaces/inkscape"
   width="96"
   height="96"
   id="svg2"
   version="1.1"
   inkscape:version="0.48.4 r9939"
   sodipodi:docname="network-wireless.svg">
  <defs
     id="defs4">
    <linearGradient
       inkscape:collect="always"
       id="linearGradient3121">
      <stop
         style="stop-color:#e3e5e4;stop-opacity:1"
         offset="0"
         id="stop3124" />
      <stop
         style="stop-color:#eaebe5;stop-opacity:1"
         offset="1"
         id="stop3126" />
    </linearGradient>
    <linearGradient
       inkscape:collect="always"
       id="linearGradient3090">
      <stop
         style="stop-color:#486553;stop-opacity:1"
         offset="0"
         id="stop3092" />
      <stop
         style="stop-color:#52815d;stop-opacity:1"
         offset="1"
         id="stop3094" />
    </linearGradient>
    <linearGradient
       id="linearGradient3083"
       inkscape:collect="always">
      <stop
         id="stop3086"
         offset="0"
         style="stop-color:#54805e;stop-opacity:1" />
      <stop
         id="stop3088"
         offset="1"
         style="stop-color:#52895f;stop-opacity:1" />
    </linearGradient>
    <inkscape:perspective
       sodipodi:type="inkscape:persp3d"
       inkscape:vp_x="0 : 48 : 1"
       inkscape:vp_y="0 : 1000 : 0"
       inkscape:vp_z="96 : 48 : 1"
       inkscape:persp3d-origin="48 : 32 : 1"
       id="perspective3054" />
    <linearGradient
       id="linearGradient4357"
       inkscape:collect="always">
      <stop
         id="stop4359"
         offset="0"
         style="stop-color:#ded3d6;stop-opacity:1" />
      <stop
         id="stop4361"
         offset="1"
         style="stop-color:#f7ebef;stop-opacity:1" />
    </linearGradient>
    <linearGradient
       inkscape:collect="always"
       id="linearGradient3558">
      <stop
         style="stop-color:#ded3d6;stop-opacity:1"
         offset="0"
         id="stop3560" />
      <stop
         style="stop-color:#efebef;stop-opacity:1"
         offset="1"
         id="stop3562" />
    </linearGradient>
    <linearGradient
       id="linearGradient3076"
       inkscape:collect="always">
      <stop
         id="stop3078"
         offset="0"
         style="stop-color:#ffe7f7;stop-opacity:1" />
      <stop
         id="stop3080"
         offset="1"
         style="stop-color:#ffc3ef;stop-opacity:1" />
    </linearGradient>
    <linearGradient
       inkscape:collect="always"
       id="linearGradient3048">
      <stop
         style="stop-color:#c16d16;stop-opacity:1"
         offset="0"
         id="stop3050" />
      <stop
         style="stop-color:#ff8e31;stop-opacity:1"
         offset="1"
         id="stop3052" />
    </linearGradient>
    <linearGradient
       inkscape:collect="always"
       id="linearGradient3119">
      <stop
         style="stop-color:#92948f;stop-opacity:0"
         offset="0"
         id="stop3121" />
      <stop
         id="stop3123"
         offset="0.4283945"
         style="stop-color:#9b9e98;stop-opacity:1" />
      <stop
         style="stop-color:#939690;stop-opacity:0"
         offset="1"
         id="stop3125" />
    </linearGradient>
    <linearGradient
       id="linearGradient3073"
       inkscape:collect="always">
      <stop
         id="stop3075"
         offset="0"
         style="stop-color:#ffffff;stop-opacity:0" />
      <stop
         style="stop-color:#ffffff;stop-opacity:1"
         offset="0.45872402"
         id="stop3085" />
      <stop
         id="stop3083"
         offset="1"
         style="stop-color:#ffffff;stop-opacity:0" />
    </linearGradient>
    <linearGradient
       inkscape:collect="always"
       id="linearGradient3047">
      <stop
         style="stop-color:#000000;stop-opacity:1"
         offset="0"
         id="stop3049" />
      <stop
         id="stop3055"
         offset="0.06123874"
         style="stop-color:#1a1a1a;stop-opacity:1" />
      <stop
         style="stop-color:#333333;stop-opacity:1"
         offset="0.16480456"
         id="stop3057" />
      <stop
         id="stop3059"
         offset="0.55385184"
         style="stop-color:#4d4d4d;stop-opacity:1" />
      <stop
         style="stop-color:#999999;stop-opacity:1"
         offset="1"
         id="stop3051" />
    </linearGradient>
    <linearGradient
       id="linearGradient3041"
       inkscape:collect="always">
      <stop
         id="stop3043"
         offset="0"
         style="stop-color:#1a1a1a;stop-opacity:1" />
      <stop
         id="stop3045"
         offset="1"
         style="stop-color:#808080;stop-opacity:1" />
    </linearGradient>
    <linearGradient
       inkscape:collect="always"
       id="linearGradient3029">
      <stop
         style="stop-color:#333333;stop-opacity:1"
         offset="0"
         id="stop3031" />
      <stop
         style="stop-color:#e0e0dd;stop-opacity:0;"
         offset="1"
         id="stop3033" />
    </linearGradient>
    <linearGradient
       inkscape:collect="always"
       xlink:href="#linearGradient3029"
       id="linearGradient3035"
       x1="35.355339"
       y1="1030.3622"
       x2="35.355339"
       y2="975.33282"
       gradientUnits="userSpaceOnUse"
       gradientTransform="matrix(1.1638085,0,0,1.1638085,-7.862809,-164.23642)" />
    <linearGradient
       inkscape:collect="always"
       xlink:href="#linearGradient3041"
       id="linearGradient3039"
       gradientUnits="userSpaceOnUse"
       x1="35.355339"
       y1="1030.3622"
       x2="35.355339"
       y2="975.33282"
       gradientTransform="matrix(1.1218695,0,0,1.1218695,-5.8497348,-122.18782)" />
    <linearGradient
       inkscape:collect="always"
       xlink:href="#linearGradient3047"
       id="linearGradient3053"
       x1="40"
       y1="1043.4336"
       x2="39.285713"
       y2="972.33325"
       gradientUnits="userSpaceOnUse" />
    <linearGradient
       inkscape:collect="always"
       xlink:href="#linearGradient3073"
       id="linearGradient3113"
       gradientUnits="userSpaceOnUse"
       gradientTransform="translate(0,-956.36218)"
       x1="14.869445"
       y1="978.90387"
       x2="24.52651"
       y2="969.24683" />
    <linearGradient
       inkscape:collect="always"
       xlink:href="#linearGradient3073"
       id="linearGradient3115"
       gradientUnits="userSpaceOnUse"
       gradientTransform="matrix(-1,0,0,1,96,-956.36218)"
       x1="15.152279"
       y1="978.62103"
       x2="26.263966"
       y2="967.50934" />
    <linearGradient
       inkscape:collect="always"
       xlink:href="#linearGradient3119"
       id="linearGradient3117"
       gradientUnits="userSpaceOnUse"
       gradientTransform="translate(0,-956.36218)"
       x1="13.131983"
       y1="980.64136"
       x2="25.549681"
       y2="967.86646" />
    <linearGradient
       inkscape:collect="always"
       xlink:href="#linearGradient3119"
       id="linearGradient3129"
       gradientUnits="userSpaceOnUse"
       gradientTransform="matrix(-1,0,0,1,96,0)"
       x1="13.131983"
       y1="980.64136"
       x2="25.549681"
       y2="967.86646" />
    <linearGradient
       inkscape:collect="always"
       xlink:href="#linearGradient3048"
       id="linearGradient3054"
       x1="49.267925"
       y1="996.57349"
       x2="49.267925"
       y2="1045.8627"
       gradientUnits="userSpaceOnUse" />
    <linearGradient
       inkscape:collect="always"
       xlink:href="#linearGradient3048"
       id="linearGradient3058"
       x1="115.80308"
       y1="985.47241"
       x2="115.80308"
       y2="1033.5543"
       gradientUnits="userSpaceOnUse" />
    <linearGradient
       inkscape:collect="always"
       xlink:href="#linearGradient3076"
       id="linearGradient3055"
       gradientUnits="userSpaceOnUse"
       x1="115.80308"
       y1="985.47241"
       x2="115.80308"
       y2="1025.3639"
       gradientTransform="matrix(1.4144782,0,0,1.4144782,-119.78686,-419.05496)" />
    <linearGradient
       inkscape:collect="always"
       xlink:href="#linearGradient3076"
       id="linearGradient3086"
       gradientUnits="userSpaceOnUse"
       gradientTransform="matrix(1.4144782,0,0,1.4144782,-119.78686,-417.12598)"
       x1="115.80308"
       y1="985.47241"
       x2="115.80308"
       y2="1025.3639" />
    <linearGradient
       inkscape:collect="always"
       xlink:href="#linearGradient3076"
       id="linearGradient3091"
       gradientUnits="userSpaceOnUse"
       gradientTransform="matrix(1.4144782,0,0,1.4144782,-119.78686,-418.126)"
       x1="115.80308"
       y1="985.47241"
       x2="115.80308"
       y2="1025.3639" />
    <linearGradient
       inkscape:collect="always"
       xlink:href="#linearGradient3076"
       id="linearGradient3093"
       gradientUnits="userSpaceOnUse"
       gradientTransform="matrix(1.4144782,0,0,1.4144782,-119.78686,-1375.4171)"
       x1="115.80308"
       y1="985.47241"
       x2="115.80308"
       y2="1025.3639" />
    <linearGradient
       inkscape:collect="always"
       xlink:href="#linearGradient3558"
       id="linearGradient3564"
       x1="93.242035"
       y1="1027.2615"
       x2="93.242035"
       y2="980.7262"
       gradientUnits="userSpaceOnUse" />
    <linearGradient
       inkscape:collect="always"
       xlink:href="#linearGradient3558"
       id="linearGradient4350"
       gradientUnits="userSpaceOnUse"
       x1="93.242035"
       y1="1027.2615"
       x2="93.242035"
       y2="980.7262" />
    <linearGradient
       inkscape:collect="always"
       xlink:href="#linearGradient4357"
       id="linearGradient3067"
       gradientUnits="userSpaceOnUse"
       gradientTransform="translate(-206.68129,0)"
       x1="93.242035"
       y1="1027.2615"
       x2="93.242035"
       y2="980.7262" />
    <linearGradient
       inkscape:collect="always"
       xlink:href="#linearGradient3083"
       id="linearGradient3071"
       gradientUnits="userSpaceOnUse"
       x1="22.54203"
       y1="1043.3966"
       x2="22.54203"
       y2="964.45898" />
    <linearGradient
       inkscape:collect="always"
       xlink:href="#linearGradient3090"
       id="linearGradient3074"
       gradientUnits="userSpaceOnUse"
       x1="53.796227"
       y1="1046.0226"
       x2="53.796227"
       y2="962.97437" />
    <linearGradient
       inkscape:collect="always"
       xlink:href="#linearGradient3121"
       id="linearGradient3128"
       x1="53.071701"
       y1="-986.98029"
       x2="53.071701"
       y2="-977.33905"
       gradientUnits="userSpaceOnUse"
       gradientTransform="translate(154.32453,1.4490566)" />
  </defs>
  <sodipodi:namedview
     id="base"
     pagecolor="#ffffff"
     bordercolor="#666666"
     borderopacity="1.0"
     inkscape:pageopacity="0.0"
     inkscape:pageshadow="2"
     inkscape:zoom="1.3802083"
     inkscape:cx="27.035347"
     inkscape:cy="103.56114"
     inkscape:document-units="px"
     inkscape:current-layer="layer1"
     showgrid="false"
     inkscape:window-width="1364"
     inkscape:window-height="708"
     inkscape:window-x="0"
     inkscape:window-y="28"
     inkscape:window-maximized="1"
     showguides="true"
     inkscape:guide-bbox="true" />
  <metadata
     id="metadata7">
    <rdf:RDF>
      <cc:Work
         rdf:about="">
        <dc:format>image/svg+xml</dc:format>
        <dc:type
           rdf:resource="http://purl.org/dc/dcmitype/StillImage" />
        <dc:title />
      </cc:Work>
    </rdf:RDF>
  </metadata>
  <g
     inkscape:label="Layer 1"
     inkscape:groupmode="layer"
     id="layer1"
     transform="translate(0,-956.36218)">
    <rect
       style="opacity:0.05;fill:#000000;fill-opacity:1;stroke:none"
       id="rect3826"
       width="89"
       height="89"
       x="3.5"
       y="960.86218"
       rx="10.595235"
       ry="10.595235" />
    <g
       id="g3041">
      <rect
         style="opacity:0.05;fill:#000000;fill-opacity:1;stroke:none"
         id="rect3824"
         width="88"
         height="88"
         x="4"
         y="961.36218"
         rx="10.476188"
         ry="10.476188" />
      <rect
         ry="10.357141"
         rx="10.357141"
         y="961.86218"
         x="4.5"
         height="87"
         width="87"
         id="rect3822"
         style="opacity:0.05;fill:#000000;fill-opacity:1;stroke:none" />
      <rect
         style="opacity:0.1;fill:#000000;fill-opacity:1;stroke:none"
         id="rect3820"
         width="86"
         height="86"
         x="5"
         y="962.36218"
         rx="10.238094"
         ry="10.238094" />
      <rect
         ry="10.119047"
         rx="10.119047"
         y="962.86218"
         x="5.5"
         height="85"
         width="85"
         id="rect3818"
         style="opacity:0.1;fill:#000000;fill-opacity:1;stroke:none" />
      <rect
         style="opacity:0.3;fill:#000000;fill-opacity:1;stroke:none"
         id="rect3131"
         width="84"
         height="84"
         x="6"
         y="963.36218"
         rx="10"
         ry="10" />
    </g>
    <rect
       ry="10"
       rx="10"
       y="962.36218"
       x="6"
       height="84"
       width="84"
       id="rect3036"
       style="fill:url(#linearGradient3074);fill-opacity:1;stroke:none" />
    <rect
       style="fill:url(#linearGradient3071);fill-opacity:1;stroke:none"
       id="rect3034"
       width="82"
       height="82"
       x="7"
       y="963.36218"
       rx="9.7619047"
       ry="9.7619047" />
    <rect
       ry="0"
       rx="0"
       y="993.09296"
       x="7"
       height="28"
       width="82"
       id="rect3586"
       style="fill:#589260;fill-opacity:1;stroke:none" />
    <g
       id="g3322">
      <path
         inkscape:connector-curvature="0"
         id="path3320"
         d="m 27.125,986.39335 c -0.690356,0 -1.297589,0.26634 -1.75,0.71875 -12.496777,12.49678 -12.496777,32.7533 0,45.2501 0.452411,0.4524 1.059644,0.7187 1.75,0.7187 1.380712,0 2.5,-1.088 2.5,-2.4687 0,-0.6903 -0.266339,-1.3289 -0.71875,-1.7813 C 24.020211,1023.9448 21,1017.193 21,1009.7372 c 0,-7.4559 3.020211,-14.20781 7.90625,-19.09385 0.452411,-0.45241 0.71875,-1.05965 0.71875,-1.75 0,-1.38072 -1.119288,-2.5 -2.5,-2.5 z m 41.71875,0 c -0.690355,0 -1.297589,0.26634 -1.75,0.71875 -0.452411,0.45241 -0.75,1.05964 -0.75,1.75 0,0.69036 0.297589,1.32884 0.75,1.78125 C 71.979789,995.52939 75,1002.2813 75,1009.7372 c 0,7.4558 -3.020211,14.2076 -7.90625,19.0937 -0.452411,0.4524 -0.71875,1.091 -0.71875,1.7813 0,1.3807 1.119288,2.5 2.5,2.5 0.690355,0 1.297589,-0.2976 1.75,-0.75 12.496777,-12.4968 12.496778,-32.75332 0,-45.2501 -0.452411,-0.45241 -1.090895,-0.71875 -1.78125,-0.71875 z m -36.4375,5.28125 c -0.689963,0 -1.266597,0.29785 -1.71875,0.75 -9.567845,9.5679 -9.567845,25.0573 0,34.6251 0.452411,0.4524 1.028394,0.75 1.71875,0.75 1.380712,0 2.5,-1.1193 2.5,-2.5 0,-0.6903 -0.235089,-1.3289 -0.6875,-1.7813 -3.528806,-3.5288 -5.71875,-8.3652 -5.71875,-13.75 0,-5.3848 2.189944,-10.28375 5.71875,-13.81255 0.452153,-0.45216 0.6875,-1.09129 0.6875,-1.78125 0,-1.37993 -1.120074,-2.5 -2.5,-2.5 z m 31.125,0 c -0.690355,0 -1.297589,0.29759 -1.75,0.75 -0.452411,0.45242 -0.75,1.05965 -0.75,1.75 0,0.69036 0.297589,1.32884 0.75,1.78125 3.528806,3.5288 5.71875,8.39655 5.71875,13.78135 0,5.3848 -2.189944,10.2524 -5.71875,13.7812 -0.452411,0.4524 -0.75,1.091 -0.75,1.7813 0,1.3807 1.150538,2.5 2.53125,2.5 0.690356,0 1.297589,-0.2976 1.75,-0.75 9.567845,-9.5679 9.567846,-25.0572 0,-34.6251 -0.452411,-0.45241 -1.090894,-0.75 -1.78125,-0.75 z M 37.75,996.9871 c -0.690356,0 -1.328839,0.29759 -1.78125,0.75 -0.113103,0.1131 -0.222646,0.21075 -0.3125,0.34375 -6.194273,6.54175 -6.183502,16.76445 0,23.31255 0.110413,0.1635 0.261293,0.3047 0.40625,0.4375 0.151412,0.1387 0.317842,0.2455 0.5,0.3438 0.18244,0.098 0.35634,0.1991 0.5625,0.25 0.192338,0.047 0.418011,0.062 0.625,0.062 0.344981,0 0.669824,-0.061 0.96875,-0.1875 0.162939,-0.069 0.294395,-0.1497 0.4375,-0.25 0.02483,-0.017 0.03832,-0.046 0.0625,-0.062 0.09329,-0.07 0.198788,-0.1363 0.28125,-0.2188 0.120342,-0.1179 0.217854,-0.2349 0.3125,-0.375 0.09699,-0.1435 0.184178,-0.2748 0.25,-0.4375 0.126507,-0.2991 0.1875,-0.6235 0.1875,-0.9687 0,-0.6904 -0.297589,-1.2976 -0.75,-1.75 -2.171573,-2.1716 -3.5,-5.1863 -3.5,-8.5 0,-3.3137 1.328427,-6.2972 3.5,-8.4688 0.452411,-0.4525 0.75,-1.0909 0.75,-1.7813 0,-1.38071 -1.119288,-2.5 -2.5,-2.5 z m 20.5,0 c -1.380712,0 -2.5,1.11929 -2.5,2.5 0,0.6904 0.266339,1.3288 0.71875,1.7813 2.171573,2.1716 3.53125,5.1551 3.53125,8.4688 0,3.3137 -1.359677,6.3284 -3.53125,8.5 -0.452411,0.4524 -0.71875,1.0596 -0.71875,1.75 0,1.3807 1.119288,2.5 2.5,2.5 0.690356,0 1.297589,-0.2664 1.75,-0.7188 6.528574,-6.5285 6.624065,-17.0263 0.3125,-23.68755 -0.08985,-0.133 -0.199397,-0.23065 -0.3125,-0.34375 -0.452411,-0.45241 -1.059644,-0.75 -1.75,-0.75 z m -10.25,5.75 c -3.865993,0 -7,3.1341 -7,7.0001 0,3.866 3.134007,7 7,7 3.865993,0 7,-3.134 7,-7 0,-3.866 -3.134007,-7.0001 -7,-7.0001 z"
         style="opacity:0.05;fill:#000000;fill-opacity:1;stroke:none" />
      <path
         style="opacity:0.05;fill:#000000;fill-opacity:1;stroke:none"
         d="m 27.125,985.39337 c -0.690356,0 -1.297589,0.26634 -1.75,0.71875 -12.496777,12.49678 -12.496777,32.75328 0,45.25008 0.452411,0.4524 1.059644,0.7187 1.75,0.7187 1.380712,0 2.5,-1.088 2.5,-2.4687 0,-0.6903 -0.266339,-1.3289 -0.71875,-1.7813 C 24.020211,1022.9448 21,1016.193 21,1008.7372 c 0,-7.4559 3.020211,-14.20779 7.90625,-19.09383 0.452411,-0.45241 0.71875,-1.05965 0.71875,-1.75 0,-1.38072 -1.119288,-2.5 -2.5,-2.5 z m 41.71875,0 c -0.690355,0 -1.297589,0.26634 -1.75,0.71875 -0.452411,0.45241 -0.75,1.05964 -0.75,1.75 0,0.69036 0.297589,1.32884 0.75,1.78125 C 71.979789,994.52941 75,1001.2813 75,1008.7372 c 0,7.4558 -3.020211,14.2076 -7.90625,19.0937 -0.452411,0.4524 -0.71875,1.091 -0.71875,1.7813 0,1.3807 1.119288,2.5 2.5,2.5 0.690355,0 1.297589,-0.2976 1.75,-0.75 12.496777,-12.4968 12.496778,-32.7533 0,-45.25008 -0.452411,-0.45241 -1.090895,-0.71875 -1.78125,-0.71875 z m -36.4375,5.28125 c -0.689963,0 -1.266597,0.29785 -1.71875,0.75 -9.567845,9.56788 -9.567845,25.05728 0,34.62508 0.452411,0.4524 1.028394,0.75 1.71875,0.75 1.380712,0 2.5,-1.1193 2.5,-2.5 0,-0.6903 -0.235089,-1.3289 -0.6875,-1.7813 -3.528806,-3.5288 -5.71875,-8.3652 -5.71875,-13.75 0,-5.3848 2.189944,-10.28373 5.71875,-13.81253 0.452153,-0.45216 0.6875,-1.09129 0.6875,-1.78125 0,-1.37993 -1.120074,-2.5 -2.5,-2.5 z m 31.125,0 c -0.690355,0 -1.297589,0.29759 -1.75,0.75 -0.452411,0.45242 -0.75,1.05965 -0.75,1.75 0,0.69036 0.297589,1.32884 0.75,1.78125 3.528806,3.5288 5.71875,8.39653 5.71875,13.78133 0,5.3848 -2.189944,10.2524 -5.71875,13.7812 -0.452411,0.4524 -0.75,1.091 -0.75,1.7813 0,1.3807 1.150538,2.5 2.53125,2.5 0.690356,0 1.297589,-0.2976 1.75,-0.75 9.567845,-9.5679 9.567846,-25.0572 0,-34.62508 -0.452411,-0.45241 -1.090894,-0.75 -1.78125,-0.75 z M 37.75,995.98712 c -0.690356,0 -1.328839,0.29759 -1.78125,0.75 -0.113103,0.1131 -0.222646,0.21075 -0.3125,0.34375 -6.194273,6.54173 -6.183502,16.76443 0,23.31253 0.110413,0.1635 0.261293,0.3047 0.40625,0.4375 0.151412,0.1387 0.317842,0.2455 0.5,0.3438 0.18244,0.098 0.35634,0.1991 0.5625,0.25 0.192338,0.047 0.418011,0.062 0.625,0.062 0.344981,0 0.669824,-0.061 0.96875,-0.1875 0.162939,-0.069 0.294395,-0.1497 0.4375,-0.25 0.02483,-0.017 0.03832,-0.046 0.0625,-0.062 0.09329,-0.07 0.198788,-0.1363 0.28125,-0.2188 0.120342,-0.1179 0.217854,-0.2349 0.3125,-0.375 0.09699,-0.1435 0.184178,-0.2748 0.25,-0.4375 0.126507,-0.2991 0.1875,-0.6235 0.1875,-0.9687 0,-0.6904 -0.297589,-1.2976 -0.75,-1.75 -2.171573,-2.1716 -3.5,-5.1863 -3.5,-8.5 0,-3.3137 1.328427,-6.2972 3.5,-8.4688 0.452411,-0.45244 0.75,-1.09092 0.75,-1.78128 0,-1.38071 -1.119288,-2.5 -2.5,-2.5 z m 20.5,0 c -1.380712,0 -2.5,1.11929 -2.5,2.5 0,0.69036 0.266339,1.32884 0.71875,1.78128 2.171573,2.1716 3.53125,5.1551 3.53125,8.4688 0,3.3137 -1.359677,6.3284 -3.53125,8.5 -0.452411,0.4524 -0.71875,1.0596 -0.71875,1.75 0,1.3807 1.119288,2.5 2.5,2.5 0.690356,0 1.297589,-0.2664 1.75,-0.7188 6.528574,-6.5285 6.624065,-17.0263 0.3125,-23.68753 -0.08985,-0.133 -0.199397,-0.23065 -0.3125,-0.34375 -0.452411,-0.45241 -1.059644,-0.75 -1.75,-0.75 z M 48,1001.7371 c -3.865993,0 -7,3.1341 -7,7.0001 0,3.866 3.134007,7 7,7 3.865993,0 7,-3.134 7,-7 0,-3.866 -3.134007,-7.0001 -7,-7.0001 z"
         id="path3318"
         inkscape:connector-curvature="0" />
      <path
         inkscape:connector-curvature="0"
         id="path3316"
         d="m 27.125,984.39339 c -0.690356,0 -1.297589,0.26634 -1.75,0.71875 -12.496777,12.49678 -12.496777,32.75326 0,45.25006 0.452411,0.4524 1.059644,0.7187 1.75,0.7187 1.380712,0 2.5,-1.088 2.5,-2.4687 0,-0.6903 -0.266339,-1.3289 -0.71875,-1.7813 C 24.020211,1021.9448 21,1015.193 21,1007.7372 c 0,-7.4559 3.020211,-14.20777 7.90625,-19.09381 0.452411,-0.45241 0.71875,-1.05965 0.71875,-1.75 0,-1.38072 -1.119288,-2.5 -2.5,-2.5 z m 41.71875,0 c -0.690355,0 -1.297589,0.26634 -1.75,0.71875 -0.452411,0.45241 -0.75,1.05964 -0.75,1.75 0,0.69036 0.297589,1.32884 0.75,1.78125 C 71.979789,993.52943 75,1000.2813 75,1007.7372 c 0,7.4558 -3.020211,14.2076 -7.90625,19.0937 -0.452411,0.4524 -0.71875,1.091 -0.71875,1.7813 0,1.3807 1.119288,2.5 2.5,2.5 0.690355,0 1.297589,-0.2976 1.75,-0.75 12.496777,-12.4968 12.496778,-32.75328 0,-45.25006 -0.452411,-0.45241 -1.090895,-0.71875 -1.78125,-0.71875 z m -36.4375,5.28125 c -0.689963,0 -1.266597,0.29785 -1.71875,0.75 -9.567845,9.56785 -9.567845,25.05726 0,34.62506 0.452411,0.4524 1.028394,0.75 1.71875,0.75 1.380712,0 2.5,-1.1193 2.5,-2.5 0,-0.6903 -0.235089,-1.3289 -0.6875,-1.7813 -3.528806,-3.5288 -5.71875,-8.3652 -5.71875,-13.75 0,-5.3848 2.189944,-10.28371 5.71875,-13.81251 0.452153,-0.45216 0.6875,-1.09129 0.6875,-1.78125 0,-1.37993 -1.120074,-2.5 -2.5,-2.5 z m 31.125,0 c -0.690355,0 -1.297589,0.29759 -1.75,0.75 -0.452411,0.45242 -0.75,1.05965 -0.75,1.75 0,0.69036 0.297589,1.32884 0.75,1.78125 3.528806,3.5288 5.71875,8.39651 5.71875,13.78131 0,5.3848 -2.189944,10.2524 -5.71875,13.7812 -0.452411,0.4524 -0.75,1.091 -0.75,1.7813 0,1.3807 1.150538,2.5 2.53125,2.5 0.690356,0 1.297589,-0.2976 1.75,-0.75 9.567845,-9.5679 9.567846,-25.05721 0,-34.62506 -0.452411,-0.45241 -1.090894,-0.75 -1.78125,-0.75 z M 37.75,994.98714 c -0.690356,0 -1.328839,0.29759 -1.78125,0.75 -0.113103,0.1131 -0.222646,0.21075 -0.3125,0.34375 -6.194273,6.54171 -6.183502,16.76441 0,23.31251 0.110413,0.1635 0.261293,0.3047 0.40625,0.4375 0.151412,0.1387 0.317842,0.2455 0.5,0.3438 0.18244,0.098 0.35634,0.1991 0.5625,0.25 0.192338,0.047 0.418011,0.062 0.625,0.062 0.344981,0 0.669824,-0.061 0.96875,-0.1875 0.162939,-0.069 0.294395,-0.1497 0.4375,-0.25 0.02483,-0.017 0.03832,-0.046 0.0625,-0.062 0.09329,-0.07 0.198788,-0.1363 0.28125,-0.2188 0.120342,-0.1179 0.217854,-0.2349 0.3125,-0.375 0.09699,-0.1435 0.184178,-0.2748 0.25,-0.4375 0.126507,-0.2991 0.1875,-0.6235 0.1875,-0.9687 0,-0.6904 -0.297589,-1.2976 -0.75,-1.75 -2.171573,-2.1716 -3.5,-5.1863 -3.5,-8.5 0,-3.3137 1.328427,-6.2972 3.5,-8.46881 0.452411,-0.45241 0.75,-1.09089 0.75,-1.78125 0,-1.38071 -1.119288,-2.5 -2.5,-2.5 z m 20.5,0 c -1.380712,0 -2.5,1.11929 -2.5,2.5 0,0.69036 0.266339,1.32884 0.71875,1.78125 C 58.640323,1001.44 60,1004.4235 60,1007.7372 c 0,3.3137 -1.359677,6.3284 -3.53125,8.5 -0.452411,0.4524 -0.71875,1.0596 -0.71875,1.75 0,1.3807 1.119288,2.5 2.5,2.5 0.690356,0 1.297589,-0.2664 1.75,-0.7188 6.528574,-6.5285 6.624065,-17.0263 0.3125,-23.68751 -0.08985,-0.133 -0.199397,-0.23065 -0.3125,-0.34375 -0.452411,-0.45241 -1.059644,-0.75 -1.75,-0.75 z M 48,1000.7371 c -3.865993,0 -7,3.1341 -7,7.0001 0,3.866 3.134007,7 7,7 3.865993,0 7,-3.134 7,-7 0,-3.866 -3.134007,-7.0001 -7,-7.0001 z"
         style="opacity:0.05;fill:#000000;fill-opacity:1;stroke:none" />
      <path
         style="opacity:0.05;fill:#000000;fill-opacity:1;stroke:none"
         d="m 27.125,983.39341 c -0.690356,0 -1.297589,0.26634 -1.75,0.71875 -12.496777,12.49678 -12.496777,32.75324 0,45.25004 0.452411,0.4524 1.059644,0.7187 1.75,0.7187 1.380712,0 2.5,-1.088 2.5,-2.4687 0,-0.6903 -0.266339,-1.3289 -0.71875,-1.7813 C 24.020211,1020.9448 21,1014.193 21,1006.7372 c 0,-7.45592 3.020211,-14.20775 7.90625,-19.09379 0.452411,-0.45241 0.71875,-1.05965 0.71875,-1.75 0,-1.38072 -1.119288,-2.5 -2.5,-2.5 z m 41.71875,0 c -0.690355,0 -1.297589,0.26634 -1.75,0.71875 -0.452411,0.45241 -0.75,1.05964 -0.75,1.75 0,0.69036 0.297589,1.32884 0.75,1.78125 C 71.979789,992.52945 75,999.28128 75,1006.7372 c 0,7.4558 -3.020211,14.2076 -7.90625,19.0937 -0.452411,0.4524 -0.71875,1.091 -0.71875,1.7813 0,1.3807 1.119288,2.5 2.5,2.5 0.690355,0 1.297589,-0.2976 1.75,-0.75 12.496777,-12.4968 12.496778,-32.75326 0,-45.25004 -0.452411,-0.45241 -1.090895,-0.71875 -1.78125,-0.71875 z m -36.4375,5.28125 c -0.689963,0 -1.266597,0.29785 -1.71875,0.75 -9.567845,9.56785 -9.567845,25.05724 0,34.62504 0.452411,0.4524 1.028394,0.75 1.71875,0.75 1.380712,0 2.5,-1.1193 2.5,-2.5 0,-0.6903 -0.235089,-1.3289 -0.6875,-1.7813 -3.528806,-3.5288 -5.71875,-8.3652 -5.71875,-13.75 0,-5.3848 2.189944,-10.28369 5.71875,-13.81249 0.452153,-0.45216 0.6875,-1.09129 0.6875,-1.78125 0,-1.37993 -1.120074,-2.5 -2.5,-2.5 z m 31.125,0 c -0.690355,0 -1.297589,0.29759 -1.75,0.75 -0.452411,0.45242 -0.75,1.05965 -0.75,1.75 0,0.69036 0.297589,1.32884 0.75,1.78125 3.528806,3.5288 5.71875,8.39649 5.71875,13.78129 0,5.3848 -2.189944,10.2524 -5.71875,13.7812 -0.452411,0.4524 -0.75,1.091 -0.75,1.7813 0,1.3807 1.150538,2.5 2.53125,2.5 0.690356,0 1.297589,-0.2976 1.75,-0.75 9.567845,-9.5679 9.567846,-25.05719 0,-34.62504 -0.452411,-0.45241 -1.090894,-0.75 -1.78125,-0.75 z M 37.75,993.98716 c -0.690356,0 -1.328839,0.29759 -1.78125,0.75 -0.113103,0.1131 -0.222646,0.21075 -0.3125,0.34375 -6.194273,6.54169 -6.183502,16.76439 0,23.31249 0.110413,0.1635 0.261293,0.3047 0.40625,0.4375 0.151412,0.1387 0.317842,0.2455 0.5,0.3438 0.18244,0.098 0.35634,0.1991 0.5625,0.25 0.192338,0.047 0.418011,0.062 0.625,0.062 0.344981,0 0.669824,-0.061 0.96875,-0.1875 0.162939,-0.069 0.294395,-0.1497 0.4375,-0.25 0.02483,-0.017 0.03832,-0.046 0.0625,-0.062 0.09329,-0.07 0.198788,-0.1363 0.28125,-0.2188 0.120342,-0.1179 0.217854,-0.2349 0.3125,-0.375 0.09699,-0.1435 0.184178,-0.2748 0.25,-0.4375 0.126507,-0.2991 0.1875,-0.6235 0.1875,-0.9687 0,-0.6904 -0.297589,-1.2976 -0.75,-1.75 -2.171573,-2.1716 -3.5,-5.1863 -3.5,-8.5 0,-3.3137 1.328427,-6.2972 3.5,-8.46879 0.452411,-0.45241 0.75,-1.09089 0.75,-1.78125 0,-1.38071 -1.119288,-2.5 -2.5,-2.5 z m 20.5,0 c -1.380712,0 -2.5,1.11929 -2.5,2.5 0,0.69036 0.266339,1.32884 0.71875,1.78125 C 58.640323,1000.44 60,1003.4235 60,1006.7372 c 0,3.3137 -1.359677,6.3284 -3.53125,8.5 -0.452411,0.4524 -0.71875,1.0596 -0.71875,1.75 0,1.3807 1.119288,2.5 2.5,2.5 0.690356,0 1.297589,-0.2664 1.75,-0.7188 6.528574,-6.5285 6.624065,-17.0263 0.3125,-23.68749 -0.08985,-0.133 -0.199397,-0.23065 -0.3125,-0.34375 -0.452411,-0.45241 -1.059644,-0.75 -1.75,-0.75 z m -10.25,5.75 c -3.865993,0 -7,3.13404 -7,7.00004 0,3.866 3.134007,7 7,7 3.865993,0 7,-3.134 7,-7 0,-3.866 -3.134007,-7.00004 -7,-7.00004 z"
         id="path3314"
         inkscape:connector-curvature="0" />
      <path
         inkscape:connector-curvature="0"
         id="path3303"
         d="m 27.125,982.39343 c -0.690356,0 -1.297589,0.26634 -1.75,0.71875 -12.496777,12.49678 -12.496777,32.75322 0,45.25002 0.452411,0.4524 1.059644,0.7187 1.75,0.7187 1.380712,0 2.5,-1.088 2.5,-2.4687 0,-0.6903 -0.266339,-1.3289 -0.71875,-1.7813 C 24.020211,1019.9448 21,1013.193 21,1005.7372 c 0,-7.4559 3.020211,-14.20773 7.90625,-19.09377 0.452411,-0.45241 0.71875,-1.05965 0.71875,-1.75 0,-1.38072 -1.119288,-2.5 -2.5,-2.5 z m 41.71875,0 c -0.690355,0 -1.297589,0.26634 -1.75,0.71875 -0.452411,0.45241 -0.75,1.05964 -0.75,1.75 0,0.69036 0.297589,1.32884 0.75,1.78125 C 71.979789,991.52947 75,998.2813 75,1005.7372 c 0,7.4558 -3.020211,14.2076 -7.90625,19.0937 -0.452411,0.4524 -0.71875,1.091 -0.71875,1.7813 0,1.3807 1.119288,2.5 2.5,2.5 0.690355,0 1.297589,-0.2976 1.75,-0.75 12.496777,-12.4968 12.496778,-32.75324 0,-45.25002 -0.452411,-0.45241 -1.090895,-0.71875 -1.78125,-0.71875 z m -36.4375,5.28125 c -0.689963,0 -1.266597,0.29785 -1.71875,0.75 -9.567845,9.56785 -9.567845,25.05722 0,34.62502 0.452411,0.4524 1.028394,0.75 1.71875,0.75 1.380712,0 2.5,-1.1193 2.5,-2.5 0,-0.6903 -0.235089,-1.3289 -0.6875,-1.7813 -3.528806,-3.5288 -5.71875,-8.3652 -5.71875,-13.75 0,-5.3848 2.189944,-10.28367 5.71875,-13.81247 0.452153,-0.45216 0.6875,-1.09129 0.6875,-1.78125 0,-1.37993 -1.120074,-2.5 -2.5,-2.5 z m 31.125,0 c -0.690355,0 -1.297589,0.29759 -1.75,0.75 -0.452411,0.45242 -0.75,1.05965 -0.75,1.75 0,0.69036 0.297589,1.32884 0.75,1.78125 3.528806,3.5288 5.71875,8.39647 5.71875,13.78127 0,5.3848 -2.189944,10.2524 -5.71875,13.7812 -0.452411,0.4524 -0.75,1.091 -0.75,1.7813 0,1.3807 1.150538,2.5 2.53125,2.5 0.690356,0 1.297589,-0.2976 1.75,-0.75 9.567845,-9.5679 9.567846,-25.05717 0,-34.62502 -0.452411,-0.45241 -1.090894,-0.75 -1.78125,-0.75 z M 37.75,992.98718 c -0.690356,0 -1.328839,0.29759 -1.78125,0.75 -0.113103,0.1131 -0.222646,0.21075 -0.3125,0.34375 -6.194273,6.54167 -6.183502,16.76437 0,23.31247 0.110413,0.1635 0.261293,0.3047 0.40625,0.4375 0.151412,0.1387 0.317842,0.2455 0.5,0.3438 0.18244,0.098 0.35634,0.1991 0.5625,0.25 0.192338,0.047 0.418011,0.062 0.625,0.062 0.344981,0 0.669824,-0.061 0.96875,-0.1875 0.162939,-0.069 0.294395,-0.1497 0.4375,-0.25 0.02483,-0.017 0.03832,-0.046 0.0625,-0.062 0.09329,-0.07 0.198788,-0.1363 0.28125,-0.2188 0.120342,-0.1179 0.217854,-0.2349 0.3125,-0.375 0.09699,-0.1435 0.184178,-0.2748 0.25,-0.4375 0.126507,-0.2991 0.1875,-0.6235 0.1875,-0.9687 0,-0.6904 -0.297589,-1.2976 -0.75,-1.75 -2.171573,-2.1716 -3.5,-5.1863 -3.5,-8.5 0,-3.3137 1.328427,-6.2972 3.5,-8.46877 0.452411,-0.45241 0.75,-1.09089 0.75,-1.78125 0,-1.38071 -1.119288,-2.5 -2.5,-2.5 z m 20.5,0 c -1.380712,0 -2.5,1.11929 -2.5,2.5 0,0.69036 0.266339,1.32884 0.71875,1.78125 C 58.640323,999.44 60,1002.4235 60,1005.7372 c 0,3.3137 -1.359677,6.3284 -3.53125,8.5 -0.452411,0.4524 -0.71875,1.0596 -0.71875,1.75 0,1.3807 1.119288,2.5 2.5,2.5 0.690356,0 1.297589,-0.2664 1.75,-0.7188 6.528574,-6.5285 6.624065,-17.0263 0.3125,-23.68747 -0.08985,-0.133 -0.199397,-0.23065 -0.3125,-0.34375 -0.452411,-0.45241 -1.059644,-0.75 -1.75,-0.75 z m -10.25,5.75 c -3.865993,0 -7,3.13402 -7,7.00002 0,3.866 3.134007,7 7,7 3.865993,0 7,-3.134 7,-7 0,-3.866 -3.134007,-7.00002 -7,-7.00002 z"
         style="opacity:0.05;fill:#000000;fill-opacity:1;stroke:none" />
    </g>
    <path
       style="fill:#d7dcd8;fill-opacity:1;stroke:none;opacity:0.5"
       d="m 27.125,981.39343 c -0.690356,0 -1.297589,0.26634 -1.75,0.71875 -12.496777,12.49678 -12.496777,32.75322 0,45.25002 0.452411,0.4524 1.059644,0.7187 1.75,0.7187 1.380712,0 2.5,-1.088 2.5,-2.4687 0,-0.6903 -0.266339,-1.3289 -0.71875,-1.7813 C 24.020211,1018.9448 21,1012.193 21,1004.7372 c 0,-7.45588 3.020211,-14.20773 7.90625,-19.09377 0.452411,-0.45241 0.71875,-1.05965 0.71875,-1.75 0,-1.38072 -1.119288,-2.5 -2.5,-2.5 z m 41.71875,0 c -0.690355,0 -1.297589,0.26634 -1.75,0.71875 -0.452411,0.45241 -0.75,1.05964 -0.75,1.75 0,0.69036 0.297589,1.32884 0.75,1.78125 C 71.979789,990.52947 75,997.28132 75,1004.7372 c 0,7.4558 -3.020211,14.2076 -7.90625,19.0937 -0.452411,0.4524 -0.71875,1.091 -0.71875,1.7813 0,1.3807 1.119288,2.5 2.5,2.5 0.690355,0 1.297589,-0.2976 1.75,-0.75 12.496777,-12.4968 12.496778,-32.75324 0,-45.25002 -0.452411,-0.45241 -1.090895,-0.71875 -1.78125,-0.71875 z"
       id="path3072"
       inkscape:connector-curvature="0" />
    <path
       style="fill:#d7dcd8;fill-opacity:1;stroke:none;opacity:0.75"
       d="M 32.40625 30.3125 C 31.716287 30.3125 31.139653 30.61035 30.6875 31.0625 C 21.119655 40.63035 21.119655 56.1197 30.6875 65.6875 C 31.139911 66.1399 31.715894 66.4375 32.40625 66.4375 C 33.786962 66.4375 34.90625 65.3182 34.90625 63.9375 C 34.90625 63.2472 34.671161 62.60865 34.21875 62.15625 C 30.689944 58.62745 28.5 53.79105 28.5 48.40625 C 28.5 43.02145 30.689944 38.12255 34.21875 34.59375 C 34.670903 34.14159 34.90625 33.50246 34.90625 32.8125 C 34.90625 31.43257 33.786176 30.3125 32.40625 30.3125 z M 63.53125 30.3125 C 62.840895 30.3125 62.233661 30.61009 61.78125 31.0625 C 61.328839 31.51492 61.03125 32.12215 61.03125 32.8125 C 61.03125 33.50286 61.328839 34.14134 61.78125 34.59375 C 65.310056 38.12255 67.5 42.9902 67.5 48.375 C 67.5 53.7598 65.310056 58.62745 61.78125 62.15625 C 61.328839 62.60865 61.03125 63.2472 61.03125 63.9375 C 61.03125 65.3182 62.181788 66.4375 63.5625 66.4375 C 64.252856 66.4375 64.860089 66.1399 65.3125 65.6875 C 74.880345 56.1196 74.880346 40.63035 65.3125 31.0625 C 64.860089 30.61009 64.221606 30.3125 63.53125 30.3125 z "
       id="path3205"
       transform="translate(0,956.36218)" />
    <path
       style="fill:#d7dcd8;fill-opacity:1;stroke:none"
       d="M 37.75 35.625 C 37.059644 35.625 36.421161 35.92259 35.96875 36.375 C 35.855647 36.4881 35.746104 36.58575 35.65625 36.71875 C 29.461977 43.26045 29.472748 53.48315 35.65625 60.03125 C 35.766663 60.19475 35.917543 60.33595 36.0625 60.46875 C 36.213912 60.60745 36.380342 60.7142 36.5625 60.8125 C 36.74494 60.9105 36.91884 61.0116 37.125 61.0625 C 37.317338 61.1095 37.543011 61.125 37.75 61.125 C 38.094981 61.125 38.419824 61.064 38.71875 60.9375 C 38.881689 60.8685 39.013145 60.7878 39.15625 60.6875 C 39.18108 60.6705 39.19457 60.642 39.21875 60.625 C 39.31204 60.555 39.417538 60.48875 39.5 60.40625 C 39.620342 60.28835 39.717854 60.17135 39.8125 60.03125 C 39.90949 59.88775 39.996678 59.75645 40.0625 59.59375 C 40.189007 59.29465 40.25 58.9702 40.25 58.625 C 40.25 57.9346 39.952411 57.3274 39.5 56.875 C 37.328427 54.7034 36 51.6887 36 48.375 C 36 45.0613 37.328427 42.07782 39.5 39.90625 C 39.952411 39.45384 40.25 38.81536 40.25 38.125 C 40.25 36.74429 39.130712 35.625 37.75 35.625 z M 58.25 35.625 C 56.869288 35.625 55.75 36.74429 55.75 38.125 C 55.75 38.81536 56.016339 39.45384 56.46875 39.90625 C 58.640323 42.07782 60 45.0613 60 48.375 C 60 51.6887 58.640323 54.7034 56.46875 56.875 C 56.016339 57.3274 55.75 57.9346 55.75 58.625 C 55.75 60.0057 56.869288 61.125 58.25 61.125 C 58.940356 61.125 59.547589 60.85865 60 60.40625 C 66.528574 53.87775 66.624065 43.37992 60.3125 36.71875 C 60.22265 36.58575 60.113103 36.4881 60 36.375 C 59.547589 35.92259 58.940356 35.625 58.25 35.625 z "
       transform="translate(0,956.36218)"
       id="path3221" />
    <path
       sodipodi:type="arc"
       style="fill:#e6e8e4;fill-opacity:1;stroke:none"
       id="path3235"
       sodipodi:cx="-30.226814"
       sodipodi:cy="50.147461"
       sodipodi:rx="37.399281"
       sodipodi:ry="37.399281"
       d="m 7.1724663,50.147461 a 37.399281,37.399281 0 1 1 -74.7985613,0 37.399281,37.399281 0 1 1 74.7985613,0 z"
       transform="matrix(0.18716937,0,0,0.18716937,53.647671,995.35997)" />
    <path
       style="fill:#d6ddd3;fill-opacity:1;stroke:none"
       d="m 42.816,1016.3622 10.368,0 3.816,30 -18,0 z"
       id="rect3263"
       inkscape:connector-curvature="0"
       sodipodi:nodetypes="ccccc" />
  </g>
</svg>
