<?xml version="1.0" encoding="UTF-8" standalone="no"?>
<svg
   xmlns:dc="http://purl.org/dc/elements/1.1/"
   xmlns:cc="http://creativecommons.org/ns#"
   xmlns:rdf="http://www.w3.org/1999/02/22-rdf-syntax-ns#"
   xmlns:svg="http://www.w3.org/2000/svg"
   xmlns="http://www.w3.org/2000/svg"
   xmlns:xlink="http://www.w3.org/1999/xlink"
   xmlns:sodipodi="http://sodipodi.sourceforge.net/DTD/sodipodi-0.dtd"
   xmlns:inkscape="http://www.inkscape.org/namespaces/inkscape"
   contentScriptType="text/ecmascript"
   contentStyleType="text/css"
   height="96"
   preserveAspectRatio="xMidYMid meet"
   version="1.1"
   viewBox="0 0 96 96"
   width="96"
   zoomAndPan="magnify"
   id="svg2"
   inkscape:version="0.91 r13725"
   sodipodi:docname="org.gnome.Weather.Application.svg">
  <metadata
     id="metadata156">
    <rdf:RDF>
      <cc:Work
         rdf:about="">
        <dc:format>image/svg+xml</dc:format>
        <dc:type
           rdf:resource="http://purl.org/dc/dcmitype/StillImage" />
      </cc:Work>
    </rdf:RDF>
  </metadata>
  <sodipodi:namedview
     pagecolor="#ffffff"
     bordercolor="#666666"
     borderopacity="1"
     objecttolerance="10"
     gridtolerance="10"
     guidetolerance="10"
     inkscape:pageopacity="0"
     inkscape:pageshadow="2"
     inkscape:window-width="1332"
     inkscape:window-height="714"
     id="namedview154"
     showgrid="false"
     inkscape:zoom="3.4766083"
     inkscape:cx="70.486907"
     inkscape:cy="46.867596"
     inkscape:window-x="34"
     inkscape:window-y="28"
     inkscape:window-maximized="1"
     inkscape:current-layer="svg2" />
  <defs
     id="defs4">
    <linearGradient
       id="linearGradient4315">
      <stop
         offset="0"
         stop-color="#65717d"
         stop-opacity="0.23387097"
         id="stop7" />
      <stop
         offset="1"
         stop-color="#cde0e5"
         stop-opacity="0"
         id="stop9" />
    </linearGradient>
    <linearGradient
       id="linearGradient4263">
      <stop
         offset="0"
         stop-color="#b8c9db"
         stop-opacity="1"
         id="stop12" />
      <stop
         offset="0.14031515"
         stop-color="#c8d8e7"
         stop-opacity="1"
         id="stop14" />
      <stop
         offset="0.54972392"
         stop-color="#fbfcfe"
         stop-opacity="1"
         id="stop16" />
      <stop
         offset="1"
         stop-color="#fdfeff"
         stop-opacity="1"
         id="stop18" />
    </linearGradient>
    <linearGradient
       id="linearGradient20">
      <stop
         offset="0"
         stop-color="#fefefc"
         stop-opacity="1"
         id="stop22" />
      <stop
         offset="1"
         stop-color="#c7d7e4"
         stop-opacity="1"
         id="stop24" />
    </linearGradient>
    <linearGradient
       id="linearGradient26">
      <stop
         offset="0"
         stop-color="#fbfcff"
         stop-opacity="1"
         id="stop28" />
      <stop
         offset="1"
         stop-color="#c4d7e8"
         stop-opacity="1"
         id="stop30" />
    </linearGradient>
    <linearGradient
       id="linearGradient3338">
      <stop
         offset="0"
         stop-color="#cbedff"
         stop-opacity="1"
         id="stop33" />
      <stop
         offset="1"
         stop-color="#f3ffff"
         stop-opacity="1"
         id="stop35" />
    </linearGradient>
    <linearGradient
       id="linearGradient4037">
      <stop
         offset="0"
         stop-color="#826bd3"
         stop-opacity="1"
         id="stop38" />
      <stop
         offset="1"
         stop-color="#f6f0ff"
         stop-opacity="1"
         id="stop40" />
    </linearGradient>
    <linearGradient
       id="linearGradient4011">
      <stop
         offset="0"
         stop-color="#50abfa"
         stop-opacity="1"
         id="stop43" />
      <stop
         offset="0.55184597"
         stop-color="#44a2fa"
         stop-opacity="1"
         id="stop45" />
      <stop
         offset="1"
         stop-color="#257ae7"
         stop-opacity="1"
         id="stop47" />
    </linearGradient>
    <linearGradient
       id="linearGradient3927">
      <stop
         offset="0"
         stop-color="#4789d3"
         stop-opacity="1"
         id="stop50" />
      <stop
         offset="1"
         stop-color="#5b9ae7"
         stop-opacity="1"
         id="stop52" />
    </linearGradient>
    <linearGradient
       id="linearGradient54">
      <stop
         offset="0"
         stop-color="#b5492f"
         stop-opacity="1"
         id="stop56" />
      <stop
         offset="1"
         stop-color="#c6513d"
         stop-opacity="1"
         id="stop58" />
    </linearGradient>
    <linearGradient
       gradientTransform="translate(0.00335007,-956.3622)"
       gradientUnits="userSpaceOnUse"
       id="linearGradient3933"
       x1="19.697975"
       x2="19.697975"
       y1="1030.4402"
       y2="962.12079">
      <stop
         offset="0"
         stop-color="#4789d3"
         stop-opacity="1"
         id="stop61" />
      <stop
         offset="1"
         stop-color="#5b9ae7"
         stop-opacity="1"
         id="stop63" />
    </linearGradient>
    <linearGradient
       gradientUnits="userSpaceOnUse"
       id="linearGradient65"
       x1="-262.89221"
       x2="-251.0229"
       y1="31.855312"
       y2="61.654812">
      <stop
         offset="0"
         stop-color="#826bd3"
         stop-opacity="1"
         id="stop67" />
      <stop
         offset="1"
         stop-color="#f6f0ff"
         stop-opacity="1"
         id="stop69" />
    </linearGradient>
    <linearGradient
       gradientUnits="userSpaceOnUse"
       id="linearGradient71"
       x1="-286.78571"
       x2="-236.42857"
       y1="47.607143"
       y2="47.607143">
      <stop
         offset="0"
         stop-color="#826bd3"
         stop-opacity="1"
         id="stop73" />
      <stop
         offset="1"
         stop-color="#f6f0ff"
         stop-opacity="1"
         id="stop75" />
    </linearGradient>
    <linearGradient
       gradientUnits="userSpaceOnUse"
       id="linearGradient4120"
       x1="53.831398"
       x2="53.831398"
       y1="1003.8823"
       y2="979.44153">
      <stop
         offset="0"
         stop-color="#cbedff"
         stop-opacity="1"
         id="stop78" />
      <stop
         offset="1"
         stop-color="#f3ffff"
         stop-opacity="1"
         id="stop80" />
    </linearGradient>
    <linearGradient
       gradientTransform="matrix(0.96592583,0.25881905,-0.25881905,0.96592583,9.0086625,-16.67759)"
       gradientUnits="userSpaceOnUse"
       id="linearGradient4130"
       x1="68.148376"
       x2="68.148376"
       y1="29.570372"
       y2="21.945421">
      <stop
         offset="0"
         stop-color="#cbedff"
         stop-opacity="1"
         id="stop83" />
      <stop
         offset="1"
         stop-color="#f3ffff"
         stop-opacity="1"
         id="stop85" />
    </linearGradient>
    <linearGradient
       gradientUnits="userSpaceOnUse"
       id="linearGradient4269"
       x1="48.487324"
       x2="48.487324"
       y1="89.554047"
       y2="55.802475">
      <stop
         offset="0"
         stop-color="#b8c9db"
         stop-opacity="1"
         id="stop88" />
      <stop
         offset="0.14031515"
         stop-color="#c8d8e7"
         stop-opacity="1"
         id="stop90" />
      <stop
         offset="0.54972392"
         stop-color="#fbfcfe"
         stop-opacity="1"
         id="stop92" />
      <stop
         offset="1"
         stop-color="#fdfeff"
         stop-opacity="1"
         id="stop94" />
    </linearGradient>
    <radialGradient
       cx="27.486616"
       cy="1033.1614"
       fx="27.486616"
       fy="1033.1614"
       gradientTransform="matrix(0.81809584,-0.81809191,0.80480081,0.80480081,-804.33281,-750.50248)"
       gradientUnits="userSpaceOnUse"
       id="radialGradient4279"
       r="41">
      <stop
         offset="0"
         stop-color="#50abfa"
         stop-opacity="1"
         id="stop97" />
      <stop
         offset="0.55184597"
         stop-color="#44a2fa"
         stop-opacity="1"
         id="stop99" />
      <stop
         offset="1"
         stop-color="#257ae7"
         stop-opacity="1"
         id="stop101" />
    </radialGradient>
    <linearGradient
       gradientUnits="userSpaceOnUse"
       id="linearGradient103"
       x1="48.487324"
       x2="48.487324"
       y1="89.554047"
       y2="55.802475">
      <stop
         offset="0"
         stop-color="#b8c9db"
         stop-opacity="1"
         id="stop105" />
      <stop
         offset="0.14031515"
         stop-color="#c8d8e7"
         stop-opacity="1"
         id="stop107" />
      <stop
         offset="0.54972392"
         stop-color="#fbfcfe"
         stop-opacity="1"
         id="stop109" />
      <stop
         offset="1"
         stop-color="#fdfeff"
         stop-opacity="1"
         id="stop111" />
    </linearGradient>
    <linearGradient
       gradientUnits="userSpaceOnUse"
       id="linearGradient4323"
       x1="22.321428"
       x2="22.321428"
       y1="89.571426"
       y2="76.984703">
      <stop
         offset="0"
         stop-color="#65717d"
         stop-opacity="0.23387097"
         id="stop114" />
      <stop
         offset="1"
         stop-color="#cde0e5"
         stop-opacity="0"
         id="stop116" />
    </linearGradient>
    <linearGradient
       id="linearGradient3222"
       inkscape:collect="always">
      <stop
         id="stop3224"
         offset="0"
         style="stop-color:#de005a;stop-opacity:1" />
      <stop
         id="stop3226"
         offset="1"
         style="stop-color:#a30444;stop-opacity:1" />
    </linearGradient>
    <linearGradient
       inkscape:collect="always"
       id="linearGradient3076">
      <stop
         style="stop-color:#ffe7f7;stop-opacity:1"
         offset="0"
         id="stop3078" />
      <stop
         style="stop-color:#ffc3ef;stop-opacity:1"
         offset="1"
         id="stop3080" />
    </linearGradient>
    <linearGradient
       id="linearGradient3048"
       inkscape:collect="always">
      <stop
         id="stop3050"
         offset="0"
         style="stop-color:#c16d16;stop-opacity:1" />
      <stop
         id="stop3052"
         offset="1"
         style="stop-color:#ff8e31;stop-opacity:1" />
    </linearGradient>
    <linearGradient
       id="linearGradient3119"
       inkscape:collect="always">
      <stop
         id="stop3121"
         offset="0"
         style="stop-color:#92948f;stop-opacity:0" />
      <stop
         style="stop-color:#9b9e98;stop-opacity:1"
         offset="0.4283945"
         id="stop3123" />
      <stop
         id="stop3125"
         offset="1"
         style="stop-color:#939690;stop-opacity:0" />
    </linearGradient>
    <linearGradient
       inkscape:collect="always"
       id="linearGradient3073">
      <stop
         style="stop-color:#ffffff;stop-opacity:0"
         offset="0"
         id="stop3075" />
      <stop
         id="stop3085"
         offset="0.45872402"
         style="stop-color:#ffffff;stop-opacity:1" />
      <stop
         style="stop-color:#ffffff;stop-opacity:0"
         offset="1"
         id="stop3083" />
    </linearGradient>
    <linearGradient
       id="linearGradient3047"
       inkscape:collect="always">
      <stop
         id="stop3049"
         offset="0"
         style="stop-color:#000000;stop-opacity:1" />
      <stop
         style="stop-color:#1a1a1a;stop-opacity:1"
         offset="0.06123874"
         id="stop3055" />
      <stop
         id="stop3057"
         offset="0.16480456"
         style="stop-color:#333333;stop-opacity:1" />
      <stop
         style="stop-color:#4d4d4d;stop-opacity:1"
         offset="0.55385184"
         id="stop3059" />
      <stop
         id="stop3051"
         offset="1"
         style="stop-color:#999999;stop-opacity:1" />
    </linearGradient>
    <linearGradient
       inkscape:collect="always"
       id="linearGradient3041">
      <stop
         style="stop-color:#1a1a1a;stop-opacity:1"
         offset="0"
         id="stop3043" />
      <stop
         style="stop-color:#808080;stop-opacity:1"
         offset="1"
         id="stop3045" />
    </linearGradient>
    <linearGradient
       id="linearGradient3029"
       inkscape:collect="always">
      <stop
         id="stop3031"
         offset="0"
         style="stop-color:#333333;stop-opacity:1" />
      <stop
         id="stop3033"
         offset="1"
         style="stop-color:#e0e0dd;stop-opacity:0;" />
    </linearGradient>
    <linearGradient
       gradientTransform="matrix(1.1638085,0,0,1.1638085,-7.862809,-164.23642)"
       gradientUnits="userSpaceOnUse"
       y2="975.33282"
       x2="35.355339"
       y1="1030.3622"
       x1="35.355339"
       id="linearGradient3035"
       xlink:href="#linearGradient3029"
       inkscape:collect="always" />
    <linearGradient
       gradientTransform="matrix(1.1218695,0,0,1.1218695,-5.8497348,-122.18782)"
       y2="975.33282"
       x2="35.355339"
       y1="1030.3622"
       x1="35.355339"
       gradientUnits="userSpaceOnUse"
       id="linearGradient3039"
       xlink:href="#linearGradient3041"
       inkscape:collect="always" />
    <linearGradient
       gradientUnits="userSpaceOnUse"
       y2="972.33325"
       x2="39.285713"
       y1="1043.4336"
       x1="40"
       id="linearGradient3053"
       xlink:href="#linearGradient3047"
       inkscape:collect="always" />
    <linearGradient
       y2="969.24683"
       x2="24.52651"
       y1="978.90387"
       x1="14.869445"
       gradientTransform="translate(0,-956.36218)"
       gradientUnits="userSpaceOnUse"
       id="linearGradient3113"
       xlink:href="#linearGradient3073"
       inkscape:collect="always" />
    <linearGradient
       y2="967.50934"
       x2="26.263966"
       y1="978.62103"
       x1="15.152279"
       gradientTransform="matrix(-1,0,0,1,96,-956.36218)"
       gradientUnits="userSpaceOnUse"
       id="linearGradient3115"
       xlink:href="#linearGradient3073"
       inkscape:collect="always" />
    <linearGradient
       y2="967.86646"
       x2="25.549681"
       y1="980.64136"
       x1="13.131983"
       gradientTransform="translate(0,-956.36218)"
       gradientUnits="userSpaceOnUse"
       id="linearGradient3117"
       xlink:href="#linearGradient3119"
       inkscape:collect="always" />
    <linearGradient
       y2="967.86646"
       x2="25.549681"
       y1="980.64136"
       x1="13.131983"
       gradientTransform="matrix(-1,0,0,1,96,0)"
       gradientUnits="userSpaceOnUse"
       id="linearGradient3129"
       xlink:href="#linearGradient3119"
       inkscape:collect="always" />
    <linearGradient
       gradientUnits="userSpaceOnUse"
       y2="1045.8627"
       x2="49.267925"
       y1="996.57349"
       x1="49.267925"
       id="linearGradient3054"
       xlink:href="#linearGradient3048"
       inkscape:collect="always" />
    <linearGradient
       gradientUnits="userSpaceOnUse"
       y2="1033.5543"
       x2="115.80308"
       y1="985.47241"
       x1="115.80308"
       id="linearGradient3058"
       xlink:href="#linearGradient3048"
       inkscape:collect="always" />
    <linearGradient
       gradientTransform="matrix(1.4144782,0,0,1.4144782,-119.78686,-419.05496)"
       y2="1025.3639"
       x2="115.80308"
       y1="985.47241"
       x1="115.80308"
       gradientUnits="userSpaceOnUse"
       id="linearGradient3055"
       xlink:href="#linearGradient3222"
       inkscape:collect="always" />
    <linearGradient
       y2="1025.3639"
       x2="115.80308"
       y1="985.47241"
       x1="115.80308"
       gradientTransform="matrix(1.4144782,0,0,1.4144782,-119.78686,-417.12598)"
       gradientUnits="userSpaceOnUse"
       id="linearGradient3086"
       xlink:href="#linearGradient3076"
       inkscape:collect="always" />
    <linearGradient
       y2="1025.3639"
       x2="115.80308"
       y1="985.47241"
       x1="115.80308"
       gradientTransform="matrix(1.4144782,0,0,1.4144782,-119.78686,-418.126)"
       gradientUnits="userSpaceOnUse"
       id="linearGradient3091"
       xlink:href="#linearGradient3076"
       inkscape:collect="always" />
    <linearGradient
       y2="1025.3639"
       x2="115.80308"
       y1="985.47241"
       x1="115.80308"
       gradientTransform="matrix(1.4144782,0,0,1.4144782,-119.78686,-1375.4171)"
       gradientUnits="userSpaceOnUse"
       id="linearGradient3093"
       xlink:href="#linearGradient3076"
       inkscape:collect="always" />
    <linearGradient
       inkscape:collect="always"
       xlink:href="#linearGradient4120"
       id="linearGradient4459"
       gradientUnits="userSpaceOnUse"
       x1="53.831398"
       y1="1003.8823"
       x2="53.831398"
       y2="979.44153"
       gradientTransform="translate(0,-956.3622)" />
    <linearGradient
       inkscape:collect="always"
       xlink:href="#linearGradient4120"
       id="linearGradient4461"
       gradientUnits="userSpaceOnUse"
       x1="53.831398"
       y1="1003.8823"
       x2="53.831398"
       y2="979.44153"
       gradientTransform="translate(0,-956.3622)" />
    <linearGradient
       inkscape:collect="always"
       xlink:href="#linearGradient4323"
       id="linearGradient4501"
       gradientUnits="userSpaceOnUse"
       x1="22.321428"
       y1="89.571426"
       x2="22.321428"
       y2="76.984703" />
  </defs>
  <rect
     style="opacity:0.05;fill:#000000;fill-opacity:1;stroke:none"
     id="rect3826"
     width="89"
     height="89"
     x="3.5"
     y="4.5000024"
     rx="10.595235"
     ry="10.595235" />
  <rect
     ry="10.476188"
     rx="10.476188"
     y="5.0000024"
     x="4"
     height="88"
     width="88"
     id="rect3824"
     style="opacity:0.05;fill:#000000;fill-opacity:1;stroke:none" />
  <rect
     style="opacity:0.05;fill:#000000;fill-opacity:1;stroke:none"
     id="rect3822"
     width="87"
     height="87"
     x="4.5"
     y="5.5000024"
     rx="10.357141"
     ry="10.357141" />
  <rect
     ry="10.238094"
     rx="10.238094"
     y="6.0000024"
     x="5"
     height="86"
     width="86"
     id="rect3820"
     style="opacity:0.1;fill:#000000;fill-opacity:1;stroke:none" />
  <rect
     style="opacity:0.1;fill:#000000;fill-opacity:1;stroke:none"
     id="rect3818"
     width="85"
     height="85"
     x="5.5"
     y="6.5000024"
     rx="10.119047"
     ry="10.119047" />
  <rect
     ry="10"
     rx="10"
     y="7.0000024"
     x="6"
     height="84"
     width="84"
     id="rect3131"
     style="opacity:0.3;fill:#000000;fill-opacity:1;stroke:none" />
  <path
     style="fill:url(#linearGradient3933);fill-opacity:1;stroke:none"
     d="M 16 6 C 10.46 6 6 10.46 6 16 L 6 20.970703 L 6 75.029297 L 6 80 C 6 85.54 10.46 90 16 90 L 20.970703 90 L 75.029297 90 L 80 90 C 85.54 90 90 85.54 90 80 L 90 75.029297 L 90 20.970703 L 90 16 C 90 10.46 85.54 6 80 6 L 75.029297 6 L 20.970703 6 L 16 6 z "
     id="rect126" />
  <path
     style="fill:url(#radialGradient4279);fill-opacity:1;stroke:none"
     d="M 16.761719 7 C 11.353624 7 7 11.353624 7 16.761719 L 7 21.642578 L 7 74.357422 L 7 79.238281 C 7 84.646376 11.353624 89 16.761719 89 L 21.642578 89 L 74.357422 89 L 79.238281 89 C 84.646376 89 89 84.646376 89 79.238281 L 89 74.357422 L 89 21.642578 L 89 16.761719 C 89 11.353624 84.646376 7 79.238281 7 L 74.357422 7 L 21.642578 7 L 16.761719 7 z "
     id="rect128" />
  <path
     style="fill:#8bc8ff;fill-opacity:1;stroke:none;stroke-opacity:1"
     inkscape:connector-curvature="0"
     id="path130"
     d="m 40.010358,74.75 c 0,7.199425 -5.836287,13.03571 -13.035717,13.03571 -7.199425,0 -13.03571,-5.836285 -13.03571,-13.03571 0,-7.199425 5.836285,-13.035713 13.03571,-13.035713 7.199424,0 13.035713,5.836288 13.035713,13.035713 z" />
  <path
     style="fill:#000000;fill-opacity:1;stroke:none;stroke-opacity:0.1;opacity:0.1"
     inkscape:connector-curvature="0"
     id="path132"
     d="m 67.3125,20.875 c -2.52128,0.25605 -4.46875,2.411163 -4.46875,5 0,2.761423 2.23858,5 5,5 2.76143,0 5,-2.238577 5,-5 0,-2.761423 -2.23857,-5 -5,-5 -0.17259,0 -0.36317,-0.01707 -0.53125,0 z m 0.53125,3.96875 c 0.55974,0 1,0.47151 1,1.03125 0,0.55974 -0.44026,1 -1,1 -0.559746,0 -1.03125,-0.44026 -1.03125,-1 0,-0.55974 0.471504,-1.03125 1.03125,-1.03125 z" />
  <path
     style="fill:#000000;fill-opacity:1;stroke:none;stroke-opacity:0.1;opacity:0.1"
     inkscape:connector-curvature="0"
     id="path134"
     d="m 52.660374,21.75 c -5.237412,0 -9.845914,3.468 -9.776787,8.84373 l 0.03125,0.0937 c -0.0238,0.2932 -0.03954,0.60024 -0.03125,0.9063 l 0.03125,0.0937 2,0 3.0625,0 2,0 c 0.07378,-2.06516 0.501079,-4.03156 2.53125,-4.03156 1.843813,0 2.390203,1.9626 2.1875,2.71906 -0.07755,0.65711 -0.335087,1.36344 -0.75,2.125 -0.498427,0.92529 -1.332687,1.68464 -2.53125,3.02744 l -8.53125,8.9375 0,1.3789 0,1.9062 0,1 2,0 15,0 2,0 0,-2 0,-1.875 0,-2.00004 -8.441944,0 2.53125,-2.875 c 2.017391,-2.15521 3.431152,-3.84381 4.25,-5.0625 1.428173,-1.88406 1.67857,-3.53396 1.67857,-5.39286 0,-5.38155 -4.483273,-7.79464 -9.241093,-7.79464 z" />
  <path
     style="fill:#000000;fill-opacity:1;stroke:none;stroke-opacity:0.1;opacity:0.1"
     inkscape:connector-curvature="0"
     id="path136"
     d="m 32.05459,21.75 -3.897367,6.65623 5.351364,0 0,20.34377 2,0 2.40625,0 2,0 0,-25 0,-2 z" />
  <path
     inkscape:connector-curvature="0"
     style="fill:url(#linearGradient4459);fill-opacity:1;stroke:none"
     id="path138"
     d="m 38.923298,47.7572 -4.423988,0 0,-20.3453 -4.576014,-2.4e-4 2.76779,-4.65466 6.232212,0 0,25.0002" />
  <path
     inkscape:connector-curvature="0"
     style="fill:url(#linearGradient4461);fill-opacity:1;stroke:none"
     id="path140"
     d="m 60.8728,47.7572 -16.98012,0 0,-2.9172 8.509847,-8.948 c 1.198563,-1.34276 2.047063,-2.4768 2.54549,-3.4021 0.510273,-0.9366 0.765415,-1.7941 0.765427,-2.57274 -1.4e-5,-1.01556 -0.267024,-1.82801 -0.801029,-2.43736 -0.534031,-0.60933 -1.335055,-0.914 -2.403085,-0.914 -1.12738,0 -1.99961,0.3893 -2.61669,1.1679 -0.617097,0.7786 -0.92564,1.766 -0.925633,2.9621 l -5.055377,0 -0.03561,-0.1016 c -0.05934,-2.18907 0.70015,-4.03965 2.278475,-5.55174 1.578315,-1.52331 3.696591,-2.28496 6.354825,-2.28506 2.658214,0 4.723083,0.6489 6.194618,1.9465 1.4715,1.2864 2.207256,3.0185 2.207275,5.1963 -1.9e-5,1.4782 -0.415367,2.82665 -1.246043,4.04534 -0.81885,1.21866 -2.23696,2.90566 -4.25435,5.06091 l -4.27215,4.87455 9.73412,0 0,3.8766" />
  <path
     inkscape:connector-curvature="0"
     style="fill:url(#linearGradient4130);fill-opacity:1;stroke:none"
     id="path142"
     d="m 68.87902,22.0113 c -2.133865,-0.5718 -4.32721,0.69455 -4.89898,2.8284 -0.57177,2.13385 0.69457,4.3272 2.82843,4.899 2.13387,0.57177 4.32721,-0.6946 4.89898,-2.82844 0.57177,-2.13386 -0.694564,-4.32721 -2.82843,-4.89896 z m -0.50955,1.90165 c 1.07407,0.28775 1.69392,1.40555 1.40613,2.47965 -0.2878,1.0741 -1.375415,1.70205 -2.4495,1.4142 -1.07407,-0.2878 -1.7322,-1.3835 -1.44439,-2.4576 0.28779,-1.0741 1.413685,-1.7241 2.48776,-1.4363 z" />
  <path
     style="fill:#ffffff"
     inkscape:connector-curvature="0"
     id="path144"
     d="m 52.5,22.75 c -2.658234,2e-5 -4.765434,0.75793 -6.34375,2.28125 -1.578323,1.51209 -2.34059,3.37341 -2.28125,5.5625 l 0.03125,0.09375 c 0.146618,-1.800074 0.89325,-3.356434 2.25,-4.65625 1.578316,-1.52332 3.685516,-2.28123 6.34375,-2.28125 2.658215,2e-5 4.747215,0.67111 6.21875,1.96875 1.33701,1.168827 2.03404,2.689009 2.15625,4.59375 0.0072,-0.135176 0.03125,-0.268831 0.03125,-0.40625 -2e-5,-2.17781 -0.716,-3.9011 -2.1875,-5.1875 C 57.247215,23.42111 55.158215,22.75002 52.5,22.75 Z m 3.1875,7.625 c -0.07755,0.657104 -0.335087,1.363464 -0.75,2.125 -0.49843,0.9253 -1.332687,2.06347 -2.53125,3.40625 l -8.5,8.9375 0,1 8.5,-8.9375 C 53.604816,35.56347 54.43907,34.4253 54.9375,33.5 c 0.510273,-0.93656 0.781235,-1.81514 0.78125,-2.59375 -4e-6,-0.1872 -0.0131,-0.357853 -0.03125,-0.53125 z M 52,43.875 l -0.875,1 9.75,0 0,-1 -8.875,0 z" />
  <path
     style="fill:#ffffff"
     inkscape:connector-curvature="0"
     id="path146"
     d="m 32.6875,22.75 -2.75,4.65625 0.59375,0 2.15625,-3.65625 6.25,0 0,-1 -6.25,0 z" />
  <path
     style="fill:#94c4f2;fill-opacity:1;stroke:none;stroke-opacity:1"
     inkscape:connector-curvature="0"
     id="path148"
     d="m 76.617507,73.14286 c 0,7.199425 -5.836287,13.03571 -13.035717,13.03571 -7.199425,0 -13.03571,-5.836285 -13.03571,-13.03571 0,-7.199425 5.836285,-13.035713 13.03571,-13.035713 7.199424,0 13.035713,5.836288 13.035713,13.035713 z" />
  <path
     style="fill:url(#linearGradient4269);fill-opacity:1;stroke:none"
     d="M 45.8125 54.21875 C 35.9412 54.21875 27.477654 60.312603 24 68.9375 C 21.998688 67.21917 19.404133 66.15625 16.5625 66.15625 C 11.768736 66.15625 7.69082 69.1251 6 73.3125 L 6 74.779297 L 6 75.03125 L 6 75.34375 L 6 80 C 6 85.54 10.46 90 16 90 L 20.65625 90 L 20.970703 90 L 25.8125 90 L 75.029297 90 L 75.03125 90 L 75.5625 90 L 80 90 C 85.54 90 90 85.54 90 80 L 90 75.667969 L 89.992188 75.667969 C 89.993679 75.632432 89.998755 75.598103 90 75.5625 C 89.721375 67.96748 83.47561 61.90625 75.8125 61.90625 C 72.02616 61.90625 68.58222 63.39782 66.03125 65.8125 C 61.955585 58.87456 54.44656 54.21875 45.8125 54.21875 z "
     id="path150" />
  <path
     style="fill:url(#linearGradient4501);fill-opacity:1;stroke:none"
     d="M 7 71.40625 C 6.6127625 72.00809 6.27126 72.64071 6 73.3125 L 6.0625 79.876953 C 6.0625 86.127892 10.570023 89.9375 15.986328 89.9375 C 16.389692 89.97063 20.24414 90 20.65625 90 C 20.761332 90.0022 20.863134 90 20.96875 90 L 25.8125 90 L 28.03125 90 L 42.710938 90 L 53.289062 90 L 67.96875 90 L 70.1875 90 L 75.03125 90 C 75.136866 90 75.238668 90.0022 75.34375 90 C 75.75586 90 79.610308 89.97063 80.013672 89.9375 C 85.429977 89.9375 89.9375 86.127892 89.9375 79.876953 L 90 73.3125 C 89.72874 72.64071 89.387237 72.00809 89 71.40625 L 89 79.376953 C 89 85.963674 84.133826 89 78.869141 89 L 53.289062 89 L 42.710938 89 L 17.130859 89 C 11.866174 89 7 85.963674 7 79.376953 L 7 71.40625 z "
     id="path152" />
</svg>
