<?xml version="1.0" encoding="UTF-8" standalone="no"?>
<!-- Created with Inkscape (http://www.inkscape.org/) -->

<svg
   xmlns:dc="http://purl.org/dc/elements/1.1/"
   xmlns:cc="http://creativecommons.org/ns#"
   xmlns:rdf="http://www.w3.org/1999/02/22-rdf-syntax-ns#"
   xmlns:svg="http://www.w3.org/2000/svg"
   xmlns="http://www.w3.org/2000/svg"
   xmlns:xlink="http://www.w3.org/1999/xlink"
   xmlns:sodipodi="http://sodipodi.sourceforge.net/DTD/sodipodi-0.dtd"
   xmlns:inkscape="http://www.inkscape.org/namespaces/inkscape"
   width="96"
   height="96"
   id="svg2"
   version="1.1"
   inkscape:version="0.48.4 r9939"
   sodipodi:docname="preferences-system-network.svg">
  <defs
     id="defs4">
    <linearGradient
       inkscape:collect="always"
       id="linearGradient3121">
      <stop
         style="stop-color:#e3e5e4;stop-opacity:1"
         offset="0"
         id="stop3124" />
      <stop
         style="stop-color:#eaebe5;stop-opacity:1"
         offset="1"
         id="stop3126" />
    </linearGradient>
    <linearGradient
       inkscape:collect="always"
       id="linearGradient3090">
      <stop
         style="stop-color:#486553;stop-opacity:1"
         offset="0"
         id="stop3092" />
      <stop
         style="stop-color:#52815d;stop-opacity:1"
         offset="1"
         id="stop3094" />
    </linearGradient>
    <linearGradient
       id="linearGradient3083"
       inkscape:collect="always">
      <stop
         id="stop3086"
         offset="0"
         style="stop-color:#54805e;stop-opacity:1" />
      <stop
         id="stop3088"
         offset="1"
         style="stop-color:#52895f;stop-opacity:1" />
    </linearGradient>
    <inkscape:perspective
       sodipodi:type="inkscape:persp3d"
       inkscape:vp_x="0 : 48 : 1"
       inkscape:vp_y="0 : 1000 : 0"
       inkscape:vp_z="96 : 48 : 1"
       inkscape:persp3d-origin="48 : 32 : 1"
       id="perspective3054" />
    <linearGradient
       id="linearGradient4357"
       inkscape:collect="always">
      <stop
         id="stop4359"
         offset="0"
         style="stop-color:#ded3d6;stop-opacity:1" />
      <stop
         id="stop4361"
         offset="1"
         style="stop-color:#f7ebef;stop-opacity:1" />
    </linearGradient>
    <linearGradient
       inkscape:collect="always"
       id="linearGradient3558">
      <stop
         style="stop-color:#ded3d6;stop-opacity:1"
         offset="0"
         id="stop3560" />
      <stop
         style="stop-color:#efebef;stop-opacity:1"
         offset="1"
         id="stop3562" />
    </linearGradient>
    <linearGradient
       id="linearGradient3076"
       inkscape:collect="always">
      <stop
         id="stop3078"
         offset="0"
         style="stop-color:#ffe7f7;stop-opacity:1" />
      <stop
         id="stop3080"
         offset="1"
         style="stop-color:#ffc3ef;stop-opacity:1" />
    </linearGradient>
    <linearGradient
       inkscape:collect="always"
       id="linearGradient3048">
      <stop
         style="stop-color:#c16d16;stop-opacity:1"
         offset="0"
         id="stop3050" />
      <stop
         style="stop-color:#ff8e31;stop-opacity:1"
         offset="1"
         id="stop3052" />
    </linearGradient>
    <linearGradient
       inkscape:collect="always"
       id="linearGradient3119">
      <stop
         style="stop-color:#92948f;stop-opacity:0"
         offset="0"
         id="stop3121" />
      <stop
         id="stop3123"
         offset="0.4283945"
         style="stop-color:#9b9e98;stop-opacity:1" />
      <stop
         style="stop-color:#939690;stop-opacity:0"
         offset="1"
         id="stop3125" />
    </linearGradient>
    <linearGradient
       id="linearGradient3073"
       inkscape:collect="always">
      <stop
         id="stop3075"
         offset="0"
         style="stop-color:#ffffff;stop-opacity:0" />
      <stop
         style="stop-color:#ffffff;stop-opacity:1"
         offset="0.45872402"
         id="stop3085" />
      <stop
         id="stop3083"
         offset="1"
         style="stop-color:#ffffff;stop-opacity:0" />
    </linearGradient>
    <linearGradient
       inkscape:collect="always"
       id="linearGradient3047">
      <stop
         style="stop-color:#000000;stop-opacity:1"
         offset="0"
         id="stop3049" />
      <stop
         id="stop3055"
         offset="0.06123874"
         style="stop-color:#1a1a1a;stop-opacity:1" />
      <stop
         style="stop-color:#333333;stop-opacity:1"
         offset="0.16480456"
         id="stop3057" />
      <stop
         id="stop3059"
         offset="0.55385184"
         style="stop-color:#4d4d4d;stop-opacity:1" />
      <stop
         style="stop-color:#999999;stop-opacity:1"
         offset="1"
         id="stop3051" />
    </linearGradient>
    <linearGradient
       id="linearGradient3041"
       inkscape:collect="always">
      <stop
         id="stop3043"
         offset="0"
         style="stop-color:#1a1a1a;stop-opacity:1" />
      <stop
         id="stop3045"
         offset="1"
         style="stop-color:#808080;stop-opacity:1" />
    </linearGradient>
    <linearGradient
       inkscape:collect="always"
       id="linearGradient3029">
      <stop
         style="stop-color:#333333;stop-opacity:1"
         offset="0"
         id="stop3031" />
      <stop
         style="stop-color:#e0e0dd;stop-opacity:0;"
         offset="1"
         id="stop3033" />
    </linearGradient>
    <linearGradient
       inkscape:collect="always"
       xlink:href="#linearGradient3029"
       id="linearGradient3035"
       x1="35.355339"
       y1="1030.3622"
       x2="35.355339"
       y2="975.33282"
       gradientUnits="userSpaceOnUse"
       gradientTransform="matrix(1.1638085,0,0,1.1638085,-7.862809,-164.23642)" />
    <linearGradient
       inkscape:collect="always"
       xlink:href="#linearGradient3041"
       id="linearGradient3039"
       gradientUnits="userSpaceOnUse"
       x1="35.355339"
       y1="1030.3622"
       x2="35.355339"
       y2="975.33282"
       gradientTransform="matrix(1.1218695,0,0,1.1218695,-5.8497348,-122.18782)" />
    <linearGradient
       inkscape:collect="always"
       xlink:href="#linearGradient3047"
       id="linearGradient3053"
       x1="40"
       y1="1043.4336"
       x2="39.285713"
       y2="972.33325"
       gradientUnits="userSpaceOnUse" />
    <linearGradient
       inkscape:collect="always"
       xlink:href="#linearGradient3073"
       id="linearGradient3113"
       gradientUnits="userSpaceOnUse"
       gradientTransform="translate(0,-956.36218)"
       x1="14.869445"
       y1="978.90387"
       x2="24.52651"
       y2="969.24683" />
    <linearGradient
       inkscape:collect="always"
       xlink:href="#linearGradient3073"
       id="linearGradient3115"
       gradientUnits="userSpaceOnUse"
       gradientTransform="matrix(-1,0,0,1,96,-956.36218)"
       x1="15.152279"
       y1="978.62103"
       x2="26.263966"
       y2="967.50934" />
    <linearGradient
       inkscape:collect="always"
       xlink:href="#linearGradient3119"
       id="linearGradient3117"
       gradientUnits="userSpaceOnUse"
       gradientTransform="translate(0,-956.36218)"
       x1="13.131983"
       y1="980.64136"
       x2="25.549681"
       y2="967.86646" />
    <linearGradient
       inkscape:collect="always"
       xlink:href="#linearGradient3119"
       id="linearGradient3129"
       gradientUnits="userSpaceOnUse"
       gradientTransform="matrix(-1,0,0,1,96,0)"
       x1="13.131983"
       y1="980.64136"
       x2="25.549681"
       y2="967.86646" />
    <linearGradient
       inkscape:collect="always"
       xlink:href="#linearGradient3048"
       id="linearGradient3054"
       x1="49.267925"
       y1="996.57349"
       x2="49.267925"
       y2="1045.8627"
       gradientUnits="userSpaceOnUse" />
    <linearGradient
       inkscape:collect="always"
       xlink:href="#linearGradient3048"
       id="linearGradient3058"
       x1="115.80308"
       y1="985.47241"
       x2="115.80308"
       y2="1033.5543"
       gradientUnits="userSpaceOnUse" />
    <linearGradient
       inkscape:collect="always"
       xlink:href="#linearGradient3076"
       id="linearGradient3055"
       gradientUnits="userSpaceOnUse"
       x1="115.80308"
       y1="985.47241"
       x2="115.80308"
       y2="1025.3639"
       gradientTransform="matrix(1.4144782,0,0,1.4144782,-119.78686,-419.05496)" />
    <linearGradient
       inkscape:collect="always"
       xlink:href="#linearGradient3076"
       id="linearGradient3086"
       gradientUnits="userSpaceOnUse"
       gradientTransform="matrix(1.4144782,0,0,1.4144782,-119.78686,-417.12598)"
       x1="115.80308"
       y1="985.47241"
       x2="115.80308"
       y2="1025.3639" />
    <linearGradient
       inkscape:collect="always"
       xlink:href="#linearGradient3076"
       id="linearGradient3091"
       gradientUnits="userSpaceOnUse"
       gradientTransform="matrix(1.4144782,0,0,1.4144782,-119.78686,-418.126)"
       x1="115.80308"
       y1="985.47241"
       x2="115.80308"
       y2="1025.3639" />
    <linearGradient
       inkscape:collect="always"
       xlink:href="#linearGradient3076"
       id="linearGradient3093"
       gradientUnits="userSpaceOnUse"
       gradientTransform="matrix(1.4144782,0,0,1.4144782,-119.78686,-1375.4171)"
       x1="115.80308"
       y1="985.47241"
       x2="115.80308"
       y2="1025.3639" />
    <linearGradient
       inkscape:collect="always"
       xlink:href="#linearGradient3558"
       id="linearGradient3564"
       x1="93.242035"
       y1="1027.2615"
       x2="93.242035"
       y2="980.7262"
       gradientUnits="userSpaceOnUse" />
    <linearGradient
       inkscape:collect="always"
       xlink:href="#linearGradient3558"
       id="linearGradient4350"
       gradientUnits="userSpaceOnUse"
       x1="93.242035"
       y1="1027.2615"
       x2="93.242035"
       y2="980.7262" />
    <linearGradient
       inkscape:collect="always"
       xlink:href="#linearGradient4357"
       id="linearGradient3067"
       gradientUnits="userSpaceOnUse"
       gradientTransform="translate(-206.68129,0)"
       x1="93.242035"
       y1="1027.2615"
       x2="93.242035"
       y2="980.7262" />
    <linearGradient
       inkscape:collect="always"
       xlink:href="#linearGradient3083"
       id="linearGradient3071"
       gradientUnits="userSpaceOnUse"
       x1="22.54203"
       y1="1043.3966"
       x2="22.54203"
       y2="964.45898" />
    <linearGradient
       inkscape:collect="always"
       xlink:href="#linearGradient3090"
       id="linearGradient3074"
       gradientUnits="userSpaceOnUse"
       x1="53.796227"
       y1="1046.0226"
       x2="53.796227"
       y2="962.97437" />
    <linearGradient
       inkscape:collect="always"
       xlink:href="#linearGradient3121"
       id="linearGradient3128"
       x1="53.071701"
       y1="-986.98029"
       x2="53.071701"
       y2="-977.33905"
       gradientUnits="userSpaceOnUse" />
  </defs>
  <sodipodi:namedview
     id="base"
     pagecolor="#ffffff"
     bordercolor="#666666"
     borderopacity="1.0"
     inkscape:pageopacity="0.0"
     inkscape:pageshadow="2"
     inkscape:zoom="3.9038186"
     inkscape:cx="-21.565945"
     inkscape:cy="52.588552"
     inkscape:document-units="px"
     inkscape:current-layer="layer1"
     showgrid="false"
     inkscape:window-width="1366"
     inkscape:window-height="712"
     inkscape:window-x="0"
     inkscape:window-y="28"
     inkscape:window-maximized="1"
     showguides="true"
     inkscape:guide-bbox="true" />
  <metadata
     id="metadata7">
    <rdf:RDF>
      <cc:Work
         rdf:about="">
        <dc:format>image/svg+xml</dc:format>
        <dc:type
           rdf:resource="http://purl.org/dc/dcmitype/StillImage" />
        <dc:title />
      </cc:Work>
    </rdf:RDF>
  </metadata>
  <g
     inkscape:label="Layer 1"
     inkscape:groupmode="layer"
     id="layer1"
     transform="translate(0,-956.36218)">
    <rect
       style="opacity:0.05;fill:#000000;fill-opacity:1;stroke:none"
       id="rect3826"
       width="89"
       height="89"
       x="3.5"
       y="960.86218"
       rx="10.595235"
       ry="10.595235" />
    <g
       id="g3041">
      <rect
         style="opacity:0.05;fill:#000000;fill-opacity:1;stroke:none"
         id="rect3824"
         width="88"
         height="88"
         x="4"
         y="961.36218"
         rx="10.476188"
         ry="10.476188" />
      <rect
         ry="10.357141"
         rx="10.357141"
         y="961.86218"
         x="4.5"
         height="87"
         width="87"
         id="rect3822"
         style="opacity:0.05;fill:#000000;fill-opacity:1;stroke:none" />
      <rect
         style="opacity:0.1;fill:#000000;fill-opacity:1;stroke:none"
         id="rect3820"
         width="86"
         height="86"
         x="5"
         y="962.36218"
         rx="10.238094"
         ry="10.238094" />
      <rect
         ry="10.119047"
         rx="10.119047"
         y="962.86218"
         x="5.5"
         height="85"
         width="85"
         id="rect3818"
         style="opacity:0.1;fill:#000000;fill-opacity:1;stroke:none" />
      <rect
         style="opacity:0.3;fill:#000000;fill-opacity:1;stroke:none"
         id="rect3131"
         width="84"
         height="84"
         x="6"
         y="963.36218"
         rx="10"
         ry="10" />
    </g>
    <rect
       ry="10"
       rx="10"
       y="962.36218"
       x="6"
       height="84"
       width="84"
       id="rect3036"
       style="fill:url(#linearGradient3074);fill-opacity:1;stroke:none" />
    <rect
       style="fill:url(#linearGradient3071);fill-opacity:1;stroke:none"
       id="rect3034"
       width="82"
       height="82"
       x="7"
       y="963.36218"
       rx="9.7619047"
       ry="9.7619047" />
    <path
       inkscape:connector-curvature="0"
       style="opacity:0.05;fill:#000000;fill-opacity:1;stroke:none"
       d="m 38.59375,979.3621 0,13.03125 -4.59375,0 0,36.18755 6.125,0 0,4.375 c 0,1.1787 0.946352,2.125 2.125,2.125 l 2.3125,0 0,15.2813 6.875,0 0,-15.2813 2.3125,0 c 1.178648,0 2.125,-0.9463 2.125,-2.125 l 0,-4.375 6.125,0 0,-36.18755 -4.59375,0 0,-13.03125 -18.8125,0 z"
       id="path3087" />
    <rect
       ry="0"
       rx="0"
       y="993.09296"
       x="7"
       height="28"
       width="82"
       id="rect3586"
       style="fill:#589260;fill-opacity:1;stroke:none" />
    <path
       id="path3085"
       d="m 38.59375,978.36212 0,13.03125 -4.59375,0 0,36.18753 6.125,0 0,4.375 c 0,1.1787 0.946352,2.125 2.125,2.125 l 2.3125,0 0,15.2813 6.875,0 0,-15.2813 2.3125,0 c 1.178648,0 2.125,-0.9463 2.125,-2.125 l 0,-4.375 6.125,0 0,-36.18753 -4.59375,0 0,-13.03125 -18.8125,0 z"
       style="opacity:0.05;fill:#000000;fill-opacity:1;stroke:none"
       inkscape:connector-curvature="0" />
    <path
       inkscape:connector-curvature="0"
       style="opacity:0.05;fill:#000000;fill-opacity:1;stroke:none"
       d="m 38.59375,977.36214 0,13.03125 -4.59375,0 0,36.18751 6.125,0 0,4.375 c 0,1.1787 0.946352,2.125 2.125,2.125 l 2.3125,0 0,15.2813 6.875,0 0,-15.2813 2.3125,0 c 1.178648,0 2.125,-0.9463 2.125,-2.125 l 0,-4.375 6.125,0 0,-36.18751 -4.59375,0 0,-13.03125 -18.8125,0 z"
       id="path3083" />
    <path
       id="path3081"
       d="m 38.59375,976.36216 0,13.03125 -4.59375,0 0,36.18749 6.125,0 0,4.375 c 0,1.1787 0.946352,2.125 2.125,2.125 l 2.3125,0 0,15.2813 6.875,0 0,-15.2813 2.3125,0 c 1.178648,0 2.125,-0.9463 2.125,-2.125 l 0,-4.375 6.125,0 0,-36.18749 -4.59375,0 0,-13.03125 -18.8125,0 z"
       style="opacity:0.05;fill:#000000;fill-opacity:1;stroke:none"
       inkscape:connector-curvature="0" />
    <rect
       ry="0"
       rx="0"
       y="-1046.3622"
       x="45.55814"
       height="16.279078"
       width="4.8837228"
       id="rect3555"
       style="fill:#e1e9de;fill-opacity:1;stroke:none"
       transform="scale(1,-1)" />
    <path
       style="opacity:0.05;fill:#000000;fill-opacity:1;stroke:none"
       d="M 38.59375 19 L 38.59375 32.03125 L 34 32.03125 L 34 68.21875 L 40.125 68.21875 L 40.125 72.59375 C 40.125 73.772398 41.071352 74.71875 42.25 74.71875 L 44.5625 74.71875 L 44.5625 90 L 51.4375 90 L 51.4375 74.71875 L 53.75 74.71875 C 54.928648 74.71875 55.875 73.772398 55.875 72.59375 L 55.875 68.21875 L 62 68.21875 L 62 32.03125 L 57.40625 32.03125 L 57.40625 19 L 38.59375 19 z "
       transform="translate(0,956.36218)"
       id="rect3143" />
    <rect
       ry="0"
       rx="0"
       y="-989.38544"
       x="39.58823"
       height="13"
       width="16.82353"
       id="rect3551"
       style="fill:url(#linearGradient3128);fill-opacity:1;stroke:none"
       transform="scale(1,-1)" />
    <path
       style="fill:#cccccc;fill-opacity:1;stroke:none;opacity:0.75"
       d="m 48.999995,976.39343 0,1.4375 -2,0 -1,0 0,1 0,3 1,0 2,0 0,2 -2,0 -1,0 0,1 0,3 1,0 2,0 0,1.5625 1,0 0,-1.5625 0,-1 -3,0 0,-2 3,0 0,-1 0,-2 0,-1 -3,0 0,-2 3,0 0,-1 0,-1.4375 -1,0 z"
       id="rect3075"
       inkscape:connector-curvature="0" />
    <rect
       ry="1.5480139"
       rx="1.454352"
       y="-1030.0831"
       x="-54.882351"
       height="14.25187"
       width="13.764705"
       id="rect3553"
       style="fill:#e6e8e5;fill-opacity:1;stroke:none"
       transform="scale(-1,-1)" />
    <rect
       ry="0"
       rx="0"
       y="1023.5712"
       x="41.118"
       height="4"
       width="13.765"
       id="rect3095"
       style="opacity:0.05;fill:#000000;fill-opacity:1;stroke:none" />
    <rect
       style="opacity:0.05;fill:#000000;fill-opacity:1;stroke:none"
       id="rect3093"
       width="13.765"
       height="3"
       x="41.118"
       y="1023.5712"
       rx="0"
       ry="0" />
    <rect
       style="fill:#d7dcd8;fill-opacity:1;stroke:none"
       id="rect3549"
       width="26"
       height="34.186062"
       x="35"
       y="989.38544"
       rx="0"
       ry="0" />
    <rect
       ry="0"
       rx="0"
       y="1023.5712"
       x="41.118"
       height="2"
       width="13.765"
       id="rect3091"
       style="opacity:0.05;fill:#000000;fill-opacity:1;stroke:none" />
    <rect
       style="opacity:0.05;fill:#000000;fill-opacity:1;stroke:none"
       id="rect3089"
       width="13.765"
       height="1"
       x="41.118"
       y="1023.5712"
       rx="0"
       ry="0" />
    <g
       id="g3105"
       transform="matrix(1.2222303,0,0,1,-10.667664,0.04301691)">
      <rect
         transform="scale(-1,-1)"
         ry="0"
         rx="0"
         y="-989.34216"
         x="-54.882999"
         height="4"
         width="13.765"
         id="rect3097"
         style="opacity:0.05;fill:#000000;fill-opacity:1;stroke:none" />
      <rect
         transform="scale(-1,-1)"
         style="opacity:0.05;fill:#000000;fill-opacity:1;stroke:none"
         id="rect3099"
         width="13.765"
         height="3"
         x="-54.882999"
         y="-989.34216"
         rx="0"
         ry="0" />
      <rect
         transform="scale(-1,-1)"
         ry="0"
         rx="0"
         y="-989.34216"
         x="-54.882999"
         height="2"
         width="13.765"
         id="rect3101"
         style="opacity:0.05;fill:#000000;fill-opacity:1;stroke:none" />
      <rect
         transform="scale(-1,-1)"
         style="opacity:0.05;fill:#000000;fill-opacity:1;stroke:none"
         id="rect3103"
         width="13.765"
         height="1"
         x="-54.882999"
         y="-989.34216"
         rx="0"
         ry="0" />
    </g>
  </g>
</svg>
