<?xml version="1.0" encoding="UTF-8" standalone="no"?>
<svg
   xmlns:dc="http://purl.org/dc/elements/1.1/"
   xmlns:cc="http://creativecommons.org/ns#"
   xmlns:rdf="http://www.w3.org/1999/02/22-rdf-syntax-ns#"
   xmlns:svg="http://www.w3.org/2000/svg"
   xmlns="http://www.w3.org/2000/svg"
   xmlns:xlink="http://www.w3.org/1999/xlink"
   xmlns:sodipodi="http://sodipodi.sourceforge.net/DTD/sodipodi-0.dtd"
   xmlns:inkscape="http://www.inkscape.org/namespaces/inkscape"
   contentScriptType="text/ecmascript"
   contentStyleType="text/css"
   height="96"
   preserveAspectRatio="xMidYMid meet"
   version="1.1"
   viewBox="0 0 96 96"
   width="96"
   zoomAndPan="magnify"
   id="svg2"
   inkscape:version="0.91 r13725"
   sodipodi:docname="skype.svg">
  <metadata
     id="metadata124">
    <rdf:RDF>
      <cc:Work
         rdf:about="">
        <dc:format>image/svg+xml</dc:format>
        <dc:type
           rdf:resource="http://purl.org/dc/dcmitype/StillImage" />
      </cc:Work>
    </rdf:RDF>
  </metadata>
  <sodipodi:namedview
     pagecolor="#ffffff"
     bordercolor="#666666"
     borderopacity="1"
     objecttolerance="10"
     gridtolerance="10"
     guidetolerance="10"
     inkscape:pageopacity="0"
     inkscape:pageshadow="2"
     inkscape:window-width="1332"
     inkscape:window-height="714"
     id="namedview122"
     showgrid="false"
     inkscape:zoom="2.4583333"
     inkscape:cx="59.113906"
     inkscape:cy="48"
     inkscape:window-x="34"
     inkscape:window-y="28"
     inkscape:window-maximized="1"
     inkscape:current-layer="svg2" />
  <defs
     id="defs4">
    <linearGradient
       id="linearGradient4037">
      <stop
         offset="0"
         stop-color="#826bd3"
         stop-opacity="1"
         id="stop7" />
      <stop
         offset="1"
         stop-color="#f6f0ff"
         stop-opacity="1"
         id="stop9" />
    </linearGradient>
    <linearGradient
       id="linearGradient4011">
      <stop
         offset="0"
         stop-color="#06a3dd"
         stop-opacity="1"
         id="stop12" />
      <stop
         offset="1"
         stop-color="#72d3f6"
         stop-opacity="1"
         id="stop14" />
    </linearGradient>
    <linearGradient
       id="linearGradient3927">
      <stop
         offset="0"
         stop-color="#3ab6e5"
         stop-opacity="1"
         id="stop17" />
      <stop
         offset="1"
         stop-color="#a9e4fa"
         stop-opacity="1"
         id="stop19" />
    </linearGradient>
    <linearGradient
       id="linearGradient21">
      <stop
         offset="0"
         stop-color="#b5492f"
         stop-opacity="1"
         id="stop23" />
      <stop
         offset="1"
         stop-color="#c6513d"
         stop-opacity="1"
         id="stop25" />
    </linearGradient>
    <linearGradient
       gradientTransform="translate(0.00335007,-956.3622)"
       gradientUnits="userSpaceOnUse"
       id="linearGradient3933"
       x1="19.697975"
       x2="19.697975"
       y1="1046.3013"
       y2="962.12079">
      <stop
         offset="0"
         stop-color="#3ab6e5"
         stop-opacity="1"
         id="stop28" />
      <stop
         offset="1"
         stop-color="#a9e4fa"
         stop-opacity="1"
         id="stop30" />
    </linearGradient>
    <linearGradient
       gradientUnits="userSpaceOnUse"
       id="linearGradient4017"
       x1="27.857143"
       x2="27.857143"
       y1="1044.505"
       y2="965.20648"
       gradientTransform="translate(0,-956.3622)">
      <stop
         offset="0"
         stop-color="#06a3dd"
         stop-opacity="1"
         id="stop33" />
      <stop
         offset="1"
         stop-color="#72d3f6"
         stop-opacity="1"
         id="stop35" />
    </linearGradient>
    <linearGradient
       gradientUnits="userSpaceOnUse"
       id="linearGradient37"
       x1="-262.89221"
       x2="-251.0229"
       y1="31.855312"
       y2="61.654812">
      <stop
         offset="0"
         stop-color="#826bd3"
         stop-opacity="1"
         id="stop39" />
      <stop
         offset="1"
         stop-color="#f6f0ff"
         stop-opacity="1"
         id="stop41" />
    </linearGradient>
    <linearGradient
       gradientUnits="userSpaceOnUse"
       id="linearGradient43"
       x1="-286.78571"
       x2="-236.42857"
       y1="47.607143"
       y2="47.607143">
      <stop
         offset="0"
         stop-color="#826bd3"
         stop-opacity="1"
         id="stop45" />
      <stop
         offset="1"
         stop-color="#f6f0ff"
         stop-opacity="1"
         id="stop47" />
    </linearGradient>
    <linearGradient
       gradientUnits="userSpaceOnUse"
       id="linearGradient3740"
       x1="32"
       x2="32"
       y1="8"
       y2="88">
      <stop
         offset="0"
         stop-color="#72d3f6"
         stop-opacity="1"
         id="stop50" />
      <stop
         offset="1"
         stop-color="#00a0dc"
         stop-opacity="1"
         id="stop52" />
    </linearGradient>
    <linearGradient
       id="linearGradient54">
      <stop
         offset="0"
         stop-color="#72d3f6"
         stop-opacity="1"
         id="stop56" />
      <stop
         offset="1"
         stop-color="#00a0dc"
         stop-opacity="1"
         id="stop58" />
    </linearGradient>
    <radialGradient
       cx="48"
       cy="87.792389"
       fx="48"
       fy="87.792389"
       gradientTransform="matrix(1,-6.7114942e-8,8.4282233e-8,1.2557894,109.99999,-24.505592)"
       gradientUnits="userSpaceOnUse"
       id="linearGradient4367"
       r="42">
      <stop
         offset="0"
         stop-color="#ffffff"
         stop-opacity="0.71755725"
         id="stop61" />
      <stop
         offset="1"
         stop-color="#ffffff"
         stop-opacity="1"
         id="stop63" />
    </radialGradient>
    <linearGradient
       id="linearGradient65">
      <stop
         offset="0"
         stop-color="#ffffff"
         stop-opacity="0.71755725"
         id="stop67" />
      <stop
         offset="1"
         stop-color="#ffffff"
         stop-opacity="1"
         id="stop69" />
    </linearGradient>
    <linearGradient
       gradientTransform="matrix(1,0,0,-1,0,92)"
       gradientUnits="userSpaceOnUse"
       id="linearGradient4384"
       x1="48"
       x2="48"
       y1="88"
       y2="-40">
      <stop
         offset="0"
         stop-color="#ffffff"
         stop-opacity="1"
         id="stop72" />
      <stop
         offset="1"
         stop-color="#ffffff"
         stop-opacity="0"
         id="stop74" />
    </linearGradient>
    <linearGradient
       id="linearGradient76">
      <stop
         offset="0"
         stop-color="#ffffff"
         stop-opacity="1"
         id="stop78" />
      <stop
         offset="1"
         stop-color="#ffffff"
         stop-opacity="0"
         id="stop80" />
    </linearGradient>
    <linearGradient
       gradientUnits="userSpaceOnUse"
       id="linearGradient82"
       spreadMethod="reflect"
       x1="48"
       x2="112.12357"
       y1="82"
       y2="82.454597">
      <stop
         offset="0"
         stop-color="#ffffff"
         stop-opacity="1"
         id="stop84" />
      <stop
         offset="1"
         stop-color="#ffffff"
         stop-opacity="0"
         id="stop86" />
    </linearGradient>
    <linearGradient
       id="linearGradient88">
      <stop
         offset="0"
         stop-color="#ffffff"
         stop-opacity="1"
         id="stop90" />
      <stop
         offset="1"
         stop-color="#ffffff"
         stop-opacity="0"
         id="stop92" />
    </linearGradient>
    <linearGradient
       gradientUnits="userSpaceOnUse"
       id="linearGradient94"
       spreadMethod="reflect"
       x1="48"
       x2="112.12357"
       y1="82"
       y2="82.454597">
      <stop
         offset="0"
         stop-color="#ffffff"
         stop-opacity="1"
         id="stop96" />
      <stop
         offset="1"
         stop-color="#ffffff"
         stop-opacity="0"
         id="stop98" />
    </linearGradient>
    <linearGradient
       id="linearGradient3222"
       inkscape:collect="always">
      <stop
         id="stop3224"
         offset="0"
         style="stop-color:#de005a;stop-opacity:1" />
      <stop
         id="stop3226"
         offset="1"
         style="stop-color:#a30444;stop-opacity:1" />
    </linearGradient>
    <linearGradient
       inkscape:collect="always"
       id="linearGradient3076">
      <stop
         style="stop-color:#ffe7f7;stop-opacity:1"
         offset="0"
         id="stop3078" />
      <stop
         style="stop-color:#ffc3ef;stop-opacity:1"
         offset="1"
         id="stop3080" />
    </linearGradient>
    <linearGradient
       id="linearGradient3048"
       inkscape:collect="always">
      <stop
         id="stop3050"
         offset="0"
         style="stop-color:#c16d16;stop-opacity:1" />
      <stop
         id="stop3052"
         offset="1"
         style="stop-color:#ff8e31;stop-opacity:1" />
    </linearGradient>
    <linearGradient
       id="linearGradient3119"
       inkscape:collect="always">
      <stop
         id="stop3121"
         offset="0"
         style="stop-color:#92948f;stop-opacity:0" />
      <stop
         style="stop-color:#9b9e98;stop-opacity:1"
         offset="0.4283945"
         id="stop3123" />
      <stop
         id="stop3125"
         offset="1"
         style="stop-color:#939690;stop-opacity:0" />
    </linearGradient>
    <linearGradient
       inkscape:collect="always"
       id="linearGradient3073">
      <stop
         style="stop-color:#ffffff;stop-opacity:0"
         offset="0"
         id="stop3075" />
      <stop
         id="stop3085"
         offset="0.45872402"
         style="stop-color:#ffffff;stop-opacity:1" />
      <stop
         style="stop-color:#ffffff;stop-opacity:0"
         offset="1"
         id="stop3083" />
    </linearGradient>
    <linearGradient
       id="linearGradient3047"
       inkscape:collect="always">
      <stop
         id="stop3049"
         offset="0"
         style="stop-color:#000000;stop-opacity:1" />
      <stop
         style="stop-color:#1a1a1a;stop-opacity:1"
         offset="0.06123874"
         id="stop3055" />
      <stop
         id="stop3057"
         offset="0.16480456"
         style="stop-color:#333333;stop-opacity:1" />
      <stop
         style="stop-color:#4d4d4d;stop-opacity:1"
         offset="0.55385184"
         id="stop3059" />
      <stop
         id="stop3051"
         offset="1"
         style="stop-color:#999999;stop-opacity:1" />
    </linearGradient>
    <linearGradient
       inkscape:collect="always"
       id="linearGradient3041">
      <stop
         style="stop-color:#1a1a1a;stop-opacity:1"
         offset="0"
         id="stop3043" />
      <stop
         style="stop-color:#808080;stop-opacity:1"
         offset="1"
         id="stop3045" />
    </linearGradient>
    <linearGradient
       id="linearGradient3029"
       inkscape:collect="always">
      <stop
         id="stop3031"
         offset="0"
         style="stop-color:#333333;stop-opacity:1" />
      <stop
         id="stop3033"
         offset="1"
         style="stop-color:#e0e0dd;stop-opacity:0;" />
    </linearGradient>
    <linearGradient
       gradientTransform="matrix(1.1638085,0,0,1.1638085,-7.862809,-164.23642)"
       gradientUnits="userSpaceOnUse"
       y2="975.33282"
       x2="35.355339"
       y1="1030.3622"
       x1="35.355339"
       id="linearGradient3035"
       xlink:href="#linearGradient3029"
       inkscape:collect="always" />
    <linearGradient
       gradientTransform="matrix(1.1218695,0,0,1.1218695,-5.8497348,-122.18782)"
       y2="975.33282"
       x2="35.355339"
       y1="1030.3622"
       x1="35.355339"
       gradientUnits="userSpaceOnUse"
       id="linearGradient3039"
       xlink:href="#linearGradient3041"
       inkscape:collect="always" />
    <linearGradient
       gradientUnits="userSpaceOnUse"
       y2="972.33325"
       x2="39.285713"
       y1="1043.4336"
       x1="40"
       id="linearGradient3053"
       xlink:href="#linearGradient3047"
       inkscape:collect="always" />
    <linearGradient
       y2="969.24683"
       x2="24.52651"
       y1="978.90387"
       x1="14.869445"
       gradientTransform="translate(0,-956.36218)"
       gradientUnits="userSpaceOnUse"
       id="linearGradient3113"
       xlink:href="#linearGradient3073"
       inkscape:collect="always" />
    <linearGradient
       y2="967.50934"
       x2="26.263966"
       y1="978.62103"
       x1="15.152279"
       gradientTransform="matrix(-1,0,0,1,96,-956.36218)"
       gradientUnits="userSpaceOnUse"
       id="linearGradient3115"
       xlink:href="#linearGradient3073"
       inkscape:collect="always" />
    <linearGradient
       y2="967.86646"
       x2="25.549681"
       y1="980.64136"
       x1="13.131983"
       gradientTransform="translate(0,-956.36218)"
       gradientUnits="userSpaceOnUse"
       id="linearGradient3117"
       xlink:href="#linearGradient3119"
       inkscape:collect="always" />
    <linearGradient
       y2="967.86646"
       x2="25.549681"
       y1="980.64136"
       x1="13.131983"
       gradientTransform="matrix(-1,0,0,1,96,0)"
       gradientUnits="userSpaceOnUse"
       id="linearGradient3129"
       xlink:href="#linearGradient3119"
       inkscape:collect="always" />
    <linearGradient
       gradientUnits="userSpaceOnUse"
       y2="1045.8627"
       x2="49.267925"
       y1="996.57349"
       x1="49.267925"
       id="linearGradient3054"
       xlink:href="#linearGradient3048"
       inkscape:collect="always" />
    <linearGradient
       gradientUnits="userSpaceOnUse"
       y2="1033.5543"
       x2="115.80308"
       y1="985.47241"
       x1="115.80308"
       id="linearGradient3058"
       xlink:href="#linearGradient3048"
       inkscape:collect="always" />
    <linearGradient
       gradientTransform="matrix(1.4144782,0,0,1.4144782,-119.78686,-419.05496)"
       y2="1025.3639"
       x2="115.80308"
       y1="985.47241"
       x1="115.80308"
       gradientUnits="userSpaceOnUse"
       id="linearGradient3055"
       xlink:href="#linearGradient3222"
       inkscape:collect="always" />
    <linearGradient
       y2="1025.3639"
       x2="115.80308"
       y1="985.47241"
       x1="115.80308"
       gradientTransform="matrix(1.4144782,0,0,1.4144782,-119.78686,-417.12598)"
       gradientUnits="userSpaceOnUse"
       id="linearGradient3086"
       xlink:href="#linearGradient3076"
       inkscape:collect="always" />
    <linearGradient
       y2="1025.3639"
       x2="115.80308"
       y1="985.47241"
       x1="115.80308"
       gradientTransform="matrix(1.4144782,0,0,1.4144782,-119.78686,-418.126)"
       gradientUnits="userSpaceOnUse"
       id="linearGradient3091"
       xlink:href="#linearGradient3076"
       inkscape:collect="always" />
    <linearGradient
       y2="1025.3639"
       x2="115.80308"
       y1="985.47241"
       x1="115.80308"
       gradientTransform="matrix(1.4144782,0,0,1.4144782,-119.78686,-1375.4171)"
       gradientUnits="userSpaceOnUse"
       id="linearGradient3093"
       xlink:href="#linearGradient3076"
       inkscape:collect="always" />
    <linearGradient
       inkscape:collect="always"
       xlink:href="#linearGradient4017"
       id="linearGradient4441"
       x1="104.62712"
       y1="48.000002"
       x2="186.62712"
       y2="48.000002"
       gradientUnits="userSpaceOnUse"
       gradientTransform="translate(-193.62712,97.627119)" />
    <linearGradient
       inkscape:collect="always"
       xlink:href="#linearGradient3933"
       id="linearGradient4443"
       x1="103.62712"
       y1="48.000002"
       x2="187.62712"
       y2="48.000002"
       gradientUnits="userSpaceOnUse"
       gradientTransform="translate(-193.62712,97.627119)" />
  </defs>
  <g
     id="g4451"
     transform="translate(-97.627121,0)">
    <rect
       ry="10.595235"
       rx="10.595235"
       y="4.5000024"
       x="101.12712"
       height="89"
       width="89"
       id="rect3826"
       style="opacity:0.05;fill:#000000;fill-opacity:1;stroke:none" />
    <rect
       style="opacity:0.05;fill:#000000;fill-opacity:1;stroke:none"
       id="rect3824"
       width="88"
       height="88"
       x="101.62712"
       y="5.0000024"
       rx="10.476188"
       ry="10.476188" />
    <rect
       ry="10.357141"
       rx="10.357141"
       y="5.5000024"
       x="102.12712"
       height="87"
       width="87"
       id="rect3822"
       style="opacity:0.05;fill:#000000;fill-opacity:1;stroke:none" />
    <rect
       style="opacity:0.1;fill:#000000;fill-opacity:1;stroke:none"
       id="rect3820"
       width="86"
       height="86"
       x="102.62712"
       y="6.0000024"
       rx="10.238094"
       ry="10.238094" />
    <rect
       ry="10.119047"
       rx="10.119047"
       y="6.5000024"
       x="103.12712"
       height="85"
       width="85"
       id="rect3818"
       style="opacity:0.1;fill:#000000;fill-opacity:1;stroke:none" />
    <rect
       style="opacity:0.3;fill:#000000;fill-opacity:1;stroke:none"
       id="rect3131"
       width="84"
       height="84"
       x="103.62712"
       y="7.0000024"
       rx="10"
       ry="10" />
    <rect
       transform="matrix(0,-1,1,0,0,0)"
       style="fill:url(#linearGradient4443);fill-opacity:1;stroke:none"
       id="rect3036"
       width="84"
       height="84"
       x="-90"
       y="103.62712"
       rx="10"
       ry="10" />
    <rect
       transform="matrix(0,-1,1,0,0,0)"
       ry="9.7619047"
       rx="9.7619047"
       y="104.62712"
       x="-89"
       height="82"
       width="82"
       id="rect3034"
       style="fill:url(#linearGradient4441);fill-opacity:1;stroke:none" />
  </g>
  <g
     id="g4445">
    <path
       style="display:inline;fill:#097aa3;fill-opacity:0.1;fill-rule:nonzero;stroke:none;stroke-opacity:0.1"
       inkscape:connector-curvature="0"
       id="path114"
       display="inline"
       d="m 33.6875,15.25 c -10.161879,0 -18.4375,8.275623 -18.4375,18.4375 0,2.922287 0.725522,5.64388 1.9375,8.09375 C 16.785236,43.80622 16.625,45.89229 16.625,48 c 0,17.31448 14.06052,31.375 31.375,31.375 2.107716,0 4.19378,-0.16023 6.21875,-0.5625 2.45517,1.220795 5.162598,1.9375 8.09375,1.9375 10.16188,0 18.4375,-8.27562 18.4375,-18.4375 0,-2.931152 -0.7167,-5.638573 -1.9375,-8.09375 C 79.21476,52.193783 79.375,50.10772 79.375,48 79.375,30.68552 65.31448,16.625 48,16.625 c -2.123592,0 -4.19315,0.224299 -6.1875,0.625 -2.443047,-1.221367 -5.173313,-2 -8.125,-2 z m 13.71875,14.28125 c 4.665367,0 8.106285,1.214342 10.34375,2.71875 1.114464,0.749334 1.920486,1.591652 2.4375,2.34375 0.517014,0.752098 0.71875,1.43884 0.71875,1.78125 0,0.654552 -0.06441,1.08549 -0.15625,1.34375 -0.09184,0.25826 -0.180813,0.338165 -0.3125,0.4375 -0.215225,0.162354 -0.93657,0.375 -2.03125,0.375 -0.907913,0 -1.214207,-0.183247 -1.65625,-0.5625 -0.419243,-0.359695 -0.878513,-0.985916 -1.53125,-1.75 -1.341446,-1.57028 -3.647865,-3.3125 -8.34375,-3.3125 -1.650818,0 -3.475727,0.327053 -5.03125,1.25 C 40.268185,35.091087 39,36.772575 39,38.96875 c 0,0.952576 0.30884,1.864063 0.875,2.59375 0.55472,0.714943 1.288414,1.247356 2.15625,1.6875 1.721622,0.873165 4.00734,1.436028 6.84375,2.125 0.01037,0.0028 0.02088,-0.0028 0.03125,0 4.20755,1.129124 7.79957,2.295643 10.1875,3.9375 2.411827,1.658287 3.71875,3.623074 3.71875,7.15625 0,3.41867 -1.286793,5.731834 -3.75,7.40625 -2.45417,1.668274 -6.2083,2.59375 -10.9375,2.59375 -4.63021,0 -8.407166,-1.39689 -10.96875,-3.09375 -1.279144,-0.84734 -2.217648,-1.765945 -2.84375,-2.59375 -0.621532,-0.82176 -0.875,-1.603027 -0.875,-1.84375 0,-1.33566 0.25391,-1.82482 0.46875,-2.03125 0.211193,-0.202927 0.703434,-0.40625 1.75,-0.40625 0.869633,0 1.297794,0.216125 1.875,0.6875 0.556458,0.454433 1.158253,1.20921 1.96875,2.0625 1.63271,1.718918 4.205116,3.625 8.9375,3.625 1.65566,0 3.6109,-0.33018 5.3125,-1.21875 1.720257,-0.89831 3.25,-2.557262 3.25,-4.84375 0,-0.699245 0.0022,-1.374046 -0.15625,-2.0625 -0.164776,-0.715878 -0.55152,-1.421753 -1.15625,-2 -1.163483,-1.112534 -2.917923,-1.725487 -6.03125,-2.5625 0,0 -0.03645,-0.02152 -0.0625,-0.03125 -0.0087,-0.0032 0,-0.03125 0,-0.03125 -4e-6,0 -0.124996,0 -0.125,0 C 49.44846,50.11353 49.4276,50.1031 49.40625,50.09375 46.13179,49.647236 41.8915,48.87442 38.625,47.3125 36.986202,46.52889 35.59544,45.591675 34.65625,44.4375 33.71706,43.283325 33.1875,41.923344 33.1875,40.15625 c 0,-3.447033 1.20993,-5.9118 3.5625,-7.71875 2.346745,-1.802477 5.958057,-2.90625 10.65625,-2.90625 z" />
    <path
       style="display:inline;fill:#097aa3;fill-opacity:0.2;fill-rule:nonzero;stroke:none;stroke-opacity:0.2"
       inkscape:connector-curvature="0"
       id="path116"
       display="inline"
       d="m 33.6875,15.9375 c -9.787552,0 -17.75,7.96245 -17.75,17.75 0,2.901596 0.729162,5.60903 1.96875,8.03125 -0.417988,2.0264 -0.59375,4.14673 -0.59375,6.28125 0,16.941124 13.74638,30.6875 30.6875,30.6875 2.134525,0 4.254852,-0.17576 6.28125,-0.59375 2.428406,1.249374 5.11851,1.96875 8.03125,1.96875 9.78755,0 17.75,-7.96245 17.75,-17.75 0,-2.912743 -0.71936,-5.60284 -1.96875,-8.03125 C 78.511734,52.254852 78.6875,50.13453 78.6875,48 78.6875,31.05888 64.94112,17.3125 48,17.3125 c -2.14809,0 -4.266785,0.237621 -6.28125,0.65625 C 39.30356,16.727705 36.5992,15.9375 33.6875,15.9375 Z m 13.71875,12.90625 c 4.785904,0 8.353928,1.25371 10.71875,2.84375 2.364822,1.59004 3.46875,3.554394 3.46875,4.6875 0,1.405678 -0.295033,2.000553 -0.75,2.34375 -0.454967,0.343197 -1.28046,0.5 -2.4375,0.5 -1.03068,0 -1.576527,-0.274994 -2.09375,-0.71875 -0.517223,-0.443756 -0.99286,-1.103775 -1.625,-1.84375 -1.264282,-1.47995 -3.277176,-3.0625 -7.8125,-3.0625 -1.55629,0 -3.277622,0.31972 -4.6875,1.15625 -1.409878,0.83653 -2.5,2.281494 -2.5,4.21875 0,0.813454 0.245953,1.546894 0.71875,2.15625 0.472797,0.609356 1.129353,1.090126 1.9375,1.5 1.610096,0.8166 3.857628,1.406364 6.6875,2.09375 0.01089,0.0026 0.02034,-0.0026 0.03125,0 4.23757,1.13625 7.904655,2.289753 10.4375,4.03125 2.539013,1.745735 4,4.004578 4,7.71875 0,3.602596 -1.440044,6.18608 -4.0625,7.96875 -2.622456,1.78267 -6.493916,2.71875 -11.3125,2.71875 -4.76979,0 -8.668934,-1.446884 -11.34375,-3.21875 -1.337406,-0.885933 -2.34952,-1.848648 -3.03125,-2.75 -0.68173,-0.901352 -1,-1.728477 -1,-2.25 0,-1.427006 0.283302,-2.142876 0.6875,-2.53125 0.404198,-0.388374 1.08857,-0.59375 2.21875,-0.59375 1.01223,0 1.663445,0.313698 2.3125,0.84375 0.649055,0.530052 1.24756,1.29993 2.03125,2.125 1.567387,1.650143 3.88251,3.40625 8.4375,3.40625 1.55629,0 3.42941,-0.33609 5,-1.15625 1.57059,-0.82016 2.875,-2.234783 2.875,-4.21875 0,-0.68713 -0.01809,-1.306026 -0.15625,-1.90625 -0.138157,-0.600224 -0.43326,-1.17409 -0.9375,-1.65625 -1.008476,-0.964314 -2.67221,-1.59606 -5.8125,-2.4375 -0.03046,-0.01264 -0.06179,-0.02309 -0.09375,-0.03125 -3.299343,-0.449905 -7.605278,-1.220516 -11,-2.84375 C 34.917774,46.314266 32.5,43.98128 32.5,40.15625 c 0,-3.616817 1.33457,-6.354015 3.84375,-8.28125 2.50918,-1.927237 6.258564,-3.03125 11.0625,-3.03125 z" />
    <path
       style="display:inline;fill:#097aa3;fill-opacity:0.5;fill-rule:nonzero;stroke:none;stroke-opacity:0.5"
       inkscape:connector-curvature="0"
       id="path118"
       display="inline"
       d="m 33.6875,16.625 c -9.413687,0 -17.0625,7.648815 -17.0625,17.0625 0,2.90761 0.715115,5.63491 2,8.03125 C 18.196035,43.738056 18,45.853447 18,48 c 0,16.568092 13.43191,30 30,30 2.146553,0 4.261948,-0.19604 6.28125,-0.625 2.40454,1.2964 5.10968,2 8.03125,2 9.41369,0 17.0625,-7.64881 17.0625,-17.0625 0,-2.921574 -0.70359,-5.62671 -2,-8.03125 C 77.80396,52.261948 78,50.146553 78,48 78,31.43191 64.56809,18 48,18 45.852936,18 43.7385,18.258337 41.71875,18.6875 39.322197,17.402327 36.595467,16.625 33.6875,16.625 Z m 13.71875,11.53125 c 9.814888,0 14.875,5.185057 14.875,8.21875 0,3.03369 -1.465893,3.53125 -3.875,3.53125 -4.67621,0 -2.755527,-5.625 -11.53125,-5.625 -2.906578,0 -6.5,1.301277 -6.5,4.6875 0,2.716965 3.16999,3.71629 8.84375,5.09375 8.529884,2.285576 14.96875,4.59845 14.96875,12.40625 0,7.584232 -6.247612,11.375 -16.0625,11.375 -9.814888,0 -16.0625,-5.87256 -16.0625,-8.90625 0,-3.03369 1.184643,-3.8125 3.59375,-3.8125 4.676205,0 4.005527,6.375 12.78125,6.375 2.906578,0 7.1875,-1.30127 7.1875,-4.6875 0,-2.71696 -0.186356,-3.67713 -6.40625,-5.34375 -6.645073,-0.90614 -17.40625,-3.06227 -17.40625,-11.3125 0,-7.58423 5.778862,-12 15.59375,-12 z" />
    <path
       style="display:inline;fill:#ffffff;fill-opacity:1;fill-rule:nonzero;stroke:none"
       inkscape:connector-curvature="0"
       id="path120"
       display="inline"
       d="m 33.6875,16 c -9.413687,0 -17.0625,7.648815 -17.0625,17.0625 0,2.90761 0.715115,5.63491 2,8.03125 C 18.196035,43.113056 18,45.228447 18,47.375 c 0,16.568092 13.43191,30 30,30 2.146553,0 4.261948,-0.19604 6.28125,-0.625 2.40454,1.2964 5.10968,2 8.03125,2 9.41369,0 17.0625,-7.64881 17.0625,-17.0625 0,-2.921574 -0.70359,-5.62671 -2,-8.03125 C 77.80396,51.636948 78,49.521553 78,47.375 c 0,-16.56809 -13.43191,-30 -30,-30 -2.147064,0 -4.261505,0.258337 -6.28125,0.6875 C 39.322197,16.777326 36.595467,16 33.6875,16 Z m 13.71875,11.53125 c 9.814888,0 14.875,5.185057 14.875,8.21875 0,3.03369 -1.465893,3.53125 -3.875,3.53125 -4.67621,0 -2.755527,-5.625 -11.53125,-5.625 -2.906578,0 -6.5,1.301277 -6.5,4.6875 0,2.716965 3.16999,3.71629 8.84375,5.09375 8.529884,2.285576 14.96875,4.59845 14.96875,12.40625 0,7.584232 -6.247612,11.375 -16.0625,11.375 -9.814888,0 -16.0625,-5.87256 -16.0625,-8.90625 0,-3.03369 1.184643,-3.8125 3.59375,-3.8125 4.676205,0 4.005527,6.375 12.78125,6.375 2.906578,0 7.1875,-1.30127 7.1875,-4.6875 0,-2.71696 -0.186356,-3.67713 -6.40625,-5.34375 -6.645073,-0.90614 -17.40625,-3.06227 -17.40625,-11.3125 0,-7.58423 5.778862,-12 15.59375,-12 z" />
  </g>
</svg>
