<?xml version="1.0" encoding="UTF-8" standalone="no"?>
<!-- Created with Inkscape (http://www.inkscape.org/) -->

<svg
   xmlns:dc="http://purl.org/dc/elements/1.1/"
   xmlns:cc="http://creativecommons.org/ns#"
   xmlns:rdf="http://www.w3.org/1999/02/22-rdf-syntax-ns#"
   xmlns:svg="http://www.w3.org/2000/svg"
   xmlns="http://www.w3.org/2000/svg"
   xmlns:xlink="http://www.w3.org/1999/xlink"
   xmlns:sodipodi="http://sodipodi.sourceforge.net/DTD/sodipodi-0.dtd"
   xmlns:inkscape="http://www.inkscape.org/namespaces/inkscape"
   width="96"
   height="96"
   id="svg2"
   version="1.1"
   inkscape:version="0.48.4 r9939"
   sodipodi:docname="gnome-system-preferences.svg">
  <defs
     id="defs4">
    <linearGradient
       inkscape:collect="always"
       id="linearGradient4330">
      <stop
         style="stop-color:#adcff7;stop-opacity:1"
         offset="0"
         id="stop4332" />
      <stop
         style="stop-color:#efefff;stop-opacity:1"
         offset="1"
         id="stop4334" />
    </linearGradient>
    <linearGradient
       inkscape:collect="always"
       id="linearGradient3325">
      <stop
         style="stop-color:#c6bede;stop-opacity:1"
         offset="0"
         id="stop3327" />
      <stop
         style="stop-color:#f7e7ff;stop-opacity:1"
         offset="1"
         id="stop3329" />
    </linearGradient>
    <linearGradient
       inkscape:collect="always"
       id="linearGradient3315">
      <stop
         style="stop-color:#a69fc6;stop-opacity:1"
         offset="0"
         id="stop3317" />
      <stop
         style="stop-color:#fffbff;stop-opacity:1"
         offset="1"
         id="stop3319" />
    </linearGradient>
    <linearGradient
       inkscape:collect="always"
       id="linearGradient3307">
      <stop
         style="stop-color:#5228ad;stop-opacity:1"
         offset="0"
         id="stop3309" />
      <stop
         id="stop3341"
         offset="0.6955229"
         style="stop-color:#4f28a7;stop-opacity:1;" />
      <stop
         id="stop3339"
         offset="0.84899038"
         style="stop-color:#4b289f;stop-opacity:1;" />
      <stop
         style="stop-color:#4a289c;stop-opacity:1"
         offset="1"
         id="stop3311" />
    </linearGradient>
    <linearGradient
       inkscape:collect="always"
       id="linearGradient3153">
      <stop
         style="stop-color:#ffffff;stop-opacity:1"
         offset="0"
         id="stop3155" />
      <stop
         id="stop3163"
         offset="0.71368068"
         style="stop-color:#ffffff;stop-opacity:1" />
      <stop
         style="stop-color:#000000;stop-opacity:1"
         offset="1"
         id="stop3157" />
    </linearGradient>
    <linearGradient
       id="linearGradient3090"
       inkscape:collect="always">
      <stop
         id="stop3092"
         offset="0"
         style="stop-color:#216dc6;stop-opacity:1" />
      <stop
         id="stop3094"
         offset="1"
         style="stop-color:#3186e7;stop-opacity:1" />
    </linearGradient>
    <linearGradient
       inkscape:collect="always"
       id="linearGradient3083">
      <stop
         style="stop-color:#2161b5;stop-opacity:1"
         offset="0"
         id="stop3086" />
      <stop
         style="stop-color:#3991dd;stop-opacity:1"
         offset="1"
         id="stop3088" />
    </linearGradient>
    <inkscape:perspective
       sodipodi:type="inkscape:persp3d"
       inkscape:vp_x="0 : 48 : 1"
       inkscape:vp_y="0 : 1000 : 0"
       inkscape:vp_z="96 : 48 : 1"
       inkscape:persp3d-origin="48 : 32 : 1"
       id="perspective3054" />
    <linearGradient
       id="linearGradient4357"
       inkscape:collect="always">
      <stop
         id="stop4359"
         offset="0"
         style="stop-color:#ded3d6;stop-opacity:1" />
      <stop
         id="stop4361"
         offset="1"
         style="stop-color:#f7ebef;stop-opacity:1" />
    </linearGradient>
    <linearGradient
       inkscape:collect="always"
       id="linearGradient3558">
      <stop
         style="stop-color:#ded3d6;stop-opacity:1"
         offset="0"
         id="stop3560" />
      <stop
         style="stop-color:#efebef;stop-opacity:1"
         offset="1"
         id="stop3562" />
    </linearGradient>
    <linearGradient
       id="linearGradient3076"
       inkscape:collect="always">
      <stop
         id="stop3078"
         offset="0"
         style="stop-color:#ffe7f7;stop-opacity:1" />
      <stop
         id="stop3080"
         offset="1"
         style="stop-color:#ffc3ef;stop-opacity:1" />
    </linearGradient>
    <linearGradient
       id="linearGradient3070"
       inkscape:collect="always">
      <stop
         id="stop3072"
         offset="0"
         style="stop-color:#943410;stop-opacity:1" />
      <stop
         id="stop3074"
         offset="1"
         style="stop-color:#dc7952;stop-opacity:1" />
    </linearGradient>
    <linearGradient
       inkscape:collect="always"
       id="linearGradient3059">
      <stop
         style="stop-color:#a53810;stop-opacity:1"
         offset="0"
         id="stop3061" />
      <stop
         style="stop-color:#e75911;stop-opacity:1"
         offset="1"
         id="stop3064" />
    </linearGradient>
    <linearGradient
       inkscape:collect="always"
       id="linearGradient3048">
      <stop
         style="stop-color:#c16d16;stop-opacity:1"
         offset="0"
         id="stop3050" />
      <stop
         style="stop-color:#ff8e31;stop-opacity:1"
         offset="1"
         id="stop3052" />
    </linearGradient>
    <linearGradient
       inkscape:collect="always"
       id="linearGradient3119">
      <stop
         style="stop-color:#92948f;stop-opacity:0"
         offset="0"
         id="stop3121" />
      <stop
         id="stop3123"
         offset="0.4283945"
         style="stop-color:#9b9e98;stop-opacity:1" />
      <stop
         style="stop-color:#939690;stop-opacity:0"
         offset="1"
         id="stop3125" />
    </linearGradient>
    <linearGradient
       id="linearGradient3073"
       inkscape:collect="always">
      <stop
         id="stop3075"
         offset="0"
         style="stop-color:#ffffff;stop-opacity:0" />
      <stop
         style="stop-color:#ffffff;stop-opacity:1"
         offset="0.45872402"
         id="stop3085" />
      <stop
         id="stop3083"
         offset="1"
         style="stop-color:#ffffff;stop-opacity:0" />
    </linearGradient>
    <linearGradient
       inkscape:collect="always"
       id="linearGradient3047">
      <stop
         style="stop-color:#000000;stop-opacity:1"
         offset="0"
         id="stop3049" />
      <stop
         id="stop3055"
         offset="0.06123874"
         style="stop-color:#1a1a1a;stop-opacity:1" />
      <stop
         style="stop-color:#333333;stop-opacity:1"
         offset="0.16480456"
         id="stop3057" />
      <stop
         id="stop3059"
         offset="0.55385184"
         style="stop-color:#4d4d4d;stop-opacity:1" />
      <stop
         style="stop-color:#999999;stop-opacity:1"
         offset="1"
         id="stop3051" />
    </linearGradient>
    <linearGradient
       id="linearGradient3041"
       inkscape:collect="always">
      <stop
         id="stop3043"
         offset="0"
         style="stop-color:#1a1a1a;stop-opacity:1" />
      <stop
         id="stop3045"
         offset="1"
         style="stop-color:#808080;stop-opacity:1" />
    </linearGradient>
    <linearGradient
       inkscape:collect="always"
       id="linearGradient3029">
      <stop
         style="stop-color:#333333;stop-opacity:1"
         offset="0"
         id="stop3031" />
      <stop
         style="stop-color:#e0e0dd;stop-opacity:0;"
         offset="1"
         id="stop3033" />
    </linearGradient>
    <linearGradient
       inkscape:collect="always"
       xlink:href="#linearGradient3029"
       id="linearGradient3035"
       x1="35.355339"
       y1="1030.3622"
       x2="35.355339"
       y2="975.33282"
       gradientUnits="userSpaceOnUse"
       gradientTransform="matrix(1.1638085,0,0,1.1638085,-7.862809,-164.23642)" />
    <linearGradient
       inkscape:collect="always"
       xlink:href="#linearGradient3041"
       id="linearGradient3039"
       gradientUnits="userSpaceOnUse"
       x1="35.355339"
       y1="1030.3622"
       x2="35.355339"
       y2="975.33282"
       gradientTransform="matrix(1.1218695,0,0,1.1218695,-5.8497348,-122.18782)" />
    <linearGradient
       inkscape:collect="always"
       xlink:href="#linearGradient3047"
       id="linearGradient3053"
       x1="40"
       y1="1043.4336"
       x2="39.285713"
       y2="972.33325"
       gradientUnits="userSpaceOnUse" />
    <linearGradient
       inkscape:collect="always"
       xlink:href="#linearGradient3073"
       id="linearGradient3113"
       gradientUnits="userSpaceOnUse"
       gradientTransform="translate(0,-956.36218)"
       x1="14.869445"
       y1="978.90387"
       x2="24.52651"
       y2="969.24683" />
    <linearGradient
       inkscape:collect="always"
       xlink:href="#linearGradient3073"
       id="linearGradient3115"
       gradientUnits="userSpaceOnUse"
       gradientTransform="matrix(-1,0,0,1,96,-956.36218)"
       x1="15.152279"
       y1="978.62103"
       x2="26.263966"
       y2="967.50934" />
    <linearGradient
       inkscape:collect="always"
       xlink:href="#linearGradient3119"
       id="linearGradient3117"
       gradientUnits="userSpaceOnUse"
       gradientTransform="translate(0,-956.36218)"
       x1="13.131983"
       y1="980.64136"
       x2="25.549681"
       y2="967.86646" />
    <linearGradient
       inkscape:collect="always"
       xlink:href="#linearGradient3119"
       id="linearGradient3129"
       gradientUnits="userSpaceOnUse"
       gradientTransform="matrix(-1,0,0,1,96,0)"
       x1="13.131983"
       y1="980.64136"
       x2="25.549681"
       y2="967.86646" />
    <linearGradient
       inkscape:collect="always"
       xlink:href="#linearGradient3048"
       id="linearGradient3054"
       x1="49.267925"
       y1="996.57349"
       x2="49.267925"
       y2="1045.8627"
       gradientUnits="userSpaceOnUse" />
    <linearGradient
       inkscape:collect="always"
       xlink:href="#linearGradient3048"
       id="linearGradient3058"
       x1="115.80308"
       y1="985.47241"
       x2="115.80308"
       y2="1033.5543"
       gradientUnits="userSpaceOnUse" />
    <linearGradient
       inkscape:collect="always"
       xlink:href="#linearGradient3076"
       id="linearGradient3055"
       gradientUnits="userSpaceOnUse"
       x1="115.80308"
       y1="985.47241"
       x2="115.80308"
       y2="1025.3639"
       gradientTransform="matrix(1.4144782,0,0,1.4144782,-119.78686,-419.05496)" />
    <linearGradient
       inkscape:collect="always"
       xlink:href="#linearGradient3059"
       id="linearGradient3066"
       x1="22.54203"
       y1="1043.3966"
       x2="22.54203"
       y2="964.45898"
       gradientUnits="userSpaceOnUse" />
    <linearGradient
       inkscape:collect="always"
       xlink:href="#linearGradient3070"
       id="linearGradient3068"
       x1="53.796227"
       y1="1046.0226"
       x2="53.796227"
       y2="962.97437"
       gradientUnits="userSpaceOnUse" />
    <linearGradient
       inkscape:collect="always"
       xlink:href="#linearGradient3076"
       id="linearGradient3086"
       gradientUnits="userSpaceOnUse"
       gradientTransform="matrix(1.4144782,0,0,1.4144782,-119.78686,-417.12598)"
       x1="115.80308"
       y1="985.47241"
       x2="115.80308"
       y2="1025.3639" />
    <linearGradient
       inkscape:collect="always"
       xlink:href="#linearGradient3076"
       id="linearGradient3091"
       gradientUnits="userSpaceOnUse"
       gradientTransform="matrix(1.4144782,0,0,1.4144782,-119.78686,-418.126)"
       x1="115.80308"
       y1="985.47241"
       x2="115.80308"
       y2="1025.3639" />
    <linearGradient
       inkscape:collect="always"
       xlink:href="#linearGradient3076"
       id="linearGradient3093"
       gradientUnits="userSpaceOnUse"
       gradientTransform="matrix(1.4144782,0,0,1.4144782,-119.78686,-1375.4171)"
       x1="115.80308"
       y1="985.47241"
       x2="115.80308"
       y2="1025.3639" />
    <linearGradient
       inkscape:collect="always"
       xlink:href="#linearGradient3558"
       id="linearGradient3564"
       x1="93.242035"
       y1="1027.2615"
       x2="93.242035"
       y2="980.7262"
       gradientUnits="userSpaceOnUse" />
    <linearGradient
       inkscape:collect="always"
       xlink:href="#linearGradient3558"
       id="linearGradient4350"
       gradientUnits="userSpaceOnUse"
       x1="93.242035"
       y1="1027.2615"
       x2="93.242035"
       y2="980.7262" />
    <linearGradient
       inkscape:collect="always"
       xlink:href="#linearGradient4357"
       id="linearGradient4354"
       gradientUnits="userSpaceOnUse"
       x1="93.242035"
       y1="1027.2615"
       x2="93.242035"
       y2="980.7262"
       gradientTransform="translate(-56.571856,0)" />
    <linearGradient
       inkscape:collect="always"
       xlink:href="#linearGradient4357"
       id="linearGradient3067"
       gradientUnits="userSpaceOnUse"
       gradientTransform="translate(106.08939,0)"
       x1="93.242035"
       y1="1027.2615"
       x2="93.242035"
       y2="980.7262" />
    <linearGradient
       inkscape:collect="always"
       xlink:href="#linearGradient3090"
       id="linearGradient3071"
       gradientUnits="userSpaceOnUse"
       x1="22.54203"
       y1="1043.3966"
       x2="22.54203"
       y2="964.45898" />
    <linearGradient
       inkscape:collect="always"
       xlink:href="#linearGradient3083"
       id="linearGradient3074"
       gradientUnits="userSpaceOnUse"
       x1="53.796227"
       y1="1046.2493"
       x2="53.796227"
       y2="962.97437" />
    <radialGradient
       inkscape:collect="always"
       xlink:href="#linearGradient3153"
       id="radialGradient3159"
       cx="54.880909"
       cy="34.52375"
       fx="54.880909"
       fy="34.52375"
       r="22.501422"
       gradientTransform="matrix(1.6150702e-6,-1.2742782,1.2647002,0,4.4956971,76.124529)"
       gradientUnits="userSpaceOnUse" />
    <filter
       inkscape:collect="always"
       id="filter4276"
       x="-0.16259492"
       width="1.3251898"
       y="-0.16250471"
       height="1.3250094">
      <feGaussianBlur
         inkscape:collect="always"
         stdDeviation="3.751539"
         id="feGaussianBlur4278" />
    </filter>
    <linearGradient
       inkscape:collect="always"
       xlink:href="#linearGradient3315"
       id="linearGradient4282"
       gradientUnits="userSpaceOnUse"
       x1="-103.53697"
       y1="34.18985"
       x2="-103.53697"
       y2="76.055702" />
    <radialGradient
       inkscape:collect="always"
       xlink:href="#linearGradient3307"
       id="radialGradient4284"
       gradientUnits="userSpaceOnUse"
       gradientTransform="matrix(0.8933484,-0.8933484,0.93715766,0.93715776,-63.178404,-85.969131)"
       cx="-106.66165"
       cy="64.455704"
       fx="-106.66165"
       fy="64.455704"
       r="21.375" />
    <linearGradient
       inkscape:collect="always"
       xlink:href="#linearGradient3325"
       id="linearGradient4289"
       gradientUnits="userSpaceOnUse"
       gradientTransform="matrix(1.0625,0,0,1.0625,332.05186,944.84632)"
       x1="-109.75"
       y1="81"
       x2="-109.75"
       y2="30.747408" />
    <linearGradient
       inkscape:collect="always"
       xlink:href="#linearGradient4330"
       id="linearGradient4336"
       x1="67.5"
       y1="1027.4835"
       x2="67.5"
       y2="980.20618"
       gradientUnits="userSpaceOnUse" />
  </defs>
  <sodipodi:namedview
     id="base"
     pagecolor="#ffffff"
     bordercolor="#666666"
     borderopacity="1.0"
     inkscape:pageopacity="0.0"
     inkscape:pageshadow="2"
     inkscape:zoom="2"
     inkscape:cx="210.90196"
     inkscape:cy="12.257915"
     inkscape:document-units="px"
     inkscape:current-layer="layer1"
     showgrid="false"
     inkscape:window-width="1366"
     inkscape:window-height="704"
     inkscape:window-x="0"
     inkscape:window-y="28"
     inkscape:window-maximized="1"
     showguides="true"
     inkscape:guide-bbox="true" />
  <metadata
     id="metadata7">
    <rdf:RDF>
      <cc:Work
         rdf:about="">
        <dc:format>image/svg+xml</dc:format>
        <dc:type
           rdf:resource="http://purl.org/dc/dcmitype/StillImage" />
        <dc:title></dc:title>
      </cc:Work>
    </rdf:RDF>
  </metadata>
  <g
     inkscape:label="Layer 1"
     inkscape:groupmode="layer"
     id="layer1"
     transform="translate(0,-956.36218)">
    <rect
       style="opacity:0.05;fill:#000000;fill-opacity:1;stroke:none"
       id="rect3826"
       width="89"
       height="89"
       x="3.5"
       y="960.86218"
       rx="10.595235"
       ry="10.595235" />
    <g
       id="g3041">
      <rect
         style="opacity:0.05;fill:#000000;fill-opacity:1;stroke:none"
         id="rect3824"
         width="88"
         height="88"
         x="4"
         y="961.36218"
         rx="10.476188"
         ry="10.476188" />
      <rect
         ry="10.357141"
         rx="10.357141"
         y="961.86218"
         x="4.5"
         height="87"
         width="87"
         id="rect3822"
         style="opacity:0.05;fill:#000000;fill-opacity:1;stroke:none" />
      <rect
         style="opacity:0.1;fill:#000000;fill-opacity:1;stroke:none"
         id="rect3820"
         width="86"
         height="86"
         x="5"
         y="962.36218"
         rx="10.238094"
         ry="10.238094" />
      <rect
         ry="10.119047"
         rx="10.119047"
         y="962.86218"
         x="5.5"
         height="85"
         width="85"
         id="rect3818"
         style="opacity:0.1;fill:#000000;fill-opacity:1;stroke:none" />
      <rect
         style="opacity:0.3;fill:#000000;fill-opacity:1;stroke:none"
         id="rect3131"
         width="84"
         height="84"
         x="6"
         y="963.36218"
         rx="10"
         ry="10" />
    </g>
    <rect
       ry="10"
       rx="10"
       y="962.36218"
       x="6"
       height="84"
       width="84"
       id="rect3036"
       style="fill:url(#linearGradient3074);fill-opacity:1;stroke:none" />
    <rect
       style="fill:url(#linearGradient3071);fill-opacity:1;stroke:none"
       id="rect3034"
       width="82"
       height="82"
       x="7"
       y="963.36218"
       rx="9.7619047"
       ry="9.7619047" />
    <path
       inkscape:connector-curvature="0"
       id="path4351"
       d="m 28.611915,989.99612 c -7.908117,7.90812 -7.908117,20.72968 0,28.63778 6.624092,6.6241 16.695783,7.6992 24.439378,3.2262 l 11.247418,11.2474 c 2.068862,2.0689 5.399953,2.0689 7.468815,0 2.068861,-2.0688 2.068862,-5.3999 0,-7.4688 l -11.247417,-11.2474 c 4.438501,-7.7367 3.339017,-17.78579 -3.270369,-24.39518 -7.908117,-7.90811 -20.729708,-7.90811 -28.637825,0 z m 6.805903,6.80591 c 4.14932,-4.14932 10.876699,-4.14932 15.026019,0 4.14932,4.14927 4.14932,10.87667 0,15.02597 -4.14932,4.1493 -10.876699,4.1493 -15.026019,0 -4.14932,-4.1493 -4.14932,-10.8767 0,-15.02597 z"
       style="opacity:0.05;fill:#000000;fill-opacity:1;stroke:none" />
    <path
       style="opacity:0.05;fill:#000000;fill-opacity:1;stroke:none"
       d="m 28.611915,988.99611 c -7.908117,7.90812 -7.908117,20.72969 0,28.63779 6.624092,6.6241 16.695783,7.6992 24.439378,3.2262 l 11.247418,11.2474 c 2.068862,2.0689 5.399953,2.0689 7.468815,0 2.068861,-2.0688 2.068862,-5.3999 0,-7.4688 l -11.247417,-11.2474 c 4.438501,-7.7367 3.339017,-17.7858 -3.270369,-24.39519 -7.908117,-7.90811 -20.729708,-7.90811 -28.637825,0 z m 6.805903,6.80591 c 4.14932,-4.14932 10.876699,-4.14932 15.026019,0 4.14932,4.14932 4.14932,10.87668 0,15.02598 -4.14932,4.1493 -10.876699,4.1493 -15.026019,0 -4.14932,-4.1493 -4.14932,-10.87666 0,-15.02598 z"
       id="path4349"
       inkscape:connector-curvature="0" />
    <path
       inkscape:connector-curvature="0"
       id="path4347"
       d="m 28.611915,987.9961 c -7.908117,7.90812 -7.908117,20.7297 0,28.6378 6.624092,6.6241 16.695783,7.6992 24.439378,3.2262 l 11.247418,11.2474 c 2.068862,2.0689 5.399953,2.0689 7.468815,0 2.068861,-2.0688 2.068862,-5.3999 0,-7.4688 l -11.247417,-11.2474 c 4.438501,-7.7367 3.339017,-17.78581 -3.270369,-24.3952 -7.908117,-7.90811 -20.729708,-7.90811 -28.637825,0 z m 6.805903,6.80591 c 4.14932,-4.14932 10.876699,-4.14932 15.026019,0 4.14932,4.14932 4.14932,10.87669 0,15.02599 -4.14932,4.1493 -10.876699,4.1493 -15.026019,0 -4.14932,-4.1493 -4.14932,-10.87667 0,-15.02599 z"
       style="opacity:0.05;fill:#000000;fill-opacity:1;stroke:none" />
    <path
       style="opacity:0.05;fill:#000000;fill-opacity:1;stroke:none"
       d="m 28.611915,986.99609 c -7.908117,7.90812 -7.908117,20.72971 0,28.63781 6.624092,6.6241 16.695783,7.6992 24.439378,3.2262 l 11.247418,11.2474 c 2.068862,2.0689 5.399953,2.0689 7.468815,0 2.068861,-2.0688 2.068862,-5.3999 0,-7.4688 l -11.247417,-11.2474 c 4.438501,-7.7367 3.339017,-17.78582 -3.270369,-24.39521 -7.908117,-7.90811 -20.729708,-7.90811 -28.637825,0 z m 6.805903,6.80591 c 4.14932,-4.14932 10.876699,-4.14932 15.026019,0 4.14932,4.14932 4.14932,10.8767 0,15.026 -4.14932,4.1493 -10.876699,4.1493 -15.026019,0 -4.14932,-4.1493 -4.14932,-10.87668 0,-15.026 z"
       id="path4345"
       inkscape:connector-curvature="0" />
    <path
       inkscape:connector-curvature="0"
       id="path4343"
       d="m 28.611915,985.99608 c -7.908117,7.90812 -7.908117,20.72972 0,28.63782 6.624092,6.6241 16.695783,7.6992 24.439378,3.2262 l 11.247418,11.2474 c 2.068862,2.0689 5.399953,2.0689 7.468815,0 2.068861,-2.0688 2.068862,-5.3999 0,-7.4688 l -11.247417,-11.2474 c 4.438501,-7.7367 3.339017,-17.78583 -3.270369,-24.39522 -7.908117,-7.90811 -20.729708,-7.90811 -28.637825,0 z m 6.805903,6.80591 c 4.14932,-4.14932 10.876699,-4.14932 15.026019,0 4.14932,4.14932 4.14932,10.87671 0,15.02601 -4.14932,4.1493 -10.876699,4.1493 -15.026019,0 -4.14932,-4.1493 -4.14932,-10.87669 0,-15.02601 z"
       style="opacity:0.05;fill:#000000;fill-opacity:1;stroke:none" />
    <path
       style="opacity:1;fill:url(#linearGradient4336);fill-opacity:1;stroke:none"
       d="m 28.611915,984.99617 c -7.908117,7.90812 -7.908117,20.72973 0,28.63783 6.624092,6.6241 16.695783,7.6992 24.439378,3.2262 l 11.247418,11.2474 c 2.068862,2.0689 5.399953,2.0689 7.468815,0 2.068861,-2.0688 2.068862,-5.3999 0,-7.4688 l -11.247417,-11.2474 c 4.438501,-7.7367 3.339017,-17.78584 -3.270369,-24.39523 -7.908117,-7.90811 -20.729708,-7.90811 -28.637825,0 z m 6.805903,6.80591 c 4.14932,-4.14932 10.876699,-4.14932 15.026019,0 4.14932,4.14932 4.14932,10.87672 0,15.02602 -4.14932,4.1493 -10.876699,4.1493 -15.026019,0 -4.14932,-4.1493 -4.14932,-10.8767 0,-15.02602 z"
       id="path4322"
       inkscape:connector-curvature="0" />
    <path
       style="opacity:1;fill:#ffffff;fill-opacity:1;stroke:none"
       d="M 42.9375 22.6875 C 37.755073 22.6875 32.579059 24.670945 28.625 28.625 C 24.545327 32.704674 22.589145 38.091711 22.71875 43.4375 C 22.842267 38.4236 24.798579 33.451423 28.625 29.625 C 36.533117 21.71689 49.341883 21.71689 57.25 29.625 C 61.174399 33.549402 63.154042 38.698083 63.1875 43.84375 C 63.420275 38.369415 61.42825 32.803252 57.25 28.625 C 53.295941 24.670945 48.119927 22.6875 42.9375 22.6875 z M 32.3125 43.4375 C 32.174872 46.323788 33.20205 49.264561 35.40625 51.46875 C 39.55557 55.61805 46.28818 55.61805 50.4375 51.46875 C 52.641826 49.264434 53.66902 46.323949 53.53125 43.4375 C 53.413121 45.989635 52.386409 48.519851 50.4375 50.46875 C 46.28818 54.61805 39.55557 54.61805 35.40625 50.46875 C 33.457212 48.519721 32.430515 45.98981 32.3125 43.4375 z M 60.875 53.375 C 60.75912 53.595722 60.655859 53.814046 60.53125 54.03125 L 71.78125 65.28125 C 72.686753 66.186769 73.168391 67.322559 73.28125 68.5 C 73.421435 66.991971 72.940745 65.440767 71.78125 64.28125 L 60.875 53.375 z "
       transform="translate(0,956.36218)"
       id="path4338" />
  </g>
</svg>
