<?xml version="1.0" encoding="UTF-8" standalone="no"?>
<!-- Created with Inkscape (http://www.inkscape.org/) -->

<svg
   xmlns:dc="http://purl.org/dc/elements/1.1/"
   xmlns:cc="http://creativecommons.org/ns#"
   xmlns:rdf="http://www.w3.org/1999/02/22-rdf-syntax-ns#"
   xmlns:svg="http://www.w3.org/2000/svg"
   xmlns="http://www.w3.org/2000/svg"
   xmlns:xlink="http://www.w3.org/1999/xlink"
   xmlns:sodipodi="http://sodipodi.sourceforge.net/DTD/sodipodi-0.dtd"
   xmlns:inkscape="http://www.inkscape.org/namespaces/inkscape"
   width="96"
   height="96"
   id="svg2"
   version="1.1"
   inkscape:version="0.48.4 r9939"
   sodipodi:docname="preferences-system-notifications.svg">
  <defs
     id="defs4">
    <linearGradient
       inkscape:collect="always"
       id="linearGradient3539">
      <stop
         style="stop-color:#3169bd;stop-opacity:1"
         offset="0"
         id="stop3541" />
      <stop
         style="stop-color:#2989dd;stop-opacity:1"
         offset="1"
         id="stop3543" />
    </linearGradient>
    <linearGradient
       id="linearGradient3533"
       inkscape:collect="always">
      <stop
         id="stop3535"
         offset="0"
         style="stop-color:#2969b5;stop-opacity:1" />
      <stop
         id="stop3537"
         offset="1"
         style="stop-color:#2986de;stop-opacity:1" />
    </linearGradient>
    <inkscape:perspective
       sodipodi:type="inkscape:persp3d"
       inkscape:vp_x="0 : 48 : 1"
       inkscape:vp_y="0 : 1000 : 0"
       inkscape:vp_z="96 : 48 : 1"
       inkscape:persp3d-origin="48 : 32 : 1"
       id="perspective3054" />
    <linearGradient
       id="linearGradient4357"
       inkscape:collect="always">
      <stop
         id="stop4359"
         offset="0"
         style="stop-color:#ded3d6;stop-opacity:1" />
      <stop
         id="stop4361"
         offset="1"
         style="stop-color:#f7ebef;stop-opacity:1" />
    </linearGradient>
    <linearGradient
       inkscape:collect="always"
       id="linearGradient3558">
      <stop
         style="stop-color:#ded3d6;stop-opacity:1"
         offset="0"
         id="stop3560" />
      <stop
         style="stop-color:#efebef;stop-opacity:1"
         offset="1"
         id="stop3562" />
    </linearGradient>
    <linearGradient
       id="linearGradient3076"
       inkscape:collect="always">
      <stop
         id="stop3078"
         offset="0"
         style="stop-color:#ffe7f7;stop-opacity:1" />
      <stop
         id="stop3080"
         offset="1"
         style="stop-color:#ffc3ef;stop-opacity:1" />
    </linearGradient>
    <linearGradient
       id="linearGradient3070"
       inkscape:collect="always">
      <stop
         id="stop3072"
         offset="0"
         style="stop-color:#943410;stop-opacity:1" />
      <stop
         id="stop3074"
         offset="1"
         style="stop-color:#dc7952;stop-opacity:1" />
    </linearGradient>
    <linearGradient
       inkscape:collect="always"
       id="linearGradient3059">
      <stop
         style="stop-color:#a53810;stop-opacity:1"
         offset="0"
         id="stop3061" />
      <stop
         style="stop-color:#e75911;stop-opacity:1"
         offset="1"
         id="stop3064" />
    </linearGradient>
    <linearGradient
       inkscape:collect="always"
       id="linearGradient3048">
      <stop
         style="stop-color:#c16d16;stop-opacity:1"
         offset="0"
         id="stop3050" />
      <stop
         style="stop-color:#ff8e31;stop-opacity:1"
         offset="1"
         id="stop3052" />
    </linearGradient>
    <linearGradient
       inkscape:collect="always"
       id="linearGradient3119">
      <stop
         style="stop-color:#92948f;stop-opacity:0"
         offset="0"
         id="stop3121" />
      <stop
         id="stop3123"
         offset="0.4283945"
         style="stop-color:#9b9e98;stop-opacity:1" />
      <stop
         style="stop-color:#939690;stop-opacity:0"
         offset="1"
         id="stop3125" />
    </linearGradient>
    <linearGradient
       id="linearGradient3073"
       inkscape:collect="always">
      <stop
         id="stop3075"
         offset="0"
         style="stop-color:#ffffff;stop-opacity:0" />
      <stop
         style="stop-color:#ffffff;stop-opacity:1"
         offset="0.45872402"
         id="stop3085" />
      <stop
         id="stop3083"
         offset="1"
         style="stop-color:#ffffff;stop-opacity:0" />
    </linearGradient>
    <linearGradient
       inkscape:collect="always"
       id="linearGradient3047">
      <stop
         style="stop-color:#000000;stop-opacity:1"
         offset="0"
         id="stop3049" />
      <stop
         id="stop3055"
         offset="0.06123874"
         style="stop-color:#1a1a1a;stop-opacity:1" />
      <stop
         style="stop-color:#333333;stop-opacity:1"
         offset="0.16480456"
         id="stop3057" />
      <stop
         id="stop3059"
         offset="0.55385184"
         style="stop-color:#4d4d4d;stop-opacity:1" />
      <stop
         style="stop-color:#999999;stop-opacity:1"
         offset="1"
         id="stop3051" />
    </linearGradient>
    <linearGradient
       id="linearGradient3041"
       inkscape:collect="always">
      <stop
         id="stop3043"
         offset="0"
         style="stop-color:#1a1a1a;stop-opacity:1" />
      <stop
         id="stop3045"
         offset="1"
         style="stop-color:#808080;stop-opacity:1" />
    </linearGradient>
    <linearGradient
       inkscape:collect="always"
       id="linearGradient3029">
      <stop
         style="stop-color:#333333;stop-opacity:1"
         offset="0"
         id="stop3031" />
      <stop
         style="stop-color:#e0e0dd;stop-opacity:0;"
         offset="1"
         id="stop3033" />
    </linearGradient>
    <linearGradient
       inkscape:collect="always"
       xlink:href="#linearGradient3029"
       id="linearGradient3035"
       x1="35.355339"
       y1="1030.3622"
       x2="35.355339"
       y2="975.33282"
       gradientUnits="userSpaceOnUse"
       gradientTransform="matrix(1.1638085,0,0,1.1638085,-7.862809,-164.23642)" />
    <linearGradient
       inkscape:collect="always"
       xlink:href="#linearGradient3041"
       id="linearGradient3039"
       gradientUnits="userSpaceOnUse"
       x1="35.355339"
       y1="1030.3622"
       x2="35.355339"
       y2="975.33282"
       gradientTransform="matrix(1.1218695,0,0,1.1218695,-5.8497348,-122.18782)" />
    <linearGradient
       inkscape:collect="always"
       xlink:href="#linearGradient3047"
       id="linearGradient3053"
       x1="40"
       y1="1043.4336"
       x2="39.285713"
       y2="972.33325"
       gradientUnits="userSpaceOnUse" />
    <linearGradient
       inkscape:collect="always"
       xlink:href="#linearGradient3073"
       id="linearGradient3113"
       gradientUnits="userSpaceOnUse"
       gradientTransform="translate(0,-956.36218)"
       x1="14.869445"
       y1="978.90387"
       x2="24.52651"
       y2="969.24683" />
    <linearGradient
       inkscape:collect="always"
       xlink:href="#linearGradient3073"
       id="linearGradient3115"
       gradientUnits="userSpaceOnUse"
       gradientTransform="matrix(-1,0,0,1,96,-956.36218)"
       x1="15.152279"
       y1="978.62103"
       x2="26.263966"
       y2="967.50934" />
    <linearGradient
       inkscape:collect="always"
       xlink:href="#linearGradient3119"
       id="linearGradient3117"
       gradientUnits="userSpaceOnUse"
       gradientTransform="translate(0,-956.36218)"
       x1="13.131983"
       y1="980.64136"
       x2="25.549681"
       y2="967.86646" />
    <linearGradient
       inkscape:collect="always"
       xlink:href="#linearGradient3119"
       id="linearGradient3129"
       gradientUnits="userSpaceOnUse"
       gradientTransform="matrix(-1,0,0,1,96,0)"
       x1="13.131983"
       y1="980.64136"
       x2="25.549681"
       y2="967.86646" />
    <linearGradient
       inkscape:collect="always"
       xlink:href="#linearGradient3048"
       id="linearGradient3054"
       x1="49.267925"
       y1="996.57349"
       x2="49.267925"
       y2="1045.8627"
       gradientUnits="userSpaceOnUse" />
    <linearGradient
       inkscape:collect="always"
       xlink:href="#linearGradient3048"
       id="linearGradient3058"
       x1="115.80308"
       y1="985.47241"
       x2="115.80308"
       y2="1033.5543"
       gradientUnits="userSpaceOnUse" />
    <linearGradient
       inkscape:collect="always"
       xlink:href="#linearGradient3076"
       id="linearGradient3055"
       gradientUnits="userSpaceOnUse"
       x1="115.80308"
       y1="985.47241"
       x2="115.80308"
       y2="1025.3639"
       gradientTransform="matrix(1.4144782,0,0,1.4144782,-119.78686,-419.05496)" />
    <linearGradient
       inkscape:collect="always"
       xlink:href="#linearGradient3059"
       id="linearGradient3066"
       x1="22.54203"
       y1="1043.3966"
       x2="22.54203"
       y2="964.45898"
       gradientUnits="userSpaceOnUse" />
    <linearGradient
       inkscape:collect="always"
       xlink:href="#linearGradient3070"
       id="linearGradient3068"
       x1="53.796227"
       y1="1046.0226"
       x2="53.796227"
       y2="962.97437"
       gradientUnits="userSpaceOnUse" />
    <linearGradient
       inkscape:collect="always"
       xlink:href="#linearGradient3076"
       id="linearGradient3086"
       gradientUnits="userSpaceOnUse"
       gradientTransform="matrix(1.4144782,0,0,1.4144782,-119.78686,-417.12598)"
       x1="115.80308"
       y1="985.47241"
       x2="115.80308"
       y2="1025.3639" />
    <linearGradient
       inkscape:collect="always"
       xlink:href="#linearGradient3076"
       id="linearGradient3091"
       gradientUnits="userSpaceOnUse"
       gradientTransform="matrix(1.4144782,0,0,1.4144782,-119.78686,-418.126)"
       x1="115.80308"
       y1="985.47241"
       x2="115.80308"
       y2="1025.3639" />
    <linearGradient
       inkscape:collect="always"
       xlink:href="#linearGradient3076"
       id="linearGradient3093"
       gradientUnits="userSpaceOnUse"
       gradientTransform="matrix(1.4144782,0,0,1.4144782,-119.78686,-1375.4171)"
       x1="115.80308"
       y1="985.47241"
       x2="115.80308"
       y2="1025.3639" />
    <linearGradient
       inkscape:collect="always"
       xlink:href="#linearGradient3558"
       id="linearGradient3564"
       x1="93.242035"
       y1="1027.2615"
       x2="93.242035"
       y2="980.7262"
       gradientUnits="userSpaceOnUse" />
    <linearGradient
       inkscape:collect="always"
       xlink:href="#linearGradient3558"
       id="linearGradient4350"
       gradientUnits="userSpaceOnUse"
       x1="93.242035"
       y1="1027.2615"
       x2="93.242035"
       y2="980.7262" />
    <linearGradient
       inkscape:collect="always"
       xlink:href="#linearGradient4357"
       id="linearGradient4354"
       gradientUnits="userSpaceOnUse"
       x1="93.242035"
       y1="1027.2615"
       x2="93.242035"
       y2="980.7262"
       gradientTransform="translate(-56.571856,0)" />
    <linearGradient
       inkscape:collect="always"
       xlink:href="#linearGradient4357"
       id="linearGradient3517"
       gradientUnits="userSpaceOnUse"
       gradientTransform="translate(-131.19827,0)"
       x1="93.242035"
       y1="1027.2615"
       x2="93.242035"
       y2="980.7262" />
    <linearGradient
       inkscape:collect="always"
       xlink:href="#linearGradient3533"
       id="linearGradient3521"
       gradientUnits="userSpaceOnUse"
       x1="22.54203"
       y1="1043.3966"
       x2="22.54203"
       y2="964.45898"
       gradientTransform="translate(0,-2.6171874e-6)" />
    <linearGradient
       inkscape:collect="always"
       xlink:href="#linearGradient3539"
       id="linearGradient3524"
       gradientUnits="userSpaceOnUse"
       x1="53.796227"
       y1="1046.0226"
       x2="53.796227"
       y2="962.97437" />
    <linearGradient
       inkscape:collect="always"
       xlink:href="#linearGradient3092"
       id="linearGradient3098"
       x1="54.305801"
       y1="1025.2092"
       x2="54.305801"
       y2="978.07318"
       gradientUnits="userSpaceOnUse" />
    <linearGradient
       inkscape:collect="always"
       id="linearGradient3092">
      <stop
         style="stop-color:#a5cbff;stop-opacity:1"
         offset="0"
         id="stop3094" />
      <stop
         style="stop-color:#eff3ff;stop-opacity:1"
         offset="1"
         id="stop3096" />
    </linearGradient>
    <linearGradient
       gradientTransform="translate(-4.9679891,0.6667921)"
       y2="978.07318"
       x2="54.305801"
       y1="1025.2092"
       x1="54.305801"
       gradientUnits="userSpaceOnUse"
       id="linearGradient3123"
       xlink:href="#linearGradient3092"
       inkscape:collect="always" />
  </defs>
  <sodipodi:namedview
     id="base"
     pagecolor="#ffffff"
     bordercolor="#666666"
     borderopacity="1.0"
     inkscape:pageopacity="0.0"
     inkscape:pageshadow="2"
     inkscape:zoom="1.9519093"
     inkscape:cx="66.291634"
     inkscape:cy="20.83719"
     inkscape:document-units="px"
     inkscape:current-layer="layer1"
     showgrid="false"
     inkscape:window-width="1366"
     inkscape:window-height="702"
     inkscape:window-x="0"
     inkscape:window-y="27"
     inkscape:window-maximized="1"
     showguides="true"
     inkscape:guide-bbox="true" />
  <metadata
     id="metadata7">
    <rdf:RDF>
      <cc:Work
         rdf:about="">
        <dc:format>image/svg+xml</dc:format>
        <dc:type
           rdf:resource="http://purl.org/dc/dcmitype/StillImage" />
        <dc:title></dc:title>
      </cc:Work>
    </rdf:RDF>
  </metadata>
  <g
     inkscape:label="Layer 1"
     inkscape:groupmode="layer"
     id="layer1"
     transform="translate(0,-956.36218)">
    <rect
       style="opacity:0.05;fill:#000000;fill-opacity:1;stroke:none"
       id="rect3826"
       width="89"
       height="89"
       x="3.5"
       y="960.86218"
       rx="10.595235"
       ry="10.595235" />
    <g
       id="g3041">
      <rect
         style="opacity:0.05;fill:#000000;fill-opacity:1;stroke:none"
         id="rect3824"
         width="88"
         height="88"
         x="4"
         y="961.36218"
         rx="10.476188"
         ry="10.476188" />
      <rect
         ry="10.357141"
         rx="10.357141"
         y="961.86218"
         x="4.5"
         height="87"
         width="87"
         id="rect3822"
         style="opacity:0.05;fill:#000000;fill-opacity:1;stroke:none" />
      <rect
         style="opacity:0.1;fill:#000000;fill-opacity:1;stroke:none"
         id="rect3820"
         width="86"
         height="86"
         x="5"
         y="962.36218"
         rx="10.238094"
         ry="10.238094" />
      <rect
         ry="10.119047"
         rx="10.119047"
         y="962.86218"
         x="5.5"
         height="85"
         width="85"
         id="rect3818"
         style="opacity:0.1;fill:#000000;fill-opacity:1;stroke:none" />
      <rect
         style="opacity:0.3;fill:#000000;fill-opacity:1;stroke:none"
         id="rect3131"
         width="84"
         height="84"
         x="6"
         y="963.36218"
         rx="10"
         ry="10" />
    </g>
    <rect
       ry="10"
       rx="10"
       y="962.36218"
       x="6"
       height="84"
       width="84"
       id="rect3036"
       style="fill:url(#linearGradient3524);fill-opacity:1;stroke:none" />
    <rect
       style="fill:url(#linearGradient3521);fill-opacity:1;stroke:none"
       id="rect3034"
       width="82"
       height="82"
       x="7"
       y="963.36218"
       rx="9.7619047"
       ry="9.7619047" />
    <path
       inkscape:connector-curvature="0"
       style="opacity:0.05;fill:#000000;fill-opacity:1"
       d="m 47.875,981.04937 c -0.536045,0.007 -1.064167,0.0778 -1.59375,0.1875 -0.277543,0.0575 -0.54001,0.13311 -0.8125,0.21875 -0.420764,0.13224 -0.848122,0.30078 -1.25,0.5 -0.248884,0.1234 -0.484564,0.25993 -0.71875,0.40625 -0.269554,0.16778 -0.526821,0.36215 -0.78125,0.5625 -0.272095,0.21426 -0.561045,0.4048 -0.8125,0.65625 L 24.625,1000.8931 c -3.329766,3.3298 -3.398416,8.6329 -0.15625,11.8751 l 0.3125,0.3125 c 3.242166,3.2421 8.545234,3.1735 11.875,-0.1563 l 2.84375,-2.8437 0,17.0625 c 0,4.709 3.791,8.5 8.5,8.5 4.709,0 8.5,-3.791 8.5,-8.5 l 0,-17.0625 2.84375,2.8437 c 3.329766,3.3298 8.601584,3.3984 11.84375,0.1563 l 0.34375,-0.3125 c 3.242166,-3.2422 3.173516,-8.5453 -0.15625,-11.8751 L 54.0625,983.58062 c -0.01061,-0.0106 -0.0206,-0.0207 -0.03125,-0.0312 -0.346895,-0.3469 -0.753472,-0.65476 -1.15625,-0.9375 -0.055,-0.0386 -0.1003,-0.0877 -0.15625,-0.125 -0.05181,-0.0347 -0.103894,-0.0603 -0.15625,-0.0937 -0.02704,-0.0172 -0.06654,-0.0144 -0.09375,-0.0312 -0.165715,-0.1084 -0.328412,-0.18617 -0.5,-0.28125 -0.186613,-0.0993 -0.366996,-0.19567 -0.5625,-0.28125 -0.05413,-0.0247 -0.10169,-0.0703 -0.15625,-0.0937 -0.07518,-0.0314 -0.144745,-0.0669 -0.21875,-0.0937 -0.160285,-0.0634 -0.336637,-0.10333 -0.5,-0.15625 -0.09603,-0.0302 -0.186867,-0.0665 -0.28125,-0.0937 -0.175379,-0.05 -0.35331,-0.0869 -0.53125,-0.125 -0.272427,-0.0583 -0.53589,-0.0945 -0.8125,-0.125 -0.01049,-10e-4 -0.02076,10e-4 -0.03125,0 -0.06216,-0.007 -0.124534,-0.0246 -0.1875,-0.0312 -0.266702,-0.0221 -0.544477,-0.0348 -0.8125,-0.0312 z"
       id="path3154" />
    <path
       id="path3152"
       d="m 47.875,980.04939 c -0.536045,0.007 -1.064167,0.0778 -1.59375,0.1875 -0.277543,0.0575 -0.54001,0.13311 -0.8125,0.21875 -0.420764,0.13224 -0.848122,0.30078 -1.25,0.5 -0.248884,0.1234 -0.484564,0.25993 -0.71875,0.40625 -0.269554,0.16778 -0.526821,0.36215 -0.78125,0.5625 -0.272095,0.21426 -0.561045,0.4048 -0.8125,0.65625 L 24.625,999.89314 c -3.329766,3.32976 -3.398416,8.63286 -0.15625,11.87506 l 0.3125,0.3125 c 3.242166,3.2421 8.545234,3.1735 11.875,-0.1563 l 2.84375,-2.8437 0,17.0625 c 0,4.709 3.791,8.5 8.5,8.5 4.709,0 8.5,-3.791 8.5,-8.5 l 0,-17.0625 2.84375,2.8437 c 3.329766,3.3298 8.601584,3.3984 11.84375,0.1563 l 0.34375,-0.3125 c 3.242166,-3.2422 3.173516,-8.5453 -0.15625,-11.87506 l -17.3125,-17.3125 c -0.01061,-0.0106 -0.0206,-0.0207 -0.03125,-0.0312 -0.346895,-0.3469 -0.753472,-0.65476 -1.15625,-0.9375 -0.055,-0.0386 -0.1003,-0.0877 -0.15625,-0.125 -0.05181,-0.0347 -0.103894,-0.0603 -0.15625,-0.0937 -0.02704,-0.0172 -0.06654,-0.0144 -0.09375,-0.0312 -0.165715,-0.1084 -0.328412,-0.18617 -0.5,-0.28125 -0.186613,-0.0993 -0.366996,-0.19567 -0.5625,-0.28125 -0.05413,-0.0247 -0.10169,-0.0703 -0.15625,-0.0937 -0.07518,-0.0314 -0.144745,-0.0669 -0.21875,-0.0937 -0.160285,-0.0634 -0.336637,-0.10333 -0.5,-0.15625 -0.09603,-0.0302 -0.186867,-0.0665 -0.28125,-0.0937 -0.175379,-0.05 -0.35331,-0.0869 -0.53125,-0.125 -0.272427,-0.0583 -0.53589,-0.0945 -0.8125,-0.125 -0.01049,-0.001 -0.02076,10e-4 -0.03125,0 -0.06216,-0.007 -0.124534,-0.0246 -0.1875,-0.0312 -0.266702,-0.0221 -0.544477,-0.0348 -0.8125,-0.0312 z"
       style="opacity:0.05;fill:#000000;fill-opacity:1"
       inkscape:connector-curvature="0" />
    <path
       inkscape:connector-curvature="0"
       style="opacity:0.05;fill:#000000;fill-opacity:1"
       d="m 47.875,979.04941 c -0.536045,0.007 -1.064167,0.0778 -1.59375,0.1875 -0.277543,0.0575 -0.54001,0.13311 -0.8125,0.21875 -0.420764,0.13224 -0.848122,0.30078 -1.25,0.5 -0.248884,0.1234 -0.484564,0.25993 -0.71875,0.40625 -0.269554,0.16778 -0.526821,0.36215 -0.78125,0.5625 -0.272095,0.21426 -0.561045,0.4048 -0.8125,0.65625 L 24.625,998.89316 c -3.329766,3.32974 -3.398416,8.63284 -0.15625,11.87504 l 0.3125,0.3125 c 3.242166,3.2421 8.545234,3.1735 11.875,-0.1563 l 2.84375,-2.8437 0,17.0625 c 0,4.709 3.791,8.5 8.5,8.5 4.709,0 8.5,-3.791 8.5,-8.5 l 0,-17.0625 2.84375,2.8437 c 3.329766,3.3298 8.601584,3.3984 11.84375,0.1563 l 0.34375,-0.3125 c 3.242166,-3.2422 3.173516,-8.5453 -0.15625,-11.87504 l -17.3125,-17.3125 c -0.01061,-0.0106 -0.0206,-0.0207 -0.03125,-0.0312 -0.346895,-0.3469 -0.753472,-0.65476 -1.15625,-0.9375 -0.055,-0.0386 -0.1003,-0.0877 -0.15625,-0.125 -0.05181,-0.0347 -0.103894,-0.0603 -0.15625,-0.0937 -0.02704,-0.0172 -0.06654,-0.0144 -0.09375,-0.0312 -0.165715,-0.1084 -0.328412,-0.18617 -0.5,-0.28125 -0.186613,-0.0993 -0.366996,-0.19567 -0.5625,-0.28125 -0.05413,-0.0247 -0.10169,-0.0703 -0.15625,-0.0937 -0.07518,-0.0314 -0.144745,-0.0669 -0.21875,-0.0937 -0.160285,-0.0634 -0.336637,-0.10333 -0.5,-0.15625 -0.09603,-0.0302 -0.186867,-0.0665 -0.28125,-0.0937 -0.175379,-0.05 -0.35331,-0.0869 -0.53125,-0.125 -0.272427,-0.0583 -0.53589,-0.0945 -0.8125,-0.125 -0.01049,-10e-4 -0.02076,10e-4 -0.03125,0 -0.06216,-0.007 -0.124534,-0.0246 -0.1875,-0.0312 -0.266702,-0.0221 -0.544477,-0.0348 -0.8125,-0.0312 z"
       id="path3150" />
    <path
       id="path3148"
       d="m 47.875,978.04943 c -0.536045,0.007 -1.064167,0.0778 -1.59375,0.1875 -0.277543,0.0575 -0.54001,0.13311 -0.8125,0.21875 -0.420764,0.13224 -0.848122,0.30078 -1.25,0.5 -0.248884,0.1234 -0.484564,0.25993 -0.71875,0.40625 -0.269554,0.16778 -0.526821,0.36215 -0.78125,0.5625 -0.272095,0.21426 -0.561045,0.4048 -0.8125,0.65625 L 24.625,997.89318 c -3.329766,3.32972 -3.398416,8.63282 -0.15625,11.87502 l 0.3125,0.3125 c 3.242166,3.2421 8.545234,3.1735 11.875,-0.1563 l 2.84375,-2.8437 0,17.0625 c 0,4.709 3.791,8.5 8.5,8.5 4.709,0 8.5,-3.791 8.5,-8.5 l 0,-17.0625 2.84375,2.8437 c 3.329766,3.3298 8.601584,3.3984 11.84375,0.1563 l 0.34375,-0.3125 c 3.242166,-3.2422 3.173516,-8.5453 -0.15625,-11.87502 l -17.3125,-17.3125 c -0.01061,-0.0106 -0.0206,-0.0207 -0.03125,-0.0312 -0.346895,-0.3469 -0.753472,-0.65476 -1.15625,-0.9375 -0.055,-0.0386 -0.1003,-0.0877 -0.15625,-0.125 -0.05181,-0.0347 -0.103894,-0.0603 -0.15625,-0.0937 -0.02704,-0.0172 -0.06654,-0.0144 -0.09375,-0.0312 -0.165715,-0.1084 -0.328412,-0.18617 -0.5,-0.28125 -0.186613,-0.0993 -0.366996,-0.19567 -0.5625,-0.28125 -0.05413,-0.0247 -0.10169,-0.0703 -0.15625,-0.0937 -0.07518,-0.0314 -0.144745,-0.0669 -0.21875,-0.0937 -0.160285,-0.0634 -0.336637,-0.10333 -0.5,-0.15625 -0.09603,-0.0302 -0.186867,-0.0665 -0.28125,-0.0937 -0.175379,-0.05 -0.35331,-0.0869 -0.53125,-0.125 -0.272427,-0.0583 -0.53589,-0.0945 -0.8125,-0.125 -0.01049,-0.001 -0.02076,0.001 -0.03125,0 -0.06216,-0.007 -0.124534,-0.0246 -0.1875,-0.0312 -0.266702,-0.0221 -0.544477,-0.0348 -0.8125,-0.0312 z"
       style="opacity:0.05;fill:#000000;fill-opacity:1"
       inkscape:connector-curvature="0" />
    <path
       style="opacity:0.05;fill:#000000;fill-opacity:1"
       d="M 47.875 20.6875 C 47.338955 20.694645 46.810833 20.765273 46.28125 20.875 C 46.003707 20.932506 45.74124 21.008113 45.46875 21.09375 C 45.047986 21.225986 44.620628 21.394529 44.21875 21.59375 C 43.969866 21.717146 43.734186 21.85368 43.5 22 C 43.230446 22.167784 42.973179 22.362153 42.71875 22.5625 C 42.446655 22.776758 42.157705 22.967295 41.90625 23.21875 L 24.625 40.53125 C 21.295234 43.861016 21.226584 49.164084 24.46875 52.40625 L 24.78125 52.71875 C 28.023416 55.960916 33.326484 55.892266 36.65625 52.5625 L 39.5 49.71875 L 39.5 66.78125 C 39.5 71.49025 43.291 75.28125 48 75.28125 C 52.709 75.28125 56.5 71.49025 56.5 66.78125 L 56.5 49.71875 L 59.34375 52.5625 C 62.673516 55.892266 67.945334 55.960916 71.1875 52.71875 L 71.53125 52.40625 C 74.773416 49.164084 74.704766 43.861016 71.375 40.53125 L 54.0625 23.21875 C 54.05189 23.20814 54.041899 23.198043 54.03125 23.1875 C 53.684355 22.840605 53.277778 22.532745 52.875 22.25 C 52.820004 22.211394 52.7747 22.162323 52.71875 22.125 C 52.666938 22.090332 52.614856 22.064676 52.5625 22.03125 C 52.535456 22.014041 52.495961 22.016896 52.46875 22 C 52.303035 21.891601 52.140338 21.813831 51.96875 21.71875 C 51.782137 21.61945 51.601754 21.523079 51.40625 21.4375 C 51.352121 21.412823 51.30456 21.367184 51.25 21.34375 C 51.174819 21.312327 51.105255 21.276826 51.03125 21.25 C 50.870965 21.186572 50.694613 21.14667 50.53125 21.09375 C 50.435224 21.06355 50.344383 21.027272 50.25 21 C 50.074621 20.950033 49.89669 20.91309 49.71875 20.875 C 49.446323 20.816684 49.18286 20.7805 48.90625 20.75 C 48.895762 20.748844 48.885492 20.751116 48.875 20.75 C 48.812842 20.743434 48.750466 20.725399 48.6875 20.71875 C 48.420798 20.696638 48.143023 20.683927 47.875 20.6875 z "
       transform="translate(0,956.36218)"
       id="rect3084" />
    <path
       style="fill:url(#linearGradient3123);fill-opacity:1"
       d="m 42.640625,980.46633 -17.28125,17.28129 c -2.938029,2.93808 -2.938029,7.65568 0,10.59368 2.938029,2.938 7.686971,2.938 10.625,0 l 4.53125,-4.5313 0,19.6249 c 0,4.1231 3.345,7.4376 7.5,7.4376 4.155,0 7.5,-3.3144 7.5,-7.4375 l 0,-19.5936 4.5,4.5 c 2.938029,2.938 7.686971,2.938 10.625,0 2.938029,-2.938 2.938029,-7.6557 0,-10.59378 l -17.3125,-17.31254 c -4.287013,-3.41462 -6.637463,-3.48436 -10.6875,0.0312 z"
       id="rect3084-3"
       inkscape:connector-curvature="0"
       sodipodi:nodetypes="cssscssscssscc" />
    <path
       style="fill:#ffffff;fill-opacity:1"
       d="M 47.90625 21.5 C 46.276506 21.495182 44.650019 22.33597 42.625 24.09375 L 25.375 41.375 C 23.77814 42.971888 23.048528 45.11069 23.1875 47.1875 C 23.30422 45.443226 24.033831 43.716201 25.375 42.375 L 42.625 25.09375 C 46.675037 21.57819 49.025487 21.64788 53.3125 25.0625 L 70.625 42.375 C 71.966169 43.716201 72.69578 45.443204 72.8125 47.1875 C 72.951472 45.110663 72.22186 42.971888 70.625 41.375 L 53.3125 24.0625 C 51.168993 22.35519 49.535994 21.504818 47.90625 21.5 z "
       transform="translate(0,956.36218)"
       id="path3156" />
  </g>
</svg>
