<?xml version="1.0" encoding="UTF-8" standalone="no"?>
<!-- Created with Inkscape (http://www.inkscape.org/) -->

<svg
   xmlns:dc="http://purl.org/dc/elements/1.1/"
   xmlns:cc="http://creativecommons.org/ns#"
   xmlns:rdf="http://www.w3.org/1999/02/22-rdf-syntax-ns#"
   xmlns:svg="http://www.w3.org/2000/svg"
   xmlns="http://www.w3.org/2000/svg"
   xmlns:sodipodi="http://sodipodi.sourceforge.net/DTD/sodipodi-0.dtd"
   xmlns:inkscape="http://www.inkscape.org/namespaces/inkscape"
   width="96"
   height="96"
   id="svg16495"
   version="1.1"
   inkscape:version="0.48.5 r10040"
   sodipodi:docname="wps-office-wppmain.svg">
  <defs
     id="defs16497" />
  <sodipodi:namedview
     id="base"
     pagecolor="#ffffff"
     bordercolor="#666666"
     borderopacity="1.0"
     inkscape:pageopacity="0.0"
     inkscape:pageshadow="2"
     inkscape:zoom="1.4"
     inkscape:cx="64.709327"
     inkscape:cy="29.341373"
     inkscape:document-units="px"
     inkscape:current-layer="layer1"
     showgrid="false"
     inkscape:window-width="1366"
     inkscape:window-height="713"
     inkscape:window-x="0"
     inkscape:window-y="28"
     inkscape:window-maximized="1" />
  <metadata
     id="metadata16500">
    <rdf:RDF>
      <cc:Work
         rdf:about="">
        <dc:format>image/svg+xml</dc:format>
        <dc:type
           rdf:resource="http://purl.org/dc/dcmitype/StillImage" />
        <dc:title />
      </cc:Work>
    </rdf:RDF>
  </metadata>
  <g
     inkscape:label="Layer 1"
     inkscape:groupmode="layer"
     id="layer1"
     transform="translate(0,-956.36217)">
    <g
       id="g3033"
       transform="matrix(-1,0,0,1,96,-1.0000126)">
      <rect
         ry="10.595235"
         rx="10.595235"
         y="961.86218"
         x="3.5"
         height="89"
         width="89"
         id="rect3826"
         style="opacity:0.05;fill:#000000;fill-opacity:1;stroke:none" />
      <rect
         style="opacity:0.05;fill:#000000;fill-opacity:1;stroke:none"
         id="rect3824"
         width="88"
         height="88"
         x="4"
         y="962.36218"
         rx="10.476188"
         ry="10.476188" />
      <rect
         ry="10.357141"
         rx="10.357141"
         y="962.86218"
         x="4.5"
         height="87"
         width="87"
         id="rect3822"
         style="opacity:0.05;fill:#000000;fill-opacity:1;stroke:none" />
      <rect
         style="opacity:0.1;fill:#000000;fill-opacity:1;stroke:none"
         id="rect3820"
         width="86"
         height="86"
         x="5"
         y="963.36218"
         rx="10.238094"
         ry="10.238094" />
      <rect
         ry="10.119047"
         rx="10.119047"
         y="963.86218"
         x="5.5"
         height="85"
         width="85"
         id="rect3818"
         style="opacity:0.1;fill:#000000;fill-opacity:1;stroke:none" />
      <rect
         style="opacity:0.3;fill:#000000;fill-opacity:1;stroke:none"
         id="rect3131"
         width="84"
         height="84"
         x="6"
         y="964.36218"
         rx="10"
         ry="10" />
    </g>
    <rect
       ry="10"
       rx="10"
       y="962.36218"
       x="-90"
       height="84"
       width="84"
       id="rect3036"
       style="fill:#ff9955;fill-opacity:1;stroke:none"
       transform="scale(-1,1)" />
    <path
       style="fill:#ffffff;fill-opacity:1;stroke:none"
       d="m 31.437616,988.12908 c -1.32911,0 -2.375,1.04052 -2.375,2.3125 l 0,0.21875 c 0,1.27198 1.04589,2.28125 2.375,2.28125 l 26.0625,0 c 0.09374,0 0.19038,-0.0213 0.28125,-0.0312 l 0,0.0625 c 2.39869,0 4.34375,1.94506 4.34375,4.34375 0,2.39868 -1.94506,4.34377 -4.34375,4.34377 l -26.34375,0 c -0.66455,0 -1.25386,0.2538 -1.6875,0.6875 -0.10841,0.1057 -0.19519,0.2193 -0.28125,0.3437 -0.0047,0.01 0.0046,0.024 0,0.031 -0.16387,0.2431 -0.31327,0.5169 -0.375,0.8125 -0.0021,0.01 0.002,0.021 0,0.031 -0.02786,0.1431 -0.03125,0.2863 -0.03125,0.4375 -5.2e-4,0.021 0,0.042 0,0.062 l 0,0.062 0,14.0625 c 0,1.3291 1.04589,2.4063 2.375,2.4063 1.32911,0 2.40625,-1.0772 2.40625,-2.4063 l 0,-11.75 23.9375,0 c 0.16614,0 0.34354,-2e-4 0.5,-0.031 4.8172,-0.2608 8.65625,-4.2115 8.65625,-9.09377 0,-4.97676 -3.98903,-9.0074 -8.9375,-9.125 -0.0686,-0.0134 -0.14812,-0.0236 -0.21875,-0.0312 -0.09046,-0.01 -0.18796,-0.0312 -0.28125,-0.0312 l -26.0625,0 z"
       id="rect3002"
       inkscape:connector-curvature="0" />
  </g>
</svg>
