<?xml version="1.0" encoding="UTF-8" standalone="no"?>
<!-- Created with Inkscape (http://www.inkscape.org/) -->

<svg
   xmlns:dc="http://purl.org/dc/elements/1.1/"
   xmlns:cc="http://creativecommons.org/ns#"
   xmlns:rdf="http://www.w3.org/1999/02/22-rdf-syntax-ns#"
   xmlns:svg="http://www.w3.org/2000/svg"
   xmlns="http://www.w3.org/2000/svg"
   xmlns:sodipodi="http://sodipodi.sourceforge.net/DTD/sodipodi-0.dtd"
   xmlns:inkscape="http://www.inkscape.org/namespaces/inkscape"
   width="96"
   height="96"
   id="svg16495"
   version="1.1"
   inkscape:version="0.48.5 r10040"
   sodipodi:docname="wps-office-etmain.svg">
  <defs
     id="defs16497" />
  <sodipodi:namedview
     id="base"
     pagecolor="#ffffff"
     bordercolor="#666666"
     borderopacity="1.0"
     inkscape:pageopacity="0.0"
     inkscape:pageshadow="2"
     inkscape:zoom="2.8"
     inkscape:cx="127.92942"
     inkscape:cy="63.479447"
     inkscape:document-units="px"
     inkscape:current-layer="layer1"
     showgrid="false"
     inkscape:window-width="1366"
     inkscape:window-height="713"
     inkscape:window-x="0"
     inkscape:window-y="28"
     inkscape:window-maximized="1" />
  <metadata
     id="metadata16500">
    <rdf:RDF>
      <cc:Work
         rdf:about="">
        <dc:format>image/svg+xml</dc:format>
        <dc:type
           rdf:resource="http://purl.org/dc/dcmitype/StillImage" />
        <dc:title />
      </cc:Work>
    </rdf:RDF>
  </metadata>
  <g
     inkscape:label="Layer 1"
     inkscape:groupmode="layer"
     id="layer1"
     transform="translate(0,-956.36217)">
    <g
       id="g3033"
       transform="matrix(-1,0,0,1,96,-1.0000126)">
      <rect
         ry="10.595235"
         rx="10.595235"
         y="961.86218"
         x="3.5"
         height="89"
         width="89"
         id="rect3826"
         style="opacity:0.05;fill:#000000;fill-opacity:1;stroke:none" />
      <rect
         style="opacity:0.05;fill:#000000;fill-opacity:1;stroke:none"
         id="rect3824"
         width="88"
         height="88"
         x="4"
         y="962.36218"
         rx="10.476188"
         ry="10.476188" />
      <rect
         ry="10.357141"
         rx="10.357141"
         y="962.86218"
         x="4.5"
         height="87"
         width="87"
         id="rect3822"
         style="opacity:0.05;fill:#000000;fill-opacity:1;stroke:none" />
      <rect
         style="opacity:0.1;fill:#000000;fill-opacity:1;stroke:none"
         id="rect3820"
         width="86"
         height="86"
         x="5"
         y="963.36218"
         rx="10.238094"
         ry="10.238094" />
      <rect
         ry="10.119047"
         rx="10.119047"
         y="963.86218"
         x="5.5"
         height="85"
         width="85"
         id="rect3818"
         style="opacity:0.1;fill:#000000;fill-opacity:1;stroke:none" />
      <rect
         style="opacity:0.3;fill:#000000;fill-opacity:1;stroke:none"
         id="rect3131"
         width="84"
         height="84"
         x="6"
         y="964.36218"
         rx="10"
         ry="10" />
    </g>
    <rect
       ry="10"
       rx="10"
       y="962.36218"
       x="-90"
       height="84"
       width="84"
       id="rect3036"
       style="fill:#40d087;fill-opacity:1;stroke:none"
       transform="scale(-1,1)" />
    <path
       style="fill:#ffffff;fill-opacity:1;stroke:none"
       d="m 38.03125,988.84677 c -4.90818,0 -8.875,3.96682 -8.875,8.875 0,4.83423 3.85065,8.78823 8.65625,8.90623 0.07352,0 0.14479,0 0.21875,0 l 20,0 c 2.41796,0 4.375,1.9571 4.375,4.375 0,2.418 -1.95704,4.375 -4.375,4.375 l -26.6875,0 c -1.2465,0 -2.25,0.9892 -2.25,2.2188 l 0,0.062 c 0,1.2295 1.0035,2.2187 2.25,2.2187 l 26.6875,0 c 0.02113,0 0.0414,2e-4 0.0625,0 0.15581,0 0.32202,0 0.46875,-0.031 4.65778,-0.2764 8.34375,-4.1156 8.34375,-8.8438 0,-4.654 -3.56995,-8.4608 -8.125,-8.8437 -0.14673,-0.027 -0.31294,-0.031 -0.46875,-0.031 -0.09475,0 -0.18577,-0.031 -0.28125,-0.031 l 0,0.031 -20,0 0,-0.031 c -2.41796,0 -4.375,-1.9571 -4.375,-4.37503 0,-2.41796 1.95704,-4.375 4.375,-4.375 0.02134,0 0.04123,-3e-4 0.0625,0 l 25.96875,0 c 1.2465,0 2.25,-0.91071 2.25,-2.03125 l 0,-0.4375 c 0,-1.12054 -1.0035,-2.03125 -2.25,-2.03125 l -25.96875,0 c -0.02068,0 -0.04195,-4.9e-4 -0.0625,0 z"
       id="rect3003"
       inkscape:connector-curvature="0" />
  </g>
</svg>
