<?xml version="1.0" encoding="UTF-8" standalone="no"?>
<!-- Created with Inkscape (http://www.inkscape.org/) -->

<svg
   xmlns:dc="http://purl.org/dc/elements/1.1/"
   xmlns:cc="http://creativecommons.org/ns#"
   xmlns:rdf="http://www.w3.org/1999/02/22-rdf-syntax-ns#"
   xmlns:svg="http://www.w3.org/2000/svg"
   xmlns="http://www.w3.org/2000/svg"
   xmlns:sodipodi="http://sodipodi.sourceforge.net/DTD/sodipodi-0.dtd"
   xmlns:inkscape="http://www.inkscape.org/namespaces/inkscape"
   width="96"
   height="96"
   id="svg16495"
   version="1.1"
   inkscape:version="0.48.5 r10040"
   sodipodi:docname="wps-office-wpsmain.svg">
  <defs
     id="defs16497" />
  <sodipodi:namedview
     id="base"
     pagecolor="#ffffff"
     bordercolor="#666666"
     borderopacity="1.0"
     inkscape:pageopacity="0.0"
     inkscape:pageshadow="2"
     inkscape:zoom="1.4"
     inkscape:cx="315.32464"
     inkscape:cy="-37.99727"
     inkscape:document-units="px"
     inkscape:current-layer="layer1"
     showgrid="false"
     inkscape:window-width="1366"
     inkscape:window-height="713"
     inkscape:window-x="0"
     inkscape:window-y="28"
     inkscape:window-maximized="1" />
  <metadata
     id="metadata16500">
    <rdf:RDF>
      <cc:Work
         rdf:about="">
        <dc:format>image/svg+xml</dc:format>
        <dc:type
           rdf:resource="http://purl.org/dc/dcmitype/StillImage" />
        <dc:title />
      </cc:Work>
    </rdf:RDF>
  </metadata>
  <g
     inkscape:label="Layer 1"
     inkscape:groupmode="layer"
     id="layer1"
     transform="translate(0,-956.36217)">
    <g
       id="g3033"
       transform="matrix(-1,0,0,1,96,-1.0000126)">
      <rect
         ry="10.595235"
         rx="10.595235"
         y="961.86218"
         x="3.5"
         height="89"
         width="89"
         id="rect3826"
         style="opacity:0.05;fill:#000000;fill-opacity:1;stroke:none" />
      <rect
         style="opacity:0.05;fill:#000000;fill-opacity:1;stroke:none"
         id="rect3824"
         width="88"
         height="88"
         x="4"
         y="962.36218"
         rx="10.476188"
         ry="10.476188" />
      <rect
         ry="10.357141"
         rx="10.357141"
         y="962.86218"
         x="4.5"
         height="87"
         width="87"
         id="rect3822"
         style="opacity:0.05;fill:#000000;fill-opacity:1;stroke:none" />
      <rect
         style="opacity:0.1;fill:#000000;fill-opacity:1;stroke:none"
         id="rect3820"
         width="86"
         height="86"
         x="5"
         y="963.36218"
         rx="10.238094"
         ry="10.238094" />
      <rect
         ry="10.119047"
         rx="10.119047"
         y="963.86218"
         x="5.5"
         height="85"
         width="85"
         id="rect3818"
         style="opacity:0.1;fill:#000000;fill-opacity:1;stroke:none" />
      <rect
         style="opacity:0.3;fill:#000000;fill-opacity:1;stroke:none"
         id="rect3131"
         width="84"
         height="84"
         x="6"
         y="964.36218"
         rx="10"
         ry="10" />
    </g>
    <rect
       ry="10"
       rx="10"
       y="962.36218"
       x="-90"
       height="84"
       width="84"
       id="rect3036"
       style="fill:#609cff;fill-opacity:1;stroke:none"
       transform="scale(-1,1)" />
    <path
       style="fill:#ffffff;fill-opacity:1;stroke:none"
       d="m 31.53125,988.25298 c -1.31055,0 -2.375,1.06445 -2.375,2.375 l 0,27.46882 c 0,1.3105 1.06445,2.375 2.375,2.375 0.04435,0 0.08126,-0.029 0.125,-0.031 0.14692,-0.01 0.29414,-0.028 0.4375,-0.062 0.29949,-0.075 0.57088,-0.1988 0.8125,-0.375 0.09986,-0.073 0.19195,-0.1586 0.28125,-0.25 0.02117,-0.021 0.04215,-0.041 0.0625,-0.062 l 14.71875,-16.3125 14.75,16.3125 c 0.02579,0.029 0.06689,0.036 0.09375,0.062 0.08126,0.081 0.15759,0.1813 0.25,0.25 0.01883,0.014 0.04334,0.018 0.0625,0.031 0.0118,0.01 0.0193,0.023 0.03125,0.031 0.09675,0.064 0.20894,0.1084 0.3125,0.1563 0.12082,0.058 0.24374,0.088 0.375,0.125 0.02264,0.01 0.03959,0.025 0.0625,0.031 0.03196,0.01 0.06155,0.025 0.09375,0.031 0.1024,0.021 0.20566,0.024 0.3125,0.031 0.05412,0 0.10117,0.031 0.15625,0.031 0.07654,0 0.14411,-0.024 0.21875,-0.031 0.08511,-0.01 0.16781,-0.014 0.25,-0.031 0.09528,-0.021 0.1885,-0.061 0.28125,-0.094 0.93881,-0.3133 1.625,-1.1719 1.625,-2.2187 l 0,-27.46882 c 0,-1.31055 -1.06445,-2.375 -2.375,-2.375 -1.31055,0 -2.375,1.06445 -2.375,2.375 l 0,21.46882 -12.53125,-13.87507 c -0.4721,-0.42715 -0.84906,-0.59375 -1.59375,-0.59375 -0.74468,0 -1.2291,0.30915 -1.65625,0.78125 l -12.4375,13.75007 0,-21.53132 c 0,-1.31055 -1.0332,-2.375 -2.34375,-2.375 z"
       id="rect3002"
       inkscape:connector-curvature="0" />
  </g>
</svg>
