<?xml version="1.0" encoding="UTF-8" standalone="no"?>
<!-- Created with Inkscape (http://www.inkscape.org/) -->

<svg
   xmlns:dc="http://purl.org/dc/elements/1.1/"
   xmlns:cc="http://creativecommons.org/ns#"
   xmlns:rdf="http://www.w3.org/1999/02/22-rdf-syntax-ns#"
   xmlns:svg="http://www.w3.org/2000/svg"
   xmlns="http://www.w3.org/2000/svg"
   xmlns:xlink="http://www.w3.org/1999/xlink"
   xmlns:sodipodi="http://sodipodi.sourceforge.net/DTD/sodipodi-0.dtd"
   xmlns:inkscape="http://www.inkscape.org/namespaces/inkscape"
   width="96"
   height="96"
   id="svg2"
   version="1.1"
   inkscape:version="0.48.4 r9939"
   sodipodi:docname="application-x-clementine.svg">
  <defs
     id="defs4">
    <linearGradient
       inkscape:collect="always"
       id="linearGradient3096">
      <stop
         style="stop-color:#f29205;stop-opacity:1"
         offset="0"
         id="stop3098" />
      <stop
         id="stop3106"
         offset="0.3587521"
         style="stop-color:#fbbf2e;stop-opacity:1" />
      <stop
         id="stop3104"
         offset="0.80736375"
         style="stop-color:#fab419;stop-opacity:1" />
      <stop
         style="stop-color:#fbb50b;stop-opacity:1"
         offset="1"
         id="stop3100" />
    </linearGradient>
    <linearGradient
       id="linearGradient3992"
       inkscape:collect="always">
      <stop
         id="stop3994"
         offset="0"
         style="stop-color:#f3eeea;stop-opacity:1" />
      <stop
         id="stop3996"
         offset="1"
         style="stop-color:#fefff3;stop-opacity:1" />
    </linearGradient>
    <linearGradient
       id="linearGradient3932">
      <stop
         id="stop3934"
         offset="0"
         style="stop-color:#e26308;stop-opacity:1;" />
      <stop
         style="stop-color:#fa8e18;stop-opacity:1;"
         offset="0.50365889"
         id="stop3936" />
      <stop
         id="stop3938"
         offset="1"
         style="stop-color:#ffac71;stop-opacity:1;" />
    </linearGradient>
    <linearGradient
       inkscape:collect="always"
       id="linearGradient3071">
      <stop
         style="stop-color:#d0dfda;stop-opacity:1"
         offset="0"
         id="stop3073" />
      <stop
         style="stop-color:#f5f8fd;stop-opacity:1"
         offset="1"
         id="stop3076" />
    </linearGradient>
    <linearGradient
       id="linearGradient3076"
       inkscape:collect="always">
      <stop
         id="stop3078"
         offset="0"
         style="stop-color:#ffe7f7;stop-opacity:1" />
      <stop
         id="stop3080"
         offset="1"
         style="stop-color:#ffc3ef;stop-opacity:1" />
    </linearGradient>
    <linearGradient
       id="linearGradient3070"
       inkscape:collect="always">
      <stop
         id="stop3072"
         offset="0"
         style="stop-color:#e57606;stop-opacity:1" />
      <stop
         style="stop-color:#febe04;stop-opacity:1"
         offset="0.50818431"
         id="stop3062" />
      <stop
         id="stop3138"
         offset="0.82690203"
         style="stop-color:#fab91a;stop-opacity:1" />
      <stop
         id="stop3074"
         offset="1"
         style="stop-color:#e87f16;stop-opacity:1" />
    </linearGradient>
    <linearGradient
       id="linearGradient3059">
      <stop
         style="stop-color:#e3ffb4;stop-opacity:1"
         offset="0"
         id="stop3061" />
      <stop
         id="stop3065"
         offset="0.50118309"
         style="stop-color:#dfffb8;stop-opacity:1" />
      <stop
         style="stop-color:#e7ffae;stop-opacity:1"
         offset="1"
         id="stop3064" />
    </linearGradient>
    <linearGradient
       inkscape:collect="always"
       id="linearGradient3048">
      <stop
         style="stop-color:#c16d16;stop-opacity:1"
         offset="0"
         id="stop3050" />
      <stop
         style="stop-color:#ff8e31;stop-opacity:1"
         offset="1"
         id="stop3052" />
    </linearGradient>
    <linearGradient
       inkscape:collect="always"
       id="linearGradient3119">
      <stop
         style="stop-color:#92948f;stop-opacity:0"
         offset="0"
         id="stop3121" />
      <stop
         id="stop3123"
         offset="0.4283945"
         style="stop-color:#9b9e98;stop-opacity:1" />
      <stop
         style="stop-color:#939690;stop-opacity:0"
         offset="1"
         id="stop3125" />
    </linearGradient>
    <linearGradient
       id="linearGradient3073"
       inkscape:collect="always">
      <stop
         id="stop3075"
         offset="0"
         style="stop-color:#ffffff;stop-opacity:0" />
      <stop
         style="stop-color:#ffffff;stop-opacity:1"
         offset="0.45872402"
         id="stop3085" />
      <stop
         id="stop3083"
         offset="1"
         style="stop-color:#ffffff;stop-opacity:0" />
    </linearGradient>
    <linearGradient
       inkscape:collect="always"
       id="linearGradient3047">
      <stop
         style="stop-color:#000000;stop-opacity:1"
         offset="0"
         id="stop3049" />
      <stop
         id="stop3055"
         offset="0.06123874"
         style="stop-color:#1a1a1a;stop-opacity:1" />
      <stop
         style="stop-color:#333333;stop-opacity:1"
         offset="0.16480456"
         id="stop3057" />
      <stop
         id="stop3059"
         offset="0.55385184"
         style="stop-color:#4d4d4d;stop-opacity:1" />
      <stop
         style="stop-color:#999999;stop-opacity:1"
         offset="1"
         id="stop3051" />
    </linearGradient>
    <linearGradient
       id="linearGradient3041"
       inkscape:collect="always">
      <stop
         id="stop3043"
         offset="0"
         style="stop-color:#1a1a1a;stop-opacity:1" />
      <stop
         id="stop3045"
         offset="1"
         style="stop-color:#808080;stop-opacity:1" />
    </linearGradient>
    <linearGradient
       inkscape:collect="always"
       id="linearGradient3029">
      <stop
         style="stop-color:#333333;stop-opacity:1"
         offset="0"
         id="stop3031" />
      <stop
         style="stop-color:#e0e0dd;stop-opacity:0;"
         offset="1"
         id="stop3033" />
    </linearGradient>
    <linearGradient
       inkscape:collect="always"
       xlink:href="#linearGradient3029"
       id="linearGradient3035"
       x1="35.355339"
       y1="1030.3622"
       x2="35.355339"
       y2="975.33282"
       gradientUnits="userSpaceOnUse"
       gradientTransform="matrix(1.1638085,0,0,1.1638085,-7.862809,-164.23642)" />
    <linearGradient
       inkscape:collect="always"
       xlink:href="#linearGradient3041"
       id="linearGradient3039"
       gradientUnits="userSpaceOnUse"
       x1="35.355339"
       y1="1030.3622"
       x2="35.355339"
       y2="975.33282"
       gradientTransform="matrix(1.1218695,0,0,1.1218695,-5.8497348,-122.18782)" />
    <linearGradient
       inkscape:collect="always"
       xlink:href="#linearGradient3047"
       id="linearGradient3053"
       x1="40"
       y1="1043.4336"
       x2="39.285713"
       y2="972.33325"
       gradientUnits="userSpaceOnUse" />
    <linearGradient
       inkscape:collect="always"
       xlink:href="#linearGradient3073"
       id="linearGradient3113"
       gradientUnits="userSpaceOnUse"
       gradientTransform="translate(0,-956.36218)"
       x1="14.869445"
       y1="978.90387"
       x2="24.52651"
       y2="969.24683" />
    <linearGradient
       inkscape:collect="always"
       xlink:href="#linearGradient3073"
       id="linearGradient3115"
       gradientUnits="userSpaceOnUse"
       gradientTransform="matrix(-1,0,0,1,96,-956.36218)"
       x1="15.152279"
       y1="978.62103"
       x2="26.263966"
       y2="967.50934" />
    <linearGradient
       inkscape:collect="always"
       xlink:href="#linearGradient3119"
       id="linearGradient3117"
       gradientUnits="userSpaceOnUse"
       gradientTransform="translate(0,-956.36218)"
       x1="13.131983"
       y1="980.64136"
       x2="25.549681"
       y2="967.86646" />
    <linearGradient
       inkscape:collect="always"
       xlink:href="#linearGradient3119"
       id="linearGradient3129"
       gradientUnits="userSpaceOnUse"
       gradientTransform="matrix(-1,0,0,1,96,0)"
       x1="13.131983"
       y1="980.64136"
       x2="25.549681"
       y2="967.86646" />
    <linearGradient
       inkscape:collect="always"
       xlink:href="#linearGradient3048"
       id="linearGradient3054"
       x1="49.267925"
       y1="996.57349"
       x2="49.267925"
       y2="1045.8627"
       gradientUnits="userSpaceOnUse" />
    <linearGradient
       inkscape:collect="always"
       xlink:href="#linearGradient3048"
       id="linearGradient3058"
       x1="115.80308"
       y1="985.47241"
       x2="115.80308"
       y2="1033.5543"
       gradientUnits="userSpaceOnUse" />
    <linearGradient
       inkscape:collect="always"
       xlink:href="#linearGradient3070"
       id="linearGradient3068"
       x1="74.8013"
       y1="1035.0077"
       x2="22.800934"
       y2="969.63452"
       gradientUnits="userSpaceOnUse" />
    <linearGradient
       inkscape:collect="always"
       xlink:href="#linearGradient3076"
       id="linearGradient3086"
       gradientUnits="userSpaceOnUse"
       gradientTransform="matrix(1.4144782,0,0,1.4144782,-119.78686,-417.12598)"
       x1="115.80308"
       y1="985.47241"
       x2="115.80308"
       y2="1025.3639" />
    <linearGradient
       inkscape:collect="always"
       xlink:href="#linearGradient3076"
       id="linearGradient3091"
       gradientUnits="userSpaceOnUse"
       gradientTransform="matrix(1.4144782,0,0,1.4144782,-119.78686,-418.126)"
       x1="115.80308"
       y1="985.47241"
       x2="115.80308"
       y2="1025.3639" />
    <linearGradient
       inkscape:collect="always"
       xlink:href="#linearGradient3076"
       id="linearGradient3093"
       gradientUnits="userSpaceOnUse"
       gradientTransform="matrix(1.4144782,0,0,1.4144782,-119.78686,-1375.4171)"
       x1="115.80308"
       y1="985.47241"
       x2="115.80308"
       y2="1025.3639" />
    <linearGradient
       inkscape:collect="always"
       xlink:href="#linearGradient3071"
       id="linearGradient3915"
       gradientUnits="userSpaceOnUse"
       gradientTransform="translate(0.701036,3.1045074)"
       x1="60.965946"
       y1="1019.5738"
       x2="60.965946"
       y2="974.48969" />
    <linearGradient
       inkscape:collect="always"
       xlink:href="#linearGradient3071"
       id="linearGradient3986"
       gradientUnits="userSpaceOnUse"
       gradientTransform="translate(0.701036,3.1045074)"
       x1="60.965946"
       y1="1019.5738"
       x2="60.965946"
       y2="974.48969" />
    <linearGradient
       inkscape:collect="always"
       xlink:href="#linearGradient3992"
       id="linearGradient3990"
       gradientUnits="userSpaceOnUse"
       gradientTransform="translate(-0.748358,3.1045086)"
       x1="60.965946"
       y1="1019.5738"
       x2="60.965946"
       y2="978.3313" />
    <linearGradient
       inkscape:collect="always"
       xlink:href="#linearGradient3096"
       id="linearGradient3102"
       x1="77.904892"
       y1="1020.9385"
       x2="19.854378"
       y2="987.42297"
       gradientUnits="userSpaceOnUse" />
    <linearGradient
       spreadMethod="reflect"
       gradientTransform="matrix(1.0011905,0,0,1,-0.05714286,-29.95)"
       gradientUnits="userSpaceOnUse"
       xlink:href="#linearGradient3892"
       id="linearGradient3191"
       y2="88"
       x2="48"
       y1="88"
       x1="90" />
    <linearGradient
       spreadMethod="reflect"
       gradientTransform="matrix(1.0011905,0,0,1,-110.05714,0.05)"
       gradientUnits="userSpaceOnUse"
       xlink:href="#linearGradient3892"
       id="linearGradient3189"
       y2="88"
       x2="48"
       y1="88"
       x1="90" />
    <linearGradient
       spreadMethod="reflect"
       gradientUnits="userSpaceOnUse"
       xlink:href="#linearGradient4384-0"
       id="linearGradient3367"
       y2="82.454597"
       x2="112.12357"
       y1="82"
       x1="48" />
    <linearGradient
       id="linearGradient4384-0">
      <stop
         offset="0"
         style="stop-color:#ffffff;stop-opacity:1"
         id="stop4386-4" />
      <stop
         offset="1"
         style="stop-color:#ffffff;stop-opacity:0"
         id="stop4388-8" />
    </linearGradient>
    <linearGradient
       gradientTransform="matrix(1,0,0,-1,0,92)"
       gradientUnits="userSpaceOnUse"
       xlink:href="#linearGradient4384-2"
       id="linearGradient3316"
       y2="-40"
       x2="48"
       y1="88"
       x1="48" />
    <linearGradient
       id="linearGradient4384-2">
      <stop
         offset="0"
         style="stop-color:#ffffff;stop-opacity:1"
         id="stop4386-9" />
      <stop
         offset="1"
         style="stop-color:#ffffff;stop-opacity:0"
         id="stop4388-9" />
    </linearGradient>
    <linearGradient
       gradientUnits="userSpaceOnUse"
       xlink:href="#linearGradient3700-9"
       id="linearGradient3429"
       y2="5.9877172"
       x2="48"
       y1="90"
       x1="48" />
    <clipPath
       id="clipPath5216">
      <rect
         style="fill:#ff00ff;fill-opacity:1;fill-rule:nonzero;stroke:none"
         id="rect5218"
         y="6"
         x="6"
         ry="6"
         rx="6"
         height="84"
         width="84" />
    </clipPath>
    <linearGradient
       id="linearGradient3700-9">
      <stop
         offset="0"
         style="stop-color:#f08801;stop-opacity:1"
         id="stop3702-2" />
      <stop
         offset="1"
         style="stop-color:#ffc104;stop-opacity:1"
         id="stop3704-2" />
    </linearGradient>
    <radialGradient
       gradientTransform="matrix(0.01456776,3.2254466,-1.5375621,0.00694441,-54.165731,273.86459)"
       gradientUnits="userSpaceOnUse"
       xlink:href="#linearGradient3993"
       id="radialGradient3405"
       fy="16.026897"
       fx="-79.973106"
       r="42"
       cy="16.026897"
       cx="-79.973106" />
    <clipPath
       id="clipPath5096">
      <path
         style="fill:#ff00ff;fill-opacity:1;fill-rule:nonzero;stroke:none;display:inline"
         id="path5098"
         inkscape:connector-curvature="0"
         d="M -6,12 C -6,8.676 -8.676,6 -12,6 l -5.15625,0 c 0.02408,0.5607525 0.02606,1.1143505 0.03125,1.6875 0.03998,4.415916 -0.51802,9.093367 -2.40625,12.75 -1.355466,2.624915 -19.793019,-4.330981 -27.96875,-5.28125 -8.175739,-0.950274 -27.781315,-4.724376 -28.6875,-6.9375 -0.288159,-0.7037606 -0.261168,-1.4537292 0,-2.21875 L -84,6 c -3.324,0 -6,2.676 -6,6 l 0,4.125 c 1.119236,-0.688143 2.181526,-0.921735 3.09375,-0.53125 2.818969,1.206684 8.507363,17.856817 9.46875,26.03125 0.961387,8.174434 4.240632,25.83408 4.4375,34.0625 0.07404,3.094849 -9.194408,2.735013 -17,1.84375 L -90,84 c 0,3.324 2.676,6 6,6 l 72,0 c 3.324,0 6,-2.676 6,-6 l 0,-72 z m -14.28125,17.28125 c 0.05867,1.78531 -1.361544,3.323835 -2.46875,6.03125 -1.968365,4.813182 -5.662581,14.36191 -13.875,13.8125 C -44.837395,48.575607 -54.91219,35.2376 -61.15625,29.875 -67.400303,24.512407 -79.390877,13.450891 -79.25,12.25 -78.736053,7.8688132 -64.212421,15.450592 -56,16 c 8.212418,0.549411 25.755946,2.637409 32,8 2.731773,2.346134 3.673116,3.892675 3.71875,5.28125 z M -38.03125,56 c -0.0015,0.18278 -0.02701,0.388954 -0.0625,0.5625 -1.167479,5.709701 -8.058486,9.229846 -12.78125,11.40625 -4.722763,2.176402 -9.994882,7.635378 -18.1875,6.84375 -4.114495,-0.397571 -5.09294,-27.288105 -6,-35.46875 -0.90706,-8.180645 -10.630924,-24.182831 -8.03125,-24.1875 4.933486,-0.0089 14.958514,10.341414 20.65625,16.28125 8.536582,8.899307 24.452099,18.896325 24.40625,24.5625 z" />
    </clipPath>
    <linearGradient
       id="linearGradient3993">
      <stop
         offset="0"
         style="stop-color:#ca5a00;stop-opacity:1"
         id="stop3995" />
      <stop
         offset="1"
         style="stop-color:#f58500;stop-opacity:1"
         id="stop3997" />
    </linearGradient>
    <clipPath
       id="clipPath5073">
      <path
         style="fill:#ff00ff;fill-opacity:1;fill-rule:nonzero;stroke:none;display:inline"
         id="path5075"
         inkscape:connector-curvature="0"
         d="M 12,6 C 8.676,6 6,8.676 6,12 l 0,5.15625 c 0.5607525,-0.02408 1.1143505,-0.02606 1.6875,-0.03125 4.415916,-0.03998 9.093367,0.51802 12.75,2.40625 C 23.062415,20.886716 16.106519,39.324269 15.15625,47.5 14.205976,55.675739 10.431874,75.281315 8.21875,76.1875 7.5149894,76.475659 6.7650208,76.448668 6,76.1875 L 6,84 c 0,3.324 2.676,6 6,6 l 4.125,0 C 15.436857,88.880764 15.203265,87.818474 15.59375,86.90625 16.800434,84.087281 33.450567,78.398887 41.625,77.4375 49.799434,76.476113 67.45908,73.196868 75.6875,73 c 3.094849,-0.07404 2.735013,9.194408 1.84375,17 L 84,90 c 3.324,0 6,-2.676 6,-6 L 90,12 C 90,8.676 87.324,6 84,6 L 12,6 z m 17.28125,14.28125 c 1.78531,-0.05867 3.323835,1.361544 6.03125,2.46875 4.813182,1.968365 14.36191,5.662581 13.8125,13.875 C 48.575607,44.837395 35.2376,54.91219 29.875,61.15625 24.512407,67.400303 13.450891,79.390877 12.25,79.25 7.8688132,78.736053 15.450592,64.212421 16,56 c 0.549411,-8.212418 2.637409,-25.755946 8,-32 2.346134,-2.731773 3.892675,-3.673116 5.28125,-3.71875 z M 56,38.03125 c 0.18278,0.0015 0.388954,0.02701 0.5625,0.0625 5.709701,1.167479 9.229846,8.058486 11.40625,12.78125 2.176402,4.722763 7.635378,9.994882 6.84375,18.1875 -0.397571,4.114495 -27.288105,5.09294 -35.46875,6 -8.180645,0.90706 -24.182831,10.630924 -24.1875,8.03125 C 15.14735,78.160264 25.497664,68.135236 31.4375,62.4375 40.336807,53.900918 50.333825,37.985401 56,38.03125 z" />
    </clipPath>
    <linearGradient
       gradientUnits="userSpaceOnUse"
       xlink:href="#linearGradient3969"
       id="linearGradient3310"
       y2="88"
       x2="16"
       y1="16"
       x1="16" />
    <linearGradient
       gradientUnits="userSpaceOnUse"
       xlink:href="#linearGradient3969"
       id="linearGradient4851"
       y2="88"
       x2="16"
       y1="16"
       x1="16" />
    <linearGradient
       gradientUnits="userSpaceOnUse"
       xlink:href="#linearGradient3969"
       id="linearGradient4855"
       y2="88"
       x2="16"
       y1="16"
       x1="16" />
    <linearGradient
       gradientUnits="userSpaceOnUse"
       xlink:href="#linearGradient3969"
       id="linearGradient4863"
       y2="88"
       x2="16"
       y1="16"
       x1="16" />
    <linearGradient
       id="linearGradient3969">
      <stop
         offset="0"
         style="stop-color:#feedcd;stop-opacity:1"
         id="stop3971" />
      <stop
         offset="1"
         style="stop-color:#fde4b3;stop-opacity:1"
         id="stop3973" />
    </linearGradient>
    <linearGradient
       gradientUnits="userSpaceOnUse"
       xlink:href="#linearGradient3969"
       id="linearGradient4867"
       y2="88"
       x2="16"
       y1="16"
       x1="16" />
    <clipPath
       id="clipPath5085">
      <path
         style="fill:#ff00ff;fill-opacity:1;fill-rule:nonzero;stroke:none;display:inline"
         id="path5087"
         inkscape:connector-curvature="0"
         d="M 12,6 C 8.676,6 6,8.676 6,12 l 0,5.15625 c 0.5607525,-0.02408 1.1143505,-0.02606 1.6875,-0.03125 4.415916,-0.03998 9.093367,0.51802 12.75,2.40625 C 23.062415,20.886716 16.106519,39.324269 15.15625,47.5 14.205976,55.675739 10.431874,75.281315 8.21875,76.1875 7.5149894,76.475659 6.7650208,76.448668 6,76.1875 L 6,84 c 0,3.324 2.676,6 6,6 l 4.125,0 C 15.436857,88.880764 15.203265,87.818474 15.59375,86.90625 16.800434,84.087281 33.450567,78.398887 41.625,77.4375 49.799434,76.476113 67.45908,73.196868 75.6875,73 c 3.094849,-0.07404 2.735013,9.194408 1.84375,17 L 84,90 c 3.324,0 6,-2.676 6,-6 L 90,12 C 90,8.676 87.324,6 84,6 L 12,6 z m 17.28125,14.28125 c 1.78531,-0.05867 3.323835,1.361544 6.03125,2.46875 4.813182,1.968365 14.36191,5.662581 13.8125,13.875 C 48.575607,44.837395 35.2376,54.91219 29.875,61.15625 24.512407,67.400303 13.450891,79.390877 12.25,79.25 7.8688132,78.736053 15.450592,64.212421 16,56 c 0.549411,-8.212418 2.637409,-25.755946 8,-32 2.346134,-2.731773 3.892675,-3.673116 5.28125,-3.71875 z M 56,38.03125 c 0.18278,0.0015 0.388954,0.02701 0.5625,0.0625 5.709701,1.167479 9.229846,8.058486 11.40625,12.78125 2.176402,4.722763 7.635378,9.994882 6.84375,18.1875 -0.397571,4.114495 -27.288105,5.09294 -35.46875,6 -8.180645,0.90706 -24.182831,10.630924 -24.1875,8.03125 C 15.14735,78.160264 25.497664,68.135236 31.4375,62.4375 40.336807,53.900918 50.333825,37.985401 56,38.03125 z" />
    </clipPath>
    <linearGradient
       id="linearGradient3737-1">
      <stop
         offset="0"
         style="stop-color:#ffffff;stop-opacity:1"
         id="stop3739-6" />
      <stop
         offset="1"
         style="stop-color:#ffffff;stop-opacity:0"
         id="stop3741-8" />
    </linearGradient>
    <linearGradient
       gradientUnits="userSpaceOnUse"
       xlink:href="#linearGradient3737-1"
       id="linearGradient3351"
       y2="74.196297"
       x2="19.501364"
       y1="64.030319"
       x1="19.501364" />
    <radialGradient
       gradientTransform="matrix(1.2,0,0,1.2,-4.2,-14.2)"
       gradientUnits="userSpaceOnUse"
       xlink:href="#linearGradient3768-0"
       id="radialGradient3836"
       fy="71"
       fx="21"
       r="5"
       cy="71"
       cx="21" />
    <filter
       id="filter3740-3"
       color-interpolation-filters="sRGB"
       height="1.36"
       width="1.36"
       y="-0.18000001"
       x="-0.18000001">
      <feGaussianBlur
         stdDeviation="0.75"
         id="feGaussianBlur3742-8" />
    </filter>
    <linearGradient
       id="linearGradient3737-4">
      <stop
         offset="0"
         style="stop-color:#ffffff;stop-opacity:1"
         id="stop3739-3" />
      <stop
         offset="1"
         style="stop-color:#ffffff;stop-opacity:0"
         id="stop3741-2" />
    </linearGradient>
    <linearGradient
       gradientUnits="userSpaceOnUse"
       xlink:href="#linearGradient3737-4"
       id="linearGradient3380"
       y2="74.196297"
       x2="19.501364"
       y1="64.030319"
       x1="19.501364" />
    <linearGradient
       id="linearGradient3768-0">
      <stop
         offset="0"
         style="stop-color:#ffecc4;stop-opacity:1"
         id="stop3770-2" />
      <stop
         offset="0.37064087"
         style="stop-color:#ffbd3c;stop-opacity:1"
         id="stop3772-2" />
      <stop
         offset="0.7159912"
         style="stop-color:#f18300;stop-opacity:1"
         id="stop3774-7" />
      <stop
         offset="1"
         style="stop-color:#da5000;stop-opacity:1"
         id="stop3776-5" />
    </linearGradient>
    <radialGradient
       gradientTransform="matrix(1.2,0,0,1.2,-4.2,-14.2)"
       gradientUnits="userSpaceOnUse"
       xlink:href="#linearGradient3768-0"
       id="radialGradient3808"
       fy="71"
       fx="21"
       r="5"
       cy="71"
       cx="21" />
    <filter
       id="filter3740-5"
       color-interpolation-filters="sRGB"
       height="1.36"
       width="1.36"
       y="-0.18000001"
       x="-0.18000001">
      <feGaussianBlur
         stdDeviation="0.75"
         id="feGaussianBlur3742-2" />
    </filter>
    <linearGradient
       id="linearGradient3892">
      <stop
         offset="0"
         style="stop-color:#000000;stop-opacity:0.58823532"
         id="stop3894" />
      <stop
         offset="0.11780351"
         style="stop-color:#000000;stop-opacity:0.47058824"
         id="stop3896" />
      <stop
         offset="0.23809524"
         style="stop-color:#000000;stop-opacity:0.39215687"
         id="stop3898" />
      <stop
         offset="1"
         style="stop-color:#000000;stop-opacity:0.3137255"
         id="stop3900" />
    </linearGradient>
    <radialGradient
       gradientTransform="matrix(1,-6.7114942e-8,8.4282233e-8,1.2557894,109.99999,-24.505592)"
       gradientUnits="userSpaceOnUse"
       xlink:href="#linearGradient4367"
       id="radialGradient4375"
       fy="87.792389"
       fx="48"
       r="42"
       cy="87.792389"
       cx="48" />
    <clipPath
       id="clipPath4355">
      <rect
         style="fill:#ffffff;fill-opacity:1;fill-rule:nonzero;stroke:none"
         id="rect4357"
         y="6"
         x="6"
         ry="6"
         rx="6"
         height="80"
         width="84" />
    </clipPath>
    <linearGradient
       gradientTransform="matrix(1.0238095,0,0,1.0119048,-1.1428571,-98.071429)"
       gradientUnits="userSpaceOnUse"
       xlink:href="#ButtonShadow-0"
       id="linearGradient3026"
       y2="90.238609"
       x2="32.251034"
       y1="6.1317081"
       x1="32.251034" />
    <linearGradient
       gradientTransform="translate(0,-97)"
       gradientUnits="userSpaceOnUse"
       xlink:href="#ButtonShadow-0"
       id="linearGradient3721"
       y2="90.238609"
       x2="32.251034"
       y1="6.1317081"
       x1="32.251034" />
    <linearGradient
       gradientTransform="matrix(1.0238095,0,0,1.0119048,-1.1428571,-98.071429)"
       gradientUnits="userSpaceOnUse"
       xlink:href="#ButtonShadow-0"
       id="linearGradient3725"
       y2="90.238609"
       x2="32.251034"
       y1="6.1317081"
       x1="32.251034" />
    <linearGradient
       gradientTransform="matrix(1.0238095,0,0,1.0119048,-1.1428571,-98.071429)"
       gradientUnits="userSpaceOnUse"
       xlink:href="#ButtonShadow-0"
       id="linearGradient3772"
       y2="90.238609"
       x2="32.251034"
       y1="6.1317081"
       x1="32.251034" />
    <linearGradient
       gradientTransform="matrix(1.0238095,0,0,1.0119048,-1.1428571,-98.071429)"
       gradientUnits="userSpaceOnUse"
       xlink:href="#ButtonShadow-0"
       id="linearGradient3780"
       y2="90.238609"
       x2="32.251034"
       y1="6.1317081"
       x1="32.251034" />
    <linearGradient
       gradientTransform="matrix(1.0058652,0,0,0.994169,100,0)"
       gradientUnits="userSpaceOnUse"
       id="ButtonShadow-0"
       y2="7.0165396"
       x2="45.447727"
       y1="92.539597"
       x1="45.447727">
      <stop
         offset="0"
         style="stop-color:#000000;stop-opacity:1"
         id="stop3750-8" />
      <stop
         offset="1"
         style="stop-color:#000000;stop-opacity:0.58823532"
         id="stop3752-5" />
    </linearGradient>
    <linearGradient
       gradientUnits="userSpaceOnUse"
       xlink:href="#linearGradient3737"
       id="linearGradient3613"
       y2="138.66119"
       x2="48"
       y1="20.220806"
       x1="48" />
    <filter
       id="filter3794"
       color-interpolation-filters="sRGB"
       height="1.3839999"
       width="1.3839999"
       y="-0.192"
       x="-0.192">
      <feGaussianBlur
         stdDeviation="5.28"
         id="feGaussianBlur3796" />
    </filter>
    <filter
       id="filter3174"
       color-interpolation-filters="sRGB">
      <feGaussianBlur
         stdDeviation="1.71"
         id="feGaussianBlur3176" />
    </filter>
    <linearGradient
       id="linearGradient3737">
      <stop
         offset="0"
         style="stop-color:#ffffff;stop-opacity:1"
         id="stop3739" />
      <stop
         offset="1"
         style="stop-color:#ffffff;stop-opacity:0"
         id="stop3741" />
    </linearGradient>
    <linearGradient
       gradientTransform="scale(1.0058652,0.994169)"
       gradientUnits="userSpaceOnUse"
       id="ButtonShadow"
       y2="7.0165396"
       x2="45.447727"
       y1="92.539597"
       x1="45.447727">
      <stop
         offset="0"
         style="stop-color:#000000;stop-opacity:1"
         id="stop3750" />
      <stop
         offset="1"
         style="stop-color:#000000;stop-opacity:0.58823532"
         id="stop3752" />
    </linearGradient>
    <linearGradient
       id="linearGradient4367">
      <stop
         offset="0"
         style="stop-color:#ffffff;stop-opacity:0.71755725"
         id="stop4369" />
      <stop
         offset="1"
         style="stop-color:#ffffff;stop-opacity:1"
         id="stop4371" />
    </linearGradient>
    <linearGradient
       inkscape:collect="always"
       xlink:href="#linearGradient4384-2"
       id="linearGradient3461"
       gradientUnits="userSpaceOnUse"
       gradientTransform="matrix(1,0,0,-1,0,92)"
       x1="48"
       y1="88"
       x2="48"
       y2="-40" />
    <linearGradient
       inkscape:collect="always"
       xlink:href="#linearGradient4384-0"
       id="linearGradient3463"
       gradientUnits="userSpaceOnUse"
       spreadMethod="reflect"
       x1="48"
       y1="82"
       x2="112.12357"
       y2="82.454597" />
    <linearGradient
       inkscape:collect="always"
       xlink:href="#linearGradient3737"
       id="linearGradient3465"
       gradientUnits="userSpaceOnUse"
       x1="48"
       y1="20.220806"
       x2="48"
       y2="138.66119" />
    <linearGradient
       inkscape:collect="always"
       xlink:href="#linearGradient3892"
       id="linearGradient3467"
       gradientUnits="userSpaceOnUse"
       gradientTransform="matrix(1.0011905,0,0,1,-0.05714286,-29.95)"
       spreadMethod="reflect"
       x1="90"
       y1="88"
       x2="48"
       y2="88" />
    <linearGradient
       inkscape:collect="always"
       xlink:href="#linearGradient3892"
       id="linearGradient3469"
       gradientUnits="userSpaceOnUse"
       gradientTransform="matrix(1.0011905,0,0,1,-110.05714,0.05)"
       spreadMethod="reflect"
       x1="90"
       y1="88"
       x2="48"
       y2="88" />
    <linearGradient
       inkscape:collect="always"
       xlink:href="#linearGradient3969"
       id="linearGradient3471"
       gradientUnits="userSpaceOnUse"
       x1="16"
       y1="16"
       x2="16"
       y2="88" />
    <linearGradient
       inkscape:collect="always"
       xlink:href="#linearGradient3969"
       id="linearGradient3473"
       gradientUnits="userSpaceOnUse"
       x1="16"
       y1="16"
       x2="16"
       y2="88" />
    <linearGradient
       inkscape:collect="always"
       xlink:href="#linearGradient3969"
       id="linearGradient3475"
       gradientUnits="userSpaceOnUse"
       x1="16"
       y1="16"
       x2="16"
       y2="88" />
    <linearGradient
       inkscape:collect="always"
       xlink:href="#linearGradient3969"
       id="linearGradient3477"
       gradientUnits="userSpaceOnUse"
       x1="16"
       y1="16"
       x2="16"
       y2="88" />
    <linearGradient
       inkscape:collect="always"
       xlink:href="#linearGradient3969"
       id="linearGradient3479"
       gradientUnits="userSpaceOnUse"
       x1="16"
       y1="16"
       x2="16"
       y2="88" />
    <radialGradient
       inkscape:collect="always"
       xlink:href="#linearGradient3768-0"
       id="radialGradient3481"
       gradientUnits="userSpaceOnUse"
       gradientTransform="matrix(1.2,0,0,1.2,-4.2,-14.2)"
       cx="21"
       cy="71"
       fx="21"
       fy="71"
       r="5" />
    <linearGradient
       inkscape:collect="always"
       xlink:href="#linearGradient3737-1"
       id="linearGradient3483"
       gradientUnits="userSpaceOnUse"
       x1="19.501364"
       y1="64.030319"
       x2="19.501364"
       y2="74.196297" />
    <radialGradient
       inkscape:collect="always"
       xlink:href="#linearGradient3768-0"
       id="radialGradient3485"
       gradientUnits="userSpaceOnUse"
       gradientTransform="matrix(1.2,0,0,1.2,-4.2,-14.2)"
       cx="21"
       cy="71"
       fx="21"
       fy="71"
       r="5" />
    <linearGradient
       inkscape:collect="always"
       xlink:href="#linearGradient3737-4"
       id="linearGradient3487"
       gradientUnits="userSpaceOnUse"
       x1="19.501364"
       y1="64.030319"
       x2="19.501364"
       y2="74.196297" />
    <radialGradient
       inkscape:collect="always"
       xlink:href="#linearGradient3993"
       id="radialGradient3489"
       gradientUnits="userSpaceOnUse"
       gradientTransform="matrix(0.01456776,3.2254466,-1.5375621,0.00694441,-54.165731,273.86459)"
       cx="-79.973106"
       cy="16.026897"
       fx="-79.973106"
       fy="16.026897"
       r="42" />
    <linearGradient
       inkscape:collect="always"
       xlink:href="#linearGradient3700-9"
       id="linearGradient3491"
       gradientUnits="userSpaceOnUse"
       x1="48"
       y1="90"
       x2="48"
       y2="5.9877172" />
    <radialGradient
       inkscape:collect="always"
       xlink:href="#linearGradient4367"
       id="radialGradient3493"
       gradientUnits="userSpaceOnUse"
       gradientTransform="matrix(1,-6.7114942e-8,8.4282233e-8,1.2557894,109.99999,-24.505592)"
       cx="48"
       cy="87.792389"
       fx="48"
       fy="87.792389"
       r="42" />
    <linearGradient
       inkscape:collect="always"
       xlink:href="#ButtonShadow-0"
       id="linearGradient3495"
       gradientUnits="userSpaceOnUse"
       gradientTransform="matrix(1.0238095,0,0,1.0119048,-1.1428571,-98.071429)"
       x1="32.251034"
       y1="6.1317081"
       x2="32.251034"
       y2="90.238609" />
    <linearGradient
       inkscape:collect="always"
       xlink:href="#ButtonShadow-0"
       id="linearGradient3497"
       gradientUnits="userSpaceOnUse"
       gradientTransform="matrix(1.0238095,0,0,1.0119048,-1.1428571,-98.071429)"
       x1="32.251034"
       y1="6.1317081"
       x2="32.251034"
       y2="90.238609" />
    <linearGradient
       inkscape:collect="always"
       xlink:href="#ButtonShadow-0"
       id="linearGradient3499"
       gradientUnits="userSpaceOnUse"
       gradientTransform="matrix(1.0238095,0,0,1.0119048,-1.1428571,-98.071429)"
       x1="32.251034"
       y1="6.1317081"
       x2="32.251034"
       y2="90.238609" />
    <linearGradient
       inkscape:collect="always"
       xlink:href="#ButtonShadow-0"
       id="linearGradient3501"
       gradientUnits="userSpaceOnUse"
       gradientTransform="matrix(1.0238095,0,0,1.0119048,-1.1428571,-98.071429)"
       x1="32.251034"
       y1="6.1317081"
       x2="32.251034"
       y2="90.238609" />
    <linearGradient
       inkscape:collect="always"
       xlink:href="#ButtonShadow-0"
       id="linearGradient3503"
       gradientUnits="userSpaceOnUse"
       gradientTransform="translate(0,-97)"
       x1="32.251034"
       y1="6.1317081"
       x2="32.251034"
       y2="90.238609" />
    <linearGradient
       inkscape:collect="always"
       xlink:href="#ButtonShadow"
       id="linearGradient3505"
       gradientUnits="userSpaceOnUse"
       gradientTransform="scale(1.0058652,0.994169)"
       x1="45.447727"
       y1="92.539597"
       x2="45.447727"
       y2="7.0165396" />
  </defs>
  <sodipodi:namedview
     id="base"
     pagecolor="#ffffff"
     bordercolor="#666666"
     borderopacity="1.0"
     inkscape:pageopacity="0.0"
     inkscape:pageshadow="2"
     inkscape:zoom="1.3802083"
     inkscape:cx="-109.72114"
     inkscape:cy="-43.6099"
     inkscape:document-units="px"
     inkscape:current-layer="layer1"
     showgrid="false"
     inkscape:window-width="1366"
     inkscape:window-height="713"
     inkscape:window-x="0"
     inkscape:window-y="28"
     inkscape:window-maximized="1"
     showguides="true"
     inkscape:guide-bbox="true" />
  <metadata
     id="metadata7">
    <rdf:RDF>
      <cc:Work
         rdf:about="">
        <dc:format>image/svg+xml</dc:format>
        <dc:type
           rdf:resource="http://purl.org/dc/dcmitype/StillImage" />
        <dc:title />
      </cc:Work>
    </rdf:RDF>
  </metadata>
  <g
     inkscape:label="Layer 1"
     inkscape:groupmode="layer"
     id="layer1"
     transform="translate(0,-956.36218)">
    <rect
       style="opacity:0.05;fill:#000000;fill-opacity:1;stroke:none"
       id="rect3826"
       width="89"
       height="89"
       x="3.5"
       y="960.86218"
       rx="44.5"
       ry="44.5" />
    <g
       id="g3041">
      <rect
         style="opacity:0.05;fill:#000000;fill-opacity:1;stroke:none"
         id="rect3824"
         width="88"
         height="88"
         x="4"
         y="961.36218"
         rx="44"
         ry="44" />
      <rect
         ry="43.5"
         rx="43.5"
         y="961.86218"
         x="4.5"
         height="87"
         width="87"
         id="rect3822"
         style="opacity:0.05;fill:#000000;fill-opacity:1;stroke:none" />
      <rect
         style="opacity:0.1;fill:#000000;fill-opacity:1;stroke:none"
         id="rect3820"
         width="86"
         height="86"
         x="5"
         y="962.36218"
         rx="43"
         ry="43" />
      <rect
         ry="42.5"
         rx="42.5"
         y="962.86218"
         x="5.5"
         height="85"
         width="85"
         id="rect3818"
         style="opacity:0.1;fill:#000000;fill-opacity:1;stroke:none" />
      <rect
         style="opacity:0.3;fill:#000000;fill-opacity:1;stroke:none"
         id="rect3131"
         width="84"
         height="84"
         x="6"
         y="963.36218"
         rx="42"
         ry="42" />
    </g>
    <rect
       ry="42"
       rx="42"
       y="962.36218"
       x="6"
       height="84"
       width="84"
       id="rect3036"
       style="fill:url(#linearGradient3068);fill-opacity:1;stroke:none" />
    <rect
       ry="40"
       rx="40"
       y="964.36218"
       x="8"
       height="80"
       width="80"
       id="rect3070"
       style="fill:#f9d19a;fill-opacity:1;stroke:none" />
    <rect
       ry="38"
       rx="38"
       y="966.36218"
       x="10"
       height="76"
       width="76"
       id="rect3917"
       style="fill:#feecca;fill-opacity:1;stroke:none" />
    <rect
       style="fill:url(#linearGradient3102);fill-opacity:1;stroke:none"
       id="rect3072"
       width="68"
       height="68"
       x="14"
       y="970.36218"
       rx="34"
       ry="34" />
    <path
       style="opacity:0.1;fill:#000000;fill-opacity:1;stroke:none"
       d="M 41.4375 14.625 C 39.884928 14.926117 38.374455 15.34031 36.90625 15.84375 L 43.53125 40.5625 L 25.46875 22.5 C 24.403391 23.441456 23.408092 24.463978 22.46875 25.53125 L 41.40625 44.46875 L 15.625 37.5625 C 15.277797 38.646499 14.988792 39.745948 14.75 40.875 L 41.3125 48 L 14.75 55.125 C 14.988792 56.254052 15.277797 57.353501 15.625 58.4375 L 41.40625 51.53125 L 22.46875 70.46875 C 23.408092 71.536022 24.403391 72.558544 25.46875 73.5 L 43.53125 55.4375 L 36.90625 80.15625 C 38.374455 80.65969 39.884928 81.073883 41.4375 81.375 L 47.9375 57.09375 L 54.46875 81.375 C 56.019951 81.078469 57.532551 80.68592 59 80.1875 L 52.375 55.4375 L 70.46875 73.53125 C 71.536022 72.591908 72.558544 71.596609 73.5 70.53125 L 54.5 51.53125 L 80.34375 58.46875 C 80.693119 57.382344 81.009574 56.288017 81.25 55.15625 L 54.59375 48 L 81.25 40.84375 C 81.009574 39.711983 80.693119 38.617656 80.34375 37.53125 L 54.5 44.46875 L 73.5 25.46875 C 72.558544 24.403391 71.536022 23.408092 70.46875 22.46875 L 52.375 40.5625 L 59 15.8125 C 57.532551 15.31408 56.019951 14.921531 54.46875 14.625 L 47.9375 38.90625 L 41.4375 14.625 z "
       transform="translate(0,956.36218)"
       id="path3132" />
    <path
       style="fill:#000000;fill-opacity:1;stroke:none;opacity:0.1"
       d="M 48 14 C 29.164 14 14 29.164 14 48 C 14 66.836 29.164 82 48 82 C 66.836 82 82 66.836 82 48 C 82 29.164 66.836 14 48 14 z M 48 15 C 66.282 15 81 29.718 81 48 C 81 66.282 66.282 81 48 81 C 29.718 81 15 66.282 15 48 C 15 29.718 29.718 15 48 15 z "
       id="rect3091"
       transform="translate(0,956.36218)" />
    <path
       style="fill:#feecca;fill-opacity:1;stroke:none"
       d="M 40.375 13.8125 L 37.5 14.59375 L 45.125 43 L 24.3125 22.1875 L 22.1875 24.3125 L 43 45.125 L 14.59375 37.5 L 13.8125 40.375 L 42.25 48 L 13.8125 55.625 L 14.59375 58.5 L 43 50.875 L 22.1875 71.6875 L 24.3125 73.8125 L 45.125 53 L 37.5 81.40625 L 40.375 82.1875 L 48 53.78125 L 55.625 82.1875 L 58.5 81.40625 L 50.875 53 L 71.6875 73.8125 L 73.8125 71.6875 L 53 50.875 L 81.40625 58.5 L 82.1875 55.625 L 53.75 48 L 82.1875 40.375 L 81.40625 37.5 L 53 45.125 L 73.8125 24.3125 L 71.6875 22.1875 L 50.875 43 L 58.5 14.59375 L 55.625 13.8125 L 48 42.21875 L 40.375 13.8125 z "
       id="rect3112"
       transform="translate(0,956.36218)" />
    <rect
       ry="7.5"
       rx="7.5"
       y="996.86218"
       x="40.5"
       height="15"
       width="15"
       id="rect3076"
       style="fill:#feecca;fill-opacity:1;stroke:none" />
    <rect
       style="fill:#fde4b4;fill-opacity:1;stroke:none"
       id="rect3078"
       width="7.6994557"
       height="7.6994557"
       x="44.150272"
       y="1000.5125"
       rx="3.8497279"
       ry="3.8497279" />
    <g
       id="layer2"
       style="display:none"
       transform="translate(129.54069,1088.1684)">
      <rect
         width="86"
         height="85"
         rx="6"
         ry="6"
         x="5"
         y="7"
         id="rect3745"
         style="opacity:0.9;fill:url(#linearGradient3505);fill-opacity:1;fill-rule:nonzero;stroke:none;filter:url(#filter3174)" />
    </g>
  </g>
</svg>
