<?xml version="1.0" encoding="UTF-8" standalone="no"?>
<!-- Created with Inkscape (http://www.inkscape.org/) -->

<svg
   xmlns:dc="http://purl.org/dc/elements/1.1/"
   xmlns:cc="http://creativecommons.org/ns#"
   xmlns:rdf="http://www.w3.org/1999/02/22-rdf-syntax-ns#"
   xmlns:svg="http://www.w3.org/2000/svg"
   xmlns="http://www.w3.org/2000/svg"
   xmlns:xlink="http://www.w3.org/1999/xlink"
   xmlns:sodipodi="http://sodipodi.sourceforge.net/DTD/sodipodi-0.dtd"
   xmlns:inkscape="http://www.inkscape.org/namespaces/inkscape"
   width="96"
   height="96"
   id="svg2"
   version="1.1"
   inkscape:version="0.48.4 r9939"
   sodipodi:docname="bijiben.svg">
  <defs
     id="defs4">
    <linearGradient
       inkscape:collect="always"
       id="linearGradient3819">
      <stop
         style="stop-color:#000000;stop-opacity:1;"
         offset="0"
         id="stop3821" />
      <stop
         style="stop-color:#000000;stop-opacity:0;"
         offset="1"
         id="stop3823" />
    </linearGradient>
    <linearGradient
       id="linearGradient3079"
       inkscape:collect="always">
      <stop
         id="stop3081"
         offset="0"
         style="stop-color:#f5e8ff;stop-opacity:1" />
      <stop
         id="stop3084"
         offset="1"
         style="stop-color:#ffffff;stop-opacity:0" />
    </linearGradient>
    <linearGradient
       inkscape:collect="always"
       id="linearGradient3142">
      <stop
         style="stop-color:#ffdb94;stop-opacity:1"
         offset="0"
         id="stop3144" />
      <stop
         style="stop-color:#efc142;stop-opacity:0"
         offset="1"
         id="stop3146" />
    </linearGradient>
    <linearGradient
       id="linearGradient3126"
       inkscape:collect="always">
      <stop
         id="stop3128"
         offset="0"
         style="stop-color:#fefff9;stop-opacity:1" />
      <stop
         id="stop3130"
         offset="1"
         style="stop-color:#fffbff;stop-opacity:1" />
    </linearGradient>
    <linearGradient
       inkscape:collect="always"
       id="linearGradient3225">
      <stop
         style="stop-color:#fff6ef;stop-opacity:1"
         offset="0"
         id="stop3227" />
      <stop
         style="stop-color:#fffefa;stop-opacity:1"
         offset="1"
         id="stop3231" />
    </linearGradient>
    <linearGradient
       id="linearGradient3219"
       inkscape:collect="always">
      <stop
         id="stop3221"
         offset="0"
         style="stop-color:#fcd60f;stop-opacity:1" />
      <stop
         id="stop3223"
         offset="1"
         style="stop-color:#fbe047;stop-opacity:1" />
    </linearGradient>
    <linearGradient
       id="linearGradient3199"
       inkscape:collect="always">
      <stop
         id="stop3201"
         offset="0"
         style="stop-color:#ffdf22;stop-opacity:1" />
      <stop
         id="stop3203"
         offset="1"
         style="stop-color:#ffee77;stop-opacity:1" />
    </linearGradient>
    <linearGradient
       inkscape:collect="always"
       id="linearGradient3222">
      <stop
         style="stop-color:#de005a;stop-opacity:1"
         offset="0"
         id="stop3224" />
      <stop
         style="stop-color:#a30444;stop-opacity:1"
         offset="1"
         id="stop3226" />
    </linearGradient>
    <linearGradient
       id="linearGradient3076"
       inkscape:collect="always">
      <stop
         id="stop3078"
         offset="0"
         style="stop-color:#ffe7f7;stop-opacity:1" />
      <stop
         id="stop3080"
         offset="1"
         style="stop-color:#ffc3ef;stop-opacity:1" />
    </linearGradient>
    <linearGradient
       inkscape:collect="always"
       id="linearGradient3048">
      <stop
         style="stop-color:#c16d16;stop-opacity:1"
         offset="0"
         id="stop3050" />
      <stop
         style="stop-color:#ff8e31;stop-opacity:1"
         offset="1"
         id="stop3052" />
    </linearGradient>
    <linearGradient
       inkscape:collect="always"
       id="linearGradient3119">
      <stop
         style="stop-color:#92948f;stop-opacity:0"
         offset="0"
         id="stop3121" />
      <stop
         id="stop3123"
         offset="0.4283945"
         style="stop-color:#9b9e98;stop-opacity:1" />
      <stop
         style="stop-color:#939690;stop-opacity:0"
         offset="1"
         id="stop3125" />
    </linearGradient>
    <linearGradient
       id="linearGradient3073"
       inkscape:collect="always">
      <stop
         id="stop3075"
         offset="0"
         style="stop-color:#ffffff;stop-opacity:0" />
      <stop
         style="stop-color:#ffffff;stop-opacity:1"
         offset="0.45872402"
         id="stop3085" />
      <stop
         id="stop3083"
         offset="1"
         style="stop-color:#ffffff;stop-opacity:0" />
    </linearGradient>
    <linearGradient
       inkscape:collect="always"
       id="linearGradient3047">
      <stop
         style="stop-color:#000000;stop-opacity:1"
         offset="0"
         id="stop3049" />
      <stop
         id="stop3055"
         offset="0.06123874"
         style="stop-color:#1a1a1a;stop-opacity:1" />
      <stop
         style="stop-color:#333333;stop-opacity:1"
         offset="0.16480456"
         id="stop3057" />
      <stop
         id="stop3059"
         offset="0.55385184"
         style="stop-color:#4d4d4d;stop-opacity:1" />
      <stop
         style="stop-color:#999999;stop-opacity:1"
         offset="1"
         id="stop3051" />
    </linearGradient>
    <linearGradient
       id="linearGradient3041"
       inkscape:collect="always">
      <stop
         id="stop3043"
         offset="0"
         style="stop-color:#1a1a1a;stop-opacity:1" />
      <stop
         id="stop3045"
         offset="1"
         style="stop-color:#808080;stop-opacity:1" />
    </linearGradient>
    <linearGradient
       inkscape:collect="always"
       id="linearGradient3029">
      <stop
         style="stop-color:#333333;stop-opacity:1"
         offset="0"
         id="stop3031" />
      <stop
         style="stop-color:#e0e0dd;stop-opacity:0;"
         offset="1"
         id="stop3033" />
    </linearGradient>
    <linearGradient
       inkscape:collect="always"
       xlink:href="#linearGradient3029"
       id="linearGradient3035"
       x1="35.355339"
       y1="1030.3622"
       x2="35.355339"
       y2="975.33282"
       gradientUnits="userSpaceOnUse"
       gradientTransform="matrix(1.1638085,0,0,1.1638085,-7.862809,-164.23642)" />
    <linearGradient
       inkscape:collect="always"
       xlink:href="#linearGradient3041"
       id="linearGradient3039"
       gradientUnits="userSpaceOnUse"
       x1="35.355339"
       y1="1030.3622"
       x2="35.355339"
       y2="975.33282"
       gradientTransform="matrix(1.1218695,0,0,1.1218695,-5.8497348,-122.18782)" />
    <linearGradient
       inkscape:collect="always"
       xlink:href="#linearGradient3047"
       id="linearGradient3053"
       x1="40"
       y1="1043.4336"
       x2="39.285713"
       y2="972.33325"
       gradientUnits="userSpaceOnUse" />
    <linearGradient
       inkscape:collect="always"
       xlink:href="#linearGradient3073"
       id="linearGradient3113"
       gradientUnits="userSpaceOnUse"
       gradientTransform="translate(0,-956.36218)"
       x1="14.869445"
       y1="978.90387"
       x2="24.52651"
       y2="969.24683" />
    <linearGradient
       inkscape:collect="always"
       xlink:href="#linearGradient3073"
       id="linearGradient3115"
       gradientUnits="userSpaceOnUse"
       gradientTransform="matrix(-1,0,0,1,96,-956.36218)"
       x1="15.152279"
       y1="978.62103"
       x2="26.263966"
       y2="967.50934" />
    <linearGradient
       inkscape:collect="always"
       xlink:href="#linearGradient3119"
       id="linearGradient3117"
       gradientUnits="userSpaceOnUse"
       gradientTransform="translate(0,-956.36218)"
       x1="13.131983"
       y1="980.64136"
       x2="25.549681"
       y2="967.86646" />
    <linearGradient
       inkscape:collect="always"
       xlink:href="#linearGradient3119"
       id="linearGradient3129"
       gradientUnits="userSpaceOnUse"
       gradientTransform="matrix(-1,0,0,1,96,0)"
       x1="13.131983"
       y1="980.64136"
       x2="25.549681"
       y2="967.86646" />
    <linearGradient
       inkscape:collect="always"
       xlink:href="#linearGradient3048"
       id="linearGradient3054"
       x1="49.267925"
       y1="996.57349"
       x2="49.267925"
       y2="1045.8627"
       gradientUnits="userSpaceOnUse" />
    <linearGradient
       inkscape:collect="always"
       xlink:href="#linearGradient3048"
       id="linearGradient3058"
       x1="115.80308"
       y1="985.47241"
       x2="115.80308"
       y2="1033.5543"
       gradientUnits="userSpaceOnUse" />
    <linearGradient
       inkscape:collect="always"
       xlink:href="#linearGradient3222"
       id="linearGradient3055"
       gradientUnits="userSpaceOnUse"
       x1="115.80308"
       y1="985.47241"
       x2="115.80308"
       y2="1025.3639"
       gradientTransform="matrix(1.4144782,0,0,1.4144782,-119.78686,-419.05496)" />
    <linearGradient
       inkscape:collect="always"
       xlink:href="#linearGradient3076"
       id="linearGradient3086"
       gradientUnits="userSpaceOnUse"
       gradientTransform="matrix(1.4144782,0,0,1.4144782,-119.78686,-417.12598)"
       x1="115.80308"
       y1="985.47241"
       x2="115.80308"
       y2="1025.3639" />
    <linearGradient
       inkscape:collect="always"
       xlink:href="#linearGradient3076"
       id="linearGradient3091"
       gradientUnits="userSpaceOnUse"
       gradientTransform="matrix(1.4144782,0,0,1.4144782,-119.78686,-418.126)"
       x1="115.80308"
       y1="985.47241"
       x2="115.80308"
       y2="1025.3639" />
    <linearGradient
       inkscape:collect="always"
       xlink:href="#linearGradient3076"
       id="linearGradient3093"
       gradientUnits="userSpaceOnUse"
       gradientTransform="matrix(1.4144782,0,0,1.4144782,-119.78686,-1375.4171)"
       x1="115.80308"
       y1="985.47241"
       x2="115.80308"
       y2="1025.3639" />
    <linearGradient
       inkscape:collect="always"
       xlink:href="#linearGradient3225"
       id="linearGradient3155"
       gradientUnits="userSpaceOnUse"
       x1="12.85139"
       y1="1045.9362"
       x2="12.85139"
       y2="985.31757" />
    <linearGradient
       inkscape:collect="always"
       xlink:href="#linearGradient3219"
       id="linearGradient3217"
       x1="49.086792"
       y1="29.786251"
       x2="49.086792"
       y2="7.7886772"
       gradientUnits="userSpaceOnUse"
       gradientTransform="translate(0,-1)" />
    <linearGradient
       inkscape:collect="always"
       xlink:href="#linearGradient3199"
       id="linearGradient3346"
       gradientUnits="userSpaceOnUse"
       gradientTransform="translate(0,-957.36218)"
       x1="58.101124"
       y1="986.07019"
       x2="58.101124"
       y2="963.49542" />
    <linearGradient
       inkscape:collect="always"
       xlink:href="#linearGradient3126"
       id="linearGradient3124"
       gradientUnits="userSpaceOnUse"
       gradientTransform="translate(0,-2.6171874e-6)"
       x1="62.620525"
       y1="1044.8497"
       x2="62.620525"
       y2="985.95312" />
    <linearGradient
       inkscape:collect="always"
       xlink:href="#linearGradient3142"
       id="linearGradient3148"
       x1="75.713211"
       y1="1036.0603"
       x2="67.381134"
       y2="1024.4679"
       gradientUnits="userSpaceOnUse" />
    <linearGradient
       inkscape:collect="always"
       xlink:href="#linearGradient3079"
       id="linearGradient3191"
       gradientUnits="userSpaceOnUse"
       x1="74.176254"
       y1="1033.7549"
       x2="63.758492"
       y2="1019.9396" />
    <linearGradient
       inkscape:collect="always"
       xlink:href="#linearGradient3819"
       id="linearGradient3825"
       x1="32.276089"
       y1="32.728619"
       x2="32.276089"
       y2="35.418293"
       gradientUnits="userSpaceOnUse"
       gradientTransform="translate(0,955.36218)" />
    <linearGradient
       inkscape:collect="always"
       xlink:href="#linearGradient4455"
       id="linearGradient4488"
       gradientUnits="userSpaceOnUse"
       x1="26.256344"
       y1="24.531515"
       x2="25.615944"
       y2="79.477715"
       gradientTransform="matrix(1.0243902,0,0,1,-1.1707317,956.36218)" />
    <linearGradient
       inkscape:collect="always"
       id="linearGradient4455">
      <stop
         style="stop-color:#747474;stop-opacity:1"
         offset="0"
         id="stop4457" />
      <stop
         style="stop-color:#757575;stop-opacity:1"
         offset="1"
         id="stop4459" />
    </linearGradient>
    <linearGradient
       y2="79.477715"
       x2="25.615944"
       y1="24.531515"
       x1="26.256344"
       gradientTransform="matrix(1.0243902,0,0,1,-1.1707317,0)"
       gradientUnits="userSpaceOnUse"
       id="linearGradient4648"
       xlink:href="#linearGradient4455"
       inkscape:collect="always" />
    <linearGradient
       inkscape:collect="always"
       xlink:href="#linearGradient4455-3"
       id="linearGradient4488-2"
       gradientUnits="userSpaceOnUse"
       x1="26.256344"
       y1="24.531515"
       x2="25.615944"
       y2="79.477715"
       gradientTransform="matrix(1.0243902,0,0,1,-1.1707317,956.36218)" />
    <linearGradient
       inkscape:collect="always"
       id="linearGradient4455-3">
      <stop
         style="stop-color:#747474;stop-opacity:1"
         offset="0"
         id="stop4457-4" />
      <stop
         style="stop-color:#757575;stop-opacity:1"
         offset="1"
         id="stop4459-6" />
    </linearGradient>
    <linearGradient
       y2="79.477715"
       x2="25.615944"
       y1="24.531515"
       x1="26.256344"
       gradientTransform="matrix(1.0243902,0,0,1,-1.1707317,956.36218)"
       gradientUnits="userSpaceOnUse"
       id="linearGradient4329"
       xlink:href="#linearGradient4455-3"
       inkscape:collect="always" />
  </defs>
  <sodipodi:namedview
     id="base"
     pagecolor="#ffffff"
     bordercolor="#666666"
     borderopacity="1.0"
     inkscape:pageopacity="0.0"
     inkscape:pageshadow="2"
     inkscape:zoom="2.7604166"
     inkscape:cx="122.44845"
     inkscape:cy="41.542722"
     inkscape:document-units="px"
     inkscape:current-layer="layer1"
     showgrid="false"
     inkscape:window-width="1366"
     inkscape:window-height="705"
     inkscape:window-x="0"
     inkscape:window-y="28"
     inkscape:window-maximized="1"
     showguides="false"
     inkscape:guide-bbox="true">
    <sodipodi:guide
       orientation="0,1"
       position="120.2717,73.17736"
       id="guide4443" />
    <sodipodi:guide
       orientation="0,1"
       position="142.73208,28.256604"
       id="guide4445" />
    <sodipodi:guide
       orientation="0,1"
       position="193.81133,64.845285"
       id="guide3247" />
    <sodipodi:guide
       orientation="0,1"
       position="112.32592,86.966131"
       id="guide3344" />
  </sodipodi:namedview>
  <metadata
     id="metadata7">
    <rdf:RDF>
      <cc:Work
         rdf:about="">
        <dc:format>image/svg+xml</dc:format>
        <dc:type
           rdf:resource="http://purl.org/dc/dcmitype/StillImage" />
        <dc:title />
      </cc:Work>
    </rdf:RDF>
  </metadata>
  <g
     inkscape:label="Layer 1"
     inkscape:groupmode="layer"
     id="layer1"
     transform="translate(0,-956.36218)">
    <g
       id="g3033"
       transform="translate(0,-1.0000026)">
      <rect
         ry="10.595235"
         rx="10.595235"
         y="961.86218"
         x="3.5"
         height="89"
         width="89"
         id="rect3826"
         style="opacity:0.05;fill:#000000;fill-opacity:1;stroke:none" />
      <rect
         style="opacity:0.05;fill:#000000;fill-opacity:1;stroke:none"
         id="rect3824"
         width="88"
         height="88"
         x="4"
         y="962.36218"
         rx="10.476188"
         ry="10.476188" />
      <rect
         ry="10.357141"
         rx="10.357141"
         y="962.86218"
         x="4.5"
         height="87"
         width="87"
         id="rect3822"
         style="opacity:0.05;fill:#000000;fill-opacity:1;stroke:none" />
      <rect
         style="opacity:0.1;fill:#000000;fill-opacity:1;stroke:none"
         id="rect3820"
         width="86"
         height="86"
         x="5"
         y="963.36218"
         rx="10.238094"
         ry="10.238094" />
      <rect
         ry="10.119047"
         rx="10.119047"
         y="963.86218"
         x="5.5"
         height="85"
         width="85"
         id="rect3818"
         style="opacity:0.1;fill:#000000;fill-opacity:1;stroke:none" />
      <rect
         style="opacity:0.3;fill:#000000;fill-opacity:1;stroke:none"
         id="rect3131"
         width="84"
         height="84"
         x="6"
         y="964.36218"
         rx="10"
         ry="10" />
    </g>
    <rect
       ry="10"
       rx="10"
       y="962.36218"
       x="6"
       height="84"
       width="84"
       id="rect3036"
       style="fill:url(#linearGradient3155);fill-opacity:1;stroke:none" />
    <rect
       style="fill:url(#linearGradient3124);fill-opacity:1;stroke:none"
       id="rect3034"
       width="82"
       height="82"
       x="7"
       y="963.36218"
       rx="9.7619047"
       ry="9.7619047" />
    <path
       style="fill:url(#linearGradient3346);fill-opacity:1;stroke:none"
       d="M 16,6 C 10.46,6 6,10.46 6,16 l 0,13 84,0 0,-13 C 90,10.46 85.54,6 80,6 z"
       transform="translate(0,956.36218)"
       id="rect3180"
       inkscape:connector-curvature="0"
       sodipodi:nodetypes="sccccss" />
    <path
       style="fill:url(#linearGradient3217);fill-opacity:1;stroke:none"
       d="M 16.75,7 C 11.341905,7 7,11.341905 7,16.75 L 7,29 89,29 89,16.75 C 89,11.341905 84.658095,7 79.25,7 z"
       transform="translate(0,956.36218)"
       id="rect3166"
       inkscape:connector-curvature="0"
       sodipodi:nodetypes="ssccsss" />
    <rect
       style="opacity:0.05;fill:#000000;fill-opacity:1;stroke:none"
       id="rect3395"
       width="84"
       height="1"
       x="6"
       y="983.36218"
       rx="0"
       ry="0" />
    <rect
       ry="0"
       rx="0"
       y="984.36218"
       x="6"
       height="1"
       width="84"
       id="rect3233"
       style="opacity:0.2;fill:#000000;fill-opacity:1;stroke:none" />
    <rect
       ry="0"
       rx="0"
       y="985.36218"
       x="6"
       height="1"
       width="84"
       id="rect3122"
       style="opacity:0.1;fill:#ffffff;fill-opacity:1;stroke:none" />
    <path
       style="fill:#000000;fill-opacity:1;stroke:none;opacity:0.05"
       d="m 90,1014.9872 c 0,16.3666 -12.6407,31.375 -42.3125,31.375 l 27.09375,0 c 7.10112,-2.9511 12.08866,-7.3478 15.21875,-12.5 l 0,-18.875 z"
       id="path3158"
       inkscape:connector-curvature="0" />
    <path
       style="fill:#000000;fill-opacity:1;stroke:none;opacity:0.05"
       d="m 90,1014.9872 c 0,16.3666 -12.6407,31.375 -42.3125,31.375 l 23.40625,0 c 9.384557,-3.1985 15.56197,-8.6959 18.90625,-15.25 l 0,-16.125 z"
       id="path3156"
       inkscape:connector-curvature="0" />
    <path
       style="fill:#000000;fill-opacity:1;stroke:none;opacity:0.05"
       d="m 90,1014.9872 c 0,16.3666 -12.6407,31.375 -42.3125,31.375 l 19.125,0 c 12.38366,-3.2645 19.861625,-10.2037 23.1875,-18.5 l 0,-12.875 z"
       id="path3154"
       inkscape:connector-curvature="0" />
    <path
       style="fill:#000000;fill-opacity:1;stroke:none;opacity:0.05"
       d="m 90,1014.9872 c 0,16.3666 -12.6407,31.375 -42.3125,31.375 l 13.375,0 C 77.894685,1043.4719 87.064779,1034.553 90,1023.9247 l 0,-8.9375 z"
       id="path3150"
       inkscape:connector-curvature="0" />
    <path
       style="opacity:1;fill:url(#linearGradient3191);fill-opacity:1;stroke:none"
       d="m 90,1001.6122 -62.0625,44.75 19.75,0 c 29.6718,0 42.3125,-15.0084 42.3125,-31.375 l 0,-13.375 z"
       id="rect3132"
       inkscape:connector-curvature="0" />
    <path
       style="opacity:0.25;fill:url(#linearGradient3825);fill-opacity:1;stroke:none"
       d="m 8,987.36218 c -0.5522848,0 -1,0.44772 -1,1 0,0.55229 0.4477152,1 1,1 0.5522848,0 1,-0.44771 1,-1 0,-0.55228 -0.4477152,-1 -1,-1 z m 4,0 c -0.552285,0 -1,0.44772 -1,1 0,0.55229 0.447715,1 1,1 0.552285,0 1,-0.44771 1,-1 0,-0.55228 -0.447715,-1 -1,-1 z m 4,0 c -0.552285,0 -1,0.44772 -1,1 0,0.55229 0.447715,1 1,1 0.552285,0 1,-0.44771 1,-1 0,-0.55228 -0.447715,-1 -1,-1 z m 4,0 c -0.552285,0 -1,0.44772 -1,1 0,0.55229 0.447715,1 1,1 0.552285,0 1,-0.44771 1,-1 0,-0.55228 -0.447715,-1 -1,-1 z m 4,0 c -0.552285,0 -1,0.44772 -1,1 0,0.55229 0.447715,1 1,1 0.552285,0 1,-0.44771 1,-1 0,-0.55228 -0.447715,-1 -1,-1 z m 4,0 c -0.552285,0 -1,0.44772 -1,1 0,0.55229 0.447715,1 1,1 0.552285,0 1,-0.44771 1,-1 0,-0.55228 -0.447715,-1 -1,-1 z m 4,0 c -0.552285,0 -1,0.44772 -1,1 0,0.55229 0.447715,1 1,1 0.552285,0 1,-0.44771 1,-1 0,-0.55228 -0.447715,-1 -1,-1 z m 4,0 c -0.552285,0 -1,0.44772 -1,1 0,0.55229 0.447715,1 1,1 0.552285,0 1,-0.44771 1,-1 0,-0.55228 -0.447715,-1 -1,-1 z m 4,0 c -0.552285,0 -1,0.44772 -1,1 0,0.55229 0.447715,1 1,1 0.552285,0 1,-0.44771 1,-1 0,-0.55228 -0.447715,-1 -1,-1 z m 4,0 c -0.552285,0 -1,0.44772 -1,1 0,0.55229 0.447715,1 1,1 0.552285,0 1,-0.44771 1,-1 0,-0.55228 -0.447715,-1 -1,-1 z m 4,0 c -0.552285,0 -1,0.44772 -1,1 0,0.55229 0.447715,1 1,1 0.552285,0 1,-0.44771 1,-1 0,-0.55228 -0.447715,-1 -1,-1 z m 4,0 c -0.552285,0 -1,0.44772 -1,1 0,0.55229 0.447715,1 1,1 0.552285,0 1,-0.44771 1,-1 0,-0.55228 -0.447715,-1 -1,-1 z m 4,0 c -0.552285,0 -1,0.44772 -1,1 0,0.55229 0.447715,1 1,1 0.552285,0 1,-0.44771 1,-1 0,-0.55228 -0.447715,-1 -1,-1 z m 4,0 c -0.552285,0 -1,0.44772 -1,1 0,0.55229 0.447715,1 1,1 0.552285,0 1,-0.44771 1,-1 0,-0.55228 -0.447715,-1 -1,-1 z m 4,0 c -0.552285,0 -1,0.44772 -1,1 0,0.55229 0.447715,1 1,1 0.552285,0 1,-0.44771 1,-1 0,-0.55228 -0.447715,-1 -1,-1 z m 4,0 c -0.552285,0 -1,0.44772 -1,1 0,0.55229 0.447715,1 1,1 0.552285,0 1,-0.44771 1,-1 0,-0.55228 -0.447715,-1 -1,-1 z m 4,0 c -0.552285,0 -1,0.44772 -1,1 0,0.55229 0.447715,1 1,1 0.552285,0 1,-0.44771 1,-1 0,-0.55228 -0.447715,-1 -1,-1 z m 4,0 c -0.552285,0 -1,0.44772 -1,1 0,0.55229 0.447715,1 1,1 0.552285,0 1,-0.44771 1,-1 0,-0.55228 -0.447715,-1 -1,-1 z m 4,0 c -0.552285,0 -1,0.44772 -1,1 0,0.55229 0.447715,1 1,1 0.552285,0 1,-0.44771 1,-1 0,-0.55228 -0.447715,-1 -1,-1 z m 4,0 c -0.552285,0 -1,0.44772 -1,1 0,0.55229 0.447715,1 1,1 0.552285,0 1,-0.44771 1,-1 0,-0.55228 -0.447715,-1 -1,-1 z m 4,0 c -0.552285,0 -1,0.44772 -1,1 0,0.55229 0.447715,1 1,1 0.552285,0 1,-0.44771 1,-1 0,-0.55228 -0.447715,-1 -1,-1 z"
       id="path3776"
       inkscape:connector-curvature="0" />
    <path
       style="opacity:0.3;fill:url(#linearGradient4329);fill-opacity:1;stroke:none"
       d="m 6,996.36218 0,1 84,0 0,-1 z m 0,8.00002 0,1 84,0 0,-1 z m 0,8 0,1 84,0 0,-1 z m 0,8 0,1 84,0 0,-1 z m 0,8 0,1 80,0 0,-1 z m 0.064024,8 c 0.026288,0.3389 0.035476,0.6718 0.096037,1 l 73.679878,0 c 0.06056,-0.3282 0.06975,-0.6611 0.09604,-1 z"
       id="path3484"
       inkscape:connector-curvature="0"
       sodipodi:nodetypes="cccccccccccccccccccccccccccccc" />
  </g>
</svg>
