<?xml version="1.0" encoding="UTF-8" standalone="no"?>
<!-- Created with Inkscape (http://www.inkscape.org/) -->

<svg
   xmlns:dc="http://purl.org/dc/elements/1.1/"
   xmlns:cc="http://creativecommons.org/ns#"
   xmlns:rdf="http://www.w3.org/1999/02/22-rdf-syntax-ns#"
   xmlns:svg="http://www.w3.org/2000/svg"
   xmlns="http://www.w3.org/2000/svg"
   xmlns:xlink="http://www.w3.org/1999/xlink"
   xmlns:sodipodi="http://sodipodi.sourceforge.net/DTD/sodipodi-0.dtd"
   xmlns:inkscape="http://www.inkscape.org/namespaces/inkscape"
   width="96"
   height="96"
   id="svg2"
   version="1.1"
   inkscape:version="0.91 r13725"
   sodipodi:docname="goa-panel.svg">
  <defs
     id="defs4">
    <linearGradient
       id="linearGradient3116"
       inkscape:collect="always">
      <stop
         id="stop3118"
         offset="0"
         style="stop-color:#1ce2fb;stop-opacity:1" />
      <stop
         style="stop-color:#1dd0f4;stop-opacity:1;"
         offset="0.27033514"
         id="stop3808" />
      <stop
         id="stop3120"
         offset="1"
         style="stop-color:#2d42c0;stop-opacity:1" />
    </linearGradient>
    <linearGradient
       inkscape:collect="always"
       id="linearGradient3280">
      <stop
         style="stop-color:#7aaad6;stop-opacity:1;"
         offset="0"
         id="stop3282" />
      <stop
         style="stop-color:#7aaad6;stop-opacity:0;"
         offset="1"
         id="stop3284" />
    </linearGradient>
    <linearGradient
       inkscape:collect="always"
       id="linearGradient3260">
      <stop
         style="stop-color:#99bde1;stop-opacity:1"
         offset="0"
         id="stop3262" />
      <stop
         style="stop-color:#d7e9f5;stop-opacity:1"
         offset="1"
         id="stop3264" />
    </linearGradient>
    <linearGradient
       inkscape:collect="always"
       id="linearGradient3223">
      <stop
         style="stop-color:#b3d6ec;stop-opacity:1"
         offset="0"
         id="stop3225" />
      <stop
         style="stop-color:#dcecf6;stop-opacity:1"
         offset="1"
         id="stop3227" />
    </linearGradient>
    <linearGradient
       inkscape:collect="always"
       id="linearGradient3215">
      <stop
         style="stop-color:#b3d6ec;stop-opacity:1"
         offset="0"
         id="stop3217" />
      <stop
         style="stop-color:#ffffff;stop-opacity:1"
         offset="1"
         id="stop3219" />
    </linearGradient>
    <inkscape:perspective
       sodipodi:type="inkscape:persp3d"
       inkscape:vp_x="0 : 48 : 1"
       inkscape:vp_y="0 : 1000 : 0"
       inkscape:vp_z="96 : 48 : 1"
       inkscape:persp3d-origin="48 : 32 : 1"
       id="perspective3054" />
    <linearGradient
       id="linearGradient4357"
       inkscape:collect="always">
      <stop
         id="stop4359"
         offset="0"
         style="stop-color:#ded3d6;stop-opacity:1" />
      <stop
         id="stop4361"
         offset="1"
         style="stop-color:#f7ebef;stop-opacity:1" />
    </linearGradient>
    <linearGradient
       inkscape:collect="always"
       id="linearGradient3558">
      <stop
         style="stop-color:#ded3d6;stop-opacity:1"
         offset="0"
         id="stop3560" />
      <stop
         style="stop-color:#efebef;stop-opacity:1"
         offset="1"
         id="stop3562" />
    </linearGradient>
    <linearGradient
       id="linearGradient3076"
       inkscape:collect="always">
      <stop
         id="stop3078"
         offset="0"
         style="stop-color:#ffe7f7;stop-opacity:1" />
      <stop
         id="stop3080"
         offset="1"
         style="stop-color:#ffc3ef;stop-opacity:1" />
    </linearGradient>
    <linearGradient
       inkscape:collect="always"
       id="linearGradient3048">
      <stop
         style="stop-color:#c16d16;stop-opacity:1"
         offset="0"
         id="stop3050" />
      <stop
         style="stop-color:#ff8e31;stop-opacity:1"
         offset="1"
         id="stop3052" />
    </linearGradient>
    <linearGradient
       inkscape:collect="always"
       id="linearGradient3119">
      <stop
         style="stop-color:#92948f;stop-opacity:0"
         offset="0"
         id="stop3121" />
      <stop
         id="stop3123"
         offset="0.4283945"
         style="stop-color:#9b9e98;stop-opacity:1" />
      <stop
         style="stop-color:#939690;stop-opacity:0"
         offset="1"
         id="stop3125" />
    </linearGradient>
    <linearGradient
       id="linearGradient3073"
       inkscape:collect="always">
      <stop
         id="stop3075"
         offset="0"
         style="stop-color:#ffffff;stop-opacity:0" />
      <stop
         style="stop-color:#ffffff;stop-opacity:1"
         offset="0.45872402"
         id="stop3085" />
      <stop
         id="stop3083"
         offset="1"
         style="stop-color:#ffffff;stop-opacity:0" />
    </linearGradient>
    <linearGradient
       inkscape:collect="always"
       id="linearGradient3047">
      <stop
         style="stop-color:#000000;stop-opacity:1"
         offset="0"
         id="stop3049" />
      <stop
         id="stop3055"
         offset="0.06123874"
         style="stop-color:#1a1a1a;stop-opacity:1" />
      <stop
         style="stop-color:#333333;stop-opacity:1"
         offset="0.16480456"
         id="stop3057" />
      <stop
         id="stop3059"
         offset="0.55385184"
         style="stop-color:#4d4d4d;stop-opacity:1" />
      <stop
         style="stop-color:#999999;stop-opacity:1"
         offset="1"
         id="stop3051" />
    </linearGradient>
    <linearGradient
       id="linearGradient3041"
       inkscape:collect="always">
      <stop
         id="stop3043"
         offset="0"
         style="stop-color:#1a1a1a;stop-opacity:1" />
      <stop
         id="stop3045"
         offset="1"
         style="stop-color:#808080;stop-opacity:1" />
    </linearGradient>
    <linearGradient
       inkscape:collect="always"
       id="linearGradient3029">
      <stop
         style="stop-color:#333333;stop-opacity:1"
         offset="0"
         id="stop3031" />
      <stop
         style="stop-color:#e0e0dd;stop-opacity:0;"
         offset="1"
         id="stop3033" />
    </linearGradient>
    <linearGradient
       inkscape:collect="always"
       xlink:href="#linearGradient3029"
       id="linearGradient3035"
       x1="35.355339"
       y1="1030.3622"
       x2="35.355339"
       y2="975.33282"
       gradientUnits="userSpaceOnUse"
       gradientTransform="matrix(1.1638085,0,0,1.1638085,-7.862809,-164.23642)" />
    <linearGradient
       inkscape:collect="always"
       xlink:href="#linearGradient3041"
       id="linearGradient3039"
       gradientUnits="userSpaceOnUse"
       x1="35.355339"
       y1="1030.3622"
       x2="35.355339"
       y2="975.33282"
       gradientTransform="matrix(1.1218695,0,0,1.1218695,-5.8497348,-122.18782)" />
    <linearGradient
       inkscape:collect="always"
       xlink:href="#linearGradient3047"
       id="linearGradient3053"
       x1="40"
       y1="1043.4336"
       x2="39.285713"
       y2="972.33325"
       gradientUnits="userSpaceOnUse" />
    <linearGradient
       inkscape:collect="always"
       xlink:href="#linearGradient3073"
       id="linearGradient3113"
       gradientUnits="userSpaceOnUse"
       gradientTransform="translate(0,-956.36218)"
       x1="14.869445"
       y1="978.90387"
       x2="24.52651"
       y2="969.24683" />
    <linearGradient
       inkscape:collect="always"
       xlink:href="#linearGradient3073"
       id="linearGradient3115"
       gradientUnits="userSpaceOnUse"
       gradientTransform="matrix(-1,0,0,1,96,-956.36218)"
       x1="15.152279"
       y1="978.62103"
       x2="26.263966"
       y2="967.50934" />
    <linearGradient
       inkscape:collect="always"
       xlink:href="#linearGradient3119"
       id="linearGradient3117"
       gradientUnits="userSpaceOnUse"
       gradientTransform="translate(0,-956.36218)"
       x1="13.131983"
       y1="980.64136"
       x2="25.549681"
       y2="967.86646" />
    <linearGradient
       inkscape:collect="always"
       xlink:href="#linearGradient3119"
       id="linearGradient3129"
       gradientUnits="userSpaceOnUse"
       gradientTransform="matrix(-1,0,0,1,96,0)"
       x1="13.131983"
       y1="980.64136"
       x2="25.549681"
       y2="967.86646" />
    <linearGradient
       inkscape:collect="always"
       xlink:href="#linearGradient3048"
       id="linearGradient3054"
       x1="49.267925"
       y1="996.57349"
       x2="49.267925"
       y2="1045.8627"
       gradientUnits="userSpaceOnUse" />
    <linearGradient
       inkscape:collect="always"
       xlink:href="#linearGradient3048"
       id="linearGradient3058"
       x1="115.80308"
       y1="985.47241"
       x2="115.80308"
       y2="1033.5543"
       gradientUnits="userSpaceOnUse" />
    <linearGradient
       inkscape:collect="always"
       xlink:href="#linearGradient3076"
       id="linearGradient3055"
       gradientUnits="userSpaceOnUse"
       x1="115.80308"
       y1="985.47241"
       x2="115.80308"
       y2="1025.3639"
       gradientTransform="matrix(1.4144782,0,0,1.4144782,-119.78686,-419.05496)" />
    <linearGradient
       inkscape:collect="always"
       xlink:href="#linearGradient3076"
       id="linearGradient3086"
       gradientUnits="userSpaceOnUse"
       gradientTransform="matrix(1.4144782,0,0,1.4144782,-119.78686,-417.12598)"
       x1="115.80308"
       y1="985.47241"
       x2="115.80308"
       y2="1025.3639" />
    <linearGradient
       inkscape:collect="always"
       xlink:href="#linearGradient3076"
       id="linearGradient3091"
       gradientUnits="userSpaceOnUse"
       gradientTransform="matrix(1.4144782,0,0,1.4144782,-119.78686,-418.126)"
       x1="115.80308"
       y1="985.47241"
       x2="115.80308"
       y2="1025.3639" />
    <linearGradient
       inkscape:collect="always"
       xlink:href="#linearGradient3076"
       id="linearGradient3093"
       gradientUnits="userSpaceOnUse"
       gradientTransform="matrix(1.4144782,0,0,1.4144782,-119.78686,-1375.4171)"
       x1="115.80308"
       y1="985.47241"
       x2="115.80308"
       y2="1025.3639" />
    <linearGradient
       inkscape:collect="always"
       xlink:href="#linearGradient3558"
       id="linearGradient3564"
       x1="93.242035"
       y1="1027.2615"
       x2="93.242035"
       y2="980.7262"
       gradientUnits="userSpaceOnUse" />
    <linearGradient
       inkscape:collect="always"
       xlink:href="#linearGradient3558"
       id="linearGradient4350"
       gradientUnits="userSpaceOnUse"
       x1="93.242035"
       y1="1027.2615"
       x2="93.242035"
       y2="980.7262" />
    <linearGradient
       inkscape:collect="always"
       xlink:href="#linearGradient4357"
       id="linearGradient3067"
       gradientUnits="userSpaceOnUse"
       gradientTransform="translate(-206.68129,0)"
       x1="93.242035"
       y1="1027.2615"
       x2="93.242035"
       y2="980.7262" />
    <linearGradient
       inkscape:collect="always"
       xlink:href="#linearGradient3215"
       id="linearGradient3221"
       x1="155.04906"
       y1="1027.7283"
       x2="155.04906"
       y2="991.66064"
       gradientUnits="userSpaceOnUse"
       gradientTransform="translate(-101.82338,-7.0710678)" />
    <linearGradient
       inkscape:collect="always"
       xlink:href="#linearGradient3223"
       id="linearGradient3229"
       x1="181.875"
       y1="1030.1122"
       x2="174.5"
       y2="1008.6122"
       gradientUnits="userSpaceOnUse"
       gradientTransform="translate(-101.82338,-7.0710678)" />
    <linearGradient
       inkscape:collect="always"
       xlink:href="#linearGradient3215"
       id="linearGradient3235"
       gradientUnits="userSpaceOnUse"
       gradientTransform="translate(-101.82338,-7.0710678)"
       x1="155.04906"
       y1="1027.7283"
       x2="155.04906"
       y2="991.66064" />
    <linearGradient
       inkscape:collect="always"
       xlink:href="#linearGradient3223"
       id="linearGradient3237"
       gradientUnits="userSpaceOnUse"
       gradientTransform="translate(-101.82338,-7.0710678)"
       x1="181.875"
       y1="1030.1122"
       x2="174.5"
       y2="1008.6122" />
    <linearGradient
       inkscape:collect="always"
       xlink:href="#linearGradient3223"
       id="linearGradient3240"
       gradientUnits="userSpaceOnUse"
       gradientTransform="translate(-112.95681,-11.313709)"
       x1="181.875"
       y1="1030.1122"
       x2="174.5"
       y2="1008.6122" />
    <linearGradient
       inkscape:collect="always"
       xlink:href="#linearGradient3215"
       id="linearGradient3243"
       gradientUnits="userSpaceOnUse"
       gradientTransform="translate(-112.95681,-11.313709)"
       x1="155.04906"
       y1="1027.7283"
       x2="155.04906"
       y2="991.66064" />
    <linearGradient
       inkscape:collect="always"
       xlink:href="#linearGradient3223"
       id="linearGradient3250"
       gradientUnits="userSpaceOnUse"
       gradientTransform="translate(-112.95681,-967.67589)"
       x1="181.875"
       y1="1030.1122"
       x2="174.5"
       y2="1008.6122" />
    <linearGradient
       inkscape:collect="always"
       xlink:href="#linearGradient3260"
       id="linearGradient3266"
       x1="60.75"
       y1="42.125"
       x2="66.255951"
       y2="42.125"
       gradientUnits="userSpaceOnUse"
       gradientTransform="translate(0,956.31756)" />
    <linearGradient
       inkscape:collect="always"
       xlink:href="#linearGradient3215"
       id="linearGradient3274"
       gradientUnits="userSpaceOnUse"
       gradientTransform="translate(-112.95681,-967.67589)"
       x1="155.04906"
       y1="1027.7283"
       x2="155.04906"
       y2="991.66064" />
    <linearGradient
       inkscape:collect="always"
       xlink:href="#linearGradient3215"
       id="linearGradient3277"
       gradientUnits="userSpaceOnUse"
       gradientTransform="translate(-112.95681,-967.67589)"
       x1="155.04906"
       y1="1027.7283"
       x2="155.04906"
       y2="991.66064" />
    <linearGradient
       inkscape:collect="always"
       xlink:href="#linearGradient3280"
       id="linearGradient3286"
       x1="53.25"
       y1="60.75"
       x2="49.625"
       y2="63.25"
       gradientUnits="userSpaceOnUse"
       gradientTransform="translate(0,956.31756)" />
    <linearGradient
       inkscape:collect="always"
       xlink:href="#linearGradient3215"
       id="linearGradient3292"
       gradientUnits="userSpaceOnUse"
       gradientTransform="translate(-112.95681,-967.67589)"
       x1="155.04906"
       y1="1027.7283"
       x2="155.04906"
       y2="991.66064" />
    <linearGradient
       inkscape:collect="always"
       xlink:href="#linearGradient3223"
       id="linearGradient3295"
       gradientUnits="userSpaceOnUse"
       gradientTransform="translate(-112.95681,-11.358329)"
       x1="181.875"
       y1="1030.1122"
       x2="174.5"
       y2="1008.6122" />
    <linearGradient
       inkscape:collect="always"
       xlink:href="#linearGradient3215"
       id="linearGradient3297"
       gradientUnits="userSpaceOnUse"
       gradientTransform="translate(-112.95681,-11.358329)"
       x1="155.04906"
       y1="1027.7283"
       x2="155.04906"
       y2="991.66064" />
    <linearGradient
       inkscape:collect="always"
       xlink:href="#linearGradient3215"
       id="linearGradient3332"
       gradientUnits="userSpaceOnUse"
       gradientTransform="translate(-112.95681,-11.358329)"
       x1="155.04906"
       y1="1027.7283"
       x2="155.04906"
       y2="991.66064" />
    <linearGradient
       inkscape:collect="always"
       xlink:href="#linearGradient3280"
       id="linearGradient3334"
       gradientUnits="userSpaceOnUse"
       gradientTransform="translate(0,956.31756)"
       x1="53.25"
       y1="60.75"
       x2="49.625"
       y2="63.25" />
    <linearGradient
       inkscape:collect="always"
       xlink:href="#linearGradient3223"
       id="linearGradient3336"
       gradientUnits="userSpaceOnUse"
       gradientTransform="translate(-112.95681,-11.358329)"
       x1="181.875"
       y1="1030.1122"
       x2="174.5"
       y2="1008.6122" />
    <linearGradient
       inkscape:collect="always"
       xlink:href="#linearGradient3260"
       id="linearGradient3338"
       gradientUnits="userSpaceOnUse"
       gradientTransform="translate(0,956.31756)"
       x1="60.75"
       y1="42.125"
       x2="66.255951"
       y2="42.125" />
    <linearGradient
       inkscape:collect="always"
       xlink:href="#linearGradient3260"
       id="linearGradient3341"
       gradientUnits="userSpaceOnUse"
       gradientTransform="translate(0,956.81754)"
       x1="60.75"
       y1="42.125"
       x2="66.255951"
       y2="42.125" />
    <linearGradient
       inkscape:collect="always"
       xlink:href="#linearGradient3223"
       id="linearGradient3344"
       gradientUnits="userSpaceOnUse"
       gradientTransform="translate(-112.95681,-10.858349)"
       x1="181.875"
       y1="1030.1122"
       x2="174.5"
       y2="1008.6122" />
    <linearGradient
       inkscape:collect="always"
       xlink:href="#linearGradient3280"
       id="linearGradient3347"
       gradientUnits="userSpaceOnUse"
       gradientTransform="translate(0,956.81754)"
       x1="53.25"
       y1="60.75"
       x2="49.625"
       y2="63.25" />
    <linearGradient
       inkscape:collect="always"
       xlink:href="#linearGradient3215"
       id="linearGradient3350"
       gradientUnits="userSpaceOnUse"
       gradientTransform="translate(-112.95681,-10.858349)"
       x1="155.04906"
       y1="1027.7283"
       x2="155.04906"
       y2="991.66064" />
    <linearGradient
       inkscape:collect="always"
       xlink:href="#linearGradient3215"
       id="linearGradient3360"
       gradientUnits="userSpaceOnUse"
       gradientTransform="translate(-112.95681,-967.22053)"
       x1="155.04906"
       y1="1027.7283"
       x2="155.04906"
       y2="991.66064" />
    <radialGradient
       inkscape:collect="always"
       xlink:href="#linearGradient3116"
       id="radialGradient3806"
       cx="-25.98514"
       cy="-980.96381"
       fx="-25.98514"
       fy="-980.96381"
       r="42"
       gradientUnits="userSpaceOnUse"
       gradientTransform="matrix(-2.8336395,1.1756673e-7,-7.4791048e-8,-1.8026432,-123.48362,-2740.4774)" />
    <radialGradient
       inkscape:collect="always"
       xlink:href="#linearGradient3116"
       id="radialGradient4632"
       gradientUnits="userSpaceOnUse"
       gradientTransform="matrix(-2.8336395,1.1756673e-7,-7.4791048e-8,-1.8026432,-248.99507,-2740.4774)"
       cx="-25.98514"
       cy="-980.96381"
       fx="-25.98514"
       fy="-980.96381"
       r="42" />
  </defs>
  <sodipodi:namedview
     id="base"
     pagecolor="#ffffff"
     bordercolor="#666666"
     borderopacity="1.0"
     inkscape:pageopacity="0.0"
     inkscape:pageshadow="2"
     inkscape:zoom="1.4142136"
     inkscape:cx="57.792617"
     inkscape:cy="-68.595483"
     inkscape:document-units="px"
     inkscape:current-layer="layer1"
     showgrid="false"
     inkscape:window-width="1366"
     inkscape:window-height="702"
     inkscape:window-x="0"
     inkscape:window-y="28"
     inkscape:window-maximized="1"
     showguides="true"
     inkscape:guide-bbox="true" />
  <metadata
     id="metadata7">
    <rdf:RDF>
      <cc:Work
         rdf:about="">
        <dc:format>image/svg+xml</dc:format>
        <dc:type
           rdf:resource="http://purl.org/dc/dcmitype/StillImage" />
        <dc:title />
      </cc:Work>
    </rdf:RDF>
  </metadata>
  <g
     inkscape:label="Layer 1"
     inkscape:groupmode="layer"
     id="layer1"
     transform="translate(0,-956.36218)">
    <rect
       style="opacity:0.05;fill:#000000;fill-opacity:1;stroke:none"
       id="rect3826"
       width="89"
       height="89"
       x="3.5"
       y="960.86218"
       rx="44.5"
       ry="44.5" />
    <g
       id="g3041">
      <rect
         style="opacity:0.05;fill:#000000;fill-opacity:1;stroke:none"
         id="rect3824"
         width="88"
         height="88"
         x="4"
         y="961.36218"
         rx="44"
         ry="44" />
      <rect
         ry="43.5"
         rx="43.5"
         y="961.86218"
         x="4.5"
         height="87"
         width="87"
         id="rect3822"
         style="opacity:0.05;fill:#000000;fill-opacity:1;stroke:none" />
      <rect
         style="opacity:0.1;fill:#000000;fill-opacity:1;stroke:none"
         id="rect3820"
         width="86"
         height="86"
         x="5"
         y="962.36218"
         rx="43"
         ry="43" />
      <rect
         ry="42.5"
         rx="42.5"
         y="962.86218"
         x="5.5"
         height="85"
         width="85"
         id="rect3818"
         style="opacity:0.1;fill:#000000;fill-opacity:1;stroke:none" />
      <rect
         style="opacity:0.3;fill:#000000;fill-opacity:1;stroke:none"
         id="rect3131"
         width="84"
         height="84"
         x="6"
         y="963.36218"
         rx="42"
         ry="42" />
    </g>
    <rect
       ry="41.819805"
       rx="41.819805"
       y="-1046.3622"
       x="-90"
       height="84"
       width="84"
       id="rect3036"
       style="fill:url(#radialGradient3806);fill-opacity:1;stroke:none"
       transform="scale(-1,-1)" />
    <g
       transform="scale(1.0397191,0.96179823)"
       style="font-style:normal;font-variant:normal;font-weight:normal;font-stretch:normal;font-size:66.89640808px;line-height:125%;font-family:'Open Sans';-inkscape-font-specification:'Open Sans';letter-spacing:0px;word-spacing:0px;opacity:0.05;fill:#000000;fill-opacity:1;stroke:none"
       id="text4642">
      <path
         d="m 72.281396,1045.4083 q 0,4.6384 -1.437228,8.4927 -1.437227,3.8544 -4.050368,5.9776 -2.613141,2.1232 -6.010224,2.1232 -2.809127,0 -4.736318,-1.6986 -1.927192,-1.6985 -2.286499,-4.3443 l -0.261314,0 q -1.30657,2.8418 -3.75639,4.4423 -2.417155,1.6006 -5.74891,1.6006 -4.899639,0 -7.676102,-3.3318 -2.743798,-3.3644 -2.743798,-9.1133 0,-6.6635 3.854383,-10.8119 3.854383,-4.181 10.125922,-4.181 2.221169,0 5.030296,0.4246 2.809126,0.392 5.06296,1.1106 l -0.816606,15.3522 0,0.7186 q 0,5.8143 4.344347,5.8143 2.972447,0 4.83431,-3.4951 1.861863,-3.5277 1.861863,-9.146 0,-5.9122 -2.417155,-10.3546 -2.417155,-4.4423 -6.892159,-6.8268 -4.44234,-2.4172 -10.223914,-2.4172 -7.284131,0 -12.673734,3.0378 -5.389603,3.0051 -8.231394,8.6234 -2.84179,5.5856 -2.84179,12.935 0,9.9626 5.258946,15.3196 5.258946,5.3569 15.156217,5.3569 6.859495,0 14.241618,-2.8091 l 0,4.3443 q -6.271538,2.7438 -14.241618,2.7438 -11.857127,0 -18.422644,-6.5002 -6.532852,-6.5328 -6.532852,-18.2266 0,-8.4927 3.495076,-15.1236 3.495076,-6.6308 9.9626,-10.2565 6.467524,-3.6584 14.829575,-3.6584 7.022816,0 12.477748,2.9724 5.487596,2.9398 8.460044,8.3947 3.005112,5.4223 3.005112,12.5104 z m -33.774847,4.2791 q 0,8.2967 6.369531,8.2967 6.761502,0 7.349459,-10.2239 l 0.4573,-8.5254 q -2.351827,-0.6533 -5.128289,-0.6533 -4.246355,0 -6.66351,2.9398 -2.384491,2.9398 -2.384491,8.1661 z"
         style="font-style:normal;font-variant:normal;font-weight:normal;font-stretch:normal;font-family:'Open Sans';-inkscape-font-specification:'Open Sans';text-align:center;text-anchor:middle;fill:#000000"
         id="path4258" />
    </g>
    <g
       transform="scale(1.0397191,0.96179823)"
       style="font-style:normal;font-variant:normal;font-weight:normal;font-stretch:normal;font-size:66.89640808px;line-height:125%;font-family:'Open Sans';-inkscape-font-specification:'Open Sans';letter-spacing:0px;word-spacing:0px;opacity:0.05;fill:#000000;fill-opacity:1;stroke:none"
       id="text4646">
      <path
         d="m 72.281396,1044.5186 q 0,4.6383 -1.437228,8.4927 -1.437227,3.8544 -4.050368,5.9775 -2.613141,2.1232 -6.010224,2.1232 -2.809127,0 -4.736318,-1.6985 -1.927192,-1.6986 -2.286499,-4.3444 l -0.261314,0 q -1.30657,2.8418 -3.75639,4.4424 -2.417155,1.6005 -5.74891,1.6005 -4.899639,0 -7.676102,-3.3317 -2.743798,-3.3645 -2.743798,-9.1134 0,-6.6635 3.854383,-10.8118 3.854383,-4.1811 10.125922,-4.1811 2.221169,0 5.030296,0.4247 2.809126,0.3919 5.06296,1.1105 l -0.816606,15.3523 0,0.7186 q 0,5.8142 4.344347,5.8142 2.972447,0 4.83431,-3.4951 1.861863,-3.5277 1.861863,-9.146 0,-5.9122 -2.417155,-10.3545 -2.417155,-4.4424 -6.892159,-6.8269 -4.44234,-2.4171 -10.223914,-2.4171 -7.284131,0 -12.673734,3.0378 -5.389603,3.0051 -8.231394,8.6233 -2.84179,5.5856 -2.84179,12.9351 0,9.9626 5.258946,15.3195 5.258946,5.3569 15.156217,5.3569 6.859495,0 14.241618,-2.8091 l 0,4.3444 q -6.271538,2.7438 -14.241618,2.7438 -11.857127,0 -18.422644,-6.5002 -6.532852,-6.5329 -6.532852,-18.2267 0,-8.4927 3.495076,-15.1235 3.495076,-6.6309 9.9626,-10.2566 6.467524,-3.6584 14.829575,-3.6584 7.022816,0 12.477748,2.9724 5.487596,2.9398 8.460044,8.3948 3.005112,5.4222 3.005112,12.5104 z m -33.774847,4.279 q 0,8.2967 6.369531,8.2967 6.761502,0 7.349459,-10.2239 l 0.4573,-8.5254 q -2.351827,-0.6533 -5.128289,-0.6533 -4.246355,0 -6.66351,2.9398 -2.384491,2.9398 -2.384491,8.1661 z"
         style="font-style:normal;font-variant:normal;font-weight:normal;font-stretch:normal;font-family:'Open Sans';-inkscape-font-specification:'Open Sans';text-align:center;text-anchor:middle;fill:#000000"
         id="path4261" />
    </g>
    <g
       transform="matrix(1.0753075,0,0,0.99471947,-1.6429837,-34.446599)"
       style="font-style:normal;font-variant:normal;font-weight:normal;font-stretch:normal;font-size:64.68240356px;line-height:125%;font-family:'Open Sans';-inkscape-font-specification:'Open Sans';letter-spacing:0px;word-spacing:0px;opacity:0.05;fill:#000000;fill-opacity:1;stroke:none"
       id="text3810">
      <path
         d="m 71.417088,1043.4284 q 0,4.4848 -1.389661,8.2116 -1.389661,3.7268 -3.916317,5.7797 -2.526657,2.0529 -5.81131,2.0529 -2.716156,0 -4.579565,-1.6423 -1.863409,-1.6423 -2.210824,-4.2006 l -0.252666,0 q -1.263328,2.7478 -3.632068,4.2953 -2.337157,1.5476 -5.558644,1.5476 -4.737481,0 -7.422054,-3.2215 -2.652989,-3.253 -2.652989,-8.8117 0,-6.4429 3.726818,-10.454 3.726819,-4.0427 9.790794,-4.0427 2.147658,0 4.863813,0.4106 2.716156,0.379 4.895397,1.0738 l -0.78958,14.8442 0,0.6948 q 0,5.6218 4.200566,5.6218 2.874072,0 4.674315,-3.3794 1.800242,-3.411 1.800242,-8.8433 0,-5.7166 -2.337157,-10.0119 -2.337157,-4.2953 -6.664056,-6.6009 -4.295316,-2.3371 -9.885543,-2.3371 -7.043055,0 -12.254284,2.9372 -5.211228,2.9057 -7.958967,8.338 -2.747739,5.4007 -2.747739,12.5069 0,9.6329 5.084896,14.8125 5.084896,5.1797 14.654607,5.1797 6.632473,0 13.770277,-2.7162 l 0,4.2006 q -6.063975,2.653 -13.770277,2.653 -11.464703,0 -17.812928,-6.2851 -6.316641,-6.3166 -6.316641,-17.6234 0,-8.2116 3.379403,-14.623 3.379403,-6.4114 9.632878,-9.9171 6.253474,-3.5374 14.338775,-3.5374 6.790389,0 12.064784,2.8741 5.305979,2.8425 8.18005,8.1169 2.905655,5.2428 2.905655,12.0964 z m -32.657034,4.1374 q 0,8.0221 6.158725,8.0221 6.537724,0 7.106221,-9.8856 l 0.442165,-8.2432 q -2.273991,-0.6316 -4.958563,-0.6316 -4.105817,0 -6.442974,2.8425 -2.305574,2.8424 -2.305574,7.8958 z"
         style="font-style:normal;font-variant:normal;font-weight:normal;font-stretch:normal;font-family:'Open Sans';-inkscape-font-specification:'Open Sans';text-align:center;text-anchor:middle;fill:#000000"
         id="path4252" />
    </g>
    <g
       transform="scale(1.0397191,0.96179823)"
       style="font-style:normal;font-variant:normal;font-weight:normal;font-stretch:normal;font-size:66.89640808px;line-height:125%;font-family:'Open Sans';-inkscape-font-specification:'Open Sans';letter-spacing:0px;word-spacing:0px;opacity:0.05;fill:#000000;fill-opacity:1;stroke:none"
       id="text4638">
      <path
         d="m 72.281396,1042.4392 q 0,4.6383 -1.437228,8.4927 -1.437227,3.8544 -4.050368,5.9776 -2.613141,2.1232 -6.010224,2.1232 -2.809127,0 -4.736318,-1.6986 -1.927192,-1.6985 -2.286499,-4.3443 l -0.261314,0 q -1.30657,2.8418 -3.75639,4.4423 -2.417155,1.6006 -5.74891,1.6006 -4.899639,0 -7.676102,-3.3318 -2.743798,-3.3644 -2.743798,-9.1133 0,-6.6635 3.854383,-10.8119 3.854383,-4.181 10.125922,-4.181 2.221169,0 5.030296,0.4246 2.809126,0.392 5.06296,1.1106 l -0.816606,15.3522 0,0.7186 q 0,5.8143 4.344347,5.8143 2.972447,0 4.83431,-3.4951 1.861863,-3.5278 1.861863,-9.146 0,-5.9122 -2.417155,-10.3546 -2.417155,-4.4423 -6.892159,-6.8268 -4.44234,-2.4172 -10.223914,-2.4172 -7.284131,0 -12.673734,3.0378 -5.389603,3.0051 -8.231394,8.6234 -2.84179,5.5856 -2.84179,12.935 0,9.9626 5.258946,15.3196 5.258946,5.3569 15.156217,5.3569 6.859495,0 14.241618,-2.8091 l 0,4.3443 q -6.271538,2.7438 -14.241618,2.7438 -11.857127,0 -18.422644,-6.5002 -6.532852,-6.5328 -6.532852,-18.2266 0,-8.4927 3.495076,-15.1236 3.495076,-6.6308 9.9626,-10.2566 6.467524,-3.6584 14.829575,-3.6584 7.022816,0 12.477748,2.9725 5.487596,2.9398 8.460044,8.3947 3.005112,5.4223 3.005112,12.5104 z m -33.774847,4.279 q 0,8.2968 6.369531,8.2968 6.761502,0 7.349459,-10.224 l 0.4573,-8.5253 q -2.351827,-0.6533 -5.128289,-0.6533 -4.246355,0 -6.66351,2.9398 -2.384491,2.9398 -2.384491,8.166 z"
         style="font-style:normal;font-variant:normal;font-weight:normal;font-stretch:normal;font-family:'Open Sans';-inkscape-font-specification:'Open Sans';text-align:center;text-anchor:middle;fill:#000000"
         id="path4255" />
    </g>
    <g
       transform="scale(1.0397191,0.96179823)"
       style="font-style:normal;font-variant:normal;font-weight:normal;font-stretch:normal;font-size:66.89640808px;line-height:125%;font-family:'Open Sans';-inkscape-font-specification:'Open Sans';letter-spacing:0px;word-spacing:0px;opacity:0.1;fill:#000000;fill-opacity:1;stroke:none"
       id="text4634">
      <path
         d="m 72.281396,1041.3994 q 0,4.6383 -1.437228,8.4927 -1.437227,3.8544 -4.050368,5.9776 -2.613141,2.1232 -6.010224,2.1232 -2.809127,0 -4.736318,-1.6986 -1.927192,-1.6985 -2.286499,-4.3443 l -0.261314,0 q -1.30657,2.8418 -3.75639,4.4423 -2.417155,1.6006 -5.74891,1.6006 -4.899639,0 -7.676102,-3.3318 -2.743798,-3.3644 -2.743798,-9.1133 0,-6.6635 3.854383,-10.8119 3.854383,-4.181 10.125922,-4.181 2.221169,0 5.030296,0.4246 2.809126,0.392 5.06296,1.1106 l -0.816606,15.3522 0,0.7186 q 0,5.8143 4.344347,5.8143 2.972447,0 4.83431,-3.4951 1.861863,-3.5278 1.861863,-9.146 0,-5.9122 -2.417155,-10.3546 -2.417155,-4.4423 -6.892159,-6.8268 -4.44234,-2.4172 -10.223914,-2.4172 -7.284131,0 -12.673734,3.0378 -5.389603,3.0051 -8.231394,8.6234 -2.84179,5.5856 -2.84179,12.935 0,9.9626 5.258946,15.3196 5.258946,5.3569 15.156217,5.3569 6.859495,0 14.241618,-2.8091 l 0,4.3443 q -6.271538,2.7438 -14.241618,2.7438 -11.857127,0 -18.422644,-6.5002 -6.532852,-6.5328 -6.532852,-18.2266 0,-8.4927 3.495076,-15.1236 3.495076,-6.6308 9.9626,-10.2566 6.467524,-3.6584 14.829575,-3.6584 7.022816,0 12.477748,2.9725 5.487596,2.9398 8.460044,8.3947 3.005112,5.4223 3.005112,12.5104 z m -33.774847,4.279 q 0,8.2968 6.369531,8.2968 6.761502,0 7.349459,-10.224 l 0.4573,-8.5253 q -2.351827,-0.6533 -5.128289,-0.6533 -4.246355,0 -6.66351,2.9398 -2.384491,2.9398 -2.384491,8.166 z"
         style="font-style:normal;font-variant:normal;font-weight:normal;font-stretch:normal;font-family:'Open Sans';-inkscape-font-specification:'Open Sans';text-align:center;text-anchor:middle;fill:#000000"
         id="path4249" />
    </g>
    <g
       transform="scale(1.0397191,0.96179824)"
       style="font-style:normal;font-variant:normal;font-weight:normal;font-stretch:normal;font-size:64.68240356px;line-height:125%;font-family:'Open Sans';-inkscape-font-specification:'Open Sans';letter-spacing:0px;word-spacing:0px;fill:#ffffff;fill-opacity:1;stroke:none"
       id="text3094">
      <path
         d="m 71.417088,1041.3489 q 0,4.4848 -1.389661,8.2116 -1.389661,3.7268 -3.916317,5.7798 -2.526657,2.0529 -5.81131,2.0529 -2.716156,0 -4.579565,-1.6424 -1.863409,-1.6423 -2.210824,-4.2005 l -0.252666,0 q -1.263328,2.7477 -3.632068,4.2953 -2.337157,1.5476 -5.558644,1.5476 -4.737481,0 -7.422054,-3.2215 -2.652989,-3.2531 -2.652989,-8.8117 0,-6.443 3.726818,-10.4541 3.726819,-4.0426 9.790794,-4.0426 2.147658,0 4.863813,0.4105 2.716156,0.379 4.895397,1.0739 l -0.78958,14.8441 0,0.6948 q 0,5.6218 4.200566,5.6218 2.874072,0 4.674315,-3.3794 1.800242,-3.411 1.800242,-8.8433 0,-5.7165 -2.337157,-10.0119 -2.337157,-4.2953 -6.664056,-6.6008 -4.295316,-2.3372 -9.885543,-2.3372 -7.043055,0 -12.254284,2.9372 -5.211228,2.9057 -7.958967,8.338 -2.747739,5.4007 -2.747739,12.507 0,9.6328 5.084896,14.8125 5.084896,5.1796 14.654607,5.1796 6.632473,0 13.770277,-2.7161 l 0,4.2005 q -6.063975,2.653 -13.770277,2.653 -11.464703,0 -17.812928,-6.285 -6.316641,-6.3167 -6.316641,-17.6235 0,-8.2116 3.379403,-14.623 3.379403,-6.4114 9.632878,-9.9171 6.253474,-3.5373 14.338775,-3.5373 6.790389,0 12.064784,2.874 5.305979,2.8425 8.18005,8.1169 2.905655,5.2428 2.905655,12.0964 z m -32.657034,4.1374 q 0,8.0221 6.158725,8.0221 6.537724,0 7.106221,-9.8855 l 0.442165,-8.2432 q -2.273991,-0.6317 -4.958563,-0.6317 -4.105817,0 -6.442974,2.8425 -2.305574,2.8425 -2.305574,7.8958 z"
         style="font-style:normal;font-variant:normal;font-weight:normal;font-stretch:normal;font-family:'Open Sans';-inkscape-font-specification:'Open Sans';text-align:center;text-anchor:middle;fill:#ffffff"
         id="path4246" />
    </g>
  </g>
</svg>
