<?xml version="1.0" encoding="UTF-8" standalone="no"?>
<!-- Created with Inkscape (http://www.inkscape.org/) -->

<svg
   xmlns:dc="http://purl.org/dc/elements/1.1/"
   xmlns:cc="http://creativecommons.org/ns#"
   xmlns:rdf="http://www.w3.org/1999/02/22-rdf-syntax-ns#"
   xmlns:svg="http://www.w3.org/2000/svg"
   xmlns="http://www.w3.org/2000/svg"
   xmlns:xlink="http://www.w3.org/1999/xlink"
   xmlns:sodipodi="http://sodipodi.sourceforge.net/DTD/sodipodi-0.dtd"
   xmlns:inkscape="http://www.inkscape.org/namespaces/inkscape"
   width="96"
   height="96"
   id="svg2"
   version="1.1"
   inkscape:version="0.48.4 r9939"
   sodipodi:docname="preferences-system-privacy.svg">
  <defs
     id="defs4">
    <linearGradient
       inkscape:collect="always"
       id="linearGradient3112">
      <stop
         style="stop-color:#c0f5a5;stop-opacity:1"
         offset="0"
         id="stop3114" />
      <stop
         style="stop-color:#f7f7f9;stop-opacity:1"
         offset="1"
         id="stop3116" />
    </linearGradient>
    <linearGradient
       inkscape:collect="always"
       id="linearGradient3121">
      <stop
         style="stop-color:#000000;stop-opacity:1;"
         offset="0"
         id="stop3124" />
      <stop
         style="stop-color:#3e383e;stop-opacity:1"
         offset="1"
         id="stop3126" />
    </linearGradient>
    <linearGradient
       inkscape:collect="always"
       id="linearGradient3104">
      <stop
         style="stop-color:#ff9a00;stop-opacity:1"
         offset="0"
         id="stop3106" />
      <stop
         style="stop-color:#fdca00;stop-opacity:1"
         offset="1"
         id="stop3108" />
    </linearGradient>
    <linearGradient
       inkscape:collect="always"
       id="linearGradient4330">
      <stop
         style="stop-color:#adcff7;stop-opacity:1"
         offset="0"
         id="stop4332" />
      <stop
         style="stop-color:#efefff;stop-opacity:1"
         offset="1"
         id="stop4334" />
    </linearGradient>
    <linearGradient
       inkscape:collect="always"
       id="linearGradient3325">
      <stop
         style="stop-color:#c6bede;stop-opacity:1"
         offset="0"
         id="stop3327" />
      <stop
         style="stop-color:#f7e7ff;stop-opacity:1"
         offset="1"
         id="stop3329" />
    </linearGradient>
    <linearGradient
       inkscape:collect="always"
       id="linearGradient3315">
      <stop
         style="stop-color:#a69fc6;stop-opacity:1"
         offset="0"
         id="stop3317" />
      <stop
         style="stop-color:#fffbff;stop-opacity:1"
         offset="1"
         id="stop3319" />
    </linearGradient>
    <linearGradient
       inkscape:collect="always"
       id="linearGradient3307">
      <stop
         style="stop-color:#5228ad;stop-opacity:1"
         offset="0"
         id="stop3309" />
      <stop
         id="stop3341"
         offset="0.6955229"
         style="stop-color:#4f28a7;stop-opacity:1;" />
      <stop
         id="stop3339"
         offset="0.84899038"
         style="stop-color:#4b289f;stop-opacity:1;" />
      <stop
         style="stop-color:#4a289c;stop-opacity:1"
         offset="1"
         id="stop3311" />
    </linearGradient>
    <linearGradient
       inkscape:collect="always"
       id="linearGradient3153">
      <stop
         style="stop-color:#ffffff;stop-opacity:1"
         offset="0"
         id="stop3155" />
      <stop
         id="stop3163"
         offset="0.71368068"
         style="stop-color:#ffffff;stop-opacity:1" />
      <stop
         style="stop-color:#000000;stop-opacity:1"
         offset="1"
         id="stop3157" />
    </linearGradient>
    <linearGradient
       id="linearGradient3090"
       inkscape:collect="always">
      <stop
         id="stop3092"
         offset="0"
         style="stop-color:#000000;stop-opacity:1" />
      <stop
         id="stop3094"
         offset="1"
         style="stop-color:#211821;stop-opacity:1" />
    </linearGradient>
    <linearGradient
       inkscape:collect="always"
       id="linearGradient3083">
      <stop
         style="stop-color:#2b8b06;stop-opacity:1"
         offset="0"
         id="stop3086" />
      <stop
         style="stop-color:#57ad04;stop-opacity:1"
         offset="1"
         id="stop3088" />
    </linearGradient>
    <inkscape:perspective
       sodipodi:type="inkscape:persp3d"
       inkscape:vp_x="0 : 48 : 1"
       inkscape:vp_y="0 : 1000 : 0"
       inkscape:vp_z="96 : 48 : 1"
       inkscape:persp3d-origin="48 : 32 : 1"
       id="perspective3054" />
    <linearGradient
       id="linearGradient4357"
       inkscape:collect="always">
      <stop
         id="stop4359"
         offset="0"
         style="stop-color:#ded3d6;stop-opacity:1" />
      <stop
         id="stop4361"
         offset="1"
         style="stop-color:#f7ebef;stop-opacity:1" />
    </linearGradient>
    <linearGradient
       inkscape:collect="always"
       id="linearGradient3558">
      <stop
         style="stop-color:#ded3d6;stop-opacity:1"
         offset="0"
         id="stop3560" />
      <stop
         style="stop-color:#efebef;stop-opacity:1"
         offset="1"
         id="stop3562" />
    </linearGradient>
    <linearGradient
       id="linearGradient3076"
       inkscape:collect="always">
      <stop
         id="stop3078"
         offset="0"
         style="stop-color:#ffe7f7;stop-opacity:1" />
      <stop
         id="stop3080"
         offset="1"
         style="stop-color:#ffc3ef;stop-opacity:1" />
    </linearGradient>
    <linearGradient
       id="linearGradient3070"
       inkscape:collect="always">
      <stop
         id="stop3072"
         offset="0"
         style="stop-color:#943410;stop-opacity:1" />
      <stop
         id="stop3074"
         offset="1"
         style="stop-color:#dc7952;stop-opacity:1" />
    </linearGradient>
    <linearGradient
       inkscape:collect="always"
       id="linearGradient3059">
      <stop
         style="stop-color:#a53810;stop-opacity:1"
         offset="0"
         id="stop3061" />
      <stop
         style="stop-color:#e75911;stop-opacity:1"
         offset="1"
         id="stop3064" />
    </linearGradient>
    <linearGradient
       inkscape:collect="always"
       id="linearGradient3048">
      <stop
         style="stop-color:#c16d16;stop-opacity:1"
         offset="0"
         id="stop3050" />
      <stop
         style="stop-color:#ff8e31;stop-opacity:1"
         offset="1"
         id="stop3052" />
    </linearGradient>
    <linearGradient
       inkscape:collect="always"
       id="linearGradient3119">
      <stop
         style="stop-color:#92948f;stop-opacity:0"
         offset="0"
         id="stop3121" />
      <stop
         id="stop3123"
         offset="0.4283945"
         style="stop-color:#9b9e98;stop-opacity:1" />
      <stop
         style="stop-color:#939690;stop-opacity:0"
         offset="1"
         id="stop3125" />
    </linearGradient>
    <linearGradient
       id="linearGradient3073"
       inkscape:collect="always">
      <stop
         id="stop3075"
         offset="0"
         style="stop-color:#ffffff;stop-opacity:0" />
      <stop
         style="stop-color:#ffffff;stop-opacity:1"
         offset="0.45872402"
         id="stop3085" />
      <stop
         id="stop3083"
         offset="1"
         style="stop-color:#ffffff;stop-opacity:0" />
    </linearGradient>
    <linearGradient
       inkscape:collect="always"
       id="linearGradient3047">
      <stop
         style="stop-color:#000000;stop-opacity:1"
         offset="0"
         id="stop3049" />
      <stop
         id="stop3055"
         offset="0.06123874"
         style="stop-color:#1a1a1a;stop-opacity:1" />
      <stop
         style="stop-color:#333333;stop-opacity:1"
         offset="0.16480456"
         id="stop3057" />
      <stop
         id="stop3059"
         offset="0.55385184"
         style="stop-color:#4d4d4d;stop-opacity:1" />
      <stop
         style="stop-color:#999999;stop-opacity:1"
         offset="1"
         id="stop3051" />
    </linearGradient>
    <linearGradient
       id="linearGradient3041"
       inkscape:collect="always">
      <stop
         id="stop3043"
         offset="0"
         style="stop-color:#1a1a1a;stop-opacity:1" />
      <stop
         id="stop3045"
         offset="1"
         style="stop-color:#808080;stop-opacity:1" />
    </linearGradient>
    <linearGradient
       inkscape:collect="always"
       id="linearGradient3029">
      <stop
         style="stop-color:#333333;stop-opacity:1"
         offset="0"
         id="stop3031" />
      <stop
         style="stop-color:#e0e0dd;stop-opacity:0;"
         offset="1"
         id="stop3033" />
    </linearGradient>
    <linearGradient
       inkscape:collect="always"
       xlink:href="#linearGradient3029"
       id="linearGradient3035"
       x1="35.355339"
       y1="1030.3622"
       x2="35.355339"
       y2="975.33282"
       gradientUnits="userSpaceOnUse"
       gradientTransform="matrix(1.1638085,0,0,1.1638085,-7.862809,-164.23642)" />
    <linearGradient
       inkscape:collect="always"
       xlink:href="#linearGradient3041"
       id="linearGradient3039"
       gradientUnits="userSpaceOnUse"
       x1="35.355339"
       y1="1030.3622"
       x2="35.355339"
       y2="975.33282"
       gradientTransform="matrix(1.1218695,0,0,1.1218695,-5.8497348,-122.18782)" />
    <linearGradient
       inkscape:collect="always"
       xlink:href="#linearGradient3047"
       id="linearGradient3053"
       x1="40"
       y1="1043.4336"
       x2="39.285713"
       y2="972.33325"
       gradientUnits="userSpaceOnUse" />
    <linearGradient
       inkscape:collect="always"
       xlink:href="#linearGradient3073"
       id="linearGradient3113"
       gradientUnits="userSpaceOnUse"
       gradientTransform="translate(0,-956.36218)"
       x1="14.869445"
       y1="978.90387"
       x2="24.52651"
       y2="969.24683" />
    <linearGradient
       inkscape:collect="always"
       xlink:href="#linearGradient3073"
       id="linearGradient3115"
       gradientUnits="userSpaceOnUse"
       gradientTransform="matrix(-1,0,0,1,96,-956.36218)"
       x1="15.152279"
       y1="978.62103"
       x2="26.263966"
       y2="967.50934" />
    <linearGradient
       inkscape:collect="always"
       xlink:href="#linearGradient3119"
       id="linearGradient3117"
       gradientUnits="userSpaceOnUse"
       gradientTransform="translate(0,-956.36218)"
       x1="13.131983"
       y1="980.64136"
       x2="25.549681"
       y2="967.86646" />
    <linearGradient
       inkscape:collect="always"
       xlink:href="#linearGradient3119"
       id="linearGradient3129"
       gradientUnits="userSpaceOnUse"
       gradientTransform="matrix(-1,0,0,1,96,0)"
       x1="13.131983"
       y1="980.64136"
       x2="25.549681"
       y2="967.86646" />
    <linearGradient
       inkscape:collect="always"
       xlink:href="#linearGradient3048"
       id="linearGradient3054"
       x1="49.267925"
       y1="996.57349"
       x2="49.267925"
       y2="1045.8627"
       gradientUnits="userSpaceOnUse" />
    <linearGradient
       inkscape:collect="always"
       xlink:href="#linearGradient3048"
       id="linearGradient3058"
       x1="115.80308"
       y1="985.47241"
       x2="115.80308"
       y2="1033.5543"
       gradientUnits="userSpaceOnUse" />
    <linearGradient
       inkscape:collect="always"
       xlink:href="#linearGradient3076"
       id="linearGradient3055"
       gradientUnits="userSpaceOnUse"
       x1="115.80308"
       y1="985.47241"
       x2="115.80308"
       y2="1025.3639"
       gradientTransform="matrix(1.4144782,0,0,1.4144782,-119.78686,-419.05496)" />
    <linearGradient
       inkscape:collect="always"
       xlink:href="#linearGradient3059"
       id="linearGradient3066"
       x1="22.54203"
       y1="1043.3966"
       x2="22.54203"
       y2="964.45898"
       gradientUnits="userSpaceOnUse" />
    <linearGradient
       inkscape:collect="always"
       xlink:href="#linearGradient3070"
       id="linearGradient3068"
       x1="53.796227"
       y1="1046.0226"
       x2="53.796227"
       y2="962.97437"
       gradientUnits="userSpaceOnUse" />
    <linearGradient
       inkscape:collect="always"
       xlink:href="#linearGradient3076"
       id="linearGradient3086"
       gradientUnits="userSpaceOnUse"
       gradientTransform="matrix(1.4144782,0,0,1.4144782,-119.78686,-417.12598)"
       x1="115.80308"
       y1="985.47241"
       x2="115.80308"
       y2="1025.3639" />
    <linearGradient
       inkscape:collect="always"
       xlink:href="#linearGradient3076"
       id="linearGradient3091"
       gradientUnits="userSpaceOnUse"
       gradientTransform="matrix(1.4144782,0,0,1.4144782,-119.78686,-418.126)"
       x1="115.80308"
       y1="985.47241"
       x2="115.80308"
       y2="1025.3639" />
    <linearGradient
       inkscape:collect="always"
       xlink:href="#linearGradient3076"
       id="linearGradient3093"
       gradientUnits="userSpaceOnUse"
       gradientTransform="matrix(1.4144782,0,0,1.4144782,-119.78686,-1375.4171)"
       x1="115.80308"
       y1="985.47241"
       x2="115.80308"
       y2="1025.3639" />
    <linearGradient
       inkscape:collect="always"
       xlink:href="#linearGradient3558"
       id="linearGradient3564"
       x1="93.242035"
       y1="1027.2615"
       x2="93.242035"
       y2="980.7262"
       gradientUnits="userSpaceOnUse" />
    <linearGradient
       inkscape:collect="always"
       xlink:href="#linearGradient3558"
       id="linearGradient4350"
       gradientUnits="userSpaceOnUse"
       x1="93.242035"
       y1="1027.2615"
       x2="93.242035"
       y2="980.7262" />
    <linearGradient
       inkscape:collect="always"
       xlink:href="#linearGradient4357"
       id="linearGradient4354"
       gradientUnits="userSpaceOnUse"
       x1="93.242035"
       y1="1027.2615"
       x2="93.242035"
       y2="980.7262"
       gradientTransform="translate(-56.571856,0)" />
    <linearGradient
       inkscape:collect="always"
       xlink:href="#linearGradient4357"
       id="linearGradient3067"
       gradientUnits="userSpaceOnUse"
       gradientTransform="translate(106.08939,0)"
       x1="93.242035"
       y1="1027.2615"
       x2="93.242035"
       y2="980.7262" />
    <linearGradient
       inkscape:collect="always"
       xlink:href="#linearGradient3090"
       id="linearGradient3071"
       gradientUnits="userSpaceOnUse"
       x1="22.54203"
       y1="1043.3966"
       x2="22.54203"
       y2="964.45898" />
    <linearGradient
       inkscape:collect="always"
       xlink:href="#linearGradient3083"
       id="linearGradient3074"
       gradientUnits="userSpaceOnUse"
       x1="53.796227"
       y1="1046.2493"
       x2="53.796227"
       y2="962.97437" />
    <radialGradient
       inkscape:collect="always"
       xlink:href="#linearGradient3153"
       id="radialGradient3159"
       cx="54.880909"
       cy="34.52375"
       fx="54.880909"
       fy="34.52375"
       r="22.501422"
       gradientTransform="matrix(1.6150702e-6,-1.2742782,1.2647002,0,4.4956971,76.124529)"
       gradientUnits="userSpaceOnUse" />
    <linearGradient
       inkscape:collect="always"
       xlink:href="#linearGradient3315"
       id="linearGradient4282"
       gradientUnits="userSpaceOnUse"
       x1="-103.53697"
       y1="34.18985"
       x2="-103.53697"
       y2="76.055702" />
    <radialGradient
       inkscape:collect="always"
       xlink:href="#linearGradient3307"
       id="radialGradient4284"
       gradientUnits="userSpaceOnUse"
       gradientTransform="matrix(0.8933484,-0.8933484,0.93715766,0.93715776,-63.178404,-85.969131)"
       cx="-106.66165"
       cy="64.455704"
       fx="-106.66165"
       fy="64.455704"
       r="21.375" />
    <linearGradient
       inkscape:collect="always"
       xlink:href="#linearGradient3325"
       id="linearGradient4289"
       gradientUnits="userSpaceOnUse"
       gradientTransform="matrix(1.0625,0,0,1.0625,332.05186,944.84632)"
       x1="-109.75"
       y1="81"
       x2="-109.75"
       y2="30.747408" />
    <linearGradient
       inkscape:collect="always"
       xlink:href="#linearGradient4330"
       id="linearGradient4336"
       x1="67.5"
       y1="1027.4835"
       x2="67.5"
       y2="980.20618"
       gradientUnits="userSpaceOnUse" />
    <linearGradient
       inkscape:collect="always"
       xlink:href="#linearGradient3104"
       id="linearGradient3102"
       gradientUnits="userSpaceOnUse"
       x1="22.54203"
       y1="1044.2549"
       x2="22.54203"
       y2="964.45898"
       gradientTransform="matrix(0.92682926,0,0,0.92682926,3.5121956,73.489888)" />
    <linearGradient
       inkscape:collect="always"
       xlink:href="#linearGradient3121"
       id="linearGradient3136"
       gradientUnits="userSpaceOnUse"
       gradientTransform="translate(0.95588675,955.84397)"
       x1="66"
       y1="51"
       x2="42"
       y2="32.5" />
    <linearGradient
       inkscape:collect="always"
       xlink:href="#linearGradient3112"
       id="linearGradient3118"
       x1="29.5"
       y1="1028.3849"
       x2="29.5"
       y2="978.69403"
       gradientUnits="userSpaceOnUse"
       gradientTransform="matrix(0.70710678,0.70710678,-0.70710678,0.70710678,833.25018,260.22975)" />
    <linearGradient
       inkscape:collect="always"
       xlink:href="#linearGradient3112"
       id="linearGradient3893"
       x1="41.04163"
       y1="1022.0399"
       x2="41.04163"
       y2="987.39087"
       gradientUnits="userSpaceOnUse" />
    <linearGradient
       inkscape:collect="always"
       xlink:href="#linearGradient3112"
       id="linearGradient3928"
       gradientUnits="userSpaceOnUse"
       x1="41.04163"
       y1="1022.0399"
       x2="41.04163"
       y2="987.39087" />
  </defs>
  <sodipodi:namedview
     id="base"
     pagecolor="#ffffff"
     bordercolor="#666666"
     borderopacity="1.0"
     inkscape:pageopacity="0.0"
     inkscape:pageshadow="2"
     inkscape:zoom="1.0249076"
     inkscape:cx="92.730377"
     inkscape:cy="-79.475172"
     inkscape:document-units="px"
     inkscape:current-layer="layer1"
     showgrid="false"
     inkscape:window-width="1366"
     inkscape:window-height="705"
     inkscape:window-x="0"
     inkscape:window-y="28"
     inkscape:window-maximized="1"
     showguides="true"
     inkscape:guide-bbox="true" />
  <metadata
     id="metadata7">
    <rdf:RDF>
      <cc:Work
         rdf:about="">
        <dc:format>image/svg+xml</dc:format>
        <dc:type
           rdf:resource="http://purl.org/dc/dcmitype/StillImage" />
        <dc:title></dc:title>
      </cc:Work>
    </rdf:RDF>
  </metadata>
  <g
     inkscape:label="Layer 1"
     inkscape:groupmode="layer"
     id="layer1"
     transform="translate(0,-956.36218)">
    <rect
       style="opacity:0.05;fill:#000000;fill-opacity:1;stroke:none"
       id="rect3826"
       width="89"
       height="89"
       x="3.5"
       y="960.86218"
       rx="10.595235"
       ry="10.595235" />
    <g
       id="g3041">
      <rect
         style="opacity:0.05;fill:#000000;fill-opacity:1;stroke:none"
         id="rect3824"
         width="88"
         height="88"
         x="4"
         y="961.36218"
         rx="10.476188"
         ry="10.476188" />
      <rect
         ry="10.357141"
         rx="10.357141"
         y="961.86218"
         x="4.5"
         height="87"
         width="87"
         id="rect3822"
         style="opacity:0.05;fill:#000000;fill-opacity:1;stroke:none" />
      <rect
         style="opacity:0.1;fill:#000000;fill-opacity:1;stroke:none"
         id="rect3820"
         width="86"
         height="86"
         x="5"
         y="962.36218"
         rx="10.238094"
         ry="10.238094" />
      <rect
         ry="10.119047"
         rx="10.119047"
         y="962.86218"
         x="5.5"
         height="85"
         width="85"
         id="rect3818"
         style="opacity:0.1;fill:#000000;fill-opacity:1;stroke:none" />
      <rect
         style="opacity:0.3;fill:#000000;fill-opacity:1;stroke:none"
         id="rect3131"
         width="84"
         height="84"
         x="6"
         y="963.36218"
         rx="10"
         ry="10" />
    </g>
    <rect
       ry="10"
       rx="10"
       y="962.36218"
       x="6"
       height="84"
       width="84"
       id="rect3036"
       style="fill:url(#linearGradient3074);fill-opacity:1;stroke:none" />
    <g
       id="g3913"
       transform="matrix(1.0322581,0,0,1.0322581,-1.5483887,-31.558637)">
      <path
         style="opacity:0.05;fill:#000000;fill-opacity:1;stroke:none"
         d="m 30.882878,995.48968 c -3.547523,0 -7.116206,1.33217 -9.822874,4.03877 -5.413339,5.41335 -5.413339,14.23255 0,19.64565 5.413338,5.4135 14.232408,5.4135 19.645747,0 1.212363,-1.2123 2.122965,-2.6144 2.792289,-4.0886 l 3.789536,0 c 1.239612,0 2.243803,-1.0042 2.243803,-2.2437 l 0,-0.2993 c 0,-0.4856 0.451354,-0.8477 0.847659,-0.8477 l 1.645456,0 c 0.394006,0 0.867027,0.3137 0.860126,0.8362 -0.0069,0.5222 0.39803,0.8591 0.911239,0.8591 l 1.358381,0 c 0.516245,0 0.876482,-0.3572 0.909101,-0.8476 0.03261,-0.4904 0.350801,-0.8477 0.847659,-0.8477 l 1.645456,0 c 0.532944,0 0.847659,0.4509 0.847659,0.8477 0,0.397 0.52973,0.8476 1.047109,0.8476 l 1.146832,0 c 0.61424,0.015 1.047108,-0.3972 1.047108,-0.8476 0,-0.4503 0.389514,-0.8477 0.847659,-0.8477 l 1.595594,0 c 0.473337,0 0.882917,0.3155 0.882917,0.8362 0,0.5204 0.415111,0.8591 1.011851,0.8591 l 1.270236,0 c 0.600341,0 0.93831,-0.3594 0.93831,-0.8476 0,-0.488 0.374908,-0.8477 0.833055,-0.8477 l 1.645456,0 c 0.458145,0 0.761074,0.2362 0.9212,0.839 0.160124,0.6029 0.89635,0.8563 1.571914,0.8563 2.679502,0 4.836644,-2.157 4.836644,-4.8366 0,-2.6794 -2.157142,-4.8366 -4.836644,-4.8366 l -30.615453,0 c -0.671968,-1.5127 -1.601595,-2.9479 -2.842152,-4.18846 -2.706669,-2.7066 -6.27535,-4.03877 -9.822873,-4.03877 z m -6.631687,9.77302 c 1.043201,0 2.096078,0.4007 2.892014,1.1967 1.591872,1.5917 1.591872,4.1921 0,5.784 -1.591873,1.5918 -4.192154,1.5918 -5.784027,0 -1.591872,-1.5919 -1.591872,-4.1923 0,-5.784 0.795936,-0.796 1.848813,-1.1967 2.892013,-1.1967 z"
         id="path3909"
         inkscape:connector-curvature="0"
         sodipodi:nodetypes="sssscssccszcszcczsczsszcczsszcsscssssssss" />
      <path
         sodipodi:nodetypes="sssscssccszcszcczsczsszcczsszcsscssssssss"
         inkscape:connector-curvature="0"
         id="path3911"
         d="m 30.882878,994.48964 c -3.547523,0 -7.116206,1.33217 -9.822874,4.03877 -5.413339,5.41339 -5.413339,14.23259 0,19.64569 5.413338,5.4135 14.232408,5.4135 19.645747,0 1.212363,-1.2123 2.122965,-2.6144 2.792289,-4.0886 l 3.789536,0 c 1.239612,0 2.243803,-1.0042 2.243803,-2.2437 l 0,-0.2993 c 0,-0.4856 0.451354,-0.8477 0.847659,-0.8477 l 1.645456,0 c 0.394006,0 0.867027,0.3137 0.860126,0.8362 -0.0069,0.5222 0.39803,0.8591 0.911239,0.8591 l 1.358381,0 c 0.516245,0 0.876482,-0.3572 0.909101,-0.8476 0.03261,-0.4904 0.350801,-0.8477 0.847659,-0.8477 l 1.645456,0 c 0.532944,0 0.847659,0.4509 0.847659,0.8477 0,0.397 0.52973,0.8476 1.047109,0.8476 l 1.146832,0 c 0.61424,0.015 1.047108,-0.3972 1.047108,-0.8476 0,-0.4503 0.389514,-0.8477 0.847659,-0.8477 l 1.595594,0 c 0.473337,0 0.882917,0.3155 0.882917,0.8362 0,0.5204 0.415111,0.8591 1.011851,0.8591 l 1.270236,0 c 0.600341,0 0.93831,-0.3594 0.93831,-0.8476 0,-0.488 0.374908,-0.8477 0.833055,-0.8477 l 1.645456,0 c 0.458145,0 0.761074,0.2362 0.9212,0.839 0.160124,0.6029 0.89635,0.8563 1.571914,0.8563 2.679502,0 4.836644,-2.157 4.836644,-4.8366 0,-2.6794 -2.157142,-4.8366 -4.836644,-4.8366 l -30.615453,0 c -0.671968,-1.5127 -1.601595,-2.94795 -2.842152,-4.18851 -2.706669,-2.7066 -6.27535,-4.03877 -9.822873,-4.03877 z m -6.631687,9.77306 c 1.043201,0 2.096078,0.4007 2.892014,1.1967 1.591872,1.5917 1.591872,4.1921 0,5.784 -1.591873,1.5918 -4.192154,1.5918 -5.784027,0 -1.591872,-1.5919 -1.591872,-4.1923 0,-5.784 0.795936,-0.796 1.848813,-1.1967 2.892013,-1.1967 z"
         style="opacity:0.05;fill:#000000;fill-opacity:1;stroke:none" />
      <path
         sodipodi:nodetypes="sssscssccszcszcczsczsszcczsszcsscssssssss"
         inkscape:connector-curvature="0"
         id="path3907"
         d="m 30.882878,993.48968 c -3.547523,0 -7.116206,1.33217 -9.822874,4.03877 -5.413339,5.41335 -5.413339,14.23255 0,19.64565 5.413338,5.4135 14.232408,5.4135 19.645747,0 1.212363,-1.2123 2.122965,-2.6144 2.792289,-4.0886 l 3.789536,0 c 1.239612,0 2.243803,-1.0042 2.243803,-2.2437 l 0,-0.2993 c 0,-0.4856 0.451354,-0.8477 0.847659,-0.8477 l 1.645456,0 c 0.394006,0 0.867027,0.3137 0.860126,0.8362 -0.0069,0.5222 0.39803,0.8591 0.911239,0.8591 l 1.358381,0 c 0.516245,0 0.876482,-0.3572 0.909101,-0.8476 0.03261,-0.4904 0.350801,-0.8477 0.847659,-0.8477 l 1.645456,0 c 0.532944,0 0.847659,0.4509 0.847659,0.8477 0,0.397 0.52973,0.8476 1.047109,0.8476 l 1.146832,0 c 0.61424,0.015 1.047108,-0.3972 1.047108,-0.8476 0,-0.4503 0.389514,-0.8477 0.847659,-0.8477 l 1.595594,0 c 0.473337,0 0.882917,0.3155 0.882917,0.8362 0,0.5204 0.415111,0.8591 1.011851,0.8591 l 1.270236,0 c 0.600341,0 0.93831,-0.3594 0.93831,-0.8476 0,-0.488 0.374908,-0.8477 0.833055,-0.8477 l 1.645456,0 c 0.458145,0 0.761074,0.2362 0.9212,0.839 0.160124,0.6029 0.89635,0.8563 1.571914,0.8563 2.679502,0 4.836644,-2.157 4.836644,-4.8366 0,-2.6794 -2.157142,-4.8366 -4.836644,-4.8366 l -30.615453,0 c -0.671968,-1.5127 -1.601595,-2.94789 -2.842152,-4.18846 -2.706669,-2.7066 -6.27535,-4.03877 -9.822873,-4.03877 z m -6.631687,9.77302 c 1.043201,0 2.096078,0.4007 2.892014,1.1967 1.591872,1.5917 1.591872,4.1921 0,5.784 -1.591873,1.5918 -4.192154,1.5918 -5.784027,0 -1.591872,-1.5919 -1.591872,-4.1923 0,-5.784 0.795936,-0.796 1.848813,-1.1967 2.892013,-1.1967 z"
         style="opacity:0.05;fill:#000000;fill-opacity:1;stroke:none" />
      <path
         style="opacity:0.05;fill:#000000;fill-opacity:1;stroke:none"
         d="m 30.882878,992.48992 c -3.547523,0 -7.116206,1.33217 -9.822874,4.03877 -5.413339,5.41331 -5.413339,14.23251 0,19.64561 5.413338,5.4135 14.232408,5.4135 19.645747,0 1.212363,-1.2123 2.122965,-2.6144 2.792289,-4.0886 l 3.789536,0 c 1.239612,0 2.243803,-1.0042 2.243803,-2.2437 l 0,-0.2993 c 0,-0.4856 0.451354,-0.8477 0.847659,-0.8477 l 1.645456,0 c 0.394006,0 0.867027,0.3137 0.860126,0.8362 -0.0069,0.5222 0.39803,0.8591 0.911239,0.8591 l 1.358381,0 c 0.516245,0 0.876482,-0.3572 0.909101,-0.8476 0.03261,-0.4904 0.350801,-0.8477 0.847659,-0.8477 l 1.645456,0 c 0.532944,0 0.847659,0.4509 0.847659,0.8477 0,0.397 0.52973,0.8476 1.047109,0.8476 l 1.146832,0 c 0.61424,0.015 1.047108,-0.3972 1.047108,-0.8476 0,-0.4503 0.389514,-0.8477 0.847659,-0.8477 l 1.595594,0 c 0.473337,0 0.882917,0.3155 0.882917,0.8362 0,0.5204 0.415111,0.8591 1.011851,0.8591 l 1.270236,0 c 0.600341,0 0.93831,-0.3594 0.93831,-0.8476 0,-0.488 0.374908,-0.8477 0.833055,-0.8477 l 1.645456,0 c 0.458145,0 0.761074,0.2362 0.9212,0.839 0.160124,0.6029 0.89635,0.8563 1.571914,0.8563 2.679502,0 4.836644,-2.157 4.836644,-4.8366 0,-2.6794 -2.157142,-4.8366 -4.836644,-4.8366 l -30.615453,0 c -0.671968,-1.51271 -1.601595,-2.94784 -2.842152,-4.18841 -2.706669,-2.7066 -6.27535,-4.03877 -9.822873,-4.03877 z m -6.631687,9.77298 c 1.043201,0 2.096078,0.4007 2.892014,1.1967 1.591872,1.5917 1.591872,4.1921 0,5.784 -1.591873,1.5918 -4.192154,1.5918 -5.784027,0 -1.591872,-1.5919 -1.591872,-4.1923 0,-5.784 0.795936,-0.796 1.848813,-1.1967 2.892013,-1.1967 z"
         id="path3895"
         inkscape:connector-curvature="0"
         sodipodi:nodetypes="sssscssccszcszcczsczsszcczsszcsscssssssss" />
      <path
         sodipodi:nodetypes="sssscssccszcszcczsczsszcczsszcsscssssssss"
         inkscape:connector-curvature="0"
         id="path3905"
         d="m 30.882878,991.48968 c -3.547523,0 -7.116206,1.33217 -9.822874,4.03877 -5.413339,5.41335 -5.413339,14.23255 0,19.64565 5.413338,5.4135 14.232408,5.4135 19.645747,0 1.212363,-1.2123 2.122965,-2.6144 2.792289,-4.0886 l 3.789536,0 c 1.239612,0 2.243803,-1.0042 2.243803,-2.2437 l 0,-0.2993 c 0,-0.4856 0.451354,-0.8477 0.847659,-0.8477 l 1.645456,0 c 0.394006,0 0.867027,0.3137 0.860126,0.8362 -0.0069,0.5222 0.39803,0.8591 0.911239,0.8591 l 1.358381,0 c 0.516245,0 0.876482,-0.3572 0.909101,-0.8476 0.03261,-0.4904 0.350801,-0.8477 0.847659,-0.8477 l 1.645456,0 c 0.532944,0 0.847659,0.4509 0.847659,0.8477 0,0.397 0.52973,0.8476 1.047109,0.8476 l 1.146832,0 c 0.61424,0.015 1.047108,-0.3972 1.047108,-0.8476 0,-0.4503 0.389514,-0.8477 0.847659,-0.8477 l 1.595594,0 c 0.473337,0 0.882917,0.3155 0.882917,0.8362 0,0.5204 0.415111,0.8591 1.011851,0.8591 l 1.270236,0 c 0.600341,0 0.93831,-0.3594 0.93831,-0.8476 0,-0.488 0.374908,-0.8477 0.833055,-0.8477 l 1.645456,0 c 0.458145,0 0.761074,0.2362 0.9212,0.839 0.160124,0.6029 0.89635,0.8563 1.571914,0.8563 2.679502,0 4.836644,-2.157 4.836644,-4.8366 0,-2.6794 -2.157142,-4.83665 -4.836644,-4.83665 l -30.615453,0 c -0.671968,-1.51271 -1.601595,-2.94784 -2.842152,-4.18841 -2.706669,-2.7066 -6.27535,-4.03877 -9.822873,-4.03877 z m -6.631687,9.77302 c 1.043201,0 2.096078,0.4007 2.892014,1.1967 1.591872,1.5917 1.591872,4.1921 0,5.784 -1.591873,1.5918 -4.192154,1.5918 -5.784027,0 -1.591872,-1.5919 -1.591872,-4.1923 0,-5.784 0.795936,-0.796 1.848813,-1.1967 2.892013,-1.1967 z"
         style="opacity:0.1;fill:#000000;fill-opacity:1;stroke:none" />
    </g>
    <g
       id="g3920"
       transform="matrix(1.0322581,0,0,1.0322581,-1.5483887,-32.397394)">
      <path
         sodipodi:nodetypes="sssscssccszcszcczsczsszcczsszcsscssssssss"
         inkscape:connector-curvature="0"
         id="path3786"
         d="m 30.882878,990.48992 c -3.547523,0 -7.116206,1.33217 -9.822874,4.03877 -5.413339,5.41336 -5.413339,14.23251 0,19.64561 5.413338,5.4135 14.232408,5.4135 19.645747,0 1.212363,-1.2123 2.122965,-2.6144 2.792289,-4.0886 l 3.789536,0 c 1.239612,0 2.243803,-1.0042 2.243803,-2.2437 l 0,-0.2993 c 0,-0.4856 0.451354,-0.8477 0.847659,-0.8477 l 1.645456,0 c 0.394006,0 0.867027,0.3137 0.860126,0.8362 -0.0069,0.5222 0.39803,0.8591 0.911239,0.8591 l 1.358381,0 c 0.516245,0 0.876482,-0.3572 0.909101,-0.8476 0.03261,-0.4904 0.350801,-0.8477 0.847659,-0.8477 l 1.645456,0 c 0.532944,0 0.847659,0.4509 0.847659,0.8477 0,0.397 0.52973,0.8476 1.047109,0.8476 l 1.146832,0 c 0.61424,0.015 1.047108,-0.3972 1.047108,-0.8476 0,-0.4503 0.389514,-0.8477 0.847659,-0.8477 l 1.595594,0 c 0.473337,0 0.882917,0.3155 0.882917,0.8362 0,0.5204 0.415111,0.8591 1.011851,0.8591 l 1.270236,0 c 0.600341,0 0.93831,-0.3594 0.93831,-0.8476 0,-0.488 0.374908,-0.8477 0.833055,-0.8477 l 1.645456,0 c 0.458145,0 0.761074,0.2362 0.9212,0.839 0.160124,0.6029 0.89635,0.8563 1.571914,0.8563 2.679502,0 4.836644,-2.157 4.836644,-4.8366 0,-2.6794 -2.157142,-4.83663 -4.836644,-4.83663 l -30.615453,0 c -0.671968,-1.51268 -1.601595,-2.94781 -2.842152,-4.18838 -2.706669,-2.7066 -6.27535,-4.03877 -9.822873,-4.03877 z m -6.631687,9.77298 c 1.043201,0 2.096078,0.4007 2.892014,1.1967 1.591872,1.5917 1.591872,4.1921 0,5.784 -1.591873,1.5918 -4.192154,1.5918 -5.784027,0 -1.591872,-1.5919 -1.591872,-4.1923 0,-5.784 0.795936,-0.796 1.848813,-1.1967 2.892013,-1.1967 z"
         style="fill:url(#linearGradient3928);fill-opacity:1;stroke:none" />
      <path
         id="path3899"
         transform="translate(0,956.36218)"
         d="m 30.875,34.125 c -3.547523,0 -7.105832,1.32465 -9.8125,4.03125 -2.83565,2.835661 -4.166376,6.618131 -4.03125,10.34375 0.120121,-3.390734 1.450566,-6.76306 4.03125,-9.34375 2.706668,-2.7066 6.264977,-4.03125 9.8125,-4.03125 3.547523,0 7.137081,1.32465 9.84375,4.03125 1.240557,1.24057 2.171782,2.67482 2.84375,4.1875 l 30.59375,0 c 2.512033,0 4.565697,1.898987 4.8125,4.34375 C 78.985204,47.524507 79,47.354975 79,47.1875 79,44.5081 76.835752,42.34375 74.15625,42.34375 l -30.59375,0 C 42.890532,40.83107 41.959307,39.39682 40.71875,38.15625 38.012081,35.44965 34.422523,34.125 30.875,34.125 z M 20.21875,48.5 c -0.147825,1.208331 0.201639,2.451623 1.125,3.375 1.591873,1.5918 4.220627,1.5918 5.8125,0 0.923361,-0.923377 1.272825,-2.166669 1.125,-3.375 -0.107025,0.874842 -0.456489,1.706477 -1.125,2.375 -1.591873,1.5918 -4.220627,1.5918 -5.8125,0 -0.668511,-0.668523 -1.017975,-1.500158 -1.125,-2.375 z"
         style="opacity:0.5;fill:#ffffff;fill-opacity:1;stroke:none"
         inkscape:connector-curvature="0" />
    </g>
  </g>
</svg>
