<?xml version="1.0" encoding="UTF-8" standalone="no"?>
<!-- Created with Inkscape (http://www.inkscape.org/) -->

<svg
   xmlns:dc="http://purl.org/dc/elements/1.1/"
   xmlns:cc="http://creativecommons.org/ns#"
   xmlns:rdf="http://www.w3.org/1999/02/22-rdf-syntax-ns#"
   xmlns:svg="http://www.w3.org/2000/svg"
   xmlns="http://www.w3.org/2000/svg"
   xmlns:xlink="http://www.w3.org/1999/xlink"
   xmlns:sodipodi="http://sodipodi.sourceforge.net/DTD/sodipodi-0.dtd"
   xmlns:inkscape="http://www.inkscape.org/namespaces/inkscape"
   width="96"
   height="96"
   id="svg2"
   version="1.1"
   inkscape:version="0.91 r13725"
   sodipodi:docname="preferences-system-network.svg">
  <defs
     id="defs4">
    <linearGradient
       inkscape:collect="always"
       id="linearGradient5260">
      <stop
         style="stop-color:#ffffff;stop-opacity:1;"
         offset="0"
         id="stop5262" />
      <stop
         style="stop-color:#ffffff;stop-opacity:0;"
         offset="1"
         id="stop5264" />
    </linearGradient>
    <linearGradient
       inkscape:collect="always"
       id="linearGradient4254">
      <stop
         style="stop-color:#bec9ec;stop-opacity:1"
         offset="0"
         id="stop4256" />
      <stop
         id="stop4258"
         offset="0.41037315"
         style="stop-color:#69759a;stop-opacity:1" />
      <stop
         style="stop-color:#55576e;stop-opacity:1"
         offset="0.72843254"
         id="stop4262" />
      <stop
         style="stop-color:#23263a;stop-opacity:1"
         offset="1"
         id="stop4260" />
    </linearGradient>
    <linearGradient
       id="linearGradient3116"
       inkscape:collect="always">
      <stop
         id="stop3118"
         offset="0"
         style="stop-color:#1ce2fb;stop-opacity:1" />
      <stop
         style="stop-color:#1dd0f4;stop-opacity:1;"
         offset="0.27033514"
         id="stop3808" />
      <stop
         id="stop3120"
         offset="1"
         style="stop-color:#2d42c0;stop-opacity:1" />
    </linearGradient>
    <linearGradient
       inkscape:collect="always"
       id="linearGradient3280">
      <stop
         style="stop-color:#7aaad6;stop-opacity:1;"
         offset="0"
         id="stop3282" />
      <stop
         style="stop-color:#7aaad6;stop-opacity:0;"
         offset="1"
         id="stop3284" />
    </linearGradient>
    <linearGradient
       inkscape:collect="always"
       id="linearGradient3260">
      <stop
         style="stop-color:#99bde1;stop-opacity:1"
         offset="0"
         id="stop3262" />
      <stop
         style="stop-color:#d7e9f5;stop-opacity:1"
         offset="1"
         id="stop3264" />
    </linearGradient>
    <linearGradient
       inkscape:collect="always"
       id="linearGradient3223">
      <stop
         style="stop-color:#b3d6ec;stop-opacity:1"
         offset="0"
         id="stop3225" />
      <stop
         style="stop-color:#dcecf6;stop-opacity:1"
         offset="1"
         id="stop3227" />
    </linearGradient>
    <linearGradient
       inkscape:collect="always"
       id="linearGradient3215">
      <stop
         style="stop-color:#b3d6ec;stop-opacity:1"
         offset="0"
         id="stop3217" />
      <stop
         style="stop-color:#ffffff;stop-opacity:1"
         offset="1"
         id="stop3219" />
    </linearGradient>
    <inkscape:perspective
       sodipodi:type="inkscape:persp3d"
       inkscape:vp_x="0 : 48 : 1"
       inkscape:vp_y="0 : 1000 : 0"
       inkscape:vp_z="96 : 48 : 1"
       inkscape:persp3d-origin="48 : 32 : 1"
       id="perspective3054" />
    <linearGradient
       id="linearGradient4357"
       inkscape:collect="always">
      <stop
         id="stop4359"
         offset="0"
         style="stop-color:#ded3d6;stop-opacity:1" />
      <stop
         id="stop4361"
         offset="1"
         style="stop-color:#f7ebef;stop-opacity:1" />
    </linearGradient>
    <linearGradient
       inkscape:collect="always"
       id="linearGradient3558">
      <stop
         style="stop-color:#ded3d6;stop-opacity:1"
         offset="0"
         id="stop3560" />
      <stop
         style="stop-color:#efebef;stop-opacity:1"
         offset="1"
         id="stop3562" />
    </linearGradient>
    <linearGradient
       id="linearGradient3076"
       inkscape:collect="always">
      <stop
         id="stop3078"
         offset="0"
         style="stop-color:#ffe7f7;stop-opacity:1" />
      <stop
         id="stop3080"
         offset="1"
         style="stop-color:#ffc3ef;stop-opacity:1" />
    </linearGradient>
    <linearGradient
       inkscape:collect="always"
       id="linearGradient3048">
      <stop
         style="stop-color:#c16d16;stop-opacity:1"
         offset="0"
         id="stop3050" />
      <stop
         style="stop-color:#ff8e31;stop-opacity:1"
         offset="1"
         id="stop3052" />
    </linearGradient>
    <linearGradient
       inkscape:collect="always"
       id="linearGradient3119">
      <stop
         style="stop-color:#92948f;stop-opacity:0"
         offset="0"
         id="stop3121" />
      <stop
         id="stop3123"
         offset="0.4283945"
         style="stop-color:#9b9e98;stop-opacity:1" />
      <stop
         style="stop-color:#939690;stop-opacity:0"
         offset="1"
         id="stop3125" />
    </linearGradient>
    <linearGradient
       id="linearGradient3073"
       inkscape:collect="always">
      <stop
         id="stop3075"
         offset="0"
         style="stop-color:#ffffff;stop-opacity:0" />
      <stop
         style="stop-color:#ffffff;stop-opacity:1"
         offset="0.45872402"
         id="stop3085" />
      <stop
         id="stop3083"
         offset="1"
         style="stop-color:#ffffff;stop-opacity:0" />
    </linearGradient>
    <linearGradient
       inkscape:collect="always"
       id="linearGradient3047">
      <stop
         style="stop-color:#000000;stop-opacity:1"
         offset="0"
         id="stop3049" />
      <stop
         id="stop3055"
         offset="0.06123874"
         style="stop-color:#1a1a1a;stop-opacity:1" />
      <stop
         style="stop-color:#333333;stop-opacity:1"
         offset="0.16480456"
         id="stop3057" />
      <stop
         id="stop3059"
         offset="0.55385184"
         style="stop-color:#4d4d4d;stop-opacity:1" />
      <stop
         style="stop-color:#999999;stop-opacity:1"
         offset="1"
         id="stop3051" />
    </linearGradient>
    <linearGradient
       id="linearGradient3041"
       inkscape:collect="always">
      <stop
         id="stop3043"
         offset="0"
         style="stop-color:#1a1a1a;stop-opacity:1" />
      <stop
         id="stop3045"
         offset="1"
         style="stop-color:#808080;stop-opacity:1" />
    </linearGradient>
    <linearGradient
       inkscape:collect="always"
       id="linearGradient3029">
      <stop
         style="stop-color:#333333;stop-opacity:1"
         offset="0"
         id="stop3031" />
      <stop
         style="stop-color:#e0e0dd;stop-opacity:0;"
         offset="1"
         id="stop3033" />
    </linearGradient>
    <linearGradient
       inkscape:collect="always"
       xlink:href="#linearGradient3029"
       id="linearGradient3035"
       x1="35.355339"
       y1="1030.3622"
       x2="35.355339"
       y2="975.33282"
       gradientUnits="userSpaceOnUse"
       gradientTransform="matrix(1.1638085,0,0,1.1638085,-7.862809,-164.23642)" />
    <linearGradient
       inkscape:collect="always"
       xlink:href="#linearGradient3041"
       id="linearGradient3039"
       gradientUnits="userSpaceOnUse"
       x1="35.355339"
       y1="1030.3622"
       x2="35.355339"
       y2="975.33282"
       gradientTransform="matrix(1.1218695,0,0,1.1218695,-5.8497348,-122.18782)" />
    <linearGradient
       inkscape:collect="always"
       xlink:href="#linearGradient3047"
       id="linearGradient3053"
       x1="40"
       y1="1043.4336"
       x2="39.285713"
       y2="972.33325"
       gradientUnits="userSpaceOnUse" />
    <linearGradient
       inkscape:collect="always"
       xlink:href="#linearGradient3073"
       id="linearGradient3113"
       gradientUnits="userSpaceOnUse"
       gradientTransform="translate(0,-956.36218)"
       x1="14.869445"
       y1="978.90387"
       x2="24.52651"
       y2="969.24683" />
    <linearGradient
       inkscape:collect="always"
       xlink:href="#linearGradient3073"
       id="linearGradient3115"
       gradientUnits="userSpaceOnUse"
       gradientTransform="matrix(-1,0,0,1,96,-956.36218)"
       x1="15.152279"
       y1="978.62103"
       x2="26.263966"
       y2="967.50934" />
    <linearGradient
       inkscape:collect="always"
       xlink:href="#linearGradient3119"
       id="linearGradient3117"
       gradientUnits="userSpaceOnUse"
       gradientTransform="translate(0,-956.36218)"
       x1="13.131983"
       y1="980.64136"
       x2="25.549681"
       y2="967.86646" />
    <linearGradient
       inkscape:collect="always"
       xlink:href="#linearGradient3119"
       id="linearGradient3129"
       gradientUnits="userSpaceOnUse"
       gradientTransform="matrix(-1,0,0,1,96,0)"
       x1="13.131983"
       y1="980.64136"
       x2="25.549681"
       y2="967.86646" />
    <linearGradient
       inkscape:collect="always"
       xlink:href="#linearGradient3048"
       id="linearGradient3054"
       x1="49.267925"
       y1="996.57349"
       x2="49.267925"
       y2="1045.8627"
       gradientUnits="userSpaceOnUse" />
    <linearGradient
       inkscape:collect="always"
       xlink:href="#linearGradient3048"
       id="linearGradient3058"
       x1="115.80308"
       y1="985.47241"
       x2="115.80308"
       y2="1033.5543"
       gradientUnits="userSpaceOnUse" />
    <linearGradient
       inkscape:collect="always"
       xlink:href="#linearGradient3076"
       id="linearGradient3055"
       gradientUnits="userSpaceOnUse"
       x1="115.80308"
       y1="985.47241"
       x2="115.80308"
       y2="1025.3639"
       gradientTransform="matrix(1.4144782,0,0,1.4144782,-119.78686,-419.05496)" />
    <linearGradient
       inkscape:collect="always"
       xlink:href="#linearGradient3076"
       id="linearGradient3086"
       gradientUnits="userSpaceOnUse"
       gradientTransform="matrix(1.4144782,0,0,1.4144782,-119.78686,-417.12598)"
       x1="115.80308"
       y1="985.47241"
       x2="115.80308"
       y2="1025.3639" />
    <linearGradient
       inkscape:collect="always"
       xlink:href="#linearGradient3076"
       id="linearGradient3091"
       gradientUnits="userSpaceOnUse"
       gradientTransform="matrix(1.4144782,0,0,1.4144782,-119.78686,-418.126)"
       x1="115.80308"
       y1="985.47241"
       x2="115.80308"
       y2="1025.3639" />
    <linearGradient
       inkscape:collect="always"
       xlink:href="#linearGradient3076"
       id="linearGradient3093"
       gradientUnits="userSpaceOnUse"
       gradientTransform="matrix(1.4144782,0,0,1.4144782,-119.78686,-1375.4171)"
       x1="115.80308"
       y1="985.47241"
       x2="115.80308"
       y2="1025.3639" />
    <linearGradient
       inkscape:collect="always"
       xlink:href="#linearGradient3558"
       id="linearGradient3564"
       x1="93.242035"
       y1="1027.2615"
       x2="93.242035"
       y2="980.7262"
       gradientUnits="userSpaceOnUse" />
    <linearGradient
       inkscape:collect="always"
       xlink:href="#linearGradient3558"
       id="linearGradient4350"
       gradientUnits="userSpaceOnUse"
       x1="93.242035"
       y1="1027.2615"
       x2="93.242035"
       y2="980.7262" />
    <linearGradient
       inkscape:collect="always"
       xlink:href="#linearGradient4357"
       id="linearGradient3067"
       gradientUnits="userSpaceOnUse"
       gradientTransform="translate(-206.68129,0)"
       x1="93.242035"
       y1="1027.2615"
       x2="93.242035"
       y2="980.7262" />
    <linearGradient
       inkscape:collect="always"
       xlink:href="#linearGradient3215"
       id="linearGradient3221"
       x1="155.04906"
       y1="1027.7283"
       x2="155.04906"
       y2="991.66064"
       gradientUnits="userSpaceOnUse"
       gradientTransform="translate(-101.82338,-7.0710678)" />
    <linearGradient
       inkscape:collect="always"
       xlink:href="#linearGradient3223"
       id="linearGradient3229"
       x1="181.875"
       y1="1030.1122"
       x2="174.5"
       y2="1008.6122"
       gradientUnits="userSpaceOnUse"
       gradientTransform="translate(-101.82338,-7.0710678)" />
    <linearGradient
       inkscape:collect="always"
       xlink:href="#linearGradient3215"
       id="linearGradient3235"
       gradientUnits="userSpaceOnUse"
       gradientTransform="translate(-101.82338,-7.0710678)"
       x1="155.04906"
       y1="1027.7283"
       x2="155.04906"
       y2="991.66064" />
    <linearGradient
       inkscape:collect="always"
       xlink:href="#linearGradient3223"
       id="linearGradient3237"
       gradientUnits="userSpaceOnUse"
       gradientTransform="translate(-101.82338,-7.0710678)"
       x1="181.875"
       y1="1030.1122"
       x2="174.5"
       y2="1008.6122" />
    <linearGradient
       inkscape:collect="always"
       xlink:href="#linearGradient3223"
       id="linearGradient3240"
       gradientUnits="userSpaceOnUse"
       gradientTransform="translate(-112.95681,-11.313709)"
       x1="181.875"
       y1="1030.1122"
       x2="174.5"
       y2="1008.6122" />
    <linearGradient
       inkscape:collect="always"
       xlink:href="#linearGradient3215"
       id="linearGradient3243"
       gradientUnits="userSpaceOnUse"
       gradientTransform="translate(-112.95681,-11.313709)"
       x1="155.04906"
       y1="1027.7283"
       x2="155.04906"
       y2="991.66064" />
    <linearGradient
       inkscape:collect="always"
       xlink:href="#linearGradient3223"
       id="linearGradient3250"
       gradientUnits="userSpaceOnUse"
       gradientTransform="translate(-112.95681,-967.67589)"
       x1="181.875"
       y1="1030.1122"
       x2="174.5"
       y2="1008.6122" />
    <linearGradient
       inkscape:collect="always"
       xlink:href="#linearGradient3260"
       id="linearGradient3266"
       x1="60.75"
       y1="42.125"
       x2="66.255951"
       y2="42.125"
       gradientUnits="userSpaceOnUse"
       gradientTransform="translate(0,956.31756)" />
    <linearGradient
       inkscape:collect="always"
       xlink:href="#linearGradient3215"
       id="linearGradient3274"
       gradientUnits="userSpaceOnUse"
       gradientTransform="translate(-112.95681,-967.67589)"
       x1="155.04906"
       y1="1027.7283"
       x2="155.04906"
       y2="991.66064" />
    <linearGradient
       inkscape:collect="always"
       xlink:href="#linearGradient3215"
       id="linearGradient3277"
       gradientUnits="userSpaceOnUse"
       gradientTransform="translate(-112.95681,-967.67589)"
       x1="155.04906"
       y1="1027.7283"
       x2="155.04906"
       y2="991.66064" />
    <linearGradient
       inkscape:collect="always"
       xlink:href="#linearGradient3280"
       id="linearGradient3286"
       x1="53.25"
       y1="60.75"
       x2="49.625"
       y2="63.25"
       gradientUnits="userSpaceOnUse"
       gradientTransform="translate(0,956.31756)" />
    <linearGradient
       inkscape:collect="always"
       xlink:href="#linearGradient3215"
       id="linearGradient3292"
       gradientUnits="userSpaceOnUse"
       gradientTransform="translate(-112.95681,-967.67589)"
       x1="155.04906"
       y1="1027.7283"
       x2="155.04906"
       y2="991.66064" />
    <linearGradient
       inkscape:collect="always"
       xlink:href="#linearGradient3223"
       id="linearGradient3295"
       gradientUnits="userSpaceOnUse"
       gradientTransform="translate(-112.95681,-11.358329)"
       x1="181.875"
       y1="1030.1122"
       x2="174.5"
       y2="1008.6122" />
    <linearGradient
       inkscape:collect="always"
       xlink:href="#linearGradient3215"
       id="linearGradient3297"
       gradientUnits="userSpaceOnUse"
       gradientTransform="translate(-112.95681,-11.358329)"
       x1="155.04906"
       y1="1027.7283"
       x2="155.04906"
       y2="991.66064" />
    <linearGradient
       inkscape:collect="always"
       xlink:href="#linearGradient3215"
       id="linearGradient3332"
       gradientUnits="userSpaceOnUse"
       gradientTransform="translate(-112.95681,-11.358329)"
       x1="155.04906"
       y1="1027.7283"
       x2="155.04906"
       y2="991.66064" />
    <linearGradient
       inkscape:collect="always"
       xlink:href="#linearGradient3280"
       id="linearGradient3334"
       gradientUnits="userSpaceOnUse"
       gradientTransform="translate(0,956.31756)"
       x1="53.25"
       y1="60.75"
       x2="49.625"
       y2="63.25" />
    <linearGradient
       inkscape:collect="always"
       xlink:href="#linearGradient3223"
       id="linearGradient3336"
       gradientUnits="userSpaceOnUse"
       gradientTransform="translate(-112.95681,-11.358329)"
       x1="181.875"
       y1="1030.1122"
       x2="174.5"
       y2="1008.6122" />
    <linearGradient
       inkscape:collect="always"
       xlink:href="#linearGradient3260"
       id="linearGradient3338"
       gradientUnits="userSpaceOnUse"
       gradientTransform="translate(0,956.31756)"
       x1="60.75"
       y1="42.125"
       x2="66.255951"
       y2="42.125" />
    <linearGradient
       inkscape:collect="always"
       xlink:href="#linearGradient3260"
       id="linearGradient3341"
       gradientUnits="userSpaceOnUse"
       gradientTransform="translate(0,956.81754)"
       x1="60.75"
       y1="42.125"
       x2="66.255951"
       y2="42.125" />
    <linearGradient
       inkscape:collect="always"
       xlink:href="#linearGradient3223"
       id="linearGradient3344"
       gradientUnits="userSpaceOnUse"
       gradientTransform="translate(-112.95681,-10.858349)"
       x1="181.875"
       y1="1030.1122"
       x2="174.5"
       y2="1008.6122" />
    <linearGradient
       inkscape:collect="always"
       xlink:href="#linearGradient3280"
       id="linearGradient3347"
       gradientUnits="userSpaceOnUse"
       gradientTransform="translate(0,956.81754)"
       x1="53.25"
       y1="60.75"
       x2="49.625"
       y2="63.25" />
    <linearGradient
       inkscape:collect="always"
       xlink:href="#linearGradient3215"
       id="linearGradient3350"
       gradientUnits="userSpaceOnUse"
       gradientTransform="translate(-112.95681,-10.858349)"
       x1="155.04906"
       y1="1027.7283"
       x2="155.04906"
       y2="991.66064" />
    <linearGradient
       inkscape:collect="always"
       xlink:href="#linearGradient3215"
       id="linearGradient3360"
       gradientUnits="userSpaceOnUse"
       gradientTransform="translate(-112.95681,-967.22053)"
       x1="155.04906"
       y1="1027.7283"
       x2="155.04906"
       y2="991.66064" />
    <radialGradient
       inkscape:collect="always"
       xlink:href="#linearGradient4254"
       id="radialGradient3806"
       cx="-17.854998"
       cy="-980.47449"
       fx="-17.854998"
       fy="-980.47449"
       r="42"
       gradientUnits="userSpaceOnUse"
       gradientTransform="matrix(-0.39041247,-1.4570393,1.3980515,-0.37460677,1306.9321,-1377.4574)" />
    <radialGradient
       inkscape:collect="always"
       xlink:href="#linearGradient3116"
       id="radialGradient4632"
       gradientUnits="userSpaceOnUse"
       gradientTransform="matrix(-2.8336395,1.1756673e-7,-7.4791048e-8,-1.8026432,-248.99507,-2740.4774)"
       cx="-25.98514"
       cy="-980.96381"
       fx="-25.98514"
       fy="-980.96381"
       r="42" />
    <filter
       inkscape:collect="always"
       style="color-interpolation-filters:sRGB"
       id="filter4890"
       x="-0.28114557"
       width="1.5622911"
       y="-0.16839906"
       height="1.3367981">
      <feGaussianBlur
         inkscape:collect="always"
         stdDeviation="4.1615793"
         id="feGaussianBlur4892" />
    </filter>
    <filter
       inkscape:collect="always"
       style="color-interpolation-filters:sRGB"
       id="filter4894"
       x="-0.16140651"
       width="1.322813"
       y="-0.12807008"
       height="1.2561402">
      <feGaussianBlur
         inkscape:collect="always"
         stdDeviation="4.1615793"
         id="feGaussianBlur4896" />
    </filter>
    <filter
       inkscape:collect="always"
       style="color-interpolation-filters:sRGB"
       id="filter4898"
       x="-0.15093123"
       width="1.3018625"
       y="-0.31816939"
       height="1.6363388">
      <feGaussianBlur
         inkscape:collect="always"
         stdDeviation="4.1615793"
         id="feGaussianBlur4900" />
    </filter>
    <filter
       inkscape:collect="always"
       style="color-interpolation-filters:sRGB"
       id="filter4902"
       x="-0.21104199"
       width="1.422084"
       y="-0.15421716"
       height="1.3084343">
      <feGaussianBlur
         inkscape:collect="always"
         stdDeviation="4.1615793"
         id="feGaussianBlur4904" />
    </filter>
    <filter
       inkscape:collect="always"
       style="color-interpolation-filters:sRGB"
       id="filter4906"
       x="-0.12462096"
       width="1.2492419"
       y="-0.36866629"
       height="1.7373326">
      <feGaussianBlur
         inkscape:collect="always"
         stdDeviation="4.1615793"
         id="feGaussianBlur4908" />
    </filter>
    <filter
       inkscape:collect="always"
       style="color-interpolation-filters:sRGB"
       id="filter4910"
       x="-0.16554354"
       width="1.3310871"
       y="-0.11937219"
       height="1.2387444">
      <feGaussianBlur
         inkscape:collect="always"
         stdDeviation="4.1615793"
         id="feGaussianBlur4912" />
    </filter>
    <filter
       inkscape:collect="always"
       style="color-interpolation-filters:sRGB"
       id="filter5096"
       x="-0.10801552"
       width="1.216031"
       y="-0.11543055"
       height="1.2308611">
      <feGaussianBlur
         inkscape:collect="always"
         stdDeviation="1.547582"
         id="feGaussianBlur5098" />
    </filter>
    <filter
       inkscape:collect="always"
       style="color-interpolation-filters:sRGB"
       id="filter5249"
       x="-0.11024735"
       width="1.2204947"
       y="-0.13164557"
       height="1.2632911">
      <feGaussianBlur
         inkscape:collect="always"
         stdDeviation="3.25"
         id="feGaussianBlur5251" />
    </filter>
    <clipPath
       clipPathUnits="userSpaceOnUse"
       id="clipPath5256">
      <circle
         style="opacity:1;fill:#aca1fe;fill-opacity:1;stroke:none"
         id="circle5258"
         cx="48"
         cy="1004.3622"
         r="43" />
    </clipPath>
    <linearGradient
       inkscape:collect="always"
       xlink:href="#linearGradient5260"
       id="linearGradient5266"
       x1="50.5"
       y1="1023.3622"
       x2="71.5"
       y2="941.61218"
       gradientUnits="userSpaceOnUse" />
  </defs>
  <sodipodi:namedview
     id="base"
     pagecolor="#ffffff"
     bordercolor="#666666"
     borderopacity="1.0"
     inkscape:pageopacity="0.0"
     inkscape:pageshadow="2"
     inkscape:zoom="4.0000001"
     inkscape:cx="55.982663"
     inkscape:cy="41.359949"
     inkscape:document-units="px"
     inkscape:current-layer="layer1"
     showgrid="false"
     inkscape:window-width="1360"
     inkscape:window-height="713"
     inkscape:window-x="0"
     inkscape:window-y="28"
     inkscape:window-maximized="1"
     showguides="true"
     inkscape:guide-bbox="true" />
  <metadata
     id="metadata7">
    <rdf:RDF>
      <cc:Work
         rdf:about="">
        <dc:format>image/svg+xml</dc:format>
        <dc:type
           rdf:resource="http://purl.org/dc/dcmitype/StillImage" />
        <dc:title />
      </cc:Work>
    </rdf:RDF>
  </metadata>
  <g
     inkscape:label="Layer 1"
     inkscape:groupmode="layer"
     id="layer1"
     transform="translate(0,-956.36218)">
    <g
       id="g4292">
      <g
         id="g4284">
        <rect
           style="opacity:0.05;fill:#000000;fill-opacity:1;stroke:none"
           id="rect3826"
           width="89"
           height="89"
           x="3.5"
           y="960.86218"
           rx="44.5"
           ry="44.5" />
        <rect
           ry="44"
           rx="44"
           y="961.36218"
           x="4"
           height="88"
           width="88"
           id="rect3824"
           style="opacity:0.05;fill:#000000;fill-opacity:1;stroke:none" />
        <rect
           style="opacity:0.05;fill:#000000;fill-opacity:1;stroke:none"
           id="rect3822"
           width="87"
           height="87"
           x="4.5"
           y="961.86218"
           rx="43.5"
           ry="43.5" />
        <rect
           ry="43"
           rx="43"
           y="962.36218"
           x="5"
           height="86"
           width="86"
           id="rect3820"
           style="opacity:0.1;fill:#000000;fill-opacity:1;stroke:none" />
        <rect
           style="opacity:0.1;fill:#000000;fill-opacity:1;stroke:none"
           id="rect3818"
           width="85"
           height="85"
           x="5.5"
           y="962.86218"
           rx="42.5"
           ry="42.5" />
        <rect
           ry="42"
           rx="42"
           y="963.36218"
           x="6"
           height="84"
           width="84"
           id="rect3131"
           style="opacity:0.3;fill:#000000;fill-opacity:1;stroke:none" />
      </g>
      <rect
         transform="scale(-1,-1)"
         style="fill:url(#radialGradient3806);fill-opacity:1;stroke:none"
         id="rect3036"
         width="84"
         height="84"
         x="-90"
         y="-1046.3622"
         rx="41.819805"
         ry="41.819805" />
    </g>
    <path
       style="opacity:1;fill:#aca1fe;fill-opacity:1;stroke:none;filter:url(#filter5249)"
       d="M 69.984375 24.847656 A 2 2 0 0 0 67.984375 26.847656 A 2 2 0 0 0 69.984375 28.847656 A 2 2 0 0 0 71.984375 26.847656 A 2 2 0 0 0 69.984375 24.847656 z M 70.984375 29.097656 A 2 2 0 0 0 68.984375 31.097656 A 2 2 0 0 0 70.984375 33.097656 A 2 2 0 0 0 72.984375 31.097656 A 2 2 0 0 0 70.984375 29.097656 z M 21.615234 29.96875 A 3 3 0 0 0 18.615234 32.96875 A 3 3 0 0 0 21.615234 35.96875 A 3 3 0 0 0 24.615234 32.96875 A 3 3 0 0 0 21.615234 29.96875 z M 55.484375 30.847656 A 3 3 0 0 0 52.484375 33.847656 A 3 3 0 0 0 55.484375 36.847656 A 3 3 0 0 0 58.484375 33.847656 A 3 3 0 0 0 55.484375 30.847656 z M 17.234375 39.597656 A 1.75 1.75 0 0 0 15.484375 41.347656 A 1.75 1.75 0 0 0 17.234375 43.097656 A 1.75 1.75 0 0 0 18.984375 41.347656 A 1.75 1.75 0 0 0 17.234375 39.597656 z M 57.234375 42.097656 A 3 3 0 0 0 54.234375 45.097656 A 3 3 0 0 0 57.234375 48.097656 A 3 3 0 0 0 60.234375 45.097656 A 3 3 0 0 0 57.234375 42.097656 z M 23.484375 42.847656 A 1.75 1.75 0 0 0 21.734375 44.597656 A 1.75 1.75 0 0 0 23.484375 46.347656 A 1.75 1.75 0 0 0 25.234375 44.597656 A 1.75 1.75 0 0 0 23.484375 42.847656 z M 83.984375 51.597656 A 2.25 2.25 0 0 0 81.734375 53.847656 A 2.25 2.25 0 0 0 83.984375 56.097656 A 2.25 2.25 0 0 0 86.234375 53.847656 A 2.25 2.25 0 0 0 83.984375 51.597656 z M 60.734375 52.097656 A 3 3 0 0 0 57.734375 55.097656 A 3 3 0 0 0 60.734375 58.097656 A 3 3 0 0 0 63.734375 55.097656 A 3 3 0 0 0 60.734375 52.097656 z M 69.734375 64.097656 A 2.25 2.25 0 0 0 67.484375 66.347656 A 2.25 2.25 0 0 0 69.734375 68.597656 A 2.25 2.25 0 0 0 71.984375 66.347656 A 2.25 2.25 0 0 0 69.734375 64.097656 z M 80.484375 67.847656 A 1.75 1.75 0 0 0 78.734375 69.597656 A 1.75 1.75 0 0 0 80.484375 71.347656 A 1.75 1.75 0 0 0 82.234375 69.597656 A 1.75 1.75 0 0 0 80.484375 67.847656 z M 44.734375 74.347656 A 3 3 0 0 0 41.734375 77.347656 A 3 3 0 0 0 44.734375 80.347656 A 3 3 0 0 0 47.734375 77.347656 A 3 3 0 0 0 44.734375 74.347656 z M 54.484375 80.597656 A 1.75 1.75 0 0 0 52.734375 82.347656 A 1.75 1.75 0 0 0 54.484375 84.097656 A 1.75 1.75 0 0 0 56.234375 82.347656 A 1.75 1.75 0 0 0 54.484375 80.597656 z "
       transform="translate(0,956.36218)"
       id="circle5138" />
    <g
       id="g5112"
       clip-path="url(#clipPath5256)"
       style="fill-opacity:1;fill:url(#linearGradient5266)">
      <path
         style="opacity:0.75;fill:url(#linearGradient5266);fill-opacity:1;stroke:none;filter:url(#filter4890)"
         d="m 66.330082,967.8446 a 30.401888,16.477434 74.885719 0 0 -1.63281,0.25977 30.401888,16.477434 74.885719 0 0 -8.16602,33.45113 30.401888,16.477434 74.885719 0 0 23.77148,25.3145 30.401888,16.477434 74.885719 0 0 9.94922,-19.8066 29.585183,15.691655 75.521573 0 1 -9.45898,18.3144 29.585183,15.691655 75.521573 0 1 -22.59961,-24.6758 29.585183,15.691655 75.521573 0 1 7.76367,-32.60544 29.585183,15.691655 75.521573 0 1 1.41211,-0.22852 30.401888,16.477434 74.885719 0 0 -1.03906,-0.0234 z"
         id="path4302"
         inkscape:connector-curvature="0" />
      <path
         inkscape:connector-curvature="0"
         id="path4304"
         d="m 48.76933,962.82433 c -1.074084,-0.19815 -2.141457,-0.33193 -3.19812,-0.40085 -17.507839,-1.14598 -26.64897,17.36093 -22.884003,38.86862 3.764813,21.5066 21.530591,38.0345 36.515568,39.0149 11.961529,0.7645 21.447031,-6.8124 24.52576,-19.591 -3.29205,11.7785 -12.172837,18.6769 -23.174521,18.0014 -16.659221,-1.0264 -32.977074,-18.8131 -36.44844,-39.7294 -3.472266,-20.91856 7.219233,-37.04653 23.879826,-36.02238 0.915277,0.062 1.838535,0.17609 2.766913,0.342 -0.662089,-0.18494 -1.323399,-0.34609 -1.982998,-0.48322 z"
         style="opacity:0.75;fill:url(#linearGradient5266);fill-opacity:1;stroke:none;filter:url(#filter4894)"
         sodipodi:nodetypes="ccscccccccc" />
      <path
         inkscape:connector-curvature="0"
         id="path4306"
         d="m 9.1773856,981.73814 a 15.332334,33.310297 82.518396 0 0 0.1218371,1.52909 15.332334,33.310297 82.518396 0 0 35.8279323,10.34713 15.332334,33.310297 82.518396 0 0 30.097616,-19.81787 15.332334,33.310297 82.518396 0 0 -20.704303,-10.84748 14.594509,32.430239 82.956233 0 1 19.118632,10.26963 14.594509,32.430239 82.956233 0 1 -29.281271,18.78983 14.594509,32.430239 82.956233 0 1 -34.9416528,-9.90474 14.594509,32.430239 82.956233 0 1 -0.1095831,-1.32278 15.332334,33.310297 82.518396 0 0 -0.1291657,0.9572 z"
         style="opacity:0.75;fill:url(#linearGradient5266);fill-opacity:1;stroke:none;filter:url(#filter4898)" />
      <path
         style="opacity:0.75;fill:url(#linearGradient5266);fill-opacity:1;stroke:none;filter:url(#filter4902)"
         d="m 50.149001,1046.4496 a 16.818442,36.541563 30.896754 0 1 -1.506458,-0.7541 16.818442,36.541563 30.896754 0 1 4.836304,-40.334 16.818442,36.541563 30.896754 0 1 33.125334,-22.10854 16.818442,36.541563 30.896754 0 1 2.167664,25.31854 16.011471,35.570873 30.442785 0 0 -2.259458,-23.48396 16.011471,35.570873 30.442785 0 0 -31.726835,21.71156 16.011471,35.570873 30.442785 0 0 -4.906737,39.2592 16.011471,35.570873 30.442785 0 0 1.301364,0.6567 16.818442,36.541563 30.896754 0 1 -1.031186,-0.2654 z"
         id="path4308"
         inkscape:connector-curvature="0" />
      <path
         style="opacity:0.75;fill:url(#linearGradient5266);fill-opacity:1;stroke:none;filter:url(#filter4906)"
         d="m 11.362218,986.13362 a 40.949768,12.868532 12.494479 0 0 -0.843131,1.11712 40.949768,12.868532 12.494479 0 0 33.076751,21.67456 40.949768,12.868532 12.494479 0 0 46.023648,-1.705 40.949768,12.868532 12.494479 0 0 -16.000467,-15.92535 39.793028,12.27231 12.854652 0 1 14.613258,14.88245 39.793028,12.27231 12.854652 0 1 -44.461566,1.316 39.793028,12.27231 12.854652 0 1 -32.377783,-21.00815 39.793028,12.27231 12.854652 0 1 0.724736,-0.96808 40.949768,12.868532 12.494479 0 0 -0.755406,0.61647 z"
         id="path4310"
         inkscape:connector-curvature="0" />
      <path
         sodipodi:nodetypes="ccscccccccc"
         style="opacity:0.75;fill:url(#linearGradient5266);fill-opacity:1;stroke:none;filter:url(#filter4910)"
         d="m 73.174011,972.89441 c -0.628491,-0.96959 -1.301578,-1.88721 -2.016731,-2.74947 -11.846248,-14.28955 -32.715632,-7.86211 -46.509524,10.66632 -13.793168,18.52752 -13.581935,44.19704 -3.442369,56.42704 8.107641,9.7494 20.826562,11.5321 32.886218,4.6091 -11.446029,6.032 -23.20388,4.2209 -30.682194,-4.726 -11.321267,-13.5505 -9.512449,-39.02205 4.040332,-56.8949 13.553863,-17.8752 33.721812,-21.38171 45.045806,-7.83191 0.617695,0.74855 1.201154,1.54109 1.748504,2.37525 -0.339151,-0.64332 -0.696019,-1.26874 -1.070108,-1.8754 z"
         id="path4312"
         inkscape:connector-curvature="0" />
      <path
         inkscape:connector-curvature="0"
         id="path4264"
         d="m 66.330082,967.8446 a 30.401888,16.477434 74.885719 0 0 -1.63281,0.25977 30.401888,16.477434 74.885719 0 0 -8.16602,33.45113 30.401888,16.477434 74.885719 0 0 23.77148,25.3145 30.401888,16.477434 74.885719 0 0 9.94922,-19.8066 29.585183,15.691655 75.521573 0 1 -9.45898,18.3144 29.585183,15.691655 75.521573 0 1 -22.59961,-24.6758 29.585183,15.691655 75.521573 0 1 7.76367,-32.60544 29.585183,15.691655 75.521573 0 1 1.41211,-0.22852 30.401888,16.477434 74.885719 0 0 -1.03906,-0.0234 z"
         style="opacity:0.75;fill:url(#linearGradient5266);fill-opacity:1;stroke:none" />
      <path
         sodipodi:nodetypes="ccscccccccc"
         style="opacity:0.75;fill:url(#linearGradient5266);fill-opacity:1;stroke:none"
         d="m 48.76933,962.82433 c -1.074084,-0.19815 -2.141457,-0.33193 -3.19812,-0.40085 -17.507839,-1.14598 -26.64897,17.36093 -22.884003,38.86862 3.764813,21.5066 21.530591,38.0345 36.515568,39.0149 11.961529,0.7645 21.447031,-6.8124 24.52576,-19.591 -3.29205,11.7785 -12.172837,18.6769 -23.174521,18.0014 -16.659221,-1.0264 -32.977074,-18.8131 -36.44844,-39.7294 -3.472266,-20.91856 7.219233,-37.04653 23.879826,-36.02238 0.915277,0.062 1.838535,0.17609 2.766913,0.342 -0.662089,-0.18494 -1.323399,-0.34609 -1.982998,-0.48322 z"
         id="path4269"
         inkscape:connector-curvature="0" />
      <path
         style="opacity:0.75;fill:url(#linearGradient5266);fill-opacity:1;stroke:none"
         d="m 9.1773856,981.73814 a 15.332334,33.310297 82.518396 0 0 0.1218371,1.52909 15.332334,33.310297 82.518396 0 0 35.8279323,10.34713 15.332334,33.310297 82.518396 0 0 30.097616,-19.81787 15.332334,33.310297 82.518396 0 0 -20.704303,-10.84748 14.594509,32.430239 82.956233 0 1 19.118632,10.26963 14.594509,32.430239 82.956233 0 1 -29.281271,18.78983 14.594509,32.430239 82.956233 0 1 -34.9416528,-9.90474 14.594509,32.430239 82.956233 0 1 -0.1095831,-1.32278 15.332334,33.310297 82.518396 0 0 -0.1291657,0.9572 z"
         id="path4271"
         inkscape:connector-curvature="0" />
      <path
         inkscape:connector-curvature="0"
         id="path4273"
         d="m 50.149001,1046.4496 a 16.818442,36.541563 30.896754 0 1 -1.506458,-0.7541 16.818442,36.541563 30.896754 0 1 4.836304,-40.334 16.818442,36.541563 30.896754 0 1 33.125334,-22.10854 16.818442,36.541563 30.896754 0 1 2.167664,25.31854 16.011471,35.570873 30.442785 0 0 -2.259458,-23.48396 16.011471,35.570873 30.442785 0 0 -31.726835,21.71156 16.011471,35.570873 30.442785 0 0 -4.906737,39.2592 16.011471,35.570873 30.442785 0 0 1.301364,0.6567 16.818442,36.541563 30.896754 0 1 -1.031186,-0.2654 z"
         style="opacity:0.75;fill:url(#linearGradient5266);fill-opacity:1;stroke:none" />
      <path
         inkscape:connector-curvature="0"
         id="path4275"
         d="m 11.362218,986.13362 a 40.949768,12.868532 12.494479 0 0 -0.843131,1.11712 40.949768,12.868532 12.494479 0 0 33.076751,21.67456 40.949768,12.868532 12.494479 0 0 46.023648,-1.705 40.949768,12.868532 12.494479 0 0 -16.000467,-15.92535 39.793028,12.27231 12.854652 0 1 14.613258,14.88245 39.793028,12.27231 12.854652 0 1 -44.461566,1.316 39.793028,12.27231 12.854652 0 1 -32.377783,-21.00815 39.793028,12.27231 12.854652 0 1 0.724736,-0.96808 40.949768,12.868532 12.494479 0 0 -0.755406,0.61647 z"
         style="opacity:0.75;fill:url(#linearGradient5266);fill-opacity:1;stroke:none" />
      <path
         inkscape:connector-curvature="0"
         id="path4277"
         d="m 73.174011,972.89441 c -0.628491,-0.96959 -1.301578,-1.88721 -2.016731,-2.74947 -11.846248,-14.28955 -32.715632,-7.86211 -46.509524,10.66632 -13.793168,18.52752 -13.581935,44.19704 -3.442369,56.42704 8.107641,9.7494 20.826562,11.5321 32.886218,4.6091 -11.446029,6.032 -23.20388,4.2209 -30.682194,-4.726 -11.321267,-13.5505 -9.512449,-39.02205 4.040332,-56.8949 13.553863,-17.8752 33.721812,-21.38171 45.045806,-7.83191 0.617695,0.74855 1.201154,1.54109 1.748504,2.37525 -0.339151,-0.64332 -0.696019,-1.26874 -1.070108,-1.8754 z"
         style="opacity:0.75;fill:url(#linearGradient5266);fill-opacity:1;stroke:none"
         sodipodi:nodetypes="ccscccccccc" />
      <path
         style="opacity:0.75;fill:url(#linearGradient5266);fill-opacity:1;stroke:none"
         d="m 53.695676,1051.0307 a 9.9618183,21.644122 46.845516 0 1 -0.735201,-0.6746 9.9618183,21.644122 46.845516 0 1 9.318916,-22.1836 9.9618183,21.644122 46.845516 0 1 22.463675,-7.1999 9.9618183,21.644122 46.845516 0 1 -2.886205,14.7721 9.4838371,21.069168 46.391547 0 0 2.535348,-13.7422 9.4838371,21.069168 46.391547 0 0 -21.602614,7.2013 9.4838371,21.069168 46.391547 0 0 -9.1841,21.5601 9.4838371,21.069168 46.391547 0 0 0.634275,0.5859 9.9618183,21.644122 46.845516 0 1 -0.544099,-0.3191 z"
         id="path4980"
         inkscape:connector-curvature="0" />
      <path
         inkscape:connector-curvature="0"
         id="path5026"
         d="m 53.695676,1051.0307 a 9.9618183,21.644122 46.845516 0 1 -0.735201,-0.6746 9.9618183,21.644122 46.845516 0 1 9.318916,-22.1836 9.9618183,21.644122 46.845516 0 1 22.463675,-7.1999 9.9618183,21.644122 46.845516 0 1 -2.886205,14.7721 9.4838371,21.069168 46.391547 0 0 2.535348,-13.7422 9.4838371,21.069168 46.391547 0 0 -21.602614,7.2013 9.4838371,21.069168 46.391547 0 0 -9.1841,21.5601 9.4838371,21.069168 46.391547 0 0 0.634275,0.5859 9.9618183,21.644122 46.845516 0 1 -0.544099,-0.3191 z"
         style="opacity:0.75;fill:url(#linearGradient5266);fill-opacity:1;stroke:none;filter:url(#filter5096)" />
    </g>
    <path
       style="opacity:1;fill:#ffffff;fill-opacity:1;stroke:none"
       d="M 69.984375 24.847656 A 2 2 0 0 0 67.984375 26.847656 A 2 2 0 0 0 69.984375 28.847656 A 2 2 0 0 0 71.984375 26.847656 A 2 2 0 0 0 69.984375 24.847656 z M 70.984375 29.097656 A 2 2 0 0 0 68.984375 31.097656 A 2 2 0 0 0 70.984375 33.097656 A 2 2 0 0 0 72.984375 31.097656 A 2 2 0 0 0 70.984375 29.097656 z M 21.615234 29.96875 A 3 3 0 0 0 18.615234 32.96875 A 3 3 0 0 0 21.615234 35.96875 A 3 3 0 0 0 24.615234 32.96875 A 3 3 0 0 0 21.615234 29.96875 z M 55.484375 30.847656 A 3 3 0 0 0 52.484375 33.847656 A 3 3 0 0 0 55.484375 36.847656 A 3 3 0 0 0 58.484375 33.847656 A 3 3 0 0 0 55.484375 30.847656 z M 17.234375 39.597656 A 1.75 1.75 0 0 0 15.484375 41.347656 A 1.75 1.75 0 0 0 17.234375 43.097656 A 1.75 1.75 0 0 0 18.984375 41.347656 A 1.75 1.75 0 0 0 17.234375 39.597656 z M 57.234375 42.097656 A 3 3 0 0 0 54.234375 45.097656 A 3 3 0 0 0 57.234375 48.097656 A 3 3 0 0 0 60.234375 45.097656 A 3 3 0 0 0 57.234375 42.097656 z M 23.484375 42.847656 A 1.75 1.75 0 0 0 21.734375 44.597656 A 1.75 1.75 0 0 0 23.484375 46.347656 A 1.75 1.75 0 0 0 25.234375 44.597656 A 1.75 1.75 0 0 0 23.484375 42.847656 z M 83.984375 51.597656 A 2.25 2.25 0 0 0 81.734375 53.847656 A 2.25 2.25 0 0 0 83.984375 56.097656 A 2.25 2.25 0 0 0 86.234375 53.847656 A 2.25 2.25 0 0 0 83.984375 51.597656 z M 60.734375 52.097656 A 3 3 0 0 0 57.734375 55.097656 A 3 3 0 0 0 60.734375 58.097656 A 3 3 0 0 0 63.734375 55.097656 A 3 3 0 0 0 60.734375 52.097656 z M 69.734375 64.097656 A 2.25 2.25 0 0 0 67.484375 66.347656 A 2.25 2.25 0 0 0 69.734375 68.597656 A 2.25 2.25 0 0 0 71.984375 66.347656 A 2.25 2.25 0 0 0 69.734375 64.097656 z M 80.484375 67.847656 A 1.75 1.75 0 0 0 78.734375 69.597656 A 1.75 1.75 0 0 0 80.484375 71.347656 A 1.75 1.75 0 0 0 82.234375 69.597656 A 1.75 1.75 0 0 0 80.484375 67.847656 z M 44.734375 74.347656 A 3 3 0 0 0 41.734375 77.347656 A 3 3 0 0 0 44.734375 80.347656 A 3 3 0 0 0 47.734375 77.347656 A 3 3 0 0 0 44.734375 74.347656 z M 54.484375 80.597656 A 1.75 1.75 0 0 0 52.734375 82.347656 A 1.75 1.75 0 0 0 54.484375 84.097656 A 1.75 1.75 0 0 0 56.234375 82.347656 A 1.75 1.75 0 0 0 54.484375 80.597656 z "
       transform="translate(0,956.36218)"
       id="path4942" />
  </g>
</svg>
