/* XPM */
static char * hide_active_xpm[] = {
"15 30 10 1",
" 	c None",
".	c #ECF0F1",
"+	c #EEE8CE",
"@	c #F5D679",
"#	c #FCC52A",
"$	c #FEBF0B",
"%	c #ECEEE9",
"&	c #F7D162",
"*	c #FFBE06",
"=	c #FBC62C",
"...............",
"...............",
"...............",
"...............",
"...............",
"...............",
"...............",
"...............",
"...............",
"....+@#$#@+....",
"..%&*******&%..",
".%=*********=%.",
".&***********&.",
"+*************+",
"@*************@",
"#*************#",
"$*************$",
"#*************#",
"@*************@",
"+*************+",
".&***********&.",
".%=*********=%.",
"..%&*******&%..",
"....+@#$#@+....",
"...............",
"...............",
"...............",
"...............",
"...............",
"..............."};
