<?xml version="1.0" encoding="UTF-8" standalone="no"?>
<!-- Created with Inkscape (http://www.inkscape.org/) -->

<svg
   xmlns:dc="http://purl.org/dc/elements/1.1/"
   xmlns:cc="http://creativecommons.org/ns#"
   xmlns:rdf="http://www.w3.org/1999/02/22-rdf-syntax-ns#"
   xmlns:svg="http://www.w3.org/2000/svg"
   xmlns="http://www.w3.org/2000/svg"
   xmlns:xlink="http://www.w3.org/1999/xlink"
   xmlns:sodipodi="http://sodipodi.sourceforge.net/DTD/sodipodi-0.dtd"
   xmlns:inkscape="http://www.inkscape.org/namespaces/inkscape"
   id="svg7384"
   version="1.1"
   inkscape:version="0.48.4 r9939"
   height="16"
   sodipodi:docname="dialog-password-symbolic.svg"
   width="16">
  <metadata
     id="metadata90">
    <rdf:RDF>
      <cc:Work
         rdf:about="">
        <dc:format>image/svg+xml</dc:format>
        <dc:type
           rdf:resource="http://purl.org/dc/dcmitype/StillImage" />
        <dc:title>Gnome Symbolic Icon Theme</dc:title>
      </cc:Work>
    </rdf:RDF>
  </metadata>
  <sodipodi:namedview
     inkscape:object-paths="true"
     inkscape:cy="5.5590693"
     inkscape:current-layer="layer9"
     inkscape:window-width="1366"
     pagecolor="#555753"
     showborder="true"
     showguides="true"
     inkscape:snap-nodes="false"
     objecttolerance="10"
     showgrid="false"
     inkscape:object-nodes="true"
     inkscape:pageshadow="2"
     inkscape:guide-bbox="true"
     inkscape:window-x="0"
     inkscape:snap-bbox="true"
     bordercolor="#666666"
     id="namedview88"
     inkscape:window-maximized="1"
     inkscape:snap-global="true"
     inkscape:window-y="28"
     gridtolerance="10"
     inkscape:zoom="22.627417"
     inkscape:window-height="705"
     borderopacity="1"
     guidetolerance="10"
     inkscape:snap-bbox-midpoints="false"
     inkscape:cx="8.4959468"
     inkscape:bbox-paths="false"
     inkscape:snap-grids="true"
     inkscape:pageopacity="1"
     inkscape:snap-to-guides="true">
    <inkscape:grid
       visible="true"
       spacingx="1px"
       type="xygrid"
       spacingy="1px"
       id="grid4866"
       empspacing="2"
       enabled="true"
       snapvisiblegridlinesonly="true" />
  </sodipodi:namedview>
  <title
     id="title9167">Gnome Symbolic Icon Theme</title>
  <defs
     id="defs7386">
    <linearGradient
       inkscape:collect="always"
       xlink:href="#linearGradient3112"
       id="linearGradient3122"
       gradientUnits="userSpaceOnUse"
       x1="41.04163"
       y1="1022.0399"
       x2="41.04163"
       y2="987.39087"
       gradientTransform="matrix(1.0322581,0,0,1.0322581,-1.5483887,-32.397394)" />
    <linearGradient
       inkscape:collect="always"
       id="linearGradient3112">
      <stop
         style="stop-color:#c0f5a5;stop-opacity:1"
         offset="0"
         id="stop3114" />
      <stop
         style="stop-color:#f7f7f9;stop-opacity:1"
         offset="1"
         id="stop3116" />
    </linearGradient>
  </defs>
  <g
     transform="translate(-340.99994,-257)"
     inkscape:groupmode="layer"
     id="layer9"
     inkscape:label="status"
     style="display:inline">
    <path
       style="fill:#bebebe;fill-opacity:1;stroke:none"
       d="m 348.59706,258.49216 c -0.80432,-0.80433 -1.91548,-1.3114 -3.14281,-1.31142 -2.45471,2e-5 -4.45423,1.99955 -4.45418,4.45418 -5e-5,2.45476 1.99946,4.45428 4.45422,4.45422 0.54973,3e-5 1.07409,-0.11141 1.56007,-0.29388 l 0.85918,0.8592 c 0.28105,0.28105 0.73642,0.28105 1.01744,1e-5 l 0.0679,-0.0679 c 0.11008,-0.11009 0.29452,-0.0899 0.38437,0 l 0.37307,0.37307 c 0.0894,0.0894 0.12546,0.26769 0.005,0.38459 -0.11966,0.11715 -0.10454,0.28504 0.0119,0.4014 l 0.30798,0.30798 c 0.11704,0.11705 0.27974,0.11771 0.39831,0.0138 0.1186,-0.10374 0.27172,-0.11265 0.38438,0 l 0.37306,0.37307 c 0.12083,0.12083 0.09,0.29441 0,0.38437 -0.09,0.09 -0.0721,0.31229 0.0452,0.42961 l 0.26003,0.26001 c 0.13611,0.14241 0.32748,0.14734 0.42959,0.0452 0.10208,-0.10208 0.2805,-0.10385 0.38437,0 l 0.36177,0.36178 c 0.10732,0.1073 0.12864,0.27171 0.0106,0.38975 -0.11799,0.11799 -0.10072,0.28892 0.0346,0.42421 l 0.28799,0.28799 c 0.13612,0.13612 0.29424,0.13126 0.40494,0.0205 0.11063,-0.11063 0.27719,-0.10718 0.38106,-0.003 l 0.37306,0.37308 c 0.10385,0.10385 0.11903,0.22608 0.0186,0.39907 -0.10042,0.17299 0.009,0.3974 0.16222,0.55056 0.60752,0.60752 1.58566,0.60754 2.19322,-10e-6 0.60747,-0.60749 0.60749,-1.58567 -2e-5,-2.19319 l -6.94136,-6.94135 c 0.19062,-0.49532 0.30524,-1.03148 0.30524,-1.59401 -2e-5,-1.22733 -0.5071,-2.33849 -1.31142,-3.14281 z m -3.71939,0.71222 c 0.23652,0.23651 0.3844,0.56608 0.38438,0.92702 4e-5,0.72179 -0.58954,1.31137 -1.3114,1.31139 -0.7218,-3e-5 -1.31135,-0.58958 -1.31138,-1.31138 10e-6,-0.72187 0.58959,-1.31145 1.31139,-1.31141 0.36094,-2e-5 0.6905,0.14786 0.92701,0.38438 z"
       id="path3786"
       inkscape:connector-curvature="0"
       sodipodi:nodetypes="sssscssccszcszcczsczsszcczsszcsscssssssss" />
  </g>
  <g
     transform="translate(-340.99994,-257)"
     inkscape:groupmode="layer"
     id="layer10"
     inkscape:label="devices" />
  <g
     transform="translate(-340.99994,-257)"
     inkscape:groupmode="layer"
     id="layer11"
     inkscape:label="apps" />
  <g
     transform="translate(-340.99994,-257)"
     inkscape:groupmode="layer"
     id="layer12"
     inkscape:label="actions" />
  <g
     transform="translate(-340.99994,-257)"
     inkscape:groupmode="layer"
     id="layer13"
     inkscape:label="places" />
  <g
     transform="translate(-340.99994,-257)"
     inkscape:groupmode="layer"
     id="layer14"
     inkscape:label="mimetypes" />
  <g
     transform="translate(-340.99994,-257)"
     inkscape:groupmode="layer"
     id="layer15"
     inkscape:label="emblems"
     style="display:inline" />
  <g
     transform="translate(-340.99994,-257)"
     inkscape:groupmode="layer"
     id="g4953"
     inkscape:label="categories"
     style="display:inline" />
</svg>
