/* XPM */
static char * close_prelight_xpm[] = {
"41 25 9 1",
" 	c None",
".	c #000000",
"+	c #D34A4A",
"@	c #F53737",
"#	c #FE1717",
"$	c #FB2B2B",
"%	c #FB2D2D",
"&	c #1D1D1D",
"*	c #2C2C2C",
".........................................",
".........................................",
".........................................",
".........................................",
".........................................",
".........................................",
"................+@.....@+................",
"................@#$...$#@................",
".................$#$.$#$.................",
"..................$###$..................",
"...................###...................",
"..................$###$..................",
".................%#$.$#$.................",
"................@#$...$#@................",
"................+@.....@+................",
".........................................",
".........................................",
"&.......................................&",
"*.......................................*",
" *&...................................&* ",
"                                         ",
"                                         ",
"                                         ",
"                                         ",
"                                         "};
