/* XPM */
static char * hide_inactive_xpm[] = {
"31 25 5 1",
" 	c None",
".	c #5A5A5A",
"+	c #DCDCDC",
"@	c #565656",
"#	c #626262",
"...............................",
"...............................",
"...............................",
"...............................",
"...............................",
"...............................",
"...............................",
"...............................",
"...............................",
"...............................",
"...............................",
"...........++++++++++..........",
"...........++++++++++..........",
"...............................",
"...............................",
"...............................",
"...............................",
"@.............................@",
"#.............................#",
" #@.........................@# ",
"                               ",
"                               ",
"                               ",
"                               ",
"                               "};
