/* XPM */
static char * maximize_toggled_prelight_xpm[] = {
"31 25 5 1",
" 	c None",
".	c #000000",
"+	c #17E0FE",
"@	c #1D1D1D",
"#	c #2C2C2C",
"...............................",
"...............................",
"...............................",
"..............++++++++++.......",
"..............++++++++++.......",
"..............++++++++++.......",
"..............+........+.......",
"..............+........+.......",
".......++++++++++......+.......",
".......++++++++++......+.......",
".......++++++++++......+.......",
".......+........++++++++.......",
".......+........+..............",
".......+........+..............",
".......+........+..............",
".......+........+..............",
".......++++++++++..............",
"@.............................@",
"#.............................#",
" #@.........................@# ",
"                               ",
"                               ",
"                               ",
"                               ",
"                               "};
