/* XPM */
static char * shade_toggled_active_xpm[] = {
"19 25 4 1",
" 	c None",
".	c #535353",
"+	c #FFFFFF",
"@	c #EDEDED",
"...................",
"...................",
"...................",
"...................",
"...................",
"...................",
"...................",
"...................",
"...................",
"........+++........",
"........+++........",
"........+++........",
"........+++........",
"......@+++++@......",
".......@+++@.......",
"........@+@........",
".........@.........",
"...................",
"...................",
"...................",
"...................",
"...................",
"...................",
"...................",
"..................."};
