/* XPM */
static char * shade_prelight_xpm[] = {
"19 25 4 1",
" 	c None",
".	c #535353",
"+	c #3DCFED",
"@	c #17E0FE",
"...................",
"...................",
"...................",
"...................",
"...................",
"...................",
"...................",
"...................",
"...................",
".........+.........",
"........+@+........",
".......+@@@+.......",
"......+@@@@@+......",
"........@@@........",
"........@@@........",
"........@@@........",
"........@@@........",
"...................",
"...................",
"...................",
"...................",
"...................",
"...................",
"...................",
"..................."};
