/* XPM */
static char * stick_pressed_xpm[] = {
"19 25 5 1",
" 	c None",
".	c #535353",
"+	c #33A7B8",
"@	c #22D3ED",
"#	c #17E0FE",
"...................",
"...................",
"...................",
"...................",
"...................",
"...................",
"...................",
"..+@#@+............",
".+#####+...........",
".@#...#@...........",
".##...##...........",
".##...##...........",
".....+#######+.....",
".....#########.....",
".....###...###.....",
".....###@.@###.....",
".....#########.....",
".....+#######+.....",
"...................",
"...................",
"...................",
"...................",
"...................",
"...................",
"..................."};
