/* XPM */
static char * stick_toggled_active_xpm[] = {
"19 25 5 1",
" 	c None",
".	c #535353",
"+	c #B8B8B8",
"@	c #EDEDED",
"#	c #FFFFFF",
"...................",
"...................",
"...................",
"...................",
"...................",
"...................",
"...................",
".......+@#@+.......",
"......+#####+......",
"......@#...#@......",
"......##...##......",
"......##...##......",
".....+#######+.....",
".....#########.....",
".....###...###.....",
".....###@.@###.....",
".....#########.....",
".....+#######+.....",
"...................",
"...................",
"...................",
"...................",
"...................",
"...................",
"..................."};
