<?xml version="1.0" encoding="UTF-8" standalone="no"?>
<svg
   xmlns:dc="http://purl.org/dc/elements/1.1/"
   xmlns:cc="http://creativecommons.org/ns#"
   xmlns:rdf="http://www.w3.org/1999/02/22-rdf-syntax-ns#"
   xmlns:svg="http://www.w3.org/2000/svg"
   xmlns="http://www.w3.org/2000/svg"
   xmlns:sodipodi="http://sodipodi.sourceforge.net/DTD/sodipodi-0.dtd"
   xmlns:inkscape="http://www.inkscape.org/namespaces/inkscape"
   contentScriptType="text/ecmascript"
   contentStyleType="text/css"
   height="16"
   preserveAspectRatio="xMidYMid meet"
   version="1.1"
   viewBox="0 0 16 16"
   width="16"
   x="0px"
   y="0px"
   zoomAndPan="magnify"
   id="svg2"
   inkscape:version="0.91 r13725"
   sodipodi:docname="bluetooth-disabled-symbolic.svg">
  <metadata
     id="metadata56">
    <rdf:RDF>
      <cc:Work
         rdf:about="">
        <dc:format>image/svg+xml</dc:format>
        <dc:type
           rdf:resource="http://purl.org/dc/dcmitype/StillImage" />
        <dc:title />
      </cc:Work>
    </rdf:RDF>
  </metadata>
  <sodipodi:namedview
     pagecolor="#ffffff"
     bordercolor="#666666"
     borderopacity="1"
     objecttolerance="10"
     gridtolerance="10"
     guidetolerance="10"
     inkscape:pageopacity="0"
     inkscape:pageshadow="2"
     inkscape:window-width="1336"
     inkscape:window-height="704"
     id="namedview54"
     showgrid="false"
     inkscape:zoom="19.07168"
     inkscape:cx="3.7365949"
     inkscape:cy="13.816854"
     inkscape:window-x="0"
     inkscape:window-y="27"
     inkscape:window-maximized="1"
     inkscape:current-layer="svg2" />
  <defs
     id="defs6">
    <linearGradient
       gradientUnits="userSpaceOnUse"
       x1="35.0005"
       x2="35.0005"
       y1="61"
       y2="9.0004997"
       id="linearGradient8">
      <stop
         offset="0"
         stop-color="#d0cbc5"
         id="stop10" />
      <stop
         offset="0.5031"
         stop-color="#fafcef"
         id="stop12" />
      <stop
         offset="0.9693"
         stop-color="#ffffff"
         id="stop14" />
      <stop
         offset="1"
         stop-color="#ffffff"
         id="stop16" />
    </linearGradient>
    <linearGradient
       gradientTransform="matrix(1.4062497,0,0,1.4062497,-69.498842,-1.7595697)"
       gradientUnits="userSpaceOnUse"
       id="linearGradient3063"
       x1="108.81249"
       x2="108.81249"
       y1="43.486229"
       y2="12.198141">
      <stop
         offset="0"
         stop-color="#d0cbc5"
         id="stop19" />
      <stop
         offset="0.5031"
         stop-color="#fafcef"
         id="stop21" />
      <stop
         offset="0.9693"
         stop-color="#ffffff"
         id="stop23" />
      <stop
         offset="1"
         stop-color="#ffffff"
         id="stop25" />
    </linearGradient>
    <linearGradient
       gradientTransform="matrix(1.4062497,0,0,1.4062497,-69.498842,-1.7595697)"
       gradientUnits="userSpaceOnUse"
       id="linearGradient27"
       x1="108.81249"
       x2="108.81249"
       y1="43.486229"
       y2="12.198141">
      <stop
         offset="0"
         stop-color="#d0cbc5"
         id="stop29" />
      <stop
         offset="0.5031"
         stop-color="#fafcef"
         id="stop31" />
      <stop
         offset="0.9693"
         stop-color="#ffffff"
         id="stop33" />
      <stop
         offset="1"
         stop-color="#ffffff"
         id="stop35" />
    </linearGradient>
    <linearGradient
       gradientTransform="matrix(1.639432,0,0,1.6233115,-143.54126,-10.873487)"
       gradientUnits="userSpaceOnUse"
       id="linearGradient3037"
       x1="108.81249"
       x2="108.81249"
       y1="43.486229"
       y2="12.198141">
      <stop
         offset="0"
         stop-color="#d0cbc5"
         id="stop38" />
      <stop
         offset="0.5031"
         stop-color="#fafcef"
         id="stop40" />
      <stop
         offset="0.9693"
         stop-color="#ffffff"
         id="stop42" />
      <stop
         offset="1"
         stop-color="#ffffff"
         id="stop44" />
    </linearGradient>
    <clipPath
       id="clipPath8261"
       clipPathUnits="userSpaceOnUse">
      <path
         style="opacity:0.5;fill:#bebebe;fill-opacity:1;stroke:none"
         id="path8263"
         d="m 62.0002,317 0,16 9,0 0,-6 3,0 0,-10 -12,0 z"
         inkscape:connector-curvature="0" />
    </clipPath>
  </defs>
  <path
     style="fill:#bebebe;fill-opacity:1;opacity:0.5"
     d="M 7.7265625 0.00390625 C 7.2728705 0.03605025 6.8515625 0.32255052 6.8515625 0.94726562 L 6.8515625 6.3515625 L 3.9824219 4.3535156 C 3.6425199 4.1173184 3.129484 4.2740326 2.828125 4.6992188 L 2.7714844 4.765625 C 2.4701274 5.1908112 2.4979866 5.7266943 2.8378906 5.9628906 L 5.8652344 8.0722656 L 2.7832031 10.292969 C 2.4473221 10.534744 2.4298133 11.07203 2.7382812 11.492188 L 2.7929688 11.568359 C 3.1014388 11.988517 3.6133367 12.1324 3.9492188 11.890625 L 6.8515625 9.8046875 L 6.8515625 15.054688 C 6.8515625 15.874579 7.8802188 16.200608 8.3867188 15.875 L 10 14.619141 L 10 12.121094 L 8.8359375 13.023438 L 8.8359375 10.136719 L 10 10.947266 L 10 10 L 12.097656 10 L 9.2949219 8.0507812 L 12.78125 5.5410156 C 13.538648 4.9319697 13.411484 4.3550809 12.759766 3.7539062 L 8.4882812 0.203125 C 8.2790762 0.0524782 7.9987775 -0.01537995 7.7265625 0.00390625 z M 8.8359375 3.078125 L 10.685547 4.609375 L 8.8359375 5.9296875 L 8.8359375 3.078125 z "
     id="path50" />
  <path
     style="color:#bebebe;display:inline;overflow:visible;visibility:visible;fill:#bebebe;fill-opacity:1;stroke:none;stroke-width:2;marker:none"
     sodipodi:nodetypes="ccccccccccccccccc"
     id="path3761-2-3-5-4-8-9-8-0-9"
     d="m 10.998867,10.92519 1.375,0 1.125,1.09375 1.09375,-1.09375 1.40625,0 0,1.46875 -1.09375,1.0625 1.09375,1.0625 0,1.40625 -1.4375,0 -1.0625,-1.0625 -1.0625,1.0625 -1.4375,0 0,-1.40625 1.0625,-1.0625 -1.0625,-1.0625 0,-1.46875 z"
     inkscape:connector-curvature="0" />
</svg>
