<?xml version="1.0" encoding="UTF-8" standalone="no"?>
<svg
   xmlns:dc="http://purl.org/dc/elements/1.1/"
   xmlns:cc="http://creativecommons.org/ns#"
   xmlns:rdf="http://www.w3.org/1999/02/22-rdf-syntax-ns#"
   xmlns:svg="http://www.w3.org/2000/svg"
   xmlns="http://www.w3.org/2000/svg"
   xmlns:sodipodi="http://sodipodi.sourceforge.net/DTD/sodipodi-0.dtd"
   xmlns:inkscape="http://www.inkscape.org/namespaces/inkscape"
   contentScriptType="text/ecmascript"
   contentStyleType="text/css"
   height="16.000002"
   preserveAspectRatio="xMidYMid meet"
   version="1.1"
   viewBox="0 0 16 16.000002"
   width="16"
   x="0px"
   y="0px"
   zoomAndPan="magnify"
   id="svg2"
   inkscape:version="0.91 r13725"
   sodipodi:docname="changes-prevent-symbolic.svg">
  <metadata
     id="metadata48">
    <rdf:RDF>
      <cc:Work
         rdf:about="">
        <dc:format>image/svg+xml</dc:format>
        <dc:type
           rdf:resource="http://purl.org/dc/dcmitype/StillImage" />
        <dc:title />
      </cc:Work>
    </rdf:RDF>
  </metadata>
  <sodipodi:namedview
     pagecolor="#ffffff"
     bordercolor="#666666"
     borderopacity="1"
     objecttolerance="10"
     gridtolerance="10"
     guidetolerance="10"
     inkscape:pageopacity="0"
     inkscape:pageshadow="2"
     inkscape:window-width="1336"
     inkscape:window-height="704"
     id="namedview46"
     showgrid="false"
     fit-margin-top="0"
     fit-margin-left="0"
     fit-margin-right="0"
     fit-margin-bottom="0"
     inkscape:zoom="4.1403509"
     inkscape:cx="-37.626659"
     inkscape:cy="18.745738"
     inkscape:window-x="0"
     inkscape:window-y="27"
     inkscape:window-maximized="1"
     inkscape:current-layer="svg2" />
  <defs
     id="defs6">
    <linearGradient
       gradientUnits="userSpaceOnUse"
       id="SVGID_1_"
       x1="34"
       x2="34"
       y1="49.955101"
       y2="6.4496999">
      <stop
         offset="0"
         stop-color="#d0cbc5"
         id="stop9" />
      <stop
         offset="0.5031"
         stop-color="#fafcef"
         id="stop11" />
      <stop
         offset="0.9693"
         stop-color="#ffffff"
         id="stop13" />
      <stop
         offset="1"
         stop-color="#ffffff"
         id="stop15" />
    </linearGradient>
    <linearGradient
       gradientTransform="matrix(1.1198713,0,0,1.1198713,260.85137,-1097.0739)"
       gradientUnits="userSpaceOnUse"
       id="linearGradient17"
       x1="-163.69522"
       x2="-163.69522"
       y1="1022.4695"
       y2="984.57812">
      <stop
         offset="0"
         stop-color="#d0cbc5"
         id="stop19" />
      <stop
         offset="0.5031"
         stop-color="#fafcef"
         id="stop21" />
      <stop
         offset="0.9693"
         stop-color="#ffffff"
         id="stop23" />
      <stop
         offset="1"
         stop-color="#ffffff"
         id="stop25" />
    </linearGradient>
    <linearGradient
       gradientTransform="matrix(1.1198713,0,0,1.1198713,217.72637,-1095.3595)"
       gradientUnits="userSpaceOnUse"
       id="linearGradient3985"
       x1="-163.69522"
       x2="-163.69522"
       y1="1022.4695"
       y2="984.57812">
      <stop
         offset="0"
         stop-color="#d0cbc5"
         id="stop28" />
      <stop
         offset="0.5031"
         stop-color="#fafcef"
         id="stop30" />
      <stop
         offset="0.9693"
         stop-color="#ffffff"
         id="stop32" />
      <stop
         offset="1"
         stop-color="#ffffff"
         id="stop34" />
    </linearGradient>
  </defs>
  <path
     inkscape:connector-curvature="0"
     style="fill:#bebebe;fill-opacity:1;fill-rule:nonzero;stroke:none"
     id="path42"
     d="M 8.0000059,9.5367432e-7 C 5.1363042,9.5367432e-7 2.814818,2.305212 2.814818,5.148834 c 0,0.01297 -9.47e-5,0.02566 0,0.0386 l 0,1.750624 -0.1037041,0 c -0.9497015,0 -1.7111118,0.756055 -1.7111118,1.699115 l 0,0.411907 0,0.411906 c 0,0.10446 0.020907,0.196851 0.038872,0.296078 0.00473,0.02636 0.00695,0.05128 0.012981,0.07723 0.3943699,3.467554 3.3507011,6.165708 6.9481532,6.165708 3.5974487,0 6.5537867,-2.698154 6.9481497,-6.165708 0.0028,-0.02595 0.01027,-0.0512 0.01297,-0.07723 0.01795,-0.09923 0.03887,-0.191618 0.03887,-0.296078 l 0,-0.411906 0,-0.411907 c 0,-0.94306 -0.76141,-1.699115 -1.711112,-1.699115 l -0.103704,0 0,-1.750625 c 9.6e-5,-0.01293 0,-0.02566 0,-0.0386 C 13.185187,2.305211 10.863697,-4.6325685e-8 7.9999988,-4.6325685e-8 Z M 7.9999918,2.089859 c 1.5484282,0 2.8335342,1.129453 3.0722232,2.600162 l -1.05e-4,2.672832 -6.1442402,0 -1.44e-4,-2.672832 C 5.1664163,3.219312 6.4515203,2.08986 7.9999485,2.08986 Z m -4.33e-5,7.898901 c 0.6872886,0 1.2444459,0.553232 1.2444459,1.235719 0,0.682447 -0.5571603,1.235721 -1.2444459,1.235721 -0.6872867,0 -1.244445,-0.553274 -1.244445,-1.235721 0,-0.682488 0.5571603,-1.235719 1.244445,-1.235719 z" />
</svg>
