<?xml version="1.0" encoding="UTF-8" standalone="no"?>
<!-- Created with Inkscape (http://www.inkscape.org/) -->

<svg
   xmlns:dc="http://purl.org/dc/elements/1.1/"
   xmlns:cc="http://creativecommons.org/ns#"
   xmlns:rdf="http://www.w3.org/1999/02/22-rdf-syntax-ns#"
   xmlns:svg="http://www.w3.org/2000/svg"
   xmlns="http://www.w3.org/2000/svg"
   xmlns:xlink="http://www.w3.org/1999/xlink"
   xmlns:sodipodi="http://sodipodi.sourceforge.net/DTD/sodipodi-0.dtd"
   xmlns:inkscape="http://www.inkscape.org/namespaces/inkscape"
   width="96"
   height="96"
   id="svg2"
   version="1.1"
   inkscape:version="0.48.4 r9939"
   sodipodi:docname="preferences-system-privacy.svg">
  <defs
     id="defs4">
    <linearGradient
       inkscape:collect="always"
       id="linearGradient3112">
      <stop
         style="stop-color:#c0f5a5;stop-opacity:1"
         offset="0"
         id="stop3114" />
      <stop
         style="stop-color:#f7f7f9;stop-opacity:1"
         offset="1"
         id="stop3116" />
    </linearGradient>
    <linearGradient
       inkscape:collect="always"
       id="linearGradient3121">
      <stop
         style="stop-color:#000000;stop-opacity:1;"
         offset="0"
         id="stop3124" />
      <stop
         style="stop-color:#3e383e;stop-opacity:1"
         offset="1"
         id="stop3126" />
    </linearGradient>
    <linearGradient
       inkscape:collect="always"
       id="linearGradient3104">
      <stop
         style="stop-color:#ff9a00;stop-opacity:1"
         offset="0"
         id="stop3106" />
      <stop
         style="stop-color:#fdca00;stop-opacity:1"
         offset="1"
         id="stop3108" />
    </linearGradient>
    <linearGradient
       inkscape:collect="always"
       id="linearGradient4330">
      <stop
         style="stop-color:#adcff7;stop-opacity:1"
         offset="0"
         id="stop4332" />
      <stop
         style="stop-color:#efefff;stop-opacity:1"
         offset="1"
         id="stop4334" />
    </linearGradient>
    <linearGradient
       inkscape:collect="always"
       id="linearGradient3325">
      <stop
         style="stop-color:#c6bede;stop-opacity:1"
         offset="0"
         id="stop3327" />
      <stop
         style="stop-color:#f7e7ff;stop-opacity:1"
         offset="1"
         id="stop3329" />
    </linearGradient>
    <linearGradient
       inkscape:collect="always"
       id="linearGradient3315">
      <stop
         style="stop-color:#a69fc6;stop-opacity:1"
         offset="0"
         id="stop3317" />
      <stop
         style="stop-color:#fffbff;stop-opacity:1"
         offset="1"
         id="stop3319" />
    </linearGradient>
    <linearGradient
       inkscape:collect="always"
       id="linearGradient3307">
      <stop
         style="stop-color:#5228ad;stop-opacity:1"
         offset="0"
         id="stop3309" />
      <stop
         id="stop3341"
         offset="0.6955229"
         style="stop-color:#4f28a7;stop-opacity:1;" />
      <stop
         id="stop3339"
         offset="0.84899038"
         style="stop-color:#4b289f;stop-opacity:1;" />
      <stop
         style="stop-color:#4a289c;stop-opacity:1"
         offset="1"
         id="stop3311" />
    </linearGradient>
    <linearGradient
       inkscape:collect="always"
       id="linearGradient3153">
      <stop
         style="stop-color:#ffffff;stop-opacity:1"
         offset="0"
         id="stop3155" />
      <stop
         id="stop3163"
         offset="0.71368068"
         style="stop-color:#ffffff;stop-opacity:1" />
      <stop
         style="stop-color:#000000;stop-opacity:1"
         offset="1"
         id="stop3157" />
    </linearGradient>
    <linearGradient
       id="linearGradient3090"
       inkscape:collect="always">
      <stop
         id="stop3092"
         offset="0"
         style="stop-color:#000000;stop-opacity:1" />
      <stop
         id="stop3094"
         offset="1"
         style="stop-color:#211821;stop-opacity:1" />
    </linearGradient>
    <linearGradient
       inkscape:collect="always"
       id="linearGradient3083">
      <stop
         style="stop-color:#2b8b06;stop-opacity:1"
         offset="0"
         id="stop3086" />
      <stop
         style="stop-color:#57ad04;stop-opacity:1"
         offset="1"
         id="stop3088" />
    </linearGradient>
    <inkscape:perspective
       sodipodi:type="inkscape:persp3d"
       inkscape:vp_x="0 : 48 : 1"
       inkscape:vp_y="0 : 1000 : 0"
       inkscape:vp_z="96 : 48 : 1"
       inkscape:persp3d-origin="48 : 32 : 1"
       id="perspective3054" />
    <linearGradient
       id="linearGradient4357"
       inkscape:collect="always">
      <stop
         id="stop4359"
         offset="0"
         style="stop-color:#ded3d6;stop-opacity:1" />
      <stop
         id="stop4361"
         offset="1"
         style="stop-color:#f7ebef;stop-opacity:1" />
    </linearGradient>
    <linearGradient
       inkscape:collect="always"
       id="linearGradient3558">
      <stop
         style="stop-color:#ded3d6;stop-opacity:1"
         offset="0"
         id="stop3560" />
      <stop
         style="stop-color:#efebef;stop-opacity:1"
         offset="1"
         id="stop3562" />
    </linearGradient>
    <linearGradient
       id="linearGradient3076"
       inkscape:collect="always">
      <stop
         id="stop3078"
         offset="0"
         style="stop-color:#ffe7f7;stop-opacity:1" />
      <stop
         id="stop3080"
         offset="1"
         style="stop-color:#ffc3ef;stop-opacity:1" />
    </linearGradient>
    <linearGradient
       id="linearGradient3070"
       inkscape:collect="always">
      <stop
         id="stop3072"
         offset="0"
         style="stop-color:#943410;stop-opacity:1" />
      <stop
         id="stop3074"
         offset="1"
         style="stop-color:#dc7952;stop-opacity:1" />
    </linearGradient>
    <linearGradient
       inkscape:collect="always"
       id="linearGradient3059">
      <stop
         style="stop-color:#a53810;stop-opacity:1"
         offset="0"
         id="stop3061" />
      <stop
         style="stop-color:#e75911;stop-opacity:1"
         offset="1"
         id="stop3064" />
    </linearGradient>
    <linearGradient
       inkscape:collect="always"
       id="linearGradient3048">
      <stop
         style="stop-color:#c16d16;stop-opacity:1"
         offset="0"
         id="stop3050" />
      <stop
         style="stop-color:#ff8e31;stop-opacity:1"
         offset="1"
         id="stop3052" />
    </linearGradient>
    <linearGradient
       inkscape:collect="always"
       id="linearGradient3119">
      <stop
         style="stop-color:#92948f;stop-opacity:0"
         offset="0"
         id="stop3121" />
      <stop
         id="stop3123"
         offset="0.4283945"
         style="stop-color:#9b9e98;stop-opacity:1" />
      <stop
         style="stop-color:#939690;stop-opacity:0"
         offset="1"
         id="stop3125" />
    </linearGradient>
    <linearGradient
       id="linearGradient3073"
       inkscape:collect="always">
      <stop
         id="stop3075"
         offset="0"
         style="stop-color:#ffffff;stop-opacity:0" />
      <stop
         style="stop-color:#ffffff;stop-opacity:1"
         offset="0.45872402"
         id="stop3085" />
      <stop
         id="stop3083"
         offset="1"
         style="stop-color:#ffffff;stop-opacity:0" />
    </linearGradient>
    <linearGradient
       inkscape:collect="always"
       id="linearGradient3047">
      <stop
         style="stop-color:#000000;stop-opacity:1"
         offset="0"
         id="stop3049" />
      <stop
         id="stop3055"
         offset="0.06123874"
         style="stop-color:#1a1a1a;stop-opacity:1" />
      <stop
         style="stop-color:#333333;stop-opacity:1"
         offset="0.16480456"
         id="stop3057" />
      <stop
         id="stop3059"
         offset="0.55385184"
         style="stop-color:#4d4d4d;stop-opacity:1" />
      <stop
         style="stop-color:#999999;stop-opacity:1"
         offset="1"
         id="stop3051" />
    </linearGradient>
    <linearGradient
       id="linearGradient3041"
       inkscape:collect="always">
      <stop
         id="stop3043"
         offset="0"
         style="stop-color:#1a1a1a;stop-opacity:1" />
      <stop
         id="stop3045"
         offset="1"
         style="stop-color:#808080;stop-opacity:1" />
    </linearGradient>
    <linearGradient
       inkscape:collect="always"
       id="linearGradient3029">
      <stop
         style="stop-color:#333333;stop-opacity:1"
         offset="0"
         id="stop3031" />
      <stop
         style="stop-color:#e0e0dd;stop-opacity:0;"
         offset="1"
         id="stop3033" />
    </linearGradient>
    <linearGradient
       inkscape:collect="always"
       xlink:href="#linearGradient3029"
       id="linearGradient3035"
       x1="35.355339"
       y1="1030.3622"
       x2="35.355339"
       y2="975.33282"
       gradientUnits="userSpaceOnUse"
       gradientTransform="matrix(1.1638085,0,0,1.1638085,-7.862809,-164.23642)" />
    <linearGradient
       inkscape:collect="always"
       xlink:href="#linearGradient3041"
       id="linearGradient3039"
       gradientUnits="userSpaceOnUse"
       x1="35.355339"
       y1="1030.3622"
       x2="35.355339"
       y2="975.33282"
       gradientTransform="matrix(1.1218695,0,0,1.1218695,-5.8497348,-122.18782)" />
    <linearGradient
       inkscape:collect="always"
       xlink:href="#linearGradient3047"
       id="linearGradient3053"
       x1="40"
       y1="1043.4336"
       x2="39.285713"
       y2="972.33325"
       gradientUnits="userSpaceOnUse" />
    <linearGradient
       inkscape:collect="always"
       xlink:href="#linearGradient3073"
       id="linearGradient3113"
       gradientUnits="userSpaceOnUse"
       gradientTransform="translate(0,-956.36218)"
       x1="14.869445"
       y1="978.90387"
       x2="24.52651"
       y2="969.24683" />
    <linearGradient
       inkscape:collect="always"
       xlink:href="#linearGradient3073"
       id="linearGradient3115"
       gradientUnits="userSpaceOnUse"
       gradientTransform="matrix(-1,0,0,1,96,-956.36218)"
       x1="15.152279"
       y1="978.62103"
       x2="26.263966"
       y2="967.50934" />
    <linearGradient
       inkscape:collect="always"
       xlink:href="#linearGradient3119"
       id="linearGradient3117"
       gradientUnits="userSpaceOnUse"
       gradientTransform="translate(0,-956.36218)"
       x1="13.131983"
       y1="980.64136"
       x2="25.549681"
       y2="967.86646" />
    <linearGradient
       inkscape:collect="always"
       xlink:href="#linearGradient3119"
       id="linearGradient3129"
       gradientUnits="userSpaceOnUse"
       gradientTransform="matrix(-1,0,0,1,96,0)"
       x1="13.131983"
       y1="980.64136"
       x2="25.549681"
       y2="967.86646" />
    <linearGradient
       inkscape:collect="always"
       xlink:href="#linearGradient3048"
       id="linearGradient3054"
       x1="49.267925"
       y1="996.57349"
       x2="49.267925"
       y2="1045.8627"
       gradientUnits="userSpaceOnUse" />
    <linearGradient
       inkscape:collect="always"
       xlink:href="#linearGradient3048"
       id="linearGradient3058"
       x1="115.80308"
       y1="985.47241"
       x2="115.80308"
       y2="1033.5543"
       gradientUnits="userSpaceOnUse" />
    <linearGradient
       inkscape:collect="always"
       xlink:href="#linearGradient3076"
       id="linearGradient3055"
       gradientUnits="userSpaceOnUse"
       x1="115.80308"
       y1="985.47241"
       x2="115.80308"
       y2="1025.3639"
       gradientTransform="matrix(1.4144782,0,0,1.4144782,-119.78686,-419.05496)" />
    <linearGradient
       inkscape:collect="always"
       xlink:href="#linearGradient3059"
       id="linearGradient3066"
       x1="22.54203"
       y1="1043.3966"
       x2="22.54203"
       y2="964.45898"
       gradientUnits="userSpaceOnUse" />
    <linearGradient
       inkscape:collect="always"
       xlink:href="#linearGradient3070"
       id="linearGradient3068"
       x1="53.796227"
       y1="1046.0226"
       x2="53.796227"
       y2="962.97437"
       gradientUnits="userSpaceOnUse" />
    <linearGradient
       inkscape:collect="always"
       xlink:href="#linearGradient3076"
       id="linearGradient3086"
       gradientUnits="userSpaceOnUse"
       gradientTransform="matrix(1.4144782,0,0,1.4144782,-119.78686,-417.12598)"
       x1="115.80308"
       y1="985.47241"
       x2="115.80308"
       y2="1025.3639" />
    <linearGradient
       inkscape:collect="always"
       xlink:href="#linearGradient3076"
       id="linearGradient3091"
       gradientUnits="userSpaceOnUse"
       gradientTransform="matrix(1.4144782,0,0,1.4144782,-119.78686,-418.126)"
       x1="115.80308"
       y1="985.47241"
       x2="115.80308"
       y2="1025.3639" />
    <linearGradient
       inkscape:collect="always"
       xlink:href="#linearGradient3076"
       id="linearGradient3093"
       gradientUnits="userSpaceOnUse"
       gradientTransform="matrix(1.4144782,0,0,1.4144782,-119.78686,-1375.4171)"
       x1="115.80308"
       y1="985.47241"
       x2="115.80308"
       y2="1025.3639" />
    <linearGradient
       inkscape:collect="always"
       xlink:href="#linearGradient3558"
       id="linearGradient3564"
       x1="93.242035"
       y1="1027.2615"
       x2="93.242035"
       y2="980.7262"
       gradientUnits="userSpaceOnUse" />
    <linearGradient
       inkscape:collect="always"
       xlink:href="#linearGradient3558"
       id="linearGradient4350"
       gradientUnits="userSpaceOnUse"
       x1="93.242035"
       y1="1027.2615"
       x2="93.242035"
       y2="980.7262" />
    <linearGradient
       inkscape:collect="always"
       xlink:href="#linearGradient4357"
       id="linearGradient4354"
       gradientUnits="userSpaceOnUse"
       x1="93.242035"
       y1="1027.2615"
       x2="93.242035"
       y2="980.7262"
       gradientTransform="translate(-56.571856,0)" />
    <linearGradient
       inkscape:collect="always"
       xlink:href="#linearGradient4357"
       id="linearGradient3067"
       gradientUnits="userSpaceOnUse"
       gradientTransform="translate(106.08939,0)"
       x1="93.242035"
       y1="1027.2615"
       x2="93.242035"
       y2="980.7262" />
    <linearGradient
       inkscape:collect="always"
       xlink:href="#linearGradient3090"
       id="linearGradient3071"
       gradientUnits="userSpaceOnUse"
       x1="22.54203"
       y1="1043.3966"
       x2="22.54203"
       y2="964.45898" />
    <linearGradient
       inkscape:collect="always"
       xlink:href="#linearGradient3083"
       id="linearGradient3074"
       gradientUnits="userSpaceOnUse"
       x1="53.796227"
       y1="1046.2493"
       x2="53.796227"
       y2="962.97437" />
    <radialGradient
       inkscape:collect="always"
       xlink:href="#linearGradient3153"
       id="radialGradient3159"
       cx="54.880909"
       cy="34.52375"
       fx="54.880909"
       fy="34.52375"
       r="22.501422"
       gradientTransform="matrix(1.6150702e-6,-1.2742782,1.2647002,0,4.4956971,76.124529)"
       gradientUnits="userSpaceOnUse" />
    <linearGradient
       inkscape:collect="always"
       xlink:href="#linearGradient3315"
       id="linearGradient4282"
       gradientUnits="userSpaceOnUse"
       x1="-103.53697"
       y1="34.18985"
       x2="-103.53697"
       y2="76.055702" />
    <radialGradient
       inkscape:collect="always"
       xlink:href="#linearGradient3307"
       id="radialGradient4284"
       gradientUnits="userSpaceOnUse"
       gradientTransform="matrix(0.8933484,-0.8933484,0.93715766,0.93715776,-63.178404,-85.969131)"
       cx="-106.66165"
       cy="64.455704"
       fx="-106.66165"
       fy="64.455704"
       r="21.375" />
    <linearGradient
       inkscape:collect="always"
       xlink:href="#linearGradient3325"
       id="linearGradient4289"
       gradientUnits="userSpaceOnUse"
       gradientTransform="matrix(1.0625,0,0,1.0625,332.05186,944.84632)"
       x1="-109.75"
       y1="81"
       x2="-109.75"
       y2="30.747408" />
    <linearGradient
       inkscape:collect="always"
       xlink:href="#linearGradient4330"
       id="linearGradient4336"
       x1="67.5"
       y1="1027.4835"
       x2="67.5"
       y2="980.20618"
       gradientUnits="userSpaceOnUse" />
    <linearGradient
       inkscape:collect="always"
       xlink:href="#linearGradient3104"
       id="linearGradient3102"
       gradientUnits="userSpaceOnUse"
       x1="22.54203"
       y1="1044.2549"
       x2="22.54203"
       y2="964.45898"
       gradientTransform="matrix(0.92682926,0,0,0.92682926,3.5121956,73.489888)" />
    <linearGradient
       inkscape:collect="always"
       xlink:href="#linearGradient3121"
       id="linearGradient3136"
       gradientUnits="userSpaceOnUse"
       gradientTransform="translate(0.95588675,955.84397)"
       x1="66"
       y1="51"
       x2="42"
       y2="32.5" />
    <linearGradient
       inkscape:collect="always"
       xlink:href="#linearGradient3112"
       id="linearGradient3118"
       x1="29.5"
       y1="1028.3849"
       x2="29.5"
       y2="978.69403"
       gradientUnits="userSpaceOnUse" />
  </defs>
  <sodipodi:namedview
     id="base"
     pagecolor="#ffffff"
     bordercolor="#666666"
     borderopacity="1.0"
     inkscape:pageopacity="0.0"
     inkscape:pageshadow="2"
     inkscape:zoom="0.70710678"
     inkscape:cx="-1.0167134"
     inkscape:cy="8.3432703"
     inkscape:document-units="px"
     inkscape:current-layer="layer1"
     showgrid="false"
     inkscape:window-width="682"
     inkscape:window-height="712"
     inkscape:window-x="0"
     inkscape:window-y="28"
     inkscape:window-maximized="0"
     showguides="true"
     inkscape:guide-bbox="true" />
  <metadata
     id="metadata7">
    <rdf:RDF>
      <cc:Work
         rdf:about="">
        <dc:format>image/svg+xml</dc:format>
        <dc:type
           rdf:resource="http://purl.org/dc/dcmitype/StillImage" />
        <dc:title />
      </cc:Work>
    </rdf:RDF>
  </metadata>
  <g
     inkscape:label="Layer 1"
     inkscape:groupmode="layer"
     id="layer1"
     transform="translate(0,-956.36218)">
    <rect
       style="opacity:0.05;fill:#000000;fill-opacity:1;stroke:none"
       id="rect3826"
       width="89"
       height="89"
       x="3.5"
       y="960.86218"
       rx="10.595235"
       ry="10.595235" />
    <g
       id="g3041">
      <rect
         style="opacity:0.05;fill:#000000;fill-opacity:1;stroke:none"
         id="rect3824"
         width="88"
         height="88"
         x="4"
         y="961.36218"
         rx="10.476188"
         ry="10.476188" />
      <rect
         ry="10.357141"
         rx="10.357141"
         y="961.86218"
         x="4.5"
         height="87"
         width="87"
         id="rect3822"
         style="opacity:0.05;fill:#000000;fill-opacity:1;stroke:none" />
      <rect
         style="opacity:0.1;fill:#000000;fill-opacity:1;stroke:none"
         id="rect3820"
         width="86"
         height="86"
         x="5"
         y="962.36218"
         rx="10.238094"
         ry="10.238094" />
      <rect
         ry="10.119047"
         rx="10.119047"
         y="962.86218"
         x="5.5"
         height="85"
         width="85"
         id="rect3818"
         style="opacity:0.1;fill:#000000;fill-opacity:1;stroke:none" />
      <rect
         style="opacity:0.3;fill:#000000;fill-opacity:1;stroke:none"
         id="rect3131"
         width="84"
         height="84"
         x="6"
         y="963.36218"
         rx="10"
         ry="10" />
    </g>
    <rect
       ry="10"
       rx="10"
       y="962.36218"
       x="6"
       height="84"
       width="84"
       id="rect3036"
       style="fill:url(#linearGradient3074);fill-opacity:1;stroke:none" />
    <path
       inkscape:connector-curvature="0"
       id="path3113"
       d="m 55.882156,983.36229 c -10.006209,0 -18.117845,8.11164 -18.117845,18.11781 0,3.0778 0.785019,5.9859 2.138912,8.5242 l -7.423284,7.4548 -2.138912,-2.139 c -0.583978,-0.584 -1.345335,-0.8807 -2.107458,-0.8807 -0.762123,0 -1.523479,0.2967 -2.107457,0.8807 l -3.239823,3.2398 c -1.167957,1.168 -1.167957,3.047 0,4.2149 l 2.107457,2.1075 -2.170366,2.2019 c -1.097839,1.0978 -1.097839,2.8654 0,3.9632 l 3.491459,3.4914 c 1.097839,1.0979 2.86544,1.0979 3.963279,0 l 17.079843,-17.0797 c 2.538321,1.3539 5.446494,2.1389 8.524195,2.1389 C 65.888365,1019.598 74,1011.4863 74,1001.4801 74,991.47393 65.888365,983.36229 55.882156,983.36229 z m 0,10.56875 c 4.169254,0 7.549102,3.37984 7.549102,7.54906 0,4.1692 -3.379848,7.5491 -7.549102,7.5491 -1.82405,0 -3.507623,-0.6531 -4.812553,-1.73 -0.279265,-0.2304 -0.542936,-0.4557 -0.786365,-0.7234 l -0.220182,-0.2832 c -1.076924,-1.3048 -1.730002,-2.9884 -1.730002,-4.8125 0,-4.16922 3.379847,-7.54906 7.549102,-7.54906 z"
       style="opacity:0.05;fill:#000000;fill-opacity:1;stroke:none" />
    <path
       style="opacity:0.05;fill:#000000;fill-opacity:1;stroke:none"
       d="m 55.882156,982.36225 c -10.006209,0 -18.117845,8.11163 -18.117845,18.11785 0,3.0778 0.785019,5.9859 2.138912,8.5242 l -7.423284,7.4548 -2.138912,-2.139 c -0.583978,-0.584 -1.345335,-0.8807 -2.107458,-0.8807 -0.762123,0 -1.523479,0.2967 -2.107457,0.8807 l -3.239823,3.2398 c -1.167957,1.168 -1.167957,3.047 0,4.2149 l 2.107457,2.1075 -2.170366,2.2019 c -1.097839,1.0978 -1.097839,2.8654 0,3.9632 l 3.491459,3.4914 c 1.097839,1.0979 2.86544,1.0979 3.963279,0 l 17.079843,-17.0797 c 2.538321,1.3539 5.446494,2.1389 8.524195,2.1389 C 65.888365,1018.598 74,1010.4863 74,1000.4801 74,990.47388 65.888365,982.36225 55.882156,982.36225 z m 0,10.56875 c 4.169254,0 7.549102,3.37983 7.549102,7.5491 0,4.1692 -3.379848,7.5491 -7.549102,7.5491 -1.82405,0 -3.507623,-0.6531 -4.812553,-1.73 -0.279265,-0.2304 -0.542936,-0.4557 -0.786365,-0.7234 l -0.220182,-0.2832 c -1.076924,-1.3048 -1.730002,-2.9884 -1.730002,-4.8125 0,-4.16926 3.379847,-7.5491 7.549102,-7.5491 z"
       id="path3115"
       inkscape:connector-curvature="0" />
    <path
       style="opacity:0.05;fill:#000000;fill-opacity:1;stroke:none"
       d="m 55.882156,981.36229 c -10.006209,0 -18.117845,8.11164 -18.117845,18.11785 0,3.07776 0.785019,5.98586 2.138912,8.52416 l -7.423284,7.4548 -2.138912,-2.139 c -0.583978,-0.584 -1.345335,-0.8807 -2.107458,-0.8807 -0.762123,0 -1.523479,0.2967 -2.107457,0.8807 l -3.239823,3.2398 c -1.167957,1.168 -1.167957,3.047 0,4.2149 l 2.107457,2.1075 -2.170366,2.2019 c -1.097839,1.0978 -1.097839,2.8654 0,3.9632 l 3.491459,3.4914 c 1.097839,1.0979 2.86544,1.0979 3.963279,0 l 17.079843,-17.0797 c 2.538321,1.3539 5.446494,2.1389 8.524195,2.1389 C 65.888365,1017.598 74,1009.4863 74,999.48014 74,989.47393 65.888365,981.36229 55.882156,981.36229 z m 0,10.56875 c 4.169254,0 7.549102,3.37984 7.549102,7.5491 0,4.16916 -3.379848,7.54906 -7.549102,7.54906 -1.82405,0 -3.507623,-0.6531 -4.812553,-1.73 -0.279265,-0.2304 -0.542936,-0.4557 -0.786365,-0.7234 l -0.220182,-0.2832 c -1.076924,-1.3048 -1.730002,-2.9884 -1.730002,-4.81246 0,-4.16926 3.379847,-7.5491 7.549102,-7.5491 z"
       id="path3108"
       inkscape:connector-curvature="0" />
    <path
       inkscape:connector-curvature="0"
       id="path3106"
       d="m 55.882156,980.36223 c -10.006209,0 -18.117845,8.11164 -18.117845,18.11785 0,3.07772 0.785019,5.98582 2.138912,8.52412 l -7.423284,7.4548 -2.138912,-2.139 c -0.583978,-0.584 -1.345335,-0.8807 -2.107458,-0.8807 -0.762123,0 -1.523479,0.2967 -2.107457,0.8807 l -3.239823,3.2398 c -1.167957,1.168 -1.167957,3.047 0,4.2149 l 2.107457,2.1075 -2.170366,2.2019 c -1.097839,1.0978 -1.097839,2.8654 0,3.9632 l 3.491459,3.4914 c 1.097839,1.0979 2.86544,1.0979 3.963279,0 l 17.079843,-17.0797 c 2.538321,1.3539 5.446494,2.1389 8.524195,2.1389 C 65.888365,1016.5979 74,1008.4862 74,998.48008 74,988.47387 65.888365,980.36223 55.882156,980.36223 z m 0,10.56875 c 4.169254,0 7.549102,3.37984 7.549102,7.5491 0,4.16912 -3.379848,7.54902 -7.549102,7.54902 -1.82405,0 -3.507623,-0.6531 -4.812553,-1.73 -0.279265,-0.2304 -0.542936,-0.4557 -0.786365,-0.7234 l -0.220182,-0.2832 c -1.076924,-1.3048 -1.730002,-2.9884 -1.730002,-4.81242 0,-4.16926 3.379847,-7.5491 7.549102,-7.5491 z"
       style="fill:#000000;fill-opacity:1;stroke:none;opacity:0.05" />
    <path
       inkscape:connector-curvature="0"
       id="path3111"
       d="m 55.882156,979.36225 c -10.006209,0 -18.117845,8.11164 -18.117845,18.11785 0,3.0778 0.785019,5.9859 2.138912,8.5242 l -7.423284,7.4548 -2.138912,-2.139 c -0.583978,-0.584 -1.345335,-0.8807 -2.107458,-0.8807 -0.762123,0 -1.523479,0.2967 -2.107457,0.8807 l -3.239823,3.2398 c -1.167957,1.168 -1.167957,3.047 0,4.2149 l 2.107457,2.1075 -2.170366,2.2019 c -1.097839,1.0978 -1.097839,2.8654 0,3.9632 l 3.491459,3.4914 c 1.097839,1.0979 2.86544,1.0979 3.963279,0 l 17.079843,-17.0797 c 2.538321,1.3539 5.446494,2.1389 8.524195,2.1389 C 65.888365,1015.598 74,1007.4863 74,997.4801 74,987.47389 65.888365,979.36225 55.882156,979.36225 z m 0,10.56875 c 4.169254,0 7.549102,3.37984 7.549102,7.5491 0,4.1692 -3.379848,7.5491 -7.549102,7.5491 -1.82405,0 -3.507623,-0.6531 -4.812553,-1.73 -0.279265,-0.2304 -0.542936,-0.4557 -0.786365,-0.7234 l -0.220182,-0.2832 c -1.076924,-1.3048 -1.730002,-2.98844 -1.730002,-4.8125 0,-4.16926 3.379847,-7.5491 7.549102,-7.5491 z"
       style="opacity:0.05;fill:#000000;fill-opacity:1;stroke:none" />
    <path
       style="fill:url(#linearGradient3118);fill-opacity:1;stroke:none"
       d="m 55.882156,978.36223 c -10.006209,0 -18.117845,8.11164 -18.117845,18.11785 0,3.07774 0.785019,5.98582 2.138912,8.52412 l -7.423284,7.4548 -2.138912,-2.139 c -0.583978,-0.584 -1.345335,-0.8807 -2.107458,-0.8807 -0.762123,0 -1.523479,0.2967 -2.107457,0.8807 l -3.239823,3.2398 c -1.167957,1.168 -1.167957,3.047 0,4.2149 l 2.107457,2.1075 -2.170366,2.2019 c -1.097839,1.0978 -1.097839,2.8654 0,3.9632 l 3.491459,3.4914 c 1.097839,1.0979 2.86544,1.0979 3.963279,0 l 17.079843,-17.0797 c 2.538321,1.3539 5.446494,2.1389 8.524195,2.1389 C 65.888365,1014.5979 74,1006.4862 74,996.48008 74,986.47387 65.888365,978.36223 55.882156,978.36223 z m 0,10.56875 c 4.169254,0 7.549102,3.37984 7.549102,7.5491 0,4.16912 -3.379848,7.54902 -7.549102,7.54902 -1.82405,0 -3.507623,-0.6531 -4.812553,-1.73 -0.279265,-0.2304 -0.542936,-0.4557 -0.786365,-0.7234 l -0.220182,-0.2832 c -1.076924,-1.30482 -1.730002,-2.98837 -1.730002,-4.81242 0,-4.16926 3.379847,-7.5491 7.549102,-7.5491 z"
       id="path3110"
       inkscape:connector-curvature="0" />
  </g>
</svg>
