<?xml version="1.0" encoding="UTF-8" standalone="no"?>
<!-- Created with Inkscape (http://www.inkscape.org/) -->

<svg
   xmlns:dc="http://purl.org/dc/elements/1.1/"
   xmlns:cc="http://creativecommons.org/ns#"
   xmlns:rdf="http://www.w3.org/1999/02/22-rdf-syntax-ns#"
   xmlns:svg="http://www.w3.org/2000/svg"
   xmlns="http://www.w3.org/2000/svg"
   xmlns:xlink="http://www.w3.org/1999/xlink"
   xmlns:sodipodi="http://sodipodi.sourceforge.net/DTD/sodipodi-0.dtd"
   xmlns:inkscape="http://www.inkscape.org/namespaces/inkscape"
   width="96"
   height="96"
   id="svg2"
   version="1.1"
   inkscape:version="0.48.4 r9939"
   sodipodi:docname="user-trash-full.svg">
  <defs
     id="defs4">
    <linearGradient
       inkscape:collect="always"
       id="linearGradient3071">
      <stop
         style="stop-color:#800000;stop-opacity:1"
         offset="0"
         id="stop3073" />
      <stop
         style="stop-color:#d40000;stop-opacity:1"
         offset="1"
         id="stop3076" />
    </linearGradient>
    <linearGradient
       id="linearGradient4246"
       inkscape:collect="always">
      <stop
         id="stop4248"
         offset="0"
         style="stop-color:#ffffff;stop-opacity:1" />
      <stop
         id="stop4250"
         offset="1"
         style="stop-color:#ffffff;stop-opacity:0" />
    </linearGradient>
    <linearGradient
       inkscape:collect="always"
       id="linearGradient4178">
      <stop
         style="stop-color:#ccffaa;stop-opacity:1"
         offset="0"
         id="stop4180" />
      <stop
         style="stop-color:#66ff00;stop-opacity:1"
         offset="1"
         id="stop4182" />
    </linearGradient>
    <linearGradient
       id="linearGradient4146"
       inkscape:collect="always">
      <stop
         id="stop4148"
         offset="0"
         style="stop-color:#ded7e7;stop-opacity:1" />
      <stop
         id="stop4150"
         offset="1"
         style="stop-color:#f3edf7;stop-opacity:1" />
    </linearGradient>
    <linearGradient
       id="linearGradient4130">
      <stop
         id="stop4132"
         offset="0"
         style="stop-color:#000000;stop-opacity:1" />
      <stop
         style="stop-color:#333333;stop-opacity:1"
         offset="0.05052935"
         id="stop4134" />
      <stop
         id="stop4136"
         offset="0.18049203"
         style="stop-color:#000000;stop-opacity:1" />
      <stop
         style="stop-color:#000000;stop-opacity:1"
         offset="0.82271612"
         id="stop4138" />
      <stop
         id="stop4140"
         offset="0.94249851"
         style="stop-color:#333333;stop-opacity:1" />
      <stop
         id="stop4142"
         offset="1"
         style="stop-color:#000000;stop-opacity:1" />
    </linearGradient>
    <linearGradient
       id="linearGradient4293">
      <stop
         style="stop-color:#3b69a4;stop-opacity:1;"
         offset="0"
         id="stop4295" />
      <stop
         id="stop4301"
         offset="0.12751994"
         style="stop-color:#3b69a4;stop-opacity:0" />
      <stop
         style="stop-color:#3b69a4;stop-opacity:0"
         offset="0.88838893"
         id="stop4303" />
      <stop
         style="stop-color:#3b69a4;stop-opacity:1;"
         offset="1"
         id="stop4297" />
    </linearGradient>
    <linearGradient
       id="linearGradient3059">
      <stop
         style="stop-color:#101018;stop-opacity:1"
         offset="0"
         id="stop3061" />
      <stop
         id="stop4042"
         offset="0.05052935"
         style="stop-color:#212442;stop-opacity:1" />
      <stop
         style="stop-color:#100c18;stop-opacity:1"
         offset="0.18049203"
         id="stop4044" />
      <stop
         id="stop3352"
         offset="0.82271612"
         style="stop-color:#100c18;stop-opacity:1" />
      <stop
         style="stop-color:#212442;stop-opacity:1;"
         offset="0.94249851"
         id="stop3354" />
      <stop
         style="stop-color:#101018;stop-opacity:1"
         offset="1"
         id="stop3064" />
    </linearGradient>
    <linearGradient
       inkscape:collect="always"
       id="linearGradient3048">
      <stop
         style="stop-color:#c16d16;stop-opacity:1"
         offset="0"
         id="stop3050" />
      <stop
         style="stop-color:#ff8e31;stop-opacity:1"
         offset="1"
         id="stop3052" />
    </linearGradient>
    <linearGradient
       inkscape:collect="always"
       id="linearGradient3119">
      <stop
         style="stop-color:#92948f;stop-opacity:0"
         offset="0"
         id="stop3121" />
      <stop
         id="stop3123"
         offset="0.4283945"
         style="stop-color:#9b9e98;stop-opacity:1" />
      <stop
         style="stop-color:#939690;stop-opacity:0"
         offset="1"
         id="stop3125" />
    </linearGradient>
    <linearGradient
       id="linearGradient3073"
       inkscape:collect="always">
      <stop
         id="stop3075"
         offset="0"
         style="stop-color:#ffffff;stop-opacity:0" />
      <stop
         style="stop-color:#ffffff;stop-opacity:1"
         offset="0.45872402"
         id="stop3085" />
      <stop
         id="stop3083"
         offset="1"
         style="stop-color:#ffffff;stop-opacity:0" />
    </linearGradient>
    <linearGradient
       inkscape:collect="always"
       id="linearGradient3047">
      <stop
         style="stop-color:#000000;stop-opacity:1"
         offset="0"
         id="stop3049" />
      <stop
         id="stop3055"
         offset="0.06123874"
         style="stop-color:#1a1a1a;stop-opacity:1" />
      <stop
         style="stop-color:#333333;stop-opacity:1"
         offset="0.16480456"
         id="stop3057" />
      <stop
         id="stop3059"
         offset="0.55385184"
         style="stop-color:#4d4d4d;stop-opacity:1" />
      <stop
         style="stop-color:#999999;stop-opacity:1"
         offset="1"
         id="stop3051" />
    </linearGradient>
    <linearGradient
       id="linearGradient3041"
       inkscape:collect="always">
      <stop
         id="stop3043"
         offset="0"
         style="stop-color:#1a1a1a;stop-opacity:1" />
      <stop
         id="stop3045"
         offset="1"
         style="stop-color:#808080;stop-opacity:1" />
    </linearGradient>
    <linearGradient
       inkscape:collect="always"
       id="linearGradient3029">
      <stop
         style="stop-color:#333333;stop-opacity:1"
         offset="0"
         id="stop3031" />
      <stop
         style="stop-color:#e0e0dd;stop-opacity:0;"
         offset="1"
         id="stop3033" />
    </linearGradient>
    <linearGradient
       inkscape:collect="always"
       xlink:href="#linearGradient3029"
       id="linearGradient3035"
       x1="35.355339"
       y1="1030.3622"
       x2="35.355339"
       y2="975.33282"
       gradientUnits="userSpaceOnUse"
       gradientTransform="matrix(1.1638085,0,0,1.1638085,-7.862809,-164.23642)" />
    <linearGradient
       inkscape:collect="always"
       xlink:href="#linearGradient3041"
       id="linearGradient3039"
       gradientUnits="userSpaceOnUse"
       x1="35.355339"
       y1="1030.3622"
       x2="35.355339"
       y2="975.33282"
       gradientTransform="matrix(1.1218695,0,0,1.1218695,-5.8497348,-122.18782)" />
    <linearGradient
       inkscape:collect="always"
       xlink:href="#linearGradient3047"
       id="linearGradient3053"
       x1="40"
       y1="1043.4336"
       x2="39.285713"
       y2="972.33325"
       gradientUnits="userSpaceOnUse" />
    <linearGradient
       inkscape:collect="always"
       xlink:href="#linearGradient3073"
       id="linearGradient3113"
       gradientUnits="userSpaceOnUse"
       gradientTransform="translate(0,-956.36218)"
       x1="14.869445"
       y1="978.90387"
       x2="24.52651"
       y2="969.24683" />
    <linearGradient
       inkscape:collect="always"
       xlink:href="#linearGradient3073"
       id="linearGradient3115"
       gradientUnits="userSpaceOnUse"
       gradientTransform="matrix(-1,0,0,1,96,-956.36218)"
       x1="15.152279"
       y1="978.62103"
       x2="26.263966"
       y2="967.50934" />
    <linearGradient
       inkscape:collect="always"
       xlink:href="#linearGradient3119"
       id="linearGradient3117"
       gradientUnits="userSpaceOnUse"
       gradientTransform="translate(0,-956.36218)"
       x1="13.131983"
       y1="980.64136"
       x2="25.549681"
       y2="967.86646" />
    <linearGradient
       inkscape:collect="always"
       xlink:href="#linearGradient3119"
       id="linearGradient3129"
       gradientUnits="userSpaceOnUse"
       gradientTransform="matrix(-1,0,0,1,96,0)"
       x1="13.131983"
       y1="980.64136"
       x2="25.549681"
       y2="967.86646" />
    <linearGradient
       inkscape:collect="always"
       xlink:href="#linearGradient3048"
       id="linearGradient3054"
       x1="49.267925"
       y1="996.57349"
       x2="49.267925"
       y2="1045.8627"
       gradientUnits="userSpaceOnUse" />
    <linearGradient
       inkscape:collect="always"
       xlink:href="#linearGradient3048"
       id="linearGradient3058"
       x1="115.80308"
       y1="985.47241"
       x2="115.80308"
       y2="1033.5543"
       gradientUnits="userSpaceOnUse" />
    <linearGradient
       inkscape:collect="always"
       xlink:href="#linearGradient4130"
       id="linearGradient4128"
       gradientUnits="userSpaceOnUse"
       x1="7.7721348"
       y1="1046.0226"
       x2="87.516144"
       y2="1046.0226" />
    <linearGradient
       inkscape:collect="always"
       xlink:href="#linearGradient4146"
       id="linearGradient4144"
       gradientUnits="userSpaceOnUse"
       x1="48.543396"
       y1="1030.6263"
       x2="48.543396"
       y2="963.96973"
       gradientTransform="matrix(0.97560976,0,0,0.97560976,0.17073171,25.179566)" />
    <linearGradient
       inkscape:collect="always"
       xlink:href="#linearGradient3071"
       id="linearGradient4158"
       x1="21.011322"
       y1="1036.0603"
       x2="21.011322"
       y2="962.49835"
       gradientUnits="userSpaceOnUse" />
    <radialGradient
       inkscape:collect="always"
       xlink:href="#linearGradient4178"
       id="radialGradient4186"
       cx="-18.219341"
       cy="85.049187"
       fx="-18.219341"
       fy="85.049187"
       r="3.2660329"
       gradientUnits="userSpaceOnUse"
       gradientTransform="matrix(0.72555705,-0.72555705,0.70710569,0.70710787,-65.138933,11.691067)" />
    <linearGradient
       inkscape:collect="always"
       xlink:href="#linearGradient4146"
       id="linearGradient4193"
       gradientUnits="userSpaceOnUse"
       gradientTransform="matrix(0.97560976,0,0,0.97560976,0.17073171,25.179566)"
       x1="48.543396"
       y1="1030.6263"
       x2="48.543396"
       y2="963.96973" />
    <linearGradient
       inkscape:collect="always"
       xlink:href="#linearGradient3071"
       id="linearGradient4197"
       gradientUnits="userSpaceOnUse"
       gradientTransform="matrix(0.97560976,0,0,0.97560976,1.1707317,24.179546)"
       x1="48.543396"
       y1="1030.6263"
       x2="48.543396"
       y2="963.96973" />
    <linearGradient
       inkscape:collect="always"
       xlink:href="#linearGradient4130"
       id="linearGradient4213"
       gradientUnits="userSpaceOnUse"
       x1="7.7721348"
       y1="1046.0226"
       x2="87.516144"
       y2="1046.0226"
       gradientTransform="translate(0,-956.36218)" />
    <linearGradient
       inkscape:collect="always"
       xlink:href="#linearGradient4146"
       id="linearGradient4241"
       gradientUnits="userSpaceOnUse"
       gradientTransform="matrix(0.97560976,0,0,0.97560976,1.1707317,-932.18263)"
       x1="48.543396"
       y1="1030.6263"
       x2="48.543396"
       y2="963.96973" />
    <linearGradient
       inkscape:collect="always"
       xlink:href="#linearGradient4246"
       id="linearGradient4244"
       gradientUnits="userSpaceOnUse"
       gradientTransform="matrix(1.0243903,0,0,1.0243903,-1.1707318,-24.501464)"
       x1="67.973091"
       y1="1017.4982"
       x2="48.543396"
       y2="963.96973" />
    <linearGradient
       inkscape:collect="always"
       xlink:href="#linearGradient3071"
       id="linearGradient3082"
       gradientUnits="userSpaceOnUse"
       x1="21.011322"
       y1="1036.0603"
       x2="21.011322"
       y2="962.49835"
       gradientTransform="translate(0,-1.00002)" />
    <linearGradient
       inkscape:collect="always"
       xlink:href="#linearGradient3071"
       id="linearGradient3084"
       gradientUnits="userSpaceOnUse"
       x1="21.011322"
       y1="1036.0603"
       x2="21.011322"
       y2="962.49835"
       gradientTransform="translate(0,-956.36218)" />
    <linearGradient
       inkscape:collect="always"
       xlink:href="#linearGradient4293-5"
       id="linearGradient4299"
       x1="58.404354"
       y1="-11.586967"
       x2="178.93112"
       y2="-11.586967"
       gradientUnits="userSpaceOnUse" />
    <linearGradient
       id="linearGradient4293-5">
      <stop
         style="stop-color:#ffffff;stop-opacity:1;"
         offset="0"
         id="stop4295-7" />
      <stop
         id="stop4301-0"
         offset="0.12751994"
         style="stop-color:#ffffff;stop-opacity:0;" />
      <stop
         style="stop-color:#ffffff;stop-opacity:0;"
         offset="0.88838893"
         id="stop4303-1" />
      <stop
         style="stop-color:#ffffff;stop-opacity:1;"
         offset="1"
         id="stop4297-7" />
    </linearGradient>
    <linearGradient
       inkscape:collect="always"
       xlink:href="#linearGradient4293-5"
       id="linearGradient4307"
       gradientUnits="userSpaceOnUse"
       x1="58.404354"
       y1="-11.586967"
       x2="178.93112"
       y2="-11.586967" />
    <linearGradient
       id="linearGradient3380">
      <stop
         style="stop-color:#3b69a4;stop-opacity:1;"
         offset="0"
         id="stop3382" />
      <stop
         id="stop3384"
         offset="0.12751994"
         style="stop-color:#3b69a4;stop-opacity:0" />
      <stop
         style="stop-color:#3b69a4;stop-opacity:0"
         offset="0.88838893"
         id="stop3386" />
      <stop
         style="stop-color:#3b69a4;stop-opacity:1;"
         offset="1"
         id="stop3388" />
    </linearGradient>
    <linearGradient
       inkscape:collect="always"
       xlink:href="#linearGradient4293-5"
       id="linearGradient4311"
       gradientUnits="userSpaceOnUse"
       x1="58.404354"
       y1="-11.586967"
       x2="178.93112"
       y2="-11.586967" />
    <linearGradient
       id="linearGradient3391">
      <stop
         style="stop-color:#3b69a4;stop-opacity:1;"
         offset="0"
         id="stop3393" />
      <stop
         id="stop3395"
         offset="0.12751994"
         style="stop-color:#3b69a4;stop-opacity:0" />
      <stop
         style="stop-color:#3b69a4;stop-opacity:0"
         offset="0.88838893"
         id="stop3397" />
      <stop
         style="stop-color:#3b69a4;stop-opacity:1;"
         offset="1"
         id="stop3399" />
    </linearGradient>
    <linearGradient
       y2="-11.586967"
       x2="178.93112"
       y1="-11.586967"
       x1="58.404354"
       gradientUnits="userSpaceOnUse"
       id="linearGradient3404"
       xlink:href="#linearGradient4293-5"
       inkscape:collect="always" />
    <linearGradient
       inkscape:collect="always"
       xlink:href="#linearGradient4293-5"
       id="linearGradient4234"
       gradientUnits="userSpaceOnUse"
       x1="58.404354"
       y1="-11.586967"
       x2="178.93112"
       y2="-11.586967" />
    <linearGradient
       inkscape:collect="always"
       xlink:href="#linearGradient4293-5"
       id="linearGradient4236"
       gradientUnits="userSpaceOnUse"
       x1="58.404354"
       y1="-11.586967"
       x2="178.93112"
       y2="-11.586967" />
    <linearGradient
       inkscape:collect="always"
       xlink:href="#linearGradient4293-5"
       id="linearGradient4238"
       gradientUnits="userSpaceOnUse"
       x1="58.404354"
       y1="-11.586967"
       x2="178.93112"
       y2="-11.586967" />
  </defs>
  <sodipodi:namedview
     id="base"
     pagecolor="#ffffff"
     bordercolor="#666666"
     borderopacity="1.0"
     inkscape:pageopacity="0.0"
     inkscape:pageshadow="2"
     inkscape:zoom="2.7604166"
     inkscape:cx="-5.3222615"
     inkscape:cy="61.52257"
     inkscape:document-units="px"
     inkscape:current-layer="layer1"
     showgrid="false"
     inkscape:window-width="1366"
     inkscape:window-height="701"
     inkscape:window-x="0"
     inkscape:window-y="28"
     inkscape:window-maximized="1"
     showguides="true"
     inkscape:guide-bbox="true" />
  <metadata
     id="metadata7">
    <rdf:RDF>
      <cc:Work
         rdf:about="">
        <dc:format>image/svg+xml</dc:format>
        <dc:type
           rdf:resource="http://purl.org/dc/dcmitype/StillImage" />
        <dc:title />
      </cc:Work>
    </rdf:RDF>
  </metadata>
  <g
     inkscape:label="Layer 1"
     inkscape:groupmode="layer"
     id="layer1"
     transform="translate(0,-956.36218)">
    <rect
       style="opacity:0.05;fill:#000000;fill-opacity:1;stroke:none"
       id="rect3826"
       width="89"
       height="89"
       x="3.5"
       y="960.86218"
       rx="10.595235"
       ry="10.595235" />
    <g
       id="g3041">
      <rect
         style="opacity:0.05;fill:#000000;fill-opacity:1;stroke:none"
         id="rect3824"
         width="88"
         height="88"
         x="4"
         y="961.36218"
         rx="10.476188"
         ry="10.476188" />
      <rect
         ry="10.357141"
         rx="10.357141"
         y="961.86218"
         x="4.5"
         height="87"
         width="87"
         id="rect3822"
         style="opacity:0.05;fill:#000000;fill-opacity:1;stroke:none" />
      <rect
         style="opacity:0.1;fill:#000000;fill-opacity:1;stroke:none"
         id="rect3820"
         width="86"
         height="86"
         x="5"
         y="962.36218"
         rx="10.238094"
         ry="10.238094" />
      <rect
         ry="10.119047"
         rx="10.119047"
         y="962.86218"
         x="5.5"
         height="85"
         width="85"
         id="rect3818"
         style="opacity:0.1;fill:#000000;fill-opacity:1;stroke:none" />
      <rect
         style="opacity:0.3;fill:#000000;fill-opacity:1;stroke:none"
         id="rect3131"
         width="84"
         height="84"
         x="6"
         y="963.36218"
         rx="10"
         ry="10" />
    </g>
    <rect
       ry="10"
       rx="10"
       y="962.36218"
       x="6"
       height="84"
       width="84"
       id="rect3036"
       style="fill:url(#linearGradient4128);fill-opacity:1;stroke:none" />
    <path
       style="fill:url(#linearGradient4158);fill-opacity:1;stroke:none"
       d="m 16,962.36218 64,0 c 5.54,0 10,4.46 10,10 l 0,54.00002 c 0,5.54 -4.46,10 -10,10 l -64,0 c -5.54,0 -10,-4.46 -10,-10 l 0,-54.00002 c 0,-5.54 4.46,-10 10,-10 z"
       id="rect4125"
       inkscape:connector-curvature="0"
       sodipodi:nodetypes="sssssssss" />
    <path
       sodipodi:type="arc"
       style="opacity:0.2;fill:url(#linearGradient4234);fill-opacity:1;stroke:none"
       id="path4279"
       sodipodi:cx="118.60182"
       sodipodi:cy="-8.7692127"
       sodipodi:rx="62.759064"
       sodipodi:ry="62.759064"
       d="m 181.36089,-8.7692127 c 0,34.6608737 -28.09819,62.7590637 -62.75907,62.7590637 -34.660872,0 -62.759062,-28.09819 -62.759062,-62.7590637 0,-34.6608743 28.09819,-62.7590633 62.759062,-62.7590633 34.66088,0 62.75907,28.098189 62.75907,62.7590633 z"
       transform="matrix(0.76482977,0,0,0.76482977,-42.710204,1006.0691)" />
    <path
       transform="matrix(0.65870732,0,0,0.65870732,-30.123888,1005.1385)"
       d="m 181.36089,-8.7692127 c 0,34.6608737 -28.09819,62.7590637 -62.75907,62.7590637 -34.660872,0 -62.759062,-28.09819 -62.759062,-62.7590637 0,-34.6608743 28.09819,-62.7590633 62.759062,-62.7590633 34.66088,0 62.75907,28.098189 62.75907,62.7590633 z"
       sodipodi:ry="62.759064"
       sodipodi:rx="62.759064"
       sodipodi:cy="-8.7692127"
       sodipodi:cx="118.60182"
       id="path4305"
       style="opacity:0.35;fill:url(#linearGradient4236);fill-opacity:1;stroke:none"
       sodipodi:type="arc" />
    <path
       sodipodi:type="arc"
       style="opacity:0.5;fill:url(#linearGradient4238);fill-opacity:1;stroke:none"
       id="path4309"
       sodipodi:cx="118.60182"
       sodipodi:cy="-8.7692127"
       sodipodi:rx="62.759064"
       sodipodi:ry="62.759064"
       d="m 181.36089,-8.7692127 c 0,34.6608737 -28.09819,62.7590637 -62.75907,62.7590637 -34.660872,0 -62.759062,-28.09819 -62.759062,-62.7590637 0,-34.6608743 28.09819,-62.7590633 62.759062,-62.7590633 34.66088,0 62.75907,28.098189 62.75907,62.7590633 z"
       transform="matrix(0.53625834,0,0,0.53625834,-15.601216,1004.0647)" />
    <path
       style="fill:#4d4d4d;fill-opacity:1;stroke:none"
       d="M 6 74.5 L 6 75.5 C 6 81.04 10.46 85.5 16 85.5 L 80 85.5 C 85.54 85.5 90 81.04 90 75.5 L 90 74.5 C 90 80.04 85.54 84.5 80 84.5 L 16 84.5 C 10.46 84.5 6 80.04 6 74.5 z "
       transform="translate(0,956.36218)"
       id="rect4160" />
    <path
       style="opacity:1;fill:#2b0000;fill-opacity:1;stroke:none"
       d="m 25.03125,80 1.09375,1.875 43.75,0 L 70.96875,80 z"
       transform="translate(0,956.36218)"
       id="path4202"
       inkscape:connector-curvature="0"
       sodipodi:nodetypes="ccccc" />
    <path
       style="fill:#550000;fill-opacity:1;stroke:none"
       d="M 6 69 L 6 70 C 6 75.54 10.46 80 16 80 L 80 80 C 85.54 80 90 75.54 90 70 L 90 69 C 90 74.54 85.54 79 80 79 L 16 79 C 10.46 79 6 74.54 6 69 z "
       transform="translate(0,956.36218)"
       id="path3078" />
    <g
       id="g3139"
       inkscape:label="status"
       style="fill:#ffffff;display:inline"
       transform="matrix(2,0,0,2,-929.0004,633.36218)" />
    <g
       style="fill:#ffffff"
       id="g3141"
       inkscape:label="devices"
       transform="matrix(2,0,0,2,-929.0004,633.36218)" />
    <g
       style="fill:#ffffff"
       id="g3143"
       inkscape:label="apps"
       transform="matrix(2,0,0,2,-929.0004,633.36218)" />
    <g
       style="fill:#ffffff"
       id="g3149"
       inkscape:label="mimetypes"
       transform="matrix(2,0,0,2,-929.0004,633.36218)" />
    <g
       id="g3151"
       inkscape:label="emblems"
       style="fill:#ffffff;display:inline"
       transform="matrix(2,0,0,2,-929.0004,633.36218)" />
    <g
       id="g3153"
       inkscape:label="emotes"
       style="fill:#ffffff;display:inline"
       transform="matrix(2,0,0,2,-929.0004,633.36218)" />
    <g
       id="g3155"
       inkscape:label="categories"
       style="fill:#ffffff;display:inline"
       transform="matrix(2,0,0,2,-929.0004,633.36218)" />
    <g
       id="g3157"
       inkscape:label="actions"
       style="fill:#ffffff;display:inline"
       transform="matrix(2,0,0,2,-929.0004,633.36218)" />
    <g
       transform="matrix(2,0,0,2,-929.0004,633.36219)"
       style="fill:#ff8080;display:inline"
       inkscape:label="status"
       id="g3185" />
    <g
       transform="matrix(2,0,0,2,-929.0004,633.36219)"
       inkscape:label="devices"
       id="g3187"
       style="fill:#ff8080" />
    <g
       transform="matrix(2,0,0,2,-929.0004,633.36219)"
       inkscape:label="apps"
       id="g3189"
       style="fill:#ff8080" />
    <path
       style="opacity:0.2;fill:url(#linearGradient4244);fill-opacity:1;stroke:none"
       d="M 16.007813,962.36218 C 10.467813,962.36218 6,966.82999 6,972.36998 l 0,34.97812 c 18.909513,-17.61792 49.37527,-29.31252 84,-30.18749 l 0,-4.79063 c 0,-5.53999 -4.467813,-10.0078 -10.007813,-10.0078 l -63.984374,0 z"
       id="path4219"
       inkscape:connector-curvature="0" />
    <g
       transform="matrix(2,0,0,2,-929.0004,633.36219)"
       inkscape:label="mimetypes"
       id="g3195"
       style="fill:#ff8080" />
    <g
       transform="matrix(2,0,0,2,-929.0004,633.36219)"
       style="fill:#ff8080;display:inline"
       inkscape:label="emblems"
       id="g3197" />
    <g
       transform="matrix(2,0,0,2,-929.0004,633.36219)"
       style="fill:#ff8080;display:inline"
       inkscape:label="emotes"
       id="g3199" />
    <g
       transform="matrix(2,0,0,2,-929.0004,633.36219)"
       style="fill:#ff8080;display:inline"
       inkscape:label="categories"
       id="g3201" />
    <g
       transform="matrix(2,0,0,2,-929.0004,633.36219)"
       style="fill:#ff8080;display:inline"
       inkscape:label="actions"
       id="g3203" />
    <g
       id="g3207"
       inkscape:label="status"
       style="fill:#ff8080;display:inline"
       transform="matrix(2,0,0,2,-929.0004,634.36218)" />
    <g
       style="fill:#ff8080"
       id="g3209"
       inkscape:label="devices"
       transform="matrix(2,0,0,2,-929.0004,634.36218)" />
    <g
       style="fill:#ff8080"
       id="g3211"
       inkscape:label="apps"
       transform="matrix(2,0,0,2,-929.0004,634.36218)" />
    <g
       style="fill:#ff8080"
       id="g3217"
       inkscape:label="mimetypes"
       transform="matrix(2,0,0,2,-929.0004,634.36218)" />
    <g
       id="g3219"
       inkscape:label="emblems"
       style="fill:#ff8080;display:inline"
       transform="matrix(2,0,0,2,-929.0004,634.36218)" />
    <g
       id="g3221"
       inkscape:label="emotes"
       style="fill:#ff8080;display:inline"
       transform="matrix(2,0,0,2,-929.0004,634.36218)" />
    <g
       id="g3223"
       inkscape:label="categories"
       style="fill:#ff8080;display:inline"
       transform="matrix(2,0,0,2,-929.0004,634.36218)" />
    <g
       id="g3225"
       inkscape:label="actions"
       style="fill:#ff8080;display:inline"
       transform="matrix(2,0,0,2,-929.0004,634.36218)" />
    <g
       transform="matrix(2,0,0,2,-929.0004,633.36219)"
       style="fill:#ffffff;display:inline"
       inkscape:label="status"
       id="g3107" />
    <g
       transform="matrix(2,0,0,2,-929.0004,633.36219)"
       inkscape:label="devices"
       id="g3109"
       style="fill:#ffffff" />
    <g
       transform="matrix(2,0,0,2,-929.0004,633.36219)"
       inkscape:label="apps"
       id="g3111"
       style="fill:#ffffff" />
    <g
       transform="matrix(2,0,0,2,-929.0004,633.36219)"
       inkscape:label="mimetypes"
       id="g3117"
       style="fill:#ffffff" />
    <g
       transform="matrix(2,0,0,2,-929.0004,633.36219)"
       style="fill:#ffffff;display:inline"
       inkscape:label="emblems"
       id="g3119" />
    <g
       transform="matrix(2,0,0,2,-929.0004,633.36219)"
       style="fill:#ffffff;display:inline"
       inkscape:label="emotes"
       id="g3121" />
    <g
       transform="matrix(2,0,0,2,-929.0004,633.36219)"
       style="fill:#ffffff;display:inline"
       inkscape:label="categories"
       id="g3123" />
    <g
       transform="matrix(2,0,0,2,-929.0004,633.36219)"
       style="fill:#ffffff;display:inline"
       inkscape:label="actions"
       id="g3125" />
    <path
       inkscape:connector-curvature="0"
       d="m 40.923783,987.30757 0,-1.94128 14.027354,0 0,1.94128 z m -1.064576,-3.94519 c -0.982576,0 -1.59525,0.45779 -2.066529,0.93933 -0.471279,0.48154 -0.87671,1.1192 -0.87671,2.06653 l 0,0.93933 -4.007815,0 0,4.00782 30.058624,0 0,-4.00782 -4.007825,0 0,-0.68884 0,-0.0627 c -0.04789,-0.86288 -0.341145,-1.50752 -0.814088,-2.06653 -0.448334,-0.52992 -1.255828,-1.06069 -2.317018,-1.06458 l 0,-0.0627 -0.125244,0 -15.843395,0 z m 17.095837,9.95692 4.007826,0 c 3.35384,5.86553 2.279785,11.7312 0,17.5968 -0.87173,2.2428 -1.968609,4.4461 -4.383558,4.4461 l -17.283704,0 c -2.414949,0 -3.560082,-2.1851 -4.383547,-4.4461 -2.088713,-5.735 -3.204169,-11.53088 0,-17.5968 l 4.007815,0 c -3.449266,5.90722 -1.973549,11.9636 0,18.0351 l 18.035168,0 c 2.196103,-6.0783 3.269195,-12.12247 0,-18.0351 z m -9.956916,-0.0331 0,16.0643 1.941286,0 0,-16.0643 z m 3.945193,0 c 3.531286,4.45499 1.663865,11.2845 0,16.0643 l 2.003908,0 c 1.653104,-4.6257 3.686028,-11.27686 0,-16.0643 z m -7.953008,0 c -3.641641,5.2275 -1.715866,11.6484 0,16.0643 l 1.941286,0 c -1.733761,-4.4521 -3.331878,-10.95864 0,-16.0643 z"
       id="path10937"
       sodipodi:nodetypes="ccccccssccccccccscccccccsssscccccccccccccccccccc"
       style="font-size:medium;font-style:normal;font-variant:normal;font-weight:normal;font-stretch:normal;text-indent:0pt;text-align:start;text-decoration:none;line-height:normal;letter-spacing:normal;word-spacing:normal;text-transform:none;direction:ltr;text-anchor:start;color:#bebebe;fill:#ffffff;fill-opacity:1;stroke:none;stroke-width:2;marker:none;visibility:visible;display:inline;overflow:visible;font-family:Bitstream Vera Sans" />
    <path
       style="font-size:medium;font-style:normal;font-variant:normal;font-weight:normal;font-stretch:normal;text-indent:0pt;text-align:start;text-decoration:none;line-height:normal;letter-spacing:normal;word-spacing:normal;text-transform:none;direction:ltr;text-anchor:start;color:#bebebe;fill:#550000;fill-opacity:1;stroke:none;stroke-width:2;marker:none;visibility:visible;display:inline;overflow:visible;font-family:Bitstream Vera Sans"
       d="M 39.84375 27 C 38.861174 27 38.252529 27.45596 37.78125 27.9375 C 37.309971 28.41904 36.90625 29.05267 36.90625 30 L 36.90625 30.9375 C 36.924548 30.026307 37.320968 29.407804 37.78125 28.9375 C 38.252529 28.45596 38.861174 28 39.84375 28 L 55.6875 28 L 55.8125 28 L 55.8125 28.0625 C 56.87369 28.06639 57.707916 28.59508 58.15625 29.125 C 58.629193 29.68401 58.92086 30.32462 58.96875 31.1875 L 58.96875 31.25 L 58.96875 31.9375 L 62.96875 31.9375 L 62.96875 30.9375 L 58.96875 30.9375 L 58.96875 30.25 L 58.96875 30.1875 C 58.92086 29.32462 58.629193 28.68401 58.15625 28.125 C 57.707916 27.59508 56.87369 27.06639 55.8125 27.0625 L 55.8125 27 L 55.6875 27 L 39.84375 27 z M 36.90625 30.9375 L 32.90625 30.9375 L 32.90625 31.9375 L 36.90625 31.9375 L 36.90625 31 C 36.90625 30.977896 36.905813 30.959269 36.90625 30.9375 z M 40.9375 30.9375 L 40.9375 31.9375 L 54.9375 31.9375 L 54.9375 30.9375 L 40.9375 30.9375 z M 43 36.9375 C 41.42017 39.205312 40.893423 41.669124 40.9375 44.125 C 41.041943 41.997706 41.634385 39.897812 43 37.9375 L 44.375 37.9375 C 44.549326 37.599618 44.723922 37.264779 44.9375 36.9375 L 43 36.9375 z M 47 36.9375 L 47 37.9375 L 48.9375 37.9375 L 48.9375 36.9375 L 47 36.9375 z M 50.9375 36.9375 C 51.197035 37.264923 51.421565 37.58618 51.625 37.9375 L 52.9375 37.9375 C 54.319761 39.73279 54.90458 41.791879 55 43.90625 C 55.060608 41.43499 54.543156 39.022938 52.9375 36.9375 L 50.9375 36.9375 z M 34.90625 36.96875 C 33.384204 39.850186 32.86883 42.655511 32.9375 45.4375 C 33.012168 42.982064 33.567486 40.503209 34.90625 37.96875 L 38.40625 37.96875 C 38.571227 37.632218 38.710294 37.304344 38.90625 36.96875 L 34.90625 36.96875 z M 56.96875 36.96875 C 57.154476 37.304652 57.310463 37.632017 57.46875 37.96875 L 60.96875 37.96875 C 62.370049 40.419478 62.972158 42.86173 63.0625 45.3125 C 63.122247 42.526213 62.561892 39.754996 60.96875 36.96875 L 56.96875 36.96875 z M 52.9375 43.75 C 52.869846 46.948302 51.873424 50.311362 50.9375 53 L 51.25 53 C 52.179663 50.194925 53.081198 46.883015 52.9375 43.75 z M 43 44.125 C 42.842535 47.25153 43.661351 50.396265 44.59375 53 L 44.9375 53 C 43.962259 50.495694 43.036112 47.314409 43 44.125 z M 36.84375 45.28125 C 36.751328 48.826897 37.74135 52.416259 38.90625 56 L 56.96875 56 C 58.24608 52.46465 59.115942 48.930597 59 45.4375 C 58.934838 48.601752 58.123948 51.802683 56.96875 55 L 38.90625 55 C 37.850907 51.753304 36.937425 48.498803 36.84375 45.28125 z "
       id="path3323"
       transform="translate(0,956.36218)" />
  </g>
</svg>
