<?xml version="1.0" encoding="UTF-8" standalone="no"?>
<svg
   xmlns:dc="http://purl.org/dc/elements/1.1/"
   xmlns:cc="http://creativecommons.org/ns#"
   xmlns:rdf="http://www.w3.org/1999/02/22-rdf-syntax-ns#"
   xmlns:svg="http://www.w3.org/2000/svg"
   xmlns="http://www.w3.org/2000/svg"
   xmlns:sodipodi="http://sodipodi.sourceforge.net/DTD/sodipodi-0.dtd"
   xmlns:inkscape="http://www.inkscape.org/namespaces/inkscape"
   contentScriptType="text/ecmascript"
   contentStyleType="text/css"
   height="36"
   preserveAspectRatio="xMidYMid meet"
   version="1.1"
   viewBox="0 0 36 36"
   width="36"
   x="0px"
   y="0px"
   zoomAndPan="magnify"
   id="svg2"
   inkscape:version="0.91 r13725"
   sodipodi:docname="camera-web-symbolic.svg">
  <metadata
     id="metadata58">
    <rdf:RDF>
      <cc:Work
         rdf:about="">
        <dc:format>image/svg+xml</dc:format>
        <dc:type
           rdf:resource="http://purl.org/dc/dcmitype/StillImage" />
        <dc:title />
      </cc:Work>
    </rdf:RDF>
  </metadata>
  <sodipodi:namedview
     pagecolor="#ffffff"
     bordercolor="#666666"
     borderopacity="1"
     objecttolerance="10"
     gridtolerance="10"
     guidetolerance="10"
     inkscape:pageopacity="0"
     inkscape:pageshadow="2"
     inkscape:window-width="1336"
     inkscape:window-height="704"
     id="namedview56"
     showgrid="false"
     inkscape:zoom="4.1403509"
     inkscape:cx="-90.812533"
     inkscape:cy="-1.1738643"
     inkscape:window-x="0"
     inkscape:window-y="27"
     inkscape:window-maximized="1"
     inkscape:current-layer="svg2" />
  <defs
     id="defs4">
    <linearGradient
       gradientUnits="userSpaceOnUse"
       x1="37.498001"
       x2="37.498001"
       y1="53.463902"
       y2="11.0005"
       id="linearGradient6">
      <stop
         offset="0"
         stop-color="#d0cbc5"
         id="stop8" />
      <stop
         offset="0.5031"
         stop-color="#fafcef"
         id="stop10" />
      <stop
         offset="0.9693"
         stop-color="#ffffff"
         id="stop12" />
      <stop
         offset="1"
         stop-color="#ffffff"
         id="stop14" />
    </linearGradient>
    <linearGradient
       gradientUnits="userSpaceOnUse"
       x1="91.430084"
       x2="91.430084"
       y1="50.271187"
       y2="8.4199648"
       id="linearGradient16">
      <stop
         offset="0"
         stop-color="#d0cbc5"
         id="stop18" />
      <stop
         offset="0.5031"
         stop-color="#fafcef"
         id="stop20" />
      <stop
         offset="0.9693"
         stop-color="#ffffff"
         id="stop22" />
      <stop
         offset="1"
         stop-color="#ffffff"
         id="stop24" />
    </linearGradient>
    <linearGradient
       gradientUnits="userSpaceOnUse"
       id="linearGradient3071"
       x1="91.430084"
       x2="91.430084"
       y1="50.271187"
       y2="8.4199648">
      <stop
         offset="0"
         stop-color="#d0cbc5"
         id="stop27" />
      <stop
         offset="0.5031"
         stop-color="#fafcef"
         id="stop29" />
      <stop
         offset="0.9693"
         stop-color="#ffffff"
         id="stop31" />
      <stop
         offset="1"
         stop-color="#ffffff"
         id="stop33" />
    </linearGradient>
    <linearGradient
       gradientTransform="translate(-60.125,-1)"
       gradientUnits="userSpaceOnUse"
       id="linearGradient3026"
       x1="91.430084"
       x2="91.430084"
       y1="50.271187"
       y2="8.4199648">
      <stop
         offset="0"
         stop-color="#d0cbc5"
         id="stop36" />
      <stop
         offset="0.5031"
         stop-color="#fafcef"
         id="stop38" />
      <stop
         offset="0.9693"
         stop-color="#ffffff"
         id="stop40" />
      <stop
         offset="1"
         stop-color="#ffffff"
         id="stop42" />
    </linearGradient>
    <linearGradient
       y2="10.3081"
       y1="45.6924"
       x2="33.5005"
       x1="33.5005"
       id="SVGID_1_"
       gradientUnits="userSpaceOnUse">
      <stop
         id="stop4160"
         stop-color="#d0cbc5"
         offset="0" />
      <stop
         id="stop4162"
         stop-color="#fafcef"
         offset="0.5031" />
      <stop
         id="stop4164"
         stop-color="#ffffff"
         offset="0.9693" />
      <stop
         id="stop4166"
         stop-color="#ffffff"
         offset="1" />
    </linearGradient>
    <linearGradient
       y2="5.8846374"
       y1="48.223412"
       x2="84.271225"
       x1="84.271225"
       id="linearGradient4168"
       gradientUnits="userSpaceOnUse"
       gradientTransform="translate(-141.53972,-3.317797)">
      <stop
         id="stop4170"
         stop-color="#d0cbc5"
         offset="0" />
      <stop
         id="stop4172"
         stop-color="#fafcef"
         offset="0.5031" />
      <stop
         id="stop4174"
         stop-color="#ffffff"
         offset="0.9693" />
      <stop
         id="stop4176"
         stop-color="#ffffff"
         offset="1" />
    </linearGradient>
    <linearGradient
       id="linearGradient8"
       y2="9.0004997"
       y1="61"
       x2="35.0005"
       x1="35.0005"
       gradientUnits="userSpaceOnUse">
      <stop
         id="stop10-4"
         stop-color="#d0cbc5"
         offset="0" />
      <stop
         id="stop12-9"
         stop-color="#fafcef"
         offset="0.5031" />
      <stop
         id="stop14-6"
         stop-color="#ffffff"
         offset="0.9693" />
      <stop
         id="stop16"
         stop-color="#ffffff"
         offset="1" />
    </linearGradient>
    <linearGradient
       y2="12.198141"
       y1="43.486229"
       x2="108.81249"
       x1="108.81249"
       id="linearGradient3063"
       gradientUnits="userSpaceOnUse"
       gradientTransform="matrix(1.4062497,0,0,1.4062497,-69.498842,-1.7595697)">
      <stop
         id="stop19"
         stop-color="#d0cbc5"
         offset="0" />
      <stop
         id="stop21"
         stop-color="#fafcef"
         offset="0.5031" />
      <stop
         id="stop23"
         stop-color="#ffffff"
         offset="0.9693" />
      <stop
         id="stop25"
         stop-color="#ffffff"
         offset="1" />
    </linearGradient>
    <linearGradient
       y2="12.198141"
       y1="43.486229"
       x2="108.81249"
       x1="108.81249"
       id="linearGradient3037"
       gradientUnits="userSpaceOnUse"
       gradientTransform="matrix(1.639432,0,0,1.6233115,-143.54126,-10.873487)">
      <stop
         id="stop38-4"
         stop-color="#d0cbc5"
         offset="0" />
      <stop
         id="stop40-0"
         stop-color="#fafcef"
         offset="0.5031" />
      <stop
         id="stop42-9"
         stop-color="#ffffff"
         offset="0.9693" />
      <stop
         id="stop44"
         stop-color="#ffffff"
         offset="1" />
    </linearGradient>
  </defs>
  <path
     style="fill:#bebebe;fill-opacity:1;stroke:none"
     id="path4195"
     d="M 13.21875,1.53125 C 6.436855,1.53125 1,7.08713 1,13.870739 l 0,8.28267 C 1,28.93702 6.436855,34.46875 13.21875,34.46875 l 9.538352,0 C 29.53899,34.46875 35,28.93702 35,22.153409 l 0,-8.28267 C 35,7.087131 29.53899,1.53125 22.757102,1.53125 l -9.538352,0 z m -0.53125,4.829545 10.600852,0 c 3.775476,0 6.785512,3.009069 6.785512,6.785512 l 0,9.731534 c 0,3.776442 -3.010036,6.785511 -6.785512,6.785511 l -10.600852,0 c -3.775476,0 -6.785511,-3.009072 -6.785511,-6.785511 l 0,-9.731534 c 0,-3.776443 3.010035,-6.785512 6.785511,-6.785512 z M 18,8.4375 c -5.281225,0 -9.5625,4.281277 -9.5625,9.5625 0,5.281225 4.281275,9.5625 9.5625,9.5625 5.28122,0 9.5625,-4.281275 9.5625,-9.5625 0,-5.281223 -4.28128,-9.5625 -9.5625,-9.5625 z m 0,3.1875 c 3.530761,0 6.375,2.844239 6.375,6.375 0,3.530759 -2.844239,6.375 -6.375,6.375 -3.530761,0 -6.375,-2.844241 -6.375,-6.375 0,-3.530761 2.844239,-6.375 6.375,-6.375 z m 0,1.014205 c -2.973795,0 -5.384943,2.386999 -5.384943,5.360795 0,2.973795 2.411148,5.384943 5.384943,5.384943 2.973795,0 5.360795,-2.411148 5.360795,-5.384943 0,-2.973796 -2.387,-5.360795 -5.360795,-5.360795 z M 18,13.75 c 2.347205,0 4.25,1.902791 4.25,4.25 0,2.347209 -1.902795,4.25 -4.25,4.25 -2.347213,0 -4.25,-1.902791 -4.25,-4.25 0,-2.347209 1.902787,-4.25 4.25,-4.25 z"
     inkscape:connector-curvature="0" />
</svg>
