<?xml version="1.0" encoding="UTF-8" standalone="no"?>
<!-- Created with Inkscape (http://www.inkscape.org/) -->

<svg
   xmlns:dc="http://purl.org/dc/elements/1.1/"
   xmlns:cc="http://creativecommons.org/ns#"
   xmlns:rdf="http://www.w3.org/1999/02/22-rdf-syntax-ns#"
   xmlns:svg="http://www.w3.org/2000/svg"
   xmlns="http://www.w3.org/2000/svg"
   xmlns:xlink="http://www.w3.org/1999/xlink"
   xmlns:sodipodi="http://sodipodi.sourceforge.net/DTD/sodipodi-0.dtd"
   xmlns:inkscape="http://www.inkscape.org/namespaces/inkscape"
   width="96"
   height="96"
   id="svg2"
   version="1.1"
   inkscape:version="0.48.4 r9939"
   sodipodi:docname="application-vnd.ms-powerpoint.svg">
  <defs
     id="defs4">
    <linearGradient
       inkscape:collect="always"
       id="linearGradient7717">
      <stop
         style="stop-color:#739ecd;stop-opacity:1;"
         offset="0"
         id="stop7719" />
      <stop
         id="stop7725"
         offset="0.28507313"
         style="stop-color:#5a88be;stop-opacity:1" />
      <stop
         style="stop-color:#4071ad;stop-opacity:1"
         offset="0.75454807"
         id="stop7727" />
      <stop
         style="stop-color:#b1c3dc;stop-opacity:1"
         offset="1"
         id="stop7721" />
    </linearGradient>
    <linearGradient
       id="linearGradient7703">
      <stop
         style="stop-color:#f64826;stop-opacity:1;"
         offset="0"
         id="stop7705" />
      <stop
         id="stop7711"
         offset="0.28458112"
         style="stop-color:#f52c04;stop-opacity:1;" />
      <stop
         style="stop-color:#fb6143;stop-opacity:1;"
         offset="1"
         id="stop7707" />
    </linearGradient>
    <linearGradient
       id="linearGradient7659">
      <stop
         style="stop-color:#e62b06;stop-opacity:1;"
         offset="0"
         id="stop7661" />
      <stop
         id="stop7669"
         offset="0.11197954"
         style="stop-color:#ee664b;stop-opacity:1;" />
      <stop
         id="stop7667"
         offset="0.2067236"
         style="stop-color:#f4b1a4;stop-opacity:1;" />
      <stop
         style="stop-color:#ea7b65;stop-opacity:1;"
         offset="0.29823774"
         id="stop7671" />
      <stop
         id="stop7681"
         offset="0.5846231"
         style="stop-color:#d12b0a;stop-opacity:1;" />
      <stop
         style="stop-color:#ce2301;stop-opacity:1;"
         offset="0.68152046"
         id="stop7699" />
      <stop
         id="stop7701"
         offset="0.79026079"
         style="stop-color:#e34020;stop-opacity:1;" />
      <stop
         style="stop-color:#cf2706;stop-opacity:1;"
         offset="1"
         id="stop7663" />
    </linearGradient>
    <linearGradient
       inkscape:collect="always"
       id="linearGradient3090">
      <stop
         style="stop-color:#000000;stop-opacity:0.1"
         offset="0"
         id="stop3092" />
      <stop
         style="stop-color:#000000;stop-opacity:0"
         offset="1"
         id="stop3094" />
    </linearGradient>
    <linearGradient
       inkscape:collect="always"
       id="linearGradient3075">
      <stop
         style="stop-color:#cfcfcf;stop-opacity:1"
         offset="0"
         id="stop3077" />
      <stop
         style="stop-color:#fafaf9;stop-opacity:0;"
         offset="1"
         id="stop3079" />
    </linearGradient>
    <linearGradient
       inkscape:collect="always"
       id="linearGradient3052">
      <stop
         style="stop-color:#f3f4f2;stop-opacity:1"
         offset="0"
         id="stop3054" />
      <stop
         style="stop-color:#fafafa;stop-opacity:1"
         offset="1"
         id="stop3056" />
    </linearGradient>
    <linearGradient
       id="linearGradient3994"
       inkscape:collect="always">
      <stop
         id="stop3996"
         offset="0"
         style="stop-color:#ff8e31;stop-opacity:1" />
      <stop
         id="stop4004"
         offset="1"
         style="stop-color:#ffb642;stop-opacity:1" />
    </linearGradient>
    <linearGradient
       inkscape:collect="always"
       id="linearGradient3119">
      <stop
         style="stop-color:#92948f;stop-opacity:0"
         offset="0"
         id="stop3121" />
      <stop
         id="stop3123"
         offset="0.4283945"
         style="stop-color:#9b9e98;stop-opacity:1" />
      <stop
         style="stop-color:#939690;stop-opacity:0"
         offset="1"
         id="stop3125" />
    </linearGradient>
    <linearGradient
       id="linearGradient3073"
       inkscape:collect="always">
      <stop
         id="stop3075"
         offset="0"
         style="stop-color:#ffffff;stop-opacity:0" />
      <stop
         style="stop-color:#ffffff;stop-opacity:1"
         offset="0.45872402"
         id="stop3085" />
      <stop
         id="stop3083"
         offset="1"
         style="stop-color:#ffffff;stop-opacity:0" />
    </linearGradient>
    <linearGradient
       inkscape:collect="always"
       id="linearGradient3061">
      <stop
         style="stop-color:#ef9a42;stop-opacity:1"
         offset="0"
         id="stop3063" />
      <stop
         style="stop-color:#f5c262;stop-opacity:1"
         offset="1"
         id="stop3065" />
    </linearGradient>
    <linearGradient
       inkscape:collect="always"
       id="linearGradient3047">
      <stop
         style="stop-color:#000000;stop-opacity:1"
         offset="0"
         id="stop3049" />
      <stop
         id="stop3055"
         offset="0.06123874"
         style="stop-color:#1a1a1a;stop-opacity:1" />
      <stop
         style="stop-color:#333333;stop-opacity:1"
         offset="0.16480456"
         id="stop3057" />
      <stop
         id="stop3059"
         offset="0.55385184"
         style="stop-color:#4d4d4d;stop-opacity:1" />
      <stop
         style="stop-color:#999999;stop-opacity:1"
         offset="1"
         id="stop3051" />
    </linearGradient>
    <linearGradient
       id="linearGradient3041"
       inkscape:collect="always">
      <stop
         id="stop3043"
         offset="0"
         style="stop-color:#1a1a1a;stop-opacity:1" />
      <stop
         id="stop3045"
         offset="1"
         style="stop-color:#808080;stop-opacity:1" />
    </linearGradient>
    <linearGradient
       inkscape:collect="always"
       id="linearGradient3029">
      <stop
         style="stop-color:#333333;stop-opacity:1"
         offset="0"
         id="stop3031" />
      <stop
         style="stop-color:#e0e0dd;stop-opacity:0;"
         offset="1"
         id="stop3033" />
    </linearGradient>
    <linearGradient
       inkscape:collect="always"
       xlink:href="#linearGradient3029"
       id="linearGradient3035"
       x1="35.355339"
       y1="1030.3622"
       x2="35.355339"
       y2="975.33282"
       gradientUnits="userSpaceOnUse"
       gradientTransform="matrix(1.1638085,0,0,1.1638085,-7.862809,-164.23642)" />
    <linearGradient
       inkscape:collect="always"
       xlink:href="#linearGradient3041"
       id="linearGradient3039"
       gradientUnits="userSpaceOnUse"
       x1="35.355339"
       y1="1030.3622"
       x2="35.355339"
       y2="975.33282"
       gradientTransform="matrix(1.1218695,0,0,1.1218695,-5.8497348,-122.18782)" />
    <linearGradient
       inkscape:collect="always"
       xlink:href="#linearGradient3047"
       id="linearGradient3053"
       x1="40"
       y1="1043.4336"
       x2="39.285713"
       y2="972.33325"
       gradientUnits="userSpaceOnUse" />
    <linearGradient
       inkscape:collect="always"
       xlink:href="#linearGradient3061"
       id="linearGradient3067"
       x1="17.67767"
       y1="1046.1118"
       x2="17.67767"
       y2="962.21893"
       gradientUnits="userSpaceOnUse"
       gradientTransform="translate(0,-956.36218)" />
    <linearGradient
       inkscape:collect="always"
       xlink:href="#linearGradient3073"
       id="linearGradient3113"
       gradientUnits="userSpaceOnUse"
       gradientTransform="translate(0,-956.36218)"
       x1="14.869445"
       y1="978.90387"
       x2="24.52651"
       y2="969.24683" />
    <linearGradient
       inkscape:collect="always"
       xlink:href="#linearGradient3073"
       id="linearGradient3115"
       gradientUnits="userSpaceOnUse"
       gradientTransform="matrix(-1,0,0,1,96,-956.36218)"
       x1="15.152279"
       y1="978.62103"
       x2="26.263966"
       y2="967.50934" />
    <linearGradient
       inkscape:collect="always"
       xlink:href="#linearGradient3119"
       id="linearGradient3117"
       gradientUnits="userSpaceOnUse"
       gradientTransform="translate(0,-956.36218)"
       x1="13.131983"
       y1="980.64136"
       x2="25.549681"
       y2="967.86646" />
    <linearGradient
       inkscape:collect="always"
       xlink:href="#linearGradient3119"
       id="linearGradient3129"
       gradientUnits="userSpaceOnUse"
       gradientTransform="matrix(-1,0,0,1,96,0)"
       x1="13.131983"
       y1="980.64136"
       x2="25.549681"
       y2="967.86646" />
    <linearGradient
       inkscape:collect="always"
       xlink:href="#linearGradient3994"
       id="linearGradient3992"
       gradientUnits="userSpaceOnUse"
       x1="29.673231"
       y1="1042.892"
       x2="29.673231"
       y2="965.32623"
       gradientTransform="translate(0,-956.36218)" />
    <linearGradient
       inkscape:collect="always"
       xlink:href="#linearGradient3075"
       id="linearGradient3081"
       x1="82.995659"
       y1="979.61285"
       x2="72.749283"
       y2="976.28278"
       gradientUnits="userSpaceOnUse" />
    <linearGradient
       inkscape:collect="always"
       xlink:href="#linearGradient3052"
       id="linearGradient3087"
       gradientUnits="userSpaceOnUse"
       x1="47.645657"
       y1="965.78027"
       x2="47.645657"
       y2="1041.1539"
       gradientTransform="translate(0,-956.36218)" />
    <linearGradient
       inkscape:collect="always"
       xlink:href="#linearGradient3090"
       id="linearGradient3096"
       x1="67.381134"
       y1="10.505658"
       x2="61.584908"
       y2="16.664148"
       gradientUnits="userSpaceOnUse" />
    <linearGradient
       inkscape:collect="always"
       xlink:href="#linearGradient3090"
       id="linearGradient3101"
       gradientUnits="userSpaceOnUse"
       x1="67.381134"
       y1="10.505658"
       x2="61.584908"
       y2="15.383351" />
    <linearGradient
       inkscape:collect="always"
       xlink:href="#linearGradient3052-1"
       id="linearGradient3056"
       gradientUnits="userSpaceOnUse"
       gradientTransform="translate(0,-1.2617187e-5)"
       x1="47.645657"
       y1="965.78027"
       x2="47.645657"
       y2="1041.1539" />
    <linearGradient
       inkscape:collect="always"
       id="linearGradient3052-1">
      <stop
         style="stop-color:#f3f4f2;stop-opacity:1"
         offset="0"
         id="stop3054-5" />
      <stop
         style="stop-color:#fafafa;stop-opacity:1"
         offset="1"
         id="stop3056-5" />
    </linearGradient>
    <linearGradient
       inkscape:collect="always"
       xlink:href="#linearGradient7717"
       id="linearGradient7857"
       gradientUnits="userSpaceOnUse"
       gradientTransform="translate(111.89504,0)"
       x1="-70.975845"
       y1="999.32916"
       x2="-76.455917"
       y2="991.55096" />
    <linearGradient
       inkscape:collect="always"
       xlink:href="#linearGradient7659"
       id="linearGradient7864"
       gradientUnits="userSpaceOnUse"
       gradientTransform="matrix(0.76582827,0,0,0.69236263,-1.8721506,976.64382)"
       x1="18.139732"
       y1="50.686386"
       x2="56.040619"
       y2="50.686386" />
  </defs>
  <sodipodi:namedview
     id="base"
     pagecolor="#ffffff"
     bordercolor="#666666"
     borderopacity="1.0"
     inkscape:pageopacity="0.0"
     inkscape:pageshadow="2"
     inkscape:zoom="2.8284272"
     inkscape:cx="-25.305901"
     inkscape:cy="34.622173"
     inkscape:document-units="px"
     inkscape:current-layer="layer1"
     showgrid="false"
     inkscape:window-width="1366"
     inkscape:window-height="705"
     inkscape:window-x="0"
     inkscape:window-y="28"
     inkscape:window-maximized="1"
     showguides="true"
     inkscape:guide-bbox="true" />
  <metadata
     id="metadata7">
    <rdf:RDF>
      <cc:Work
         rdf:about="">
        <dc:format>image/svg+xml</dc:format>
        <dc:type
           rdf:resource="http://purl.org/dc/dcmitype/StillImage" />
        <dc:title />
      </cc:Work>
    </rdf:RDF>
  </metadata>
  <g
     inkscape:label="Layer 1"
     inkscape:groupmode="layer"
     id="layer1"
     transform="translate(0,-956.36218)">
    <flowRoot
       xml:space="preserve"
       id="flowRoot3114"
       style="fill:black;stroke:none;stroke-opacity:1;stroke-width:1px;stroke-linejoin:miter;stroke-linecap:butt;fill-opacity:1;font-family:Sans;font-style:normal;font-weight:normal;font-size:40px;line-height:125%;letter-spacing:0px;word-spacing:0px"><flowRegion
         id="flowRegion3116"><rect
           id="rect3118"
           width="70.710678"
           height="67.882248"
           x="13.788582"
           y="12.207847" /></flowRegion><flowPara
         id="flowPara3120" /></flowRoot>    <g
       id="g3033"
       transform="translate(0,-1.0000026)">
      <rect
         ry="10.595235"
         rx="10.595235"
         y="961.86218"
         x="3.5"
         height="89"
         width="89"
         id="rect3826"
         style="opacity:0.05;fill:#000000;fill-opacity:1;stroke:none" />
      <rect
         style="opacity:0.05;fill:#000000;fill-opacity:1;stroke:none"
         id="rect3824"
         width="88"
         height="88"
         x="4"
         y="962.36218"
         rx="10.476188"
         ry="10.476188" />
      <rect
         ry="10.357141"
         rx="10.357141"
         y="962.86218"
         x="4.5"
         height="87"
         width="87"
         id="rect3822"
         style="opacity:0.05;fill:#000000;fill-opacity:1;stroke:none" />
      <rect
         style="opacity:0.1;fill:#000000;fill-opacity:1;stroke:none"
         id="rect3820"
         width="86"
         height="86"
         x="5"
         y="963.36218"
         rx="10.238094"
         ry="10.238094" />
      <rect
         ry="10.119047"
         rx="10.119047"
         y="963.86218"
         x="5.5"
         height="85"
         width="85"
         id="rect3818"
         style="opacity:0.1;fill:#000000;fill-opacity:1;stroke:none" />
      <rect
         style="opacity:0.3;fill:#000000;fill-opacity:1;stroke:none"
         id="rect3131"
         width="84"
         height="84"
         x="6"
         y="964.36218"
         rx="10"
         ry="10" />
    </g>
    <path
       inkscape:connector-curvature="0"
       style="fill:#fafaf9;fill-opacity:1;stroke:none"
       d="m 16,962.36218 c -5.54,0 -10,4.46 -10,10 l 0,56.00002 84,0 0,-56.00002 c 0,-5.54 -4.46,-10 -10,-10 l -64,0 z"
       id="rect3036" />
    <rect
       style="fill:url(#linearGradient3056);fill-opacity:1;stroke:none"
       id="rect3034"
       width="82"
       height="82"
       x="7"
       y="963.36218"
       rx="9.7619047"
       ry="9.7619047" />
    <path
       inkscape:connector-curvature="0"
       style="fill:#d64529;fill-opacity:1;stroke:none"
       d="m 6,1028.3622 0,8 c 0,5.54 4.46,10 10,10 l 64,0 c 5.54,0 10,-4.46 10,-10 l 0,-8 -84,0 z"
       id="rect3066" />
    <text
       xml:space="preserve"
       style="font-size:40px;font-style:normal;font-variant:normal;font-weight:normal;font-stretch:normal;text-align:center;line-height:125%;letter-spacing:0px;word-spacing:0px;text-anchor:middle;fill:#ffffff;fill-opacity:1;stroke:none;font-family:Cantarell;-inkscape-font-specification:Cantarell"
       x="47.438843"
       y="1041.5261"
       id="text3071"
       sodipodi:linespacing="125%"><tspan
         sodipodi:role="line"
         id="tspan3073"
         x="47.438843"
         y="1041.5261"
         style="font-size:12px;font-weight:bold;text-align:center;text-anchor:middle;fill:#ffffff;-inkscape-font-specification:Cantarell Bold">PPT</tspan></text>
    <path
       style="fill:#d64529;fill-opacity:1;stroke:none"
       d="m 42,1001.3622 c 0,8.2843 -6.715728,15 -15,15 -8.284272,0 -15,-6.7157 -15,-15 0,-8.2843 6.715728,-15.00002 15,-15.00002 0,0 0,0 0,0 l 0,15.00002 z"
       id="path7629"
       inkscape:connector-curvature="0" />
    <path
       sodipodi:type="arc"
       style="fill:#709bcb;fill-opacity:1;stroke:none"
       id="path7655"
       sodipodi:cx="-80.610176"
       sodipodi:cy="38.194019"
       sodipodi:rx="13.611806"
       sodipodi:ry="13.611806"
       d="m -80.610176,24.582213 a 13.611806,13.611806 0 0 1 13.611806,13.611806 l -13.611806,0 z"
       transform="translate(111.89504,958.36218)"
       sodipodi:start="4.712389"
       sodipodi:end="6.2831853" />
    <path
       style="fill:#d3d7cf;fill-opacity:1;stroke:none"
       d="m 40.55129,978.01843 0,0.3125 0,0.1875 0,4.125 0.5,0 0,-4.125 7.5,0 0,-0.5 -8,0 z"
       id="rect7777"
       inkscape:connector-curvature="0" />
    <path
       inkscape:connector-curvature="0"
       id="path7782"
       d="m 58.36379,1012.0809 -0.3125,0 -0.1875,0 -16.125,0 0,-0.5 16.125,0 0,-5.5 0.5,0 z"
       style="fill:#d3d7cf;fill-opacity:1;stroke:none"
       sodipodi:nodetypes="ccccccccc" />
    <g
       style="font-size:4px;font-style:normal;font-variant:normal;font-weight:bold;font-stretch:normal;line-height:125%;letter-spacing:0px;word-spacing:0px;fill:#4d4d4d;fill-opacity:1;stroke:none;font-family:Cantarell;-inkscape-font-specification:Cantarell Bold"
       id="text7786">
      <path
         d="m 52.181568,977.28902 c 0.231999,-0.1 0.456,-0.212 0.736,-0.212 0.351999,0 0.484,0.14 0.484,0.364 0,0.352 -0.436001,0.752 -0.836,1.172 -0.208,0.216 -0.376001,0.36 -0.524,0.5 l 0,0.308 1.908,0 0,-0.432 -1.116,0 c 0.523999,-0.536 1.06,-1.032 1.06,-1.58 0,-0.452 -0.308001,-0.8 -0.976,-0.8 -0.376,0 -0.688001,0.152 -0.88,0.252 l 0.144,0.428"
         style=""
         id="path3200" />
      <path
         d="m 54.762193,976.64502 0,1.492 c 0.387999,-0.048 0.596,-0.06 0.728,-0.06 0.551999,0 0.676,0.268 0.676,0.448 0,0.188 -0.084,0.476 -0.684,0.476 -0.248,0 -0.468001,-0.056 -0.724,-0.136 l -0.128,0.44 c 0.307999,0.104 0.54,0.156 0.836,0.156 0.995999,0 1.204,-0.58 1.204,-0.9 0,-0.424 -0.228001,-0.932 -1.068,-0.932 -0.132,0 -0.260001,0.008 -0.36,0.016 l 0,-0.548 1.236,0 0,-0.452 -1.716,0"
         style=""
         id="path3202" />
      <path
         d="m 57.726818,977.02502 c 0.08,0 0.192,0.024 0.192,0.268 0,0.148 -0.04,0.292 -0.192,0.292 -0.156,0 -0.188,-0.152 -0.188,-0.3 0,-0.132 0.036,-0.26 0.188,-0.26 m 0,-0.348 c -0.28,0 -0.54,0.2 -0.54,0.608 0,0.484 0.268,0.64 0.54,0.64 0.327999,0 0.58,-0.24 0.58,-0.636 0,-0.496 -0.340001,-0.612 -0.58,-0.612 m 1.416,1.796 c 0.08,0 0.192,0.024 0.192,0.268 0,0.148 -0.04,0.288 -0.192,0.288 -0.156,0 -0.192,-0.148 -0.192,-0.296 0,-0.132 0.04,-0.26 0.192,-0.26 m 0,-0.348 c -0.292,0 -0.576,0.2 -0.576,0.608 0,0.484 0.292,0.64 0.576,0.64 0.311999,0 0.54,-0.24 0.54,-0.636 0,-0.488 -0.300001,-0.612 -0.54,-0.612 m 0.104,-1.48 -2.156,2.776 0.528,0 2.156,-2.776 -0.528,0"
         style=""
         id="path3204" />
    </g>
    <g
       style="font-size:4px;font-style:normal;font-variant:normal;font-weight:normal;font-stretch:normal;line-height:125%;letter-spacing:0px;word-spacing:0px;fill:#4d4d4d;fill-opacity:1;stroke:none;font-family:Cantarell;-inkscape-font-specification:Cantarell"
       id="text7790">
      <path
         d="m 49.764711,993.02002 0,0.448 1.428,0 -1.012,2.328 0.524,0 1.088,-2.484 0,-0.292 -2.028,0"
         style="font-weight:bold;-inkscape-font-specification:Cantarell Bold"
         id="path3193" />
      <path
         d="m 52.529336,993.02002 0,1.492 c 0.387999,-0.048 0.596,-0.06 0.728,-0.06 0.551999,0 0.676,0.268 0.676,0.448 0,0.188 -0.084,0.476 -0.684,0.476 -0.248,0 -0.468,-0.056 -0.724,-0.136 l -0.128,0.44 c 0.308,0.104 0.54,0.156 0.836,0.156 0.995999,0 1.204,-0.58 1.204,-0.9 0,-0.424 -0.228001,-0.932 -1.068,-0.932 -0.132,0 -0.26,0.008 -0.36,0.016 l 0,-0.548 1.236,0 0,-0.452 -1.716,0"
         style="font-weight:bold;-inkscape-font-specification:Cantarell Bold"
         id="path3195" />
      <path
         d="m 55.493961,993.40002 c 0.08,0 0.192,0.024 0.192,0.268 0,0.148 -0.04,0.292 -0.192,0.292 -0.156,0 -0.188,-0.152 -0.188,-0.3 0,-0.132 0.036,-0.26 0.188,-0.26 m 0,-0.348 c -0.28,0 -0.54,0.2 -0.54,0.608 0,0.484 0.268,0.64 0.54,0.64 0.327999,0 0.58,-0.24 0.58,-0.636 0,-0.496 -0.34,-0.612 -0.58,-0.612 m 1.416,1.796 c 0.08,0 0.192,0.024 0.192,0.268 0,0.148 -0.04,0.288 -0.192,0.288 -0.156,0 -0.192,-0.148 -0.192,-0.296 0,-0.132 0.04,-0.26 0.192,-0.26 m 0,-0.348 c -0.292,0 -0.576,0.2 -0.576,0.608 0,0.484 0.292,0.64 0.576,0.64 0.312,0 0.54,-0.24 0.54,-0.636 0,-0.488 -0.3,-0.612 -0.54,-0.612 m 0.104,-1.48 -2.156,2.776 0.528,0 2.156,-2.776 -0.528,0"
         style="font-weight:bold;-inkscape-font-specification:Cantarell Bold"
         id="path3197" />
    </g>
    <path
       style="font-size:3px;font-style:normal;font-variant:normal;font-weight:normal;font-stretch:normal;line-height:125%;letter-spacing:0px;word-spacing:0px;fill:#4d4d4d;fill-opacity:0.83921569;stroke:none;font-family:Cantarell;-inkscape-font-specification:Cantarell"
       d="M 52.5625 25.0625 C 52.2925 25.0625 52.147 25.10475 52 25.21875 C 51.883 25.30875 51.8125 25.46725 51.8125 25.65625 C 51.8125 25.83925 51.9425 25.9905 52.0625 26.0625 C 52.2545 26.1765 52.50575 26.24775 52.71875 26.34375 C 52.86575 26.40975 52.9375 26.499 52.9375 26.625 C 52.9375 26.853 52.6835 26.96875 52.4375 26.96875 C 52.2935 26.96875 52.08675 26.93375 51.84375 26.84375 L 51.75 27.0625 C 51.963 27.1435 52.13925 27.21875 52.40625 27.21875 C 52.727249 27.21875 52.95875 27.1145 53.09375 26.9375 C 53.16875 26.8355 53.1875 26.71075 53.1875 26.59375 C 53.1875 26.43475 53.14825 26.337 53.03125 26.25 C 52.83625 26.109 52.484 25.995 52.25 25.875 C 52.13 25.815 52.0625 25.739 52.0625 25.625 C 52.0625 25.424 52.24025 25.28125 52.53125 25.28125 L 52.5625 25.28125 C 52.7005 25.28125 52.847 25.33725 53 25.40625 L 53.09375 25.21875 C 52.91675 25.14675 52.7035 25.0625 52.5625 25.0625 z M 68.46875 25.1875 L 68.46875 27.1875 L 68.625 27.1875 L 68.6875 27.09375 C 68.8165 27.17775 68.94975 27.21875 69.09375 27.21875 C 69.537749 27.21875 69.75 26.90075 69.75 26.46875 C 69.75 26.21975 69.7005 26.04425 69.5625 25.90625 C 69.4305 25.77725 69.260499 25.71875 69.0625 25.71875 C 68.9455 25.71875 68.83275 25.73325 68.71875 25.78125 L 68.71875 25.1875 L 68.46875 25.1875 z M 73.28125 25.1875 L 73.28125 25.4375 L 73.53125 25.4375 L 73.53125 25.1875 L 73.28125 25.1875 z M 78.875 25.1875 L 78.875 25.78125 C 78.761001 25.73325 78.64825 25.71875 78.53125 25.71875 C 78.333251 25.71875 78.16325 25.77725 78.03125 25.90625 C 77.893251 26.04425 77.8125 26.21975 77.8125 26.46875 C 77.8125 26.90075 78.024751 27.21875 78.46875 27.21875 C 78.61275 27.21875 78.777251 27.17775 78.90625 27.09375 L 78.9375 27.1875 L 79.125 27.1875 L 79.125 25.1875 L 78.875 25.1875 z M 82.15625 25.1875 L 82.15625 25.4375 L 82.40625 25.4375 L 82.40625 25.1875 L 82.15625 25.1875 z M 66.59375 25.375 L 66.59375 25.75 L 66.34375 25.75 L 66.34375 25.9375 L 66.59375 25.9375 L 66.59375 26.75 C 66.59375 27.056 66.7 27.21875 67 27.21875 C 67.102 27.21875 67.2015 27.19225 67.3125 27.15625 L 67.3125 26.96875 C 67.2345 26.98975 67.1495 27 67.0625 27 C 66.8765 27 66.84375 26.91075 66.84375 26.71875 L 66.84375 25.9375 L 67.3125 25.9375 L 67.3125 25.75 L 66.84375 25.75 L 66.84375 25.375 L 66.59375 25.375 z M 54.15625 25.71875 C 53.94625 25.71875 53.773249 25.7875 53.65625 25.9375 C 53.54525 26.0875 53.5 26.284 53.5 26.5 C 53.5 26.968 53.74775 27.21875 54.21875 27.21875 C 54.380749 27.21875 54.5405 27.176 54.6875 27.125 L 54.6875 26.9375 C 54.5465 26.9825 54.407249 27 54.28125 27 C 54.09825 27 53.958999 26.965 53.875 26.875 C 53.791 26.785 53.753 26.66925 53.75 26.53125 L 54.75 26.53125 L 54.75 26.5 L 54.75 26.375 C 54.75 25.958 54.537249 25.71875 54.15625 25.71875 z M 55.75 25.71875 C 55.606 25.71875 55.4415 25.75975 55.3125 25.84375 L 55.28125 25.75 L 55.09375 25.75 L 55.09375 27.96875 L 55.34375 27.96875 L 55.34375 27.15625 C 55.45775 27.20425 55.5705 27.21875 55.6875 27.21875 C 55.8855 27.21875 56.0555 27.16025 56.1875 27.03125 C 56.3255 26.89625 56.40625 26.6865 56.40625 26.4375 C 56.40625 26.1375 56.29475 25.9415 56.09375 25.8125 C 55.99175 25.7495 55.894 25.71875 55.75 25.71875 z M 57.34375 25.71875 C 57.13375 25.71875 56.992 25.7875 56.875 25.9375 C 56.764 26.0875 56.6875 26.284 56.6875 26.5 C 56.6875 26.968 56.93525 27.21875 57.40625 27.21875 C 57.56825 27.21875 57.728 27.176 57.875 27.125 L 57.875 26.9375 C 57.734 26.9825 57.626 27 57.5 27 C 57.317 27 57.1465 26.965 57.0625 26.875 C 56.9785 26.785 56.9405 26.66925 56.9375 26.53125 L 57.9375 26.53125 L 57.9375 26.5 L 57.9375 26.375 C 57.9375 25.958 57.72475 25.71875 57.34375 25.71875 z M 58.9375 25.71875 C 58.7965 25.71875 58.66025 25.776 58.53125 25.875 L 58.46875 25.75 L 58.3125 25.75 L 58.3125 27.1875 L 58.5625 27.1875 L 58.5625 26.03125 C 58.6675 25.96225 58.74775 25.9375 58.84375 25.9375 C 58.93675 25.9375 59.01875 25.93875 59.09375 25.96875 L 59.125 25.96875 L 59.125 25.75 C 59.062 25.732 59.0065 25.71875 58.9375 25.71875 z M 60 25.71875 C 59.790001 25.71875 59.617 25.7875 59.5 25.9375 C 59.389 26.0875 59.34375 26.284 59.34375 26.5 C 59.34375 26.968 59.591501 27.21875 60.0625 27.21875 C 60.2245 27.21875 60.384251 27.176 60.53125 27.125 L 60.53125 26.9375 C 60.390251 26.9825 60.251 27 60.125 27 C 59.942001 27 59.80275 26.965 59.71875 26.875 C 59.63475 26.785 59.59675 26.66925 59.59375 26.53125 L 60.5625 26.53125 L 60.59375 26.5 L 60.59375 26.375 C 60.59375 25.958 60.381 25.71875 60 25.71875 z M 61.625 25.71875 C 61.562 25.71875 61.47825 25.729 61.40625 25.75 C 61.34625 25.768 61.25525 25.78075 61.15625 25.84375 L 61.125 25.75 L 60.9375 25.75 L 60.9375 27.1875 L 61.1875 27.1875 L 61.1875 26.03125 C 61.3165 25.95925 61.43825 25.90625 61.53125 25.90625 C 61.735249 25.90625 61.8125 26.028 61.8125 26.25 L 61.8125 27.1875 L 62.0625 27.1875 L 62.0625 26.21875 C 62.0625 26.14975 62.0745 26.07325 62.0625 26.03125 C 62.203499 25.94725 62.30425 25.90625 62.40625 25.90625 C 62.607249 25.90625 62.6875 26.028 62.6875 26.25 L 62.6875 27.1875 L 62.9375 27.1875 L 62.9375 26.21875 C 62.9375 25.92775 62.771749 25.71875 62.46875 25.71875 C 62.27375 25.71875 62.146999 25.80425 62 25.90625 C 61.925 25.79825 61.795999 25.71875 61.625 25.71875 z M 63.96875 25.71875 C 63.82475 25.71875 63.6915 25.75975 63.5625 25.84375 L 63.5 25.75 L 63.34375 25.75 L 63.34375 27.96875 L 63.59375 27.96875 L 63.59375 27.15625 C 63.70775 27.20425 63.8205 27.21875 63.9375 27.21875 C 64.135499 27.21875 64.3055 27.16025 64.4375 27.03125 C 64.575499 26.89625 64.625 26.6865 64.625 26.4375 C 64.625 26.1375 64.544749 25.9415 64.34375 25.8125 C 64.24175 25.7495 64.112749 25.71875 63.96875 25.71875 z M 65.5 25.71875 C 65.332 25.71875 65.18725 25.7525 65.03125 25.8125 L 65.03125 26 C 65.15425 25.958 65.377 25.9375 65.5 25.9375 C 65.68 25.9375 65.7705 25.97975 65.8125 26.09375 C 65.8305 26.14175 65.84375 26.2075 65.84375 26.3125 L 65.84375 26.34375 C 65.62175 26.34975 65.42525 26.37025 65.28125 26.40625 C 65.09225 26.45725 64.9375 26.5725 64.9375 26.8125 C 64.9375 27.0465 65.15425 27.21875 65.40625 27.21875 C 65.56825 27.21875 65.70875 27.1735 65.84375 27.0625 L 65.90625 27.1875 L 66.09375 27.1875 L 66.09375 26.25 C 66.09375 26.013 66.028 25.9145 65.875 25.8125 C 65.794 25.7585 65.668 25.71875 65.5 25.71875 z M 70.625 25.71875 C 70.457 25.71875 70.31225 25.7525 70.15625 25.8125 L 70.15625 26 C 70.27925 25.958 70.47075 25.9375 70.59375 25.9375 C 70.77375 25.9375 70.8955 25.97975 70.9375 26.09375 C 70.9555 26.14175 70.96875 26.2075 70.96875 26.3125 L 70.96875 26.34375 C 70.74675 26.34975 70.55025 26.37025 70.40625 26.40625 C 70.21725 26.45725 70.0625 26.5725 70.0625 26.8125 C 70.0625 27.0465 70.27925 27.21875 70.53125 27.21875 C 70.69325 27.21875 70.83375 27.1735 70.96875 27.0625 L 71.03125 27.1875 L 71.21875 27.1875 L 71.21875 26.25 C 71.21875 26.013 71.153 25.9145 71 25.8125 C 70.919 25.7585 70.793 25.71875 70.625 25.71875 z M 72.21875 25.71875 C 72.13475 25.71875 72.04675 25.717 71.96875 25.75 C 71.70475 25.861 71.53125 26.131 71.53125 26.5 C 71.53125 26.689 71.6035 26.8145 71.6875 26.9375 C 71.7985 27.0995 71.96975 27.21875 72.21875 27.21875 C 72.36275 27.21875 72.47075 27.191 72.59375 27.125 L 72.59375 27.15625 C 72.59375 27.24925 72.59975 27.333 72.59375 27.375 C 72.56375 27.636 72.39675 27.78125 72.09375 27.78125 C 71.98875 27.78125 71.876 27.76375 71.75 27.71875 L 71.6875 27.875 C 71.8075 27.929 71.984 27.96875 72.125 27.96875 C 72.347 27.96875 72.53925 27.9235 72.65625 27.8125 C 72.80025 27.6745 72.84375 27.52 72.84375 27.25 L 72.84375 25.75 L 72.65625 25.75 L 72.625 25.8125 L 72.5625 25.78125 C 72.4425 25.72725 72.32675 25.71875 72.21875 25.71875 z M 74.46875 25.71875 C 74.30075 25.71875 74.12475 25.7525 73.96875 25.8125 L 73.96875 26 C 74.09175 25.958 74.3145 25.9375 74.4375 25.9375 C 74.6175 25.9375 74.73925 25.97975 74.78125 26.09375 C 74.79925 26.14175 74.78125 26.2075 74.78125 26.3125 L 74.78125 26.34375 C 74.55925 26.34975 74.394 26.37025 74.25 26.40625 C 74.061 26.45725 73.90625 26.5725 73.90625 26.8125 C 73.90625 27.0465 74.123 27.21875 74.375 27.21875 C 74.537 27.21875 74.6775 27.1735 74.8125 27.0625 L 74.84375 27.1875 L 75.03125 27.1875 L 75.03125 26.25 C 75.03125 26.013 74.99675 25.9145 74.84375 25.8125 C 74.76275 25.7585 74.63675 25.71875 74.46875 25.71875 z M 76.1875 25.71875 C 76.0345 25.71875 75.83925 25.74775 75.65625 25.84375 L 75.625 25.75 L 75.4375 25.75 L 75.4375 27.1875 L 75.6875 27.1875 L 75.6875 26.03125 C 75.8345 25.96225 75.97975 25.90625 76.09375 25.90625 C 76.32775 25.90625 76.40625 26.01 76.40625 26.25 L 76.40625 27.1875 L 76.65625 27.1875 L 76.65625 26.21875 C 76.65625 25.91275 76.499499 25.71875 76.1875 25.71875 z M 80.0625 25.71875 C 79.8945 25.71875 79.7185 25.7525 79.5625 25.8125 L 79.5625 26 C 79.6855 25.958 79.90825 25.9375 80.03125 25.9375 C 80.21125 25.9375 80.30175 25.97975 80.34375 26.09375 C 80.36175 26.14175 80.375 26.2075 80.375 26.3125 L 80.375 26.34375 C 80.153 26.34975 79.98775 26.37025 79.84375 26.40625 C 79.65475 26.45725 79.46875 26.5725 79.46875 26.8125 C 79.46875 27.0465 79.6855 27.21875 79.9375 27.21875 C 80.0995 27.21875 80.24 27.1735 80.375 27.0625 L 80.4375 27.1875 L 80.625 27.1875 L 80.625 26.25 C 80.625 26.013 80.5905 25.9145 80.4375 25.8125 C 80.3565 25.7585 80.2305 25.71875 80.0625 25.71875 z M 81.65625 25.71875 C 81.51525 25.71875 81.379 25.776 81.25 25.875 L 81.21875 25.75 L 81.03125 25.75 L 81.03125 27.1875 L 81.28125 27.1875 L 81.28125 26.03125 C 81.38625 25.96225 81.49775 25.9375 81.59375 25.9375 C 81.68675 25.9375 81.76875 25.93875 81.84375 25.96875 L 81.875 25.96875 L 81.875 25.75 C 81.812 25.732 81.72525 25.71875 81.65625 25.71875 z M 73.28125 25.75 L 73.28125 27.1875 L 73.53125 27.1875 L 73.53125 25.75 L 73.28125 25.75 z M 82.15625 25.75 L 82.15625 27.1875 L 82.40625 27.1875 L 82.40625 25.75 L 82.15625 25.75 z M 54.1875 25.90625 C 54.412499 25.90625 54.5 26.10675 54.5 26.34375 L 53.75 26.34375 C 53.777 26.11275 53.9085 25.90625 54.1875 25.90625 z M 55.6875 25.90625 C 56.002499 25.90625 56.15625 26.14475 56.15625 26.46875 C 56.15625 26.78975 55.996499 27.03125 55.6875 27.03125 C 55.5765 27.03125 55.44875 27.01375 55.34375 26.96875 L 55.34375 26 C 55.44575 25.943 55.5405 25.90625 55.6875 25.90625 z M 57.375 25.90625 C 57.6 25.90625 57.6875 26.10675 57.6875 26.34375 L 56.9375 26.34375 C 56.9645 26.11275 57.096 25.90625 57.375 25.90625 z M 60.03125 25.90625 C 60.25625 25.90625 60.34375 26.10675 60.34375 26.34375 L 59.59375 26.34375 C 59.62075 26.11275 59.752251 25.90625 60.03125 25.90625 z M 63.90625 25.90625 C 64.221249 25.90625 64.375 26.14475 64.375 26.46875 C 64.375 26.78975 64.215249 27.03125 63.90625 27.03125 C 63.79525 27.03125 63.69875 27.01375 63.59375 26.96875 L 63.59375 26 C 63.69575 25.943 63.75925 25.90625 63.90625 25.90625 z M 69.03125 25.90625 C 69.346249 25.90625 69.5 26.14475 69.5 26.46875 C 69.5 26.79275 69.349249 27 69.03125 27 C 68.88425 27 68.82075 26.96325 68.71875 26.90625 L 68.71875 25.96875 C 68.82375 25.92375 68.91725 25.90625 69.03125 25.90625 z M 72.25 25.90625 C 72.349 25.90625 72.46775 25.949 72.59375 26 L 72.59375 26.9375 C 72.50075 26.9885 72.40725 27.03125 72.28125 27.03125 C 71.96625 27.03125 71.78125 26.78075 71.78125 26.46875 C 71.78125 26.15375 71.938 25.90625 72.25 25.90625 z M 78.53125 25.90625 C 78.64525 25.90625 78.77 25.92375 78.875 25.96875 L 78.875 26.90625 C 78.773 26.96325 78.67825 27 78.53125 27 C 78.213251 27 78.0625 26.79275 78.0625 26.46875 C 78.0625 26.14775 78.210251 25.90625 78.53125 25.90625 z M 65.84375 26.5 L 65.84375 26.84375 C 65.73875 26.94575 65.6115 27.03125 65.4375 27.03125 C 65.4015 27.03125 65.37075 27.012 65.34375 27 C 65.25975 26.961 65.1875 26.88325 65.1875 26.78125 C 65.1875 26.74525 65.19775 26.7235 65.21875 26.6875 C 65.26675 26.6095 65.35775 26.55525 65.46875 26.53125 C 65.52875 26.51925 65.64575 26.506 65.84375 26.5 z M 70.96875 26.5 L 70.96875 26.84375 C 70.86375 26.94575 70.7365 27.03125 70.5625 27.03125 C 70.5265 27.03125 70.49575 27.012 70.46875 27 C 70.38475 26.961 70.3125 26.88325 70.3125 26.78125 C 70.3125 26.74525 70.32275 26.7235 70.34375 26.6875 C 70.39175 26.6095 70.4515 26.55525 70.5625 26.53125 C 70.6225 26.51925 70.77075 26.506 70.96875 26.5 z M 74.78125 26.5 L 74.78125 26.84375 C 74.67625 26.94575 74.58025 27.03125 74.40625 27.03125 C 74.37025 27.03125 74.3395 27.012 74.3125 27 C 74.2285 26.961 74.125 26.88325 74.125 26.78125 C 74.125 26.74525 74.13525 26.7235 74.15625 26.6875 C 74.20425 26.6095 74.29525 26.55525 74.40625 26.53125 C 74.46625 26.51925 74.58325 26.506 74.78125 26.5 z M 80.375 26.5 L 80.375 26.84375 C 80.27 26.94575 80.14275 27.03125 79.96875 27.03125 C 79.93275 27.03125 79.902 27.012 79.875 27 C 79.791 26.961 79.71875 26.88325 79.71875 26.78125 C 79.71875 26.74525 79.729 26.7235 79.75 26.6875 C 79.798 26.6095 79.889 26.55525 80 26.53125 C 80.06 26.51925 80.177 26.506 80.375 26.5 z M 51.84375 28.9375 L 51.84375 30.9375 L 52.09375 30.9375 L 52.09375 28.9375 L 51.84375 28.9375 z M 57.78125 28.9375 L 57.78125 30.625 C 57.78425 30.829 57.90475 30.96875 58.09375 30.96875 C 58.23475 30.96875 58.35525 30.92425 58.40625 30.90625 L 58.40625 30.71875 C 58.34025 30.73975 58.27575 30.75 58.21875 30.75 C 58.03275 30.75 58.03125 30.64225 58.03125 30.53125 L 58.03125 28.9375 L 57.78125 28.9375 z M 63.03125 28.9375 L 63.03125 30.9375 L 63.28125 30.9375 L 63.28125 29.75 C 63.428249 29.678 63.54225 29.65625 63.65625 29.65625 C 63.893249 29.65625 63.96875 29.76 63.96875 30 L 63.96875 30.9375 L 64.21875 30.9375 L 64.21875 29.9375 C 64.21875 29.6315 64.052999 29.4375 63.75 29.4375 C 63.6 29.4375 63.455249 29.50675 63.28125 29.59375 L 63.28125 28.9375 L 63.03125 28.9375 z M 78.5625 28.9375 L 78.5625 29.53125 C 78.4485 29.48325 78.335749 29.46875 78.21875 29.46875 C 78.02075 29.46875 77.850749 29.52725 77.71875 29.65625 C 77.58075 29.79425 77.5 29.96975 77.5 30.21875 C 77.5 30.65075 77.7435 30.96875 78.1875 30.96875 C 78.331499 30.96875 78.46475 30.92775 78.59375 30.84375 L 78.625 30.9375 L 78.8125 30.9375 L 78.8125 28.9375 L 78.5625 28.9375 z M 53.90625 29.46875 C 53.69625 29.46875 53.5545 29.5375 53.4375 29.6875 C 53.3265 29.8375 53.25 30.034 53.25 30.25 C 53.25 30.718 53.529001 30.96875 54 30.96875 C 54.162 30.96875 54.2905 30.926 54.4375 30.875 L 54.4375 30.6875 C 54.2965 30.7325 54.1885 30.75 54.0625 30.75 C 53.8795 30.75 53.74025 30.715 53.65625 30.625 C 53.57225 30.535 53.503 30.41925 53.5 30.28125 L 54.5 30.28125 L 54.5 30.25 L 54.5 30.125 C 54.5 29.708 54.28725 29.46875 53.90625 29.46875 z M 55.40625 29.46875 C 55.29825 29.46875 55.18675 29.49525 55.09375 29.53125 C 54.949751 29.58825 54.8125 29.677 54.8125 29.875 C 54.8125 30.103 55.008001 30.196 55.125 30.25 L 55.375 30.3125 C 55.447 30.3395 55.5145 30.4045 55.5625 30.4375 C 55.6195 30.4765 55.65625 30.5055 55.65625 30.5625 C 55.65625 30.7065 55.4715 30.75 55.3125 30.75 C 55.135501 30.75 54.9745 30.71925 54.8125 30.65625 L 54.8125 30.875 C 54.9445 30.932 55.121751 30.96875 55.34375 30.96875 C 55.56575 30.96875 55.7135 30.90725 55.8125 30.78125 C 55.8635 30.71825 55.90625 30.6405 55.90625 30.5625 C 55.90625 30.4695 55.8755 30.3815 55.8125 30.3125 C 55.7585 30.2525 55.72925 30.22825 55.53125 30.15625 L 55.28125 30.0625 C 55.21525 30.0385 55.17725 30.015 55.15625 30 C 55.10525 29.967 55.0625 29.93075 55.0625 29.84375 C 55.0625 29.81375 55.092 29.78 55.125 29.75 C 55.203 29.678 55.305501 29.65625 55.4375 29.65625 C 55.6235 29.65625 55.7465 29.75125 55.8125 29.78125 L 55.8125 29.59375 C 55.680501 29.53075 55.58925 29.47175 55.40625 29.46875 z M 56.84375 29.46875 C 56.63375 29.46875 56.46075 29.5375 56.34375 29.6875 C 56.23275 29.8375 56.1875 30.034 56.1875 30.25 C 56.1875 30.718 56.43525 30.96875 56.90625 30.96875 C 57.068249 30.96875 57.228 30.926 57.375 30.875 L 57.375 30.6875 C 57.234 30.7325 57.09475 30.75 56.96875 30.75 C 56.78575 30.75 56.6465 30.715 56.5625 30.625 C 56.4785 30.535 56.4405 30.41925 56.4375 30.28125 L 57.4375 30.28125 L 57.4375 30.25 L 57.4375 30.125 C 57.4375 29.708 57.224749 29.46875 56.84375 29.46875 z M 60.90625 29.46875 C 60.76525 29.46875 60.629 29.526 60.5 29.625 L 60.4375 29.5 L 60.28125 29.5 L 60.28125 30.9375 L 60.53125 30.9375 L 60.53125 29.78125 C 60.63625 29.71225 60.7165 29.6875 60.8125 29.6875 C 60.9055 29.6875 60.9875 29.68875 61.0625 29.71875 L 61.09375 29.71875 L 61.09375 29.5 C 61.03075 29.482 60.97525 29.46875 60.90625 29.46875 z M 65.15625 29.46875 C 64.98825 29.46875 64.812249 29.5025 64.65625 29.5625 L 64.65625 29.75 C 64.779249 29.708 65.002 29.6875 65.125 29.6875 C 65.304999 29.6875 65.3955 29.72975 65.4375 29.84375 C 65.4555 29.89175 65.46875 29.9575 65.46875 30.0625 L 65.46875 30.09375 C 65.24675 30.09975 65.081499 30.12025 64.9375 30.15625 C 64.7485 30.20725 64.59375 30.3225 64.59375 30.5625 C 64.59375 30.7965 64.77925 30.96875 65.03125 30.96875 C 65.193249 30.96875 65.365 30.9235 65.5 30.8125 L 65.53125 30.9375 L 65.71875 30.9375 L 65.71875 30 C 65.71875 29.763 65.68425 29.6645 65.53125 29.5625 C 65.45025 29.5085 65.324249 29.46875 65.15625 29.46875 z M 66.875 29.46875 C 66.722 29.46875 66.526749 29.49775 66.34375 29.59375 L 66.3125 29.5 L 66.125 29.5 L 66.125 30.9375 L 66.375 30.9375 L 66.375 29.78125 C 66.521999 29.71225 66.66725 29.65625 66.78125 29.65625 C 67.015249 29.65625 67.09375 29.76 67.09375 30 L 67.09375 30.9375 L 67.34375 30.9375 L 67.34375 29.96875 C 67.34375 29.66275 67.186999 29.46875 66.875 29.46875 z M 69.1875 29.46875 C 69.0465 29.46875 68.91025 29.526 68.78125 29.625 L 68.75 29.5 L 68.5625 29.5 L 68.5625 30.9375 L 68.8125 30.9375 L 68.8125 29.78125 C 68.9175 29.71225 69.029 29.6875 69.125 29.6875 C 69.218 29.6875 69.3 29.68875 69.375 29.71875 L 69.40625 29.71875 L 69.40625 29.5 C 69.34325 29.482 69.2565 29.46875 69.1875 29.46875 z M 70.25 29.46875 C 70.040001 29.46875 69.89825 29.5375 69.78125 29.6875 C 69.67025 29.8375 69.625 30.034 69.625 30.25 C 69.625 30.718 69.872751 30.96875 70.34375 30.96875 C 70.50575 30.96875 70.665501 30.926 70.8125 30.875 L 70.8125 30.6875 C 70.671501 30.7325 70.53225 30.75 70.40625 30.75 C 70.223251 30.75 70.084 30.715 70 30.625 C 69.916 30.535 69.84675 30.41925 69.84375 30.28125 L 70.84375 30.28125 L 70.84375 30.25 L 70.84375 30.125 C 70.84375 29.708 70.631 29.46875 70.25 29.46875 z M 71.75 29.46875 C 71.642 29.46875 71.5305 29.49525 71.4375 29.53125 C 71.2935 29.58825 71.1875 29.677 71.1875 29.875 C 71.1875 30.103 71.383 30.196 71.5 30.25 L 71.71875 30.3125 C 71.79075 30.3395 71.85825 30.4045 71.90625 30.4375 C 71.96325 30.4765 72 30.5055 72 30.5625 C 72 30.7065 71.846499 30.75 71.6875 30.75 C 71.5105 30.75 71.318249 30.71925 71.15625 30.65625 L 71.15625 30.875 C 71.28825 30.932 71.4655 30.96875 71.6875 30.96875 C 71.909499 30.96875 72.0885 30.90725 72.1875 30.78125 C 72.2385 30.71825 72.25 30.6405 72.25 30.5625 C 72.25 30.4695 72.21925 30.3815 72.15625 30.3125 C 72.10225 30.2525 72.072999 30.22825 71.875 30.15625 L 71.65625 30.0625 C 71.59025 30.0385 71.521 30.015 71.5 30 C 71.449 29.967 71.4375 29.93075 71.4375 29.84375 C 71.4375 29.81375 71.43575 29.78 71.46875 29.75 C 71.54675 29.678 71.64925 29.65625 71.78125 29.65625 C 71.967249 29.65625 72.09025 29.75125 72.15625 29.78125 L 72.15625 29.59375 C 72.02425 29.53075 71.932999 29.47175 71.75 29.46875 z M 73.25 29.46875 C 73.106 29.46875 72.97275 29.50975 72.84375 29.59375 L 72.78125 29.5 L 72.59375 29.5 L 72.59375 31.71875 L 72.84375 31.71875 L 72.84375 30.90625 C 72.95775 30.95425 73.10175 30.96875 73.21875 30.96875 C 73.41675 30.96875 73.5555 30.91025 73.6875 30.78125 C 73.8255 30.64625 73.90625 30.4365 73.90625 30.1875 C 73.90625 29.8875 73.79475 29.6915 73.59375 29.5625 C 73.49175 29.4995 73.394 29.46875 73.25 29.46875 z M 74.90625 29.46875 C 74.46225 29.46875 74.1875 29.76575 74.1875 30.21875 C 74.1875 30.66875 74.46225 30.96875 74.90625 30.96875 C 75.35025 30.96875 75.59375 30.66875 75.59375 30.21875 C 75.59375 29.76575 75.35325 29.46875 74.90625 29.46875 z M 76.6875 29.46875 C 76.534501 29.46875 76.3705 29.49775 76.1875 29.59375 L 76.125 29.5 L 75.96875 29.5 L 75.96875 30.9375 L 76.21875 30.9375 L 76.21875 29.78125 C 76.36575 29.71225 76.479751 29.65625 76.59375 29.65625 C 76.82775 29.65625 76.90625 29.76 76.90625 30 L 76.90625 30.9375 L 77.15625 30.9375 L 77.15625 29.96875 C 77.15625 29.66275 76.9995 29.46875 76.6875 29.46875 z M 79.8125 29.46875 C 79.6025 29.46875 79.4295 29.5375 79.3125 29.6875 C 79.2015 29.8375 79.15625 30.034 79.15625 30.25 C 79.15625 30.718 79.404001 30.96875 79.875 30.96875 C 80.037 30.96875 80.19675 30.926 80.34375 30.875 L 80.34375 30.6875 C 80.20275 30.7325 80.0635 30.75 79.9375 30.75 C 79.7545 30.75 79.61525 30.715 79.53125 30.625 C 79.44725 30.535 79.40925 30.41925 79.40625 30.28125 L 80.375 30.28125 L 80.40625 30.25 L 80.40625 30.125 C 80.40625 29.708 80.1935 29.46875 79.8125 29.46875 z M 81.5 29.46875 C 81.347 29.46875 81.151749 29.49775 80.96875 29.59375 L 80.9375 29.5 L 80.75 29.5 L 80.75 30.9375 L 81 30.9375 L 81 29.78125 C 81.146999 29.71225 81.29225 29.65625 81.40625 29.65625 C 81.640249 29.65625 81.71875 29.76 81.71875 30 L 81.71875 30.9375 L 81.96875 30.9375 L 81.96875 29.96875 C 81.96875 29.66275 81.811999 29.46875 81.5 29.46875 z M 52.75 29.5 L 52.125 30.125 L 52.78125 30.9375 L 53.0625 30.9375 L 52.40625 30.125 L 53.03125 29.5 L 52.75 29.5 z M 58.625 29.5 L 58.625 30.46875 C 58.625 30.77475 58.813 30.96875 59.125 30.96875 C 59.278 30.96875 59.442 30.9085 59.625 30.8125 L 59.6875 30.9375 L 59.84375 30.9375 L 59.84375 29.5 L 59.59375 29.5 L 59.59375 30.65625 C 59.44675 30.72525 59.33275 30.75 59.21875 30.75 C 58.98475 30.75 58.875 30.64625 58.875 30.40625 L 58.875 29.5 L 58.625 29.5 z M 61.375 29.5 L 61.375 30.46875 C 61.375 30.77475 61.531751 30.96875 61.84375 30.96875 C 61.99675 30.96875 62.192001 30.9085 62.375 30.8125 L 62.40625 30.9375 L 62.59375 30.9375 L 62.59375 29.5 L 62.34375 29.5 L 62.34375 30.65625 C 62.196751 30.72525 62.0515 30.75 61.9375 30.75 C 61.703501 30.75 61.625 30.64625 61.625 30.40625 L 61.625 29.5 L 61.375 29.5 z M 53.9375 29.65625 C 54.1625 29.65625 54.25 29.85675 54.25 30.09375 L 53.5 30.09375 C 53.527 29.86275 53.6585 29.65625 53.9375 29.65625 z M 56.875 29.65625 C 57.099999 29.65625 57.1875 29.85675 57.1875 30.09375 L 56.4375 30.09375 C 56.4645 29.86275 56.596 29.65625 56.875 29.65625 z M 70.28125 29.65625 C 70.50625 29.65625 70.625 29.85675 70.625 30.09375 L 69.84375 30.09375 C 69.87075 29.86275 70.002251 29.65625 70.28125 29.65625 z M 73.1875 29.65625 C 73.5025 29.65625 73.65625 29.89475 73.65625 30.21875 C 73.65625 30.53975 73.4965 30.78125 73.1875 30.78125 C 73.0765 30.78125 72.94875 30.76375 72.84375 30.71875 L 72.84375 29.75 C 72.94575 29.693 73.0405 29.65625 73.1875 29.65625 z M 74.90625 29.65625 C 75.20025 29.65625 75.34375 29.90975 75.34375 30.21875 C 75.34375 30.52775 75.20325 30.78125 74.90625 30.78125 C 74.61225 30.78125 74.46875 30.52475 74.46875 30.21875 C 74.46875 29.91275 74.61525 29.65625 74.90625 29.65625 z M 78.21875 29.65625 C 78.332749 29.65625 78.4575 29.67375 78.5625 29.71875 L 78.5625 30.65625 C 78.4605 30.71325 78.365749 30.75 78.21875 30.75 C 77.90075 30.75 77.75 30.54275 77.75 30.21875 C 77.75 29.89775 77.89775 29.65625 78.21875 29.65625 z M 79.84375 29.65625 C 80.06875 29.65625 80.15625 29.85675 80.15625 30.09375 L 79.40625 30.09375 C 79.43325 29.86275 79.564751 29.65625 79.84375 29.65625 z M 65.46875 30.25 L 65.46875 30.59375 C 65.36375 30.69575 65.267749 30.78125 65.09375 30.78125 C 65.05775 30.78125 64.99575 30.762 64.96875 30.75 C 64.88475 30.711 64.8125 30.63325 64.8125 30.53125 C 64.8125 30.49525 64.82275 30.4735 64.84375 30.4375 C 64.89175 30.3595 64.98275 30.30525 65.09375 30.28125 C 65.15375 30.26925 65.27075 30.256 65.46875 30.25 z "
       transform="translate(0,956.36218)"
       id="path3207" />
    <path
       style="font-size:3px;font-style:normal;font-variant:normal;font-weight:normal;font-stretch:normal;line-height:125%;letter-spacing:0px;word-spacing:0px;fill:#4d4d4d;fill-opacity:0.83921569;stroke:none;font-family:Cantarell;-inkscape-font-specification:Cantarell"
       d="M 49.65625 41.21875 L 49.65625 41.4375 L 50.34375 41.4375 L 50.34375 43.3125 L 50.59375 43.3125 L 50.59375 41.4375 L 51.28125 41.4375 L 51.28125 41.21875 L 49.65625 41.21875 z M 51.53125 41.3125 L 51.53125 41.5625 L 51.78125 41.5625 L 51.78125 41.3125 L 51.53125 41.3125 z M 70.34375 41.3125 L 70.34375 43.3125 L 70.53125 43.3125 L 70.59375 43.21875 C 70.72275 43.30275 70.856 43.34375 71 43.34375 C 71.444 43.34375 71.65625 43.02575 71.65625 42.59375 C 71.65625 42.34475 71.5755 42.16925 71.4375 42.03125 C 71.3055 41.90225 71.16675 41.84375 70.96875 41.84375 C 70.85175 41.84375 70.70775 41.85825 70.59375 41.90625 L 70.59375 41.3125 L 70.34375 41.3125 z M 75.1875 41.3125 L 75.1875 41.5625 L 75.40625 41.5625 L 75.40625 41.3125 L 75.1875 41.3125 z M 80.75 41.3125 L 80.75 41.90625 C 80.636 41.85825 80.52325 41.84375 80.40625 41.84375 C 80.20825 41.84375 80.03825 41.90225 79.90625 42.03125 C 79.76825 42.16925 79.71875 42.34475 79.71875 42.59375 C 79.71875 43.02575 79.931 43.34375 80.375 43.34375 C 80.519 43.34375 80.65225 43.30275 80.78125 43.21875 L 80.84375 43.3125 L 81 43.3125 L 81 41.3125 L 80.75 41.3125 z M 84.03125 41.3125 L 84.03125 41.5625 L 84.28125 41.5625 L 84.28125 41.3125 L 84.03125 41.3125 z M 68.5 41.5 L 68.5 41.875 L 68.25 41.875 L 68.25 42.0625 L 68.5 42.0625 L 68.5 42.875 C 68.5 43.181 68.60625 43.34375 68.90625 43.34375 C 69.00825 43.34375 69.10775 43.31725 69.21875 43.28125 L 69.21875 43.09375 C 69.14075 43.11475 69.05575 43.125 68.96875 43.125 C 68.78275 43.125 68.75 43.03575 68.75 42.84375 L 68.75 42.0625 L 69.21875 42.0625 L 69.21875 41.875 L 68.75 41.875 L 68.75 41.5 L 68.5 41.5 z M 52.8125 41.84375 C 52.7285 41.84375 52.6405 41.842 52.5625 41.875 C 52.2985 41.986 52.125 42.256 52.125 42.625 C 52.125 42.814 52.166 42.9395 52.25 43.0625 C 52.361 43.2245 52.53225 43.34375 52.78125 43.34375 C 52.925249 43.34375 53.0645 43.316 53.1875 43.25 L 53.1875 43.28125 C 53.1875 43.37425 53.1935 43.458 53.1875 43.5 C 53.1575 43.76105 52.959249 43.90625 52.65625 43.90625 C 52.55125 43.90625 52.4385 43.88875 52.3125 43.84375 L 52.25 44 C 52.37 44.054 52.5465 44.09375 52.6875 44.09375 C 52.909499 44.09375 53.10175 44.0485 53.21875 43.9375 C 53.362749 43.7995 53.4375 43.64505 53.4375 43.375 L 53.4375 41.875 L 53.25 41.875 L 53.21875 41.9375 L 53.15625 41.90625 C 53.03625 41.85225 52.9205 41.84375 52.8125 41.84375 z M 54.375 41.84375 C 54.207 41.84375 54.06225 41.8775 53.90625 41.9375 L 53.90625 42.125 C 54.02925 42.083 54.22075 42.0625 54.34375 42.0625 C 54.52375 42.0625 54.6455 42.10475 54.6875 42.21875 C 54.7055 42.26675 54.71875 42.3325 54.71875 42.4375 L 54.71875 42.46875 C 54.49675 42.47475 54.30025 42.49525 54.15625 42.53125 C 53.96725 42.58225 53.8125 42.6975 53.8125 42.9375 C 53.8125 43.1715 54.02925 43.34375 54.28125 43.34375 C 54.44325 43.34375 54.58375 43.2985 54.71875 43.1875 L 54.78125 43.3125 L 54.96875 43.3125 L 54.96875 42.375 C 54.96875 42.138 54.903 42.0395 54.75 41.9375 C 54.669 41.8835 54.543 41.84375 54.375 41.84375 z M 56.8125 41.84375 C 56.6685 41.84375 56.53525 41.88475 56.40625 41.96875 L 56.34375 41.875 L 56.1875 41.875 L 56.1875 44.09375 L 56.4375 44.09375 L 56.4375 43.28125 C 56.5515 43.32925 56.66425 43.34375 56.78125 43.34375 C 56.979249 43.34375 57.14925 43.28525 57.28125 43.15625 C 57.419249 43.02125 57.46875 42.8115 57.46875 42.5625 C 57.46875 42.2625 57.388499 42.0665 57.1875 41.9375 C 57.0855 41.8745 56.956499 41.84375 56.8125 41.84375 z M 58.4375 41.84375 C 58.2275 41.84375 58.0545 41.9125 57.9375 42.0625 C 57.8265 42.2125 57.78125 42.409 57.78125 42.625 C 57.78125 43.093 58.029 43.34375 58.5 43.34375 C 58.662 43.34375 58.82175 43.301 58.96875 43.25 L 58.96875 43.0625 C 58.82775 43.1075 58.6885 43.125 58.5625 43.125 C 58.3795 43.125 58.24025 43.09 58.15625 43 C 58.07225 42.91 58.003 42.79425 58 42.65625 L 59 42.65625 L 59.03125 42.625 L 59.03125 42.5 C 59.03125 42.083 58.818499 41.84375 58.4375 41.84375 z M 60 41.84375 C 59.859 41.84375 59.72275 41.901 59.59375 42 L 59.5625 41.875 L 59.375 41.875 L 59.375 43.3125 L 59.625 43.3125 L 59.625 42.15625 C 59.73 42.08725 59.8415 42.0625 59.9375 42.0625 C 60.0305 42.0625 60.1125 42.06375 60.1875 42.09375 L 60.21875 42.09375 L 60.21875 41.875 C 60.15575 41.857 60.069 41.84375 60 41.84375 z M 61.90625 41.84375 C 61.69625 41.84375 61.52325 41.9125 61.40625 42.0625 C 61.29525 42.2125 61.25 42.409 61.25 42.625 C 61.25 43.093 61.49775 43.34375 61.96875 43.34375 C 62.13075 43.34375 62.2905 43.301 62.4375 43.25 L 62.4375 43.0625 C 62.2965 43.1075 62.15725 43.125 62.03125 43.125 C 61.84825 43.125 61.709 43.09 61.625 43 C 61.541 42.91 61.47175 42.79425 61.46875 42.65625 L 62.46875 42.65625 L 62.5 42.625 L 62.5 42.5 C 62.5 42.083 62.287249 41.84375 61.90625 41.84375 z M 63.5 41.84375 C 63.437 41.84375 63.3845 41.854 63.3125 41.875 C 63.2525 41.893 63.1615 41.90575 63.0625 41.96875 L 63.03125 41.875 L 62.84375 41.875 L 62.84375 43.3125 L 63.09375 43.3125 L 63.09375 42.15625 C 63.22275 42.08425 63.3445 42.03125 63.4375 42.03125 C 63.6415 42.03125 63.71875 42.153 63.71875 42.375 L 63.71875 43.3125 L 63.96875 43.3125 L 63.96875 42.34375 C 63.96875 42.27475 63.9495 42.19825 63.9375 42.15625 C 64.0785 42.07225 64.17925 42.03125 64.28125 42.03125 C 64.48225 42.03125 64.59375 42.153 64.59375 42.375 L 64.59375 43.3125 L 64.84375 43.3125 L 64.84375 42.34375 C 64.84375 42.05275 64.678 41.84375 64.375 41.84375 C 64.18 41.84375 64.022 41.92925 63.875 42.03125 C 63.8 41.92325 63.671 41.84375 63.5 41.84375 z M 65.875 41.84375 C 65.731 41.84375 65.59775 41.88475 65.46875 41.96875 L 65.40625 41.875 L 65.25 41.875 L 65.25 44.09375 L 65.46875 44.09375 L 65.46875 43.28125 C 65.58275 43.32925 65.72675 43.34375 65.84375 43.34375 C 66.04175 43.34375 66.1805 43.28525 66.3125 43.15625 C 66.4505 43.02125 66.53125 42.8115 66.53125 42.5625 C 66.53125 42.2625 66.41975 42.0665 66.21875 41.9375 C 66.11675 41.8745 66.019 41.84375 65.875 41.84375 z M 67.40625 41.84375 C 67.23825 41.84375 67.0935 41.8775 66.9375 41.9375 L 66.9375 42.125 C 67.0605 42.083 67.252 42.0625 67.375 42.0625 C 67.555 42.0625 67.67675 42.10475 67.71875 42.21875 C 67.73675 42.26675 67.75 42.3325 67.75 42.4375 L 67.75 42.46875 C 67.528 42.47475 67.3315 42.49525 67.1875 42.53125 C 66.9985 42.58225 66.84375 42.6975 66.84375 42.9375 C 66.84375 43.1715 67.0605 43.34375 67.3125 43.34375 C 67.4745 43.34375 67.615 43.2985 67.75 43.1875 L 67.8125 43.3125 L 68 43.3125 L 68 42.375 C 68 42.138 67.93425 42.0395 67.78125 41.9375 C 67.70025 41.8835 67.57425 41.84375 67.40625 41.84375 z M 72.53125 41.84375 C 72.36325 41.84375 72.187249 41.8775 72.03125 41.9375 L 72.03125 42.125 C 72.154249 42.083 72.377 42.0625 72.5 42.0625 C 72.679999 42.0625 72.7705 42.10475 72.8125 42.21875 C 72.8305 42.26675 72.84375 42.3325 72.84375 42.4375 L 72.84375 42.46875 C 72.62175 42.47475 72.456499 42.49525 72.3125 42.53125 C 72.1235 42.58225 71.96875 42.6975 71.96875 42.9375 C 71.96875 43.1715 72.15425 43.34375 72.40625 43.34375 C 72.568249 43.34375 72.74 43.2985 72.875 43.1875 L 72.90625 43.3125 L 73.09375 43.3125 L 73.09375 42.375 C 73.09375 42.138 73.05925 42.0395 72.90625 41.9375 C 72.82525 41.8835 72.699249 41.84375 72.53125 41.84375 z M 74.125 41.84375 C 74.041 41.84375 73.952999 41.842 73.875 41.875 C 73.611 41.986 73.4375 42.256 73.4375 42.625 C 73.4375 42.814 73.4785 42.9395 73.5625 43.0625 C 73.673499 43.2245 73.84475 43.34375 74.09375 43.34375 C 74.237749 43.34375 74.377 43.316 74.5 43.25 L 74.5 43.28125 C 74.5 43.37425 74.47475 43.458 74.46875 43.5 C 74.43875 43.76105 74.271749 43.90625 73.96875 43.90625 C 73.86375 43.90625 73.750999 43.88875 73.625 43.84375 L 73.5625 44 C 73.682499 44.054 73.859 44.09375 74 44.09375 C 74.221999 44.09375 74.41425 44.0485 74.53125 43.9375 C 74.675249 43.7995 74.75 43.64505 74.75 43.375 L 74.75 41.875 L 74.5625 41.875 L 74.53125 41.9375 L 74.46875 41.90625 C 74.34875 41.85225 74.232999 41.84375 74.125 41.84375 z M 76.375 41.84375 C 76.207 41.84375 76.031 41.8775 75.875 41.9375 L 75.875 42.125 C 75.998 42.083 76.22075 42.0625 76.34375 42.0625 C 76.52375 42.0625 76.61425 42.10475 76.65625 42.21875 C 76.67425 42.26675 76.6875 42.3325 76.6875 42.4375 L 76.6875 42.46875 C 76.4655 42.47475 76.30025 42.49525 76.15625 42.53125 C 75.96725 42.58225 75.78125 42.6975 75.78125 42.9375 C 75.78125 43.1715 75.998 43.34375 76.25 43.34375 C 76.412 43.34375 76.5525 43.2985 76.6875 43.1875 L 76.75 43.3125 L 76.9375 43.3125 L 76.9375 42.375 C 76.9375 42.138 76.903 42.0395 76.75 41.9375 C 76.669 41.8835 76.543 41.84375 76.375 41.84375 z M 78.09375 41.84375 C 77.94075 41.84375 77.7455 41.87275 77.5625 41.96875 L 77.53125 41.875 L 77.34375 41.875 L 77.34375 43.3125 L 77.59375 43.3125 L 77.59375 42.15625 C 77.74075 42.08725 77.886 42.03125 78 42.03125 C 78.234 42.03125 78.3125 42.135 78.3125 42.375 L 78.3125 43.3125 L 78.5625 43.3125 L 78.5625 42.34375 C 78.5625 42.03775 78.40575 41.84375 78.09375 41.84375 z M 81.9375 41.84375 C 81.7695 41.84375 81.624749 41.8775 81.46875 41.9375 L 81.46875 42.125 C 81.591749 42.083 81.78325 42.0625 81.90625 42.0625 C 82.086249 42.0625 82.208 42.10475 82.25 42.21875 C 82.268 42.26675 82.28125 42.3325 82.28125 42.4375 L 82.28125 42.46875 C 82.05925 42.47475 81.862749 42.49525 81.71875 42.53125 C 81.52975 42.58225 81.375 42.6975 81.375 42.9375 C 81.375 43.1715 81.59175 43.34375 81.84375 43.34375 C 82.005749 43.34375 82.14625 43.2985 82.28125 43.1875 L 82.34375 43.3125 L 82.53125 43.3125 L 82.53125 42.375 C 82.53125 42.138 82.4655 42.0395 82.3125 41.9375 C 82.2315 41.8835 82.105499 41.84375 81.9375 41.84375 z M 83.5625 41.84375 C 83.4215 41.84375 83.285249 41.901 83.15625 42 L 83.125 41.875 L 82.9375 41.875 L 82.9375 43.3125 L 83.1875 43.3125 L 83.1875 42.15625 C 83.292499 42.08725 83.404 42.0625 83.5 42.0625 C 83.593 42.0625 83.64375 42.06375 83.71875 42.09375 L 83.75 42.09375 L 83.75 41.875 C 83.687 41.857 83.631499 41.84375 83.5625 41.84375 z M 51.53125 41.875 L 51.53125 43.3125 L 51.78125 43.3125 L 51.78125 41.875 L 51.53125 41.875 z M 75.1875 41.875 L 75.1875 43.3125 L 75.40625 43.3125 L 75.40625 41.875 L 75.1875 41.875 z M 84.03125 41.875 L 84.03125 43.3125 L 84.28125 43.3125 L 84.28125 41.875 L 84.03125 41.875 z M 52.84375 42.03125 C 52.94275 42.03125 53.0615 42.074 53.1875 42.125 L 53.1875 43.0625 C 53.0945 43.1135 52.96975 43.15625 52.84375 43.15625 C 52.52875 43.15625 52.375 42.90575 52.375 42.59375 C 52.375 42.27875 52.53175 42.03125 52.84375 42.03125 z M 56.75 42.03125 C 57.064999 42.03125 57.21875 42.26975 57.21875 42.59375 C 57.21875 42.91475 57.058999 43.15625 56.75 43.15625 C 56.639 43.15625 56.5425 43.13875 56.4375 43.09375 L 56.4375 42.125 C 56.5395 42.068 56.603 42.03125 56.75 42.03125 z M 58.4375 42.03125 C 58.6625 42.03125 58.78125 42.23175 58.78125 42.46875 L 58.03125 42.46875 C 58.05825 42.23775 58.1585 42.03125 58.4375 42.03125 z M 61.90625 42.03125 C 62.13125 42.03125 62.25 42.23175 62.25 42.46875 L 61.5 42.46875 C 61.527 42.23775 61.62725 42.03125 61.90625 42.03125 z M 65.8125 42.03125 C 66.1275 42.03125 66.28125 42.26975 66.28125 42.59375 C 66.28125 42.91475 66.1215 43.15625 65.8125 43.15625 C 65.7015 43.15625 65.57375 43.13875 65.46875 43.09375 L 65.46875 42.125 C 65.57075 42.068 65.6655 42.03125 65.8125 42.03125 z M 70.9375 42.03125 C 71.2525 42.03125 71.40625 42.26975 71.40625 42.59375 C 71.40625 42.91775 71.2555 43.125 70.9375 43.125 C 70.7905 43.125 70.69575 43.08825 70.59375 43.03125 L 70.59375 42.09375 C 70.69875 42.04875 70.8235 42.03125 70.9375 42.03125 z M 74.15625 42.03125 C 74.25525 42.03125 74.374 42.074 74.5 42.125 L 74.5 43.0625 C 74.407 43.1135 74.282249 43.15625 74.15625 43.15625 C 73.84125 43.15625 73.6875 42.90575 73.6875 42.59375 C 73.6875 42.27875 73.84425 42.03125 74.15625 42.03125 z M 80.4375 42.03125 C 80.5515 42.03125 80.645 42.04875 80.75 42.09375 L 80.75 43.03125 C 80.648 43.08825 80.5845 43.125 80.4375 43.125 C 80.1195 43.125 79.96875 42.91775 79.96875 42.59375 C 79.96875 42.27275 80.1165 42.03125 80.4375 42.03125 z M 54.71875 42.625 L 54.71875 42.96875 C 54.61375 43.07075 54.4865 43.15625 54.3125 43.15625 C 54.2765 43.15625 54.24575 43.137 54.21875 43.125 C 54.13475 43.086 54.0625 43.00825 54.0625 42.90625 C 54.0625 42.87025 54.07275 42.8485 54.09375 42.8125 C 54.14175 42.7345 54.2015 42.68025 54.3125 42.65625 C 54.3725 42.64425 54.52075 42.631 54.71875 42.625 z M 67.75 42.625 L 67.75 42.96875 C 67.645 43.07075 67.51775 43.15625 67.34375 43.15625 C 67.30775 43.15625 67.277 43.137 67.25 43.125 C 67.166 43.086 67.09375 43.00825 67.09375 42.90625 C 67.09375 42.87025 67.104 42.8485 67.125 42.8125 C 67.173 42.7345 67.23275 42.68025 67.34375 42.65625 C 67.40375 42.64425 67.552 42.631 67.75 42.625 z M 72.84375 42.625 L 72.84375 42.96875 C 72.73875 43.07075 72.642749 43.15625 72.46875 43.15625 C 72.43275 43.15625 72.37075 43.137 72.34375 43.125 C 72.25975 43.086 72.1875 43.00825 72.1875 42.90625 C 72.1875 42.87025 72.19775 42.8485 72.21875 42.8125 C 72.26675 42.7345 72.35775 42.68025 72.46875 42.65625 C 72.52875 42.64425 72.64575 42.631 72.84375 42.625 z M 76.6875 42.625 L 76.6875 42.96875 C 76.5825 43.07075 76.45525 43.15625 76.28125 43.15625 C 76.24525 43.15625 76.2145 43.137 76.1875 43.125 C 76.1035 43.086 76.03125 43.00825 76.03125 42.90625 C 76.03125 42.87025 76.0415 42.8485 76.0625 42.8125 C 76.1105 42.7345 76.2015 42.68025 76.3125 42.65625 C 76.3725 42.64425 76.4895 42.631 76.6875 42.625 z M 82.28125 42.625 L 82.28125 42.96875 C 82.17625 43.07075 82.048999 43.15625 81.875 43.15625 C 81.839 43.15625 81.80825 43.137 81.78125 43.125 C 81.69725 43.086 81.625 43.00825 81.625 42.90625 C 81.625 42.87025 81.63525 42.8485 81.65625 42.8125 C 81.70425 42.7345 81.79525 42.68025 81.90625 42.65625 C 81.96625 42.64425 82.08325 42.631 82.28125 42.625 z M 49.84375 45.0625 L 49.84375 47.0625 L 50.09375 47.0625 L 50.09375 45.0625 L 49.84375 45.0625 z M 55.78125 45.0625 L 55.78125 46.75 C 55.78425 46.954 55.90475 47.09375 56.09375 47.09375 C 56.23475 47.09375 56.35525 47.04925 56.40625 47.03125 L 56.40625 46.84375 C 56.34025 46.86475 56.27575 46.875 56.21875 46.875 C 56.03275 46.875 56.03125 46.76725 56.03125 46.65625 L 56.03125 45.0625 L 55.78125 45.0625 z M 61.03125 45.0625 L 61.03125 47.0625 L 61.28125 47.0625 L 61.28125 45.875 C 61.428249 45.803 61.54225 45.78125 61.65625 45.78125 C 61.893249 45.78125 61.96875 45.885 61.96875 46.125 L 61.96875 47.0625 L 62.21875 47.0625 L 62.21875 46.0625 C 62.21875 45.7565 62.052999 45.5625 61.75 45.5625 C 61.6 45.5625 61.455249 45.63175 61.28125 45.71875 L 61.28125 45.0625 L 61.03125 45.0625 z M 76.5625 45.0625 L 76.5625 45.65625 C 76.4485 45.60825 76.335749 45.59375 76.21875 45.59375 C 76.02075 45.59375 75.850749 45.65225 75.71875 45.78125 C 75.58075 45.91925 75.5 46.09475 75.5 46.34375 C 75.5 46.77575 75.7435 47.09375 76.1875 47.09375 C 76.331499 47.09375 76.46475 47.05275 76.59375 46.96875 L 76.625 47.0625 L 76.8125 47.0625 L 76.8125 45.0625 L 76.5625 45.0625 z M 51.90625 45.59375 C 51.69625 45.59375 51.5545 45.6625 51.4375 45.8125 C 51.3265 45.9625 51.25 46.159 51.25 46.375 C 51.25 46.843 51.529001 47.09375 52 47.09375 C 52.162 47.09375 52.2905 47.051 52.4375 47 L 52.4375 46.8125 C 52.2965 46.8575 52.1885 46.875 52.0625 46.875 C 51.8795 46.875 51.74025 46.84 51.65625 46.75 C 51.57225 46.66 51.503 46.54425 51.5 46.40625 L 52.5 46.40625 L 52.5 46.375 L 52.5 46.25 C 52.5 45.833 52.28725 45.59375 51.90625 45.59375 z M 53.40625 45.59375 C 53.29825 45.59375 53.18675 45.62025 53.09375 45.65625 C 52.949751 45.71325 52.8125 45.802 52.8125 46 C 52.8125 46.228 53.008001 46.321 53.125 46.375 L 53.375 46.4375 C 53.447 46.4645 53.5145 46.5295 53.5625 46.5625 C 53.6195 46.6015 53.65625 46.6305 53.65625 46.6875 C 53.65625 46.8315 53.4715 46.875 53.3125 46.875 C 53.135501 46.875 52.9745 46.84425 52.8125 46.78125 L 52.8125 47 C 52.9445 47.057 53.121751 47.09375 53.34375 47.09375 C 53.56575 47.09375 53.7135 47.03225 53.8125 46.90625 C 53.8635 46.84325 53.90625 46.7655 53.90625 46.6875 C 53.90625 46.5945 53.8755 46.5065 53.8125 46.4375 C 53.7585 46.3775 53.72925 46.35325 53.53125 46.28125 L 53.28125 46.1875 C 53.21525 46.1635 53.17725 46.14 53.15625 46.125 C 53.10525 46.092 53.0625 46.05575 53.0625 45.96875 C 53.0625 45.93875 53.092 45.905 53.125 45.875 C 53.203 45.803 53.305501 45.78125 53.4375 45.78125 C 53.6235 45.78125 53.7465 45.87625 53.8125 45.90625 L 53.8125 45.71875 C 53.680501 45.65575 53.58925 45.59675 53.40625 45.59375 z M 54.84375 45.59375 C 54.63375 45.59375 54.46075 45.6625 54.34375 45.8125 C 54.23275 45.9625 54.1875 46.159 54.1875 46.375 C 54.1875 46.843 54.43525 47.09375 54.90625 47.09375 C 55.068249 47.09375 55.228 47.051 55.375 47 L 55.375 46.8125 C 55.234 46.8575 55.09475 46.875 54.96875 46.875 C 54.78575 46.875 54.6465 46.84 54.5625 46.75 C 54.4785 46.66 54.4405 46.54425 54.4375 46.40625 L 55.4375 46.40625 L 55.4375 46.375 L 55.4375 46.25 C 55.4375 45.833 55.224749 45.59375 54.84375 45.59375 z M 58.90625 45.59375 C 58.76525 45.59375 58.629 45.651 58.5 45.75 L 58.4375 45.625 L 58.28125 45.625 L 58.28125 47.0625 L 58.53125 47.0625 L 58.53125 45.90625 C 58.63625 45.83725 58.7165 45.8125 58.8125 45.8125 C 58.9055 45.8125 58.9875 45.81375 59.0625 45.84375 L 59.09375 45.84375 L 59.09375 45.625 C 59.03075 45.607 58.97525 45.59375 58.90625 45.59375 z M 63.15625 45.59375 C 62.98825 45.59375 62.812249 45.6275 62.65625 45.6875 L 62.65625 45.875 C 62.779249 45.833 63.002 45.8125 63.125 45.8125 C 63.304999 45.8125 63.3955 45.85475 63.4375 45.96875 C 63.4555 46.01675 63.46875 46.0825 63.46875 46.1875 L 63.46875 46.21875 C 63.24675 46.22875 63.081499 46.24525 62.9375 46.28125 C 62.7485 46.33225 62.59375 46.4475 62.59375 46.6875 C 62.59375 46.9215 62.77925 47.09375 63.03125 47.09375 C 63.193249 47.09375 63.365 47.0485 63.5 46.9375 L 63.53125 47.0625 L 63.71875 47.0625 L 63.71875 46.125 C 63.71875 45.888 63.68425 45.7895 63.53125 45.6875 C 63.45025 45.6335 63.324249 45.59375 63.15625 45.59375 z M 64.875 45.59375 C 64.722 45.59375 64.526749 45.62275 64.34375 45.71875 L 64.3125 45.625 L 64.125 45.625 L 64.125 47.0625 L 64.375 47.0625 L 64.375 45.90625 C 64.521999 45.83725 64.66725 45.78125 64.78125 45.78125 C 65.015249 45.78125 65.09375 45.885 65.09375 46.125 L 65.09375 47.0625 L 65.34375 47.0625 L 65.34375 46.09375 C 65.34375 45.78775 65.186999 45.59375 64.875 45.59375 z M 67.1875 45.59375 C 67.0465 45.59375 66.91025 45.651 66.78125 45.75 L 66.75 45.625 L 66.5625 45.625 L 66.5625 47.0625 L 66.8125 47.0625 L 66.8125 45.90625 C 66.9175 45.83725 67.029 45.8125 67.125 45.8125 C 67.218 45.8125 67.3 45.81375 67.375 45.84375 L 67.40625 45.84375 L 67.40625 45.625 C 67.34325 45.607 67.2565 45.59375 67.1875 45.59375 z M 68.25 45.59375 C 68.040001 45.59375 67.89825 45.6625 67.78125 45.8125 C 67.67025 45.9625 67.625 46.159 67.625 46.375 C 67.625 46.843 67.872751 47.09375 68.34375 47.09375 C 68.50575 47.09375 68.665501 47.051 68.8125 47 L 68.8125 46.8125 C 68.671501 46.8575 68.53225 46.875 68.40625 46.875 C 68.223251 46.875 68.084 46.84 68 46.75 C 67.916 46.66 67.84675 46.54425 67.84375 46.40625 L 68.84375 46.40625 L 68.84375 46.375 L 68.84375 46.25 C 68.84375 45.833 68.631 45.59375 68.25 45.59375 z M 69.75 45.59375 C 69.642 45.59375 69.5305 45.62025 69.4375 45.65625 C 69.2935 45.71325 69.1875 45.802 69.1875 46 C 69.1875 46.228 69.383 46.321 69.5 46.375 L 69.71875 46.4375 C 69.79075 46.4645 69.85825 46.5295 69.90625 46.5625 C 69.96325 46.6015 70 46.6305 70 46.6875 C 70 46.8315 69.846499 46.875 69.6875 46.875 C 69.5105 46.875 69.318249 46.84425 69.15625 46.78125 L 69.15625 47 C 69.28825 47.057 69.4655 47.09375 69.6875 47.09375 C 69.909499 47.09375 70.0885 47.03225 70.1875 46.90625 C 70.2385 46.84325 70.25 46.7655 70.25 46.6875 C 70.25 46.5945 70.21925 46.5065 70.15625 46.4375 C 70.10225 46.3775 70.072999 46.35325 69.875 46.28125 L 69.65625 46.1875 C 69.59025 46.1635 69.521 46.14 69.5 46.125 C 69.449 46.092 69.4375 46.05575 69.4375 45.96875 C 69.4375 45.93875 69.43575 45.905 69.46875 45.875 C 69.54675 45.803 69.64925 45.78125 69.78125 45.78125 C 69.967249 45.78125 70.09025 45.87625 70.15625 45.90625 L 70.15625 45.71875 C 70.02425 45.65575 69.932999 45.59675 69.75 45.59375 z M 71.25 45.59375 C 71.106 45.59375 70.97275 45.63475 70.84375 45.71875 L 70.78125 45.625 L 70.59375 45.625 L 70.59375 47.84375 L 70.84375 47.84375 L 70.84375 47.03125 C 70.95775 47.07925 71.10175 47.09375 71.21875 47.09375 C 71.41675 47.09375 71.5555 47.03525 71.6875 46.90625 C 71.8255 46.77125 71.90625 46.5615 71.90625 46.3125 C 71.90625 46.0125 71.79475 45.8165 71.59375 45.6875 C 71.49175 45.6245 71.394 45.59375 71.25 45.59375 z M 72.90625 45.59375 C 72.46225 45.59375 72.1875 45.89075 72.1875 46.34375 C 72.1875 46.79375 72.46225 47.09375 72.90625 47.09375 C 73.35025 47.09375 73.59375 46.79375 73.59375 46.34375 C 73.59375 45.89075 73.35325 45.59375 72.90625 45.59375 z M 74.6875 45.59375 C 74.534501 45.59375 74.3705 45.62275 74.1875 45.71875 L 74.125 45.625 L 73.96875 45.625 L 73.96875 47.0625 L 74.21875 47.0625 L 74.21875 45.90625 C 74.36575 45.83725 74.479751 45.78125 74.59375 45.78125 C 74.82775 45.78125 74.90625 45.885 74.90625 46.125 L 74.90625 47.0625 L 75.15625 47.0625 L 75.15625 46.09375 C 75.15625 45.78775 74.9995 45.59375 74.6875 45.59375 z M 77.8125 45.59375 C 77.6025 45.59375 77.4295 45.6625 77.3125 45.8125 C 77.2015 45.9625 77.15625 46.159 77.15625 46.375 C 77.15625 46.843 77.404001 47.09375 77.875 47.09375 C 78.037 47.09375 78.19675 47.051 78.34375 47 L 78.34375 46.8125 C 78.20275 46.8575 78.0635 46.875 77.9375 46.875 C 77.7545 46.875 77.61525 46.84 77.53125 46.75 C 77.44725 46.66 77.40925 46.54425 77.40625 46.40625 L 78.375 46.40625 L 78.40625 46.375 L 78.40625 46.25 C 78.40625 45.833 78.1935 45.59375 77.8125 45.59375 z M 79.5 45.59375 C 79.347 45.59375 79.151749 45.62275 78.96875 45.71875 L 78.9375 45.625 L 78.75 45.625 L 78.75 47.0625 L 79 47.0625 L 79 45.90625 C 79.146999 45.83725 79.29225 45.78125 79.40625 45.78125 C 79.640249 45.78125 79.71875 45.885 79.71875 46.125 L 79.71875 47.0625 L 79.96875 47.0625 L 79.96875 46.09375 C 79.96875 45.78775 79.811999 45.59375 79.5 45.59375 z M 50.75 45.625 L 50.125 46.25 L 50.78125 47.0625 L 51.0625 47.0625 L 50.40625 46.25 L 51.03125 45.625 L 50.75 45.625 z M 56.625 45.625 L 56.625 46.59375 C 56.625 46.89975 56.813 47.09375 57.125 47.09375 C 57.278 47.09375 57.442 47.0335 57.625 46.9375 L 57.6875 47.0625 L 57.84375 47.0625 L 57.84375 45.625 L 57.59375 45.625 L 57.59375 46.78125 C 57.44675 46.85025 57.33275 46.875 57.21875 46.875 C 56.98475 46.875 56.875 46.77125 56.875 46.53125 L 56.875 45.625 L 56.625 45.625 z M 59.375 45.625 L 59.375 46.59375 C 59.375 46.89975 59.531751 47.09375 59.84375 47.09375 C 59.99675 47.09375 60.192001 47.0335 60.375 46.9375 L 60.40625 47.0625 L 60.59375 47.0625 L 60.59375 45.625 L 60.34375 45.625 L 60.34375 46.78125 C 60.196751 46.85025 60.0515 46.875 59.9375 46.875 C 59.703501 46.875 59.625 46.77125 59.625 46.53125 L 59.625 45.625 L 59.375 45.625 z M 51.9375 45.78125 C 52.1625 45.78125 52.25 45.98175 52.25 46.21875 L 51.5 46.21875 C 51.527 45.98775 51.6585 45.78125 51.9375 45.78125 z M 54.875 45.78125 C 55.099999 45.78125 55.1875 45.98175 55.1875 46.21875 L 54.4375 46.21875 C 54.4645 45.98775 54.596 45.78125 54.875 45.78125 z M 68.28125 45.78125 C 68.50625 45.78125 68.625 45.98175 68.625 46.21875 L 67.84375 46.21875 C 67.87075 45.98775 68.002251 45.78125 68.28125 45.78125 z M 71.1875 45.78125 C 71.5025 45.78125 71.65625 46.01975 71.65625 46.34375 C 71.65625 46.66475 71.4965 46.90625 71.1875 46.90625 C 71.0765 46.90625 70.94875 46.88875 70.84375 46.84375 L 70.84375 45.875 C 70.94575 45.818 71.0405 45.78125 71.1875 45.78125 z M 72.90625 45.78125 C 73.20025 45.78125 73.34375 46.03475 73.34375 46.34375 C 73.34375 46.65275 73.20325 46.90625 72.90625 46.90625 C 72.61225 46.90625 72.46875 46.64975 72.46875 46.34375 C 72.46875 46.03775 72.61525 45.78125 72.90625 45.78125 z M 76.21875 45.78125 C 76.332749 45.78125 76.4575 45.79875 76.5625 45.84375 L 76.5625 46.78125 C 76.4605 46.83825 76.365749 46.875 76.21875 46.875 C 75.90075 46.875 75.75 46.66775 75.75 46.34375 C 75.75 46.02275 75.89775 45.78125 76.21875 45.78125 z M 77.84375 45.78125 C 78.06875 45.78125 78.15625 45.98175 78.15625 46.21875 L 77.40625 46.21875 C 77.43325 45.98775 77.564751 45.78125 77.84375 45.78125 z M 63.46875 46.375 L 63.46875 46.71875 C 63.36375 46.82075 63.267749 46.90625 63.09375 46.90625 C 63.05775 46.90625 62.99575 46.883 62.96875 46.875 C 62.88475 46.836 62.8125 46.75825 62.8125 46.65625 C 62.8125 46.62025 62.82275 46.5985 62.84375 46.5625 C 62.89175 46.4845 62.98275 46.43025 63.09375 46.40625 C 63.15375 46.39425 63.27075 46.381 63.46875 46.375 z "
       transform="translate(0,956.36218)"
       id="path3108" />
  </g>
</svg>
