<?xml version="1.0" encoding="UTF-8" standalone="no"?>
<!-- Created with Inkscape (http://www.inkscape.org/) -->

<svg
   xmlns:dc="http://purl.org/dc/elements/1.1/"
   xmlns:cc="http://creativecommons.org/ns#"
   xmlns:rdf="http://www.w3.org/1999/02/22-rdf-syntax-ns#"
   xmlns:svg="http://www.w3.org/2000/svg"
   xmlns="http://www.w3.org/2000/svg"
   xmlns:xlink="http://www.w3.org/1999/xlink"
   xmlns:sodipodi="http://sodipodi.sourceforge.net/DTD/sodipodi-0.dtd"
   xmlns:inkscape="http://www.inkscape.org/namespaces/inkscape"
   width="96"
   height="96"
   id="svg2"
   version="1.1"
   inkscape:version="0.91 r13725"
   sodipodi:docname="application-x-subrip.svg">
  <defs
     id="defs4">
    <linearGradient
       inkscape:collect="always"
       id="linearGradient3090">
      <stop
         style="stop-color:#000000;stop-opacity:0.1"
         offset="0"
         id="stop3092" />
      <stop
         style="stop-color:#000000;stop-opacity:0"
         offset="1"
         id="stop3094" />
    </linearGradient>
    <linearGradient
       inkscape:collect="always"
       id="linearGradient3075">
      <stop
         style="stop-color:#cfcfcf;stop-opacity:1"
         offset="0"
         id="stop3077" />
      <stop
         style="stop-color:#fafaf9;stop-opacity:0;"
         offset="1"
         id="stop3079" />
    </linearGradient>
    <linearGradient
       inkscape:collect="always"
       id="linearGradient3052">
      <stop
         style="stop-color:#f3f4f2;stop-opacity:1"
         offset="0"
         id="stop3054" />
      <stop
         style="stop-color:#fafafa;stop-opacity:1"
         offset="1"
         id="stop3056" />
    </linearGradient>
    <linearGradient
       id="linearGradient3994"
       inkscape:collect="always">
      <stop
         id="stop3996"
         offset="0"
         style="stop-color:#ff8e31;stop-opacity:1" />
      <stop
         id="stop4004"
         offset="1"
         style="stop-color:#ffb642;stop-opacity:1" />
    </linearGradient>
    <linearGradient
       inkscape:collect="always"
       id="linearGradient3119">
      <stop
         style="stop-color:#92948f;stop-opacity:0"
         offset="0"
         id="stop3121" />
      <stop
         id="stop3123"
         offset="0.4283945"
         style="stop-color:#9b9e98;stop-opacity:1" />
      <stop
         style="stop-color:#939690;stop-opacity:0"
         offset="1"
         id="stop3125" />
    </linearGradient>
    <linearGradient
       id="linearGradient3073"
       inkscape:collect="always">
      <stop
         id="stop3075"
         offset="0"
         style="stop-color:#ffffff;stop-opacity:0" />
      <stop
         style="stop-color:#ffffff;stop-opacity:1"
         offset="0.45872402"
         id="stop3085" />
      <stop
         id="stop3083"
         offset="1"
         style="stop-color:#ffffff;stop-opacity:0" />
    </linearGradient>
    <linearGradient
       inkscape:collect="always"
       id="linearGradient3061">
      <stop
         style="stop-color:#ef9a42;stop-opacity:1"
         offset="0"
         id="stop3063" />
      <stop
         style="stop-color:#f5c262;stop-opacity:1"
         offset="1"
         id="stop3065" />
    </linearGradient>
    <linearGradient
       inkscape:collect="always"
       id="linearGradient3047">
      <stop
         style="stop-color:#000000;stop-opacity:1"
         offset="0"
         id="stop3049" />
      <stop
         id="stop3055"
         offset="0.06123874"
         style="stop-color:#1a1a1a;stop-opacity:1" />
      <stop
         style="stop-color:#333333;stop-opacity:1"
         offset="0.16480456"
         id="stop3057" />
      <stop
         id="stop3059"
         offset="0.55385184"
         style="stop-color:#4d4d4d;stop-opacity:1" />
      <stop
         style="stop-color:#999999;stop-opacity:1"
         offset="1"
         id="stop3051" />
    </linearGradient>
    <linearGradient
       id="linearGradient3041"
       inkscape:collect="always">
      <stop
         id="stop3043"
         offset="0"
         style="stop-color:#1a1a1a;stop-opacity:1" />
      <stop
         id="stop3045"
         offset="1"
         style="stop-color:#808080;stop-opacity:1" />
    </linearGradient>
    <linearGradient
       inkscape:collect="always"
       id="linearGradient3029">
      <stop
         style="stop-color:#333333;stop-opacity:1"
         offset="0"
         id="stop3031" />
      <stop
         style="stop-color:#e0e0dd;stop-opacity:0;"
         offset="1"
         id="stop3033" />
    </linearGradient>
    <linearGradient
       inkscape:collect="always"
       xlink:href="#linearGradient3029"
       id="linearGradient3035"
       x1="35.355339"
       y1="1030.3622"
       x2="35.355339"
       y2="975.33282"
       gradientUnits="userSpaceOnUse"
       gradientTransform="matrix(1.1638085,0,0,1.1638085,-7.862809,-164.23642)" />
    <linearGradient
       inkscape:collect="always"
       xlink:href="#linearGradient3041"
       id="linearGradient3039"
       gradientUnits="userSpaceOnUse"
       x1="35.355339"
       y1="1030.3622"
       x2="35.355339"
       y2="975.33282"
       gradientTransform="matrix(1.1218695,0,0,1.1218695,-5.8497348,-122.18782)" />
    <linearGradient
       inkscape:collect="always"
       xlink:href="#linearGradient3047"
       id="linearGradient3053"
       x1="40"
       y1="1043.4336"
       x2="39.285713"
       y2="972.33325"
       gradientUnits="userSpaceOnUse" />
    <linearGradient
       inkscape:collect="always"
       xlink:href="#linearGradient3061"
       id="linearGradient3067"
       x1="17.67767"
       y1="1046.1118"
       x2="17.67767"
       y2="962.21893"
       gradientUnits="userSpaceOnUse"
       gradientTransform="translate(0,-956.36218)" />
    <linearGradient
       inkscape:collect="always"
       xlink:href="#linearGradient3073"
       id="linearGradient3113"
       gradientUnits="userSpaceOnUse"
       gradientTransform="translate(0,-956.36218)"
       x1="14.869445"
       y1="978.90387"
       x2="24.52651"
       y2="969.24683" />
    <linearGradient
       inkscape:collect="always"
       xlink:href="#linearGradient3073"
       id="linearGradient3115"
       gradientUnits="userSpaceOnUse"
       gradientTransform="matrix(-1,0,0,1,96,-956.36218)"
       x1="15.152279"
       y1="978.62103"
       x2="26.263966"
       y2="967.50934" />
    <linearGradient
       inkscape:collect="always"
       xlink:href="#linearGradient3119"
       id="linearGradient3117"
       gradientUnits="userSpaceOnUse"
       gradientTransform="translate(0,-956.36218)"
       x1="13.131983"
       y1="980.64136"
       x2="25.549681"
       y2="967.86646" />
    <linearGradient
       inkscape:collect="always"
       xlink:href="#linearGradient3119"
       id="linearGradient3129"
       gradientUnits="userSpaceOnUse"
       gradientTransform="matrix(-1,0,0,1,96,0)"
       x1="13.131983"
       y1="980.64136"
       x2="25.549681"
       y2="967.86646" />
    <linearGradient
       inkscape:collect="always"
       xlink:href="#linearGradient3994"
       id="linearGradient3992"
       gradientUnits="userSpaceOnUse"
       x1="29.673231"
       y1="1042.892"
       x2="29.673231"
       y2="965.32623"
       gradientTransform="translate(0,-956.36218)" />
    <linearGradient
       inkscape:collect="always"
       xlink:href="#linearGradient3075"
       id="linearGradient3081"
       x1="82.995659"
       y1="979.61285"
       x2="72.749283"
       y2="976.28278"
       gradientUnits="userSpaceOnUse" />
    <linearGradient
       inkscape:collect="always"
       xlink:href="#linearGradient3052"
       id="linearGradient3087"
       gradientUnits="userSpaceOnUse"
       x1="47.645657"
       y1="965.78027"
       x2="47.645657"
       y2="1041.1539"
       gradientTransform="translate(0,-956.36218)" />
    <linearGradient
       inkscape:collect="always"
       xlink:href="#linearGradient3090"
       id="linearGradient3096"
       x1="67.381134"
       y1="10.505658"
       x2="61.584908"
       y2="16.664148"
       gradientUnits="userSpaceOnUse" />
    <linearGradient
       inkscape:collect="always"
       xlink:href="#linearGradient3090"
       id="linearGradient3101"
       gradientUnits="userSpaceOnUse"
       x1="67.381134"
       y1="10.505658"
       x2="61.584908"
       y2="15.383351" />
    <linearGradient
       id="linearGradient3222"
       inkscape:collect="always">
      <stop
         id="stop3224"
         offset="0"
         style="stop-color:#de005a;stop-opacity:1" />
      <stop
         id="stop3226"
         offset="1"
         style="stop-color:#a30444;stop-opacity:1" />
    </linearGradient>
    <linearGradient
       inkscape:collect="always"
       id="linearGradient3076">
      <stop
         style="stop-color:#ffe7f7;stop-opacity:1"
         offset="0"
         id="stop3078" />
      <stop
         style="stop-color:#ffc3ef;stop-opacity:1"
         offset="1"
         id="stop3080" />
    </linearGradient>
    <linearGradient
       id="linearGradient3048"
       inkscape:collect="always">
      <stop
         id="stop3050"
         offset="0"
         style="stop-color:#c16d16;stop-opacity:1" />
      <stop
         id="stop3052"
         offset="1"
         style="stop-color:#ff8e31;stop-opacity:1" />
    </linearGradient>
    <linearGradient
       gradientTransform="matrix(1.1638085,0,0,1.1638085,-7.862809,-164.23642)"
       gradientUnits="userSpaceOnUse"
       y2="975.33282"
       x2="35.355339"
       y1="1030.3622"
       x1="35.355339"
       id="linearGradient4472"
       xlink:href="#linearGradient3029"
       inkscape:collect="always" />
    <linearGradient
       gradientTransform="matrix(1.1218695,0,0,1.1218695,-5.8497348,-122.18782)"
       y2="975.33282"
       x2="35.355339"
       y1="1030.3622"
       x1="35.355339"
       gradientUnits="userSpaceOnUse"
       id="linearGradient4474"
       xlink:href="#linearGradient3041"
       inkscape:collect="always" />
    <linearGradient
       gradientUnits="userSpaceOnUse"
       y2="972.33325"
       x2="39.285713"
       y1="1043.4336"
       x1="40"
       id="linearGradient4476"
       xlink:href="#linearGradient3047"
       inkscape:collect="always" />
    <linearGradient
       y2="969.24683"
       x2="24.52651"
       y1="978.90387"
       x1="14.869445"
       gradientTransform="translate(0,-956.36218)"
       gradientUnits="userSpaceOnUse"
       id="linearGradient4478"
       xlink:href="#linearGradient3073"
       inkscape:collect="always" />
    <linearGradient
       y2="967.50934"
       x2="26.263966"
       y1="978.62103"
       x1="15.152279"
       gradientTransform="matrix(-1,0,0,1,96,-956.36218)"
       gradientUnits="userSpaceOnUse"
       id="linearGradient4480"
       xlink:href="#linearGradient3073"
       inkscape:collect="always" />
    <linearGradient
       y2="967.86646"
       x2="25.549681"
       y1="980.64136"
       x1="13.131983"
       gradientTransform="translate(0,-956.36218)"
       gradientUnits="userSpaceOnUse"
       id="linearGradient4482"
       xlink:href="#linearGradient3119"
       inkscape:collect="always" />
    <linearGradient
       y2="967.86646"
       x2="25.549681"
       y1="980.64136"
       x1="13.131983"
       gradientTransform="matrix(-1,0,0,1,96,0)"
       gradientUnits="userSpaceOnUse"
       id="linearGradient4484"
       xlink:href="#linearGradient3119"
       inkscape:collect="always" />
    <linearGradient
       gradientUnits="userSpaceOnUse"
       y2="1045.8627"
       x2="49.267925"
       y1="996.57349"
       x1="49.267925"
       id="linearGradient3054"
       xlink:href="#linearGradient3048"
       inkscape:collect="always" />
    <linearGradient
       gradientUnits="userSpaceOnUse"
       y2="1033.5543"
       x2="115.80308"
       y1="985.47241"
       x1="115.80308"
       id="linearGradient3058"
       xlink:href="#linearGradient3048"
       inkscape:collect="always" />
    <linearGradient
       gradientTransform="matrix(1.4144782,0,0,1.4144782,-119.78686,-419.05496)"
       y2="1025.3639"
       x2="115.80308"
       y1="985.47241"
       x1="115.80308"
       gradientUnits="userSpaceOnUse"
       id="linearGradient3055"
       xlink:href="#linearGradient3222"
       inkscape:collect="always" />
    <linearGradient
       y2="1025.3639"
       x2="115.80308"
       y1="985.47241"
       x1="115.80308"
       gradientTransform="matrix(1.4144782,0,0,1.4144782,-119.78686,-417.12598)"
       gradientUnits="userSpaceOnUse"
       id="linearGradient3086"
       xlink:href="#linearGradient3076"
       inkscape:collect="always" />
    <linearGradient
       y2="1025.3639"
       x2="115.80308"
       y1="985.47241"
       x1="115.80308"
       gradientTransform="matrix(1.4144782,0,0,1.4144782,-119.78686,-418.126)"
       gradientUnits="userSpaceOnUse"
       id="linearGradient3091"
       xlink:href="#linearGradient3076"
       inkscape:collect="always" />
    <linearGradient
       y2="1025.3639"
       x2="115.80308"
       y1="985.47241"
       x1="115.80308"
       gradientTransform="matrix(1.4144782,0,0,1.4144782,-119.78686,-1375.4171)"
       gradientUnits="userSpaceOnUse"
       id="linearGradient3093"
       xlink:href="#linearGradient3076"
       inkscape:collect="always" />
  </defs>
  <sodipodi:namedview
     id="base"
     pagecolor="#ffffff"
     bordercolor="#666666"
     borderopacity="1.0"
     inkscape:pageopacity="0.0"
     inkscape:pageshadow="2"
     inkscape:zoom="2"
     inkscape:cx="-19.289566"
     inkscape:cy="14.857201"
     inkscape:document-units="px"
     inkscape:current-layer="layer1"
     showgrid="false"
     inkscape:window-width="1366"
     inkscape:window-height="714"
     inkscape:window-x="0"
     inkscape:window-y="28"
     inkscape:window-maximized="1"
     showguides="true"
     inkscape:guide-bbox="true" />
  <metadata
     id="metadata7">
    <rdf:RDF>
      <cc:Work
         rdf:about="">
        <dc:format>image/svg+xml</dc:format>
        <dc:type
           rdf:resource="http://purl.org/dc/dcmitype/StillImage" />
        <dc:title />
      </cc:Work>
    </rdf:RDF>
  </metadata>
  <g
     inkscape:label="Layer 1"
     inkscape:groupmode="layer"
     id="layer1"
     transform="translate(0,-956.36218)">
    <flowRoot
       xml:space="preserve"
       id="flowRoot3114"
       style="fill:black;stroke:none;stroke-opacity:1;stroke-width:1px;stroke-linejoin:miter;stroke-linecap:butt;fill-opacity:1;font-family:Sans;font-style:normal;font-weight:normal;font-size:40px;line-height:125%;letter-spacing:0px;word-spacing:0px"><flowRegion
         id="flowRegion3116"><rect
           id="rect3118"
           width="70.710678"
           height="67.882248"
           x="13.788582"
           y="12.207847" /></flowRegion><flowPara
         id="flowPara3120" /></flowRoot>    <g
       id="g3033"
       transform="translate(0,-1.0000026)">
      <rect
         ry="10.595235"
         rx="10.595235"
         y="961.86218"
         x="3.5"
         height="89"
         width="89"
         id="rect3826"
         style="opacity:0.05;fill:#000000;fill-opacity:1;stroke:none" />
      <rect
         style="opacity:0.05;fill:#000000;fill-opacity:1;stroke:none"
         id="rect3824"
         width="88"
         height="88"
         x="4"
         y="962.36218"
         rx="10.476188"
         ry="10.476188" />
      <rect
         ry="10.357141"
         rx="10.357141"
         y="962.86218"
         x="4.5"
         height="87"
         width="87"
         id="rect3822"
         style="opacity:0.05;fill:#000000;fill-opacity:1;stroke:none" />
      <rect
         style="opacity:0.1;fill:#000000;fill-opacity:1;stroke:none"
         id="rect3820"
         width="86"
         height="86"
         x="5"
         y="963.36218"
         rx="10.238094"
         ry="10.238094" />
      <rect
         ry="10.119047"
         rx="10.119047"
         y="963.86218"
         x="5.5"
         height="85"
         width="85"
         id="rect3818"
         style="opacity:0.1;fill:#000000;fill-opacity:1;stroke:none" />
      <rect
         style="opacity:0.3;fill:#000000;fill-opacity:1;stroke:none"
         id="rect3131"
         width="84"
         height="84"
         x="6"
         y="964.36218"
         rx="10"
         ry="10" />
    </g>
    <path
       inkscape:connector-curvature="0"
       style="fill:#fafaf9;fill-opacity:1;stroke:none"
       d="m 16,962.36218 c -5.54,0 -10,4.46 -10,10 l 0,56.00002 84,0 0,-56.00002 c 0,-5.54 -4.46,-10 -10,-10 l -64,0 z"
       id="rect3036" />
    <path
       inkscape:connector-curvature="0"
       style="fill:#5286b1;fill-opacity:1;stroke:none"
       d="m 6,1028.3622 0,8 c 0,5.54 4.46,10 10,10 l 64,0 c 5.54,0 10,-4.46 10,-10 l 0,-8 -84,0 z"
       id="rect3066" />
    <text
       xml:space="preserve"
       style="font-style:normal;font-variant:normal;font-weight:normal;font-stretch:normal;font-size:40px;line-height:125%;font-family:Cantarell;-inkscape-font-specification:Cantarell;text-align:center;letter-spacing:0px;word-spacing:0px;text-anchor:middle;fill:#ffffff;fill-opacity:1;stroke:none"
       x="47.438843"
       y="1041.5261"
       id="text3071"
       sodipodi:linespacing="125%"><tspan
         sodipodi:role="line"
         id="tspan3073"
         x="47.438843"
         y="1041.5261"
         style="font-weight:bold;font-size:12px;-inkscape-font-specification:'Cantarell Bold';text-align:center;text-anchor:middle;fill:#ffffff">SRT</tspan></text>
    <g
       style="font-style:normal;font-weight:normal;font-size:6.85281849px;line-height:125%;font-family:sans-serif;letter-spacing:0px;word-spacing:0px;fill:#4d4d4d;fill-opacity:1;stroke:none;stroke-width:1px;stroke-linecap:butt;stroke-linejoin:miter;stroke-opacity:1"
       id="text4508">
      <path
         d="m 19.22922,974.45006 q -0.448378,0.7696 -0.665875,1.52248 -0.217496,0.75287 -0.217496,1.52582 0,0.77295 0.217496,1.53251 0.220843,0.75622 0.665875,1.52248 l -0.535377,0 q -0.501915,-0.78633 -0.752873,-1.5459 -0.247611,-0.75956 -0.247611,-1.50909 0,-0.74618 0.247611,-1.5024 0.247612,-0.75622 0.752873,-1.5459 l 0.535377,0 z"
         style="fill:#b3b3b3"
         id="path4535" />
      <path
         d="m 21.95964,975.0992 q -0.521992,0 -0.786334,0.5153 -0.260996,0.51196 -0.260996,1.54256 0,1.02725 0.260996,1.54255 0.264342,0.51195 0.786334,0.51195 0.525338,0 0.786334,-0.51195 0.264342,-0.5153 0.264342,-1.54255 0,-1.0306 -0.264342,-1.54256 -0.260996,-0.5153 -0.786334,-0.5153 z m 0,-0.53537 q 0.839871,0 1.281557,0.66587 0.445032,0.66253 0.445032,1.92736 0,1.26148 -0.445032,1.92735 -0.441686,0.66253 -1.281557,0.66253 -0.839872,0 -1.284904,-0.66253 -0.441685,-0.66587 -0.441685,-1.92735 0,-1.26483 0.441685,-1.92736 0.445032,-0.66587 1.284904,-0.66587 z"
         style="fill:#b3b3b3"
         id="path4537" />
      <path
         d="m 26.322958,975.0992 q -0.521992,0 -0.786335,0.5153 -0.260996,0.51196 -0.260996,1.54256 0,1.02725 0.260996,1.54255 0.264343,0.51195 0.786335,0.51195 0.525338,0 0.786334,-0.51195 0.264342,-0.5153 0.264342,-1.54255 0,-1.0306 -0.264342,-1.54256 -0.260996,-0.5153 -0.786334,-0.5153 z m 0,-0.53537 q 0.839871,0 1.281557,0.66587 0.445032,0.66253 0.445032,1.92736 0,1.26148 -0.445032,1.92735 -0.441686,0.66253 -1.281557,0.66253 -0.839872,0 -1.284904,-0.66253 -0.441685,-0.66587 -0.441685,-1.92735 0,-1.26483 0.441685,-1.92736 0.445032,-0.66587 1.284904,-0.66587 z"
         style="fill:#b3b3b3"
         id="path4539" />
      <path
         d="m 29.311028,978.79999 0.706028,0 0,0.84991 -0.706028,0 0,-0.84991 z m 0,-2.69361 0.706028,0 0,0.84991 -0.706028,0 0,-0.84991 z"
         style="fill:#b3b3b3"
         id="path4541" />
      <path
         d="m 31.673375,979.08106 1.104214,0 0,-3.81121 -1.201251,0.24092 0,-0.61568 1.194559,-0.24092 0.675913,0 0,4.42689 1.104214,0 0,0.56884 -2.877649,0 0,-0.56884 z"
         style="fill:#b3b3b3"
         id="path4543" />
      <path
         d="m 37.967396,976.95629 q 0.485185,0.10373 0.756219,0.43165 0.274381,0.32791 0.274381,0.80975 0,0.73949 -0.508608,1.14437 -0.508607,0.40488 -1.445516,0.40488 -0.314534,0 -0.649144,-0.0636 -0.331264,-0.0602 -0.685951,-0.18403 l 0,-0.65249 q 0.281072,0.16396 0.615683,0.24761 0.33461,0.0836 0.699335,0.0836 0.63576,0 0.967024,-0.25096 0.33461,-0.25095 0.33461,-0.72945 0,-0.44168 -0.311187,-0.68929 -0.307842,-0.25096 -0.859949,-0.25096 l -0.582222,0 0,-0.55545 0.608991,0 q 0.498569,0 0.762911,-0.19742 0.264343,-0.20077 0.264343,-0.57553 0,-0.38481 -0.274381,-0.58892 -0.271034,-0.20746 -0.779642,-0.20746 -0.277726,0 -0.595606,0.0602 -0.31788,0.0602 -0.699336,0.18739 l 0,-0.6023 q 0.384802,-0.10708 0.719412,-0.16062 0.337957,-0.0535 0.63576,-0.0535 0.769604,0 1.217981,0.35134 0.448378,0.34799 0.448378,0.9436 0,0.41491 -0.237573,0.70268 -0.237573,0.28442 -0.675913,0.39484 z"
         style="fill:#b3b3b3"
         id="path4545" />
      <path
         d="m 40.098863,974.45006 0.535377,0 q 0.501915,0.78968 0.749527,1.5459 0.250957,0.75622 0.250957,1.5024 0,0.74953 -0.250957,1.50909 -0.247612,0.75957 -0.749527,1.5459 l -0.535377,0 q 0.445032,-0.76626 0.662528,-1.52248 0.220843,-0.75956 0.220843,-1.53251 0,-0.77295 -0.220843,-1.52582 -0.217496,-0.75288 -0.662528,-1.52248 z"
         style="fill:#b3b3b3"
         id="path4547" />
      <path
         d="m 44.743254,977.49836 1.803549,0 0,0.54876 -1.803549,0 0,-0.54876 z"
         style=""
         id="path4549" />
      <path
         d="m 49.738984,974.65417 0.675913,0 0,4.99573 -0.675913,0 0,-4.99573 z"
         style=""
         id="path4551" />
      <path
         d="m 54.848485,977.38794 0,2.26196 -0.615683,0 0,-2.24189 q 0,-0.53203 -0.207458,-0.79637 -0.207459,-0.26434 -0.622376,-0.26434 -0.498569,0 -0.786334,0.31788 -0.287765,0.31788 -0.287765,0.86664 l 0,2.11808 -0.619029,0 0,-3.74763 0.619029,0 0,0.58222 q 0.220843,-0.33796 0.518646,-0.50526 0.30115,-0.16731 0.692644,-0.16731 0.645797,0 0.977062,0.40153 0.331264,0.39819 0.331264,1.17449 z"
         style=""
         id="path4553" />
      <path
         d="m 56.692187,974.83821 0,1.06406 1.268173,0 0,0.47849 -1.268173,0 0,2.03443 q 0,0.45842 0.123806,0.58891 0.127152,0.1305 0.511954,0.1305 l 0.632413,0 0,0.5153 -0.632413,0 q -0.71272,0 -0.983754,-0.26434 -0.271035,-0.26769 -0.271035,-0.97037 l 0,-2.03443 -0.451723,0 0,-0.47849 0.451723,0 0,-1.06406 0.619029,0 z"
         style=""
         id="path4555" />
      <path
         d="m 60.945083,976.4778 q -0.103729,-0.0602 -0.227535,-0.087 -0.12046,-0.0301 -0.267688,-0.0301 -0.521992,0 -0.803065,0.34131 -0.277726,0.33795 -0.277726,0.97371 l 0,1.9742 -0.619029,0 0,-3.74763 0.619029,0 0,0.58222 q 0.194074,-0.3413 0.505261,-0.50526 0.311188,-0.16731 0.756219,-0.16731 0.06358,0 0.140537,0.01 0.07696,0.007 0.170651,0.0234 l 0.0033,0.63242 z"
         style=""
         id="path4557" />
      <path
         d="m 62.902555,976.33391 q -0.495224,0 -0.782988,0.38815 -0.287765,0.3848 -0.287765,1.05737 0,0.67257 0.284419,1.06072 0.287764,0.3848 0.786334,0.3848 0.491877,0 0.779642,-0.38815 0.287764,-0.38815 0.287764,-1.05737 0,-0.66587 -0.287764,-1.05402 -0.287765,-0.3915 -0.779642,-0.3915 z m 0,-0.52199 q 0.803064,0 1.26148,0.52199 0.458417,0.522 0.458417,1.44552 0,0.92018 -0.458417,1.44552 -0.458416,0.52199 -1.26148,0.52199 -0.806411,0 -1.264827,-0.52199 -0.45507,-0.52534 -0.45507,-1.44552 0,-0.92352 0.45507,-1.44552 0.458416,-0.52199 1.264827,-0.52199 z"
         style=""
         id="path4559" />
      <path
         d="m 19.22922,983.01608 q -0.448378,0.76961 -0.665875,1.52248 -0.217496,0.75287 -0.217496,1.52582 0,0.77295 0.217496,1.53252 0.220843,0.75622 0.665875,1.52247 l -0.535377,0 q -0.501915,-0.78633 -0.752873,-1.5459 -0.247611,-0.75956 -0.247611,-1.50909 0,-0.74618 0.247611,-1.5024 0.247612,-0.75622 0.752873,-1.5459 l 0.535377,0 z"
         style="fill:#b3b3b3"
         id="path4561" />
      <path
         d="m 21.95964,983.66523 q -0.521992,0 -0.786334,0.5153 -0.260996,0.51195 -0.260996,1.54255 0,1.02725 0.260996,1.54255 0.264342,0.51196 0.786334,0.51196 0.525338,0 0.786334,-0.51196 0.264342,-0.5153 0.264342,-1.54255 0,-1.0306 -0.264342,-1.54255 -0.260996,-0.5153 -0.786334,-0.5153 z m 0,-0.53538 q 0.839871,0 1.281557,0.66587 0.445032,0.66253 0.445032,1.92736 0,1.26148 -0.445032,1.92735 -0.441686,0.66253 -1.281557,0.66253 -0.839872,0 -1.284904,-0.66253 -0.441685,-0.66587 -0.441685,-1.92735 0,-1.26483 0.441685,-1.92736 0.445032,-0.66587 1.284904,-0.66587 z"
         style="fill:#b3b3b3"
         id="path4563" />
      <path
         d="m 24.994555,987.64709 1.104214,0 0,-3.81121 -1.201251,0.24092 0,-0.61569 1.194559,-0.24092 0.675912,0 0,4.4269 1.104214,0 0,0.56884 -2.877648,0 0,-0.56884 z"
         style="fill:#b3b3b3"
         id="path4565" />
      <path
         d="m 29.311028,987.36602 0.706028,0 0,0.84991 -0.706028,0 0,-0.84991 z m 0,-2.69362 0.706028,0 0,0.84991 -0.706028,0 0,-0.84991 z"
         style="fill:#b3b3b3"
         id="path4567" />
      <path
         d="m 33.001778,983.66523 q -0.521992,0 -0.786334,0.5153 -0.260996,0.51195 -0.260996,1.54255 0,1.02725 0.260996,1.54255 0.264342,0.51196 0.786334,0.51196 0.525338,0 0.786334,-0.51196 0.264343,-0.5153 0.264343,-1.54255 0,-1.0306 -0.264343,-1.54255 -0.260996,-0.5153 -0.786334,-0.5153 z m 0,-0.53538 q 0.839872,0 1.281558,0.66587 0.445031,0.66253 0.445031,1.92736 0,1.26148 -0.445031,1.92735 -0.441686,0.66253 -1.281558,0.66253 -0.839872,0 -1.284903,-0.66253 -0.441686,-0.66587 -0.441686,-1.92735 0,-1.26483 0.441686,-1.92736 0.445031,-0.66587 1.284903,-0.66587 z"
         style="fill:#b3b3b3"
         id="path4569" />
      <path
         d="m 36.501803,987.64709 2.359003,0 0,0.56884 -3.172106,0 0,-0.56884 q 0.384802,-0.39819 1.04733,-1.06741 0.665875,-0.67257 0.836526,-0.86664 0.324572,-0.36472 0.451724,-0.61568 0.130498,-0.25431 0.130498,-0.49857 0,-0.39819 -0.281073,-0.64915 -0.277726,-0.25095 -0.726104,-0.25095 -0.31788,0 -0.672567,0.11042 -0.35134,0.11042 -0.752873,0.33461 l 0,-0.68261 q 0.408225,-0.16396 0.762912,-0.24761 0.354687,-0.0836 0.649144,-0.0836 0.776295,0 1.238058,0.38815 0.461762,0.38815 0.461762,1.03729 0,0.30784 -0.117114,0.58557 -0.113767,0.27438 -0.418263,0.64914 -0.08365,0.097 -0.53203,0.56215 -0.448378,0.46176 -1.264827,1.29494 z"
         style="fill:#b3b3b3"
         id="path4571" />
      <path
         d="m 40.098863,983.01608 0.535377,0 q 0.501915,0.78968 0.749527,1.5459 0.250957,0.75622 0.250957,1.5024 0,0.74953 -0.250957,1.50909 -0.247612,0.75957 -0.749527,1.5459 l -0.535377,0 q 0.445032,-0.76625 0.662528,-1.52247 0.220843,-0.75957 0.220843,-1.53252 0,-0.77295 -0.220843,-1.52582 -0.217496,-0.75287 -0.662528,-1.52248 z"
         style="fill:#b3b3b3"
         id="path4573" />
      <path
         d="m 44.743254,986.06438 1.803549,0 0,0.54876 -1.803549,0 0,-0.54876 z"
         style=""
         id="path4575" />
      <path
         d="m 50.414897,983.77565 0,1.87716 0.84991,0 q 0.471801,0 0.729451,-0.24426 0.25765,-0.24427 0.25765,-0.69599 0,-0.44838 -0.25765,-0.69265 -0.25765,-0.24426 -0.729451,-0.24426 l -0.84991,0 z m -0.675913,-0.55546 1.525823,0 q 0.839872,0 1.268173,0.38146 0.431647,0.37811 0.431647,1.11091 0,0.73948 -0.431647,1.11759 -0.428301,0.37811 -1.268173,0.37811 l -0.84991,0 0,2.00767 -0.675913,0 0,-4.99574 z"
         style=""
         id="path4577" />
      <path
         d="m 55.899158,985.04382 q -0.103729,-0.0602 -0.227535,-0.087 -0.12046,-0.0301 -0.267688,-0.0301 -0.521992,0 -0.803065,0.3413 -0.277726,0.33796 -0.277726,0.97371 l 0,1.97421 -0.619029,0 0,-3.74764 0.619029,0 0,0.58222 q 0.194074,-0.3413 0.505261,-0.50526 0.311188,-0.1673 0.756219,-0.1673 0.06358,0 0.140537,0.01 0.07696,0.007 0.170651,0.0234 l 0.0033,0.63241 z"
         style=""
         id="path4579" />
      <path
         d="m 59.609987,986.18819 0,0.30115 -2.830803,0 q 0.04015,0.63576 0.381456,0.97037 0.344649,0.33126 0.956986,0.33126 0.354686,0 0.685951,-0.087 0.33461,-0.087 0.662528,-0.26099 l 0,0.58222 q -0.331264,0.14053 -0.679259,0.21415 -0.347995,0.0736 -0.706028,0.0736 -0.896755,0 -1.422093,-0.52199 -0.521992,-0.52199 -0.521992,-1.41205 0,-0.92018 0.495223,-1.45891 0.498569,-0.54206 1.341787,-0.54206 0.756219,0 1.194559,0.48853 0.441685,0.48518 0.441685,1.32171 z m -0.615682,-0.18069 q -0.0067,-0.50526 -0.284419,-0.80641 -0.274381,-0.30115 -0.729451,-0.30115 -0.515299,0 -0.826487,0.29111 -0.307841,0.29111 -0.354687,0.81979 l 2.195044,-0.003 z"
         style=""
         id="path4581" />
      <path
         d="m 60.620512,983.00939 0.615683,0 0,5.20654 -0.615683,0 0,-5.20654 z"
         style=""
         id="path4583" />
      <path
         d="m 62.457521,986.73695 0,-2.26866 0.615683,0 0,2.24524 q 0,0.53203 0.207459,0.79971 0.207458,0.26435 0.622375,0.26435 0.498569,0 0.786334,-0.31788 0.291111,-0.31788 0.291111,-0.86664 l 0,-2.12478 0.615683,0 0,3.74764 -0.615683,0 0,-0.57553 q -0.224189,0.3413 -0.521992,0.5086 -0.294457,0.16396 -0.685951,0.16396 -0.645798,0 -0.980408,-0.40153 -0.334611,-0.40153 -0.334611,-1.17448 z m 1.549246,-2.359 0,0 z"
         style=""
         id="path4585" />
      <path
         d="m 69.337109,985.03713 0,-2.02774 0.615683,0 0,5.20654 -0.615683,0 0,-0.56215 q -0.194074,0.33461 -0.491877,0.49857 -0.294457,0.16061 -0.709374,0.16061 -0.679259,0 -1.10756,-0.54207 -0.424955,-0.54206 -0.424955,-1.42544 0,-0.88337 0.424955,-1.42544 0.428301,-0.54206 1.10756,-0.54206 0.414917,0 0.709374,0.16395 0.297803,0.16062 0.491877,0.49523 z m -2.098007,1.30832 q 0,0.67926 0.277727,1.06741 0.281072,0.3848 0.769603,0.3848 0.488531,0 0.769604,-0.3848 0.281073,-0.38815 0.281073,-1.06741 0,-0.67925 -0.281073,-1.06406 -0.281073,-0.38814 -0.769604,-0.38814 -0.488531,0 -0.769603,0.38814 -0.277727,0.38481 -0.277727,1.06406 z"
         style=""
         id="path4587" />
      <path
         d="m 74.426531,986.18819 0,0.30115 -2.830803,0 q 0.04015,0.63576 0.381456,0.97037 0.344648,0.33126 0.956985,0.33126 0.354687,0 0.685951,-0.087 0.334611,-0.087 0.662529,-0.26099 l 0,0.58222 q -0.331265,0.14053 -0.679259,0.21415 -0.347995,0.0736 -0.706028,0.0736 -0.896756,0 -1.422094,-0.52199 -0.521992,-0.52199 -0.521992,-1.41205 0,-0.92018 0.495224,-1.45891 0.498569,-0.54206 1.341787,-0.54206 0.756219,0 1.194558,0.48853 0.441686,0.48518 0.441686,1.32171 z m -0.615683,-0.18069 q -0.0067,-0.50526 -0.284419,-0.80641 -0.27438,-0.30115 -0.72945,-0.30115 -0.5153,0 -0.826487,0.29111 -0.307842,0.29111 -0.354687,0.81979 l 2.195043,-0.003 z"
         style=""
         id="path4589" />
      <path
         d="m 17.837241,995.93204 0.706028,0 0,0.84991 -0.706028,0 0,-0.84991 z"
         style=""
         id="path4591" />
      <path
         d="m 17.837241,1004.4981 0.706028,0 0,0.8499 -0.706028,0 0,-0.8499 z"
         style=""
         id="path4593" />
      <path
         d="m 19.22922,1008.7142 q -0.448378,0.7696 -0.665875,1.5224 -0.217496,0.7529 -0.217496,1.5259 0,0.7729 0.217496,1.5325 0.220843,0.7562 0.665875,1.5224 l -0.535377,0 q -0.501915,-0.7863 -0.752873,-1.5459 -0.247611,-0.7595 -0.247611,-1.509 0,-0.7462 0.247611,-1.5024 0.247612,-0.7563 0.752873,-1.5459 l 0.535377,0 z"
         style="fill:#b3b3b3"
         id="path4595" />
      <path
         d="m 21.096345,1013.3452 2.359003,0 0,0.5688 -3.172106,0 0,-0.5688 q 0.384802,-0.3982 1.04733,-1.0674 0.665875,-0.6726 0.836526,-0.8667 0.324572,-0.3647 0.451724,-0.6157 0.130498,-0.2543 0.130498,-0.4985 0,-0.3982 -0.281073,-0.6492 -0.277726,-0.2509 -0.726104,-0.2509 -0.31788,0 -0.672567,0.1104 -0.35134,0.1104 -0.752873,0.3346 l 0,-0.6826 q 0.408225,-0.164 0.762912,-0.2476 0.354687,-0.084 0.649144,-0.084 0.776295,0 1.238058,0.3882 0.461762,0.3881 0.461762,1.0373 0,0.3078 -0.117114,0.5855 -0.113767,0.2744 -0.418263,0.6492 -0.08365,0.097 -0.53203,0.5621 -0.448378,0.4618 -1.264827,1.295 z"
         style="fill:#b3b3b3"
         id="path4597" />
      <path
         d="m 24.897518,1013.8103 0,-0.6157 q 0.254304,0.1204 0.5153,0.184 0.260996,0.064 0.511953,0.064 0.669221,0 1.020562,-0.4484 0.354687,-0.4517 0.404878,-1.3685 -0.194074,0.2877 -0.491877,0.4416 -0.297803,0.154 -0.659182,0.154 -0.749527,0 -1.187867,-0.4518 -0.434993,-0.455 -0.434993,-1.2414 0,-0.7696 0.45507,-1.2347 0.45507,-0.4651 1.211289,-0.4651 0.866641,0 1.321711,0.6659 0.458416,0.6625 0.458416,1.9273 0,1.1812 -0.562145,1.8873 -0.5588,0.7026 -1.505747,0.7026 -0.254303,0 -0.515299,-0.05 -0.260997,-0.05 -0.542069,-0.1505 z m 1.345133,-2.1181 q 0.45507,0 0.719412,-0.3112 0.267688,-0.3112 0.267688,-0.8533 0,-0.5387 -0.267688,-0.8499 -0.264342,-0.3145 -0.719412,-0.3145 -0.45507,0 -0.722758,0.3145 -0.264342,0.3112 -0.264342,0.8499 0,0.5421 0.264342,0.8533 0.267688,0.3112 0.722758,0.3112 z"
         style="fill:#b3b3b3"
         id="path4599" />
      <path
         d="m 29.311028,1013.0641 0.706028,0 0,0.8499 -0.706028,0 0,-0.8499 z m 0,-2.6936 0.706028,0 0,0.8499 -0.706028,0 0,-0.8499 z"
         style="fill:#b3b3b3"
         id="path4601" />
      <path
         d="m 33.604077,1011.2204 q 0.485185,0.1037 0.756219,0.4316 0.27438,0.3279 0.27438,0.8098 0,0.7395 -0.508607,1.1444 -0.508608,0.4048 -1.445517,0.4048 -0.314533,0 -0.649144,-0.063 -0.331264,-0.06 -0.685951,-0.1841 l 0,-0.6525 q 0.281073,0.164 0.615683,0.2476 0.334611,0.084 0.699336,0.084 0.635759,0 0.967023,-0.251 0.334611,-0.2509 0.334611,-0.7294 0,-0.4417 -0.311188,-0.6893 -0.307841,-0.251 -0.859948,-0.251 l -0.582222,0 0,-0.5554 0.608991,0 q 0.498569,0 0.762911,-0.1974 0.264342,-0.2008 0.264342,-0.5756 0,-0.3848 -0.27438,-0.5889 -0.271035,-0.2074 -0.779642,-0.2074 -0.277727,0 -0.595607,0.06 -0.317879,0.06 -0.699335,0.1874 l 0,-0.6023 q 0.384802,-0.1071 0.719412,-0.1606 0.337956,-0.054 0.63576,-0.054 0.769603,0 1.217981,0.3514 0.448378,0.348 0.448378,0.9436 0,0.4149 -0.237573,0.7026 -0.237574,0.2845 -0.675913,0.3949 z"
         style="fill:#b3b3b3"
         id="path4603" />
      <path
         d="m 37.365098,1011.5416 q -0.481839,0 -0.759566,0.2577 -0.27438,0.2576 -0.27438,0.7093 0,0.4518 0.27438,0.7094 0.277727,0.2577 0.759566,0.2577 0.481838,0 0.759565,-0.2577 0.277727,-0.261 0.277727,-0.7094 0,-0.4517 -0.277727,-0.7093 -0.27438,-0.2577 -0.759565,-0.2577 z m -0.675913,-0.2878 q -0.434993,-0.107 -0.679259,-0.4048 -0.240919,-0.2978 -0.240919,-0.7261 0,-0.599 0.424955,-0.947 0.428301,-0.348 1.171136,-0.348 0.746181,0 1.171136,0.348 0.424955,0.348 0.424955,0.947 0,0.4283 -0.244266,0.7261 -0.240919,0.2978 -0.672566,0.4048 0.488531,0.1138 0.759565,0.4451 0.27438,0.3312 0.27438,0.8097 0,0.7261 -0.445031,1.1143 -0.441686,0.3881 -1.268173,0.3881 -0.826488,0 -1.271519,-0.3881 -0.441686,-0.3882 -0.441686,-1.1143 0,-0.4785 0.27438,-0.8097 0.274381,-0.3313 0.762912,-0.4451 z m -0.247612,-1.0674 q 0,0.3882 0.24092,0.6057 0.244265,0.2175 0.682605,0.2175 0.434993,0 0.679259,-0.2175 0.247611,-0.2175 0.247611,-0.6057 0,-0.3881 -0.247611,-0.6056 -0.244266,-0.2175 -0.679259,-0.2175 -0.43834,0 -0.682605,0.2175 -0.24092,0.2175 -0.24092,0.6056 z"
         style="fill:#b3b3b3"
         id="path4605" />
      <path
         d="m 40.098863,1008.7142 0.535377,0 q 0.501915,0.7896 0.749527,1.5459 0.250957,0.7562 0.250957,1.5024 0,0.7495 -0.250957,1.509 -0.247612,0.7596 -0.749527,1.5459 l -0.535377,0 q 0.445032,-0.7662 0.662528,-1.5224 0.220843,-0.7596 0.220843,-1.5325 0,-0.773 -0.220843,-1.5259 -0.217496,-0.7528 -0.662528,-1.5224 z"
         style="fill:#b3b3b3"
         id="path4607" />
      <path
         d="m 44.743254,1011.7625 1.803549,0 0,0.5487 -1.803549,0 0,-0.5487 z"
         style=""
         id="path4609" />
      <path
         d="m 49.738984,1008.9183 3.158721,0 0,0.5688 -2.482808,0 0,1.479 2.379079,0 0,0.5688 -2.379079,0 0,1.8103 2.543038,0 0,0.5688 -3.218951,0 0,-4.9957 z"
         style=""
         id="path4611" />
      <path
         d="m 54.644372,1013.3518 0,1.9876 -0.619029,0 0,-5.173 0.619029,0 0,0.5688 q 0.194074,-0.3346 0.488531,-0.4952 0.297803,-0.164 0.709373,-0.164 0.682605,0 1.10756,0.5421 0.428302,0.5421 0.428302,1.4254 0,0.8834 -0.428302,1.4255 -0.424955,0.542 -1.10756,0.542 -0.41157,0 -0.709373,-0.1606 -0.294457,-0.1639 -0.488531,-0.4986 z m 2.09466,-1.3083 q 0,-0.6792 -0.281073,-1.064 -0.277726,-0.3882 -0.766257,-0.3882 -0.488531,0 -0.769604,0.3882 -0.277726,0.3848 -0.277726,1.064 0,0.6793 0.277726,1.0674 0.281073,0.3848 0.769604,0.3848 0.488531,0 0.766257,-0.3848 0.281073,-0.3881 0.281073,-1.0674 z"
         style=""
         id="path4613" />
      <path
         d="m 58.398699,1010.1664 0.615683,0 0,3.7476 -0.615683,0 0,-3.7476 z m 0,-1.4589 0.615683,0 0,0.7796 -0.615683,0 0,-0.7796 z"
         style=""
         id="path4615" />
      <path
         d="m 60.299284,1008.7075 0.615683,0 0,5.2065 -0.615683,0 0,-5.2065 z"
         style=""
         id="path4617" />
      <path
         d="m 63.652082,1010.598 q -0.495224,0 -0.782988,0.3882 -0.287765,0.3848 -0.287765,1.0573 0,0.6726 0.284419,1.0607 0.287764,0.3848 0.786334,0.3848 0.491877,0 0.779642,-0.3881 0.287764,-0.3882 0.287764,-1.0574 0,-0.6659 -0.287764,-1.054 -0.287765,-0.3915 -0.779642,-0.3915 z m 0,-0.522 q 0.803064,0 1.26148,0.522 0.458417,0.522 0.458417,1.4455 0,0.9202 -0.458417,1.4455 -0.458416,0.522 -1.26148,0.522 -0.806411,0 -1.264827,-0.522 -0.45507,-0.5253 -0.45507,-1.4455 0,-0.9235 0.45507,-1.4455 0.458416,-0.522 1.264827,-0.522 z"
         style=""
         id="path4619" />
      <path
         d="m 68.85527,1011.9967 q 0,-0.6692 -0.277726,-1.0373 -0.274381,-0.3681 -0.77295,-0.3681 -0.495223,0 -0.77295,0.3681 -0.27438,0.3681 -0.27438,1.0373 0,0.6659 0.27438,1.0339 0.277727,0.3681 0.77295,0.3681 0.498569,0 0.77295,-0.3681 0.277726,-0.368 0.277726,-1.0339 z m 0.615683,1.4522 q 0,0.957 -0.424955,1.4221 -0.424955,0.4684 -1.301634,0.4684 -0.324572,0 -0.612336,-0.05 -0.287765,-0.047 -0.5588,-0.1472 l 0,-0.5989 q 0.271035,0.1472 0.535377,0.2175 0.264342,0.07 0.538722,0.07 0.605645,0 0.906794,-0.3179 0.301149,-0.3145 0.301149,-0.9536 l 0,-0.3045 q -0.190727,0.3313 -0.488531,0.4952 -0.297803,0.164 -0.712719,0.164 -0.689298,0 -1.110907,-0.5253 -0.421609,-0.5254 -0.421609,-1.392 0,-0.87 0.421609,-1.3953 0.421609,-0.5254 1.110907,-0.5254 0.414916,0 0.712719,0.164 0.297804,0.1639 0.488531,0.4952 l 0,-0.5688 0.615683,0 0,3.2825 z"
         style=""
         id="path4621" />
      <path
         d="m 70.67555,1012.435 0,-2.2686 0.615683,0 0,2.2452 q 0,0.532 0.207459,0.7997 0.207458,0.2644 0.622375,0.2644 0.498569,0 0.786334,-0.3179 0.291111,-0.3179 0.291111,-0.8667 l 0,-2.1247 0.615683,0 0,3.7476 -0.615683,0 0,-0.5755 q -0.224189,0.3413 -0.521992,0.5086 -0.294457,0.1639 -0.685951,0.1639 -0.645798,0 -0.980408,-0.4015 -0.334611,-0.4015 -0.334611,-1.1745 z m 1.549246,-2.359 0,0 z"
         style=""
         id="path4623" />
      <path
         d="m 78.294626,1011.8863 0,0.3011 -2.830803,0 q 0.04015,0.6358 0.381456,0.9704 0.344649,0.3312 0.956986,0.3312 0.354686,0 0.685951,-0.087 0.33461,-0.087 0.662528,-0.261 l 0,0.5823 q -0.331264,0.1405 -0.679259,0.2141 -0.347995,0.074 -0.706028,0.074 -0.896755,0 -1.422093,-0.522 -0.521992,-0.522 -0.521992,-1.412 0,-0.9202 0.495223,-1.4589 0.498569,-0.5421 1.341787,-0.5421 0.756219,0 1.194559,0.4885 0.441685,0.4852 0.441685,1.3218 z m -0.615683,-0.1807 q -0.0067,-0.5053 -0.284418,-0.8064 -0.274381,-0.3012 -0.729451,-0.3012 -0.515299,0 -0.826487,0.2911 -0.307841,0.2911 -0.354687,0.8198 l 2.195043,-0 z"
         style=""
         id="path4625" />
    </g>
  </g>
</svg>
