<?xml version="1.0" encoding="UTF-8" standalone="no"?>
<!-- Created with Inkscape (http://www.inkscape.org/) -->

<svg
   xmlns:dc="http://purl.org/dc/elements/1.1/"
   xmlns:cc="http://creativecommons.org/ns#"
   xmlns:rdf="http://www.w3.org/1999/02/22-rdf-syntax-ns#"
   xmlns:svg="http://www.w3.org/2000/svg"
   xmlns="http://www.w3.org/2000/svg"
   xmlns:xlink="http://www.w3.org/1999/xlink"
   xmlns:sodipodi="http://sodipodi.sourceforge.net/DTD/sodipodi-0.dtd"
   xmlns:inkscape="http://www.inkscape.org/namespaces/inkscape"
   width="96"
   height="96"
   id="svg2"
   version="1.1"
   inkscape:version="0.48.4 r9939"
   sodipodi:docname="application-certificate.svg">
  <defs
     id="defs4">
    <linearGradient
       inkscape:collect="always"
       id="linearGradient3109">
      <stop
         style="stop-color:#ffffff;stop-opacity:1"
         offset="0"
         id="stop3111" />
      <stop
         style="stop-color:#fff3de;stop-opacity:1"
         offset="1"
         id="stop3113" />
    </linearGradient>
    <linearGradient
       id="linearGradient3099"
       inkscape:collect="always">
      <stop
         id="stop3101"
         offset="0"
         style="stop-color:#f7ebce;stop-opacity:1" />
      <stop
         id="stop3103"
         offset="1"
         style="stop-color:#ffe7d6;stop-opacity:1" />
    </linearGradient>
    <linearGradient
       inkscape:collect="always"
       id="linearGradient3089">
      <stop
         style="stop-color:#f7dbb5;stop-opacity:1"
         offset="0"
         id="stop3091" />
      <stop
         style="stop-color:#e7caa4;stop-opacity:1"
         offset="1"
         id="stop3093" />
    </linearGradient>
    <linearGradient
       inkscape:collect="always"
       id="linearGradient3081">
      <stop
         style="stop-color:#fff3de;stop-opacity:1"
         offset="0"
         id="stop3084" />
      <stop
         style="stop-color:#fff3de;stop-opacity:1"
         offset="1"
         id="stop3087" />
    </linearGradient>
    <linearGradient
       inkscape:collect="always"
       id="linearGradient3090">
      <stop
         style="stop-color:#c69a63;stop-opacity:1"
         offset="0"
         id="stop3092" />
      <stop
         style="stop-color:#e5b183;stop-opacity:1"
         offset="1"
         id="stop3094" />
    </linearGradient>
    <linearGradient
       id="linearGradient3083"
       inkscape:collect="always">
      <stop
         id="stop3086"
         offset="0"
         style="stop-color:#e7b284;stop-opacity:1" />
      <stop
         id="stop3088"
         offset="1"
         style="stop-color:#b58a52;stop-opacity:1" />
    </linearGradient>
    <inkscape:perspective
       sodipodi:type="inkscape:persp3d"
       inkscape:vp_x="0 : 48 : 1"
       inkscape:vp_y="0 : 1000 : 0"
       inkscape:vp_z="96 : 48 : 1"
       inkscape:persp3d-origin="48 : 32 : 1"
       id="perspective3054" />
    <linearGradient
       id="linearGradient4357"
       inkscape:collect="always">
      <stop
         id="stop4359"
         offset="0"
         style="stop-color:#ded3d6;stop-opacity:1" />
      <stop
         id="stop4361"
         offset="1"
         style="stop-color:#f7ebef;stop-opacity:1" />
    </linearGradient>
    <linearGradient
       inkscape:collect="always"
       id="linearGradient3558">
      <stop
         style="stop-color:#ded3d6;stop-opacity:1"
         offset="0"
         id="stop3560" />
      <stop
         style="stop-color:#efebef;stop-opacity:1"
         offset="1"
         id="stop3562" />
    </linearGradient>
    <linearGradient
       id="linearGradient3076"
       inkscape:collect="always">
      <stop
         id="stop3078"
         offset="0"
         style="stop-color:#ffe7f7;stop-opacity:1" />
      <stop
         id="stop3080"
         offset="1"
         style="stop-color:#ffc3ef;stop-opacity:1" />
    </linearGradient>
    <linearGradient
       inkscape:collect="always"
       id="linearGradient3048">
      <stop
         style="stop-color:#c16d16;stop-opacity:1"
         offset="0"
         id="stop3050" />
      <stop
         style="stop-color:#ff8e31;stop-opacity:1"
         offset="1"
         id="stop3052" />
    </linearGradient>
    <linearGradient
       inkscape:collect="always"
       id="linearGradient3119">
      <stop
         style="stop-color:#92948f;stop-opacity:0"
         offset="0"
         id="stop3121" />
      <stop
         id="stop3123"
         offset="0.4283945"
         style="stop-color:#9b9e98;stop-opacity:1" />
      <stop
         style="stop-color:#939690;stop-opacity:0"
         offset="1"
         id="stop3125" />
    </linearGradient>
    <linearGradient
       id="linearGradient3073"
       inkscape:collect="always">
      <stop
         id="stop3075"
         offset="0"
         style="stop-color:#ffffff;stop-opacity:0" />
      <stop
         style="stop-color:#ffffff;stop-opacity:1"
         offset="0.45872402"
         id="stop3085" />
      <stop
         id="stop3083"
         offset="1"
         style="stop-color:#ffffff;stop-opacity:0" />
    </linearGradient>
    <linearGradient
       inkscape:collect="always"
       id="linearGradient3047">
      <stop
         style="stop-color:#000000;stop-opacity:1"
         offset="0"
         id="stop3049" />
      <stop
         id="stop3055"
         offset="0.06123874"
         style="stop-color:#1a1a1a;stop-opacity:1" />
      <stop
         style="stop-color:#333333;stop-opacity:1"
         offset="0.16480456"
         id="stop3057" />
      <stop
         id="stop3059"
         offset="0.55385184"
         style="stop-color:#4d4d4d;stop-opacity:1" />
      <stop
         style="stop-color:#999999;stop-opacity:1"
         offset="1"
         id="stop3051" />
    </linearGradient>
    <linearGradient
       id="linearGradient3041"
       inkscape:collect="always">
      <stop
         id="stop3043"
         offset="0"
         style="stop-color:#1a1a1a;stop-opacity:1" />
      <stop
         id="stop3045"
         offset="1"
         style="stop-color:#808080;stop-opacity:1" />
    </linearGradient>
    <linearGradient
       inkscape:collect="always"
       id="linearGradient3029">
      <stop
         style="stop-color:#333333;stop-opacity:1"
         offset="0"
         id="stop3031" />
      <stop
         style="stop-color:#e0e0dd;stop-opacity:0;"
         offset="1"
         id="stop3033" />
    </linearGradient>
    <linearGradient
       inkscape:collect="always"
       xlink:href="#linearGradient3029"
       id="linearGradient3035"
       x1="35.355339"
       y1="1030.3622"
       x2="35.355339"
       y2="975.33282"
       gradientUnits="userSpaceOnUse"
       gradientTransform="matrix(1.1638085,0,0,1.1638085,-7.862809,-164.23642)" />
    <linearGradient
       inkscape:collect="always"
       xlink:href="#linearGradient3041"
       id="linearGradient3039"
       gradientUnits="userSpaceOnUse"
       x1="35.355339"
       y1="1030.3622"
       x2="35.355339"
       y2="975.33282"
       gradientTransform="matrix(1.1218695,0,0,1.1218695,-5.8497348,-122.18782)" />
    <linearGradient
       inkscape:collect="always"
       xlink:href="#linearGradient3047"
       id="linearGradient3053"
       x1="40"
       y1="1043.4336"
       x2="39.285713"
       y2="972.33325"
       gradientUnits="userSpaceOnUse" />
    <linearGradient
       inkscape:collect="always"
       xlink:href="#linearGradient3073"
       id="linearGradient3113"
       gradientUnits="userSpaceOnUse"
       gradientTransform="translate(0,-956.36218)"
       x1="14.869445"
       y1="978.90387"
       x2="24.52651"
       y2="969.24683" />
    <linearGradient
       inkscape:collect="always"
       xlink:href="#linearGradient3073"
       id="linearGradient3115"
       gradientUnits="userSpaceOnUse"
       gradientTransform="matrix(-1,0,0,1,96,-956.36218)"
       x1="15.152279"
       y1="978.62103"
       x2="26.263966"
       y2="967.50934" />
    <linearGradient
       inkscape:collect="always"
       xlink:href="#linearGradient3119"
       id="linearGradient3117"
       gradientUnits="userSpaceOnUse"
       gradientTransform="translate(0,-956.36218)"
       x1="13.131983"
       y1="980.64136"
       x2="25.549681"
       y2="967.86646" />
    <linearGradient
       inkscape:collect="always"
       xlink:href="#linearGradient3119"
       id="linearGradient3129"
       gradientUnits="userSpaceOnUse"
       gradientTransform="matrix(-1,0,0,1,96,0)"
       x1="13.131983"
       y1="980.64136"
       x2="25.549681"
       y2="967.86646" />
    <linearGradient
       inkscape:collect="always"
       xlink:href="#linearGradient3048"
       id="linearGradient3054"
       x1="49.267925"
       y1="996.57349"
       x2="49.267925"
       y2="1045.8627"
       gradientUnits="userSpaceOnUse" />
    <linearGradient
       inkscape:collect="always"
       xlink:href="#linearGradient3048"
       id="linearGradient3058"
       x1="115.80308"
       y1="985.47241"
       x2="115.80308"
       y2="1033.5543"
       gradientUnits="userSpaceOnUse" />
    <linearGradient
       inkscape:collect="always"
       xlink:href="#linearGradient3076"
       id="linearGradient3055"
       gradientUnits="userSpaceOnUse"
       x1="115.80308"
       y1="985.47241"
       x2="115.80308"
       y2="1025.3639"
       gradientTransform="matrix(1.4144782,0,0,1.4144782,-119.78686,-419.05496)" />
    <linearGradient
       inkscape:collect="always"
       xlink:href="#linearGradient3076"
       id="linearGradient3086"
       gradientUnits="userSpaceOnUse"
       gradientTransform="matrix(1.4144782,0,0,1.4144782,-119.78686,-417.12598)"
       x1="115.80308"
       y1="985.47241"
       x2="115.80308"
       y2="1025.3639" />
    <linearGradient
       inkscape:collect="always"
       xlink:href="#linearGradient3076"
       id="linearGradient3091"
       gradientUnits="userSpaceOnUse"
       gradientTransform="matrix(1.4144782,0,0,1.4144782,-119.78686,-418.126)"
       x1="115.80308"
       y1="985.47241"
       x2="115.80308"
       y2="1025.3639" />
    <linearGradient
       inkscape:collect="always"
       xlink:href="#linearGradient3076"
       id="linearGradient3093"
       gradientUnits="userSpaceOnUse"
       gradientTransform="matrix(1.4144782,0,0,1.4144782,-119.78686,-1375.4171)"
       x1="115.80308"
       y1="985.47241"
       x2="115.80308"
       y2="1025.3639" />
    <linearGradient
       inkscape:collect="always"
       xlink:href="#linearGradient3558"
       id="linearGradient3564"
       x1="93.242035"
       y1="1027.2615"
       x2="93.242035"
       y2="980.7262"
       gradientUnits="userSpaceOnUse" />
    <linearGradient
       inkscape:collect="always"
       xlink:href="#linearGradient3558"
       id="linearGradient4350"
       gradientUnits="userSpaceOnUse"
       x1="93.242035"
       y1="1027.2615"
       x2="93.242035"
       y2="980.7262" />
    <linearGradient
       inkscape:collect="always"
       xlink:href="#linearGradient4357"
       id="linearGradient3067"
       gradientUnits="userSpaceOnUse"
       gradientTransform="translate(-206.68129,0)"
       x1="93.242035"
       y1="1027.2615"
       x2="93.242035"
       y2="980.7262" />
    <linearGradient
       inkscape:collect="always"
       xlink:href="#linearGradient3083"
       id="linearGradient3071"
       gradientUnits="userSpaceOnUse"
       x1="22.54203"
       y1="1043.3966"
       x2="22.54203"
       y2="964.45898" />
    <linearGradient
       inkscape:collect="always"
       xlink:href="#linearGradient3090"
       id="linearGradient3074"
       gradientUnits="userSpaceOnUse"
       x1="53.796227"
       y1="1046.0226"
       x2="53.796227"
       y2="962.97437" />
    <linearGradient
       inkscape:collect="always"
       xlink:href="#linearGradient3089"
       id="linearGradient3075"
       gradientUnits="userSpaceOnUse"
       x1="22.54203"
       y1="1043.3966"
       x2="22.54203"
       y2="964.45898"
       gradientTransform="matrix(0.95121955,0,0,0.95121955,2.3414635,48.993272)" />
    <linearGradient
       inkscape:collect="always"
       xlink:href="#linearGradient3081"
       id="linearGradient3079"
       gradientUnits="userSpaceOnUse"
       gradientTransform="matrix(0.92682931,0,0,0.92682931,3.5121952,73.489908)"
       x1="22.54203"
       y1="1043.3966"
       x2="22.54203"
       y2="964.45898" />
    <linearGradient
       inkscape:collect="always"
       xlink:href="#linearGradient3099"
       id="linearGradient3097"
       gradientUnits="userSpaceOnUse"
       gradientTransform="matrix(0.84146347,0,0,0.84146347,7.6097558,159.22817)"
       x1="22.54203"
       y1="1043.3966"
       x2="22.54203"
       y2="964.45898" />
    <linearGradient
       inkscape:collect="always"
       xlink:href="#linearGradient3109"
       id="linearGradient3107"
       gradientUnits="userSpaceOnUse"
       gradientTransform="matrix(0.81707324,0,0,0.81707324,8.7804875,183.72477)"
       x1="22.54203"
       y1="1043.3966"
       x2="22.54203"
       y2="964.45898" />
  </defs>
  <sodipodi:namedview
     id="base"
     pagecolor="#ffffff"
     bordercolor="#666666"
     borderopacity="1.0"
     inkscape:pageopacity="0.0"
     inkscape:pageshadow="2"
     inkscape:zoom="3.9038186"
     inkscape:cx="2.512047"
     inkscape:cy="48.524215"
     inkscape:document-units="px"
     inkscape:current-layer="layer1"
     showgrid="false"
     inkscape:window-width="1366"
     inkscape:window-height="701"
     inkscape:window-x="0"
     inkscape:window-y="28"
     inkscape:window-maximized="1"
     showguides="true"
     inkscape:guide-bbox="true" />
  <metadata
     id="metadata7">
    <rdf:RDF>
      <cc:Work
         rdf:about="">
        <dc:format>image/svg+xml</dc:format>
        <dc:type
           rdf:resource="http://purl.org/dc/dcmitype/StillImage" />
        <dc:title />
      </cc:Work>
    </rdf:RDF>
  </metadata>
  <g
     inkscape:label="Layer 1"
     inkscape:groupmode="layer"
     id="layer1"
     transform="translate(0,-956.36218)">
    <rect
       style="opacity:0.05;fill:#000000;fill-opacity:1;stroke:none"
       id="rect3826"
       width="89"
       height="89"
       x="3.5"
       y="960.86218"
       rx="10.595235"
       ry="10.595235" />
    <g
       id="g3041">
      <rect
         style="opacity:0.05;fill:#000000;fill-opacity:1;stroke:none"
         id="rect3824"
         width="88"
         height="88"
         x="4"
         y="961.36218"
         rx="10.476188"
         ry="10.476188" />
      <rect
         ry="10.357141"
         rx="10.357141"
         y="961.86218"
         x="4.5"
         height="87"
         width="87"
         id="rect3822"
         style="opacity:0.05;fill:#000000;fill-opacity:1;stroke:none" />
      <rect
         style="opacity:0.1;fill:#000000;fill-opacity:1;stroke:none"
         id="rect3820"
         width="86"
         height="86"
         x="5"
         y="962.36218"
         rx="10.238094"
         ry="10.238094" />
      <rect
         ry="10.119047"
         rx="10.119047"
         y="962.86218"
         x="5.5"
         height="85"
         width="85"
         id="rect3818"
         style="opacity:0.1;fill:#000000;fill-opacity:1;stroke:none" />
      <rect
         style="opacity:0.3;fill:#000000;fill-opacity:1;stroke:none"
         id="rect3131"
         width="84"
         height="84"
         x="6"
         y="963.36218"
         rx="10"
         ry="10" />
    </g>
    <rect
       ry="10"
       rx="10"
       y="962.36218"
       x="6"
       height="84"
       width="84"
       id="rect3036"
       style="fill:url(#linearGradient3074);fill-opacity:1;stroke:none" />
    <rect
       style="fill:url(#linearGradient3071);fill-opacity:1;stroke:none"
       id="rect3034"
       width="82"
       height="82"
       x="7"
       y="963.36218"
       rx="9.7619047"
       ry="9.7619047" />
    <rect
       ry="9.2857141"
       rx="9.2857141"
       y="965.36218"
       x="9"
       height="78"
       width="78"
       id="rect3073"
       style="fill:url(#linearGradient3075);fill-opacity:1;stroke:none" />
    <rect
       style="fill:url(#linearGradient3079);fill-opacity:1;stroke:none"
       id="rect3077"
       width="76"
       height="76"
       x="10"
       y="966.36218"
       rx="9.0476189"
       ry="9.0476189" />
    <rect
       ry="8.2142859"
       rx="8.2142859"
       y="969.86218"
       x="13.5"
       height="69"
       width="69"
       id="rect3095"
       style="fill:url(#linearGradient3097);fill-opacity:1;stroke:none" />
    <rect
       style="fill:url(#linearGradient3107);fill-opacity:1;stroke:none"
       id="rect3105"
       width="67"
       height="67"
       x="14.5"
       y="970.86218"
       rx="7.9761906"
       ry="7.9761906" />
    <g
       style="font-size:9px;font-style:normal;font-variant:normal;font-weight:normal;font-stretch:normal;line-height:125%;letter-spacing:0px;word-spacing:0px;fill:#000000;fill-opacity:1;stroke:none;font-family:Rage Italic;-inkscape-font-specification:Rage Italic"
       id="text3115">
      <path
         d="m 27.259518,1008.0858 c -1e-6,-0.1699 0.02051,-0.3618 0.06152,-0.5757 0.04101,-0.2168 0.112792,-0.4262 0.215332,-0.6284 0.140624,-0.2812 0.297362,-0.5522 0.470215,-0.813 0.17285,-0.2636 0.350096,-0.5053 0.531738,-0.7251 0.181638,-0.2226 0.363279,-0.4189 0.544922,-0.5888 0.181638,-0.1729 0.354489,-0.3077 0.518555,-0.4043 l -0.0044,0 c 0.102536,-0.065 0.210934,-0.1319 0.325196,-0.2022 0.114254,-0.07 0.231441,-0.1347 0.351562,-0.1933 0.120113,-0.059 0.241695,-0.107 0.364746,-0.1451 0.123043,-0.038 0.244624,-0.057 0.364746,-0.057 0.123042,0 0.24023,0.025 0.351563,0.075 0.111323,0.05 0.208002,0.1187 0.290039,0.2066 0.08496,0.085 0.150873,0.1845 0.197754,0.2988 0.0498,0.1142 0.0747,0.2358 0.07471,0.3647 -6e-6,0.091 -0.0059,0.1626 -0.01758,0.2154 -0.0088,0.05 -0.02491,0.088 -0.04834,0.1142 -0.02051,0.026 -0.04835,0.043 -0.0835,0.048 -0.03223,0.01 -0.07032,0.01 -0.114258,0.01 -0.06446,0 -0.115728,-0.013 -0.153809,-0.039 -0.03516,-0.029 -0.06446,-0.063 -0.08789,-0.1011 -0.02051,-0.041 -0.03663,-0.085 -0.04834,-0.1318 -0.01172,-0.05 -0.02637,-0.094 -0.04395,-0.1319 -0.01465,-0.041 -0.03516,-0.075 -0.06152,-0.101 -0.02344,-0.029 -0.05713,-0.044 -0.101074,-0.044 -0.117192,0 -0.244634,0.026 -0.382324,0.079 -0.13477,0.053 -0.27393,0.1231 -0.417481,0.211 -0.140629,0.088 -0.282718,0.1889 -0.426269,0.3032 -0.140629,0.1113 -0.275394,0.2256 -0.404297,0.3428 -0.12891,0.1172 -0.249027,0.2329 -0.360352,0.3471 -0.108401,0.1143 -0.202151,0.2168 -0.28125,0.3076 -0.11719,0.1495 -0.224123,0.3018 -0.320801,0.4571 -0.09668,0.1523 -0.180177,0.3091 -0.250488,0.4702 -0.07031,0.1582 -0.124514,0.3223 -0.162597,0.4922 -0.03809,0.167 -0.05713,0.3413 -0.05713,0.5229 -2e-6,0.1407 0.01904,0.2637 0.05713,0.3692 0.04101,0.1054 0.08496,0.1963 0.131835,0.2724 0.05566,0.088 0.12451,0.1494 0.206543,0.1846 0.08203,0.032 0.180174,0.048 0.294434,0.048 0.249021,0 0.479001,-0.023 0.689941,-0.07 0.210934,-0.047 0.413083,-0.1098 0.606446,-0.1889 0.193355,-0.079 0.38232,-0.1729 0.566894,-0.2813 0.184566,-0.1084 0.374995,-0.2241 0.571289,-0.3472 l 0.114258,0 c 0.03808,10e-5 0.07617,0.01 0.114258,0.031 0.04101,0.02 0.07617,0.047 0.105469,0.079 0.03222,0.032 0.05712,0.069 0.07471,0.1099 0.0205,0.041 0.03076,0.084 0.03076,0.1274 -5e-6,0.097 -0.03809,0.1934 -0.114257,0.2901 -0.07618,0.094 -0.174322,0.1845 -0.294434,0.2724 -0.117192,0.085 -0.250493,0.1655 -0.399902,0.2417 -0.149419,0.076 -0.297368,0.1436 -0.443848,0.2022 -0.143559,0.059 -0.278324,0.1084 -0.404297,0.1494 -0.12598,0.041 -0.227054,0.069 -0.303222,0.083 -0.06446,0.015 -0.127445,0.029 -0.188965,0.044 -0.0586,0.012 -0.12891,0.025 -0.210938,0.04 -0.08203,0.012 -0.180179,0.022 -0.294433,0.031 -0.114261,0.01 -0.257815,0.01 -0.430664,0.01 -0.105471,0 -0.202151,-0.016 -0.29004,-0.048 -0.08789,-0.035 -0.166994,-0.075 -0.237304,-0.1187 -0.06739,-0.047 -0.125978,-0.095 -0.175781,-0.145 -0.04688,-0.05 -0.08496,-0.092 -0.114258,-0.1274 -0.172853,-0.2022 -0.29883,-0.4014 -0.37793,-0.5977 -0.0791,-0.1963 -0.118653,-0.4116 -0.118652,-0.646"
         style="font-family:MV Boli;-inkscape-font-specification:MV Boli"
         id="path3135" />
      <path
         d="m 32.383541,1008.2616 c -10e-7,-0.126 0.03369,-0.2329 0.101074,-0.3208 0.06738,-0.088 0.156738,-0.1465 0.268067,-0.1758 0.03222,-0.064 0.08203,-0.1509 0.149414,-0.2593 0.06738,-0.1113 0.150877,-0.2314 0.250488,-0.3603 0.09961,-0.1289 0.212401,-0.2578 0.338379,-0.3867 0.128904,-0.1319 0.269529,-0.2505 0.421875,-0.356 0.155271,-0.1084 0.320798,-0.1963 0.496582,-0.2637 0.178708,-0.067 0.367673,-0.101 0.566895,-0.101 0.169918,0 0.317867,0.02 0.443847,0.062 0.125973,0.041 0.229977,0.098 0.312012,0.1714 0.08203,0.073 0.14355,0.1611 0.18457,0.2636 0.04101,0.1 0.06152,0.2081 0.06152,0.3252 -5e-6,0.1 -0.01319,0.1949 -0.03955,0.2857 -0.04102,0.1641 -0.117192,0.3076 -0.228516,0.4306 -0.111332,0.1231 -0.243168,0.2315 -0.395508,0.3252 -0.149417,0.091 -0.31348,0.167 -0.492187,0.2286 -0.175784,0.061 -0.35303,0.1128 -0.531738,0.1538 -0.175784,0.041 -0.345706,0.073 -0.509766,0.097 -0.164064,0.021 -0.306154,0.037 -0.426269,0.048 -0.02637,0.053 -0.04981,0.1201 -0.07031,0.2021 -0.01758,0.079 -0.02637,0.1568 -0.02637,0.2329 -2e-6,0.17 0.06738,0.3018 0.202148,0.3956 0.134764,0.094 0.320799,0.1406 0.558106,0.1406 0.137692,0 0.269528,-0.015 0.395508,-0.044 0.125973,-0.032 0.244625,-0.072 0.355957,-0.1186 0.114254,-0.05 0.221188,-0.1026 0.3208,-0.1582 0.09961,-0.059 0.190426,-0.1157 0.272461,-0.1714 0.105465,-0.07 0.205074,-0.1289 0.298828,-0.1758 0.09668,-0.05 0.181637,-0.075 0.254883,-0.075 0.07324,0 0.120113,0.019 0.140625,0.057 0.0205,0.035 0.03076,0.073 0.03076,0.1143 -5e-6,0.023 -0.0015,0.047 -0.0044,0.07 -4e-6,0.02 -0.0015,0.038 -0.0044,0.053 -0.01465,0.076 -0.04395,0.1524 -0.08789,0.2286 -0.04395,0.076 -0.09961,0.142 -0.166992,0.1977 -0.304691,0.2402 -0.618168,0.4116 -0.94043,0.5142 -0.319339,0.1025 -0.660647,0.1538 -1.023925,0.1538 -0.07032,0 -0.153811,-0 -0.250489,-0.013 -0.09375,-0.01 -0.191896,-0.026 -0.294433,-0.053 -0.102541,-0.026 -0.203615,-0.065 -0.303223,-0.1143 -0.09961,-0.05 -0.188966,-0.1157 -0.268066,-0.1978 -0.07617,-0.082 -0.139162,-0.1831 -0.188965,-0.3032 -0.04688,-0.1201 -0.07031,-0.2651 -0.07031,-0.435 -10e-7,-0.1377 0.01904,-0.2915 0.05713,-0.4615 -0.03809,-0.01 -0.07471,-0.025 -0.109863,-0.057 -0.03223,-0.035 -0.04834,-0.085 -0.04834,-0.1494 m 2.750977,-1.2173 c 0.0059,-0.015 0.0088,-0.028 0.0088,-0.039 -4e-6,-0.012 -4e-6,-0.025 0,-0.04 -4e-6,-0.079 -0.0293,-0.1377 -0.08789,-0.1758 -0.0586,-0.041 -0.128909,-0.062 -0.210937,-0.062 -0.12891,0 -0.256351,0.034 -0.382325,0.1011 -0.123049,0.067 -0.240237,0.1523 -0.351562,0.2549 -0.108401,0.1 -0.205081,0.208 -0.290039,0.3252 -0.08496,0.1142 -0.150881,0.2182 -0.197754,0.312 0.210935,-0.018 0.404294,-0.045 0.580078,-0.083 0.175778,-0.041 0.328122,-0.091 0.457031,-0.1494 0.131833,-0.062 0.237302,-0.1289 0.316407,-0.2022 0.08203,-0.076 0.134762,-0.1567 0.158203,-0.2417 m -0.509766,-1.1909 0,0"
         style="font-family:MV Boli;-inkscape-font-specification:MV Boli"
         id="path3137" />
      <path
         d="m 36.980221,1009.5052 c 0.03809,-0.205 0.08203,-0.4306 0.131836,-0.6767 0.0498,-0.2461 0.101073,-0.4951 0.153808,-0.7471 0.05273,-0.2519 0.104003,-0.4995 0.153809,-0.7427 0.0498,-0.2431 0.09228,-0.4658 0.127441,-0.6679 -0.0029,-0.029 -0.0044,-0.054 -0.0044,-0.075 -2e-6,-0.024 -2e-6,-0.048 0,-0.075 -2e-6,-0.091 0.0059,-0.1817 0.01758,-0.2725 0.01172,-0.091 0.02783,-0.1743 0.04834,-0.2505 0.03223,-0.1113 0.06738,-0.186 0.105469,-0.2241 0.04101,-0.041 0.105466,-0.062 0.193359,-0.062 0.08496,0 0.152342,0.018 0.202148,0.053 0.05273,0.032 0.09375,0.076 0.123047,0.1318 0.0293,0.056 0.04834,0.1202 0.05713,0.1934 0.0088,0.07 0.01318,0.1436 0.01318,0.2197 -3e-6,0.041 -0.0015,0.087 -0.0044,0.1363 -0.0029,0.05 -0.0044,0.089 -0.0044,0.1186 0.08203,-0.085 0.168454,-0.1714 0.259277,-0.2593 0.09375,-0.091 0.191892,-0.1714 0.294434,-0.2417 0.105465,-0.073 0.215329,-0.1333 0.329589,-0.1801 0.117185,-0.047 0.238767,-0.07 0.364747,-0.07 0.0498,0 0.09814,0 0.145019,0.013 0.0498,0.01 0.09961,0.02 0.149414,0.035 0.05859,0.015 0.118649,0.035 0.180176,0.062 0.06445,0.023 0.125972,0.057 0.18457,0.1011 0.09668,0.073 0.177242,0.1655 0.241699,0.2768 0.06738,0.1084 0.10107,0.2198 0.101075,0.334 -5e-6,0.044 -0.0088,0.092 -0.02637,0.145 -0.01758,0.05 -0.04248,0.097 -0.07471,0.1407 -0.0293,0.041 -0.06446,0.076 -0.105468,0.1054 -0.04102,0.026 -0.08643,0.04 -0.136231,0.04 -0.04981,0 -0.111332,-0.012 -0.18457,-0.035 -0.07032,-0.026 -0.12891,-0.06 -0.175781,-0.101 -0.02051,-0.018 -0.04249,-0.043 -0.06592,-0.075 -0.02051,-0.032 -0.04102,-0.064 -0.06152,-0.097 -0.01758,-0.032 -0.03516,-0.062 -0.05273,-0.088 -0.01465,-0.029 -0.02637,-0.048 -0.03516,-0.057 -0.01465,-0 -0.03077,-0 -0.04834,-0 -0.01758,-0 -0.03369,-0 -0.04834,-0 -0.149417,0 -0.291507,0.038 -0.42627,0.1142 -0.134768,0.076 -0.260745,0.1699 -0.377929,0.2813 -0.11719,0.1084 -0.225589,0.2256 -0.325196,0.3515 -0.09668,0.1231 -0.181642,0.2344 -0.254882,0.334 -0.0586,0.2373 -0.124514,0.4907 -0.197754,0.7603 -0.07032,0.2666 -0.140627,0.5464 -0.210938,0.8393 l 0,0.1099 c -2e-6,0.088 -0.0029,0.1772 -0.0088,0.2681 -0.0059,0.091 -0.02344,0.1713 -0.05273,0.2417 -0.03223,0.044 -0.0791,0.08 -0.140625,0.1098 -0.05859,0.032 -0.127443,0.048 -0.206543,0.048 -0.123048,0 -0.215333,-0.04 -0.276856,-0.1187 -0.06152,-0.082 -0.09229,-0.1772 -0.09229,-0.2856 -10e-7,-0.05 0.0073,-0.1011 0.02197,-0.1539"
         style="font-family:MV Boli;-inkscape-font-specification:MV Boli"
         id="path3139" />
      <path
         d="m 41.352779,1008.5912 c -10e-7,-0.2461 0.02783,-0.501 0.0835,-0.7647 0.05566,-0.2666 0.114257,-0.5214 0.175782,-0.7646 -0.07617,-0 -0.15381,-0.015 -0.23291,-0.035 -0.0791,-0.02 -0.150881,-0.048 -0.215332,-0.083 -0.06446,-0.035 -0.117189,-0.078 -0.158204,-0.1274 -0.04102,-0.053 -0.06152,-0.1128 -0.06152,-0.1802 -10e-7,-0.026 0.0059,-0.06 0.01758,-0.1011 0.01172,-0.041 0.02783,-0.081 0.04834,-0.1186 0.02344,-0.041 0.05273,-0.075 0.08789,-0.1011 0.03515,-0.029 0.0747,-0.044 0.118652,-0.044 l 0.588867,0 c 0.05566,0 0.09375,-0.024 0.114258,-0.07 0.02051,-0.05 0.03662,-0.098 0.04834,-0.1451 0.03808,-0.1699 0.07324,-0.3164 0.105469,-0.4394 0.03515,-0.126 0.06445,-0.2315 0.08789,-0.3164 0.02343,-0.088 0.04101,-0.1582 0.05274,-0.211 0.01465,-0.056 0.02197,-0.1 0.02197,-0.1318 -2e-6,-0.038 -0.0015,-0.075 -0.0044,-0.1099 -0.0029,-0.035 -0.0044,-0.083 -0.0044,-0.145 l 0,-0.044 c -2e-6,-0.024 0.0015,-0.054 0.0044,-0.092 0.0059,-0.038 0.0205,-0.092 0.04394,-0.1626 0.01758,-0.056 0.0498,-0.1084 0.09668,-0.1582 0.04687,-0.05 0.11572,-0.075 0.206543,-0.075 0.0791,0 0.146481,0.016 0.202148,0.048 0.05566,0.032 0.101071,0.075 0.136231,0.1275 0.03515,0.053 0.06152,0.1128 0.0791,0.1801 0.01758,0.067 0.02636,0.1348 0.02637,0.2022 -3e-6,0.073 -0.0073,0.1392 -0.02197,0.1977 l -0.320801,1.2305 c 0.1582,-0.026 0.298825,-0.051 0.421875,-0.075 0.123043,-0.023 0.24609,-0.047 0.36914,-0.07 0.134762,-0.026 0.250485,-0.051 0.347168,-0.075 0.09961,-0.023 0.184567,-0.043 0.254883,-0.057 0.07031,-0.018 0.128902,-0.031 0.175781,-0.04 0.0498,-0.012 0.09082,-0.018 0.123047,-0.018 0.04687,0 0.09375,0 0.140625,0.013 0.0498,0.01 0.09228,0.018 0.127442,0.035 0.03808,0.018 0.06884,0.043 0.09229,0.075 0.02343,0.032 0.03515,0.075 0.03516,0.1274 -5e-6,0.07 -0.01465,0.1333 -0.04395,0.189 -0.02637,0.053 -0.06153,0.1 -0.105469,0.1406 -0.04395,0.038 -0.09376,0.07 -0.149414,0.097 -0.05567,0.023 -0.111333,0.041 -0.166992,0.053 -0.04688,0.01 -0.108403,0.022 -0.18457,0.04 -0.07325,0.018 -0.155278,0.037 -0.246094,0.057 -0.0879,0.02 -0.18018,0.042 -0.276856,0.066 -0.09668,0.024 -0.190433,0.047 -0.28125,0.07 -0.134769,0.035 -0.250491,0.065 -0.347168,0.088 -0.09375,0.024 -0.174319,0.041 -0.241699,0.053 -0.06738,0.012 -0.123049,0.02 -0.166992,0.026 -0.04102,0.01 -0.07471,0.01 -0.101074,0.01 -0.05567,0.167 -0.104007,0.3311 -0.14502,0.4922 -0.04102,0.1611 -0.07617,0.312 -0.105469,0.4526 -0.02637,0.1377 -0.04688,0.2622 -0.06152,0.3736 -0.01172,0.1084 -0.01758,0.1933 -0.01758,0.2549 -2e-6,0.079 0.0073,0.1552 0.02197,0.2285 0.01465,0.07 0.03955,0.1318 0.07471,0.1845 0.03515,0.053 0.08203,0.095 0.140625,0.1275 0.06152,0.029 0.137692,0.044 0.228515,0.044 0.155271,0 0.307614,-0.042 0.457031,-0.1274 0.149411,-0.085 0.291501,-0.1919 0.42627,-0.3208 0.137692,-0.1318 0.266598,-0.2754 0.386719,-0.4307 0.123042,-0.1552 0.235835,-0.3032 0.338379,-0.4438 0.03515,-0.053 0.08056,-0.079 0.13623,-0.079 0.01757,0 0.03808,0 0.06152,0.01 0.02636,0.01 0.05126,0.016 0.07471,0.031 0.02343,0.015 0.04247,0.034 0.05713,0.057 0.01757,0.023 0.02636,0.051 0.02637,0.083 -5e-6,0.023 -0.0015,0.041 -0.0044,0.053 -0.04688,0.1816 -0.120122,0.3647 -0.219726,0.5493 -0.09668,0.1816 -0.196294,0.3647 -0.298829,0.5493 -0.03516,0.065 -0.08203,0.1275 -0.140625,0.189 -0.05567,0.062 -0.117191,0.1216 -0.18457,0.1802 -0.06739,0.056 -0.137699,0.1098 -0.210937,0.1626 -0.07325,0.05 -0.142094,0.095 -0.206543,0.1362 -0.111332,0.07 -0.232914,0.1186 -0.364746,0.145 -0.131839,0.026 -0.259281,0.04 -0.382325,0.04 -0.190432,0 -0.360354,-0.034 -0.509765,-0.1011 -0.146487,-0.07 -0.270998,-0.1641 -0.373535,-0.2813 -0.09961,-0.1201 -0.175783,-0.2592 -0.228516,-0.4174 -0.05274,-0.1582 -0.0791,-0.3282 -0.0791,-0.5098"
         style="font-family:MV Boli;-inkscape-font-specification:MV Boli"
         id="path3141" />
      <path
         d="m 45.461666,1009.1537 c 0.04395,-0.1699 0.09668,-0.3677 0.158203,-0.5933 0.06152,-0.2256 0.125976,-0.4643 0.19336,-0.7163 0.07031,-0.2519 0.140623,-0.5097 0.210937,-0.7734 0.07031,-0.2637 0.136229,-0.52 0.197754,-0.7691 0.0029,-0.012 0.01318,-0.031 0.03076,-0.057 0.01758,-0.029 0.04248,-0.057 0.07471,-0.084 0.03223,-0.029 0.07324,-0.054 0.123047,-0.075 0.0498,-0.021 0.108396,-0.031 0.175781,-0.031 0.0498,0 0.09814,0.01 0.145019,0.018 0.04687,0.01 0.08789,0.024 0.123047,0.044 0.03808,0.02 0.06738,0.048 0.08789,0.083 0.02343,0.032 0.03515,0.07 0.03516,0.1142 -2e-6,0.01 -2e-6,0.019 0,0.031 -2e-6,0.01 -0.0015,0.018 -0.0044,0.026 l -0.123047,0.4659 c -0.137698,0.5215 -0.278323,1.0444 -0.421875,1.5688 -0.140627,0.5244 -0.278322,1.0503 -0.413086,1.5777 -0.0059,0.018 -0.01465,0.04 -0.02637,0.066 -0.01172,0.026 -0.02783,0.053 -0.04834,0.079 -0.02051,0.026 -0.04541,0.048 -0.07471,0.066 -0.0293,0.018 -0.06445,0.026 -0.105469,0.026 -0.07617,0 -0.143556,-0.016 -0.202148,-0.048 -0.0586,-0.029 -0.1084,-0.067 -0.149414,-0.1142 -0.04102,-0.047 -0.07178,-0.098 -0.09229,-0.1538 -0.02051,-0.056 -0.03076,-0.1084 -0.03076,-0.1583 -1e-6,-0.015 -1e-6,-0.028 0,-0.039 -1e-6,-0.012 0.0029,-0.025 0.0088,-0.04 l 0.127441,-0.5141 m 1.146973,-4.5484 c 0.01465,-0.062 0.04101,-0.1362 0.0791,-0.2241 0.03808,-0.088 0.105467,-0.167 0.202149,-0.2373 0.04687,-0.026 0.104001,-0.05 0.171386,-0.07 0.06738,-0.023 0.115721,-0.035 0.14502,-0.035 0.02929,0 0.05859,0.01 0.08789,0.031 0.03222,0.02 0.06005,0.043 0.0835,0.066 0.02929,0.029 0.05713,0.062 0.0835,0.097 0.07324,0.01 0.120114,0.032 0.140625,0.079 0.02343,0.047 0.03515,0.1026 0.03516,0.167 -3e-6,0.047 -0.0044,0.089 -0.01318,0.1274 -0.0088,0.038 -0.01612,0.069 -0.02197,0.092 -0.01758,0.062 -0.05127,0.1187 -0.101074,0.1714 -0.04981,0.05 -0.106937,0.094 -0.171387,0.1319 -0.06446,0.035 -0.131839,0.063 -0.202149,0.083 -0.07031,0.021 -0.131838,0.031 -0.18457,0.031 -0.06738,0 -0.120119,-0.012 -0.158203,-0.035 -0.03516,-0.024 -0.08057,-0.073 -0.13623,-0.1495 -0.03223,-0.044 -0.05127,-0.078 -0.05713,-0.101 -0.0029,-0.026 -0.0044,-0.048 -0.0044,-0.066 -2e-6,-0.032 0.0015,-0.06 0.0044,-0.083 0.0059,-0.026 0.01172,-0.051 0.01758,-0.075"
         style="font-family:MV Boli;-inkscape-font-specification:MV Boli"
         id="path3143" />
      <path
         d="m 48.581783,1010.3622 c -0.07324,0 -0.139161,-0.015 -0.197754,-0.044 -0.05566,-0.026 -0.104005,-0.064 -0.145019,-0.1142 -0.03809,-0.047 -0.06885,-0.1011 -0.09228,-0.1626 -0.02051,-0.061 -0.03076,-0.1275 -0.03076,-0.1978 -10e-7,-0.05 0.0059,-0.104 0.01758,-0.1626 0.01172,-0.062 0.0293,-0.1347 0.05273,-0.2197 0.0088,-0.038 0.02197,-0.095 0.03955,-0.1714 0.01758,-0.076 0.03516,-0.1626 0.05274,-0.2593 0.01758,-0.097 0.03515,-0.1992 0.05273,-0.3076 0.02051,-0.1084 0.03808,-0.2138 0.05273,-0.3164 0.01758,-0.1025 0.03076,-0.1977 0.03955,-0.2856 0.0088,-0.088 0.01318,-0.1612 0.01318,-0.2198 -2e-6,-0.038 -0.0015,-0.063 -0.0044,-0.075 -0.0059,-0.044 -0.03809,-0.073 -0.09668,-0.088 -0.05567,-0.018 -0.117189,-0.035 -0.184571,-0.053 -0.06445,-0.02 -0.124513,-0.051 -0.180176,-0.092 -0.05273,-0.044 -0.0791,-0.1142 -0.0791,-0.2109 -10e-7,-0.079 0.01758,-0.1538 0.05273,-0.2241 0.03809,-0.07 0.08643,-0.1201 0.14502,-0.1494 0.06738,-0.032 0.142088,-0.05 0.224121,-0.053 0.08496,-0 0.168455,-0.012 0.250488,-0.026 0.04687,-0.01 0.0791,-0.034 0.09668,-0.084 0.02051,-0.05 0.03662,-0.098 0.04834,-0.1451 0.03515,-0.1347 0.07324,-0.2797 0.114258,-0.435 0.04101,-0.1582 0.08789,-0.3179 0.140625,-0.479 0.05566,-0.1641 0.11572,-0.3238 0.180175,-0.479 0.06738,-0.1553 0.142088,-0.2989 0.224121,-0.4307 0.131834,-0.1787 0.272459,-0.3457 0.421875,-0.501 0.152341,-0.1552 0.313474,-0.29 0.483399,-0.4043 0.172848,-0.1171 0.354488,-0.208 0.544922,-0.2724 0.193355,-0.067 0.398433,-0.1011 0.615234,-0.1011 0.260737,0 0.47314,0.044 0.637207,0.1318 0.164057,0.088 0.297358,0.2198 0.399902,0.3955 0.02343,0.041 0.03955,0.083 0.04834,0.1275 0.0088,0.041 0.01318,0.084 0.01318,0.1274 -6e-6,0.079 -0.01172,0.1538 -0.03516,0.2241 -0.02051,0.067 -0.04981,0.1275 -0.08789,0.1802 -0.03809,0.05 -0.0835,0.089 -0.13623,0.1187 -0.04981,0.029 -0.102545,0.044 -0.158204,0.044 -0.07911,0 -0.14063,-0.016 -0.18457,-0.048 -0.04395,-0.032 -0.08057,-0.072 -0.109863,-0.1187 -0.02637,-0.047 -0.04834,-0.098 -0.06592,-0.1538 -0.01465,-0.059 -0.03223,-0.1113 -0.05273,-0.1582 -0.01758,-0.047 -0.04248,-0.086 -0.07471,-0.1186 -0.03223,-0.032 -0.07764,-0.048 -0.13623,-0.048 -0.0586,0 -0.125981,0.01 -0.202148,0.022 -0.07325,0.015 -0.143559,0.04 -0.210938,0.075 -0.178715,0.094 -0.344242,0.1992 -0.496582,0.3164 -0.152347,0.1143 -0.294437,0.2608 -0.42627,0.4395 -0.128909,0.1787 -0.249026,0.3969 -0.360351,0.6547 -0.108401,0.2579 -0.209475,0.5757 -0.303223,0.9537 -0.0029,0.01 -0.0059,0.013 -0.0088,0.022 -0.0029,0.01 -0.0044,0.015 -0.0044,0.018 -3e-6,0.01 0.01172,0.01 0.03516,0.01 0.08789,0 0.171384,-0 0.250488,-0.013 0.08203,-0.012 0.162595,-0.023 0.241699,-0.035 0.0791,-0.015 0.1582,-0.026 0.237305,-0.035 0.08203,-0.012 0.168454,-0.018 0.259277,-0.018 0.06738,0 0.130368,0 0.188965,0.01 0.05859,0.01 0.108395,0.019 0.149414,0.04 0.04394,0.018 0.07763,0.044 0.101075,0.079 0.02636,0.035 0.03955,0.082 0.03955,0.1406 -4e-6,0.035 -0.0059,0.079 -0.01758,0.1318 -0.0088,0.05 -0.02491,0.1 -0.04834,0.1494 -0.02051,0.047 -0.04834,0.089 -0.0835,0.1275 -0.03223,0.038 -0.07325,0.062 -0.123047,0.07 -0.08789,0.018 -0.178714,0.032 -0.272461,0.044 -0.09375,0.01 -0.196292,0.021 -0.307617,0.035 -0.111331,0.012 -0.234378,0.031 -0.36914,0.057 -0.134769,0.024 -0.285647,0.059 -0.452637,0.1055 -0.05274,0.1992 -0.09375,0.397 -0.123047,0.5933 -0.02637,0.1933 -0.04981,0.3867 -0.07031,0.58 -0.02051,0.1934 -0.04395,0.3882 -0.07031,0.5845 -0.02344,0.1934 -0.0586,0.3882 -0.105469,0.5845 -0.0088,0.038 -0.0249,0.076 -0.04834,0.1142 -0.02051,0.038 -0.04688,0.072 -0.0791,0.1011 -0.0293,0.032 -0.06446,0.057 -0.105469,0.075 -0.03809,0.02 -0.0791,0.031 -0.123047,0.031"
         style="font-family:MV Boli;-inkscape-font-specification:MV Boli"
         id="path3145" />
      <path
         d="m 51.315182,1009.1537 c 0.04394,-0.1699 0.09668,-0.3677 0.158203,-0.5933 0.06152,-0.2256 0.125975,-0.4643 0.193359,-0.7163 0.07031,-0.2519 0.140624,-0.5097 0.210938,-0.7734 0.07031,-0.2637 0.136229,-0.52 0.197754,-0.7691 0.0029,-0.012 0.01318,-0.031 0.03076,-0.057 0.01758,-0.029 0.04248,-0.057 0.07471,-0.084 0.03223,-0.029 0.07324,-0.054 0.123047,-0.075 0.0498,-0.021 0.108397,-0.031 0.175782,-0.031 0.0498,0 0.09814,0.01 0.145019,0.018 0.04687,0.01 0.08789,0.024 0.123047,0.044 0.03808,0.02 0.06738,0.048 0.08789,0.083 0.02343,0.032 0.03515,0.07 0.03516,0.1142 -3e-6,0.01 -3e-6,0.019 0,0.031 -3e-6,0.01 -0.0015,0.018 -0.0044,0.026 l -0.123047,0.4659 c -0.137697,0.5215 -0.278322,1.0444 -0.421875,1.5688 -0.140626,0.5244 -0.278322,1.0503 -0.413086,1.5777 -0.0059,0.018 -0.01465,0.04 -0.02637,0.066 -0.01172,0.026 -0.02783,0.053 -0.04834,0.079 -0.02051,0.026 -0.04541,0.048 -0.07471,0.066 -0.0293,0.018 -0.06445,0.026 -0.105468,0.026 -0.07617,0 -0.143556,-0.016 -0.202149,-0.048 -0.05859,-0.029 -0.108399,-0.067 -0.149414,-0.1142 -0.04102,-0.047 -0.07178,-0.098 -0.09228,-0.1538 -0.02051,-0.056 -0.03076,-0.1084 -0.03076,-0.1583 0,-0.015 0,-0.028 0,-0.039 0,-0.012 0.0029,-0.025 0.0088,-0.04 l 0.127442,-0.5141 m 1.146972,-4.5484 c 0.01465,-0.062 0.04101,-0.1362 0.0791,-0.2241 0.03808,-0.088 0.105467,-0.167 0.202148,-0.2373 0.04687,-0.026 0.104002,-0.05 0.171387,-0.07 0.06738,-0.023 0.11572,-0.035 0.14502,-0.035 0.02929,0 0.05859,0.01 0.08789,0.031 0.03222,0.02 0.06006,0.043 0.0835,0.066 0.02929,0.029 0.05713,0.062 0.0835,0.097 0.07324,0.01 0.120115,0.032 0.140625,0.079 0.02343,0.047 0.03515,0.1026 0.03516,0.167 -3e-6,0.047 -0.0044,0.089 -0.01318,0.1274 -0.0088,0.038 -0.01612,0.069 -0.02197,0.092 -0.01758,0.062 -0.05127,0.1187 -0.101074,0.1714 -0.04981,0.05 -0.106936,0.094 -0.171386,0.1319 -0.06446,0.035 -0.131839,0.063 -0.202149,0.083 -0.07032,0.021 -0.131838,0.031 -0.18457,0.031 -0.06738,0 -0.12012,-0.012 -0.158203,-0.035 -0.03516,-0.024 -0.08057,-0.073 -0.136231,-0.1495 -0.03223,-0.044 -0.05127,-0.078 -0.05713,-0.101 -0.0029,-0.026 -0.0044,-0.048 -0.0044,-0.066 -2e-6,-0.032 0.0015,-0.06 0.0044,-0.083 0.0059,-0.026 0.01172,-0.051 0.01758,-0.075"
         style="font-family:MV Boli;-inkscape-font-specification:MV Boli"
         id="path3147" />
      <path
         d="m 53.622311,1008.2396 c 0.05566,-0.2256 0.137694,-0.4614 0.246093,-0.7075 0.111327,-0.2461 0.244628,-0.4834 0.399903,-0.7119 0.155271,-0.2315 0.331053,-0.4439 0.527343,-0.6372 0.199217,-0.1963 0.416014,-0.356 0.650391,-0.479 0.07617,-0.041 0.159665,-0.072 0.250488,-0.092 0.09082,-0.021 0.183103,-0.031 0.276856,-0.031 0.09668,0 0.186032,0.01 0.268066,0.026 0.08496,0.018 0.156735,0.047 0.215332,0.088 0.06152,0.041 0.10986,0.094 0.14502,0.1582 0.03515,0.065 0.05273,0.1436 0.05273,0.2373 -4e-6,0.07 -0.01026,0.1421 -0.03076,0.2153 -0.02051,0.07 -0.05127,0.1348 -0.09229,0.1934 -0.04102,0.056 -0.09229,0.1011 -0.153808,0.1362 -0.06153,0.035 -0.133305,0.053 -0.215332,0.053 -0.06446,0 -0.124515,-0.012 -0.180176,-0.035 -0.05274,-0.023 -0.104007,-0.05 -0.153809,-0.079 -0.02637,-0.018 -0.05127,-0.032 -0.07471,-0.044 -0.02344,-0.015 -0.05127,-0.028 -0.0835,-0.04 -0.11719,0.053 -0.228518,0.1231 -0.333984,0.2109 -0.102542,0.085 -0.199221,0.1802 -0.290039,0.2857 -0.08789,0.1055 -0.169924,0.2182 -0.246094,0.3384 -0.07324,0.1201 -0.140627,0.2402 -0.202148,0.3603 -0.0586,0.1201 -0.109865,0.2388 -0.153809,0.356 -0.04102,0.1142 -0.07471,0.2197 -0.101074,0.3164 -0.02051,0.07 -0.03955,0.1509 -0.05713,0.2417 -0.01465,0.088 -0.02197,0.1743 -0.02197,0.2593 -10e-7,0.059 0.0044,0.1142 0.01318,0.1669 0.01172,0.053 0.03076,0.1 0.05713,0.1407 0.02636,0.041 0.06152,0.073 0.105468,0.097 0.04394,0.024 0.09814,0.035 0.162598,0.035 0.102537,0 0.203611,-0.013 0.303223,-0.04 0.102537,-0.026 0.202146,-0.06 0.298828,-0.1011 0.09668,-0.041 0.190427,-0.088 0.28125,-0.1406 0.09375,-0.056 0.184567,-0.1114 0.272461,-0.167 0.05566,-0.035 0.111325,-0.072 0.166992,-0.1099 0.05566,-0.038 0.108395,-0.072 0.158203,-0.1011 0.0498,-0.029 0.09521,-0.053 0.136231,-0.07 0.04394,-0.02 0.08203,-0.031 0.114257,-0.031 0.04394,0 0.08496,0.012 0.123047,0.035 0.03808,0.02 0.05712,0.057 0.05713,0.1099 -4e-6,0.038 -0.0088,0.081 -0.02637,0.1274 -0.04102,0.1143 -0.09668,0.2168 -0.166992,0.3076 -0.07032,0.091 -0.149418,0.1729 -0.237305,0.2461 -0.08496,0.07 -0.177249,0.1333 -0.276855,0.189 -0.09668,0.056 -0.193363,0.1069 -0.290039,0.1538 -0.181644,0.097 -0.366214,0.1699 -0.553711,0.2197 -0.184573,0.047 -0.339846,0.07 -0.465821,0.07 -0.04102,0 -0.08936,-0 -0.145019,-0.013 -0.05567,-0.01 -0.104006,-0.022 -0.14502,-0.04 -0.237306,-0.1025 -0.410157,-0.2402 -0.518554,-0.4131 -0.1084,-0.1728 -0.162599,-0.3779 -0.162598,-0.6152 -10e-7,-0.1026 0.0073,-0.2095 0.02197,-0.3208 0.01758,-0.1143 0.04248,-0.2329 0.07471,-0.356"
         style="font-family:MV Boli;-inkscape-font-specification:MV Boli"
         id="path3149" />
      <path
         d="m 59.5769,1009.7689 c -3e-6,-0.085 0.01025,-0.186 0.03076,-0.3032 0.0205,-0.1201 0.03076,-0.2681 0.03076,-0.4438 -0.09668,0.07 -0.203616,0.1538 -0.320801,0.2504 -0.11719,0.097 -0.238772,0.189 -0.364746,0.2769 -0.125979,0.088 -0.251955,0.1626 -0.37793,0.2241 -0.123048,0.059 -0.238771,0.088 -0.347168,0.088 -0.08789,0 -0.171388,-0.013 -0.250488,-0.04 -0.0791,-0.026 -0.146486,-0.062 -0.202148,-0.1055 -0.155275,-0.1231 -0.268068,-0.2461 -0.338379,-0.3692 -0.06738,-0.123 -0.101075,-0.2666 -0.101074,-0.4306 -10e-7,-0.073 0.0059,-0.1494 0.01758,-0.2285 0.01465,-0.079 0.03516,-0.17 0.06152,-0.2725 0.111327,-0.4629 0.301757,-0.8906 0.571289,-1.2832 0.272459,-0.3955 0.609373,-0.7324 1.010742,-1.0107 0.155271,-0.1084 0.310545,-0.1773 0.465821,-0.2066 0.15527,-0.032 0.309079,-0.048 0.461425,-0.048 0.06738,0 0.142087,0 0.224122,0.013 0.08496,0.01 0.161129,0.017 0.228515,0.026 0.06738,-0.015 0.121578,-0.025 0.162598,-0.031 0.04394,-0.01 0.08935,-0.01 0.13623,-0.01 0.08789,0 0.161129,0.012 0.219727,0.035 0.05859,0.024 0.105464,0.056 0.140625,0.097 0.03515,0.038 0.06005,0.084 0.07471,0.1362 0.01757,0.05 0.02636,0.1026 0.02637,0.1582 -4e-6,0.076 -0.01172,0.1495 -0.03516,0.2198 -0.02344,0.067 -0.04688,0.1362 -0.07031,0.2065 l -0.580078,2.3159 c -0.01172,0.126 -0.02198,0.2417 -0.03076,0.3472 -0.0088,0.1055 -0.02637,0.2036 -0.05273,0.2944 -0.0088,0.026 -0.02051,0.06 -0.03516,0.1011 -0.01172,0.038 -0.03223,0.076 -0.06152,0.1143 -0.0293,0.035 -0.06592,0.066 -0.109863,0.092 -0.04395,0.026 -0.101078,0.04 -0.171387,0.04 -0.09082,0 -0.164065,-0.01 -0.219726,-0.018 -0.05274,-0.012 -0.09375,-0.028 -0.123047,-0.048 -0.0293,-0.024 -0.04834,-0.05 -0.05713,-0.079 -0.0088,-0.032 -0.01319,-0.069 -0.01318,-0.1099 m -1.458984,-1.3271 c -0.01172,0.041 -0.0249,0.1 -0.03955,0.1758 -0.01172,0.076 -0.01758,0.1523 -0.01758,0.2285 -10e-7,0.079 0.01172,0.1508 0.03516,0.2153 0.02344,0.061 0.07471,0.092 0.153809,0.092 0.123045,0 0.237303,-0.026 0.342773,-0.079 0.108397,-0.056 0.209471,-0.1216 0.303223,-0.1978 0.125974,-0.1025 0.253416,-0.2168 0.382324,-0.3427 0.131833,-0.1289 0.25488,-0.2637 0.369141,-0.4043 0.117184,-0.1407 0.219723,-0.2842 0.307617,-0.4307 0.09082,-0.1494 0.156735,-0.2974 0.197754,-0.4439 0.02343,-0.085 0.04248,-0.1831 0.05713,-0.2944 0.01757,-0.1113 0.02636,-0.2109 0.02637,-0.2988 -3e-6,-0.038 -0.0088,-0.075 -0.02637,-0.1099 -0.01758,-0.038 -0.05127,-0.057 -0.101074,-0.057 -0.143558,0 -0.288578,0.028 -0.435059,0.083 -0.143557,0.056 -0.282717,0.1304 -0.41748,0.2241 -0.134768,0.094 -0.263675,0.2051 -0.386719,0.334 -0.120119,0.126 -0.229983,0.2622 -0.32959,0.4087 -0.09961,0.1435 -0.186037,0.293 -0.259277,0.4482 -0.07031,0.1524 -0.124514,0.3018 -0.162598,0.4483"
         style="font-family:MV Boli;-inkscape-font-specification:MV Boli"
         id="path3151" />
      <path
         d="m 62.428951,1008.5912 c -10e-7,-0.2461 0.02783,-0.501 0.0835,-0.7647 0.05566,-0.2666 0.114256,-0.5214 0.175782,-0.7646 -0.07617,-0 -0.153811,-0.015 -0.232911,-0.035 -0.0791,-0.02 -0.15088,-0.048 -0.215332,-0.083 -0.06445,-0.035 -0.117188,-0.078 -0.158203,-0.1274 -0.04102,-0.053 -0.06152,-0.1128 -0.06152,-0.1802 -10e-7,-0.026 0.0059,-0.06 0.01758,-0.1011 0.01172,-0.041 0.02783,-0.081 0.04834,-0.1186 0.02344,-0.041 0.05273,-0.075 0.08789,-0.1011 0.03516,-0.029 0.07471,-0.044 0.118653,-0.044 l 0.588867,0 c 0.05566,0 0.09375,-0.024 0.114258,-0.07 0.02051,-0.05 0.03662,-0.098 0.04834,-0.1451 0.03808,-0.1699 0.07324,-0.3164 0.105468,-0.4394 0.03515,-0.126 0.06445,-0.2315 0.08789,-0.3164 0.02344,-0.088 0.04101,-0.1582 0.05273,-0.211 0.01465,-0.056 0.02197,-0.1 0.02197,-0.1318 -2e-6,-0.038 -0.0015,-0.075 -0.0044,-0.1099 -0.0029,-0.035 -0.0044,-0.083 -0.0044,-0.145 l 0,-0.044 c -2e-6,-0.024 0.0015,-0.054 0.0044,-0.092 0.0059,-0.038 0.0205,-0.092 0.04394,-0.1626 0.01758,-0.056 0.0498,-0.1084 0.09668,-0.1582 0.04687,-0.05 0.11572,-0.075 0.206542,-0.075 0.0791,0 0.146482,0.016 0.202149,0.048 0.05566,0.032 0.101071,0.075 0.13623,0.1275 0.03515,0.053 0.06152,0.1128 0.0791,0.1801 0.01757,0.067 0.02636,0.1348 0.02637,0.2022 -3e-6,0.073 -0.0073,0.1392 -0.02197,0.1977 l -0.3208,1.2305 c 0.1582,-0.026 0.298825,-0.051 0.421875,-0.075 0.123043,-0.023 0.24609,-0.047 0.36914,-0.07 0.134762,-0.026 0.250485,-0.051 0.347168,-0.075 0.09961,-0.023 0.184566,-0.043 0.254883,-0.057 0.07031,-0.018 0.128902,-0.031 0.175781,-0.04 0.0498,-0.012 0.09082,-0.018 0.123047,-0.018 0.04687,0 0.09375,0 0.140625,0.013 0.0498,0.01 0.09228,0.018 0.127442,0.035 0.03808,0.018 0.06884,0.043 0.09229,0.075 0.02343,0.032 0.03515,0.075 0.03516,0.1274 -5e-6,0.07 -0.01465,0.1333 -0.04395,0.189 -0.02637,0.053 -0.06153,0.1 -0.105469,0.1406 -0.04395,0.038 -0.09375,0.07 -0.149414,0.097 -0.05567,0.023 -0.111333,0.041 -0.166992,0.053 -0.04688,0.01 -0.108403,0.022 -0.184571,0.04 -0.07325,0.018 -0.155277,0.037 -0.246093,0.057 -0.0879,0.02 -0.18018,0.042 -0.276856,0.066 -0.09668,0.024 -0.190433,0.047 -0.28125,0.07 -0.134769,0.035 -0.250491,0.065 -0.347168,0.088 -0.09375,0.024 -0.174319,0.041 -0.241699,0.053 -0.06739,0.012 -0.12305,0.02 -0.166992,0.026 -0.04102,0.01 -0.07471,0.01 -0.101074,0.01 -0.05567,0.167 -0.104007,0.3311 -0.14502,0.4922 -0.04102,0.1611 -0.07617,0.312 -0.105469,0.4526 -0.02637,0.1377 -0.04688,0.2622 -0.06152,0.3736 -0.01172,0.1084 -0.01758,0.1933 -0.01758,0.2549 -2e-6,0.079 0.0073,0.1552 0.02197,0.2285 0.01465,0.07 0.03955,0.1318 0.07471,0.1845 0.03515,0.053 0.08203,0.095 0.140625,0.1275 0.06152,0.029 0.137693,0.044 0.228516,0.044 0.155271,0 0.307614,-0.042 0.457031,-0.1274 0.149411,-0.085 0.291501,-0.1919 0.42627,-0.3208 0.137691,-0.1318 0.266598,-0.2754 0.386719,-0.4307 0.123042,-0.1552 0.235835,-0.3032 0.338379,-0.4438 0.03515,-0.053 0.08056,-0.079 0.13623,-0.079 0.01757,0 0.03808,0 0.06152,0.01 0.02636,0.01 0.05127,0.016 0.07471,0.031 0.02343,0.015 0.04248,0.034 0.05713,0.057 0.01757,0.023 0.02636,0.051 0.02637,0.083 -5e-6,0.023 -0.0015,0.041 -0.0044,0.053 -0.04688,0.1816 -0.120122,0.3647 -0.219727,0.5493 -0.09668,0.1816 -0.196293,0.3647 -0.298828,0.5493 -0.03516,0.065 -0.08204,0.1275 -0.140625,0.189 -0.05567,0.062 -0.117191,0.1216 -0.18457,0.1802 -0.06739,0.056 -0.137699,0.1098 -0.210937,0.1626 -0.07325,0.05 -0.142094,0.095 -0.206543,0.1362 -0.111332,0.07 -0.232914,0.1186 -0.364747,0.145 -0.131838,0.026 -0.25928,0.04 -0.382324,0.04 -0.190432,0 -0.360354,-0.034 -0.509765,-0.1011 -0.146487,-0.07 -0.270998,-0.1641 -0.373536,-0.2813 -0.09961,-0.1201 -0.175782,-0.2592 -0.228515,-0.4174 -0.05274,-0.1582 -0.0791,-0.3282 -0.0791,-0.5098"
         style="font-family:MV Boli;-inkscape-font-specification:MV Boli"
         id="path3153" />
      <path
         d="m 66.485104,1008.2616 c -1e-6,-0.126 0.03369,-0.2329 0.101074,-0.3208 0.06738,-0.088 0.156737,-0.1465 0.268066,-0.1758 0.03223,-0.064 0.08203,-0.1509 0.149414,-0.2593 0.06738,-0.1113 0.150878,-0.2314 0.250489,-0.3603 0.09961,-0.1289 0.2124,-0.2578 0.338378,-0.3867 0.128905,-0.1319 0.26953,-0.2505 0.421875,-0.356 0.155271,-0.1084 0.320799,-0.1963 0.496583,-0.2637 0.178707,-0.067 0.367672,-0.101 0.566894,-0.101 0.169918,0 0.317867,0.02 0.443848,0.062 0.125972,0.041 0.229976,0.098 0.312011,0.1714 0.08203,0.073 0.143551,0.1611 0.184571,0.2636 0.04101,0.1 0.06152,0.2081 0.06152,0.3252 -4e-6,0.1 -0.01319,0.1949 -0.03955,0.2857 -0.04102,0.1641 -0.117191,0.3076 -0.228515,0.4306 -0.111332,0.1231 -0.243168,0.2315 -0.395508,0.3252 -0.149418,0.091 -0.31348,0.167 -0.492188,0.2286 -0.175784,0.061 -0.35303,0.1128 -0.531738,0.1538 -0.175784,0.041 -0.345705,0.073 -0.509765,0.097 -0.164065,0.021 -0.306155,0.037 -0.42627,0.048 -0.02637,0.053 -0.04981,0.1201 -0.07031,0.2021 -0.01758,0.079 -0.02637,0.1568 -0.02637,0.2329 -1e-6,0.17 0.06738,0.3018 0.202149,0.3956 0.134763,0.094 0.320798,0.1406 0.558105,0.1406 0.137693,0 0.269529,-0.015 0.395508,-0.044 0.125974,-0.032 0.244626,-0.072 0.355957,-0.1186 0.114255,-0.05 0.221188,-0.1026 0.320801,-0.1582 0.09961,-0.059 0.190426,-0.1157 0.272461,-0.1714 0.105465,-0.07 0.205074,-0.1289 0.298828,-0.1758 0.09668,-0.05 0.181636,-0.075 0.254883,-0.075 0.07324,0 0.120112,0.019 0.140625,0.057 0.0205,0.035 0.03076,0.073 0.03076,0.1143 -4e-6,0.023 -0.0015,0.047 -0.0044,0.07 -5e-6,0.02 -0.0015,0.038 -0.0044,0.053 -0.01465,0.076 -0.04395,0.1524 -0.08789,0.2286 -0.04395,0.076 -0.09961,0.142 -0.166992,0.1977 -0.304692,0.2402 -0.618168,0.4116 -0.94043,0.5142 -0.319339,0.1025 -0.660647,0.1538 -1.023926,0.1538 -0.07031,0 -0.153811,-0 -0.250488,-0.013 -0.09375,-0.01 -0.191897,-0.026 -0.294434,-0.053 -0.10254,-0.026 -0.203615,-0.065 -0.303222,-0.1143 -0.09961,-0.05 -0.188967,-0.1157 -0.268067,-0.1978 -0.07617,-0.082 -0.139161,-0.1831 -0.188965,-0.3032 -0.04688,-0.1201 -0.07031,-0.2651 -0.07031,-0.435 -10e-7,-0.1377 0.01904,-0.2915 0.05713,-0.4615 -0.03809,-0.01 -0.07471,-0.025 -0.109864,-0.057 -0.03223,-0.035 -0.04834,-0.085 -0.04834,-0.1494 m 2.750976,-1.2173 c 0.0059,-0.015 0.0088,-0.028 0.0088,-0.039 -3e-6,-0.012 -3e-6,-0.025 0,-0.04 -3e-6,-0.079 -0.0293,-0.1377 -0.08789,-0.1758 -0.0586,-0.041 -0.12891,-0.062 -0.210938,-0.062 -0.128909,0 -0.256351,0.034 -0.382324,0.1011 -0.12305,0.067 -0.240237,0.1523 -0.351563,0.2549 -0.1084,0.1 -0.20508,0.208 -0.290039,0.3252 -0.08496,0.1142 -0.150881,0.2182 -0.197754,0.312 0.210936,-0.018 0.404295,-0.045 0.580079,-0.083 0.175778,-0.041 0.328122,-0.091 0.457031,-0.1494 0.131833,-0.062 0.237301,-0.1289 0.316406,-0.2022 0.08203,-0.076 0.134762,-0.1567 0.158203,-0.2417 m -0.509765,-1.1909 0,0"
         style="font-family:MV Boli;-inkscape-font-specification:MV Boli"
         id="path3155" />
    </g>
    <path
       sodipodi:type="star"
       style="fill:#de4542;fill-opacity:1;stroke:none"
       id="path3119-0"
       sodipodi:sides="16"
       sodipodi:cx="-52.890568"
       sodipodi:cy="32.784904"
       sodipodi:r1="18.216162"
       sodipodi:r2="15.198007"
       sodipodi:arg1="0.78539816"
       sodipodi:arg2="0.9817477"
       inkscape:flatsided="false"
       inkscape:rounded="0"
       inkscape:randomized="0"
       d="m -40.009796,45.665676 -4.437212,-0.244091 -1.472536,4.192858 -4.00604,-1.923557 -2.964984,3.31018 -2.964984,-3.31018 -4.006039,1.923557 -1.472537,-4.192858 -4.437211,0.244091 0.244091,-4.437211 -4.192859,-1.472537 1.923558,-4.006039 -3.310181,-2.964984 3.310181,-2.964984 -1.923558,-4.00604 4.192859,-1.472537 -0.244091,-4.437211 4.437211,0.244091 1.472537,-4.192858 4.006039,1.923557 2.964984,-3.31018 2.964984,3.31018 4.006039,-1.923558 1.472537,4.192859 4.437212,-0.244091 -0.244091,4.437211 4.192858,1.472537 -1.923558,4.006039 3.310181,2.964984 -3.310181,2.964984 1.923558,4.00604 -4.192858,1.472537 z"
       transform="matrix(0.65875568,0,0,0.65875568,82.841962,967.76494)" />
    <path
       style="font-size:11.01269627px;font-style:normal;font-variant:normal;font-weight:bold;font-stretch:normal;line-height:125%;letter-spacing:-0.58904916px;word-spacing:0px;fill:#ffffff;fill-opacity:1;stroke:none;font-family:Gill Sans MT Condensed;-inkscape-font-specification:'Gill Sans MT Condensed, Bold'"
       d="m 41.75,986.11218 0,6.40625 1.0625,0 -0.0625,-4.625 0.03125,-0.0312 1.0625,2.125 0.1875,0 1.0625,-2.125 0.03125,0.0312 -0.0625,4.625 1.0625,0 0,-6.40625 -0.9375,0 -1.25,2.34375 -1.25,-2.34375 -0.9375,0 z m 5.125,0 0,6.40625 1.09375,0 0,-6.40625 -1.09375,0 z m 1.8125,0 0,4.84375 c -10e-7,0.49398 0.173642,0.87798 0.53125,1.1875 0.357605,0.30953 0.805283,0.46875 1.34375,0.46875 0.505578,0 0.938448,-0.14045 1.3125,-0.4375 0.374043,-0.29706 0.562495,-0.7497 0.5625,-1.3125 l 0,-4.75 -1.0625,0 0,4.84375 c -3e-6,0.27821 -0.102029,0.50311 -0.25,0.65625 -0.147977,0.15311 -0.328209,0.25 -0.5625,0.25 -0.530246,0 -0.781252,-0.32787 -0.78125,-0.9375 l 0,-4.8125 -1.09375,0 z m 4.46875,0 0,6.40625 1.09375,0 0,-6.40625 -1.09375,0 z"
       id="path3247"
       inkscape:connector-curvature="0" />
    <g
       style="font-size:4px;font-style:normal;font-variant:normal;font-weight:normal;font-stretch:normal;line-height:125%;letter-spacing:0px;word-spacing:0px;fill:#000000;fill-opacity:1;stroke:none;font-family:Cantarell;-inkscape-font-specification:Cantarell"
       id="text3125">
      <path
         d="m 39.298425,1011.3742 0,1.928 0.332,0 0,-1.928 -0.332,0 m 0,-0.752 0,0.332 0.332,0 0,-0.332 -0.332,0"
         id="path3113"
         style="" />
      <path
         d="m 40.808862,1013.0702 c -0.235999,0 -0.464,-0.048 -0.68,-0.132 l 0,0.292 c 0.176,0.076 0.412001,0.112 0.708,0.112 0.296,0 0.508001,-0.088 0.64,-0.256 0.068,-0.084 0.1,-0.192 0.1,-0.296 0,-0.124 -0.028,-0.216 -0.112,-0.308 -0.072,-0.08 -0.136,-0.144 -0.4,-0.24 l -0.296,-0.108 c -0.088,-0.032 -0.148,-0.064 -0.176,-0.084 -0.068,-0.044 -0.116,-0.076 -0.116,-0.192 0,-0.04 0.02,-0.084 0.064,-0.124 0.104,-0.096 0.240001,-0.124 0.416,-0.124 0.248,0 0.424001,0.112 0.512,0.152 l 0,-0.268 c -0.175999,-0.084 -0.296,-0.136 -0.54,-0.14 l -0.016,0 c -0.143999,0 -0.28,0.024 -0.404,0.072 -0.191999,0.076 -0.364,0.212 -0.364,0.476 0,0.304 0.260001,0.4 0.416,0.472 l 0.3,0.116 c 0.096,0.036 0.196001,0.084 0.26,0.128 0.076,0.052 0.112,0.108 0.112,0.184 0,0.192 -0.212,0.268 -0.424,0.268"
         id="path3115"
         style="" />
      <path
         d="m 44.457987,1013.2102 0,0.056 c 0,0.124 0,0.22 -0.008,0.276 -0.04,0.348 -0.264,0.56 -0.668,0.56 -0.139999,0 -0.292,-0.04 -0.46,-0.1 l -0.088,0.232 c 0.16,0.072 0.400001,0.128 0.588,0.128 0.296,0 0.544001,-0.092 0.7,-0.24 0.192,-0.184 0.268,-0.368 0.268,-0.728 l 0,-2.02 -0.236,0 -0.04,0.112 -0.092,-0.04 c -0.159999,-0.072 -0.312,-0.108 -0.456,-0.108 -0.111999,0 -0.22,0.02 -0.324,0.064 -0.351999,0.148 -0.58,0.476 -0.58,0.968 0,0.252 0.064,0.448 0.176,0.612 0.148,0.216 0.376001,0.356 0.708,0.356 0.192,0 0.348001,-0.04 0.512,-0.128 m -1.064,-0.884 c 0,-0.42 0.200001,-0.724 0.616,-0.724 0.132,0 0.280001,0.032 0.448,0.1 l 0,1.268 c -0.123999,0.068 -0.264,0.108 -0.432,0.108 -0.419999,0 -0.632,-0.336 -0.632,-0.752"
         id="path3117"
         style="" />
      <path
         d="m 45.368737,1011.3742 0,1.928 0.332,0 0,-1.928 -0.332,0 m 0,-0.752 0,0.332 0.332,0 0,-0.332 -0.332,0"
         id="path3121"
         style="" />
      <path
         d="m 47.895175,1011.3742 -0.34,0 -0.536,1.508 -0.016,0.104 -0.02,-0.104 -0.532,-1.508 -0.356,0 0.72,1.928 0.36,0 0.72,-1.928"
         id="path3123"
         style="" />
      <path
         d="m 49.0628,1011.3422 c -0.28,0 -0.496,0.1 -0.652,0.3 -0.148,0.2 -0.216,0.44 -0.216,0.728 0,0.624 0.336001,0.968 0.964,0.968 0.216,0 0.424,-0.036 0.62,-0.104 l 0,-0.26 c -0.188,0.06 -0.364,0.096 -0.532,0.096 -0.244,0 -0.436,-0.06 -0.548,-0.18 -0.112,-0.12 -0.184,-0.276 -0.188,-0.46 l 1.324,0 0.02,-0.032 0,-0.176 c 0,-0.556 -0.284001,-0.88 -0.792,-0.88 m 0.464,0.836 -1.008,0 c 0.036,-0.308 0.2,-0.58 0.572,-0.58 0.3,0 0.436,0.264 0.436,0.58"
         id="path3125"
         style="" />
      <path
         d="m 51.609675,1012.0742 0,1.228 0.332,0 0,-1.308 c 0,-0.408 -0.216,-0.66 -0.632,-0.66 -0.204,0 -0.44,0.064 -0.684,0.192 l -0.064,-0.152 -0.232,0 0,1.928 0.332,0 0,-1.552 c 0.196,-0.092 0.38,-0.14 0.532,-0.14 0.312,0 0.416,0.144 0.416,0.464"
         id="path3127"
         style="" />
      <path
         d="m 54.235862,1013.3382 c 0.136,0 0.276001,-0.024 0.424,-0.072 l 0,-0.244 c -0.103999,0.028 -0.212,0.044 -0.328,0.044 -0.247999,0 -0.304,-0.132 -0.304,-0.388 l 0,-1.036 0.632,0 0,-0.272 -0.632,0 0,-0.496 -0.332,0.016 0,0.48 -0.324,0 0,0.272 0.324,0 0,1.06 c 0,0.408 0.140001,0.636 0.54,0.636"
         id="path3129"
         style="" />
      <path
         d="m 55.927675,1011.5982 c 0.392,0 0.596,0.332 0.596,0.744 0,0.412 -0.2,0.74 -0.596,0.74 -0.392,0 -0.596,-0.332 -0.596,-0.74 0,-0.408 0.208,-0.744 0.596,-0.744 m -0.008,1.744 c 0.591999,0 0.944,-0.404 0.944,-1.004 0,-0.604 -0.336001,-0.996 -0.932,-0.996 -0.591999,0 -0.94,0.396 -0.94,1 0,0.6 0.336001,1 0.928,1"
         id="path3131"
         style="" />
    </g>
    <rect
       style="fill:#f7e3ce;fill-opacity:1;stroke:none"
       id="rect3129"
       width="46"
       height="1"
       x="25"
       y="1021.3622"
       rx="0"
       ry="0" />
    <g
       style="font-size:3.46744394px;font-style:normal;font-variant:normal;font-weight:normal;font-stretch:normal;line-height:125%;letter-spacing:0px;word-spacing:0px;fill:#000000;fill-opacity:1;stroke:none;font-family:Cantarell;-inkscape-font-specification:Cantarell"
       id="text3131">
      <path
         d="m 19.117493,1024.3126 c 0.07628,0 0.16297,0.017 0.27046,0.049 l 0.04508,-0.208 c -0.117893,-0.035 -0.260058,-0.062 -0.402224,-0.062 -0.235786,0 -0.405691,0.087 -0.506246,0.2601 -0.03468,0.062 -0.05201,0.1699 -0.05201,0.3155 l 0,0.1699 -0.242721,0 0,0.2185 0.246188,0 0,1.4528 0.287798,0 0,-1.4528 0.547856,0 0,-0.2185 -0.551323,0 0,-0.1595 c 0,-0.045 0.0035,-0.09 0.0069,-0.1144 0.0208,-0.1387 0.152567,-0.2496 0.350212,-0.2496"
         id="path3078"
         style="" />
      <path
         d="m 20.353528,1025.0303 c 0.339809,0 0.516649,0.2878 0.516649,0.645 0,0.3571 -0.173373,0.6414 -0.516649,0.6414 -0.339809,0 -0.516649,-0.2878 -0.516649,-0.6414 0,-0.3537 0.180307,-0.645 0.516649,-0.645 m -0.0069,1.5118 c 0.513181,0 0.818317,-0.3502 0.818317,-0.8703 0,-0.5236 -0.291266,-0.8634 -0.807915,-0.8634 -0.513181,0 -0.814849,0.3433 -0.814849,0.8669 0,0.5201 0.291266,0.8668 0.804447,0.8668"
         id="path3080"
         style="" />
      <path
         d="m 22.303802,1024.8084 c -0.162969,0 -0.315537,0.056 -0.464637,0.1699 l -0.05548,-0.1387 -0.208047,0 0,1.6678 0.287798,0 0,-1.328 c 0.121361,-0.08 0.246189,-0.1213 0.357147,-0.1213 0.10749,0 0.190709,0.021 0.277395,0.055 l 0.03468,0 0,-0.2739 c -0.07282,-0.021 -0.1491,-0.031 -0.228852,-0.031"
         id="path3082"
         style="" />
      <path
         d="m 24.933967,1025.4325 0,1.0749 0.287798,0 0,-1.1407 c 0,-0.3537 -0.197645,-0.5791 -0.547856,-0.5791 -0.173372,0 -0.357147,0.052 -0.558259,0.1526 l 0,-0.7559 -0.287797,0 0,2.3231 0.287797,0 0,-1.3557 c 0.169905,-0.083 0.319005,-0.1249 0.450768,-0.1249 0.273928,0 0.367549,0.1283 0.367549,0.4057"
         id="path3084"
         style="" />
      <path
         d="m 25.686457,1024.8361 0,1.6713 0.287798,0 0,-1.6713 -0.287798,0 m 0,-0.6518 0,0.2878 0.287798,0 0,-0.2878 -0.287798,0"
         id="path3086"
         style="" />
      <path
         d="m 26.995796,1026.3063 c -0.204579,0 -0.402224,-0.042 -0.589465,-0.1144 l 0,0.2531 c 0.152567,0.066 0.357147,0.097 0.613737,0.097 0.256591,0 0.440366,-0.076 0.554791,-0.2219 0.05895,-0.073 0.08669,-0.1664 0.08669,-0.2566 0,-0.1075 -0.02427,-0.1872 -0.09709,-0.267 -0.06241,-0.069 -0.117893,-0.1248 -0.346744,-0.208 l -0.256591,-0.094 c -0.07628,-0.028 -0.128296,-0.055 -0.152568,-0.073 -0.05895,-0.038 -0.100556,-0.066 -0.100556,-0.1664 0,-0.035 0.01734,-0.073 0.05548,-0.1075 0.09015,-0.083 0.208047,-0.1075 0.360615,-0.1075 0.214981,0 0.367549,0.097 0.443832,0.1318 l 0,-0.2323 c -0.152567,-0.073 -0.256591,-0.1179 -0.468105,-0.1214 l -0.01387,0 c -0.124828,0 -0.242722,0.021 -0.350212,0.062 -0.166437,0.066 -0.315538,0.1838 -0.315538,0.4126 0,0.2636 0.225384,0.3468 0.360615,0.4092 l 0.260058,0.1006 c 0.08322,0.031 0.169905,0.073 0.225384,0.1109 0.06588,0.045 0.09709,0.094 0.09709,0.1595 0,0.1665 -0.183775,0.2323 -0.367549,0.2323"
         id="path3088"
         style="" />
      <path
         d="m 28.742846,1024.101 -0.839122,2.559 0.287798,0 0.839122,-2.559 -0.287798,0"
         id="path3090"
         style="" />
      <path
         d="m 30.426344,1025.4325 0,1.0749 0.287798,0 0,-1.1407 c 0,-0.3537 -0.197645,-0.5791 -0.547856,-0.5791 -0.173372,0 -0.357147,0.052 -0.558259,0.1526 l 0,-0.7559 -0.287798,0 0,2.3231 0.287798,0 0,-1.3557 c 0.169905,-0.083 0.319005,-0.1249 0.450768,-0.1249 0.273928,0 0.367549,0.1283 0.367549,0.4057"
         id="path3092"
         style="" />
      <path
         d="m 31.854985,1024.8084 c -0.242721,0 -0.429963,0.087 -0.565193,0.2601 -0.128296,0.1733 -0.187242,0.3814 -0.187242,0.631 0,0.541 0.291266,0.8392 0.835654,0.8392 0.187241,0 0.367549,-0.031 0.537454,-0.09 l 0,-0.2254 c -0.16297,0.052 -0.315538,0.083 -0.461171,0.083 -0.211513,0 -0.377951,-0.052 -0.475039,-0.156 -0.09709,-0.104 -0.159503,-0.2393 -0.16297,-0.3988 l 1.147724,0 0.01734,-0.028 0,-0.1526 c 0,-0.4819 -0.246189,-0.7628 -0.686554,-0.7628 m 0.402224,0.7247 -0.873796,0 c 0.03121,-0.267 0.173372,-0.5028 0.495844,-0.5028 0.260058,0 0.377952,0.2289 0.377952,0.5028"
         id="path3094"
         style="" />
      <path
         d="m 33.681353,1024.8084 c -0.16297,0 -0.315538,0.056 -0.464638,0.1699 l -0.05548,-0.1387 -0.208047,0 0,1.6678 0.287798,0 0,-1.328 c 0.121361,-0.08 0.246189,-0.1213 0.357147,-0.1213 0.107491,0 0.190709,0.021 0.277395,0.055 l 0.03468,0 0,-0.2739 c -0.07282,-0.021 -0.1491,-0.031 -0.228851,-0.031"
         id="path3096"
         style="" />
      <path
         d="m 35.853815,1025.0407 c 0.364081,0 0.544389,0.2635 0.544389,0.638 0,0.371 -0.19071,0.6484 -0.547856,0.6484 -0.128296,0 -0.253124,-0.028 -0.374484,-0.08 l 0,-1.1027 c 0.117893,-0.066 0.208047,-0.104 0.377951,-0.104 m -0.377951,2.3717 0,-0.9431 c 0.131763,0.055 0.266993,0.083 0.402223,0.083 0.228851,0 0.419561,-0.08 0.572129,-0.2288 0.159502,-0.1561 0.242721,-0.3814 0.242721,-0.6692 0,-0.3468 -0.121361,-0.5895 -0.35368,-0.7386 -0.117893,-0.073 -0.256591,-0.111 -0.423028,-0.111 -0.166437,0 -0.322472,0.052 -0.471572,0.1491 l -0.05201,-0.1179 -0.204579,0 0,2.5763 0.287798,0"
         id="path3098"
         style="" />
      <path
         d="m 37.669834,1025.0511 c 0.208046,0 0.332875,0.066 0.381419,0.1977 0.0208,0.055 0.03121,0.1387 0.03121,0.26 l 0,0.014 c -0.256591,0.01 -0.464638,0.031 -0.631075,0.073 -0.218449,0.059 -0.409159,0.2185 -0.409159,0.4959 0,0.2704 0.246189,0.4577 0.537454,0.4577 0.187242,0 0.357147,-0.069 0.513182,-0.1977 l 0.06241,0.156 0.214982,0 0,-1.0853 c 0,-0.2739 -0.05895,-0.3987 -0.235787,-0.5166 -0.09362,-0.062 -0.239253,-0.094 -0.43343,-0.094 -0.194177,0 -0.381419,0.035 -0.561726,0.104 l 0,0.2254 c 0.142165,-0.049 0.388354,-0.09 0.530519,-0.09 m -0.04854,1.2726 c -0.04161,0 -0.08322,-0.01 -0.114426,-0.021 -0.09709,-0.045 -0.183775,-0.1283 -0.183775,-0.2462 0,-0.042 0.01387,-0.08 0.03814,-0.1214 0.05548,-0.09 0.149101,-0.1456 0.277396,-0.1734 0.06935,-0.014 0.214982,-0.024 0.443833,-0.031 l 0,0.3988 c -0.121361,0.1179 -0.260059,0.1942 -0.46117,0.1942"
         id="path3100"
         style="" />
      <path
         d="m 39.566526,1024.8084 c -0.162969,0 -0.315537,0.056 -0.464637,0.1699 l -0.05548,-0.1387 -0.208047,0 0,1.6678 0.287798,0 0,-1.328 c 0.12136,-0.08 0.246189,-0.1213 0.357147,-0.1213 0.10749,0 0.190709,0.021 0.277395,0.055 l 0.03468,0 0,-0.2739 c -0.07282,-0.021 -0.1491,-0.031 -0.228852,-0.031"
         id="path3102"
         style="" />
      <path
         d="m 40.700706,1026.5387 c 0.117893,0 0.239254,-0.021 0.367549,-0.062 l 0,-0.2115 c -0.09015,0.024 -0.183775,0.038 -0.284331,0.038 -0.214981,0 -0.263525,-0.1145 -0.263525,-0.3364 l 0,-0.898 0.547856,0 0,-0.2358 -0.547856,0 0,-0.43 -0.287798,0.014 0,0.4161 -0.280863,0 0,0.2358 0.280863,0 0,0.9188 c 0,0.3537 0.121361,0.5514 0.468105,0.5514"
         id="path3104"
         style="" />
      <path
         d="m 41.432174,1024.8361 0,1.6713 0.287798,0 0,-1.6713 -0.287798,0 m 0,-0.6518 0,0.2878 0.287798,0 0,-0.2878 -0.287798,0"
         id="path3106"
         style="" />
      <path
         d="m 42.942625,1026.5421 0.01734,0 c 0.159502,0 0.308603,-0.031 0.468105,-0.097 l -0.06588,-0.1907 c -0.107491,0.038 -0.225384,0.059 -0.319005,0.059 -0.02774,0 -0.05201,0 -0.07628,-0 -0.371016,-0.045 -0.544389,-0.2497 -0.544389,-0.6588 0,-0.3918 0.194178,-0.6103 0.592933,-0.6103 0.100556,0 0.221917,0.021 0.350212,0.066 l 0.06935,-0.2011 c -0.152567,-0.066 -0.2982,-0.1006 -0.433431,-0.1006 -0.291265,0 -0.506246,0.08 -0.648412,0.2497 -0.13523,0.163 -0.218449,0.3779 -0.218449,0.6449 0,0.5306 0.291266,0.8426 0.807915,0.8426"
         id="path3108"
         style="" />
      <path
         d="m 43.795724,1024.8361 0,1.6713 0.287798,0 0,-1.6713 -0.287798,0 m 0,-0.6518 0,0.2878 0.287798,0 0,-0.2878 -0.287798,0"
         id="path3110"
         style="" />
      <path
         d="m 45.240294,1025.0407 c 0.364081,0 0.544388,0.2635 0.544388,0.638 0,0.371 -0.190709,0.6484 -0.547856,0.6484 -0.128295,0 -0.253123,-0.028 -0.374484,-0.08 l 0,-1.1027 c 0.117893,-0.066 0.208047,-0.104 0.377952,-0.104 m -0.377952,2.3717 0,-0.9431 c 0.131763,0.055 0.266994,0.083 0.402224,0.083 0.228851,0 0.419561,-0.08 0.572128,-0.2288 0.159502,-0.1561 0.242721,-0.3814 0.242721,-0.6692 0,-0.3468 -0.121361,-0.5895 -0.353679,-0.7386 -0.117893,-0.073 -0.256591,-0.111 -0.423028,-0.111 -0.166437,0 -0.322473,0.052 -0.471573,0.1491 l -0.05201,-0.1179 -0.20458,0 0,2.5763 0.287798,0"
         id="path3112"
         style="" />
      <path
         d="m 47.056314,1025.0511 c 0.208047,0 0.332875,0.066 0.381419,0.1977 0.0208,0.055 0.03121,0.1387 0.03121,0.26 l 0,0.014 c -0.256591,0.01 -0.464638,0.031 -0.631075,0.073 -0.218449,0.059 -0.409158,0.2185 -0.409158,0.4959 0,0.2704 0.246189,0.4577 0.537454,0.4577 0.187241,0 0.357147,-0.069 0.513181,-0.1977 l 0.06241,0.156 0.214982,0 0,-1.0853 c 0,-0.2739 -0.05895,-0.3987 -0.235786,-0.5166 -0.09362,-0.062 -0.239254,-0.094 -0.433431,-0.094 -0.194176,0 -0.381419,0.035 -0.561726,0.104 l 0,0.2254 c 0.142165,-0.049 0.388354,-0.09 0.530519,-0.09 m -0.04854,1.2726 c -0.04161,0 -0.08322,-0.01 -0.114426,-0.021 -0.09709,-0.045 -0.183774,-0.1283 -0.183774,-0.2462 0,-0.042 0.01387,-0.08 0.03814,-0.1214 0.05548,-0.09 0.1491,-0.1456 0.277395,-0.1734 0.06935,-0.014 0.214982,-0.024 0.443833,-0.031 l 0,0.3988 c -0.12136,0.1179 -0.260058,0.1942 -0.46117,0.1942"
         id="path3114"
         style="" />
      <path
         d="m 48.800437,1026.5387 c 0.117893,0 0.239254,-0.021 0.367549,-0.062 l 0,-0.2115 c -0.09015,0.024 -0.183774,0.038 -0.28433,0.038 -0.214981,0 -0.263526,-0.1145 -0.263526,-0.3364 l 0,-0.898 0.547856,0 0,-0.2358 -0.547856,0 0,-0.43 -0.287798,0.014 0,0.4161 -0.280863,0 0,0.2358 0.280863,0 0,0.9188 c 0,0.3537 0.121361,0.5514 0.468105,0.5514"
         id="path3116"
         style="" />
      <path
         d="m 49.531906,1024.8361 0,1.6713 0.287797,0 0,-1.6713 -0.287797,0 m 0,-0.6518 0,0.2878 0.287797,0 0,-0.2878 -0.287797,0"
         id="path3118"
         style="" />
      <path
         d="m 51.045824,1025.0303 c 0.339809,0 0.516649,0.2878 0.516649,0.645 0,0.3571 -0.173373,0.6414 -0.516649,0.6414 -0.339809,0 -0.516649,-0.2878 -0.516649,-0.6414 0,-0.3537 0.180307,-0.645 0.516649,-0.645 m -0.0069,1.5118 c 0.513181,0 0.818317,-0.3502 0.818317,-0.8703 0,-0.5236 -0.291266,-0.8634 -0.807915,-0.8634 -0.513181,0 -0.814849,0.3433 -0.814849,0.8669 0,0.5201 0.291266,0.8668 0.804447,0.8668"
         id="path3120"
         style="" />
      <path
         d="m 53.377516,1025.4429 0,1.0645 0.287798,0 0,-1.1338 c 0,-0.3537 -0.187242,-0.5721 -0.547856,-0.5721 -0.176839,0 -0.381419,0.055 -0.592933,0.1664 l -0.05548,-0.1318 -0.201112,0 0,1.6713 0.287798,0 0,-1.3453 c 0.169905,-0.08 0.329407,-0.1214 0.46117,-0.1214 0.270461,0 0.360614,0.1248 0.360614,0.4022"
         id="path3122"
         style="" />
      <path
         d="m 55.078462,1024.8361 0,1.6713 0.287798,0 0,-1.6713 -0.287798,0 m 0,-0.6518 0,0.2878 0.287798,0 0,-0.2878 -0.287798,0"
         id="path3124"
         style="" />
      <path
         d="m 56.966864,1025.4429 0,1.0645 0.287798,0 0,-1.1338 c 0,-0.3537 -0.187242,-0.5721 -0.547856,-0.5721 -0.17684,0 -0.381419,0.055 -0.592933,0.1664 l -0.05548,-0.1318 -0.201112,0 0,1.6713 0.287798,0 0,-1.3453 c 0.169905,-0.08 0.329407,-0.1214 0.46117,-0.1214 0.27046,0 0.360614,0.1248 0.360614,0.4022"
         id="path3126"
         style="" />
      <path
         d="m 59.243402,1026.5387 c 0.117893,0 0.239254,-0.021 0.367549,-0.062 l 0,-0.2115 c -0.09015,0.024 -0.183775,0.038 -0.284331,0.038 -0.214981,0 -0.263525,-0.1145 -0.263525,-0.3364 l 0,-0.898 0.547856,0 0,-0.2358 -0.547856,0 0,-0.43 -0.287798,0.014 0,0.4161 -0.280863,0 0,0.2358 0.280863,0 0,0.9188 c 0,0.3537 0.121361,0.5514 0.468105,0.5514"
         id="path3128"
         style="" />
      <path
         d="m 61.098322,1025.4325 0,1.0749 0.287798,0 0,-1.1407 c 0,-0.3537 -0.197645,-0.5791 -0.547856,-0.5791 -0.173372,0 -0.357147,0.052 -0.558259,0.1526 l 0,-0.7559 -0.287798,0 0,2.3231 0.287798,0 0,-1.3557 c 0.169905,-0.083 0.319005,-0.1249 0.450768,-0.1249 0.273928,0 0.367549,0.1283 0.367549,0.4057"
         id="path3130"
         style="" />
      <path
         d="m 62.526964,1024.8084 c -0.242721,0 -0.429963,0.087 -0.565193,0.2601 -0.128296,0.1733 -0.187242,0.3814 -0.187242,0.631 0,0.541 0.291265,0.8392 0.835654,0.8392 0.187241,0 0.367549,-0.031 0.537453,-0.09 l 0,-0.2254 c -0.162969,0.052 -0.315537,0.083 -0.46117,0.083 -0.211513,0 -0.377951,-0.052 -0.475039,-0.156 -0.09709,-0.104 -0.159503,-0.2393 -0.16297,-0.3988 l 1.147724,0 0.01734,-0.028 0,-0.1526 c 0,-0.4819 -0.246189,-0.7628 -0.686554,-0.7628 m 0.402223,0.7247 -0.873795,0 c 0.03121,-0.267 0.173372,-0.5028 0.495844,-0.5028 0.260058,0 0.377951,0.2289 0.377951,0.5028"
         id="path3132"
         style="" />
      <path
         d="m 65.304928,1026.5421 0.01734,0 c 0.159502,0 0.308603,-0.031 0.468105,-0.097 l -0.06588,-0.1907 c -0.10749,0.038 -0.225384,0.059 -0.319004,0.059 -0.02774,0 -0.05201,0 -0.07628,-0 -0.371016,-0.045 -0.544389,-0.2497 -0.544389,-0.6588 0,-0.3918 0.194177,-0.6103 0.592933,-0.6103 0.100556,0 0.221917,0.021 0.350212,0.066 l 0.06935,-0.2011 c -0.152568,-0.066 -0.298201,-0.1006 -0.433431,-0.1006 -0.291265,0 -0.506247,0.08 -0.648412,0.2497 -0.13523,0.163 -0.218449,0.3779 -0.218449,0.6449 0,0.5306 0.291266,0.8426 0.807915,0.8426"
         id="path3134"
         style="" />
      <path
         d="m 66.893127,1025.0303 c 0.339809,0 0.516649,0.2878 0.516649,0.645 0,0.3571 -0.173372,0.6414 -0.516649,0.6414 -0.339809,0 -0.516649,-0.2878 -0.516649,-0.6414 0,-0.3537 0.180307,-0.645 0.516649,-0.645 m -0.0069,1.5118 c 0.513181,0 0.818317,-0.3502 0.818317,-0.8703 0,-0.5236 -0.291266,-0.8634 -0.807914,-0.8634 -0.513182,0 -0.81485,0.3433 -0.81485,0.8669 0,0.5201 0.291266,0.8668 0.804447,0.8668"
         id="path3136"
         style="" />
      <path
         d="m 69.224822,1025.4429 0,1.0645 0.287798,0 0,-1.1338 c 0,-0.3537 -0.187243,-0.5721 -0.547857,-0.5721 -0.176839,0 -0.381419,0.055 -0.592933,0.1664 l -0.05548,-0.1318 -0.201111,0 0,1.6713 0.287797,0 0,-1.3453 c 0.169905,-0.08 0.329408,-0.1214 0.461171,-0.1214 0.27046,0 0.360614,0.1248 0.360614,0.4022"
         id="path3138"
         style="" />
      <path
         d="m 71.11149,1026.4277 0,0.049 c 0,0.1075 0,0.1907 -0.0069,0.2393 -0.03467,0.3017 -0.228852,0.4854 -0.579063,0.4854 -0.12136,0 -0.253124,-0.035 -0.398756,-0.087 l -0.07628,0.2012 c 0.138698,0.062 0.346745,0.1109 0.509714,0.1109 0.256591,0 0.471573,-0.08 0.606803,-0.208 0.166437,-0.1595 0.232319,-0.319 0.232319,-0.6311 l 0,-1.7511 -0.204579,0 -0.03468,0.097 -0.07975,-0.035 c -0.138698,-0.062 -0.270461,-0.094 -0.395289,-0.094 -0.09709,0 -0.190709,0.017 -0.280863,0.055 -0.305134,0.1283 -0.502779,0.4126 -0.502779,0.8391 0,0.2185 0.05548,0.3884 0.152568,0.5306 0.128295,0.1872 0.32594,0.3086 0.613737,0.3086 0.166437,0 0.301668,-0.035 0.443833,-0.111 m -0.92234,-0.7663 c 0,-0.3641 0.173372,-0.6276 0.533986,-0.6276 0.114426,0 0.242722,0.028 0.388354,0.087 l 0,1.0991 c -0.107491,0.059 -0.228851,0.094 -0.374484,0.094 -0.364081,0 -0.547856,-0.2913 -0.547856,-0.6519"
         id="path3140"
         style="" />
      <path
         d="m 72.629147,1024.8084 c -0.16297,0 -0.315538,0.056 -0.464638,0.1699 l -0.05548,-0.1387 -0.208047,0 0,1.6678 0.287798,0 0,-1.328 c 0.121361,-0.08 0.246189,-0.1213 0.357147,-0.1213 0.107491,0 0.190709,0.021 0.277395,0.055 l 0.03467,0 0,-0.2739 c -0.07282,-0.021 -0.1491,-0.031 -0.228851,-0.031"
         id="path3142"
         style="" />
      <path
         d="m 73.863882,1024.8084 c -0.242721,0 -0.429963,0.087 -0.565193,0.2601 -0.128296,0.1733 -0.187242,0.3814 -0.187242,0.631 0,0.541 0.291265,0.8392 0.835654,0.8392 0.187241,0 0.367549,-0.031 0.537453,-0.09 l 0,-0.2254 c -0.162969,0.052 -0.315537,0.083 -0.46117,0.083 -0.211514,0 -0.377951,-0.052 -0.47504,-0.156 -0.09709,-0.104 -0.159502,-0.2393 -0.162969,-0.3988 l 1.147724,0 0.01734,-0.028 0,-0.1526 c 0,-0.4819 -0.246189,-0.7628 -0.686554,-0.7628 m 0.402223,0.7247 -0.873795,0 c 0.03121,-0.267 0.173372,-0.5028 0.495844,-0.5028 0.260058,0 0.377951,0.2289 0.377951,0.5028"
         id="path3144"
         style="" />
      <path
         d="m 75.492606,1026.3063 c -0.204579,0 -0.402224,-0.042 -0.589465,-0.1144 l 0,0.2531 c 0.152567,0.066 0.357147,0.097 0.613737,0.097 0.256591,0 0.440366,-0.076 0.554791,-0.2219 0.05895,-0.073 0.08669,-0.1664 0.08669,-0.2566 0,-0.1075 -0.02427,-0.1872 -0.09709,-0.267 -0.06241,-0.069 -0.117893,-0.1248 -0.346745,-0.208 l -0.25659,-0.094 c -0.07628,-0.028 -0.128296,-0.055 -0.152568,-0.073 -0.05895,-0.038 -0.100556,-0.066 -0.100556,-0.1664 0,-0.035 0.01734,-0.073 0.05548,-0.1075 0.09015,-0.083 0.208047,-0.1075 0.360614,-0.1075 0.214982,0 0.36755,0.097 0.443833,0.1318 l 0,-0.2323 c -0.152567,-0.073 -0.256591,-0.1179 -0.468105,-0.1214 l -0.01387,0 c -0.124828,0 -0.242722,0.021 -0.350212,0.062 -0.166437,0.066 -0.315538,0.1838 -0.315538,0.4126 0,0.2636 0.225384,0.3468 0.360615,0.4092 l 0.260058,0.1006 c 0.08322,0.031 0.169905,0.073 0.225384,0.1109 0.06588,0.045 0.09709,0.094 0.09709,0.1595 0,0.1665 -0.183775,0.2323 -0.367549,0.2323"
         id="path3146"
         style="" />
      <path
         d="m 77.104422,1026.3063 c -0.204579,0 -0.402223,-0.042 -0.589465,-0.1144 l 0,0.2531 c 0.152567,0.066 0.357147,0.097 0.613738,0.097 0.25659,0 0.440365,-0.076 0.554791,-0.2219 0.05895,-0.073 0.08669,-0.1664 0.08669,-0.2566 0,-0.1075 -0.02427,-0.1872 -0.09709,-0.267 -0.06241,-0.069 -0.117893,-0.1248 -0.346744,-0.208 l -0.256591,-0.094 c -0.07628,-0.028 -0.128295,-0.055 -0.152567,-0.073 -0.05895,-0.038 -0.100556,-0.066 -0.100556,-0.1664 0,-0.035 0.01734,-0.073 0.05548,-0.1075 0.09015,-0.083 0.208047,-0.1075 0.360614,-0.1075 0.214981,0 0.367549,0.097 0.443833,0.1318 l 0,-0.2323 c -0.152568,-0.073 -0.256591,-0.1179 -0.468105,-0.1214 l -0.01387,0 c -0.124828,0 -0.242721,0.021 -0.350212,0.062 -0.166437,0.066 -0.315537,0.1838 -0.315537,0.4126 0,0.2636 0.225384,0.3468 0.360614,0.4092 l 0.260058,0.1006 c 0.08322,0.031 0.169905,0.073 0.225384,0.1109 0.06588,0.045 0.09709,0.094 0.09709,0.1595 0,0.1665 -0.183775,0.2323 -0.36755,0.2323"
         id="path3148"
         style="" />
    </g>
  </g>
</svg>
