<?xml version="1.0" encoding="UTF-8" standalone="no"?>
<!-- Created with Inkscape (http://www.inkscape.org/) -->

<svg
   xmlns:dc="http://purl.org/dc/elements/1.1/"
   xmlns:cc="http://creativecommons.org/ns#"
   xmlns:rdf="http://www.w3.org/1999/02/22-rdf-syntax-ns#"
   xmlns:svg="http://www.w3.org/2000/svg"
   xmlns="http://www.w3.org/2000/svg"
   xmlns:xlink="http://www.w3.org/1999/xlink"
   xmlns:sodipodi="http://sodipodi.sourceforge.net/DTD/sodipodi-0.dtd"
   xmlns:inkscape="http://www.inkscape.org/namespaces/inkscape"
   width="96"
   height="96"
   id="svg2"
   version="1.1"
   inkscape:version="0.48.4 r9939"
   sodipodi:docname="text-x-generic.svg">
  <defs
     id="defs4">
    <linearGradient
       inkscape:collect="always"
       id="linearGradient3090">
      <stop
         style="stop-color:#000000;stop-opacity:0.1"
         offset="0"
         id="stop3092" />
      <stop
         style="stop-color:#000000;stop-opacity:0"
         offset="1"
         id="stop3094" />
    </linearGradient>
    <linearGradient
       inkscape:collect="always"
       id="linearGradient3075">
      <stop
         style="stop-color:#cfcfcf;stop-opacity:1"
         offset="0"
         id="stop3077" />
      <stop
         style="stop-color:#fafaf9;stop-opacity:0;"
         offset="1"
         id="stop3079" />
    </linearGradient>
    <linearGradient
       inkscape:collect="always"
       id="linearGradient3052">
      <stop
         style="stop-color:#f3f4f2;stop-opacity:1"
         offset="0"
         id="stop3054" />
      <stop
         style="stop-color:#fafafa;stop-opacity:1"
         offset="1"
         id="stop3056" />
    </linearGradient>
    <linearGradient
       id="linearGradient3994"
       inkscape:collect="always">
      <stop
         id="stop3996"
         offset="0"
         style="stop-color:#ff8e31;stop-opacity:1" />
      <stop
         id="stop4004"
         offset="1"
         style="stop-color:#ffb642;stop-opacity:1" />
    </linearGradient>
    <linearGradient
       inkscape:collect="always"
       id="linearGradient3119">
      <stop
         style="stop-color:#92948f;stop-opacity:0"
         offset="0"
         id="stop3121" />
      <stop
         id="stop3123"
         offset="0.4283945"
         style="stop-color:#9b9e98;stop-opacity:1" />
      <stop
         style="stop-color:#939690;stop-opacity:0"
         offset="1"
         id="stop3125" />
    </linearGradient>
    <linearGradient
       id="linearGradient3073"
       inkscape:collect="always">
      <stop
         id="stop3075"
         offset="0"
         style="stop-color:#ffffff;stop-opacity:0" />
      <stop
         style="stop-color:#ffffff;stop-opacity:1"
         offset="0.45872402"
         id="stop3085" />
      <stop
         id="stop3083"
         offset="1"
         style="stop-color:#ffffff;stop-opacity:0" />
    </linearGradient>
    <linearGradient
       inkscape:collect="always"
       id="linearGradient3061">
      <stop
         style="stop-color:#ef9a42;stop-opacity:1"
         offset="0"
         id="stop3063" />
      <stop
         style="stop-color:#f5c262;stop-opacity:1"
         offset="1"
         id="stop3065" />
    </linearGradient>
    <linearGradient
       inkscape:collect="always"
       id="linearGradient3047">
      <stop
         style="stop-color:#000000;stop-opacity:1"
         offset="0"
         id="stop3049" />
      <stop
         id="stop3055"
         offset="0.06123874"
         style="stop-color:#1a1a1a;stop-opacity:1" />
      <stop
         style="stop-color:#333333;stop-opacity:1"
         offset="0.16480456"
         id="stop3057" />
      <stop
         id="stop3059"
         offset="0.55385184"
         style="stop-color:#4d4d4d;stop-opacity:1" />
      <stop
         style="stop-color:#999999;stop-opacity:1"
         offset="1"
         id="stop3051" />
    </linearGradient>
    <linearGradient
       id="linearGradient3041"
       inkscape:collect="always">
      <stop
         id="stop3043"
         offset="0"
         style="stop-color:#1a1a1a;stop-opacity:1" />
      <stop
         id="stop3045"
         offset="1"
         style="stop-color:#808080;stop-opacity:1" />
    </linearGradient>
    <linearGradient
       inkscape:collect="always"
       id="linearGradient3029">
      <stop
         style="stop-color:#333333;stop-opacity:1"
         offset="0"
         id="stop3031" />
      <stop
         style="stop-color:#e0e0dd;stop-opacity:0;"
         offset="1"
         id="stop3033" />
    </linearGradient>
    <linearGradient
       inkscape:collect="always"
       xlink:href="#linearGradient3029"
       id="linearGradient3035"
       x1="35.355339"
       y1="1030.3622"
       x2="35.355339"
       y2="975.33282"
       gradientUnits="userSpaceOnUse"
       gradientTransform="matrix(1.1638085,0,0,1.1638085,-7.862809,-164.23642)" />
    <linearGradient
       inkscape:collect="always"
       xlink:href="#linearGradient3041"
       id="linearGradient3039"
       gradientUnits="userSpaceOnUse"
       x1="35.355339"
       y1="1030.3622"
       x2="35.355339"
       y2="975.33282"
       gradientTransform="matrix(1.1218695,0,0,1.1218695,-5.8497348,-122.18782)" />
    <linearGradient
       inkscape:collect="always"
       xlink:href="#linearGradient3047"
       id="linearGradient3053"
       x1="40"
       y1="1043.4336"
       x2="39.285713"
       y2="972.33325"
       gradientUnits="userSpaceOnUse" />
    <linearGradient
       inkscape:collect="always"
       xlink:href="#linearGradient3061"
       id="linearGradient3067"
       x1="17.67767"
       y1="1046.1118"
       x2="17.67767"
       y2="962.21893"
       gradientUnits="userSpaceOnUse"
       gradientTransform="translate(0,-956.36218)" />
    <linearGradient
       inkscape:collect="always"
       xlink:href="#linearGradient3073"
       id="linearGradient3113"
       gradientUnits="userSpaceOnUse"
       gradientTransform="translate(0,-956.36218)"
       x1="14.869445"
       y1="978.90387"
       x2="24.52651"
       y2="969.24683" />
    <linearGradient
       inkscape:collect="always"
       xlink:href="#linearGradient3073"
       id="linearGradient3115"
       gradientUnits="userSpaceOnUse"
       gradientTransform="matrix(-1,0,0,1,96,-956.36218)"
       x1="15.152279"
       y1="978.62103"
       x2="26.263966"
       y2="967.50934" />
    <linearGradient
       inkscape:collect="always"
       xlink:href="#linearGradient3119"
       id="linearGradient3117"
       gradientUnits="userSpaceOnUse"
       gradientTransform="translate(0,-956.36218)"
       x1="13.131983"
       y1="980.64136"
       x2="25.549681"
       y2="967.86646" />
    <linearGradient
       inkscape:collect="always"
       xlink:href="#linearGradient3119"
       id="linearGradient3129"
       gradientUnits="userSpaceOnUse"
       gradientTransform="matrix(-1,0,0,1,96,0)"
       x1="13.131983"
       y1="980.64136"
       x2="25.549681"
       y2="967.86646" />
    <linearGradient
       inkscape:collect="always"
       xlink:href="#linearGradient3994"
       id="linearGradient3992"
       gradientUnits="userSpaceOnUse"
       x1="29.673231"
       y1="1042.892"
       x2="29.673231"
       y2="965.32623"
       gradientTransform="translate(0,-956.36218)" />
    <linearGradient
       inkscape:collect="always"
       xlink:href="#linearGradient3075"
       id="linearGradient3081"
       x1="82.995659"
       y1="979.61285"
       x2="72.749283"
       y2="976.28278"
       gradientUnits="userSpaceOnUse" />
    <linearGradient
       inkscape:collect="always"
       xlink:href="#linearGradient3052"
       id="linearGradient3087"
       gradientUnits="userSpaceOnUse"
       x1="47.645657"
       y1="965.78027"
       x2="47.645657"
       y2="1041.1539"
       gradientTransform="translate(0,-956.36218)" />
    <linearGradient
       inkscape:collect="always"
       xlink:href="#linearGradient3090"
       id="linearGradient3096"
       x1="67.381134"
       y1="10.505658"
       x2="61.584908"
       y2="16.664148"
       gradientUnits="userSpaceOnUse" />
    <linearGradient
       inkscape:collect="always"
       xlink:href="#linearGradient3090"
       id="linearGradient3101"
       gradientUnits="userSpaceOnUse"
       x1="67.381134"
       y1="10.505658"
       x2="61.584908"
       y2="15.383351" />
    <linearGradient
       inkscape:collect="always"
       xlink:href="#linearGradient3052-1"
       id="linearGradient3056"
       gradientUnits="userSpaceOnUse"
       gradientTransform="translate(0,-1.2617187e-5)"
       x1="47.645657"
       y1="965.78027"
       x2="47.645657"
       y2="1041.1539" />
    <linearGradient
       inkscape:collect="always"
       id="linearGradient3052-1">
      <stop
         style="stop-color:#f3f4f2;stop-opacity:1"
         offset="0"
         id="stop3054-5" />
      <stop
         style="stop-color:#fafafa;stop-opacity:1"
         offset="1"
         id="stop3056-5" />
    </linearGradient>
  </defs>
  <sodipodi:namedview
     id="base"
     pagecolor="#ffffff"
     bordercolor="#666666"
     borderopacity="1.0"
     inkscape:pageopacity="0.0"
     inkscape:pageshadow="2"
     inkscape:zoom="2"
     inkscape:cx="58.654626"
     inkscape:cy="49.180218"
     inkscape:document-units="px"
     inkscape:current-layer="layer1"
     showgrid="false"
     inkscape:window-width="1366"
     inkscape:window-height="695"
     inkscape:window-x="0"
     inkscape:window-y="35"
     inkscape:window-maximized="1"
     showguides="true"
     inkscape:guide-bbox="true" />
  <metadata
     id="metadata7">
    <rdf:RDF>
      <cc:Work
         rdf:about="">
        <dc:format>image/svg+xml</dc:format>
        <dc:type
           rdf:resource="http://purl.org/dc/dcmitype/StillImage" />
        <dc:title></dc:title>
      </cc:Work>
    </rdf:RDF>
  </metadata>
  <g
     inkscape:label="Layer 1"
     inkscape:groupmode="layer"
     id="layer1"
     transform="translate(0,-956.36218)">
    <flowRoot
       xml:space="preserve"
       id="flowRoot3114"
       style="fill:black;stroke:none;stroke-opacity:1;stroke-width:1px;stroke-linejoin:miter;stroke-linecap:butt;fill-opacity:1;font-family:Sans;font-style:normal;font-weight:normal;font-size:40px;line-height:125%;letter-spacing:0px;word-spacing:0px"><flowRegion
         id="flowRegion3116"><rect
           id="rect3118"
           width="70.710678"
           height="67.882248"
           x="13.788582"
           y="12.207847" /></flowRegion><flowPara
         id="flowPara3120" /></flowRoot>    <g
       id="g3033"
       transform="translate(0,-1.0000026)">
      <rect
         ry="10.595235"
         rx="10.595235"
         y="961.86218"
         x="3.5"
         height="89"
         width="89"
         id="rect3826"
         style="opacity:0.05;fill:#000000;fill-opacity:1;stroke:none" />
      <rect
         style="opacity:0.05;fill:#000000;fill-opacity:1;stroke:none"
         id="rect3824"
         width="88"
         height="88"
         x="4"
         y="962.36218"
         rx="10.476188"
         ry="10.476188" />
      <rect
         ry="10.357141"
         rx="10.357141"
         y="962.86218"
         x="4.5"
         height="87"
         width="87"
         id="rect3822"
         style="opacity:0.05;fill:#000000;fill-opacity:1;stroke:none" />
      <rect
         style="opacity:0.1;fill:#000000;fill-opacity:1;stroke:none"
         id="rect3820"
         width="86"
         height="86"
         x="5"
         y="963.36218"
         rx="10.238094"
         ry="10.238094" />
      <rect
         ry="10.119047"
         rx="10.119047"
         y="963.86218"
         x="5.5"
         height="85"
         width="85"
         id="rect3818"
         style="opacity:0.1;fill:#000000;fill-opacity:1;stroke:none" />
      <rect
         style="opacity:0.3;fill:#000000;fill-opacity:1;stroke:none"
         id="rect3131"
         width="84"
         height="84"
         x="6"
         y="964.36218"
         rx="10"
         ry="10" />
    </g>
    <path
       inkscape:connector-curvature="0"
       style="fill:#fafaf9;fill-opacity:1;stroke:none"
       d="m 16,962.36218 c -5.54,0 -10,4.46 -10,10 l 0,56.00002 84,0 0,-56.00002 c 0,-5.54 -4.46,-10 -10,-10 l -64,0 z"
       id="rect3036" />
    <rect
       style="fill:url(#linearGradient3056);fill-opacity:1;stroke:none"
       id="rect3034"
       width="82"
       height="82"
       x="7"
       y="963.36218"
       rx="9.7619047"
       ry="9.7619047" />
    <path
       inkscape:connector-curvature="0"
       style="fill:#ea2d2e;fill-opacity:1;stroke:none"
       d="m 6,1028.3622 0,8 c 0,5.54 4.46,10 10,10 l 64,0 c 5.54,0 10,-4.46 10,-10 l 0,-8 -84,0 z"
       id="rect3066" />
    <text
       xml:space="preserve"
       style="font-size:40px;font-style:normal;font-variant:normal;font-weight:normal;font-stretch:normal;text-align:center;line-height:125%;letter-spacing:0px;word-spacing:0px;text-anchor:middle;fill:#ffffff;fill-opacity:1;stroke:none;font-family:Cantarell;-inkscape-font-specification:Cantarell"
       x="47.438843"
       y="1041.5261"
       id="text3071"
       sodipodi:linespacing="125%"><tspan
         sodipodi:role="line"
         id="tspan3073"
         x="47.438843"
         y="1041.5261"
         style="font-size:12px;font-weight:bold;text-align:center;text-anchor:middle;fill:#ffffff;-inkscape-font-specification:Cantarell Bold">JAR</tspan></text>
    <g
       style="display:inline"
       id="g2681"
       transform="matrix(0.11060599,0,0,0.11060599,54.340616,993.06781)">
      <path
         style="fill:#0074bd;fill-rule:evenodd"
         id="path2627"
         inkscape:connector-curvature="0"
         d="m -116.65759,144.30809 c 0,0 -17.265,10.049 12.301,13.44 35.823999,4.09 54.129999,3.501 93.595999,-3.959 0,0 10.39700015,6.504 24.892,12.137 -88.501,37.917 -200.295999,-2.197 -130.788999,-21.618 l 0,0 z" />
      <path
         style="fill:#0074bd;fill-rule:evenodd"
         id="path2629"
         inkscape:connector-curvature="0"
         d="m -127.47759,94.820089 c 0,0 -19.367,14.339001 10.221,17.397001 38.270999,3.951 68.482999,4.275 120.7919992,-5.792 0,0 7.2179998,7.332 18.5849998,11.339 -106.986,31.294 -226.146999,2.462 -149.597999,-22.944001 l 0,0 z" />
      <path
         style="fill:#ea2d2e;fill-rule:evenodd"
         id="path2631"
         inkscape:connector-curvature="0"
         d="m -36.314591,10.861089 c 21.818,25.115 -5.721,47.697 -5.721,47.697 0,0 55.367,-28.577 29.945,-64.3800003 -23.752,-33.3729997 -41.962,-49.9509997 56.623,-107.1239987 10e-4,0 -154.753999,38.640999 -80.847,123.806999 l 0,0 z" />
      <path
         style="fill:#0074bd;fill-rule:evenodd"
         id="path2633"
         inkscape:connector-curvature="0"
         d="m 80.733409,180.91809 c 0,0 12.781,10.536 -14.077,18.684 -51.071,15.469 -212.603999,20.135 -257.469999,0.619 -16.117,-7.02 14.121,-16.75 23.635,-18.805 9.92,-2.146 15.584,-1.754 15.584,-1.754 -17.937,-12.631 -115.935,24.807 -49.772,35.544 180.428999,29.246 328.895,-13.173 282.099999,-34.288 l 0,0 z" />
      <path
         style="fill:#0074bd;fill-rule:evenodd"
         id="path2635"
         inkscape:connector-curvature="0"
         d="m -108.34859,43.538089 c 0,0 -82.155,19.519 -29.092,26.613 22.412,2.999 67.062999,2.309 108.684999,-1.183 34.0060002,-2.854 68.133,-8.958 68.133,-8.958 0,0 -11.982,5.14 -20.657,11.06 -83.444,21.947 -244.611999,11.726 -198.206999,-10.712 39.227,-18.977 71.138,-16.82 71.138,-16.82 l 0,0 z" />
      <path
         style="fill:#0074bd;fill-rule:evenodd"
         id="path2637"
         inkscape:connector-curvature="0"
         d="m 39.037409,125.91409 c 84.818001,-44.063001 45.597,-86.412001 18.223,-80.708001 -6.694,1.397 -9.697,2.607 -9.697,2.607 0,0 2.494,-3.907 7.243,-5.588 54.155001,-19.03 95.794001,56.146 -17.464,85.919001 -0.001,0 1.302,-1.18 1.695,-2.23 l 0,0 z" />
      <path
         style="fill:#ea2d2e;fill-rule:evenodd"
         id="path2639"
         inkscape:connector-curvature="0"
         d="m -12.089591,-205.28391 c 0,0 46.963,46.99 -44.557,119.226999 -73.392999,57.969 -16.734,91.0089997 -0.026,128.778 -42.845,-38.6530003 -74.270999,-72.684 -53.191999,-104.352 30.953999,-46.478999 116.7189992,-69.020999 97.774999,-143.652999 l 0,0 z" />
      <path
         style="fill:#0074bd;fill-rule:evenodd"
         id="path2641"
         inkscape:connector-curvature="0"
         d="m -100.00959,245.35309 c 81.396999,5.204 206.426,-2.896 209.385,-41.415 0,0 -5.688,14.602 -67.276001,26.188 -69.481,13.081 -155.196999,11.558 -206.015999,3.167 0,0 10.411,8.617 63.907,12.06 l 0,0 z" />
    </g>
  </g>
</svg>
