<?xml version="1.0" encoding="UTF-8" standalone="no"?>
<!-- Created with Inkscape (http://www.inkscape.org/) -->

<svg
   xmlns:dc="http://purl.org/dc/elements/1.1/"
   xmlns:cc="http://creativecommons.org/ns#"
   xmlns:rdf="http://www.w3.org/1999/02/22-rdf-syntax-ns#"
   xmlns:svg="http://www.w3.org/2000/svg"
   xmlns="http://www.w3.org/2000/svg"
   xmlns:xlink="http://www.w3.org/1999/xlink"
   xmlns:sodipodi="http://sodipodi.sourceforge.net/DTD/sodipodi-0.dtd"
   xmlns:inkscape="http://www.inkscape.org/namespaces/inkscape"
   width="96"
   height="96"
   id="svg2"
   version="1.1"
   inkscape:version="0.48.4 r9939"
   sodipodi:docname="application-vnd.ms-excel.svg">
  <defs
     id="defs4">
    <linearGradient
       inkscape:collect="always"
       id="linearGradient7717">
      <stop
         style="stop-color:#739ecd;stop-opacity:1;"
         offset="0"
         id="stop7719" />
      <stop
         id="stop7725"
         offset="0.28507313"
         style="stop-color:#5a88be;stop-opacity:1" />
      <stop
         style="stop-color:#4071ad;stop-opacity:1"
         offset="0.75454807"
         id="stop7727" />
      <stop
         style="stop-color:#b1c3dc;stop-opacity:1"
         offset="1"
         id="stop7721" />
    </linearGradient>
    <linearGradient
       id="linearGradient7703">
      <stop
         style="stop-color:#f64826;stop-opacity:1;"
         offset="0"
         id="stop7705" />
      <stop
         id="stop7711"
         offset="0.28458112"
         style="stop-color:#f52c04;stop-opacity:1;" />
      <stop
         style="stop-color:#fb6143;stop-opacity:1;"
         offset="1"
         id="stop7707" />
    </linearGradient>
    <linearGradient
       id="linearGradient7659">
      <stop
         style="stop-color:#e62b06;stop-opacity:1;"
         offset="0"
         id="stop7661" />
      <stop
         id="stop7669"
         offset="0.11197954"
         style="stop-color:#ee664b;stop-opacity:1;" />
      <stop
         id="stop7667"
         offset="0.2067236"
         style="stop-color:#f4b1a4;stop-opacity:1;" />
      <stop
         style="stop-color:#ea7b65;stop-opacity:1;"
         offset="0.29823774"
         id="stop7671" />
      <stop
         id="stop7681"
         offset="0.5846231"
         style="stop-color:#d12b0a;stop-opacity:1;" />
      <stop
         style="stop-color:#ce2301;stop-opacity:1;"
         offset="0.68152046"
         id="stop7699" />
      <stop
         id="stop7701"
         offset="0.79026079"
         style="stop-color:#e34020;stop-opacity:1;" />
      <stop
         style="stop-color:#cf2706;stop-opacity:1;"
         offset="1"
         id="stop7663" />
    </linearGradient>
    <linearGradient
       inkscape:collect="always"
       id="linearGradient3090">
      <stop
         style="stop-color:#000000;stop-opacity:0.1"
         offset="0"
         id="stop3092" />
      <stop
         style="stop-color:#000000;stop-opacity:0"
         offset="1"
         id="stop3094" />
    </linearGradient>
    <linearGradient
       inkscape:collect="always"
       id="linearGradient3075">
      <stop
         style="stop-color:#cfcfcf;stop-opacity:1"
         offset="0"
         id="stop3077" />
      <stop
         style="stop-color:#fafaf9;stop-opacity:0;"
         offset="1"
         id="stop3079" />
    </linearGradient>
    <linearGradient
       inkscape:collect="always"
       id="linearGradient3052">
      <stop
         style="stop-color:#f3f4f2;stop-opacity:1"
         offset="0"
         id="stop3054" />
      <stop
         style="stop-color:#fafafa;stop-opacity:1"
         offset="1"
         id="stop3056" />
    </linearGradient>
    <linearGradient
       id="linearGradient3994"
       inkscape:collect="always">
      <stop
         id="stop3996"
         offset="0"
         style="stop-color:#ff8e31;stop-opacity:1" />
      <stop
         id="stop4004"
         offset="1"
         style="stop-color:#ffb642;stop-opacity:1" />
    </linearGradient>
    <linearGradient
       inkscape:collect="always"
       id="linearGradient3119">
      <stop
         style="stop-color:#92948f;stop-opacity:0"
         offset="0"
         id="stop3121" />
      <stop
         id="stop3123"
         offset="0.4283945"
         style="stop-color:#9b9e98;stop-opacity:1" />
      <stop
         style="stop-color:#939690;stop-opacity:0"
         offset="1"
         id="stop3125" />
    </linearGradient>
    <linearGradient
       id="linearGradient3073"
       inkscape:collect="always">
      <stop
         id="stop3075"
         offset="0"
         style="stop-color:#ffffff;stop-opacity:0" />
      <stop
         style="stop-color:#ffffff;stop-opacity:1"
         offset="0.45872402"
         id="stop3085" />
      <stop
         id="stop3083"
         offset="1"
         style="stop-color:#ffffff;stop-opacity:0" />
    </linearGradient>
    <linearGradient
       inkscape:collect="always"
       id="linearGradient3061">
      <stop
         style="stop-color:#ef9a42;stop-opacity:1"
         offset="0"
         id="stop3063" />
      <stop
         style="stop-color:#f5c262;stop-opacity:1"
         offset="1"
         id="stop3065" />
    </linearGradient>
    <linearGradient
       inkscape:collect="always"
       id="linearGradient3047">
      <stop
         style="stop-color:#000000;stop-opacity:1"
         offset="0"
         id="stop3049" />
      <stop
         id="stop3055"
         offset="0.06123874"
         style="stop-color:#1a1a1a;stop-opacity:1" />
      <stop
         style="stop-color:#333333;stop-opacity:1"
         offset="0.16480456"
         id="stop3057" />
      <stop
         id="stop3059"
         offset="0.55385184"
         style="stop-color:#4d4d4d;stop-opacity:1" />
      <stop
         style="stop-color:#999999;stop-opacity:1"
         offset="1"
         id="stop3051" />
    </linearGradient>
    <linearGradient
       id="linearGradient3041"
       inkscape:collect="always">
      <stop
         id="stop3043"
         offset="0"
         style="stop-color:#1a1a1a;stop-opacity:1" />
      <stop
         id="stop3045"
         offset="1"
         style="stop-color:#808080;stop-opacity:1" />
    </linearGradient>
    <linearGradient
       inkscape:collect="always"
       id="linearGradient3029">
      <stop
         style="stop-color:#333333;stop-opacity:1"
         offset="0"
         id="stop3031" />
      <stop
         style="stop-color:#e0e0dd;stop-opacity:0;"
         offset="1"
         id="stop3033" />
    </linearGradient>
    <linearGradient
       inkscape:collect="always"
       xlink:href="#linearGradient3029"
       id="linearGradient3035"
       x1="35.355339"
       y1="1030.3622"
       x2="35.355339"
       y2="975.33282"
       gradientUnits="userSpaceOnUse"
       gradientTransform="matrix(1.1638085,0,0,1.1638085,-7.862809,-164.23642)" />
    <linearGradient
       inkscape:collect="always"
       xlink:href="#linearGradient3041"
       id="linearGradient3039"
       gradientUnits="userSpaceOnUse"
       x1="35.355339"
       y1="1030.3622"
       x2="35.355339"
       y2="975.33282"
       gradientTransform="matrix(1.1218695,0,0,1.1218695,-5.8497348,-122.18782)" />
    <linearGradient
       inkscape:collect="always"
       xlink:href="#linearGradient3047"
       id="linearGradient3053"
       x1="40"
       y1="1043.4336"
       x2="39.285713"
       y2="972.33325"
       gradientUnits="userSpaceOnUse" />
    <linearGradient
       inkscape:collect="always"
       xlink:href="#linearGradient3061"
       id="linearGradient3067"
       x1="17.67767"
       y1="1046.1118"
       x2="17.67767"
       y2="962.21893"
       gradientUnits="userSpaceOnUse"
       gradientTransform="translate(0,-956.36218)" />
    <linearGradient
       inkscape:collect="always"
       xlink:href="#linearGradient3073"
       id="linearGradient3113"
       gradientUnits="userSpaceOnUse"
       gradientTransform="translate(0,-956.36218)"
       x1="14.869445"
       y1="978.90387"
       x2="24.52651"
       y2="969.24683" />
    <linearGradient
       inkscape:collect="always"
       xlink:href="#linearGradient3073"
       id="linearGradient3115"
       gradientUnits="userSpaceOnUse"
       gradientTransform="matrix(-1,0,0,1,96,-956.36218)"
       x1="15.152279"
       y1="978.62103"
       x2="26.263966"
       y2="967.50934" />
    <linearGradient
       inkscape:collect="always"
       xlink:href="#linearGradient3119"
       id="linearGradient3117"
       gradientUnits="userSpaceOnUse"
       gradientTransform="translate(0,-956.36218)"
       x1="13.131983"
       y1="980.64136"
       x2="25.549681"
       y2="967.86646" />
    <linearGradient
       inkscape:collect="always"
       xlink:href="#linearGradient3119"
       id="linearGradient3129"
       gradientUnits="userSpaceOnUse"
       gradientTransform="matrix(-1,0,0,1,96,0)"
       x1="13.131983"
       y1="980.64136"
       x2="25.549681"
       y2="967.86646" />
    <linearGradient
       inkscape:collect="always"
       xlink:href="#linearGradient3994"
       id="linearGradient3992"
       gradientUnits="userSpaceOnUse"
       x1="29.673231"
       y1="1042.892"
       x2="29.673231"
       y2="965.32623"
       gradientTransform="translate(0,-956.36218)" />
    <linearGradient
       inkscape:collect="always"
       xlink:href="#linearGradient3075"
       id="linearGradient3081"
       x1="82.995659"
       y1="979.61285"
       x2="72.749283"
       y2="976.28278"
       gradientUnits="userSpaceOnUse" />
    <linearGradient
       inkscape:collect="always"
       xlink:href="#linearGradient3052"
       id="linearGradient3087"
       gradientUnits="userSpaceOnUse"
       x1="47.645657"
       y1="965.78027"
       x2="47.645657"
       y2="1041.1539"
       gradientTransform="translate(0,-956.36218)" />
    <linearGradient
       inkscape:collect="always"
       xlink:href="#linearGradient3090"
       id="linearGradient3096"
       x1="67.381134"
       y1="10.505658"
       x2="61.584908"
       y2="16.664148"
       gradientUnits="userSpaceOnUse" />
    <linearGradient
       inkscape:collect="always"
       xlink:href="#linearGradient3090"
       id="linearGradient3101"
       gradientUnits="userSpaceOnUse"
       x1="67.381134"
       y1="10.505658"
       x2="61.584908"
       y2="15.383351" />
    <linearGradient
       inkscape:collect="always"
       xlink:href="#linearGradient3052-1"
       id="linearGradient3056"
       gradientUnits="userSpaceOnUse"
       gradientTransform="translate(0,-1.26e-5)"
       x1="47.645657"
       y1="965.78027"
       x2="47.645657"
       y2="1041.1539" />
    <linearGradient
       inkscape:collect="always"
       id="linearGradient3052-1">
      <stop
         style="stop-color:#f3f4f2;stop-opacity:1"
         offset="0"
         id="stop3054-5" />
      <stop
         style="stop-color:#fafafa;stop-opacity:1"
         offset="1"
         id="stop3056-5" />
    </linearGradient>
    <linearGradient
       inkscape:collect="always"
       xlink:href="#linearGradient7717"
       id="linearGradient7857"
       gradientUnits="userSpaceOnUse"
       gradientTransform="translate(111.89504,0)"
       x1="-70.975845"
       y1="999.32916"
       x2="-76.455917"
       y2="991.55096" />
    <linearGradient
       inkscape:collect="always"
       xlink:href="#linearGradient7659"
       id="linearGradient7864"
       gradientUnits="userSpaceOnUse"
       gradientTransform="matrix(0.76582827,0,0,0.69236263,-1.8721506,976.64382)"
       x1="18.139732"
       y1="50.686386"
       x2="56.040619"
       y2="50.686386" />
  </defs>
  <sodipodi:namedview
     id="base"
     pagecolor="#ffffff"
     bordercolor="#666666"
     borderopacity="1.0"
     inkscape:pageopacity="0.0"
     inkscape:pageshadow="2"
     inkscape:zoom="2.71875"
     inkscape:cx="39.377348"
     inkscape:cy="8.9022339"
     inkscape:document-units="px"
     inkscape:current-layer="layer1"
     showgrid="false"
     inkscape:window-width="1366"
     inkscape:window-height="713"
     inkscape:window-x="0"
     inkscape:window-y="28"
     inkscape:window-maximized="1"
     showguides="true"
     inkscape:guide-bbox="true" />
  <metadata
     id="metadata7">
    <rdf:RDF>
      <cc:Work
         rdf:about="">
        <dc:format>image/svg+xml</dc:format>
        <dc:type
           rdf:resource="http://purl.org/dc/dcmitype/StillImage" />
        <dc:title />
      </cc:Work>
    </rdf:RDF>
  </metadata>
  <g
     inkscape:label="Layer 1"
     inkscape:groupmode="layer"
     id="layer1"
     transform="translate(0,-956.36218)">
    <flowRoot
       xml:space="preserve"
       id="flowRoot3114"
       style="fill:black;stroke:none;stroke-opacity:1;stroke-width:1px;stroke-linejoin:miter;stroke-linecap:butt;fill-opacity:1;font-family:Sans;font-style:normal;font-weight:normal;font-size:40px;line-height:125%;letter-spacing:0px;word-spacing:0px"><flowRegion
         id="flowRegion3116"><rect
           id="rect3118"
           width="70.710678"
           height="67.882248"
           x="13.788582"
           y="12.207847" /></flowRegion><flowPara
         id="flowPara3120" /></flowRoot>    <g
       id="g3033"
       transform="translate(0,-1.0000026)">
      <rect
         ry="10.595235"
         rx="10.595235"
         y="961.86218"
         x="3.5"
         height="89"
         width="89"
         id="rect3826"
         style="opacity:0.05;fill:#000000;fill-opacity:1;stroke:none" />
      <rect
         style="opacity:0.05;fill:#000000;fill-opacity:1;stroke:none"
         id="rect3824"
         width="88"
         height="88"
         x="4"
         y="962.36218"
         rx="10.476188"
         ry="10.476188" />
      <rect
         ry="10.357141"
         rx="10.357141"
         y="962.86218"
         x="4.5"
         height="87"
         width="87"
         id="rect3822"
         style="opacity:0.05;fill:#000000;fill-opacity:1;stroke:none" />
      <rect
         style="opacity:0.1;fill:#000000;fill-opacity:1;stroke:none"
         id="rect3820"
         width="86"
         height="86"
         x="5"
         y="963.36218"
         rx="10.238094"
         ry="10.238094" />
      <rect
         ry="10.119047"
         rx="10.119047"
         y="963.86218"
         x="5.5"
         height="85"
         width="85"
         id="rect3818"
         style="opacity:0.1;fill:#000000;fill-opacity:1;stroke:none" />
      <rect
         style="opacity:0.3;fill:#000000;fill-opacity:1;stroke:none"
         id="rect3131"
         width="84"
         height="84"
         x="6"
         y="964.36218"
         rx="10"
         ry="10" />
    </g>
    <path
       inkscape:connector-curvature="0"
       style="fill:#fafaf9;fill-opacity:1;stroke:none"
       d="m 16,962.36218 c -5.54,0 -10,4.46 -10,10 l 0,56.00002 84,0 0,-56.00002 c 0,-5.54 -4.46,-10 -10,-10 l -64,0 z"
       id="rect3036" />
    <rect
       style="fill:url(#linearGradient3056);fill-opacity:1;stroke:none"
       id="rect3034"
       width="82"
       height="82"
       x="7"
       y="963.36218"
       rx="9.7619047"
       ry="9.7619047" />
    <path
       inkscape:connector-curvature="0"
       style="fill:#18a303;fill-opacity:1;stroke:none"
       d="m 6,1028.3622 0,8 c 0,5.54 4.46,10 10,10 l 64,0 c 5.54,0 10,-4.46 10,-10 l 0,-8 -84,0 z"
       id="rect3066" />
    <g
       id="g3098"
       transform="translate(4.7778445,0)">
      <path
         d="m 36.295062,1035.9701 -1.884,-2.772 -1.668,0 2.712,3.996 -2.952,4.332 1.692,0 2.1,-3.096 2.1,3.096 1.692,0 -2.952,-4.332 2.712,-3.996 -1.668,0 -1.884,2.772"
         style="font-size:12px;font-style:normal;font-variant:normal;font-weight:bold;font-stretch:normal;text-align:center;line-height:125%;letter-spacing:0px;word-spacing:0px;text-anchor:middle;fill:#ffffff;fill-opacity:1;stroke:none;font-family:Cantarell;-inkscape-font-specification:Cantarell Bold"
         id="path3086"
         inkscape:connector-curvature="0" />
      <path
         d="m 41.285562,1033.1981 0,8.328 5.412,0 0,-1.356 -3.936,0 0,-6.972 -1.476,0"
         style="font-size:12px;font-style:normal;font-variant:normal;font-weight:bold;font-stretch:normal;text-align:center;line-height:125%;letter-spacing:0px;word-spacing:0px;text-anchor:middle;fill:#ffffff;fill-opacity:1;stroke:none;font-family:Cantarell;-inkscape-font-specification:Cantarell Bold"
         id="path3088"
         inkscape:connector-curvature="0" />
      <path
         d="m 51.097249,1034.5301 c 0.755999,0 1.428001,0.192 2.1,0.456 l 0.468,-1.344 -0.144,-0.06 c -0.336,-0.108 -1.152001,-0.444 -2.472,-0.444 -1.907998,0 -3.108,0.984 -3.108,2.34 0,2.928 4.512,2.16 4.476,3.744 0,0.6 -0.732001,1.032 -1.812,1.032 -0.456,0 -1.188001,-0.132 -2.268,-0.528 l -0.228,-0.096 -0.504,1.356 0.216,0.072 c 0.803999,0.312 1.608001,0.588 2.664,0.588 2.567997,0 3.456,-1.272 3.456,-2.424 0,-2.868 -4.476,-2.256 -4.476,-3.684 0,-0.6 0.624001,-1.008 1.632,-1.008"
         style="font-size:12px;font-style:normal;font-variant:normal;font-weight:bold;font-stretch:normal;text-align:center;line-height:125%;letter-spacing:0px;word-spacing:0px;text-anchor:middle;fill:#ffffff;fill-opacity:1;stroke:none;font-family:Cantarell;-inkscape-font-specification:Cantarell Bold"
         id="path3090"
         inkscape:connector-curvature="0" />
    </g>
    <g
       id="g19230"
       transform="translate(0,0.08801008)">
      <rect
         style="fill:#cccec9;fill-opacity:1;stroke:none"
         id="rect17379"
         width="12.860938"
         height="36"
         x="20"
         y="980.77417"
         rx="0"
         ry="0" />
      <rect
         ry="0"
         rx="0"
         y="1010.7742"
         x="20"
         height="6"
         width="56"
         id="rect18868"
         style="opacity:0.3;fill:#4fbe3e;fill-opacity:1;stroke:none" />
      <rect
         ry="0"
         rx="0"
         y="980.77417"
         x="20"
         height="6.5"
         width="56"
         id="rect16609"
         style="fill:#5bdc48;fill-opacity:1;stroke:none" />
      <path
         id="path19067"
         transform="translate(0,956.36218)"
         d="m 22.84375,26 0,1.96875 c 0,0.088 0.012,0.1395 0,0.1875 -0.056,0.224 -0.2745,0.375 -0.5625,0.375 -0.088,0 -0.18125,-0.0385 -0.28125,-0.0625 L 21.9375,28.75 c 0.132,0.032 0.28225,0.0625 0.40625,0.0625 0.292,0 0.50425,-0.086 0.65625,-0.25 0.148,-0.156 0.1875,-0.325 0.1875,-0.625 l 0,-1.9375 -0.34375,0 z m 12.3125,0 0,2.78125 0.34375,0 0,-1.28125 1.15625,0 0,-0.3125 -1.15625,0 0,-0.90625 1.25,0 0,-0.28125 -1.59375,0 z m 20.0625,0 0,2.78125 0.34375,0 0,-1.15625 c 0.116,0.008 0.23975,0 0.34375,0 0.232,0 0.51225,-0.0145 0.65625,-0.0625 0.296,-0.1 0.488,-0.382 0.5,-0.75 0,-0.392 -0.176,-0.642 -0.5,-0.75 C 56.4945,26.0425 56.39775,26 56.09375,26 l -0.875,0 z m -27.25,0.09375 0,0.34375 0.3125,0 0,-0.34375 -0.3125,0 z m 12.8125,0 0,2.6875 0.34375,0 0,-2.6875 -0.34375,0 z m 10.21875,0 0,0.34375 0.3125,0 0,-0.34375 -0.3125,0 z m 4.5625,0.1875 0.375,0 c 0.18,0 0.29175,0.02325 0.34375,0.03125 0.276,0.028 0.46875,0.2 0.46875,0.5 0,0.488 -0.391751,0.53125 -0.84375,0.53125 -0.104,0 -0.21175,-0.01925 -0.34375,-0.03125 l 0,-1.03125 z m 12,0.0625 -0.34375,0.03125 0,0.46875 -0.3125,0 0,0.28125 0.3125,0 0,1.0625 c 0,0.408 0.1625,0.625 0.5625,0.625 0.136,0 0.25825,-0.0145 0.40625,-0.0625 l 0,-0.25 c -0.104,0.028 -0.1965,0.03125 -0.3125,0.03125 -0.248,0 -0.3125,-0.119 -0.3125,-0.375 l 0,-1.03125 0.625,0 0,-0.28125 -0.625,0 0,-0.5 z M 24.53125,26.8125 c -0.28,0 -0.469,0.1125 -0.625,0.3125 -0.148,0.2 -0.21875,0.43075 -0.21875,0.71875 0,0.624 0.340751,0.96875 0.96875,0.96875 0.216,0 0.39775,-0.02575 0.59375,-0.09375 l 0,-0.28125 c -0.188,0.06 -0.36325,0.09375 -0.53125,0.09375 -0.244,0 -0.41925,-0.03625 -0.53125,-0.15625 C 24.0755,28.255 24.004,28.09025 24,27.90625 l 1.3125,0 0.03125,-0.03125 0,-0.1875 c 0,-0.556 -0.304501,-0.875 -0.8125,-0.875 z m 2.25,0 c -0.204,0 -0.4435,0.0595 -0.6875,0.1875 l -0.0625,-0.15625 -0.21875,0 0,1.9375 0.34375,0 0,-1.5625 c 0.196,-0.092 0.37925,-0.125 0.53125,-0.125 0.312,0 0.40625,0.14875 0.40625,0.46875 l 0,1.21875 0.34375,0 0,-1.3125 c 0,-0.408 -0.240251,-0.65625 -0.65625,-0.65625 z m 2.78125,0 c -0.144,0 -0.28225,0.04575 -0.40625,0.09375 -0.192,0.076 -0.34375,0.20475 -0.34375,0.46875 0,0.304 0.25025,0.39675 0.40625,0.46875 l 0.3125,0.125 c 0.096,0.036 0.186,0.081 0.25,0.125 0.076,0.052 0.125,0.1115 0.125,0.1875 0,0.192 -0.2255,0.25 -0.4375,0.25 -0.236,0 -0.4715,-0.041 -0.6875,-0.125 l 0,0.3125 c 0.176,0.076 0.42275,0.09375 0.71875,0.09375 0.296,0 0.493,-0.082 0.625,-0.25 0.068,-0.084 0.125,-0.2085 0.125,-0.3125 0,-0.124 -0.041,-0.18925 -0.125,-0.28125 -0.072,-0.08 -0.14225,-0.154 -0.40625,-0.25 l -0.28125,-0.125 c -0.088,-0.032 -0.1595,-0.0425 -0.1875,-0.0625 -0.068,-0.044 -0.125,-0.0715 -0.125,-0.1875 0,-0.04 0.04975,-0.085 0.09375,-0.125 0.104,-0.096 0.23025,-0.125 0.40625,-0.125 0.248,0 0.412,0.11625 0.5,0.15625 l 0,-0.28125 c -0.176,-0.084 -0.28725,-0.15225 -0.53125,-0.15625 l -0.03125,0 z m 8.5,0 c -0.187999,0 -0.35925,0.0555 -0.53125,0.1875 l -0.0625,-0.15625 -0.25,0 0,1.9375 0.34375,0 0,-1.53125 c 0.14,-0.092 0.278251,-0.15625 0.40625,-0.15625 0.124,0 0.2125,0.0225 0.3125,0.0625 l 0.0625,0 0,-0.3125 c -0.084,-0.024 -0.18925,-0.03125 -0.28125,-0.03125 z m 1.4375,0 c -0.279999,0 -0.50025,0.1125 -0.65625,0.3125 -0.147999,0.2 -0.21875,0.43075 -0.21875,0.71875 0,0.624 0.340751,0.96875 0.96875,0.96875 0.216,0 0.429001,-0.02575 0.625,-0.09375 l 0,-0.28125 c -0.187999,0.06 -0.36325,0.09375 -0.53125,0.09375 -0.243999,0 -0.4505,-0.03625 -0.5625,-0.15625 -0.112,-0.12 -0.1835,-0.28475 -0.1875,-0.46875 l 1.3125,0 0.03125,-0.03125 0,-0.1875 c 0,-0.556 -0.27325,-0.875 -0.78125,-0.875 z m 6.21875,0 c -0.28,0 -0.50025,0.1125 -0.65625,0.3125 -0.148,0.2 -0.21875,0.43075 -0.21875,0.71875 0,0.624 0.340751,0.96875 0.96875,0.96875 0.216,0 0.429,-0.02575 0.625,-0.09375 l 0,-0.28125 c -0.188,0.06 -0.36325,0.09375 -0.53125,0.09375 -0.244,0 -0.4505,-0.03625 -0.5625,-0.15625 -0.112,-0.12 -0.1835,-0.28475 -0.1875,-0.46875 l 1.34375,0 0,-0.03125 0,-0.1875 c 0,-0.556 -0.273251,-0.875 -0.78125,-0.875 z m 2.25,0 c -0.204,0 -0.4435,0.0595 -0.6875,0.1875 l -0.0625,-0.15625 -0.25,0 0,1.9375 0.34375,0 0,-1.5625 c 0.196,-0.092 0.37925,-0.125 0.53125,-0.125 0.312,0 0.40625,0.14875 0.40625,0.46875 l 0,1.21875 0.34375,0 0,-1.3125 c 0,-0.408 -0.209001,-0.65625 -0.625,-0.65625 z m 1.875,0 c -0.143999,0 -0.28225,0.04575 -0.40625,0.09375 -0.191999,0.076 -0.34375,0.20475 -0.34375,0.46875 0,0.304 0.250251,0.39675 0.40625,0.46875 l 0.28125,0.125 c 0.096,0.036 0.21725,0.081 0.28125,0.125 0.076,0.052 0.09375,0.1115 0.09375,0.1875 0,0.192 -0.19425,0.25 -0.40625,0.25 -0.235999,0 -0.4715,-0.041 -0.6875,-0.125 l 0,0.3125 c 0.176,0.076 0.422751,0.09375 0.71875,0.09375 0.296,0 0.493001,-0.082 0.625,-0.25 C 50.47425,28.4785 50.5,28.354 50.5,28.25 c 0,-0.124 -0.0097,-0.18925 -0.09375,-0.28125 -0.072,-0.08 -0.14225,-0.154 -0.40625,-0.25 l -0.28125,-0.125 c -0.088,-0.032 -0.1595,-0.0425 -0.1875,-0.0625 -0.068,-0.044 -0.125,-0.0715 -0.125,-0.1875 0,-0.04 0.0185,-0.085 0.0625,-0.125 0.104,-0.096 0.261501,-0.125 0.4375,-0.125 0.248,0 0.412,0.11625 0.5,0.15625 l 0,-0.28125 C 50.230251,26.88475 50.119,26.8165 49.875,26.8125 l -0.03125,0 z m 8.46875,0 c -0.279999,0 -0.50025,0.1125 -0.65625,0.3125 -0.147999,0.2 -0.21875,0.43075 -0.21875,0.71875 0,0.624 0.340751,0.96875 0.96875,0.96875 0.216,0 0.429001,-0.02575 0.625,-0.09375 l 0,-0.28125 c -0.187999,0.06 -0.36325,0.09375 -0.53125,0.09375 -0.243999,0 -0.4505,-0.03625 -0.5625,-0.15625 -0.112,-0.12 -0.1835,-0.28475 -0.1875,-0.46875 l 1.3125,0 0.03125,-0.03125 0,-0.1875 c 0,-0.556 -0.27325,-0.875 -0.78125,-0.875 z m 2.09375,0 C 60.218251,26.8125 60.047,26.868 59.875,27 l -0.0625,-0.15625 -0.25,0 0,1.9375 0.34375,0 0,-1.53125 c 0.14,-0.092 0.278251,-0.15625 0.40625,-0.15625 0.124,0 0.2125,0.0225 0.3125,0.0625 l 0.0625,0 0,-0.3125 c -0.084,-0.024 -0.18925,-0.03125 -0.28125,-0.03125 z m 1.375,0 c -0.143999,0 -0.28225,0.04575 -0.40625,0.09375 C 61.183001,26.98225 61,27.111 61,27.375 c 0,0.304 0.250251,0.39675 0.40625,0.46875 l 0.3125,0.125 c 0.096,0.036 0.186,0.081 0.25,0.125 0.076,0.052 0.125,0.1115 0.125,0.1875 0,0.192 -0.2255,0.25 -0.4375,0.25 -0.235999,0 -0.44025,-0.041 -0.65625,-0.125 l 0,0.3125 c 0.176,0.076 0.391501,0.09375 0.6875,0.09375 0.296,0 0.524251,-0.082 0.65625,-0.25 0.068,-0.084 0.09375,-0.2085 0.09375,-0.3125 0,-0.124 -0.041,-0.18925 -0.125,-0.28125 -0.072,-0.08 -0.111,-0.154 -0.375,-0.25 l -0.3125,-0.125 c -0.088,-0.032 -0.1595,-0.0425 -0.1875,-0.0625 -0.068,-0.044 -0.09375,-0.0715 -0.09375,-0.1875 0,-0.04 0.0185,-0.085 0.0625,-0.125 0.104,-0.096 0.230251,-0.125 0.40625,-0.125 0.248,0 0.412,0.11625 0.5,0.15625 l 0,-0.28125 c -0.175999,-0.084 -0.28725,-0.15225 -0.53125,-0.15625 z m 1.90625,0 c -0.279999,0 -0.50025,0.1125 -0.65625,0.3125 -0.147999,0.2 -0.21875,0.43075 -0.21875,0.71875 0,0.624 0.340751,0.96875 0.96875,0.96875 0.216,0 0.429001,-0.02575 0.625,-0.09375 l 0,-0.28125 c -0.187999,0.06 -0.36325,0.09375 -0.53125,0.09375 -0.243999,0 -0.41925,-0.03625 -0.53125,-0.15625 -0.112,-0.12 -0.1835,-0.28475 -0.1875,-0.46875 l 1.3125,0 L 64.5,27.875 l 0,-0.1875 c 0,-0.556 -0.3045,-0.875 -0.8125,-0.875 z m 2.25,0 C 65.733501,26.8125 65.494,26.872 65.25,27 l -0.0625,-0.15625 -0.21875,0 0,1.9375 0.3125,0 0,-1.5625 c 0.196,-0.092 0.379251,-0.125 0.53125,-0.125 0.312,0 0.4375,0.14875 0.4375,0.46875 l 0,1.21875 0.3125,0 0,-1.3125 c 0,-0.408 -0.209,-0.65625 -0.625,-0.65625 z m 3.375,0 c -0.223999,0 -0.44825,0.045 -0.65625,0.125 l 0,0.25 c 0.164,-0.056 0.461001,-0.09375 0.625,-0.09375 0.24,0 0.3815,0.06675 0.4375,0.21875 0.024,0.064 0.03125,0.1725 0.03125,0.3125 -0.295999,0.008 -0.52675,0.04575 -0.71875,0.09375 -0.251999,0.068 -0.5,0.2425 -0.5,0.5625 0,0.312 0.289001,0.53125 0.625,0.53125 0.216,0 0.413751,-0.07075 0.59375,-0.21875 l 0.09375,0.1875 0.21875,0 0,-1.25 c 0,-0.316 -0.046,-0.45775 -0.25,-0.59375 -0.108,-0.072 -0.276,-0.125 -0.5,-0.125 z m 2.03125,0 c -0.143999,0 -0.28225,0.04575 -0.40625,0.09375 -0.191999,0.076 -0.375,0.20475 -0.375,0.46875 0,0.304 0.250251,0.39675 0.40625,0.46875 l 0.3125,0.125 c 0.096,0.036 0.186,0.081 0.25,0.125 0.076,0.052 0.125,0.1115 0.125,0.1875 0,0.192 -0.2255,0.25 -0.4375,0.25 -0.235999,0 -0.44025,-0.041 -0.65625,-0.125 l 0,0.3125 c 0.176,0.076 0.391501,0.09375 0.6875,0.09375 0.296,0 0.524251,-0.082 0.65625,-0.25 C 71.97425,28.4785 72,28.354 72,28.25 c 0,-0.124 -0.041,-0.18925 -0.125,-0.28125 -0.072,-0.08 -0.111,-0.154 -0.375,-0.25 l -0.3125,-0.125 c -0.088,-0.032 -0.1595,-0.0425 -0.1875,-0.0625 -0.068,-0.044 -0.09375,-0.0715 -0.09375,-0.1875 0,-0.04 0.0185,-0.085 0.0625,-0.125 0.104,-0.096 0.230251,-0.125 0.40625,-0.125 0.248,0 0.412,0.11625 0.5,0.15625 l 0,-0.28125 c -0.175999,-0.084 -0.28725,-0.15225 -0.53125,-0.15625 z m 1.90625,0 c -0.279999,0 -0.50025,0.1125 -0.65625,0.3125 -0.147999,0.2 -0.21875,0.43075 -0.21875,0.71875 0,0.624 0.340751,0.96875 0.96875,0.96875 0.216,0 0.429001,-0.02575 0.625,-0.09375 l 0,-0.28125 c -0.187999,0.06 -0.36325,0.09375 -0.53125,0.09375 -0.243999,0 -0.41925,-0.03625 -0.53125,-0.15625 -0.112,-0.12 -0.1835,-0.28475 -0.1875,-0.46875 l 1.3125,0 0.03125,-0.03125 0,-0.1875 c 0,-0.556 -0.3045,-0.875 -0.8125,-0.875 z m -45.28125,0.03125 0,1.9375 0.3125,0 0,-1.9375 -0.3125,0 z m 14.03125,0 -0.84375,0.875 0.84375,1.0625 0.40625,0 -0.875,-1.0625 0.84375,-0.875 -0.375,0 z m 0.75,0 0,1.3125 c 0,0.408 0.24025,0.65625 0.65625,0.65625 0.204,0 0.4435,-0.0595 0.6875,-0.1875 l 0.0625,0.15625 0.21875,0 0,-1.9375 -0.34375,0 0,1.5625 c -0.196,0.092 -0.348,0.15625 -0.5,0.15625 -0.312,0 -0.4375,-0.14875 -0.4375,-0.46875 l 0,-1.25 -0.34375,0 z m 8.25,0 0,1.9375 0.3125,0 0,-1.9375 -0.3125,0 z M 24.5625,27.0625 c 0.3,0 0.4375,0.27775 0.4375,0.59375 l -1,0 c 0.036,-0.308 0.1905,-0.59375 0.5625,-0.59375 z m 14.96875,0 c 0.3,0 0.4375,0.27775 0.4375,0.59375 l -1.03125,0 c 0.036,-0.308 0.221751,-0.59375 0.59375,-0.59375 z m 6.21875,0 c 0.3,0 0.4375,0.27775 0.4375,0.59375 l -1,0 c 0.036,-0.308 0.1905,-0.59375 0.5625,-0.59375 z m 12.59375,0 c 0.3,0 0.4375,0.27775 0.4375,0.59375 l -1.03125,0 c 0.036,-0.308 0.221751,-0.59375 0.59375,-0.59375 z m 5.375,0 c 0.3,0 0.4375,0.27775 0.4375,0.59375 l -1,0 c 0.036,-0.308 0.190501,-0.59375 0.5625,-0.59375 z m 9.5625,0 c 0.3,0 0.4375,0.27775 0.4375,0.59375 l -1,0 c 0.036,-0.308 0.190501,-0.59375 0.5625,-0.59375 z M 69.75,27.875 l 0,0.46875 c -0.139999,0.136 -0.29925,0.21875 -0.53125,0.21875 -0.048,0 -0.089,-0.01525 -0.125,-0.03125 C 68.98175,28.47925 68.875,28.386 68.875,28.25 c 0,-0.048 0.0032,-0.077 0.03125,-0.125 0.064,-0.104 0.164501,-0.18675 0.3125,-0.21875 0.08,-0.016 0.267251,-0.02325 0.53125,-0.03125 z"
         style="font-size:4px;font-style:normal;font-variant:normal;font-weight:normal;font-stretch:normal;line-height:125%;letter-spacing:0px;word-spacing:0px;fill:#ffffff;fill-opacity:1;stroke:none;font-family:Cantarell;-inkscape-font-specification:Cantarell"
         inkscape:connector-curvature="0" />
      <rect
         style="opacity:0.2;fill:#000000;fill-opacity:1;stroke:none"
         id="rect18834"
         width="56"
         height="0.5"
         x="20"
         y="986.77417"
         rx="0"
         ry="0" />
      <rect
         ry="0"
         rx="0"
         y="992.77417"
         x="20"
         height="0.5"
         width="56"
         id="rect18836"
         style="opacity:0.2;fill:#000000;fill-opacity:1;stroke:none" />
      <rect
         style="opacity:0.2;fill:#000000;fill-opacity:1;stroke:none"
         id="rect18838"
         width="56"
         height="0.5"
         x="20"
         y="998.77417"
         rx="0"
         ry="0" />
      <rect
         ry="0"
         rx="0"
         y="1004.7742"
         x="20"
         height="0.5"
         width="56"
         id="rect18840"
         style="opacity:0.2;fill:#000000;fill-opacity:1;stroke:none" />
      <rect
         style="opacity:0.2;fill:#000000;fill-opacity:1;stroke:none"
         id="rect18842"
         width="56"
         height="0.5"
         x="20"
         y="1010.7742"
         rx="0"
         ry="0" />
      <rect
         ry="0"
         rx="0"
         y="1016.7742"
         x="20"
         height="0.5"
         width="56"
         id="rect18844"
         style="opacity:0.2;fill:#000000;fill-opacity:1;stroke:none" />
      <path
         id="path18965"
         transform="translate(0,956.36218)"
         d="m 44.3125,32.25 c -0.210937,0.04781 -0.37825,0.186 -0.53125,0.375 -0.191999,0.24 -0.28125,0.564 -0.28125,1 0,0.656 0.209001,1.12775 0.625,1.34375 0.132,0.068 0.262251,0.125 0.40625,0.125 0.144,0 0.278251,-0.02975 0.40625,-0.09375 0.44,-0.22 0.65625,-0.707 0.65625,-1.375 0,-0.624 -0.19775,-1.06125 -0.59375,-1.28125 -0.143999,-0.08 -0.29675,-0.09375 -0.46875,-0.09375 -0.076,0 -0.148438,-0.01594 -0.21875,0 z m 20.40625,0 c -0.210937,0.04781 -0.4095,0.186 -0.5625,0.375 -0.191999,0.24 -0.28125,0.564 -0.28125,1 0,0.656 0.240251,1.12775 0.65625,1.34375 0.132,0.068 0.262251,0.125 0.40625,0.125 0.144,0 0.278251,-0.02975 0.40625,-0.09375 C 65.78375,34.78 66,34.293 66,33.625 66,33.001 65.80225,32.56375 65.40625,32.34375 65.262251,32.26375 65.1095,32.25 64.9375,32.25 c -0.076,0 -0.148438,-0.01594 -0.21875,0 z M 26.1875,32.28125 25.25,35.0625 l 0.34375,0 0.25,-0.8125 1.0625,0 0.25,0.8125 0.375,0 -0.9375,-2.78125 -0.40625,0 z m 15.65625,0 -0.59375,0.25 0.125,0.28125 0.53125,-0.21875 0,2.15625 -0.6875,0 0,0.3125 1.65625,0 0,-0.3125 -0.65625,0 0,-2.46875 -0.375,0 z m 20.40625,0 -0.59375,0.25 0.09375,0.28125 0.5625,-0.21875 0,2.15625 -0.6875,0 0,0.3125 1.625,0 0,-0.3125 -0.625,0 0,-2.46875 -0.375,0 z m 6,0 -1.875,2.78125 0.34375,0 1.875,-2.78125 -0.34375,0 z M 66.84375,32.375 c -0.284,0 -0.4375,0.2465 -0.4375,0.5625 0,0.32 0.1455,0.53125 0.4375,0.53125 0.288,0 0.4375,-0.2585 0.4375,-0.5625 0,-0.328 -0.1495,-0.53125 -0.4375,-0.53125 z M 44.5625,32.53125 c 0.116,0 0.2125,0.049 0.3125,0.125 0.248,0.192 0.40625,0.50475 0.40625,0.96875 0,0.508 -0.14225,0.8705 -0.40625,1.0625 -0.096,0.072 -0.1965,0.09375 -0.3125,0.09375 -0.116,0 -0.24775,-0.02975 -0.34375,-0.09375 -0.271999,-0.18 -0.40625,-0.55375 -0.40625,-1.09375 0,-0.556 0.238001,-1.0625 0.75,-1.0625 z m 20.40625,0 c 0.116,0 0.2125,0.049 0.3125,0.125 0.248,0.192 0.375,0.50475 0.375,0.96875 0,0.508 -0.14225,0.8705 -0.40625,1.0625 -0.096,0.072 -0.1965,0.09375 -0.3125,0.09375 -0.116,0 -0.2165,-0.02975 -0.3125,-0.09375 -0.271999,-0.18 -0.40625,-0.55375 -0.40625,-1.09375 0,-0.556 0.238001,-1.0625 0.75,-1.0625 z m 1.84375,0.03125 c 0.24,0 0.28125,0.15025 0.28125,0.40625 0,0.172 -0.098,0.3125 -0.25,0.3125 -0.208,0 -0.25,-0.17025 -0.25,-0.40625 0,-0.156 0.08275,-0.3125 0.21875,-0.3125 z m -40.4375,0.0625 0.4375,1.3125 -0.875,0 0.4375,-1.3125 z m 41.75,1.1875 c -0.112,0 -0.2165,0.05625 -0.3125,0.15625 -0.096,0.1 -0.15625,0.22225 -0.15625,0.40625 0,0.184 0.06425,0.3455 0.15625,0.4375 0.092,0.092 0.1845,0.125 0.3125,0.125 0.3,0 0.46875,-0.293 0.46875,-0.625 0,-0.196 -0.05225,-0.299 -0.15625,-0.375 -0.104,-0.076 -0.2005,-0.125 -0.3125,-0.125 z m 0,0.1875 c 0.032,0 0.06575,0.01925 0.09375,0.03125 0.124,0.048 0.1875,0.15575 0.1875,0.34375 0,0.136 -0.03775,0.22125 -0.09375,0.28125 -0.056,0.06 -0.1235,0.09375 -0.1875,0.09375 -0.064,0 -0.10025,-0.0105 -0.15625,-0.0625 -0.076,-0.076 -0.125,-0.203 -0.125,-0.375 C 67.84375,34.1405 67.965,34 68.125,34 z m -26.0625,4.25 c -0.376,0 -0.55575,0.0755 -0.84375,0.1875 l 0.125,0.28125 c 0.264,-0.1 0.4075,-0.1875 0.6875,-0.1875 0.415999,0 0.53125,0.29925 0.53125,0.53125 0,0.284 -0.264251,0.58 -0.65625,1 l -0.6875,0.75 0,0.25 1.71875,0 0,-0.3125 -1.25,0 0.5,-0.5 c 0.348,-0.372 0.71875,-0.814 0.71875,-1.25 0,-0.468 -0.379751,-0.75 -0.84375,-0.75 z m 2.34375,0 c -0.210937,0.04781 -0.4095,0.186 -0.5625,0.375 -0.191999,0.24 -0.28125,0.564 -0.28125,1 0,0.656 0.240251,1.12775 0.65625,1.34375 0.132,0.068 0.262251,0.125 0.40625,0.125 0.144,0 0.278251,-0.02975 0.40625,-0.09375 0.44,-0.22 0.65625,-0.707 0.65625,-1.375 0,-0.624 -0.19775,-1.06125 -0.59375,-1.28125 C 44.949751,38.26375 44.797,38.25 44.625,38.25 c -0.076,0 -0.148438,-0.01594 -0.21875,0 z m 18.0625,0 c -0.376,0 -0.55575,0.0755 -0.84375,0.1875 l 0.09375,0.28125 c 0.264,-0.1 0.4075,-0.1875 0.6875,-0.1875 0.415999,0 0.53125,0.29925 0.53125,0.53125 0,0.284 -0.233001,0.58 -0.625,1 l -0.71875,0.75 0,0.25 1.71875,0 0,-0.3125 -1.21875,0 0.46875,-0.5 c 0.348,-0.372 0.71875,-0.814 0.71875,-1.25 0,-0.468 -0.348501,-0.75 -0.8125,-0.75 z m 2.3125,0 c -0.210937,0.04781 -0.37825,0.186 -0.53125,0.375 -0.191999,0.24 -0.28125,0.564 -0.28125,1 0,0.656 0.209001,1.12775 0.625,1.34375 0.132,0.068 0.262251,0.125 0.40625,0.125 0.144,0 0.278251,-0.02975 0.40625,-0.09375 0.44,-0.22 0.65625,-0.707 0.65625,-1.375 0,-0.624 -0.19775,-1.06125 -0.59375,-1.28125 C 65.324751,38.26375 65.172,38.25 65,38.25 c -0.076,0 -0.148438,-0.01594 -0.21875,0 z M 25.5,38.28125 l 0,2.78125 0.90625,0 c 0.348,0 0.65575,-0.11325 0.84375,-0.28125 0.176,-0.16 0.21875,-0.3625 0.21875,-0.5625 0,-0.364 -0.2465,-0.6275 -0.5625,-0.6875 0.224,-0.108 0.34375,-0.36575 0.34375,-0.59375 0,-0.204 -0.0595,-0.384 -0.1875,-0.5 -0.136,-0.12 -0.3385,-0.15625 -0.5625,-0.15625 l -1,0 z m 42.84375,0 -1.90625,2.78125 0.34375,0 1.90625,-2.78125 -0.34375,0 z M 66.9375,38.375 c -0.284,0 -0.46875,0.2465 -0.46875,0.5625 0,0.32 0.1455,0.53125 0.4375,0.53125 0.288,0 0.46875,-0.2585 0.46875,-0.5625 0,-0.328 -0.1495,-0.53125 -0.4375,-0.53125 z m -22.28125,0.15625 c 0.116,0 0.2125,0.049 0.3125,0.125 0.248,0.192 0.375,0.50475 0.375,0.96875 0,0.508 -0.14225,0.8705 -0.40625,1.0625 -0.096,0.072 -0.1965,0.09375 -0.3125,0.09375 -0.116,0 -0.2165,-0.02975 -0.3125,-0.09375 -0.271999,-0.18 -0.40625,-0.55375 -0.40625,-1.09375 0,-0.556 0.238001,-1.0625 0.75,-1.0625 z m 20.375,0 c 0.116,0 0.2125,0.049 0.3125,0.125 0.248,0.192 0.40625,0.50475 0.40625,0.96875 0,0.508 -0.14225,0.8705 -0.40625,1.0625 -0.096,0.072 -0.1965,0.09375 -0.3125,0.09375 -0.116,0 -0.24775,-0.02975 -0.34375,-0.09375 -0.271999,-0.18 -0.40625,-0.55375 -0.40625,-1.09375 0,-0.556 0.238001,-1.0625 0.75,-1.0625 z m -39.1875,0.03125 0.53125,0 c 0.336,0 0.5625,0.11825 0.5625,0.40625 0,0.316 -0.226751,0.46875 -0.71875,0.46875 l -0.375,0 0,-0.875 z m 41.03125,0 c 0.24,0 0.3125,0.15025 0.3125,0.40625 0,0.172 -0.098,0.3125 -0.25,0.3125 -0.208,0 -0.28125,-0.17025 -0.28125,-0.40625 0,-0.156 0.08275,-0.3125 0.21875,-0.3125 z m -41.03125,1.15625 0.5,0 c 0.375999,0 0.8125,0.07525 0.8125,0.53125 0,0.372 -0.311501,0.5 -0.6875,0.5 l -0.625,0 0,-1.03125 z M 68.1875,39.8125 c -0.112,0 -0.2165,0.05625 -0.3125,0.15625 -0.096,0.1 -0.125,0.22225 -0.125,0.40625 0,0.184 0.033,0.3455 0.125,0.4375 0.092,0.092 0.21575,0.125 0.34375,0.125 0.3,0 0.4375,-0.293 0.4375,-0.625 0,-0.196 -0.05225,-0.299 -0.15625,-0.375 -0.104,-0.076 -0.2005,-0.125 -0.3125,-0.125 z m 0,0.1875 c 0.032,0 0.06575,0.01925 0.09375,0.03125 0.124,0.048 0.1875,0.15575 0.1875,0.34375 0,0.136 -0.0065,0.22125 -0.0625,0.28125 -0.056,0.06 -0.1235,0.09375 -0.1875,0.09375 -0.064,0 -0.1315,-0.0105 -0.1875,-0.0625 -0.076,-0.076 -0.09375,-0.203 -0.09375,-0.375 0,-0.172 0.09,-0.3125 0.25,-0.3125 z M 26.75,44.25 c -0.404,0 -0.788,0.159 -1,0.375 -0.22,0.228 -0.34375,0.59925 -0.34375,1.03125 0,0.424 0.123,0.76725 0.375,1.03125 0.224,0.232 0.58725,0.40625 1.03125,0.40625 0.312,0 0.5645,-0.0755 0.8125,-0.1875 l -0.0625,-0.25 c -0.22,0.088 -0.43625,0.125 -0.65625,0.125 -0.22,0 -0.457,-0.029 -0.625,-0.125 -0.312,-0.18 -0.53125,-0.528 -0.53125,-1 0,-0.472 0.188,-0.82 0.5,-1 0.168,-0.096 0.37375,-0.125 0.59375,-0.125 0.276,0 0.43625,0.045 0.65625,0.125 L 27.59375,44.375 C 27.32975,44.275 27.114,44.25 26.75,44.25 z m 15.40625,0 c -0.376,0 -0.55575,0.0755 -0.84375,0.1875 l 0.125,0.28125 c 0.264,-0.1 0.4075,-0.1875 0.6875,-0.1875 0.415999,0 0.53125,0.29925 0.53125,0.53125 0,0.284 -0.264251,0.58 -0.65625,1 l -0.6875,0.75 0,0.25 1.71875,0 0,-0.3125 -1.25,0 0.5,-0.5 C 42.62925,45.878 43,45.436 43,45 43,44.532 42.620249,44.25 42.15625,44.25 z m 2.34375,0 c -0.210937,0.04781 -0.4095,0.186 -0.5625,0.375 -0.191999,0.24 -0.28125,0.564 -0.28125,1 0,0.656 0.240251,1.12775 0.65625,1.34375 0.132,0.068 0.262251,0.125 0.40625,0.125 0.144,0 0.278251,-0.02975 0.40625,-0.09375 0.44,-0.22 0.65625,-0.707 0.65625,-1.375 0,-0.624 -0.19775,-1.06125 -0.59375,-1.28125 -0.143999,-0.08 -0.29675,-0.09375 -0.46875,-0.09375 -0.076,0 -0.148438,-0.01594 -0.21875,0 z m 18.0625,0 c -0.376,0 -0.55575,0.0755 -0.84375,0.1875 l 0.09375,0.28125 c 0.264,-0.1 0.4075,-0.1875 0.6875,-0.1875 0.415999,0 0.53125,0.29925 0.53125,0.53125 0,0.284 -0.233001,0.58 -0.625,1 l -0.71875,0.75 0,0.25 1.71875,0 0,-0.3125 -1.21875,0 0.46875,-0.5 c 0.348,-0.372 0.71875,-0.814 0.71875,-1.25 0,-0.468 -0.348501,-0.75 -0.8125,-0.75 z m 2.3125,0 c -0.210937,0.04781 -0.37825,0.186 -0.53125,0.375 -0.191999,0.24 -0.28125,0.564 -0.28125,1 0,0.656 0.209001,1.12775 0.625,1.34375 0.132,0.068 0.262251,0.125 0.40625,0.125 0.144,0 0.278251,-0.02975 0.40625,-0.09375 0.44,-0.22 0.65625,-0.707 0.65625,-1.375 0,-0.624 -0.19775,-1.06125 -0.59375,-1.28125 -0.143999,-0.08 -0.29675,-0.09375 -0.46875,-0.09375 -0.076,0 -0.148438,-0.01594 -0.21875,0 z m 3.5625,0.03125 -1.90625,2.78125 0.34375,0 1.90625,-2.78125 -0.34375,0 z M 67.03125,44.375 c -0.284,0 -0.46875,0.2465 -0.46875,0.5625 0,0.32 0.1455,0.53125 0.4375,0.53125 0.288,0 0.46875,-0.2585 0.46875,-0.5625 0,-0.328 -0.1495,-0.53125 -0.4375,-0.53125 z M 44.75,44.53125 c 0.116,0 0.2125,0.049 0.3125,0.125 0.248,0.192 0.375,0.50475 0.375,0.96875 0,0.508 -0.14225,0.8705 -0.40625,1.0625 -0.096,0.072 -0.1965,0.09375 -0.3125,0.09375 -0.116,0 -0.2165,-0.02975 -0.3125,-0.09375 C 44.134251,46.5075 44,46.13375 44,45.59375 c 0,-0.556 0.238001,-1.0625 0.75,-1.0625 z m 20.375,0 c 0.116,0 0.2125,0.049 0.3125,0.125 0.248,0.192 0.40625,0.50475 0.40625,0.96875 0,0.508 -0.14225,0.8705 -0.40625,1.0625 -0.096,0.072 -0.1965,0.09375 -0.3125,0.09375 -0.116,0 -0.24775,-0.02975 -0.34375,-0.09375 -0.271999,-0.18 -0.40625,-0.55375 -0.40625,-1.09375 0,-0.556 0.238001,-1.0625 0.75,-1.0625 z m 1.84375,0.03125 c 0.24,0 0.3125,0.15025 0.3125,0.40625 0,0.172 -0.098,0.3125 -0.25,0.3125 -0.208,0 -0.28125,-0.17025 -0.28125,-0.40625 0,-0.156 0.08275,-0.3125 0.21875,-0.3125 z m 1.3125,1.25 c -0.112,0 -0.2165,0.05625 -0.3125,0.15625 -0.096,0.1 -0.125,0.22225 -0.125,0.40625 0,0.184 0.033,0.3455 0.125,0.4375 0.092,0.092 0.21575,0.125 0.34375,0.125 0.3,0 0.4375,-0.293 0.4375,-0.625 0,-0.196 -0.05225,-0.299 -0.15625,-0.375 -0.104,-0.076 -0.2005,-0.125 -0.3125,-0.125 z m 0,0.1875 c 0.032,0 0.06575,0.01525 0.09375,0.03125 0.124,0.048 0.1875,0.15575 0.1875,0.34375 0,0.136 -0.0065,0.22125 -0.0625,0.28125 -0.056,0.06 -0.1235,0.09375 -0.1875,0.09375 -0.064,0 -0.1315,-0.0105 -0.1875,-0.0625 -0.076,-0.076 -0.09375,-0.203 -0.09375,-0.375 0,-0.172 0.09,-0.3125 0.25,-0.3125 z m -23.5625,4.25 c -0.210937,0.04781 -0.37825,0.186 -0.53125,0.375 -0.191999,0.24 -0.28125,0.564 -0.28125,1 0,0.656 0.209001,1.12775 0.625,1.34375 0.132,0.068 0.262251,0.125 0.40625,0.125 0.144,0 0.278251,-0.02975 0.40625,-0.09375 C 45.78375,52.78 46,52.293 46,51.625 46,51.001 45.80225,50.56375 45.40625,50.34375 45.262251,50.26375 45.1095,50.25 44.9375,50.25 c -0.076,0 -0.148438,-0.01594 -0.21875,0 z m 20.40625,0 c -0.210937,0.04781 -0.4095,0.186 -0.5625,0.375 -0.191999,0.24 -0.28125,0.564 -0.28125,1 0,0.656 0.240251,1.12775 0.65625,1.34375 0.132,0.068 0.262251,0.125 0.40625,0.125 0.144,0 0.278251,-0.02975 0.40625,-0.09375 0.44,-0.22 0.65625,-0.707 0.65625,-1.375 0,-0.624 -0.19775,-1.06125 -0.59375,-1.28125 -0.143999,-0.08 -0.29675,-0.09375 -0.46875,-0.09375 -0.076,0 -0.148438,-0.01594 -0.21875,0 z m -39.625,0.03125 0,2.78125 1,0 c 0.567999,0 0.925,-0.26425 1.125,-0.65625 0.108,-0.212 0.15625,-0.47 0.15625,-0.75 0,-0.28 -0.04825,-0.538 -0.15625,-0.75 -0.2,-0.392 -0.557001,-0.625 -1.125,-0.625 l -1,0 z m 16.15625,0 0,1.34375 c 0.028,0 0.06575,0.01 0.09375,0 0.172,-0.02 0.328,-0.03125 0.5,-0.03125 0.296,0 0.49225,0.0082 0.65625,0.15625 0.116,0.108 0.1875,0.2575 0.1875,0.4375 0,0.216 -0.118,0.3415 -0.25,0.4375 -0.16,0.116 -0.40175,0.15625 -0.59375,0.15625 -0.244,0 -0.429,-0.065 -0.625,-0.125 l -0.09375,0.3125 c 0.244,0.088 0.542,0.125 0.75,0.125 0.132,0 0.26225,-0.0305 0.40625,-0.0625 0.16,-0.032 0.28225,-0.0875 0.40625,-0.1875 0.204,-0.172 0.3125,-0.3955 0.3125,-0.6875 0,-0.124 -0.0105,-0.259 -0.0625,-0.375 -0.152,-0.316 -0.460751,-0.5 -0.96875,-0.5 -0.12,0 -0.25425,0.01525 -0.40625,0.03125 l 0,-0.75 1.28125,0 0,-0.28125 -1.59375,0 z m 20.375,0 0,1.34375 c 0.028,0 0.06575,0.01 0.09375,0 0.172,-0.02 0.328,-0.03125 0.5,-0.03125 0.296,0 0.5235,0.0082 0.6875,0.15625 0.116,0.108 0.15625,0.2575 0.15625,0.4375 0,0.216 -0.118,0.3415 -0.25,0.4375 -0.16,0.116 -0.40175,0.15625 -0.59375,0.15625 -0.244,0 -0.429,-0.065 -0.625,-0.125 l -0.09375,0.3125 c 0.244,0.088 0.542,0.125 0.75,0.125 0.132,0 0.26225,-0.0305 0.40625,-0.0625 0.16,-0.032 0.3135,-0.0875 0.4375,-0.1875 0.204,-0.172 0.3125,-0.3955 0.3125,-0.6875 0,-0.124 -0.04175,-0.259 -0.09375,-0.375 -0.152,-0.316 -0.429501,-0.5 -0.9375,-0.5 -0.12,0 -0.25425,0.01525 -0.40625,0.03125 l 0,-0.75 1.28125,0 0,-0.28125 -1.625,0 z m 6.625,0 -1.875,2.78125 0.34375,0 1.875,-2.78125 -0.34375,0 z M 67.25,50.375 c -0.284,0 -0.4375,0.2465 -0.4375,0.5625 0,0.32 0.1455,0.53125 0.4375,0.53125 0.288,0 0.4375,-0.2585 0.4375,-0.5625 0,-0.328 -0.1495,-0.53125 -0.4375,-0.53125 z m -22.28125,0.15625 c 0.116,0 0.2125,0.049 0.3125,0.125 0.248,0.192 0.40625,0.50475 0.40625,0.96875 0,0.508 -0.14225,0.8705 -0.40625,1.0625 -0.096,0.072 -0.1965,0.09375 -0.3125,0.09375 -0.116,0 -0.24775,-0.02975 -0.34375,-0.09375 -0.271999,-0.18 -0.40625,-0.55375 -0.40625,-1.09375 0,-0.556 0.238001,-1.0625 0.75,-1.0625 z m 20.40625,0 c 0.116,0 0.2125,0.049 0.3125,0.125 0.248,0.192 0.375,0.50475 0.375,0.96875 0,0.508 -0.14225,0.8705 -0.40625,1.0625 -0.096,0.072 -0.1965,0.09375 -0.3125,0.09375 -0.116,0 -0.2165,-0.02975 -0.3125,-0.09375 -0.271999,-0.18 -0.40625,-0.55375 -0.40625,-1.09375 0,-0.556 0.238001,-1.0625 0.75,-1.0625 z m -39.53125,0.03125 0.625,0 c 0.479999,0 0.70375,0.23525 0.84375,0.53125 0.08,0.168 0.125,0.3465 0.125,0.5625 0,0.216 -0.045,0.42575 -0.125,0.59375 -0.14,0.296 -0.367751,0.5 -0.84375,0.5 l -0.625,0 0,-2.1875 z m 41.375,0 c 0.24,0 0.28125,0.15025 0.28125,0.40625 0,0.172 -0.098,0.3125 -0.25,0.3125 -0.208,0 -0.25,-0.17025 -0.25,-0.40625 0,-0.156 0.08275,-0.3125 0.21875,-0.3125 z m 1.3125,1.25 c -0.112,0 -0.2165,0.05625 -0.3125,0.15625 -0.096,0.1 -0.15625,0.22225 -0.15625,0.40625 0,0.184 0.06425,0.3455 0.15625,0.4375 0.092,0.092 0.1845,0.125 0.3125,0.125 0.3,0 0.46875,-0.293 0.46875,-0.625 0,-0.196 -0.05225,-0.299 -0.15625,-0.375 -0.104,-0.076 -0.2005,-0.125 -0.3125,-0.125 z m 0,0.1875 c 0.032,0 0.06575,0.01525 0.09375,0.03125 0.124,0.048 0.1875,0.15575 0.1875,0.34375 0,0.136 -0.03775,0.22125 -0.09375,0.28125 -0.056,0.06 -0.1235,0.09375 -0.1875,0.09375 -0.064,0 -0.10025,-0.0105 -0.15625,-0.0625 -0.076,-0.076 -0.125,-0.203 -0.125,-0.375 C 68.25,52.1405 68.37125,52 68.53125,52 z m -24.375,4.25 c -0.210937,0.04781 -0.4095,0.186 -0.5625,0.375 -0.191999,0.24 -0.28125,0.564 -0.28125,1 0,0.656 0.240251,1.12775 0.65625,1.34375 0.132,0.068 0.262251,0.125 0.40625,0.125 0.144,0 0.278251,-0.02975 0.40625,-0.09375 0.44,-0.22 0.65625,-0.707 0.65625,-1.375 0,-0.624 -0.19775,-1.06125 -0.59375,-1.28125 C 44.699751,56.26375 44.547,56.25 44.375,56.25 c -0.076,0 -0.148438,-0.01594 -0.21875,0 z m 2.53125,0 c -0.210938,0.04781 -0.37825,0.186 -0.53125,0.375 -0.192,0.24 -0.3125,0.564 -0.3125,1 0,0.656 0.24025,1.12775 0.65625,1.34375 0.132,0.068 0.26225,0.125 0.40625,0.125 0.144,0 0.27825,-0.02975 0.40625,-0.09375 0.439999,-0.22 0.65625,-0.707 0.65625,-1.375 0,-0.624 -0.197751,-1.06125 -0.59375,-1.28125 -0.144,-0.08 -0.29675,-0.09375 -0.46875,-0.09375 -0.076,0 -0.148438,-0.01594 -0.21875,0 z m 17.125,0 c -0.210938,0.04781 -0.4095,0.186 -0.5625,0.375 -0.192,0.24 -0.28125,0.564 -0.28125,1 0,0.656 0.209,1.12775 0.625,1.34375 0.132,0.068 0.26225,0.125 0.40625,0.125 0.144,0 0.3095,-0.02975 0.4375,-0.09375 0.439999,-0.22 0.625,-0.707 0.625,-1.375 0,-0.624 -0.197751,-1.06125 -0.59375,-1.28125 -0.144,-0.08 -0.2655,-0.09375 -0.4375,-0.09375 -0.076,0 -0.148438,-0.01594 -0.21875,0 z m 2.53125,0 c -0.210937,0.04781 -0.4095,0.186 -0.5625,0.375 -0.191999,0.24 -0.28125,0.564 -0.28125,1 0,0.656 0.240251,1.12775 0.65625,1.34375 0.132,0.068 0.262251,0.125 0.40625,0.125 0.144,0 0.278251,-0.02975 0.40625,-0.09375 0.44,-0.22 0.65625,-0.707 0.65625,-1.375 0,-0.624 -0.19775,-1.06125 -0.59375,-1.28125 C 66.887251,56.26375 66.7345,56.25 66.5625,56.25 c -0.076,0 -0.148438,-0.01594 -0.21875,0 z m -41.125,0.03125 0,0.28125 0.90625,0 0,2.5 0.34375,0 0,-2.5 0.9375,0 0,-0.28125 -2.1875,0 z m 16.46875,0 -0.59375,0.25 0.09375,0.28125 0.5625,-0.21875 0,2.15625 -0.6875,0 0,0.3125 1.625,0 0,-0.3125 -0.625,0 0,-2.46875 -0.375,0 z m 19.625,0 -0.59375,0.25 0.125,0.28125 0.53125,-0.21875 0,2.15625 -0.6875,0 0,0.3125 1.65625,0 0,-0.3125 -0.625,0 0,-2.46875 -0.40625,0 z m 8.5625,0 -1.875,2.78125 0.34375,0 1.875,-2.78125 -0.34375,0 z M 68.46875,56.375 c -0.284,0 -0.4375,0.2465 -0.4375,0.5625 0,0.32 0.1455,0.53125 0.4375,0.53125 0.288,0 0.4375,-0.2585 0.4375,-0.5625 0,-0.328 -0.1495,-0.53125 -0.4375,-0.53125 z m -24.0625,0.15625 c 0.116,0 0.2125,0.049 0.3125,0.125 0.248,0.192 0.375,0.50475 0.375,0.96875 0,0.508 -0.14225,0.8705 -0.40625,1.0625 -0.096,0.072 -0.1965,0.09375 -0.3125,0.09375 -0.116,0 -0.2165,-0.02975 -0.3125,-0.09375 -0.271999,-0.18 -0.40625,-0.55375 -0.40625,-1.09375 0,-0.556 0.238001,-1.0625 0.75,-1.0625 z m 2.53125,0 c 0.116,0 0.2125,0.049 0.3125,0.125 0.248,0.192 0.375,0.50475 0.375,0.96875 0,0.508 -0.111,0.8705 -0.375,1.0625 -0.096,0.072 -0.22775,0.09375 -0.34375,0.09375 -0.116,0 -0.2165,-0.02975 -0.3125,-0.09375 -0.272,-0.18 -0.40625,-0.55375 -0.40625,-1.09375 0,-0.556 0.238,-1.0625 0.75,-1.0625 z m 17.09375,0 c 0.116,0 0.24375,0.049 0.34375,0.125 0.248,0.192 0.375,0.50475 0.375,0.96875 0,0.508 -0.14225,0.8705 -0.40625,1.0625 -0.096,0.072 -0.1965,0.09375 -0.3125,0.09375 -0.116,0 -0.2165,-0.02975 -0.3125,-0.09375 -0.272,-0.18 -0.4375,-0.55375 -0.4375,-1.09375 0,-0.556 0.238,-1.0625 0.75,-1.0625 z m 2.5625,0 c 0.116,0 0.2125,0.049 0.3125,0.125 0.248,0.192 0.375,0.50475 0.375,0.96875 0,0.508 -0.14225,0.8705 -0.40625,1.0625 -0.096,0.072 -0.1965,0.09375 -0.3125,0.09375 -0.116,0 -0.2165,-0.02975 -0.3125,-0.09375 -0.271999,-0.18 -0.40625,-0.55375 -0.40625,-1.09375 0,-0.556 0.238001,-1.0625 0.75,-1.0625 z m 1.84375,0.03125 c 0.24,0 0.28125,0.15025 0.28125,0.40625 0,0.172 -0.098,0.3125 -0.25,0.3125 -0.208,0 -0.25,-0.17025 -0.25,-0.40625 0,-0.156 0.08275,-0.3125 0.21875,-0.3125 z m 1.3125,1.25 c -0.112,0 -0.2165,0.05625 -0.3125,0.15625 -0.096,0.1 -0.15625,0.22225 -0.15625,0.40625 0,0.184 0.06425,0.3455 0.15625,0.4375 0.092,0.092 0.1845,0.125 0.3125,0.125 0.3,0 0.46875,-0.293 0.46875,-0.625 0,-0.196 -0.05225,-0.299 -0.15625,-0.375 -0.104,-0.076 -0.2005,-0.125 -0.3125,-0.125 z m 0,0.1875 c 0.032,0 0.06575,0.01525 0.09375,0.03125 0.124,0.048 0.1875,0.15575 0.1875,0.34375 0,0.136 -0.03775,0.22125 -0.09375,0.28125 -0.056,0.06 -0.1235,0.09375 -0.1875,0.09375 -0.064,0 -0.10025,-0.0105 -0.15625,-0.0625 -0.076,-0.076 -0.125,-0.203 -0.125,-0.375 C 69.46875,58.1405 69.59,58 69.75,58 z"
         style="font-size:4px;font-style:normal;font-variant:normal;font-weight:normal;font-stretch:normal;line-height:125%;letter-spacing:0px;word-spacing:0px;fill:#4d4d4d;fill-opacity:1;stroke:none;font-family:Cantarell;-inkscape-font-specification:Cantarell"
         inkscape:connector-curvature="0" />
      <g
         id="g19226">
        <path
           style="font-size:3.91965151px;font-style:normal;font-variant:normal;font-weight:bold;font-stretch:normal;text-align:center;line-height:125%;letter-spacing:0px;word-spacing:0px;text-anchor:middle;fill:#4d4d4d;fill-opacity:1;stroke:none;font-family:Cantarell;-inkscape-font-specification:Cantarell Bold"
           d="m 20,18.125 0,0.4375 0.90625,0 0,2.28125 0.46875,0 0,-2.28125 0.90625,0 0,-0.4375 -2.28125,0 z m 4.53125,0 0,2.71875 0.34375,0 0.03125,-0.09375 c 0.129349,0.0666 0.296179,0.125 0.5,0.125 0.615385,0 0.96875,-0.3612 0.96875,-0.96875 0,-0.72513 -0.482928,-1 -0.90625,-1 C 25.300206,18.90625 25.129348,18.9491 25,19 l 0,-0.875 -0.46875,0 z m 4.4375,0 0,2.21875 c 0,0.26654 0.06894,0.53125 0.46875,0.53125 0.21558,0 0.370866,-0.07025 0.4375,-0.09375 l 0,-0.3125 C 29.80837,20.48445 29.699473,20.5 29.625,20.5 c -0.184224,0 -0.21875,-0.09702 -0.21875,-0.28125 l 0,-2.09375 -0.4375,0 z m 3.15625,0 -0.71875,0.3125 0.125,0.40625 0.59375,-0.25 0,1.84375 -0.6875,0 0,0.40625 1.8125,0 0,-0.40625 -0.625,0 0,-2.3125 -0.5,0 z m -8.90625,0.78125 c -0.32533,0 -0.487812,0.07797 -0.625,0.125 l 0,0.375 c 0.172464,-0.0706 0.339187,-0.125 0.53125,-0.125 0.388045,0 0.46875,0.08484 0.46875,0.40625 l -0.375,0.03125 c -0.505634,0.0314 -0.78125,0.22138 -0.78125,0.59375 0,0.32925 0.244687,0.5625 0.65625,0.5625 0.227339,0 0.413553,-0.06222 0.5625,-0.15625 l 0.0625,0.125 0.375,0 0,-1.15625 c 0,-0.44292 -0.181222,-0.78125 -0.875,-0.78125 z m 4.3125,0 c -0.462519,0 -0.875,0.40814 -0.875,1 0,0.57227 0.317982,0.96875 1,0.96875 0.250858,0 0.483785,-0.02709 0.65625,-0.09375 l 0,-0.34375 c -0.160706,0.0314 -0.335053,0.09375 -0.59375,0.09375 -0.33709,0 -0.570232,-0.0926 -0.59375,-0.4375 l 1.28125,0 0,-0.1875 c 0,-0.58402 -0.283134,-1 -0.875,-1 z m -2.1875,0.375 c 0.313572,0 0.5625,0.16629 0.5625,0.65625 0,0.44292 -0.248929,0.59375 -0.5625,0.59375 -0.133268,0 -0.257518,-0.04275 -0.34375,-0.09375 l 0,-1.09375 c 0.125428,-0.047 0.241839,-0.0625 0.34375,-0.0625 z m 2.1875,0 c 0.227339,0 0.40625,0.16301 0.40625,0.46875 l -0.78125,0 c 0.01568,-0.30574 0.182937,-0.46875 0.375,-0.46875 z m -4.25,0.75 0.34375,0 0,0.375 c -0.101911,0.0627 -0.206348,0.125 -0.40625,0.125 -0.195983,0 -0.3125,-0.10108 -0.3125,-0.25 0,-0.14895 0.120223,-0.23432 0.375,-0.25 z m 10.46875,0.3125 0,0.5625 0.5625,0 0,-0.5625 -0.5625,0 z"
           transform="translate(0,956.36218)"
           id="path19143"
           inkscape:connector-curvature="0" />
        <path
           style="font-size:3.91965151px;font-style:normal;font-variant:normal;font-weight:normal;font-stretch:normal;text-align:center;line-height:125%;letter-spacing:0px;word-spacing:0px;text-anchor:middle;fill:#4d4d4d;fill-opacity:1;stroke:none;font-family:Cantarell;-inkscape-font-specification:Cantarell"
           d="m 54.4375,18.09375 c -0.148947,0 -0.296393,0.01536 -0.4375,0.09375 -0.141108,0.0784 -0.238134,0.19481 -0.28125,0.34375 -0.01568,0.051 -0.03125,0.10529 -0.03125,0.15625 0,0.16854 0.08929,0.35879 0.25,0.53125 L 54.09375,19.375 54,19.40625 c -0.08231,0.0666 -0.156036,0.1287 -0.21875,0.1875 -0.215581,0.1999 -0.3125,0.44045 -0.3125,0.71875 0,0.36452 0.272125,0.625 0.65625,0.625 0.482117,0 0.717785,-0.19437 1,-0.46875 l 0.375,0.375 0.40625,0 -0.5625,-0.59375 0.625,-0.6875 -0.1875,-0.15625 L 55.1875,20.0625 54.5,19.375 54.75,19.15625 c 0.02744,-0.0235 0.07023,-0.0429 0.09375,-0.0625 l 0.03125,-0.0625 c 0.121509,-0.12543 0.203071,-0.23008 0.21875,-0.34375 0.0039,-0.0353 0,-0.06244 0,-0.09375 0,-0.0706 1.1e-4,-0.15996 -0.03125,-0.21875 -0.101911,-0.1999 -0.315347,-0.28125 -0.625,-0.28125 z m -18.53125,0.03125 0,2.71875 0.34375,0 0,-1.25 1.125,0 0,-0.3125 -1.125,0 0,-0.875 1.25,0 0,-0.28125 -1.59375,0 z m 21.65625,0 0,2.71875 0.3125,0 0,-1.15625 c 0.11367,0.008 0.241839,0.03125 0.34375,0.03125 0.22734,0 0.483892,-0.04665 0.625,-0.09375 0.290054,-0.098 0.519491,-0.32689 0.53125,-0.6875 0,-0.38413 -0.213759,-0.67542 -0.53125,-0.78125 -0.06663,-0.0196 -0.139607,-0.03125 -0.4375,-0.03125 l -0.84375,0 z m -16.125,0.09375 0,2.625 0.3125,0 0,-2.625 -0.3125,0 z m 10,0 0,0.3125 0.3125,0 0,-0.3125 -0.3125,0 z m 3,0.125 c 0.199902,0 0.34375,0.14777 0.34375,0.34375 0,0.0627 -0.03104,0.11695 -0.09375,0.1875 -0.03136,0.0353 -0.08951,0.0818 -0.1875,0.15625 l -0.15625,0.15625 -0.125,-0.125 C 54.12076,18.9645 54,18.85986 54,18.71875 c 0,-0.0706 0.0428,-0.15212 0.09375,-0.21875 0.06271,-0.0823 0.186965,-0.15625 0.34375,-0.15625 z m 3.4375,0.0625 0.375,0 c 0.176384,0 0.292795,-0.0078 0.34375,0 0.270456,0.0274 0.4375,0.20603 0.4375,0.5 0,0.4782 -0.33833,0.53125 -0.78125,0.53125 -0.101911,0 -0.245652,-0.01955 -0.375,-0.03125 l 0,-1 z m 11.4375,0.0625 0,0.46875 -0.3125,0 0,0.28125 0.3125,0 0,1.03125 c 0,0.39981 0.139286,0.625 0.53125,0.625 0.133268,0 0.292473,-0.0154 0.4375,-0.0625 l 0,-0.25 c -0.10191,0.0274 -0.23008,0.03125 -0.34375,0.03125 -0.243018,0 -0.28125,-0.12414 -0.28125,-0.375 l 0,-1 0.625,0 0,-0.28125 -0.625,0 0,-0.46875 -0.34375,0 z m -30.53125,0.4375 c -0.184224,0 -0.362705,0.08939 -0.53125,0.21875 l -0.0625,-0.15625 -0.25,0 0,1.875 0.34375,0 0,-1.5 c 0.137188,-0.0901 0.280821,-0.15625 0.40625,-0.15625 0.121509,0 0.214509,0.0233 0.3125,0.0625 l 0.03125,0 0,-0.28125 c -0.08231,-0.0235 -0.159848,-0.0625 -0.25,-0.0625 z m 1.375,0 c -0.274375,0 -0.472134,0.11653 -0.625,0.3125 -0.145027,0.19599 -0.21875,0.43654 -0.21875,0.71875 0,0.61147 0.322115,0.9375 0.9375,0.9375 0.211661,0 0.432937,-0.02714 0.625,-0.09375 l 0,-0.25 c -0.184224,0.0588 -0.366625,0.09375 -0.53125,0.09375 -0.239098,0 -0.4215,-0.06992 -0.53125,-0.1875 C 39.70275,20.31991 39.62892,20.1803 39.625,20 l 1.3125,0 0,-0.03125 0,-0.1875 c 0,-0.54483 -0.283454,-0.875 -0.78125,-0.875 z m 6.125,0 c -0.274375,0 -0.503384,0.11653 -0.65625,0.3125 -0.145027,0.19599 -0.21875,0.43654 -0.21875,0.71875 0,0.61147 0.353365,0.9375 0.96875,0.9375 0.211661,0 0.401687,-0.02714 0.59375,-0.09375 l 0,-0.25 c -0.184223,0.0588 -0.366624,0.09375 -0.53125,0.09375 -0.239098,0 -0.4215,-0.06992 -0.53125,-0.1875 C 45.7965,20.31991 45.72267,20.1803 45.71875,20 l 1.3125,0 0,-0.03125 0,-0.1875 c 0,-0.54483 -0.252204,-0.875 -0.75,-0.875 z m 2.1875,0 c -0.199902,0 -0.417152,0.06206 -0.65625,0.1875 L 47.75,18.9375 l -0.25,0 0,1.90625 0.34375,0 0,-1.53125 c 0.192062,-0.0902 0.351054,-0.125 0.5,-0.125 0.305733,0 0.4375,0.12392 0.4375,0.4375 l 0,1.21875 0.3125,0 0,-1.28125 c 0,-0.3998 -0.217356,-0.65625 -0.625,-0.65625 z m 12.09375,0 c -0.274375,0 -0.472134,0.11653 -0.625,0.3125 -0.145027,0.19599 -0.21875,0.43654 -0.21875,0.71875 0,0.61147 0.322115,0.9375 0.9375,0.9375 0.211661,0 0.432937,-0.02714 0.625,-0.09375 l 0,-0.25 C 61.097027,20.59005 60.914626,20.625 60.75,20.625 c -0.239098,0 -0.4215,-0.06992 -0.53125,-0.1875 C 60.109,20.31991 60.03517,20.1803 60.03125,20 l 1.28125,0 0.03125,-0.03125 0,-0.1875 c 0,-0.54483 -0.283454,-0.875 -0.78125,-0.875 z m 2.0625,0 c -0.184223,0 -0.331455,0.08939 -0.5,0.21875 l -0.0625,-0.15625 -0.25,0 0,1.875 0.3125,0 0,-1.5 c 0.137187,-0.0901 0.280821,-0.15625 0.40625,-0.15625 0.121509,0 0.214509,0.0233 0.3125,0.0625 l 0.0625,0 0,-0.28125 c -0.08231,-0.0235 -0.191098,-0.0625 -0.28125,-0.0625 z m 3.21875,0 c -0.274375,0 -0.472134,0.11653 -0.625,0.3125 C 65.073723,19.41474 65,19.65529 65,19.9375 c 0,0.61147 0.322115,0.9375 0.9375,0.9375 0.211661,0 0.432937,-0.02714 0.625,-0.09375 l 0,-0.25 C 66.378276,20.59005 66.195875,20.625 66.03125,20.625 65.792152,20.625 65.60975,20.55508 65.5,20.4375 65.39025,20.31991 65.31642,20.1803 65.3125,20 l 1.3125,0 0,-0.03125 0,-0.1875 c 0,-0.54483 -0.283455,-0.875 -0.78125,-0.875 z m 2.21875,0 c -0.199902,0 -0.448402,0.06206 -0.6875,0.1875 l -0.0625,-0.15625 -0.21875,0 0,1.90625 0.3125,0 0,-1.53125 c 0.192063,-0.0902 0.382303,-0.125 0.53125,-0.125 0.305733,0 0.40625,0.12392 0.40625,0.4375 l 0,1.21875 0.34375,0 0,-1.28125 c 0,-0.3998 -0.217357,-0.65625 -0.625,-0.65625 z m 7.15625,0 c -0.274376,0 -0.472134,0.11653 -0.625,0.3125 -0.145027,0.19599 -0.21875,0.43654 -0.21875,0.71875 0,0.61147 0.322116,0.9375 0.9375,0.9375 0.211661,0 0.432938,-0.02714 0.625,-0.09375 l 0,-0.25 c -0.184223,0.0588 -0.366625,0.09375 -0.53125,0.09375 -0.239099,0 -0.421499,-0.06992 -0.53125,-0.1875 C 74.76525,20.31991 74.691419,20.1803 74.6875,20 L 75.96875,20 76,19.96875 l 0,-0.1875 c 0,-0.54483 -0.283455,-0.875 -0.78125,-0.875 z M 42.625,18.9375 l -0.84375,0.84375 0.875,1.0625 0.375,0 -0.875,-1.0625 L 43,18.9375 l -0.375,0 z m 7.6875,0 c -0.141107,0 -0.253491,0.0154 -0.375,0.0625 -0.188143,0.0745 -0.375,0.21005 -0.375,0.46875 0,0.29789 0.253384,0.3982 0.40625,0.46875 l 0.3125,0.09375 c 0.09407,0.0353 0.187286,0.08187 0.25,0.125 0.07447,0.0509 0.09375,0.11303 0.09375,0.1875 0,0.18815 -0.198509,0.28125 -0.40625,0.28125 -0.231259,0 -0.444589,-0.0739 -0.65625,-0.15625 l 0,0.3125 c 0.172465,0.0745 0.397446,0.09375 0.6875,0.09375 0.290054,0 0.495652,-0.08534 0.625,-0.25 0.06663,-0.0823 0.09375,-0.17934 0.09375,-0.28125 0,-0.12151 -0.01144,-0.22235 -0.09375,-0.3125 -0.07055,-0.0784 -0.147553,-0.12468 -0.40625,-0.21875 L 50.1875,19.6875 C 50.10127,19.6561 50.027438,19.6446 50,19.625 c -0.06663,-0.0431 -0.09375,-0.07385 -0.09375,-0.1875 0,-0.0392 0.01939,-0.0858 0.0625,-0.125 0.10191,-0.0941 0.233786,-0.125 0.40625,-0.125 0.243018,0 0.413767,0.11706 0.5,0.15625 l 0,-0.28125 c -0.172465,-0.0823 -0.292152,-0.12108 -0.53125,-0.125 l -0.03125,0 z m 1.125,0 0,1.90625 0.3125,0 0,-1.90625 -0.3125,0 z m 12.53125,0 c -0.141107,0 -0.284741,0.0154 -0.40625,0.0625 -0.188143,0.0745 -0.34375,0.21005 -0.34375,0.46875 0,0.29789 0.253384,0.3982 0.40625,0.46875 l 0.28125,0.09375 c 0.09407,0.0353 0.218536,0.08187 0.28125,0.125 0.07447,0.0509 0.09375,0.11303 0.09375,0.1875 0,0.18815 -0.198509,0.28125 -0.40625,0.28125 -0.23126,0 -0.475839,-0.0739 -0.6875,-0.15625 l 0,0.3125 c 0.172464,0.0745 0.428696,0.09375 0.71875,0.09375 0.290054,0 0.495652,-0.08534 0.625,-0.25 0.06663,-0.0823 0.09375,-0.17934 0.09375,-0.28125 0,-0.12151 -0.04269,-0.22235 -0.125,-0.3125 -0.07055,-0.0784 -0.116303,-0.12468 -0.375,-0.21875 l -0.3125,-0.125 c -0.08623,-0.0314 -0.128812,-0.0429 -0.15625,-0.0625 -0.06663,-0.0431 -0.125,-0.07385 -0.125,-0.1875 0,-0.0392 0.01939,-0.0858 0.0625,-0.125 0.101911,-0.0941 0.233785,-0.125 0.40625,-0.125 0.243018,0 0.413768,0.11706 0.5,0.15625 l 0,-0.28125 C 64.327536,18.9802 64.239099,18.94142 64,18.9375 l -0.03125,0 z m 7.0625,0 c -0.105831,0.0196 -0.210589,0.05456 -0.3125,0.09375 l 0,0.25 c 0.160706,-0.0549 0.433045,-0.09375 0.59375,-0.09375 0.235179,0 0.382625,0.06983 0.4375,0.21875 0.02352,0.0627 0.03125,0.17531 0.03125,0.3125 -0.290054,0.008 -0.530607,0.04675 -0.71875,0.09375 -0.246938,0.0666 -0.46875,0.24893 -0.46875,0.5625 0,0.30573 0.29575,0.5 0.625,0.5 0.211661,0 0.386116,-0.07373 0.5625,-0.21875 l 0.09375,0.1875 0.21875,0 0,-1.21875 c 0,-0.30965 -0.0501,-0.46048 -0.25,-0.59375 -0.10583,-0.0706 -0.2805,-0.09375 -0.5,-0.09375 -0.10975,0 -0.206669,-0.0196 -0.3125,0 z m 2.3125,0 c -0.141107,0 -0.284741,0.0154 -0.40625,0.0625 -0.188143,0.0745 -0.34375,0.21005 -0.34375,0.46875 0,0.29789 0.253384,0.3982 0.40625,0.46875 l 0.28125,0.09375 c 0.09407,0.0353 0.187286,0.08187 0.25,0.125 0.07447,0.0509 0.125,0.11303 0.125,0.1875 0,0.18815 -0.198508,0.28125 -0.40625,0.28125 -0.231259,0 -0.475839,-0.0739 -0.6875,-0.15625 l 0,0.3125 c 0.172465,0.0745 0.397446,0.09375 0.6875,0.09375 0.290054,0 0.526902,-0.08534 0.65625,-0.25 C 73.97288,20.5427 74,20.44566 74,20.34375 74,20.22224 73.95731,20.1214 73.875,20.03125 73.80445,19.95285 73.758697,19.90657 73.5,19.8125 l -0.3125,-0.125 c -0.08623,-0.0314 -0.128812,-0.0429 -0.15625,-0.0625 -0.06663,-0.0431 -0.125,-0.07385 -0.125,-0.1875 0,-0.0392 0.01939,-0.0858 0.0625,-0.125 0.10191,-0.0941 0.233786,-0.125 0.40625,-0.125 0.243019,0 0.413768,0.11706 0.5,0.15625 l 0,-0.28125 c -0.172465,-0.0823 -0.292152,-0.12108 -0.53125,-0.125 z m -29.96875,0.03125 0,1.28125 c 0,0.39981 0.217356,0.625 0.625,0.625 0.199902,0 0.417152,-0.06206 0.65625,-0.1875 l 0.0625,0.15625 0.25,0 0,-1.875 -0.34375,0 0,1.5 c -0.192063,0.0901 -0.351054,0.15625 -0.5,0.15625 -0.305733,0 -0.40625,-0.15518 -0.40625,-0.46875 l 0,-1.1875 -0.34375,0 z m -3.1875,0.1875 c 0.293973,0 0.4375,0.28409 0.4375,0.59375 l -1,0 c 0.03528,-0.30182 0.197973,-0.59375 0.5625,-0.59375 z m 6.125,0 c 0.293974,0 0.40625,0.28409 0.40625,0.59375 l -0.96875,0 c 0.03528,-0.30182 0.197973,-0.59375 0.5625,-0.59375 z m 14.28125,0 c 0.293973,0 0.4375,0.28409 0.4375,0.59375 l -1,0 c 0.03528,-0.30182 0.197973,-0.59375 0.5625,-0.59375 z m 5.28125,0 c 0.293973,0 0.4375,0.28409 0.4375,0.59375 l -1,0 c 0.03528,-0.30182 0.197973,-0.59375 0.5625,-0.59375 z m 9.375,0 c 0.293974,0 0.4375,0.28409 0.4375,0.59375 l -1,0 c 0.03528,-0.30182 0.197973,-0.59375 0.5625,-0.59375 z m -21,0.40625 0.71875,0.71875 -0.0625,0.0625 c -0.22342,0.21559 -0.452428,0.3125 -0.65625,0.3125 -0.258697,0 -0.46875,-0.17488 -0.46875,-0.4375 0,-0.17246 0.08919,-0.3393 0.28125,-0.5 L 54.25,19.5625 z m 17.53125,0.40625 0,0.4375 C 71.644062,20.53952 71.47734,20.625 71.25,20.625 c -0.04704,0 -0.08972,-0.01575 -0.125,-0.03125 -0.109751,-0.051 -0.1875,-0.11673 -0.1875,-0.25 0,-0.047 0.0038,-0.10917 0.03125,-0.15625 0.06271,-0.10191 0.167473,-0.15614 0.3125,-0.1875 0.07839,-0.0157 0.241303,-0.02335 0.5,-0.03125 z"
           transform="translate(0,956.36218)"
           id="path19157"
           inkscape:connector-curvature="0" />
      </g>
    </g>
  </g>
</svg>
