<?xml version="1.0" encoding="UTF-8" standalone="no"?>
<!-- Created with Inkscape (http://www.inkscape.org/) -->

<svg
   xmlns:dc="http://purl.org/dc/elements/1.1/"
   xmlns:cc="http://creativecommons.org/ns#"
   xmlns:rdf="http://www.w3.org/1999/02/22-rdf-syntax-ns#"
   xmlns:svg="http://www.w3.org/2000/svg"
   xmlns="http://www.w3.org/2000/svg"
   xmlns:xlink="http://www.w3.org/1999/xlink"
   xmlns:sodipodi="http://sodipodi.sourceforge.net/DTD/sodipodi-0.dtd"
   xmlns:inkscape="http://www.inkscape.org/namespaces/inkscape"
   width="96"
   height="96"
   id="svg2"
   version="1.1"
   inkscape:version="0.48.4 r9939"
   sodipodi:docname="audio-amr.svg">
  <defs
     id="defs4">
    <linearGradient
       inkscape:collect="always"
       id="linearGradient3222">
      <stop
         style="stop-color:#de005a;stop-opacity:1"
         offset="0"
         id="stop3224" />
      <stop
         style="stop-color:#a30444;stop-opacity:1"
         offset="1"
         id="stop3226" />
    </linearGradient>
    <linearGradient
       id="linearGradient3076"
       inkscape:collect="always">
      <stop
         id="stop3078"
         offset="0"
         style="stop-color:#ffe7f7;stop-opacity:1" />
      <stop
         id="stop3080"
         offset="1"
         style="stop-color:#ffc3ef;stop-opacity:1" />
    </linearGradient>
    <linearGradient
       inkscape:collect="always"
       id="linearGradient3048">
      <stop
         style="stop-color:#c16d16;stop-opacity:1"
         offset="0"
         id="stop3050" />
      <stop
         style="stop-color:#ff8e31;stop-opacity:1"
         offset="1"
         id="stop3052" />
    </linearGradient>
    <linearGradient
       inkscape:collect="always"
       id="linearGradient3119">
      <stop
         style="stop-color:#92948f;stop-opacity:0"
         offset="0"
         id="stop3121" />
      <stop
         id="stop3123"
         offset="0.4283945"
         style="stop-color:#9b9e98;stop-opacity:1" />
      <stop
         style="stop-color:#939690;stop-opacity:0"
         offset="1"
         id="stop3125" />
    </linearGradient>
    <linearGradient
       id="linearGradient3073"
       inkscape:collect="always">
      <stop
         id="stop3075"
         offset="0"
         style="stop-color:#ffffff;stop-opacity:0" />
      <stop
         style="stop-color:#ffffff;stop-opacity:1"
         offset="0.45872402"
         id="stop3085" />
      <stop
         id="stop3083"
         offset="1"
         style="stop-color:#ffffff;stop-opacity:0" />
    </linearGradient>
    <linearGradient
       inkscape:collect="always"
       id="linearGradient3047">
      <stop
         style="stop-color:#000000;stop-opacity:1"
         offset="0"
         id="stop3049" />
      <stop
         id="stop3055"
         offset="0.06123874"
         style="stop-color:#1a1a1a;stop-opacity:1" />
      <stop
         style="stop-color:#333333;stop-opacity:1"
         offset="0.16480456"
         id="stop3057" />
      <stop
         id="stop3059"
         offset="0.55385184"
         style="stop-color:#4d4d4d;stop-opacity:1" />
      <stop
         style="stop-color:#999999;stop-opacity:1"
         offset="1"
         id="stop3051" />
    </linearGradient>
    <linearGradient
       id="linearGradient3041"
       inkscape:collect="always">
      <stop
         id="stop3043"
         offset="0"
         style="stop-color:#1a1a1a;stop-opacity:1" />
      <stop
         id="stop3045"
         offset="1"
         style="stop-color:#808080;stop-opacity:1" />
    </linearGradient>
    <linearGradient
       inkscape:collect="always"
       id="linearGradient3029">
      <stop
         style="stop-color:#333333;stop-opacity:1"
         offset="0"
         id="stop3031" />
      <stop
         style="stop-color:#e0e0dd;stop-opacity:0;"
         offset="1"
         id="stop3033" />
    </linearGradient>
    <linearGradient
       inkscape:collect="always"
       xlink:href="#linearGradient3029"
       id="linearGradient3035"
       x1="35.355339"
       y1="1030.3622"
       x2="35.355339"
       y2="975.33282"
       gradientUnits="userSpaceOnUse"
       gradientTransform="matrix(1.1638085,0,0,1.1638085,-7.862809,-164.23642)" />
    <linearGradient
       inkscape:collect="always"
       xlink:href="#linearGradient3041"
       id="linearGradient3039"
       gradientUnits="userSpaceOnUse"
       x1="35.355339"
       y1="1030.3622"
       x2="35.355339"
       y2="975.33282"
       gradientTransform="matrix(1.1218695,0,0,1.1218695,-5.8497348,-122.18782)" />
    <linearGradient
       inkscape:collect="always"
       xlink:href="#linearGradient3047"
       id="linearGradient3053"
       x1="40"
       y1="1043.4336"
       x2="39.285713"
       y2="972.33325"
       gradientUnits="userSpaceOnUse" />
    <linearGradient
       inkscape:collect="always"
       xlink:href="#linearGradient3073"
       id="linearGradient3113"
       gradientUnits="userSpaceOnUse"
       gradientTransform="translate(0,-956.36218)"
       x1="14.869445"
       y1="978.90387"
       x2="24.52651"
       y2="969.24683" />
    <linearGradient
       inkscape:collect="always"
       xlink:href="#linearGradient3073"
       id="linearGradient3115"
       gradientUnits="userSpaceOnUse"
       gradientTransform="matrix(-1,0,0,1,96,-956.36218)"
       x1="15.152279"
       y1="978.62103"
       x2="26.263966"
       y2="967.50934" />
    <linearGradient
       inkscape:collect="always"
       xlink:href="#linearGradient3119"
       id="linearGradient3117"
       gradientUnits="userSpaceOnUse"
       gradientTransform="translate(0,-956.36218)"
       x1="13.131983"
       y1="980.64136"
       x2="25.549681"
       y2="967.86646" />
    <linearGradient
       inkscape:collect="always"
       xlink:href="#linearGradient3119"
       id="linearGradient3129"
       gradientUnits="userSpaceOnUse"
       gradientTransform="matrix(-1,0,0,1,96,0)"
       x1="13.131983"
       y1="980.64136"
       x2="25.549681"
       y2="967.86646" />
    <linearGradient
       inkscape:collect="always"
       xlink:href="#linearGradient3048"
       id="linearGradient3054"
       x1="49.267925"
       y1="996.57349"
       x2="49.267925"
       y2="1045.8627"
       gradientUnits="userSpaceOnUse" />
    <linearGradient
       inkscape:collect="always"
       xlink:href="#linearGradient3048"
       id="linearGradient3058"
       x1="115.80308"
       y1="985.47241"
       x2="115.80308"
       y2="1033.5543"
       gradientUnits="userSpaceOnUse" />
    <linearGradient
       inkscape:collect="always"
       xlink:href="#linearGradient3222"
       id="linearGradient3055"
       gradientUnits="userSpaceOnUse"
       x1="115.80308"
       y1="985.47241"
       x2="115.80308"
       y2="1025.3639"
       gradientTransform="matrix(1.4144782,0,0,1.4144782,-119.78686,-419.05496)" />
    <linearGradient
       inkscape:collect="always"
       xlink:href="#linearGradient3076"
       id="linearGradient3086"
       gradientUnits="userSpaceOnUse"
       gradientTransform="matrix(1.4144782,0,0,1.4144782,-119.78686,-417.12598)"
       x1="115.80308"
       y1="985.47241"
       x2="115.80308"
       y2="1025.3639" />
    <linearGradient
       inkscape:collect="always"
       xlink:href="#linearGradient3076"
       id="linearGradient3091"
       gradientUnits="userSpaceOnUse"
       gradientTransform="matrix(1.4144782,0,0,1.4144782,-119.78686,-418.126)"
       x1="115.80308"
       y1="985.47241"
       x2="115.80308"
       y2="1025.3639" />
    <linearGradient
       inkscape:collect="always"
       xlink:href="#linearGradient3076"
       id="linearGradient3093"
       gradientUnits="userSpaceOnUse"
       gradientTransform="matrix(1.4144782,0,0,1.4144782,-119.78686,-1375.4171)"
       x1="115.80308"
       y1="985.47241"
       x2="115.80308"
       y2="1025.3639" />
    <linearGradient
       gradientTransform="translate(0,-2.6171874e-6)"
       inkscape:collect="always"
       xlink:href="#linearGradient3052"
       id="linearGradient3058-4"
       x1="47.645657"
       y1="965.78027"
       x2="47.645657"
       y2="1041.1539"
       gradientUnits="userSpaceOnUse" />
    <linearGradient
       inkscape:collect="always"
       id="linearGradient3052">
      <stop
         style="stop-color:#f3f4f2;stop-opacity:1"
         offset="0"
         id="stop3054" />
      <stop
         style="stop-color:#fafafa;stop-opacity:1"
         offset="1"
         id="stop3056" />
    </linearGradient>
    <linearGradient
       inkscape:collect="always"
       xlink:href="#linearGradient3222"
       id="linearGradient3144"
       gradientUnits="userSpaceOnUse"
       gradientTransform="matrix(1.4144782,0,0,1.4144782,-119.78686,-419.05496)"
       x1="115.80308"
       y1="985.47241"
       x2="115.80308"
       y2="1025.3639" />
    <linearGradient
       inkscape:collect="always"
       xlink:href="#linearGradient3052"
       id="linearGradient3184"
       gradientUnits="userSpaceOnUse"
       gradientTransform="translate(0,-2.6171874e-6)"
       x1="47.645657"
       y1="965.78027"
       x2="47.645657"
       y2="1041.1539" />
    <linearGradient
       inkscape:collect="always"
       xlink:href="#linearGradient3197"
       id="linearGradient3142"
       gradientUnits="userSpaceOnUse"
       x1="-53.607376"
       y1="-8.0132647"
       x2="-12.256078"
       y2="24.827251" />
    <linearGradient
       inkscape:collect="always"
       id="linearGradient3197">
      <stop
         style="stop-color:#ffffff;stop-opacity:0"
         offset="0"
         id="stop3199" />
      <stop
         id="stop3205"
         offset="0.5311414"
         style="stop-color:#ffffff;stop-opacity:0.7" />
      <stop
         style="stop-color:#ffffff;stop-opacity:0"
         offset="1"
         id="stop3201" />
    </linearGradient>
    <linearGradient
       inkscape:collect="always"
       xlink:href="#linearGradient3197"
       id="linearGradient3144-8"
       gradientUnits="userSpaceOnUse"
       x1="-53.607376"
       y1="-8.0132647"
       x2="-12.256078"
       y2="24.827251" />
    <linearGradient
       inkscape:collect="always"
       xlink:href="#linearGradient3197"
       id="linearGradient3287"
       gradientUnits="userSpaceOnUse"
       x1="-53.607376"
       y1="-8.0132647"
       x2="-12.256078"
       y2="24.827251" />
    <linearGradient
       inkscape:collect="always"
       xlink:href="#linearGradient3197"
       id="linearGradient3289"
       gradientUnits="userSpaceOnUse"
       x1="-53.607376"
       y1="-8.0132647"
       x2="-12.256078"
       y2="24.827251" />
  </defs>
  <sodipodi:namedview
     id="base"
     pagecolor="#ffffff"
     bordercolor="#666666"
     borderopacity="1.0"
     inkscape:pageopacity="0.0"
     inkscape:pageshadow="2"
     inkscape:zoom="1.3802083"
     inkscape:cx="190.92459"
     inkscape:cy="48.544047"
     inkscape:document-units="px"
     inkscape:current-layer="layer1"
     showgrid="false"
     inkscape:window-width="1366"
     inkscape:window-height="715"
     inkscape:window-x="0"
     inkscape:window-y="28"
     inkscape:window-maximized="1"
     showguides="true"
     inkscape:guide-bbox="true" />
  <metadata
     id="metadata7">
    <rdf:RDF>
      <cc:Work
         rdf:about="">
        <dc:format>image/svg+xml</dc:format>
        <dc:type
           rdf:resource="http://purl.org/dc/dcmitype/StillImage" />
        <dc:title />
      </cc:Work>
    </rdf:RDF>
  </metadata>
  <g
     inkscape:label="Layer 1"
     inkscape:groupmode="layer"
     id="layer1"
     transform="translate(0,-956.36218)">
    <g
       id="g3033"
       transform="translate(0,-1.0000026)">
      <rect
         ry="10.595235"
         rx="10.595235"
         y="961.86218"
         x="3.5"
         height="89"
         width="89"
         id="rect3826"
         style="opacity:0.05;fill:#000000;fill-opacity:1;stroke:none" />
      <rect
         style="opacity:0.05;fill:#000000;fill-opacity:1;stroke:none"
         id="rect3824"
         width="88"
         height="88"
         x="4"
         y="962.36218"
         rx="10.476188"
         ry="10.476188" />
      <rect
         ry="10.357141"
         rx="10.357141"
         y="962.86218"
         x="4.5"
         height="87"
         width="87"
         id="rect3822"
         style="opacity:0.05;fill:#000000;fill-opacity:1;stroke:none" />
      <rect
         style="opacity:0.1;fill:#000000;fill-opacity:1;stroke:none"
         id="rect3820"
         width="86"
         height="86"
         x="5"
         y="963.36218"
         rx="10.238094"
         ry="10.238094" />
      <rect
         ry="10.119047"
         rx="10.119047"
         y="963.86218"
         x="5.5"
         height="85"
         width="85"
         id="rect3818"
         style="opacity:0.1;fill:#000000;fill-opacity:1;stroke:none" />
      <rect
         style="opacity:0.3;fill:#000000;fill-opacity:1;stroke:none"
         id="rect3131"
         width="84"
         height="84"
         x="6"
         y="964.36218"
         rx="10"
         ry="10" />
    </g>
    <path
       style="fill:#fafaf9;fill-opacity:1;stroke:none"
       d="M 16 6 C 10.46 6 6 10.46 6 16 L 6 72 L 90 72 L 90 16 C 90 10.46 85.54 6 80 6 L 16 6 z "
       transform="translate(0,956.36218)"
       id="rect3036" />
    <rect
       style="fill:url(#linearGradient3184);fill-opacity:1;stroke:none"
       id="rect3034"
       width="82"
       height="82"
       x="7"
       y="963.36218"
       rx="9.7619047"
       ry="9.7619047" />
    <path
       inkscape:connector-curvature="0"
       style="fill:#2e2a2e;fill-opacity:1;stroke:none"
       d="m 6,1028.3622 0,8 c 0,5.54 4.46,10 10,10 l 64,0 c 5.54,0 10,-4.46 10,-10 l 0,-8 -84,0 z"
       id="rect3066" />
    <text
       xml:space="preserve"
       style="font-size:40px;font-style:normal;font-variant:normal;font-weight:normal;font-stretch:normal;line-height:125%;letter-spacing:0px;word-spacing:0px;fill:#ffffff;fill-opacity:1;stroke:none;font-family:Cantarell;-inkscape-font-specification:Cantarell"
       x="47.438843"
       y="1041.5261"
       id="text3071"
       sodipodi:linespacing="125%"><tspan
         sodipodi:role="line"
         id="tspan3073"
         x="47.438843"
         y="1041.5261"
         style="font-size:12px;font-weight:bold;text-align:center;text-anchor:middle;fill:#ffffff;-inkscape-font-specification:Cantarell Bold">AMR</tspan></text>
    <g
       id="g3267"
       transform="matrix(0.66666669,0,0,0.66666669,-2.0364798,325.69728)">
      <path
         sodipodi:type="arc"
         style="fill:#312831;fill-opacity:1"
         id="path3095"
         sodipodi:cx="-50.354717"
         sodipodi:cy="32.603771"
         sodipodi:rx="37.675472"
         sodipodi:ry="37.675472"
         d="m -12.679245,32.603771 c 0,20.807589 -16.867883,37.675472 -37.675472,37.675472 -20.807589,0 -37.675473,-16.867883 -37.675473,-37.675472 0,-20.807589 16.867884,-37.675472 37.675473,-37.675472 20.807589,0 37.675472,16.867883 37.675472,37.675472 z"
         transform="matrix(1.1147836,0,0,1.1147836,131.18933,969.65117)" />
      <path
         transform="matrix(1.0875938,0,0,1.0875938,129.8202,970.53766)"
         d="m -12.679245,32.603771 c 0,20.807589 -16.867883,37.675472 -37.675472,37.675472 -20.807589,0 -37.675473,-16.867883 -37.675473,-37.675472 0,-20.807589 16.867884,-37.675472 37.675473,-37.675472 20.807589,0 37.675472,16.867883 37.675472,37.675472 z"
         sodipodi:ry="37.675472"
         sodipodi:rx="37.675472"
         sodipodi:cy="32.603771"
         sodipodi:cx="-50.354717"
         id="path3093"
         style="fill:#100c10;fill-opacity:1"
         sodipodi:type="arc" />
      <path
         sodipodi:type="arc"
         style="fill:#181018;fill-opacity:1"
         id="path3097"
         sodipodi:cx="-50.354717"
         sodipodi:cy="32.603771"
         sodipodi:rx="37.675472"
         sodipodi:ry="37.675472"
         d="m -12.679245,32.603771 c 0,20.807589 -16.867883,37.675472 -37.675472,37.675472 -20.807589,0 -37.675473,-16.867883 -37.675473,-37.675472 0,-20.807589 16.867884,-37.675472 37.675473,-37.675472 20.807589,0 37.675472,16.867883 37.675472,37.675472 z"
         transform="matrix(1.0322243,0,0,1.0322243,127.03208,972.34292)" />
      <path
         transform="matrix(1.0113295,0,0,1.0113295,125.97993,973.02416)"
         d="m -12.679245,32.603771 c 0,20.807589 -16.867883,37.675472 -37.675472,37.675472 -20.807589,0 -37.675473,-16.867883 -37.675473,-37.675472 0,-20.807589 16.867884,-37.675472 37.675473,-37.675472 20.807589,0 37.675472,16.867883 37.675472,37.675472 z"
         sodipodi:ry="37.675472"
         sodipodi:rx="37.675472"
         sodipodi:cy="32.603771"
         sodipodi:cx="-50.354717"
         id="path3099"
         style="fill:#100c10;fill-opacity:1"
         sodipodi:type="arc" />
      <path
         sodipodi:type="arc"
         style="fill:#181018;fill-opacity:1"
         id="path3101"
         sodipodi:cx="-50.354717"
         sodipodi:cy="32.603771"
         sodipodi:rx="37.675472"
         sodipodi:ry="37.675472"
         d="m -12.679245,32.603771 c 0,20.807589 -16.867883,37.675472 -37.675472,37.675472 -20.807589,0 -37.675473,-16.867883 -37.675473,-37.675472 0,-20.807589 16.867884,-37.675472 37.675473,-37.675472 20.807589,0 37.675472,16.867883 37.675472,37.675472 z"
         transform="matrix(0.96257498,0,0,0.96257498,123.52491,974.61374)" />
      <path
         transform="matrix(0.93123278,0,0,0.93123278,121.94668,975.63561)"
         d="m -12.679245,32.603771 c 0,20.807589 -16.867883,37.675472 -37.675472,37.675472 -20.807589,0 -37.675473,-16.867883 -37.675473,-37.675472 0,-20.807589 16.867884,-37.675472 37.675473,-37.675472 20.807589,0 37.675472,16.867883 37.675472,37.675472 z"
         sodipodi:ry="37.675472"
         sodipodi:rx="37.675472"
         sodipodi:cy="32.603771"
         sodipodi:cx="-50.354717"
         id="path3103"
         style="fill:#100c10;fill-opacity:1"
         sodipodi:type="arc" />
      <path
         sodipodi:type="arc"
         style="fill:#181418;fill-opacity:1"
         id="path3105"
         sodipodi:cx="-50.354717"
         sodipodi:cy="32.603771"
         sodipodi:rx="37.675472"
         sodipodi:ry="37.675472"
         d="m -12.679245,32.603771 c 0,20.807589 -16.867883,37.675472 -37.675472,37.675472 -20.807589,0 -37.675473,-16.867883 -37.675473,-37.675472 0,-20.807589 16.867884,-37.675472 37.675473,-37.675472 20.807589,0 37.675472,16.867883 37.675472,37.675472 z"
         transform="matrix(0.77079178,0,0,0.77079178,113.86772,980.86658)" />
      <path
         transform="matrix(0.74317953,0,0,0.74317953,112.47731,981.76685)"
         d="m -12.679245,32.603771 c 0,20.807589 -16.867883,37.675472 -37.675472,37.675472 -20.807589,0 -37.675473,-16.867883 -37.675473,-37.675472 0,-20.807589 16.867884,-37.675472 37.675473,-37.675472 20.807589,0 37.675472,16.867883 37.675472,37.675472 z"
         sodipodi:ry="37.675472"
         sodipodi:rx="37.675472"
         sodipodi:cy="32.603771"
         sodipodi:cx="-50.354717"
         id="path3107"
         style="fill:#101010;fill-opacity:1"
         sodipodi:type="arc" />
      <path
         sodipodi:type="arc"
         style="fill:#181418;fill-opacity:1"
         id="path3109"
         sodipodi:cx="-50.354717"
         sodipodi:cy="32.603771"
         sodipodi:rx="37.675472"
         sodipodi:ry="37.675472"
         d="m -12.679245,32.603771 c 0,20.807589 -16.867883,37.675472 -37.675472,37.675472 -20.807589,0 -37.675473,-16.867883 -37.675473,-37.675472 0,-20.807589 16.867884,-37.675472 37.675473,-37.675472 20.807589,0 37.675472,16.867883 37.675472,37.675472 z"
         transform="matrix(0.70138992,0,0,0.70138992,110.37301,983.12936)" />
      <path
         transform="matrix(0.6700477,0,0,0.6700477,108.79478,984.15122)"
         d="m -12.679245,32.603771 c 0,20.807589 -16.867883,37.675472 -37.675472,37.675472 -20.807589,0 -37.675473,-16.867883 -37.675473,-37.675472 0,-20.807589 16.867884,-37.675472 37.675473,-37.675472 20.807589,0 37.675472,16.867883 37.675472,37.675472 z"
         sodipodi:ry="37.675472"
         sodipodi:rx="37.675472"
         sodipodi:cy="32.603771"
         sodipodi:cx="-50.354717"
         id="path3111"
         style="fill:#100c10;fill-opacity:1"
         sodipodi:type="arc" />
      <path
         transform="matrix(0.60781581,0,0,0.60781581,105.66111,986.18023)"
         d="m -12.679245,32.603771 c 0,20.807589 -16.867883,37.675472 -37.675472,37.675472 -20.807589,0 -37.675473,-16.867883 -37.675473,-37.675472 0,-20.807589 16.867884,-37.675472 37.675473,-37.675472 20.807589,0 37.675472,16.867883 37.675472,37.675472 z"
         sodipodi:ry="37.675472"
         sodipodi:rx="37.675472"
         sodipodi:cy="32.603771"
         sodipodi:cx="-50.354717"
         id="path3123"
         style="fill:#181418;fill-opacity:1"
         sodipodi:type="arc" />
      <path
         sodipodi:type="arc"
         style="fill:#100c10;fill-opacity:1"
         id="path3125"
         sodipodi:cx="-50.354717"
         sodipodi:cy="32.603771"
         sodipodi:rx="37.675472"
         sodipodi:ry="37.675472"
         d="m -12.679245,32.603771 c 0,20.807589 -16.867883,37.675472 -37.675472,37.675472 -20.807589,0 -37.675473,-16.867883 -37.675473,-37.675472 0,-20.807589 16.867884,-37.675472 37.675473,-37.675472 20.807589,0 37.675472,16.867883 37.675472,37.675472 z"
         transform="matrix(0.57334113,0,0,0.57334113,103.92515,987.30423)" />
      <path
         sodipodi:type="arc"
         style="opacity:0.2;fill:url(#linearGradient3287);fill-opacity:1"
         id="path3207"
         sodipodi:cx="-50.354717"
         sodipodi:cy="32.603771"
         sodipodi:rx="37.675472"
         sodipodi:ry="37.675472"
         d="m -50.354717,-5.071701 c 17.052133,3e-7 31.978294,11.453247 36.391711,27.924342 l -36.391711,9.75113 z"
         transform="matrix(-1.1147836,0,0,-1.1147836,18.911723,1042.3434)"
         sodipodi:start="4.712389"
         sodipodi:end="6.0213859" />
      <path
         sodipodi:end="6.0213859"
         sodipodi:start="4.712389"
         transform="matrix(1.1147836,0,0,1.1147836,131.18933,969.65117)"
         d="m -50.354717,-5.071701 c 17.052133,3e-7 31.978294,11.453247 36.391711,27.924342 l -36.391711,9.75113 z"
         sodipodi:ry="37.675472"
         sodipodi:rx="37.675472"
         sodipodi:cy="32.603771"
         sodipodi:cx="-50.354717"
         id="path3195"
         style="opacity:0.2;fill:url(#linearGradient3289);fill-opacity:1"
         sodipodi:type="arc" />
      <path
         sodipodi:type="arc"
         style="fill:#181818;fill-opacity:1"
         id="path3113"
         sodipodi:cx="-50.354717"
         sodipodi:cy="32.603771"
         sodipodi:rx="37.675472"
         sodipodi:ry="37.675472"
         d="m -12.679245,32.603771 c 0,20.807589 -16.867883,37.675472 -37.675472,37.675472 -20.807589,0 -37.675473,-16.867883 -37.675473,-37.675472 0,-20.807589 16.867884,-37.675472 37.675473,-37.675472 20.807589,0 37.675472,16.867883 37.675472,37.675472 z"
         transform="matrix(0.5124492,0,0,0.5124492,100.85895,989.28953)" />
      <path
         transform="matrix(0.47797452,0,0,0.47797452,99.122988,990.41353)"
         d="m -12.679245,32.603771 c 0,20.807589 -16.867883,37.675472 -37.675472,37.675472 -20.807589,0 -37.675473,-16.867883 -37.675473,-37.675472 0,-20.807589 16.867884,-37.675472 37.675473,-37.675472 20.807589,0 37.675472,16.867883 37.675472,37.675472 z"
         sodipodi:ry="37.675472"
         sodipodi:rx="37.675472"
         sodipodi:cy="32.603771"
         sodipodi:cx="-50.354717"
         id="path3115"
         style="fill:#ffad02;fill-opacity:1"
         sodipodi:type="arc" />
      <path
         sodipodi:type="arc"
         style="fill:#d37c1e;fill-opacity:1"
         id="path3117"
         sodipodi:cx="-50.354717"
         sodipodi:cy="32.603771"
         sodipodi:rx="37.675472"
         sodipodi:ry="37.675472"
         d="m -12.679245,32.603771 c 0,20.807589 -16.867883,37.675472 -37.675472,37.675472 -20.807589,0 -37.675473,-16.867883 -37.675473,-37.675472 0,-20.807589 16.867884,-37.675472 37.675473,-37.675472 20.807589,0 37.675472,16.867883 37.675472,37.675472 z"
         transform="matrix(0.2391143,0,0,0.2391143,87.095251,998.20127)" />
      <path
         transform="matrix(0.0716659,0,0,0.0716659,78.663433,1003.6607)"
         d="m -12.679245,32.603771 c 0,20.807589 -16.867883,37.675472 -37.675472,37.675472 -20.807589,0 -37.675473,-16.867883 -37.675473,-37.675472 0,-20.807589 16.867884,-37.675472 37.675473,-37.675472 20.807589,0 37.675472,16.867883 37.675472,37.675472 z"
         sodipodi:ry="37.675472"
         sodipodi:rx="37.675472"
         sodipodi:cy="32.603771"
         sodipodi:cx="-50.354717"
         id="path3119"
         style="fill:#000000;fill-opacity:1"
         sodipodi:type="arc" />
    </g>
  </g>
</svg>
