<?xml version="1.0" encoding="UTF-8" standalone="no"?>
<!-- Created with Inkscape (http://www.inkscape.org/) -->

<svg
   xmlns:dc="http://purl.org/dc/elements/1.1/"
   xmlns:cc="http://creativecommons.org/ns#"
   xmlns:rdf="http://www.w3.org/1999/02/22-rdf-syntax-ns#"
   xmlns:svg="http://www.w3.org/2000/svg"
   xmlns="http://www.w3.org/2000/svg"
   xmlns:xlink="http://www.w3.org/1999/xlink"
   xmlns:sodipodi="http://sodipodi.sourceforge.net/DTD/sodipodi-0.dtd"
   xmlns:inkscape="http://www.inkscape.org/namespaces/inkscape"
   width="96"
   height="96"
   id="svg2"
   version="1.1"
   inkscape:version="0.91 r13725"
   sodipodi:docname="drive-harddisk.svg">
  <defs
     id="defs4">
    <linearGradient
       inkscape:collect="always"
       id="linearGradient4456">
      <stop
         style="stop-color:#000000;stop-opacity:1;"
         offset="0"
         id="stop4458" />
      <stop
         style="stop-color:#2f2f2f;stop-opacity:1"
         offset="1"
         id="stop4460" />
    </linearGradient>
    <linearGradient
       id="linearGradient4407"
       inkscape:collect="always">
      <stop
         id="stop4409"
         offset="0"
         style="stop-color:#d2dde0;stop-opacity:1" />
      <stop
         style="stop-color:#e0e8ea;stop-opacity:1"
         offset="0.35344836"
         id="stop4411" />
      <stop
         id="stop4413"
         offset="1"
         style="stop-color:#dbe5e7;stop-opacity:1" />
    </linearGradient>
    <linearGradient
       inkscape:collect="always"
       id="linearGradient4384">
      <stop
         style="stop-color:#a5b2b5;stop-opacity:1"
         offset="0"
         id="stop4386" />
      <stop
         id="stop4397"
         offset="0.35344836"
         style="stop-color:#b9cacd;stop-opacity:1" />
      <stop
         style="stop-color:#cad8db;stop-opacity:1"
         offset="1"
         id="stop4388" />
    </linearGradient>
    <linearGradient
       id="linearGradient4374"
       inkscape:collect="always">
      <stop
         id="stop4376"
         offset="0"
         style="stop-color:#797e81;stop-opacity:1" />
      <stop
         style="stop-color:#b0b7bb;stop-opacity:1"
         offset="0.34200919"
         id="stop4380" />
      <stop
         id="stop4378"
         offset="1"
         style="stop-color:#b8c5c8;stop-opacity:1" />
    </linearGradient>
    <linearGradient
       id="linearGradient4354"
       inkscape:collect="always">
      <stop
         id="stop4356"
         offset="0"
         style="stop-color:#83898b;stop-opacity:1" />
      <stop
         style="stop-color:#6f7677;stop-opacity:1"
         offset="0.19039749"
         id="stop4360" />
      <stop
         id="stop4362"
         offset="0.39514709"
         style="stop-color:#c2cfd3;stop-opacity:1" />
      <stop
         id="stop4358"
         offset="1"
         style="stop-color:#e6eef0;stop-opacity:1" />
    </linearGradient>
    <linearGradient
       inkscape:collect="always"
       id="linearGradient4342">
      <stop
         style="stop-color:#7d8385;stop-opacity:1"
         offset="0"
         id="stop4344" />
      <stop
         style="stop-color:#bccdd1;stop-opacity:1"
         offset="1"
         id="stop4346" />
    </linearGradient>
    <linearGradient
       inkscape:collect="always"
       id="linearGradient4334">
      <stop
         style="stop-color:#909b9f;stop-opacity:1"
         offset="0"
         id="stop4336" />
      <stop
         style="stop-color:#bbc8cb;stop-opacity:1"
         offset="1"
         id="stop4338" />
    </linearGradient>
    <linearGradient
       id="linearGradient4320"
       inkscape:collect="always">
      <stop
         id="stop4322"
         offset="0"
         style="stop-color:#88969a;stop-opacity:1" />
      <stop
         style="stop-color:#c0cfd4;stop-opacity:1"
         offset="0.28695533"
         id="stop4326" />
      <stop
         id="stop4328"
         offset="0.60869533"
         style="stop-color:#b9c9ce;stop-opacity:1" />
      <stop
         id="stop4324"
         offset="1"
         style="stop-color:#d2e1e5;stop-opacity:1" />
    </linearGradient>
    <linearGradient
       inkscape:collect="always"
       id="linearGradient4299">
      <stop
         style="stop-color:#b6c4c8;stop-opacity:1"
         offset="0"
         id="stop4302" />
      <stop
         style="stop-color:#ddecee;stop-opacity:1"
         offset="1"
         id="stop4304" />
    </linearGradient>
    <linearGradient
       inkscape:collect="always"
       id="linearGradient4283">
      <stop
         style="stop-color:#121212;stop-opacity:1"
         offset="0"
         id="stop4285" />
      <stop
         style="stop-color:#3f3e3e;stop-opacity:1"
         offset="1"
         id="stop4287" />
    </linearGradient>
    <linearGradient
       inkscape:collect="always"
       id="linearGradient4261">
      <stop
         style="stop-color:#586c71;stop-opacity:1"
         offset="0"
         id="stop4263" />
      <stop
         style="stop-color:#597075;stop-opacity:1"
         offset="1"
         id="stop4265" />
    </linearGradient>
    <linearGradient
       id="linearGradient4251"
       inkscape:collect="always">
      <stop
         id="stop4253"
         offset="0"
         style="stop-color:#3b3f40;stop-opacity:1" />
      <stop
         id="stop4255"
         offset="1"
         style="stop-color:#4d5253;stop-opacity:1" />
    </linearGradient>
    <linearGradient
       id="linearGradient4233">
      <stop
         style="stop-color:#5e656a;stop-opacity:1"
         offset="0"
         id="stop4235" />
      <stop
         id="stop4237"
         offset="0.05052935"
         style="stop-color:#737273;stop-opacity:1" />
      <stop
         style="stop-color:#373737;stop-opacity:1"
         offset="0.18049203"
         id="stop4239" />
      <stop
         id="stop4241"
         offset="0.82271612"
         style="stop-color:#6d6b6a;stop-opacity:1" />
      <stop
         style="stop-color:#5e5d5d;stop-opacity:1"
         offset="0.94249851"
         id="stop4243" />
      <stop
         style="stop-color:#6f757a;stop-opacity:1"
         offset="1"
         id="stop4245" />
    </linearGradient>
    <linearGradient
       inkscape:collect="always"
       id="linearGradient4178">
      <stop
         style="stop-color:#8ba4aa;stop-opacity:1"
         offset="0"
         id="stop4180" />
      <stop
         style="stop-color:#6f8c92;stop-opacity:1"
         offset="1"
         id="stop4182" />
    </linearGradient>
    <linearGradient
       inkscape:collect="always"
       id="linearGradient4152">
      <stop
         style="stop-color:#757a7b;stop-opacity:1"
         offset="0"
         id="stop4154" />
      <stop
         style="stop-color:#d2e1e5;stop-opacity:1"
         offset="1"
         id="stop4156" />
    </linearGradient>
    <linearGradient
       id="linearGradient4146"
       inkscape:collect="always">
      <stop
         id="stop4148"
         offset="0"
         style="stop-color:#ded7e7;stop-opacity:1" />
      <stop
         id="stop4150"
         offset="1"
         style="stop-color:#f3edf7;stop-opacity:1" />
    </linearGradient>
    <linearGradient
       id="linearGradient4130">
      <stop
         id="stop4132"
         offset="0"
         style="stop-color:#000000;stop-opacity:1" />
      <stop
         style="stop-color:#333333;stop-opacity:1"
         offset="0.05052935"
         id="stop4134" />
      <stop
         id="stop4136"
         offset="0.18049203"
         style="stop-color:#000000;stop-opacity:1" />
      <stop
         style="stop-color:#000000;stop-opacity:1"
         offset="0.82271612"
         id="stop4138" />
      <stop
         id="stop4140"
         offset="0.94249851"
         style="stop-color:#333333;stop-opacity:1" />
      <stop
         id="stop4142"
         offset="1"
         style="stop-color:#000000;stop-opacity:1" />
    </linearGradient>
    <linearGradient
       id="linearGradient4293">
      <stop
         style="stop-color:#3b69a4;stop-opacity:1;"
         offset="0"
         id="stop4295" />
      <stop
         id="stop4301"
         offset="0.12751994"
         style="stop-color:#3b69a4;stop-opacity:0" />
      <stop
         style="stop-color:#3b69a4;stop-opacity:0"
         offset="0.88838893"
         id="stop4303" />
      <stop
         style="stop-color:#3b69a4;stop-opacity:1;"
         offset="1"
         id="stop4297" />
    </linearGradient>
    <linearGradient
       id="linearGradient3059">
      <stop
         style="stop-color:#101018;stop-opacity:1"
         offset="0"
         id="stop3061" />
      <stop
         id="stop4042"
         offset="0.05052935"
         style="stop-color:#212442;stop-opacity:1" />
      <stop
         style="stop-color:#100c18;stop-opacity:1"
         offset="0.18049203"
         id="stop4044" />
      <stop
         id="stop3352"
         offset="0.82271612"
         style="stop-color:#100c18;stop-opacity:1" />
      <stop
         style="stop-color:#212442;stop-opacity:1;"
         offset="0.94249851"
         id="stop3354" />
      <stop
         style="stop-color:#101018;stop-opacity:1"
         offset="1"
         id="stop3064" />
    </linearGradient>
    <linearGradient
       inkscape:collect="always"
       id="linearGradient3048">
      <stop
         style="stop-color:#c16d16;stop-opacity:1"
         offset="0"
         id="stop3050" />
      <stop
         style="stop-color:#ff8e31;stop-opacity:1"
         offset="1"
         id="stop3052" />
    </linearGradient>
    <linearGradient
       inkscape:collect="always"
       id="linearGradient3119">
      <stop
         style="stop-color:#92948f;stop-opacity:0"
         offset="0"
         id="stop3121" />
      <stop
         id="stop3123"
         offset="0.4283945"
         style="stop-color:#9b9e98;stop-opacity:1" />
      <stop
         style="stop-color:#939690;stop-opacity:0"
         offset="1"
         id="stop3125" />
    </linearGradient>
    <linearGradient
       id="linearGradient3073"
       inkscape:collect="always">
      <stop
         id="stop3075"
         offset="0"
         style="stop-color:#ffffff;stop-opacity:0" />
      <stop
         style="stop-color:#ffffff;stop-opacity:1"
         offset="0.45872402"
         id="stop3085" />
      <stop
         id="stop3083"
         offset="1"
         style="stop-color:#ffffff;stop-opacity:0" />
    </linearGradient>
    <linearGradient
       inkscape:collect="always"
       id="linearGradient3047">
      <stop
         style="stop-color:#000000;stop-opacity:1"
         offset="0"
         id="stop3049" />
      <stop
         id="stop3055"
         offset="0.06123874"
         style="stop-color:#1a1a1a;stop-opacity:1" />
      <stop
         style="stop-color:#333333;stop-opacity:1"
         offset="0.16480456"
         id="stop3057" />
      <stop
         id="stop3059"
         offset="0.55385184"
         style="stop-color:#4d4d4d;stop-opacity:1" />
      <stop
         style="stop-color:#999999;stop-opacity:1"
         offset="1"
         id="stop3051" />
    </linearGradient>
    <linearGradient
       id="linearGradient3041"
       inkscape:collect="always">
      <stop
         id="stop3043"
         offset="0"
         style="stop-color:#1a1a1a;stop-opacity:1" />
      <stop
         id="stop3045"
         offset="1"
         style="stop-color:#808080;stop-opacity:1" />
    </linearGradient>
    <linearGradient
       inkscape:collect="always"
       id="linearGradient3029">
      <stop
         style="stop-color:#333333;stop-opacity:1"
         offset="0"
         id="stop3031" />
      <stop
         style="stop-color:#e0e0dd;stop-opacity:0;"
         offset="1"
         id="stop3033" />
    </linearGradient>
    <linearGradient
       inkscape:collect="always"
       xlink:href="#linearGradient3029"
       id="linearGradient3035"
       x1="35.355339"
       y1="1030.3622"
       x2="35.355339"
       y2="975.33282"
       gradientUnits="userSpaceOnUse"
       gradientTransform="matrix(1.1638085,0,0,1.1638085,-7.862809,-164.23642)" />
    <linearGradient
       inkscape:collect="always"
       xlink:href="#linearGradient3041"
       id="linearGradient3039"
       gradientUnits="userSpaceOnUse"
       x1="35.355339"
       y1="1030.3622"
       x2="35.355339"
       y2="975.33282"
       gradientTransform="matrix(1.1218695,0,0,1.1218695,-5.8497348,-122.18782)" />
    <linearGradient
       inkscape:collect="always"
       xlink:href="#linearGradient3047"
       id="linearGradient3053"
       x1="40"
       y1="1043.4336"
       x2="39.285713"
       y2="972.33325"
       gradientUnits="userSpaceOnUse" />
    <linearGradient
       inkscape:collect="always"
       xlink:href="#linearGradient3073"
       id="linearGradient3113"
       gradientUnits="userSpaceOnUse"
       gradientTransform="translate(0,-956.36218)"
       x1="14.869445"
       y1="978.90387"
       x2="24.52651"
       y2="969.24683" />
    <linearGradient
       inkscape:collect="always"
       xlink:href="#linearGradient3073"
       id="linearGradient3115"
       gradientUnits="userSpaceOnUse"
       gradientTransform="matrix(-1,0,0,1,96,-956.36218)"
       x1="15.152279"
       y1="978.62103"
       x2="26.263966"
       y2="967.50934" />
    <linearGradient
       inkscape:collect="always"
       xlink:href="#linearGradient3119"
       id="linearGradient3117"
       gradientUnits="userSpaceOnUse"
       gradientTransform="translate(0,-956.36218)"
       x1="13.131983"
       y1="980.64136"
       x2="25.549681"
       y2="967.86646" />
    <linearGradient
       inkscape:collect="always"
       xlink:href="#linearGradient3119"
       id="linearGradient3129"
       gradientUnits="userSpaceOnUse"
       gradientTransform="matrix(-1,0,0,1,96,0)"
       x1="13.131983"
       y1="980.64136"
       x2="25.549681"
       y2="967.86646" />
    <linearGradient
       inkscape:collect="always"
       xlink:href="#linearGradient3048"
       id="linearGradient3054"
       x1="49.267925"
       y1="996.57349"
       x2="49.267925"
       y2="1045.8627"
       gradientUnits="userSpaceOnUse" />
    <linearGradient
       inkscape:collect="always"
       xlink:href="#linearGradient3048"
       id="linearGradient3058"
       x1="115.80308"
       y1="985.47241"
       x2="115.80308"
       y2="1033.5543"
       gradientUnits="userSpaceOnUse" />
    <linearGradient
       inkscape:collect="always"
       xlink:href="#linearGradient4233"
       id="linearGradient4128"
       gradientUnits="userSpaceOnUse"
       x1="7.7721348"
       y1="1046.0226"
       x2="87.516144"
       y2="1046.0226" />
    <linearGradient
       inkscape:collect="always"
       xlink:href="#linearGradient4146"
       id="linearGradient4144"
       gradientUnits="userSpaceOnUse"
       x1="48.543396"
       y1="1030.6263"
       x2="48.543396"
       y2="963.96973"
       gradientTransform="matrix(0.97560976,0,0,0.97560976,0.17073171,25.179566)" />
    <linearGradient
       inkscape:collect="always"
       xlink:href="#linearGradient4152"
       id="linearGradient4158"
       x1="21.011322"
       y1="1036.0603"
       x2="40.011322"
       y2="967.99835"
       gradientUnits="userSpaceOnUse" />
    <radialGradient
       inkscape:collect="always"
       xlink:href="#linearGradient4178"
       id="radialGradient4186"
       cx="-18.219341"
       cy="85.049187"
       fx="-18.219341"
       fy="85.049187"
       r="3.2660329"
       gradientUnits="userSpaceOnUse"
       gradientTransform="matrix(0.4443048,-0.4443048,0.43300585,0.43300719,55.542655,923.00898)" />
    <linearGradient
       inkscape:collect="always"
       xlink:href="#linearGradient4146"
       id="linearGradient4193"
       gradientUnits="userSpaceOnUse"
       gradientTransform="matrix(0.97560976,0,0,0.97560976,0.17073171,25.179566)"
       x1="48.543396"
       y1="1030.6263"
       x2="48.543396"
       y2="963.96973" />
    <linearGradient
       inkscape:collect="always"
       xlink:href="#linearGradient4130"
       id="linearGradient4213"
       gradientUnits="userSpaceOnUse"
       x1="7.7721348"
       y1="1046.0226"
       x2="87.516144"
       y2="1046.0226"
       gradientTransform="translate(0,-956.36218)" />
    <linearGradient
       inkscape:collect="always"
       xlink:href="#linearGradient4146"
       id="linearGradient4241"
       gradientUnits="userSpaceOnUse"
       gradientTransform="matrix(0.97560976,0,0,0.97560976,1.1707317,-932.18263)"
       x1="48.543396"
       y1="1030.6263"
       x2="48.543396"
       y2="963.96973" />
    <radialGradient
       inkscape:collect="always"
       xlink:href="#linearGradient4251"
       id="radialGradient4249"
       gradientUnits="userSpaceOnUse"
       gradientTransform="matrix(0.4443048,-0.4443048,0.43300585,0.43300719,55.542655,984.00897)"
       cx="-18.219341"
       cy="85.049187"
       fx="-18.219341"
       fy="85.049187"
       r="3.2660329" />
    <radialGradient
       inkscape:collect="always"
       xlink:href="#linearGradient4261"
       id="radialGradient4259"
       gradientUnits="userSpaceOnUse"
       gradientTransform="matrix(0.4443048,-0.4443048,0.43300585,0.43300719,55.542655,954.00898)"
       cx="-18.219341"
       cy="85.049187"
       fx="-18.219341"
       fy="85.049187"
       r="3.2660329" />
    <radialGradient
       inkscape:collect="always"
       xlink:href="#linearGradient4178"
       id="radialGradient4273"
       gradientUnits="userSpaceOnUse"
       gradientTransform="matrix(0.4443048,-0.4443048,0.43300585,0.43300719,-16.457345,923.00898)"
       cx="-18.219341"
       cy="85.049187"
       fx="-18.219341"
       fy="85.049187"
       r="3.2660329" />
    <radialGradient
       inkscape:collect="always"
       xlink:href="#linearGradient4251"
       id="radialGradient4275"
       gradientUnits="userSpaceOnUse"
       gradientTransform="matrix(0.4443048,-0.4443048,0.43300585,0.43300719,-16.457345,984.00897)"
       cx="-18.219341"
       cy="85.049187"
       fx="-18.219341"
       fy="85.049187"
       r="3.2660329" />
    <radialGradient
       inkscape:collect="always"
       xlink:href="#linearGradient4261"
       id="radialGradient4277"
       gradientUnits="userSpaceOnUse"
       gradientTransform="matrix(0.4443048,-0.4443048,0.43300585,0.43300719,-16.457345,954.00898)"
       cx="-18.219341"
       cy="85.049187"
       fx="-18.219341"
       fy="85.049187"
       r="3.2660329" />
    <linearGradient
       inkscape:collect="always"
       xlink:href="#linearGradient4283"
       id="linearGradient4297"
       gradientUnits="userSpaceOnUse"
       gradientTransform="matrix(1.0094637,0,0,0.96,-0.04937224,38.814484)"
       x1="52.325901"
       y1="973.87335"
       x2="31.112698"
       y2="967.86292" />
    <linearGradient
       inkscape:collect="always"
       xlink:href="#linearGradient4299"
       id="linearGradient4306"
       x1="57.1875"
       y1="977.17468"
       x2="57.1875"
       y2="966.54968"
       gradientUnits="userSpaceOnUse"
       gradientTransform="matrix(1.047619,0,0,1.1818182,-1.809524,-176.70222)" />
    <linearGradient
       inkscape:collect="always"
       xlink:href="#linearGradient4320"
       id="linearGradient4312"
       x1="42.072853"
       y1="980.10468"
       x2="42.072853"
       y2="964.85773"
       gradientUnits="userSpaceOnUse"
       gradientTransform="matrix(0.95833333,0,0,0.88235294,1.5833333,115.33673)" />
    <linearGradient
       inkscape:collect="always"
       xlink:href="#linearGradient4374"
       id="linearGradient4340"
       x1="53.033009"
       y1="1010.2893"
       x2="55.684658"
       y2="998.62201"
       gradientUnits="userSpaceOnUse" />
    <linearGradient
       inkscape:collect="always"
       xlink:href="#linearGradient4354"
       id="linearGradient4348"
       x1="53.490116"
       y1="1029.6334"
       x2="69.710686"
       y2="983.82825"
       gradientUnits="userSpaceOnUse" />
    <linearGradient
       inkscape:collect="always"
       xlink:href="#linearGradient4342"
       id="linearGradient4352"
       gradientUnits="userSpaceOnUse"
       x1="50.91169"
       y1="1025.4921"
       x2="50.91169"
       y2="988.01544"
       gradientTransform="matrix(0.95409371,0,0,0.92303145,2.2035088,77.228529)" />
    <linearGradient
       inkscape:collect="always"
       xlink:href="#linearGradient4334"
       id="linearGradient4372"
       gradientUnits="userSpaceOnUse"
       x1="48.790367"
       y1="1009.6882"
       x2="48.790367"
       y2="1001.1797"
       gradientTransform="matrix(0.90294638,0,0,0.80112622,4.6585872,197.88929)" />
    <linearGradient
       inkscape:collect="always"
       xlink:href="#linearGradient4384"
       id="linearGradient4390"
       x1="69.75"
       y1="1001.1122"
       x2="69.75"
       y2="972.11218"
       gradientUnits="userSpaceOnUse"
       gradientTransform="translate(0,-956.36218)" />
    <linearGradient
       inkscape:collect="always"
       xlink:href="#linearGradient4407"
       id="linearGradient4405"
       gradientUnits="userSpaceOnUse"
       gradientTransform="translate(2,2.4111825)"
       x1="69.75"
       y1="1001.1122"
       x2="69.75"
       y2="972.11218" />
    <linearGradient
       inkscape:collect="always"
       xlink:href="#linearGradient4456"
       id="linearGradient4462"
       x1="69.191071"
       y1="87.10495"
       x2="69.191071"
       y2="87.728645"
       gradientUnits="userSpaceOnUse"
       gradientTransform="translate(0.125,956.36218)" />
  </defs>
  <sodipodi:namedview
     id="base"
     pagecolor="#ffffff"
     bordercolor="#666666"
     borderopacity="1.0"
     inkscape:pageopacity="0.0"
     inkscape:pageshadow="2"
     inkscape:zoom="2.8284271"
     inkscape:cx="157.8054"
     inkscape:cy="68.778802"
     inkscape:document-units="px"
     inkscape:current-layer="layer1"
     showgrid="false"
     inkscape:window-width="1366"
     inkscape:window-height="714"
     inkscape:window-x="0"
     inkscape:window-y="28"
     inkscape:window-maximized="1"
     showguides="false"
     inkscape:guide-bbox="true" />
  <metadata
     id="metadata7">
    <rdf:RDF>
      <cc:Work
         rdf:about="">
        <dc:format>image/svg+xml</dc:format>
        <dc:type
           rdf:resource="http://purl.org/dc/dcmitype/StillImage" />
        <dc:title />
      </cc:Work>
    </rdf:RDF>
  </metadata>
  <g
     inkscape:label="Layer 1"
     inkscape:groupmode="layer"
     id="layer1"
     transform="translate(0,-956.36218)">
    <rect
       style="opacity:0.05;fill:#000000;fill-opacity:1;stroke:none"
       id="rect3826"
       width="89"
       height="89"
       x="3.5"
       y="960.86218"
       rx="10.595235"
       ry="10.595235" />
    <g
       id="g3041">
      <rect
         style="opacity:0.05;fill:#000000;fill-opacity:1;stroke:none"
         id="rect3824"
         width="88"
         height="88"
         x="4"
         y="961.36218"
         rx="10.476188"
         ry="10.476188" />
      <rect
         ry="10.357141"
         rx="10.357141"
         y="961.86218"
         x="4.5"
         height="87"
         width="87"
         id="rect3822"
         style="opacity:0.05;fill:#000000;fill-opacity:1;stroke:none" />
      <rect
         style="opacity:0.1;fill:#000000;fill-opacity:1;stroke:none"
         id="rect3820"
         width="86"
         height="86"
         x="5"
         y="962.36218"
         rx="10.238094"
         ry="10.238094" />
      <rect
         ry="10.119047"
         rx="10.119047"
         y="962.86218"
         x="5.5"
         height="85"
         width="85"
         id="rect3818"
         style="opacity:0.1;fill:#000000;fill-opacity:1;stroke:none" />
      <rect
         style="opacity:0.3;fill:#000000;fill-opacity:1;stroke:none"
         id="rect3131"
         width="84"
         height="84"
         x="6"
         y="963.36218"
         rx="10"
         ry="10" />
    </g>
    <rect
       ry="10"
       rx="10"
       y="962.36218"
       x="6"
       height="84"
       width="84"
       id="rect3036"
       style="fill:url(#linearGradient4128);fill-opacity:1;stroke:none" />
    <path
       style="fill:url(#linearGradient4158);fill-opacity:1;stroke:none"
       d="m 16,962.36218 64,0 c 5.54,0 10,4.46 10,10 l 0,54.00002 c 0,5.54 -4.46,10 -10,10 l -64,0 c -5.54,0 -10,-4.46 -10,-10 l 0,-54.00002 c 0,-5.54 4.46,-10 10,-10 z"
       id="rect4125"
       inkscape:connector-curvature="0"
       sodipodi:nodetypes="sssssssss" />
    <ellipse
       style="opacity:0.05;fill:#000000;fill-opacity:1;stroke:none;stroke-width:1.5;stroke-miterlimit:4;stroke-dasharray:none"
       id="ellipse4364"
       cx="48"
       cy="1008.3948"
       rx="32.396908"
       ry="22.967392" />
    <ellipse
       style="opacity:0.1;fill:#000000;fill-opacity:1;stroke:none;stroke-width:1.5;stroke-miterlimit:4;stroke-dasharray:none"
       id="ellipse4368"
       cx="48"
       cy="1007.8948"
       rx="32.308517"
       ry="22.967392" />
    <circle
       style="fill:url(#radialGradient4186);fill-opacity:1;stroke:none"
       id="path4176"
       cx="84"
       cy="968.36218"
       r="2" />
    <circle
       r="2"
       cy="1029.3622"
       cx="84"
       id="circle4247"
       style="fill:url(#radialGradient4249);fill-opacity:1;stroke:none" />
    <circle
       style="fill:url(#radialGradient4259);fill-opacity:1;stroke:none"
       id="circle4257"
       cx="84"
       cy="999.36218"
       r="2" />
    <circle
       r="2"
       cy="968.36218"
       cx="12"
       id="circle4267"
       style="fill:url(#radialGradient4273);fill-opacity:1;stroke:none" />
    <path
       style="fill:#999999;fill-opacity:1;stroke:none"
       d="M 12 70 A 2 2 0 0 0 10 72 A 2 2 0 0 0 10.064453 72.503906 A 2 2 0 0 1 12 71 A 2 2 0 0 1 13.935547 72.496094 A 2 2 0 0 0 14 72 A 2 2 0 0 0 12 70 z "
       id="circle4458"
       transform="translate(0,956.36218)" />
    <circle
       style="fill:url(#radialGradient4275);fill-opacity:1;stroke:none"
       id="circle4269"
       cx="12"
       cy="1029.3622"
       r="2" />
    <circle
       r="2"
       cy="999.36218"
       cx="12"
       id="circle4271"
       style="fill:url(#radialGradient4277);fill-opacity:1;stroke:none" />
    <ellipse
       ry="22.967392"
       rx="32.308517"
       cy="1007.3948"
       cx="48"
       id="ellipse4366"
       style="opacity:0.1;fill:#000000;fill-opacity:1;stroke:none;stroke-width:1.5;stroke-miterlimit:4;stroke-dasharray:none" />
    <rect
       style="opacity:0.2;fill:#000000;fill-opacity:1;stroke:none;stroke-width:1.5;stroke-miterlimit:4;stroke-dasharray:none"
       id="rect4423"
       width="1.5"
       height="6"
       x="57.5"
       y="979.37531"
       rx="0"
       ry="0" />
    <ellipse
       ry="22.967392"
       rx="33.015625"
       cy="1006.3948"
       cx="48"
       id="ellipse4332"
       style="opacity:1;fill:url(#linearGradient4348);fill-opacity:1;stroke:none;stroke-width:1.5;stroke-miterlimit:4;stroke-dasharray:none" />
    <path
       id="path4403"
       d="M 63.744141,969.51494 C 62.225476,969.57436 61,970.86488 61,972.54228 l 0,16.1854 c 9.972584,2.51033 17.635927,10.27247 19.957031,17.26582 l -0.914137,-33.98155 c -0.03767,-1.67698 -1.225476,-3.08676 -2.744141,-3.02734 z"
       style="opacity:1;fill:url(#linearGradient4405);fill-opacity:1;stroke:none;stroke-width:1.5;stroke-miterlimit:4;stroke-dasharray:none"
       inkscape:connector-curvature="0"
       sodipodi:nodetypes="sscccss" />
    <ellipse
       style="opacity:1;fill:url(#linearGradient4352);fill-opacity:1;stroke:none;stroke-width:1.5;stroke-miterlimit:4;stroke-dasharray:none"
       id="ellipse4350"
       cx="48"
       cy="1006.1625"
       rx="31.5"
       ry="21.199625" />
    <ellipse
       ry="8"
       rx="11.5"
       cy="1004.0502"
       cx="48"
       id="ellipse4415"
       style="opacity:0.1;fill:#000000;fill-opacity:1;stroke:none;stroke-width:1.5;stroke-miterlimit:4;stroke-dasharray:none" />
    <ellipse
       style="opacity:1;fill:url(#linearGradient4340);fill-opacity:1;stroke:none;stroke-width:1.5;stroke-miterlimit:4;stroke-dasharray:none"
       id="path4330"
       cx="48"
       cy="1003.0497"
       rx="11.5"
       ry="8" />
    <ellipse
       ry="6.4090099"
       rx="10.383883"
       cy="1001.4587"
       cx="48"
       id="ellipse4370"
       style="opacity:1;fill:url(#linearGradient4372);fill-opacity:1;stroke:none;stroke-width:1.5;stroke-miterlimit:4;stroke-dasharray:none" />
    <rect
       style="opacity:1;fill:url(#linearGradient4312);fill-opacity:1;stroke:none;stroke-width:1.5;stroke-miterlimit:4;stroke-dasharray:none"
       id="rect4308"
       width="46"
       height="15"
       x="15"
       y="965.36218"
       rx="2.7433715"
       ry="3.027801" />
    <path
       style="opacity:1;fill:url(#linearGradient4390);fill-opacity:1;stroke:none;stroke-width:1.5;stroke-miterlimit:4;stroke-dasharray:none"
       d="M 61.744141,10.75 C 60.224314,10.75 59,12.099944 59,13.777344 l 0,16.185547 c 9.97248,2.510302 18.137105,12.351176 20.458332,19.344433 L 78.75,13.777344 C 78.75,12.099944 77.525686,10.75 76.005859,10.75 Z"
       id="rect4382"
       inkscape:connector-curvature="0"
       sodipodi:nodetypes="sscccss"
       transform="translate(0,956.36218)" />
    <rect
       ry="2.6240945"
       rx="2.6240945"
       y="965.36218"
       x="16"
       height="13"
       width="44"
       id="rect4295"
       style="opacity:1;fill:url(#linearGradient4306);fill-opacity:1;stroke:none;stroke-width:1.5;stroke-miterlimit:4;stroke-dasharray:none" />
    <rect
       style="opacity:1;fill:url(#linearGradient4297);fill-opacity:1;stroke:none;stroke-width:1.5;stroke-miterlimit:4;stroke-dasharray:none"
       id="rect4279"
       width="40"
       height="9"
       x="18"
       y="967.36218"
       rx="1.0094637"
       ry="0.95999998" />
    <g
       style="font-style:normal;font-weight:normal;font-size:2.98992205px;line-height:125%;font-family:sans-serif;letter-spacing:0px;word-spacing:0px;fill:#747474;fill-opacity:1;stroke:none;stroke-width:1px;stroke-linecap:butt;stroke-linejoin:miter;stroke-opacity:1"
       id="text4464"
       transform="matrix(0.79822055,0,0,0.79822055,-15.629441,193.38149)">
      <g
         style="font-style:normal;font-variant:normal;font-weight:normal;font-stretch:normal;font-size:40px;line-height:125%;font-family:Helvetica;-inkscape-font-specification:Helvetica;letter-spacing:0px;word-spacing:0px;fill:#747474;fill-opacity:1;stroke:none;stroke-width:1px;stroke-linecap:butt;stroke-linejoin:miter;stroke-opacity:1"
         id="text4487" />
      <g
         style="font-style:normal;font-weight:normal;font-size:3.37371063px;line-height:125%;font-family:sans-serif;letter-spacing:0px;word-spacing:0px;fill:#747474;fill-opacity:1;stroke:none;stroke-width:1px;stroke-linecap:butt;stroke-linejoin:miter;stroke-opacity:1"
         id="text4491">
        <path
           d="m 46.114227,972.90587 q 0.0016,0.5189 -0.228978,0.74953 -0.228977,0.22897 -0.747883,0.22897 -0.49749,0 -0.737999,-0.23886 -0.238861,-0.24051 -0.240509,-0.73964 l 0,-1.50895 0,0 0.25204,0 0.253687,0 0,0 0,1.52542 q 0,0.26028 0.11696,0.39041 0.118607,0.13014 0.355821,0.13014 0.253687,0 0.36241,-0.1186 0.108724,-0.12026 0.108724,-0.40195 l 0,-1.52542 0,0 0.252039,0 0.253688,0 0,0 0,1.50895 z"
           style="font-style:normal;font-variant:normal;font-weight:bold;font-stretch:normal;font-family:Helvetica;-inkscape-font-specification:'Helvetica Bold';fill:#747474;fill-opacity:1"
           id="path4312" />
        <path
           d="m 47.588578,972.56322 0,0 q 0,-0.10378 -0.08566,-0.16638 -0.08566,-0.0626 -0.22733,-0.0626 -0.136727,0 -0.214151,0.0478 -0.07578,0.0461 -0.07578,0.13014 0,0.0593 0.08731,0.10213 0.08566,0.0412 0.304754,0.0906 0.434892,0.0972 0.581504,0.21251 0.146611,0.11531 0.146611,0.36241 0,0.26357 -0.214151,0.42501 -0.212505,0.15979 -0.561736,0.15979 -0.413478,0 -0.637513,-0.15815 -0.222388,-0.15814 -0.237214,-0.46125 l 0,0 0.481017,0 0,0 q 0.0049,0.12355 0.108723,0.19439 0.105429,0.0692 0.284987,0.0692 0.141669,0 0.22074,-0.0478 0.08072,-0.0494 0.08072,-0.13672 0,-0.061 -0.07742,-0.10379 -0.07742,-0.0412 -0.271808,-0.084 -0.45466,-0.10213 -0.607861,-0.2158 -0.1532,-0.11202 -0.1532,-0.34758 0,-0.26687 0.197678,-0.42995 0.199326,-0.16473 0.523848,-0.16473 0.365705,0 0.58974,0.16143 0.224036,0.15979 0.224036,0.42336 l 0,0 -0.467839,0 z"
           style="font-style:normal;font-variant:normal;font-weight:bold;font-stretch:normal;font-family:Helvetica;-inkscape-font-specification:'Helvetica Bold';fill:#747474;fill-opacity:1"
           id="path4314" />
        <path
           d="m 49.161768,973.86461 q -0.408535,0 -0.630923,-0.25204 -0.220741,-0.25204 -0.220741,-0.71823 0,-0.42996 0.225683,-0.67211 0.225682,-0.2438 0.625981,-0.2438 0.410183,0 0.630924,0.24874 0.222388,0.2471 0.222388,0.70505 0.0033,0.0527 -0.0082,0.10708 l 0,0 -1.220664,0 0,0 q 0.01647,0.2125 0.0939,0.31793 0.09884,0.13179 0.329464,0.13179 0.107076,0 0.197679,-0.0609 0.09225,-0.061 0.11037,-0.14661 l 0,0 0.481018,0 0,0 q -0.06095,0.27345 -0.283339,0.4283 -0.220741,0.15485 -0.5535,0.15485 z m 0.360763,-1.12677 0,0 q -0.01647,-0.16144 -0.08566,-0.25204 -0.0906,-0.12025 -0.281692,-0.12025 -0.182853,0 -0.278397,0.14002 -0.0593,0.0889 -0.08566,0.23227 l 0,0 0.73141,0 z"
           style="font-style:normal;font-variant:normal;font-weight:bold;font-stretch:normal;font-family:Helvetica;-inkscape-font-specification:'Helvetica Bold';fill:#747474;fill-opacity:1"
           id="path4316" />
        <path
           d="m 51.599801,973.81848 -0.520553,-1.79228 0,0 0.250393,0 0.250392,0 0,0 0.286634,1.31621 0,0 0,0 0.268513,-1.31621 0.235567,0 0.237214,0 0.265218,1.3195 0,0 0,0 0.291576,-1.3195 0,0 0.237214,0 0.238861,0 0,0 -0.518905,1.79228 -0.240509,0 -0.242156,0 -0.275102,-1.33433 0,0 0,0 -0.281692,1.33433 -0.240509,0 -0.242156,0 z"
           style="font-style:normal;font-variant:normal;font-weight:bold;font-stretch:normal;font-family:Helvetica;-inkscape-font-specification:'Helvetica Bold';fill:#747474;fill-opacity:1"
           id="path4318" />
        <path
           d="m 53.906049,973.81848 0,-1.79228 0,0 0.235566,0 0.237214,0 0,0 0,1.79228 0,0 -0.235566,0 -0.237214,0 0,0 z m -0.0049,-2.43968 0.481017,0 0,0.43819 -0.481017,0 0,-0.43819 z"
           style="font-style:normal;font-variant:normal;font-weight:bold;font-stretch:normal;font-family:Helvetica;-inkscape-font-specification:'Helvetica Bold';fill:#747474;fill-opacity:1"
           id="path4320" />
        <path
           d="m 55.647266,973.82837 q -0.118607,0.01 -0.291576,0.01 -0.250393,0 -0.360763,-0.089 -0.108723,-0.0906 -0.108723,-0.29487 l 0,-1.09711 0,0 -0.248745,0 0,-0.33111 0.248745,0 0,0 0,-0.48267 0.472781,0 0,0.48267 0,0 0.288281,0 0,0.33111 -0.288281,0 0,0 0,1.01804 q 0,0.0626 0.03624,0.0824 0.03789,0.0198 0.154848,0.0198 l 0.09719,0 0,0.35088 z"
           style="font-style:normal;font-variant:normal;font-weight:bold;font-stretch:normal;font-family:Helvetica;-inkscape-font-specification:'Helvetica Bold';fill:#747474;fill-opacity:1"
           id="path4322" />
        <path
           d="m 55.950372,973.81848 0,-2.42156 0,0 0.235567,0 0.237214,0 0,0 0,0.85661 0,0 0,0 0.03789,-0.0527 q 0.174616,-0.22238 0.507374,-0.22238 0.283339,0 0.443129,0.16802 0.161438,0.16803 0.161438,0.46619 l 0,1.20584 0,0 -0.235567,0 -0.237214,0 0,0 0,-1.12018 q 0,-0.16638 -0.07248,-0.24545 -0.07083,-0.0807 -0.219094,-0.0807 -0.186147,0 -0.286633,0.11202 -0.09884,0.11202 -0.09884,0.32288 l 0,0 0,1.01145 0,0 -0.235567,0 -0.237214,0 0,0 z"
           style="font-style:normal;font-variant:normal;font-weight:bold;font-stretch:normal;font-family:Helvetica;-inkscape-font-specification:'Helvetica Bold';fill:#747474;fill-opacity:1"
           id="path4324" />
        <path
           d="m 60.496975,973.15461 0,0 q -0.03624,0.33441 -0.248746,0.5222 -0.212504,0.1878 -0.553499,0.1878 -0.406888,0 -0.629276,-0.24216 -0.220741,-0.24216 -0.220741,-0.69023 0,-0.43818 0.228977,-0.69517 0.230625,-0.25862 0.62104,-0.25862 0.345937,0 0.566678,0.19108 0.220741,0.19109 0.235567,0.50244 l 0,0 -0.481018,0 0,0 q -0.0066,-0.13344 -0.09554,-0.2158 -0.08731,-0.0824 -0.225683,-0.0824 -0.177911,0 -0.271808,0.14332 -0.09225,0.14167 -0.09225,0.41512 0,0.26687 0.09225,0.40689 0.0939,0.13838 0.271808,0.13838 0.128491,0 0.217446,-0.089 0.08895,-0.0889 0.103781,-0.23392 l 0,0 0.481018,0 z"
           style="font-style:normal;font-variant:normal;font-weight:bold;font-stretch:normal;font-family:Helvetica;-inkscape-font-specification:'Helvetica Bold';fill:#747474;fill-opacity:1"
           id="path4326" />
        <path
           d="m 61.25639,973.86461 q -0.248746,0 -0.400299,-0.14167 -0.151554,-0.14332 -0.151554,-0.37559 0,-0.24545 0.136728,-0.39206 0.136728,-0.14826 0.398651,-0.18615 l 0.311344,-0.0428 q 0.121901,-0.0165 0.20262,-0.056 0.03459,-0.0165 0.05271,-0.0593 0.01977,-0.0428 0.01483,-0.0873 -0.0099,-0.0758 -0.07742,-0.11861 -0.08072,-0.0511 -0.232272,-0.0511 -0.13508,0 -0.210857,0.0659 -0.07578,0.0659 -0.08072,0.18614 l 0,0 -0.453012,0 0,0 q 0.01483,-0.31463 0.214151,-0.47113 0.199326,-0.15649 0.584799,-0.15649 0.334406,0 0.527142,0.14166 0.194384,0.14003 0.194384,0.38383 l 0,1.00157 q 0,0.12026 0.01977,0.16967 0.01977,0.0478 0.07907,0.0758 l 0,0.002 0,0.0642 -0.255335,0 -0.255334,0 0,0 q -0.0313,-0.10872 -0.04118,-0.2125 l -0.0016,-0.003 q -0.222388,0.26357 -0.576561,0.26357 z m 0.568325,-0.70835 0,-0.20592 0,0 q -0.08237,0.0461 -0.217446,0.0741 l -0.174616,0.033 q -0.123549,0.0231 -0.187795,0.0857 -0.06424,0.0609 -0.06424,0.15485 0,0.10707 0.05766,0.16803 0.05766,0.061 0.161437,0.061 0.22733,0 0.362411,-0.15979 0.02636,-0.0313 0.04448,-0.0923 0.01812,-0.0609 0.01812,-0.11861 z"
           style="font-style:normal;font-variant:normal;font-weight:bold;font-stretch:normal;font-family:Helvetica;-inkscape-font-specification:'Helvetica Bold';fill:#747474;fill-opacity:1"
           id="path4328" />
        <path
           d="m 63.180458,972.0262 0,1.12182 q 0,0.16473 0.07083,0.24381 0.07084,0.0791 0.217446,0.0791 0.1845,0 0.283339,-0.11202 0.09884,-0.11202 0.09884,-0.32288 l 0,0 0,-1.0098 0,0 0.235566,0 0.237214,0 0,0 0,1.79228 0,0 -0.224035,0 -0.225683,0 0,0 0,-0.26851 0,0 0,0 q -0.02471,0.0494 -0.0593,0.0922 -0.174616,0.22239 -0.505728,0.22239 -0.283339,0 -0.443129,-0.16638 -0.158142,-0.16803 -0.158142,-0.46455 l 0,-1.20748 0,0 0.235566,0 0.237215,0 0,0 z"
           style="font-style:normal;font-variant:normal;font-weight:bold;font-stretch:normal;font-family:Helvetica;-inkscape-font-specification:'Helvetica Bold';fill:#747474;fill-opacity:1"
           id="path4331" />
        <path
           d="m 65.590487,973.82837 q -0.118607,0.01 -0.291576,0.01 -0.250393,0 -0.360763,-0.089 -0.108723,-0.0906 -0.108723,-0.29487 l 0,-1.09711 0,0 -0.248745,0 0,-0.33111 0.248745,0 0,0 0,-0.48267 0.472781,0 0,0.48267 0,0 0.288281,0 0,0.33111 -0.288281,0 0,0 0,1.01804 q 0,0.0626 0.03624,0.0824 0.03789,0.0198 0.154848,0.0198 l 0.09719,0 0,0.35088 z"
           style="font-style:normal;font-variant:normal;font-weight:bold;font-stretch:normal;font-family:Helvetica;-inkscape-font-specification:'Helvetica Bold';fill:#747474;fill-opacity:1"
           id="path4333" />
        <path
           d="m 65.911714,973.81848 0,-1.79228 0,0 0.235566,0 0.237214,0 0,0 0,1.79228 0,0 -0.235566,0 -0.237214,0 0,0 z m -0.0049,-2.43968 0.481017,0 0,0.43819 -0.481017,0 0,-0.43819 z"
           style="font-style:normal;font-variant:normal;font-weight:bold;font-stretch:normal;font-family:Helvetica;-inkscape-font-specification:'Helvetica Bold';fill:#747474;fill-opacity:1"
           id="path4335" />
        <path
           d="m 67.6414,973.86461 q -0.420066,0 -0.668812,-0.25204 -0.247098,-0.25204 -0.247098,-0.68035 0,-0.43818 0.247098,-0.69517 0.248746,-0.25862 0.668812,-0.25862 0.423361,0 0.670459,0.25862 0.247098,0.25699 0.247098,0.69517 0,0.42831 -0.247098,0.68035 -0.247098,0.25204 -0.670459,0.25204 l 0,0 z m 0,-0.39536 q 0.210857,0 0.321227,-0.13838 0.110371,-0.13837 0.110371,-0.40359 0,-0.27181 -0.110371,-0.41183 -0.11037,-0.14167 -0.321227,-0.14167 -0.210857,0 -0.321227,0.14167 -0.108723,0.14002 -0.108723,0.41183 0,0.26522 0.108723,0.40359 0.11037,0.13838 0.321227,0.13838 l 0,0 z"
           style="font-style:normal;font-variant:normal;font-weight:bold;font-stretch:normal;font-family:Helvetica;-inkscape-font-specification:'Helvetica Bold';fill:#747474;fill-opacity:1"
           id="path4337" />
        <path
           d="m 68.891716,973.81848 0,-1.79228 0,0 0.224036,0 0.225682,0 0,0 0,0.26522 0,0 0,0 q 0.028,-0.0478 0.06095,-0.0906 0.174616,-0.22238 0.507375,-0.22238 0.283339,0 0.443129,0.16802 0.161437,0.16803 0.161437,0.46619 l 0,1.20584 0,0 -0.235567,0 -0.237214,0 0,0 0,-1.12018 q 0,-0.16638 -0.07248,-0.24545 -0.07084,-0.0807 -0.219093,-0.0807 -0.186147,0 -0.286634,0.11202 -0.09884,0.11202 -0.09884,0.32288 l 0,0 0,1.01145 0,0 -0.235567,0 -0.237214,0 0,0 z"
           style="font-style:normal;font-variant:normal;font-weight:bold;font-stretch:normal;font-family:Helvetica;-inkscape-font-specification:'Helvetica Bold';fill:#747474;fill-opacity:1"
           id="path4339" />
      </g>
    </g>
    <path
       sodipodi:type="star"
       style="opacity:1;fill:#696969;fill-opacity:1;stroke:none;stroke-width:1.5;stroke-miterlimit:4;stroke-dasharray:none"
       id="path4483"
       sodipodi:sides="3"
       sodipodi:cx="52.800442"
       sodipodi:cy="972.95929"
       sodipodi:r1="4.3883724"
       sodipodi:r2="2.1941862"
       sodipodi:arg1="0.52359878"
       sodipodi:arg2="1.5707963"
       inkscape:flatsided="false"
       inkscape:rounded="0"
       inkscape:randomized="0"
       d="m 56.600884,975.15348 -3.800442,0 -3.800442,0 1.900221,-3.29128 1.900221,-3.29128 1.900221,3.29128 z"
       inkscape:transform-center-y="-1.0970931" />
    <path
       inkscape:transform-center-y="-0.62505603"
       d="m 54.965699,974.2094 -2.165257,0 -2.165258,0 1.082629,-1.87517 1.082629,-1.87516 1.082629,1.87516 z"
       inkscape:randomized="0"
       inkscape:rounded="0"
       inkscape:flatsided="false"
       sodipodi:arg2="1.5707963"
       sodipodi:arg1="0.52359878"
       sodipodi:r2="1.2501121"
       sodipodi:r1="2.5002241"
       sodipodi:cy="972.95929"
       sodipodi:cx="52.800442"
       sodipodi:sides="3"
       id="path4485"
       style="opacity:1;fill:#121212;fill-opacity:1;stroke:none;stroke-width:1.5;stroke-miterlimit:4;stroke-dasharray:none"
       sodipodi:type="star" />
    <g
       transform="matrix(0.79822055,0,0,0.79822055,-15.629441,194.36351)"
       id="g4495"
       style="font-style:normal;font-weight:normal;font-size:2.98992205px;line-height:125%;font-family:sans-serif;letter-spacing:0px;word-spacing:0px;fill:#999999;fill-opacity:1;stroke:none;stroke-width:1px;stroke-linecap:butt;stroke-linejoin:miter;stroke-opacity:1">
      <g
         style="font-style:normal;font-variant:normal;font-weight:normal;font-stretch:normal;font-size:40px;line-height:125%;font-family:Helvetica;-inkscape-font-specification:Helvetica;letter-spacing:0px;word-spacing:0px;fill:#999999;fill-opacity:1;stroke:none;stroke-width:1px;stroke-linecap:butt;stroke-linejoin:miter;stroke-opacity:1"
         id="text4497" />
      <g
         style="font-style:normal;font-weight:normal;font-size:2.46652699px;line-height:125%;font-family:sans-serif;letter-spacing:0px;word-spacing:0px;fill:#999999;fill-opacity:1;stroke:none;stroke-width:1px;stroke-linecap:butt;stroke-linejoin:miter;stroke-opacity:1"
         id="text4501">
        <path
           d="m 43.961055,975.05707 0.620523,-1.64355 0.126341,0 0.127459,0 0.590336,1.64355 0,0 -0.119633,0 -0.119632,0 0,0 -0.166591,-0.4763 0,0 -0.65742,0 0,0 -0.172181,0.4763 0,0 -0.114042,0 -0.11516,0 0,0 z m 0.736801,-1.40205 -0.263862,0.72898 0,0 0.517662,0 0,0 -0.2538,-0.72898 0,0 0,0 z"
           style="font-style:normal;font-variant:normal;font-weight:normal;font-stretch:normal;font-size:2.28978753px;font-family:Helvetica;-inkscape-font-specification:Helvetica;fill:#999999;fill-opacity:1"
           id="path4343" />
        <path
           d="m 45.606839,975.05707 0,-1.19633 0,0 0.09504,0 0.09615,0 0,0 0,0.17666 0,0 0,0 0.04472,-0.0593 q 0.130813,-0.15317 0.327592,-0.15317 0.197896,0 0.30523,0.10733 0.107334,0.10733 0.107334,0.30523 l 0,0.81954 0,0 -0.100625,0 -0.100626,0 0,0 0,-0.75134 q 0,-0.15765 -0.06149,-0.22696 -0.06038,-0.0704 -0.196779,-0.0704 -0.145348,0 -0.23032,0.11069 -0.08497,0.10957 -0.08497,0.2974 l 0,0 0,0.64065 0,0 -0.100625,0 -0.100626,0 0,0 z"
           style="font-style:normal;font-variant:normal;font-weight:normal;font-stretch:normal;font-size:2.28978753px;font-family:Helvetica;-inkscape-font-specification:Helvetica;fill:#999999;fill-opacity:1"
           id="path4345" />
        <path
           d="m 47.851904,973.86074 -0.45505,1.23546 q -0.105098,0.27616 -0.187834,0.36113 -0.08162,0.085 -0.245973,0.085 -0.05367,0.001 -0.09727,-0.0123 l 0,-0.18672 q 0.04584,0.0168 0.11516,0.0179 0.0682,0 0.114043,-0.0559 0.04584,-0.0559 0.103979,-0.20908 l 0.0034,-0.019 0,0 -0.44387,-1.21645 0,0 0.114043,0 0.11516,0 0,0 0.319765,0.98949 0,0 0,0 0.324238,-0.98949 0,0 0.10957,0 0.110687,0 0,0 z"
           style="font-style:normal;font-variant:normal;font-weight:normal;font-stretch:normal;font-size:2.28978753px;font-family:Helvetica;-inkscape-font-specification:Helvetica;fill:#999999;fill-opacity:1"
           id="path4347" />
        <path
           d="m 49.117549,975.08949 q -0.240383,0 -0.382377,-0.17889 -0.141994,-0.18001 -0.141994,-0.48524 0,-0.26945 0.137522,-0.43492 0.137521,-0.16547 0.358897,-0.16547 0.220258,0 0.348835,0.18671 l 0.01565,0.0224 0,0 0,-0.62052 0,0 0.100625,0 0.100626,0 0,0 0,1.64355 0,0 -0.0928,0 -0.09392,0 0,0 0,-0.16324 0,0 -0.02572,0.0369 q -0.124104,0.15876 -0.325355,0.15876 z m 0.01118,-1.0834 q -0.168827,0 -0.247091,0.10845 -0.07826,0.10734 -0.07826,0.34213 0,0.22138 0.08385,0.34101 0.08497,0.11963 0.241501,0.11963 0.146466,0 0.235911,-0.10957 0.08944,-0.11069 0.08944,-0.29181 0,-0.24486 -0.08497,-0.37679 -0.08385,-0.13305 -0.240383,-0.13305 z"
           style="font-style:normal;font-variant:normal;font-weight:normal;font-stretch:normal;font-size:2.28978753px;font-family:Helvetica;-inkscape-font-specification:Helvetica;fill:#999999;fill-opacity:1"
           id="path4349" />
        <path
           d="m 50.251262,975.08949 q -0.175536,0 -0.278397,-0.0939 -0.102862,-0.0939 -0.102862,-0.2538 0,-0.161 0.09615,-0.25603 0.09727,-0.095 0.28287,-0.11852 l 0.273924,-0.0347 q 0.03354,-0.003 0.06373,-0.0112 0.03913,-0.0101 0.06038,-0.0403 0.02124,-0.0302 0.02124,-0.076 l 0,-0.0101 q 0,-0.0961 -0.07267,-0.14982 -0.07267,-0.0548 -0.202369,-0.0548 -0.124104,0 -0.194542,0.0581 -0.06932,0.057 -0.08385,0.17106 l 0,0 -0.185598,0 0,0 q 0.01454,-0.19678 0.13864,-0.29517 0.124105,-0.0995 0.355543,-0.0995 0.218022,0 0.332064,0.095 0.114042,0.0939 0.114042,0.27504 l 0,0.65742 q 0,0.0302 0.01789,0.0492 0.01901,0.0179 0.05031,0.0179 0.0089,0 0.02571,-0.002 0.01789,-0.002 0.03801,-0.007 l 0,0.14535 q -0.02907,0.0112 -0.06149,0.0179 -0.03242,0.007 -0.05479,0.007 -0.114042,0 -0.165473,-0.0626 -0.03354,-0.0414 -0.04808,-0.1174 l 0,0 q -0.02236,0.028 -0.05143,0.0537 -0.150938,0.13528 -0.36896,0.13528 z m 0.417036,-0.50648 0,-0.12969 0,0 q -0.0559,0.0268 -0.124104,0.0369 l -0.18448,0.0268 q -0.145348,0.0201 -0.212432,0.0682 -0.06708,0.047 -0.06708,0.12857 0,0.10063 0.05478,0.15541 0.05479,0.0537 0.155411,0.0537 0.158764,0 0.268334,-0.0861 0.07491,-0.0604 0.09951,-0.1364 0.0045,-0.0145 0.0067,-0.0458 0.0034,-0.0324 0.0034,-0.0716 z"
           style="font-style:normal;font-variant:normal;font-weight:normal;font-stretch:normal;font-size:2.28978753px;font-family:Helvetica;-inkscape-font-specification:Helvetica;fill:#999999;fill-opacity:1"
           id="path4351" />
        <path
           d="m 51.649955,975.05595 q -0.102862,0.0156 -0.14982,0.0156 -0.131931,0 -0.186716,-0.0581 -0.05367,-0.0581 -0.05367,-0.20013 l 0,-0.78823 0,0 -0.165473,0 0,-0.16436 0.165473,0 0,0 0,-0.33541 0.201251,0 0,0.33541 0,0 0.188952,0 0,0.16436 -0.188952,0 0,0 0,0.78823 q 0,0.0403 0.03131,0.0637 0.03242,0.0235 0.08609,0.0235 l 0.07156,0 0,0.15541 z"
           style="font-style:normal;font-variant:normal;font-weight:normal;font-stretch:normal;font-size:2.28978753px;font-family:Helvetica;-inkscape-font-specification:Helvetica;fill:#999999;fill-opacity:1"
           id="path4353" />
        <path
           d="m 52.160909,975.08949 q -0.175536,0 -0.278397,-0.0939 -0.102862,-0.0939 -0.102862,-0.2538 0,-0.161 0.09615,-0.25603 0.09727,-0.095 0.28287,-0.11852 l 0.273924,-0.0347 q 0.03354,-0.003 0.06373,-0.0112 0.03913,-0.0101 0.06038,-0.0403 0.02124,-0.0302 0.02124,-0.076 l 0,-0.0101 q 0,-0.0961 -0.07267,-0.14982 -0.07267,-0.0548 -0.202369,-0.0548 -0.124104,0 -0.194542,0.0581 -0.06932,0.057 -0.08385,0.17106 l 0,0 -0.185598,0 0,0 q 0.01454,-0.19678 0.13864,-0.29517 0.124105,-0.0995 0.355543,-0.0995 0.218022,0 0.332064,0.095 0.114042,0.0939 0.114042,0.27504 l 0,0.65742 q 0,0.0302 0.01789,0.0492 0.01901,0.0179 0.05031,0.0179 0.0089,0 0.02571,-0.002 0.01789,-0.002 0.03801,-0.007 l 0,0.14535 q -0.02907,0.0112 -0.06149,0.0179 -0.03242,0.007 -0.05479,0.007 -0.114042,0 -0.165473,-0.0626 -0.03354,-0.0414 -0.04808,-0.1174 l 0,0 q -0.02236,0.028 -0.05143,0.0537 -0.150938,0.13528 -0.36896,0.13528 z m 0.417036,-0.50648 0,-0.12969 0,0 q -0.0559,0.0268 -0.124104,0.0369 l -0.18448,0.0268 q -0.145348,0.0201 -0.212432,0.0682 -0.06708,0.047 -0.06708,0.12857 0,0.10063 0.05478,0.15541 0.05479,0.0537 0.155411,0.0537 0.158764,0 0.268334,-0.0861 0.07491,-0.0604 0.09951,-0.1364 0.0045,-0.0145 0.0067,-0.0458 0.0034,-0.0324 0.0034,-0.0716 z"
           style="font-style:normal;font-variant:normal;font-weight:normal;font-stretch:normal;font-size:2.28978753px;font-family:Helvetica;-inkscape-font-specification:Helvetica;fill:#999999;fill-opacity:1"
           id="path4355" />
        <path
           d="m 53.759735,975.05707 0,-1.64355 0,0 0.100625,0 0.100626,0 0,0 0,1.64355 0,0 -0.100626,0 -0.100625,0 0,0 z"
           style="font-style:normal;font-variant:normal;font-weight:normal;font-stretch:normal;font-size:2.28978753px;font-family:Helvetica;-inkscape-font-specification:Helvetica;fill:#999999;fill-opacity:1"
           id="path4357" />
        <path
           d="m 54.752572,975.08949 q -0.248209,0 -0.402501,-0.17442 -0.153175,-0.17441 -0.153175,-0.45728 0,-0.28399 0.153175,-0.45841 0.154292,-0.17441 0.402501,-0.17441 0.250446,0 0.40362,0.17441 0.153174,0.17442 0.153174,0.45841 0,0.28287 -0.153174,0.45728 -0.153174,0.17442 -0.40362,0.17442 l 0,0 z m 0,-0.1733 q 0.158765,0 0.252682,-0.1241 0.09392,-0.12411 0.09392,-0.3343 0,-0.2102 -0.09392,-0.3343 -0.09392,-0.12523 -0.252682,-0.12523 -0.158764,0 -0.252681,0.12523 -0.0928,0.1241 -0.0928,0.3343 0,0.21019 0.0928,0.3343 0.09392,0.1241 0.252681,0.1241 l 0,0 z"
           style="font-style:normal;font-variant:normal;font-weight:normal;font-stretch:normal;font-size:2.28978753px;font-family:Helvetica;-inkscape-font-specification:Helvetica;fill:#999999;fill-opacity:1"
           id="path4359" />
        <path
           d="m 56.225058,974.20734 0,0 q -0.0089,-0.0995 -0.08162,-0.15429 -0.07156,-0.0548 -0.193424,-0.0548 -0.125223,0 -0.191189,0.0436 -0.06485,0.0436 -0.06485,0.12746 0,0.0637 0.04584,0.0962 0.04584,0.0324 0.182244,0.0648 l 0.207959,0.0492 q 0.174418,0.0425 0.249328,0.1174 0.07379,0.0738 0.07379,0.20684 0,0.17777 -0.128577,0.28175 -0.127459,0.10398 -0.345481,0.10398 -0.252681,0 -0.376786,-0.0995 -0.124105,-0.10062 -0.137522,-0.31529 l 0,0 0.193425,0 0,0 q 0.01453,0.12746 0.08944,0.18448 0.07603,0.057 0.231438,0.057 0.135286,0 0.204605,-0.0514 0.07044,-0.0514 0.07044,-0.14982 0,-0.0626 -0.04584,-0.095 -0.04584,-0.0324 -0.18448,-0.0648 l -0.20796,-0.0492 q -0.168827,-0.0403 -0.240383,-0.11292 -0.07156,-0.0716 -0.07156,-0.20125 0,-0.16883 0.119632,-0.26722 0.120751,-0.0995 0.326474,-0.0995 0.209077,0 0.332064,0.10174 0.124104,0.10174 0.131931,0.28063 l 0,0 -0.188953,0 z"
           style="font-style:normal;font-variant:normal;font-weight:normal;font-stretch:normal;font-size:2.28978753px;font-family:Helvetica;-inkscape-font-specification:Helvetica;fill:#999999;fill-opacity:1"
           id="path4361" />
        <path
           d="m 57.369952,974.20734 0,0 q -0.0089,-0.0995 -0.08162,-0.15429 -0.07156,-0.0548 -0.193425,-0.0548 -0.125222,0 -0.191188,0.0436 -0.06485,0.0436 -0.06485,0.12746 0,0.0637 0.04584,0.0962 0.04584,0.0324 0.182244,0.0648 l 0.207959,0.0492 q 0.174417,0.0425 0.249327,0.1174 0.07379,0.0738 0.07379,0.20684 0,0.17777 -0.128576,0.28175 -0.127459,0.10398 -0.345481,0.10398 -0.252682,0 -0.376786,-0.0995 -0.124105,-0.10062 -0.137522,-0.31529 l 0,0 0.193425,0 0,0 q 0.01453,0.12746 0.08944,0.18448 0.07603,0.057 0.231439,0.057 0.135285,0 0.204605,-0.0514 0.07044,-0.0514 0.07044,-0.14982 0,-0.0626 -0.04584,-0.095 -0.04584,-0.0324 -0.18448,-0.0648 l -0.207959,-0.0492 q -0.168827,-0.0403 -0.240383,-0.11292 -0.07156,-0.0716 -0.07156,-0.20125 0,-0.16883 0.119633,-0.26722 0.12075,-0.0995 0.326473,-0.0995 0.209078,0 0.332064,0.10174 0.124105,0.10174 0.131931,0.28063 l 0,0 -0.188952,0 z"
           style="font-style:normal;font-variant:normal;font-weight:normal;font-stretch:normal;font-size:2.28978753px;font-family:Helvetica;-inkscape-font-specification:Helvetica;fill:#999999;fill-opacity:1"
           id="path4363" />
        <path
           d="m 58.471242,975.05707 0,-1.19633 0,0 0.100625,0 0.100625,0 0,0 0,1.19633 0,0 -0.100625,0 -0.100625,0 0,0 z m -0.0022,-1.64355 0.205724,0 0,0.22808 -0.205724,0 0,-0.22808 z"
           style="font-style:normal;font-variant:normal;font-weight:normal;font-stretch:normal;font-size:2.28978753px;font-family:Helvetica;-inkscape-font-specification:Helvetica;fill:#999999;fill-opacity:1"
           id="path4365" />
        <path
           d="m 59.659739,974.20734 0,0 q -0.0089,-0.0995 -0.08162,-0.15429 -0.07156,-0.0548 -0.193424,-0.0548 -0.125223,0 -0.191189,0.0436 -0.06485,0.0436 -0.06485,0.12746 0,0.0637 0.04584,0.0962 0.04584,0.0324 0.182244,0.0648 l 0.207959,0.0492 q 0.174418,0.0425 0.249328,0.1174 0.07379,0.0738 0.07379,0.20684 0,0.17777 -0.128577,0.28175 -0.127459,0.10398 -0.345481,0.10398 -0.252681,0 -0.376786,-0.0995 -0.124105,-0.10062 -0.137522,-0.31529 l 0,0 0.193425,0 0,0 q 0.01454,0.12746 0.08944,0.18448 0.07603,0.057 0.231438,0.057 0.135285,0 0.204605,-0.0514 0.07044,-0.0514 0.07044,-0.14982 0,-0.0626 -0.04584,-0.095 -0.04584,-0.0324 -0.18448,-0.0648 l -0.20796,-0.0492 q -0.168827,-0.0403 -0.240383,-0.11292 -0.07155,-0.0716 -0.07155,-0.20125 0,-0.16883 0.119632,-0.26722 0.12075,-0.0995 0.326474,-0.0995 0.209077,0 0.332064,0.10174 0.124104,0.10174 0.131931,0.28063 l 0,0 -0.188953,0 z"
           style="font-style:normal;font-variant:normal;font-weight:normal;font-stretch:normal;font-size:2.28978753px;font-family:Helvetica;-inkscape-font-specification:Helvetica;fill:#999999;fill-opacity:1"
           id="path4367" />
        <path
           d="m 60.75432,975.05707 0,-1.19633 0,0 0.09504,0 0.09615,0 0,0 0,0.17666 0,0 0,0 0.04472,-0.0593 q 0.130813,-0.15317 0.327592,-0.15317 0.197897,0 0.30523,0.10733 0.107334,0.10733 0.107334,0.30523 l 0,0.81954 0,0 -0.100625,0 -0.100626,0 0,0 0,-0.75134 q 0,-0.15765 -0.06149,-0.22696 -0.06038,-0.0704 -0.196779,-0.0704 -0.145347,0 -0.23032,0.11069 -0.08497,0.10957 -0.08497,0.2974 l 0,0 0,0.64065 0,0 -0.100625,0 -0.100625,0 0,0 z"
           style="font-style:normal;font-variant:normal;font-weight:normal;font-stretch:normal;font-size:2.28978753px;font-family:Helvetica;-inkscape-font-specification:Helvetica;fill:#999999;fill-opacity:1"
           id="path4369" />
        <path
           d="m 62.516383,975.08949 q -0.248209,0 -0.402501,-0.17442 -0.153175,-0.17441 -0.153175,-0.45728 0,-0.28399 0.153175,-0.45841 0.154292,-0.17441 0.402501,-0.17441 0.250446,0 0.40362,0.17441 0.153174,0.17442 0.153174,0.45841 0,0.28287 -0.153174,0.45728 -0.153174,0.17442 -0.40362,0.17442 l 0,0 z m 0,-0.1733 q 0.158765,0 0.252682,-0.1241 0.09392,-0.12411 0.09392,-0.3343 0,-0.2102 -0.09392,-0.3343 -0.09392,-0.12523 -0.252682,-0.12523 -0.158764,0 -0.252681,0.12523 -0.0928,0.1241 -0.0928,0.3343 0,0.21019 0.0928,0.3343 0.09392,0.1241 0.252681,0.1241 l 0,0 z"
           style="font-style:normal;font-variant:normal;font-weight:normal;font-stretch:normal;font-size:2.28978753px;font-family:Helvetica;-inkscape-font-specification:Helvetica;fill:#999999;fill-opacity:1"
           id="path4371" />
        <path
           d="m 63.742896,975.05595 q -0.102861,0.0156 -0.14982,0.0156 -0.131931,0 -0.186716,-0.0581 -0.05367,-0.0581 -0.05367,-0.20013 l 0,-0.78823 0,0 -0.165473,0 0,-0.16436 0.165473,0 0,0 0,-0.33541 0.201251,0 0,0.33541 0,0 0.188952,0 0,0.16436 -0.188952,0 0,0 0,0.78823 q 0,0.0403 0.03131,0.0637 0.03242,0.0235 0.08609,0.0235 l 0.07156,0 0,0.15541 z"
           style="font-style:normal;font-variant:normal;font-weight:normal;font-stretch:normal;font-size:2.28978753px;font-family:Helvetica;-inkscape-font-specification:Helvetica;fill:#999999;fill-opacity:1"
           id="path4373" />
        <path
           d="m 65.011893,975.39584 q 0.1733,0 0.263862,-0.10957 0.09056,-0.10845 0.09056,-0.31753 l 0,-0.0391 -0.0011,0.001 q -0.124104,0.15876 -0.324237,0.15876 -0.240383,0 -0.382377,-0.17889 -0.141994,-0.18001 -0.141994,-0.48524 0,-0.26945 0.139758,-0.43492 0.139758,-0.16547 0.365606,-0.16547 0.215785,0 0.342126,0.18671 l 0.01454,0.0212 0,0 0,-0.17218 0,0 0.188952,0 0,1.108 q -0.0011,0.303 -0.136403,0.44834 -0.135286,0.14535 -0.415919,0.14535 -0.203487,0 -0.323119,-0.0939 -0.119633,-0.0939 -0.14423,-0.2728 l 0,0 0.205723,0 0,0 q 0.01789,0.0962 0.08497,0.14758 0.0682,0.0525 0.173299,0.0525 z m 0.03913,-1.38751 q -0.168827,0 -0.247091,0.10733 -0.07715,0.10733 -0.07715,0.34101 0,0.22026 0.08385,0.33989 0.08497,0.11851 0.240383,0.11851 0.146466,0 0.235911,-0.10957 0.08944,-0.10957 0.08944,-0.28957 0,-0.2538 -0.08162,-0.38014 -0.0805,-0.12746 -0.243737,-0.12746 z"
           style="font-style:normal;font-variant:normal;font-weight:normal;font-stretch:normal;font-size:2.28978753px;font-family:Helvetica;-inkscape-font-specification:Helvetica;fill:#999999;fill-opacity:1"
           id="path4375" />
        <path
           d="m 66.056162,973.86074 0,0.77146 q 0,0.15094 0.05814,0.21803 0.05814,0.066 0.188953,0.066 0.145347,0 0.23032,-0.1118 0.08497,-0.11293 0.08497,-0.30523 l 0,0 0,-0.63842 0,0 0.100625,0 0.100625,0 0,0 0,1.19633 0,0 -0.09503,0 -0.09615,0 0,0 0,-0.18225 0,0 0,0 q -0.02012,0.0324 -0.04472,0.0615 -0.128577,0.15317 -0.322002,0.15317 -0.203487,0 -0.30523,-0.10174 -0.101744,-0.10175 -0.101744,-0.30523 l 0,-0.82178 0,0 0.100626,0 0.100625,0 0,0 z"
           style="font-style:normal;font-variant:normal;font-weight:normal;font-stretch:normal;font-size:2.28978753px;font-family:Helvetica;-inkscape-font-specification:Helvetica;fill:#999999;fill-opacity:1"
           id="path4377" />
        <path
           d="m 67.438086,975.08949 q -0.175536,0 -0.278397,-0.0939 -0.102862,-0.0939 -0.102862,-0.2538 0,-0.161 0.09615,-0.25603 0.09727,-0.095 0.282869,-0.11852 l 0.273925,-0.0347 q 0.03354,-0.003 0.06373,-0.0112 0.03913,-0.0101 0.06037,-0.0403 0.02124,-0.0302 0.02124,-0.076 l 0,-0.0101 q 0,-0.0961 -0.07267,-0.14982 -0.07267,-0.0548 -0.202369,-0.0548 -0.124104,0 -0.194542,0.0581 -0.06932,0.057 -0.08385,0.17106 l 0,0 -0.185598,0 0,0 q 0.01453,-0.19678 0.13864,-0.29517 0.124104,-0.0995 0.355543,-0.0995 0.218022,0 0.332064,0.095 0.114042,0.0939 0.114042,0.27504 l 0,0.65742 q 0,0.0302 0.01789,0.0492 0.01901,0.0179 0.05031,0.0179 0.0089,0 0.02572,-0.002 0.01789,-0.002 0.03801,-0.007 l 0,0.14535 q -0.02907,0.0112 -0.06149,0.0179 -0.03242,0.007 -0.05479,0.007 -0.114042,0 -0.165473,-0.0626 -0.03354,-0.0414 -0.04808,-0.1174 l 0,0 q -0.02236,0.028 -0.05143,0.0537 -0.150939,0.13528 -0.36896,0.13528 z m 0.417036,-0.50648 0,-0.12969 0,0 q -0.0559,0.0268 -0.124105,0.0369 l -0.18448,0.0268 q -0.145347,0.0201 -0.212431,0.0682 -0.06708,0.047 -0.06708,0.12857 0,0.10063 0.05479,0.15541 0.05478,0.0537 0.155411,0.0537 0.158764,0 0.268334,-0.0861 0.07491,-0.0604 0.09951,-0.1364 0.0045,-0.0145 0.0067,-0.0458 0.0034,-0.0324 0.0034,-0.0716 z"
           style="font-style:normal;font-variant:normal;font-weight:normal;font-stretch:normal;font-size:2.28978753px;font-family:Helvetica;-inkscape-font-specification:Helvetica;fill:#999999;fill-opacity:1"
           id="path4379" />
        <path
           d="m 68.425332,975.05707 0,-1.19633 0,0 0.09503,0 0.09615,0 0,0 0,0.20461 0,0 0,0 q 0.02572,-0.0481 0.05479,-0.0872 0.114042,-0.15317 0.280633,-0.15317 0.02795,0 0.05702,0.0101 l 0,0.20572 -0.04137,-0.001 q -0.163237,0 -0.252682,0.0984 -0.08833,0.0973 -0.08833,0.2784 l 0,0 0,0.64065 0,0 -0.100626,0 -0.100625,0 0,0 z"
           style="font-style:normal;font-variant:normal;font-weight:normal;font-stretch:normal;font-size:2.28978753px;font-family:Helvetica;-inkscape-font-specification:Helvetica;fill:#999999;fill-opacity:1"
           id="path4381" />
        <path
           d="m 69.477427,975.08949 q -0.175536,0 -0.278397,-0.0939 -0.102862,-0.0939 -0.102862,-0.2538 0,-0.161 0.09615,-0.25603 0.09727,-0.095 0.282869,-0.11852 l 0.273925,-0.0347 q 0.03354,-0.003 0.06373,-0.0112 0.03913,-0.0101 0.06038,-0.0403 0.02124,-0.0302 0.02124,-0.076 l 0,-0.0101 q 0,-0.0961 -0.07267,-0.14982 -0.07267,-0.0548 -0.202369,-0.0548 -0.124104,0 -0.194542,0.0581 -0.06932,0.057 -0.08385,0.17106 l 0,0 -0.185598,0 0,0 q 0.01454,-0.19678 0.13864,-0.29517 0.124104,-0.0995 0.355543,-0.0995 0.218022,0 0.332064,0.095 0.114042,0.0939 0.114042,0.27504 l 0,0.65742 q 0,0.0302 0.01789,0.0492 0.01901,0.0179 0.05031,0.0179 0.0089,0 0.02572,-0.002 0.01789,-0.002 0.03801,-0.007 l 0,0.14535 q -0.02907,0.0112 -0.06149,0.0179 -0.03242,0.007 -0.05478,0.007 -0.114042,0 -0.165473,-0.0626 -0.03354,-0.0414 -0.04808,-0.1174 l 0,0 q -0.02236,0.028 -0.05143,0.0537 -0.150938,0.13528 -0.368959,0.13528 z m 0.417036,-0.50648 0,-0.12969 0,0 q -0.0559,0.0268 -0.124105,0.0369 l -0.18448,0.0268 q -0.145347,0.0201 -0.212431,0.0682 -0.06708,0.047 -0.06708,0.12857 0,0.10063 0.05478,0.15541 0.05478,0.0537 0.155411,0.0537 0.158764,0 0.268334,-0.0861 0.07491,-0.0604 0.09951,-0.1364 0.0045,-0.0145 0.0067,-0.0458 0.0034,-0.0324 0.0034,-0.0716 z"
           style="font-style:normal;font-variant:normal;font-weight:normal;font-stretch:normal;font-size:2.28978753px;font-family:Helvetica;-inkscape-font-specification:Helvetica;fill:#999999;fill-opacity:1"
           id="path4383" />
        <path
           d="m 70.436723,975.05707 0,-1.19633 0,0 0.09503,0 0.09615,0 0,0 0,0.17666 0,0 0,0 0.04472,-0.0593 q 0.130813,-0.15317 0.327592,-0.15317 0.197896,0 0.30523,0.10733 0.107334,0.10733 0.107334,0.30523 l 0,0.81954 0,0 -0.100626,0 -0.100625,0 0,0 0,-0.75134 q 0,-0.15765 -0.06149,-0.22696 -0.06038,-0.0704 -0.196779,-0.0704 -0.145348,0 -0.23032,0.11069 -0.08497,0.10957 -0.08497,0.2974 l 0,0 0,0.64065 0,0 -0.100625,0 -0.100626,0 0,0 z"
           style="font-style:normal;font-variant:normal;font-weight:normal;font-stretch:normal;font-size:2.28978753px;font-family:Helvetica;-inkscape-font-specification:Helvetica;fill:#999999;fill-opacity:1"
           id="path4385" />
        <path
           d="m 72.150708,975.05595 q -0.102861,0.0156 -0.14982,0.0156 -0.131931,0 -0.186716,-0.0581 -0.05367,-0.0581 -0.05367,-0.20013 l 0,-0.78823 0,0 -0.165473,0 0,-0.16436 0.165473,0 0,0 0,-0.33541 0.201251,0 0,0.33541 0,0 0.188952,0 0,0.16436 -0.188952,0 0,0 0,0.78823 q 0,0.0403 0.03131,0.0637 0.03242,0.0235 0.08609,0.0235 l 0.07155,0 0,0.15541 z"
           style="font-style:normal;font-variant:normal;font-weight:normal;font-stretch:normal;font-size:2.28978753px;font-family:Helvetica;-inkscape-font-specification:Helvetica;fill:#999999;fill-opacity:1"
           id="path4387" />
        <path
           d="m 72.833844,975.08949 q -0.253799,0 -0.399147,-0.161 -0.145348,-0.161 -0.145348,-0.44499 0,-0.30187 0.153174,-0.47964 0.154293,-0.17889 0.413683,-0.17889 0.234792,0 0.379022,0.17441 0.14423,0.17442 0.14423,0.45841 l -0.0022,0.0716 0,0 -0.874323,0 0,0 q 0.0123,0.17889 0.08162,0.27281 0.08497,0.11404 0.268334,0.11404 0.115161,0 0.201251,-0.0648 0.08609,-0.0648 0.105098,-0.16547 l 0,0 0.199015,0 0,0 q -0.04472,0.19678 -0.17889,0.30076 -0.134167,0.10286 -0.345481,0.10286 z m 0.335418,-0.72227 0,0 q -0.0089,-0.16659 -0.08274,-0.25939 -0.08162,-0.10286 -0.239265,-0.10286 -0.158764,0 -0.2538,0.11852 -0.07491,0.0928 -0.09056,0.24373 l 0,0 0.666363,0 z"
           style="font-style:normal;font-variant:normal;font-weight:normal;font-stretch:normal;font-size:2.28978753px;font-family:Helvetica;-inkscape-font-specification:Helvetica;fill:#999999;fill-opacity:1"
           id="path4389" />
        <path
           d="m 74.108432,975.08949 q -0.2538,0 -0.399148,-0.161 -0.145347,-0.161 -0.145347,-0.44499 0,-0.30187 0.153174,-0.47964 0.154292,-0.17889 0.413682,-0.17889 0.234793,0 0.379023,0.17441 0.144229,0.17442 0.144229,0.45841 l -0.0022,0.0716 0,0 -0.874323,0 0,0 q 0.0123,0.17889 0.08162,0.27281 0.08497,0.11404 0.268334,0.11404 0.11516,0 0.201251,-0.0648 0.08609,-0.0648 0.105098,-0.16547 l 0,0 0.199014,0 0,0 q -0.04472,0.19678 -0.178889,0.30076 -0.134168,0.10286 -0.345481,0.10286 z m 0.335418,-0.72227 0,0 q -0.0089,-0.16659 -0.08274,-0.25939 -0.08162,-0.10286 -0.239265,-0.10286 -0.158765,0 -0.2538,0.11852 -0.07491,0.0928 -0.09056,0.24373 l 0,0 0.666364,0 z"
           style="font-style:normal;font-variant:normal;font-weight:normal;font-stretch:normal;font-size:2.28978753px;font-family:Helvetica;-inkscape-font-specification:Helvetica;fill:#999999;fill-opacity:1"
           id="path4391" />
        <path
           d="m 75.351716,975.08949 q -0.240383,0 -0.382377,-0.17889 -0.141993,-0.18001 -0.141993,-0.48524 0,-0.26945 0.137521,-0.43492 0.137521,-0.16547 0.358897,-0.16547 0.220258,0 0.348835,0.18671 l 0.01565,0.0224 0,0 0,-0.62052 0,0 0.100625,0 0.100626,0 0,0 0,1.64355 0,0 -0.0928,0 -0.09392,0 0,0 0,-0.16324 0,0 -0.02572,0.0369 q -0.124104,0.15876 -0.325355,0.15876 z m 0.01118,-1.0834 q -0.168827,0 -0.247091,0.10845 -0.07826,0.10734 -0.07826,0.34213 0,0.22138 0.08385,0.34101 0.08497,0.11963 0.241501,0.11963 0.146466,0 0.235911,-0.10957 0.08945,-0.11069 0.08945,-0.29181 0,-0.24486 -0.08497,-0.37679 -0.08385,-0.13305 -0.240383,-0.13305 z"
           style="font-style:normal;font-variant:normal;font-weight:normal;font-stretch:normal;font-size:2.28978753px;font-family:Helvetica;-inkscape-font-specification:Helvetica;fill:#999999;fill-opacity:1"
           id="path4393" />
        <path
           d="m 76.22045,974.81445 0.239264,0 0,0.24262 -0.239264,0 0,-0.24262 z"
           style="font-style:normal;font-variant:normal;font-weight:normal;font-stretch:normal;font-size:2.28978753px;font-family:Helvetica;-inkscape-font-specification:Helvetica;fill:#999999;fill-opacity:1"
           id="path4395" />
        <path
           d="m 44.114229,977.9193 0,-1.64355 0,0 0.110688,0 0,0 0.56462,0 q 0.313057,0 0.497537,0.22362 0.185598,0.22249 0.185598,0.59928 0,0.37566 -0.19007,0.59816 -0.188952,0.22249 -0.510954,0.22249 l -0.546731,0 0,0 -0.110688,0 0,0 z m 0.222494,-0.19007 0,0 0.406974,0 q 0.239265,0 0.36896,-0.16435 0.130813,-0.16436 0.130813,-0.46623 0,-0.303 -0.125223,-0.46735 -0.125223,-0.16548 -0.355543,-0.16548 l -0.425981,0 0,0 0,1.26341 z"
           style="font-style:normal;font-variant:normal;font-weight:normal;font-stretch:normal;font-size:2.28978753px;font-family:Helvetica;-inkscape-font-specification:Helvetica;fill:#999999;fill-opacity:1"
           id="path4397" />
        <path
           d="m 46.219536,977.95173 q -0.248209,0 -0.402501,-0.17442 -0.153175,-0.17442 -0.153175,-0.45729 0,-0.28399 0.153175,-0.4584 0.154292,-0.17442 0.402501,-0.17442 0.250446,0 0.40362,0.17442 0.153174,0.17441 0.153174,0.4584 0,0.28287 -0.153174,0.45729 -0.153174,0.17442 -0.40362,0.17442 l 0,0 z m 0,-0.1733 q 0.158765,0 0.252682,-0.12411 0.09392,-0.1241 0.09392,-0.3343 0,-0.21019 -0.09392,-0.3343 -0.09392,-0.12522 -0.252682,-0.12522 -0.158764,0 -0.252681,0.12522 -0.0928,0.12411 -0.0928,0.3343 0,0.2102 0.0928,0.3343 0.09392,0.12411 0.252681,0.12411 l 0,0 z"
           style="font-style:normal;font-variant:normal;font-weight:normal;font-stretch:normal;font-size:2.28978753px;font-family:Helvetica;-inkscape-font-specification:Helvetica;fill:#999999;fill-opacity:1"
           id="path4399" />
        <path
           d="m 47.006651,977.9193 0,-1.19632 0,0 0.09504,0 0.09615,0 0,0 0,0.17665 0,0 0,0 0.04472,-0.0593 q 0.130813,-0.15317 0.327591,-0.15317 0.197897,0 0.305231,0.10733 0.107333,0.10734 0.107333,0.30523 l 0,0.81954 0,0 -0.100625,0 -0.100625,0 0,0 0,-0.75133 q 0,-0.15765 -0.06149,-0.22697 -0.06038,-0.0704 -0.196778,-0.0704 -0.145348,0 -0.230321,0.11069 -0.08497,0.10957 -0.08497,0.2974 l 0,0 0,0.64065 0,0 -0.100626,0 -0.100625,0 0,0 z"
           style="font-style:normal;font-variant:normal;font-weight:normal;font-stretch:normal;font-size:2.28978753px;font-family:Helvetica;-inkscape-font-specification:Helvetica;fill:#999999;fill-opacity:1"
           id="path4401" />
        <path
           d="m 48.267823,976.85826 0,-0.58251 0.166591,0 0,0.58251 -0.166591,0 z"
           style="font-style:normal;font-variant:normal;font-weight:normal;font-stretch:normal;font-size:2.28978753px;font-family:Helvetica;-inkscape-font-specification:Helvetica;fill:#999999;fill-opacity:1"
           id="path4404" />
        <path
           d="m 49.158917,977.91818 q -0.102862,0.0157 -0.14982,0.0157 -0.131931,0 -0.186716,-0.0581 -0.05367,-0.0581 -0.05367,-0.20013 l 0,-0.78824 0,0 -0.165473,0 0,-0.16435 0.165473,0 0,0 0,-0.33542 0.201251,0 0,0.33542 0,0 0.188952,0 0,0.16435 -0.188952,0 0,0 0,0.78824 q 0,0.0403 0.0313,0.0637 0.03242,0.0235 0.08609,0.0235 l 0.07156,0 0,0.15541 z"
           style="font-style:normal;font-variant:normal;font-weight:normal;font-stretch:normal;font-size:2.28978753px;font-family:Helvetica;-inkscape-font-specification:Helvetica;fill:#999999;fill-opacity:1"
           id="path4406" />
        <path
           d="m 50.240081,976.88957 0,0 0,1.02973 0,0 -0.100625,0 -0.100626,0 0,0 0,-1.02973 0,0 -0.165472,0 0,-0.16659 0.165472,0 0,0 0,-0.20349 q 0,-0.13305 0.07827,-0.20013 0.07826,-0.0671 0.234792,-0.0671 l 0.08833,0.003 0,0.18112 -0.07938,-0.003 q -0.05814,0 -0.08945,0.038 -0.03131,0.0369 -0.03131,0.10622 l 0,0.14535 0,0 0.200133,0 0,0.16659 -0.200133,0 z"
           style="font-style:normal;font-variant:normal;font-weight:normal;font-stretch:normal;font-size:2.28978753px;font-family:Helvetica;-inkscape-font-specification:Helvetica;fill:#999999;fill-opacity:1"
           id="path4408" />
        <path
           d="m 51.112169,977.95173 q -0.24821,0 -0.402502,-0.17442 -0.153174,-0.17442 -0.153174,-0.45729 0,-0.28399 0.153174,-0.4584 0.154292,-0.17442 0.402502,-0.17442 0.250445,0 0.403619,0.17442 0.153175,0.17441 0.153175,0.4584 0,0.28287 -0.153175,0.45729 -0.153174,0.17442 -0.403619,0.17442 l 0,0 z m 0,-0.1733 q 0.158764,0 0.252681,-0.12411 0.09392,-0.1241 0.09392,-0.3343 0,-0.21019 -0.09392,-0.3343 -0.09392,-0.12522 -0.252681,-0.12522 -0.158765,0 -0.252682,0.12522 -0.0928,0.12411 -0.0928,0.3343 0,0.2102 0.0928,0.3343 0.09392,0.12411 0.252682,0.12411 l 0,0 z"
           style="font-style:normal;font-variant:normal;font-weight:normal;font-stretch:normal;font-size:2.28978753px;font-family:Helvetica;-inkscape-font-specification:Helvetica;fill:#999999;fill-opacity:1"
           id="path4410" />
        <path
           d="m 51.927234,977.9193 0,-1.19632 0,0 0.09504,0 0.09615,0 0,0 0,0.2046 0,0 0,0 q 0.02571,-0.0481 0.05479,-0.0872 0.114042,-0.15317 0.280633,-0.15317 0.02795,0 0.05702,0.0101 l 0,0.20573 -0.04137,-0.001 q -0.163237,0 -0.252682,0.0984 -0.08833,0.0973 -0.08833,0.27839 l 0,0 0,0.64065 0,0 -0.100625,0 -0.100626,0 0,0 z"
           style="font-style:normal;font-variant:normal;font-weight:normal;font-stretch:normal;font-size:2.28978753px;font-family:Helvetica;-inkscape-font-specification:Helvetica;fill:#999999;fill-opacity:1"
           id="path4412" />
        <path
           d="m 53.102316,978.25807 q 0.173299,0 0.263862,-0.10957 0.09056,-0.10845 0.09056,-0.31752 l 0,-0.0391 -0.0011,0.001 q -0.124105,0.15877 -0.324238,0.15877 -0.240383,0 -0.382376,-0.17889 -0.141994,-0.18001 -0.141994,-0.48524 0,-0.26945 0.139758,-0.43493 0.139757,-0.16547 0.365605,-0.16547 0.215786,0 0.342127,0.18672 l 0.01454,0.0212 0,0 0,-0.17218 0,0 0.188952,0 0,1.108 q -0.0011,0.30299 -0.136404,0.44834 -0.135285,0.14535 -0.415918,0.14535 -0.203487,0 -0.323119,-0.0939 -0.119633,-0.0939 -0.14423,-0.27281 l 0,0 0.205723,0 0,0 q 0.01789,0.0961 0.08497,0.14759 0.0682,0.0525 0.1733,0.0525 z m 0.03913,-1.38751 q -0.168827,0 -0.247091,0.10734 -0.07715,0.10733 -0.07715,0.341 0,0.22026 0.08385,0.33989 0.08497,0.11852 0.240383,0.11852 0.146466,0 0.235911,-0.10957 0.08944,-0.10957 0.08944,-0.28958 0,-0.2538 -0.08162,-0.38014 -0.0805,-0.12746 -0.243737,-0.12746 z"
           style="font-style:normal;font-variant:normal;font-weight:normal;font-stretch:normal;font-size:2.28978753px;font-family:Helvetica;-inkscape-font-specification:Helvetica;fill:#999999;fill-opacity:1"
           id="path4414" />
        <path
           d="m 54.426099,977.95173 q -0.2538,0 -0.399147,-0.161 -0.145348,-0.16101 -0.145348,-0.44499 0,-0.30188 0.153174,-0.47965 0.154292,-0.17889 0.413682,-0.17889 0.234793,0 0.379023,0.17442 0.144229,0.17441 0.144229,0.4584 l -0.0022,0.0716 0,0 -0.874323,0 0,0 q 0.0123,0.17889 0.08162,0.2728 0.08497,0.11405 0.268334,0.11405 0.11516,0 0.201251,-0.0648 0.08609,-0.0648 0.105098,-0.16547 l 0,0 0.199014,0 0,0 q -0.04472,0.19677 -0.178889,0.30075 -0.134168,0.10287 -0.345481,0.10287 z m 0.335418,-0.72227 0,0 q -0.0089,-0.16659 -0.08274,-0.25939 -0.08162,-0.10286 -0.239265,-0.10286 -0.158765,0 -0.2538,0.11851 -0.07491,0.0928 -0.09056,0.24374 l 0,0 0.666364,0 z"
           style="font-style:normal;font-variant:normal;font-weight:normal;font-stretch:normal;font-size:2.28978753px;font-family:Helvetica;-inkscape-font-specification:Helvetica;fill:#999999;fill-opacity:1"
           id="path4416" />
        <path
           d="m 55.652611,977.91818 q -0.102862,0.0157 -0.14982,0.0157 -0.131931,0 -0.186716,-0.0581 -0.05367,-0.0581 -0.05367,-0.20013 l 0,-0.78824 0,0 -0.165473,0 0,-0.16435 0.165473,0 0,0 0,-0.33542 0.201251,0 0,0.33542 0,0 0.188952,0 0,0.16435 -0.188952,0 0,0 0,0.78824 q 0,0.0403 0.03131,0.0637 0.03242,0.0235 0.08609,0.0235 l 0.07156,0 0,0.15541 z"
           style="font-style:normal;font-variant:normal;font-weight:normal;font-stretch:normal;font-size:2.28978753px;font-family:Helvetica;-inkscape-font-specification:Helvetica;fill:#999999;fill-opacity:1"
           id="path4418" />
        <path
           d="m 56.922728,977.91818 q -0.102862,0.0157 -0.14982,0.0157 -0.131931,0 -0.186716,-0.0581 -0.05367,-0.0581 -0.05367,-0.20013 l 0,-0.78824 0,0 -0.165473,0 0,-0.16435 0.165473,0 0,0 0,-0.33542 0.201251,0 0,0.33542 0,0 0.188952,0 0,0.16435 -0.188952,0 0,0 0,0.78824 q 0,0.0403 0.03131,0.0637 0.03242,0.0235 0.08609,0.0235 l 0.07156,0 0,0.15541 z"
           style="font-style:normal;font-variant:normal;font-weight:normal;font-stretch:normal;font-size:2.28978753px;font-family:Helvetica;-inkscape-font-specification:Helvetica;fill:#999999;fill-opacity:1"
           id="path4420" />
        <path
           d="m 57.605863,977.95173 q -0.24821,0 -0.402502,-0.17442 -0.153174,-0.17442 -0.153174,-0.45729 0,-0.28399 0.153174,-0.4584 0.154292,-0.17442 0.402502,-0.17442 0.250445,0 0.40362,0.17442 0.153174,0.17441 0.153174,0.4584 0,0.28287 -0.153174,0.45729 -0.153175,0.17442 -0.40362,0.17442 l 0,0 z m 0,-0.1733 q 0.158764,0 0.252681,-0.12411 0.09392,-0.1241 0.09392,-0.3343 0,-0.21019 -0.09392,-0.3343 -0.09392,-0.12522 -0.252681,-0.12522 -0.158765,0 -0.252682,0.12522 -0.0928,0.12411 -0.0928,0.3343 0,0.2102 0.0928,0.3343 0.09392,0.12411 0.252682,0.12411 l 0,0 z"
           style="font-style:normal;font-variant:normal;font-weight:normal;font-stretch:normal;font-size:2.28978753px;font-family:Helvetica;-inkscape-font-specification:Helvetica;fill:#999999;fill-opacity:1"
           id="path4422" />
        <path
           d="m 59.012383,976.27575 0,0 0.100625,0 0.100626,0 0,0 0,0.60264 0,0 q 0.131931,-0.19343 0.341008,-0.19119 0.234793,0 0.371196,0.16212 0.137521,0.161 0.137521,0.43604 0,0.31194 -0.138639,0.48971 -0.137522,0.17666 -0.382377,0.17666 -0.202369,0 -0.322001,-0.15541 l -0.01901,-0.0246 0,0 0,0.14758 0,0 -0.188952,0 0,0 0,-1.64355 z m 0.519898,1.50156 q 0.157646,0 0.239265,-0.11852 0.08162,-0.11963 0.08162,-0.34771 0,-0.22473 -0.07826,-0.33207 -0.07826,-0.10845 -0.241501,-0.10845 -0.166591,0 -0.243737,0.12187 -0.07603,0.12187 -0.07603,0.38573 l 0,0 0,0 0,0 q 0,0.19119 0.08274,0.29517 0.08274,0.10398 0.235911,0.10398 z"
           style="font-style:normal;font-variant:normal;font-weight:normal;font-stretch:normal;font-size:2.28978753px;font-family:Helvetica;-inkscape-font-specification:Helvetica;fill:#999999;fill-opacity:1"
           id="path4424" />
        <path
           d="m 60.617916,977.95173 q -0.175535,0 -0.278397,-0.0939 -0.102861,-0.0939 -0.102861,-0.2538 0,-0.161 0.09615,-0.25604 0.09727,-0.095 0.282869,-0.11851 l 0.273925,-0.0347 q 0.03354,-0.003 0.06373,-0.0112 0.03913,-0.0101 0.06038,-0.0403 0.02124,-0.0302 0.02124,-0.076 l 0,-0.0101 q 0,-0.0962 -0.07267,-0.14982 -0.07267,-0.0548 -0.202369,-0.0548 -0.124105,0 -0.194543,0.0581 -0.06932,0.057 -0.08385,0.17107 l 0,0 -0.185598,0 0,0 q 0.01454,-0.19678 0.138639,-0.29517 0.124105,-0.0995 0.355543,-0.0995 0.218022,0 0.332064,0.095 0.114043,0.0939 0.114043,0.27505 l 0,0.65742 q 0,0.0302 0.01789,0.0492 0.01901,0.0179 0.05031,0.0179 0.0089,0 0.02572,-0.002 0.01789,-0.002 0.03801,-0.007 l 0,0.14534 q -0.02907,0.0112 -0.06149,0.0179 -0.03242,0.007 -0.05479,0.007 -0.114042,0 -0.165473,-0.0626 -0.03354,-0.0414 -0.04808,-0.1174 l 0,0 q -0.02236,0.028 -0.05143,0.0537 -0.150938,0.13529 -0.36896,0.13529 z m 0.417037,-0.50649 0,-0.12969 0,0 q -0.0559,0.0268 -0.124105,0.0369 l -0.18448,0.0268 q -0.145348,0.0201 -0.212431,0.0682 -0.06708,0.047 -0.06708,0.12858 0,0.10062 0.05479,0.15541 0.05479,0.0537 0.15541,0.0537 0.158765,0 0.268335,-0.0861 0.07491,-0.0604 0.09951,-0.1364 0.0045,-0.0145 0.0067,-0.0458 0.0034,-0.0324 0.0034,-0.0716 z"
           style="font-style:normal;font-variant:normal;font-weight:normal;font-stretch:normal;font-size:2.28978753px;font-family:Helvetica;-inkscape-font-specification:Helvetica;fill:#999999;fill-opacity:1"
           id="path4426" />
        <path
           d="m 62.520856,977.48885 0,0 q -0.03131,0.22585 -0.159883,0.34436 -0.128577,0.11852 -0.342126,0.11852 -0.238147,0 -0.380141,-0.17107 -0.141994,-0.17106 -0.141994,-0.46064 0,-0.28958 0.146466,-0.46064 0.147584,-0.17218 0.395794,-0.17218 0.215785,0 0.344362,0.11851 0.128577,0.1174 0.137522,0.32424 l 0,0 -0.193425,0 0,0 q -0.0123,-0.12858 -0.08944,-0.19901 -0.07715,-0.0704 -0.205723,-0.0704 -0.152056,0 -0.239265,0.12299 -0.08609,0.12186 -0.08609,0.33653 0,0.22809 0.0805,0.34325 0.0805,0.11516 0.239265,0.11516 0.117396,0 0.19566,-0.0749 0.07938,-0.076 0.105098,-0.21467 l 0,0 0.193425,0 z"
           style="font-style:normal;font-variant:normal;font-weight:normal;font-stretch:normal;font-size:2.28978753px;font-family:Helvetica;-inkscape-font-specification:Helvetica;fill:#999999;fill-opacity:1"
           id="path4428" />
        <path
           d="m 62.726579,977.9193 0,-1.64355 0,0 0.100625,0 0.100625,0 0,0 0,0.947 0,0 0.505364,-0.49977 0,0 0.127459,0 0.128577,0 0,0 -0.455051,0.44387 0,0 0.485238,0.75245 0,0 -0.130813,0 -0.131931,0 0,0 -0.371196,-0.60822 0,0 -0.157647,0.15429 0,0 0,0.45393 0,0 -0.100625,0 -0.100625,0 0,0 z"
           style="font-style:normal;font-variant:normal;font-weight:normal;font-stretch:normal;font-size:2.28978753px;font-family:Helvetica;-inkscape-font-specification:Helvetica;fill:#999999;fill-opacity:1"
           id="path4430" />
        <path
           d="m 64.074959,976.72298 0,0.77146 q 0,0.15094 0.05814,0.21802 0.05814,0.066 0.188953,0.066 0.145347,0 0.23032,-0.11181 0.08497,-0.11292 0.08497,-0.30523 l 0,0 0,-0.63841 0,0 0.100625,0 0.100625,0 0,0 0,1.19632 0,0 -0.09503,0 -0.09615,0 0,0 0,-0.18224 0,0 0,0 q -0.02013,0.0324 -0.04472,0.0615 -0.128577,0.15318 -0.322002,0.15318 -0.203487,0 -0.30523,-0.10175 -0.101744,-0.10174 -0.101744,-0.30523 l 0,-0.82177 0,0 0.100626,0 0.100625,0 0,0 z"
           style="font-style:normal;font-variant:normal;font-weight:normal;font-stretch:normal;font-size:2.28978753px;font-family:Helvetica;-inkscape-font-specification:Helvetica;fill:#999999;fill-opacity:1"
           id="path4432" />
        <path
           d="m 65.125937,976.72298 0,0 0.09504,0 0.09615,0 0,0 0,0.16994 0,0 0.01006,-0.0145 q 0.129695,-0.19119 0.341008,-0.19119 0.234793,0 0.371196,0.16212 0.137521,0.161 0.137521,0.43604 0,0.31194 -0.138639,0.48971 -0.137522,0.17666 -0.382377,0.17666 -0.202369,0 -0.322001,-0.15541 l -0.0067,-0.009 0,0 0,0.60487 0,0 -0.100626,0 -0.100625,0 0,0 0,-1.66926 z m 0.519898,1.05433 q 0.157646,0 0.239265,-0.11852 0.08162,-0.11963 0.08162,-0.34771 0,-0.22473 -0.07826,-0.33207 -0.07826,-0.10845 -0.241501,-0.10845 -0.166591,0 -0.243737,0.12187 -0.07603,0.12187 -0.07603,0.38573 l 0,0 0,0 0,0 q 0,0.19119 0.08274,0.29517 0.08274,0.10398 0.235911,0.10398 z"
           style="font-style:normal;font-variant:normal;font-weight:normal;font-stretch:normal;font-size:2.28978753px;font-family:Helvetica;-inkscape-font-specification:Helvetica;fill:#999999;fill-opacity:1"
           id="path4434" />
        <path
           d="m 68.021713,976.72298 -0.455051,1.23545 q -0.105097,0.27617 -0.187834,0.36114 -0.08162,0.085 -0.245973,0.085 -0.05367,0.001 -0.09727,-0.0123 l 0,-0.18671 q 0.04584,0.0168 0.11516,0.0179 0.0682,0 0.114042,-0.0559 0.04584,-0.0559 0.10398,-0.20908 l 0.0034,-0.019 0,0 -0.44387,-1.21645 0,0 0.114042,0 0.11516,0 0,0 0.319765,0.98948 0,0 0,0 0.324238,-0.98948 0,0 0.10957,0 0.110688,0 0,0 z"
           style="font-style:normal;font-variant:normal;font-weight:normal;font-stretch:normal;font-size:2.28978753px;font-family:Helvetica;-inkscape-font-specification:Helvetica;fill:#999999;fill-opacity:1"
           id="path4436" />
        <path
           d="m 68.683604,977.95173 q -0.248209,0 -0.402501,-0.17442 -0.153175,-0.17442 -0.153175,-0.45729 0,-0.28399 0.153175,-0.4584 0.154292,-0.17442 0.402501,-0.17442 0.250446,0 0.40362,0.17442 0.153174,0.17441 0.153174,0.4584 0,0.28287 -0.153174,0.45729 -0.153174,0.17442 -0.40362,0.17442 l 0,0 z m 0,-0.1733 q 0.158765,0 0.252682,-0.12411 0.09392,-0.1241 0.09392,-0.3343 0,-0.21019 -0.09392,-0.3343 -0.09392,-0.12522 -0.252682,-0.12522 -0.158764,0 -0.252681,0.12522 -0.0928,0.12411 -0.0928,0.3343 0,0.2102 0.0928,0.3343 0.09392,0.12411 0.252681,0.12411 l 0,0 z"
           style="font-style:normal;font-variant:normal;font-weight:normal;font-stretch:normal;font-size:2.28978753px;font-family:Helvetica;-inkscape-font-specification:Helvetica;fill:#999999;fill-opacity:1"
           id="path4438" />
        <path
           d="m 69.678677,976.72298 0,0.77146 q 0,0.15094 0.05814,0.21802 0.05814,0.066 0.188952,0.066 0.145348,0 0.230321,-0.11181 0.08497,-0.11292 0.08497,-0.30523 l 0,0 0,-0.63841 0,0 0.100626,0 0.100625,0 0,0 0,1.19632 0,0 -0.09503,0 -0.09615,0 0,0 0,-0.18224 0,0 0,0 q -0.02013,0.0324 -0.04472,0.0615 -0.128576,0.15318 -0.322001,0.15318 -0.203487,0 -0.30523,-0.10175 -0.101744,-0.10174 -0.101744,-0.30523 l 0,-0.82177 0,0 0.100626,0 0.100625,0 0,0 z"
           style="font-style:normal;font-variant:normal;font-weight:normal;font-stretch:normal;font-size:2.28978753px;font-family:Helvetica;-inkscape-font-specification:Helvetica;fill:#999999;fill-opacity:1"
           id="path4440" />
        <path
           d="m 70.773259,977.9193 0,-1.19632 0,0 0.09504,0 0.09615,0 0,0 0,0.2046 0,0 0,0 q 0.02572,-0.0481 0.05478,-0.0872 0.114042,-0.15317 0.280633,-0.15317 0.02795,0 0.05702,0.0101 l 0,0.20573 -0.04137,-0.001 q -0.163237,0 -0.252682,0.0984 -0.08833,0.0973 -0.08833,0.27839 l 0,0 0,0.64065 0,0 -0.100626,0 -0.100625,0 0,0 z"
           style="font-style:normal;font-variant:normal;font-weight:normal;font-stretch:normal;font-size:2.28978753px;font-family:Helvetica;-inkscape-font-specification:Helvetica;fill:#999999;fill-opacity:1"
           id="path4442" />
        <path
           d="m 72.601287,977.95173 q -0.240383,0 -0.382377,-0.17889 -0.141994,-0.18001 -0.141994,-0.48524 0,-0.26945 0.137522,-0.43493 0.137521,-0.16547 0.358897,-0.16547 0.220258,0 0.348835,0.18672 l 0.01565,0.0224 0,0 0,-0.62053 0,0 0.100625,0 0.100626,0 0,0 0,1.64355 0,0 -0.0928,0 -0.09392,0 0,0 0,-0.16323 0,0 -0.02572,0.0369 q -0.124104,0.15877 -0.325355,0.15877 z m 0.01118,-1.0834 q -0.168827,0 -0.247091,0.10845 -0.07826,0.10733 -0.07826,0.34212 0,0.22138 0.08385,0.34101 0.08497,0.11963 0.241501,0.11963 0.146466,0 0.235911,-0.10957 0.08944,-0.11068 0.08944,-0.29181 0,-0.24485 -0.08497,-0.37679 -0.08385,-0.13304 -0.240383,-0.13304 z"
           style="font-style:normal;font-variant:normal;font-weight:normal;font-stretch:normal;font-size:2.28978753px;font-family:Helvetica;-inkscape-font-specification:Helvetica;fill:#999999;fill-opacity:1"
           id="path4444" />
        <path
           d="m 73.735001,977.95173 q -0.175536,0 -0.278397,-0.0939 -0.102862,-0.0939 -0.102862,-0.2538 0,-0.161 0.09615,-0.25604 0.09727,-0.095 0.28287,-0.11851 l 0.273924,-0.0347 q 0.03354,-0.003 0.06373,-0.0112 0.03913,-0.0101 0.06037,-0.0403 0.02124,-0.0302 0.02124,-0.076 l 0,-0.0101 q 0,-0.0962 -0.07267,-0.14982 -0.07267,-0.0548 -0.202369,-0.0548 -0.124104,0 -0.194542,0.0581 -0.06932,0.057 -0.08385,0.17107 l 0,0 -0.185598,0 0,0 q 0.01453,-0.19678 0.13864,-0.29517 0.124104,-0.0995 0.355543,-0.0995 0.218022,0 0.332064,0.095 0.114042,0.0939 0.114042,0.27505 l 0,0.65742 q 0,0.0302 0.01789,0.0492 0.01901,0.0179 0.05031,0.0179 0.0089,0 0.02571,-0.002 0.01789,-0.002 0.03801,-0.007 l 0,0.14534 q -0.02907,0.0112 -0.06149,0.0179 -0.03242,0.007 -0.05478,0.007 -0.114042,0 -0.165473,-0.0626 -0.03354,-0.0414 -0.04808,-0.1174 l 0,0 q -0.02236,0.028 -0.05143,0.0537 -0.150939,0.13529 -0.36896,0.13529 z m 0.417036,-0.50649 0,-0.12969 0,0 q -0.0559,0.0268 -0.124105,0.0369 l -0.184479,0.0268 q -0.145348,0.0201 -0.212432,0.0682 -0.06708,0.047 -0.06708,0.12858 0,0.10062 0.05479,0.15541 0.05478,0.0537 0.155411,0.0537 0.158764,0 0.268334,-0.0861 0.07491,-0.0604 0.09951,-0.1364 0.0045,-0.0145 0.0067,-0.0458 0.0034,-0.0324 0.0034,-0.0716 z"
           style="font-style:normal;font-variant:normal;font-weight:normal;font-stretch:normal;font-size:2.28978753px;font-family:Helvetica;-inkscape-font-specification:Helvetica;fill:#999999;fill-opacity:1"
           id="path4446" />
        <path
           d="m 75.133693,977.91818 q -0.102862,0.0157 -0.14982,0.0157 -0.131931,0 -0.186716,-0.0581 -0.05367,-0.0581 -0.05367,-0.20013 l 0,-0.78824 0,0 -0.165473,0 0,-0.16435 0.165473,0 0,0 0,-0.33542 0.201251,0 0,0.33542 0,0 0.188952,0 0,0.16435 -0.188952,0 0,0 0,0.78824 q 0,0.0403 0.03131,0.0637 0.03242,0.0235 0.08609,0.0235 l 0.07156,0 0,0.15541 z"
           style="font-style:normal;font-variant:normal;font-weight:normal;font-stretch:normal;font-size:2.28978753px;font-family:Helvetica;-inkscape-font-specification:Helvetica;fill:#999999;fill-opacity:1"
           id="path4448" />
        <path
           d="m 75.644648,977.95173 q -0.175536,0 -0.278397,-0.0939 -0.102862,-0.0939 -0.102862,-0.2538 0,-0.161 0.09615,-0.25604 0.09727,-0.095 0.28287,-0.11851 l 0.273924,-0.0347 q 0.03354,-0.003 0.06373,-0.0112 0.03913,-0.0101 0.06038,-0.0403 0.02124,-0.0302 0.02124,-0.076 l 0,-0.0101 q 0,-0.0962 -0.07267,-0.14982 -0.07267,-0.0548 -0.202369,-0.0548 -0.124104,0 -0.194542,0.0581 -0.06932,0.057 -0.08385,0.17107 l 0,0 -0.185598,0 0,0 q 0.01453,-0.19678 0.13864,-0.29517 0.124104,-0.0995 0.355543,-0.0995 0.218022,0 0.332064,0.095 0.114042,0.0939 0.114042,0.27505 l 0,0.65742 q 0,0.0302 0.01789,0.0492 0.01901,0.0179 0.05031,0.0179 0.0089,0 0.02572,-0.002 0.01789,-0.002 0.03801,-0.007 l 0,0.14534 q -0.02907,0.0112 -0.06149,0.0179 -0.03242,0.007 -0.05478,0.007 -0.114042,0 -0.165473,-0.0626 -0.03354,-0.0414 -0.04808,-0.1174 l 0,0 q -0.02236,0.028 -0.05143,0.0537 -0.150939,0.13529 -0.36896,0.13529 z m 0.417036,-0.50649 0,-0.12969 0,0 q -0.0559,0.0268 -0.124105,0.0369 l -0.184479,0.0268 q -0.145348,0.0201 -0.212432,0.0682 -0.06708,0.047 -0.06708,0.12858 0,0.10062 0.05478,0.15541 0.05478,0.0537 0.155411,0.0537 0.158764,0 0.268334,-0.0861 0.07491,-0.0604 0.09951,-0.1364 0.0045,-0.0145 0.0067,-0.0458 0.0034,-0.0324 0.0034,-0.0716 z"
           style="font-style:normal;font-variant:normal;font-weight:normal;font-stretch:normal;font-size:2.28978753px;font-family:Helvetica;-inkscape-font-specification:Helvetica;fill:#999999;fill-opacity:1"
           id="path4450" />
        <path
           d="m 76.654257,977.67668 0.239265,0 0,0.24262 -0.239265,0 0,-0.24262 z"
           style="font-style:normal;font-variant:normal;font-weight:normal;font-stretch:normal;font-size:2.28978753px;font-family:Helvetica;-inkscape-font-specification:Helvetica;fill:#999999;fill-opacity:1"
           id="path4452" />
      </g>
    </g>
    <path
       inkscape:connector-curvature="0"
       id="path4456"
       d="m 6,1035.3622 0,1 c 0,5.54 4.46,10 10,10 l 64,0 c 5.54,0 10,-4.46 10,-10 l 0,-1 c 0,5.54 -4.46,10 -10,10 l -64,0 c -5.54,0 -10,-4.46 -10,-10 z"
       style="opacity:1;fill:#464646;fill-opacity:1;stroke:none" />
    <path
       style="opacity:1;fill:url(#linearGradient4462);fill-opacity:1;stroke:none;stroke-width:1.5;stroke-miterlimit:4;stroke-dasharray:none"
       d="m 45,1035.3622 0,11 2.75,0 0,-11 z m 4,0 0,11 2.75,0 0,-11 z m 4,0 0,11 2.75,0 0,-11 z m 4,0 0,11 2.75,0 0,-11 z m 4,0 0,11 2.75,0 0,-11 z m 4,0 0,11 2.75,0 0,-11 z m 4,0 0,11 2.75,0 0,-11 z"
       id="rect4425"
       inkscape:connector-curvature="0"
       sodipodi:nodetypes="ccccccccccccccccccccccccccccccccccc" />
    <path
       style="fill:#808080;fill-opacity:1;stroke:none;opacity:0.7"
       d="m 6,1025.3622 0,1 c 0,5.54 4.46,10 10,10 l 64,0 c 5.54,0 10,-4.46 10,-10 l 0,-1 c 0,5.54 -4.46,10 -10,10 l -64,0 c -5.54,0 -10,-4.46 -10,-10 z"
       id="rect4160"
       inkscape:connector-curvature="0" />
    <path
       id="path4465"
       d="m 12,996.35831 a 2,2 0 0 0 -2,1.99997 2,2 0 0 0 0.06445,0.5039 2,2 0 0 1 1.935547,-1.50387 2,2 0 0 1 1.935547,1.49607 2,2 0 0 0 0.06445,-0.4961 2,2 0 0 0 -2,-1.99997 z"
       style="fill:#aababe;fill-opacity:1;stroke:none"
       inkscape:connector-curvature="0" />
  </g>
</svg>
