<?xml version="1.0" encoding="UTF-8" standalone="no"?>
<svg
   xmlns:dc="http://purl.org/dc/elements/1.1/"
   xmlns:cc="http://creativecommons.org/ns#"
   xmlns:rdf="http://www.w3.org/1999/02/22-rdf-syntax-ns#"
   xmlns:svg="http://www.w3.org/2000/svg"
   xmlns="http://www.w3.org/2000/svg"
   xmlns:sodipodi="http://sodipodi.sourceforge.net/DTD/sodipodi-0.dtd"
   xmlns:inkscape="http://www.inkscape.org/namespaces/inkscape"
   contentScriptType="text/ecmascript"
   contentStyleType="text/css"
   height="36"
   preserveAspectRatio="xMidYMid meet"
   version="1.1"
   viewBox="0 0 36 36"
   width="36"
   x="0px"
   y="0px"
   zoomAndPan="magnify"
   id="svg2"
   inkscape:version="0.91 r13725"
   sodipodi:docname="folder-videos-symbolic.svg">
  <metadata
     id="metadata48">
    <rdf:RDF>
      <cc:Work
         rdf:about="">
        <dc:format>image/svg+xml</dc:format>
        <dc:type
           rdf:resource="http://purl.org/dc/dcmitype/StillImage" />
        <dc:title />
      </cc:Work>
    </rdf:RDF>
  </metadata>
  <sodipodi:namedview
     pagecolor="#ffffff"
     bordercolor="#666666"
     borderopacity="1"
     objecttolerance="10"
     gridtolerance="10"
     guidetolerance="10"
     inkscape:pageopacity="0"
     inkscape:pageshadow="2"
     inkscape:window-width="1336"
     inkscape:window-height="704"
     id="namedview46"
     showgrid="false"
     inkscape:zoom="4.1403509"
     inkscape:cx="-62.868643"
     inkscape:cy="27.533898"
     inkscape:window-x="0"
     inkscape:window-y="27"
     inkscape:window-maximized="1"
     inkscape:current-layer="svg2" />
  <defs
     id="defs6">
    <linearGradient
       gradientUnits="userSpaceOnUse"
       id="SVGID_1_"
       x1="37.498001"
       x2="37.498001"
       y1="53.463902"
       y2="13.0005">
      <stop
         offset="0"
         stop-color="#d0cbc5"
         id="stop9" />
      <stop
         offset="0.5031"
         stop-color="#fafcef"
         id="stop11" />
      <stop
         offset="0.9693"
         stop-color="#ffffff"
         id="stop13" />
      <stop
         offset="1"
         stop-color="#ffffff"
         id="stop15" />
    </linearGradient>
    <linearGradient
       gradientUnits="userSpaceOnUse"
       id="linearGradient17"
       x1="108.46052"
       x2="108.46052"
       y1="50.170307"
       y2="6.5141025">
      <stop
         offset="0"
         stop-color="#d0cbc5"
         id="stop19" />
      <stop
         offset="0.5031"
         stop-color="#fafcef"
         id="stop21" />
      <stop
         offset="0.9693"
         stop-color="#ffffff"
         id="stop23" />
      <stop
         offset="1"
         stop-color="#ffffff"
         id="stop25" />
    </linearGradient>
    <linearGradient
       gradientUnits="userSpaceOnUse"
       id="linearGradient3056"
       x1="108.46052"
       x2="108.46052"
       y1="50.170307"
       y2="6.5141025"
       gradientTransform="translate(-75.5,-20.78125)">
      <stop
         offset="0"
         stop-color="#d0cbc5"
         id="stop28" />
      <stop
         offset="0.5031"
         stop-color="#fafcef"
         id="stop30" />
      <stop
         offset="0.9693"
         stop-color="#ffffff"
         id="stop32" />
      <stop
         offset="1"
         stop-color="#ffffff"
         id="stop34" />
    </linearGradient>
  </defs>
  <path
     style="opacity:1;fill:#808080;fill-opacity:1;fill-rule:nonzero;stroke:none"
     inkscape:connector-curvature="0"
     id="path42"
     d="M 13.96733,1 C 7.373273,1 2.0625,6.2774545 2.0625,12.832386 l 0,10.31108 C 2.0625,29.698398 7.373273,35 13.96733,35 l 8.06534,0 C 28.626731,35 33.9375,29.698398 33.9375,23.143466 l 0,-10.31108 C 33.9375,6.2774545 28.626731,1 22.03267,1 l -8.06534,0 z m -0.0724,4.8778409 8.234375,0 c 3.788087,0 6.809659,3.0923564 6.809659,6.8579551 l 0,10.504261 c 0,3.7656 -3.021572,6.857954 -6.809659,6.857954 l -8.234375,0 c -3.788071,0 -6.8096586,-3.092354 -6.8096586,-6.857954 l 0,-10.504261 c 0,-3.7655987 3.0215876,-6.8579551 6.8096586,-6.8579551 z m 0.507102,5.9886361 c -0.379525,-0.02273 -0.502226,0.329856 -0.53125,1.134944 l 0,9.731534 c 0.02403,1.576915 0.243216,1.695334 1.642046,0.917613 l 8.813882,-4.950284 c 0.804249,-0.549126 0.7185,-0.839982 -0.26563,-1.448864 l -8.644887,-4.974431 c -0.459556,-0.250996 -0.786482,-0.396873 -1.014204,-0.410512 z" />
</svg>
