<?xml version="1.0" encoding="UTF-8" standalone="no"?>
<svg
   xmlns:dc="http://purl.org/dc/elements/1.1/"
   xmlns:cc="http://creativecommons.org/ns#"
   xmlns:rdf="http://www.w3.org/1999/02/22-rdf-syntax-ns#"
   xmlns:svg="http://www.w3.org/2000/svg"
   xmlns="http://www.w3.org/2000/svg"
   xmlns:sodipodi="http://sodipodi.sourceforge.net/DTD/sodipodi-0.dtd"
   xmlns:inkscape="http://www.inkscape.org/namespaces/inkscape"
   contentScriptType="text/ecmascript"
   contentStyleType="text/css"
   height="36"
   preserveAspectRatio="xMidYMid meet"
   version="1.1"
   viewBox="0 0 36 36"
   width="36"
   zoomAndPan="magnify"
   id="svg2"
   inkscape:version="0.91 r13725"
   sodipodi:docname="folder-documents-symbolic.svg">
  <metadata
     id="metadata41">
    <rdf:RDF>
      <cc:Work
         rdf:about="">
        <dc:format>image/svg+xml</dc:format>
        <dc:type
           rdf:resource="http://purl.org/dc/dcmitype/StillImage" />
        <dc:title>Gnome Symbolic Icon Theme</dc:title>
      </cc:Work>
    </rdf:RDF>
  </metadata>
  <sodipodi:namedview
     pagecolor="#ffffff"
     bordercolor="#666666"
     borderopacity="1"
     objecttolerance="10"
     gridtolerance="10"
     guidetolerance="10"
     inkscape:pageopacity="0"
     inkscape:pageshadow="2"
     inkscape:window-width="1336"
     inkscape:window-height="704"
     id="namedview39"
     showgrid="false"
     inkscape:zoom="7.375"
     inkscape:cx="-14.840678"
     inkscape:cy="20.002196"
     inkscape:window-x="0"
     inkscape:window-y="27"
     inkscape:window-maximized="1"
     inkscape:current-layer="svg2" />
  <title
     id="title4">Gnome Symbolic Icon Theme</title>
  <defs
     id="defs6">
    <linearGradient
       gradientTransform="translate(-87.346899,956.3622)"
       gradientUnits="userSpaceOnUse"
       id="linearGradient5745"
       x1="123.69748"
       x2="123.69748"
       y1="70.184875"
       y2="18.014034">
      <stop
         offset="0"
         stop-color="#ffc5e5"
         stop-opacity="1"
         id="stop9" />
      <stop
         offset="1"
         stop-color="#ffeff6"
         stop-opacity="1"
         id="stop11" />
    </linearGradient>
    <linearGradient
       id="linearGradient13">
      <stop
         offset="0"
         stop-color="#ffc5e5"
         stop-opacity="1"
         id="stop15" />
      <stop
         offset="1"
         stop-color="#ffeff6"
         stop-opacity="1"
         id="stop17" />
    </linearGradient>
  </defs>
  <path
     style="fill:#808080;fill-opacity:1;fill-rule:nonzero;stroke:none;opacity:1"
     inkscape:connector-curvature="0"
     id="path27"
     d="M 10.27648,1 C 6.6111737,1 3.656255,3.987325 3.656255,7.6929212 l 0,20.6141578 C 3.656255,32.012675 6.6111737,35 10.27648,35 l 13.240386,0 8.826889,-8.566937 0,-18.7401418 C 32.343755,3.987325 29.3889,1 25.723594,1 l -15.44705,0 z m 0.264711,4.818905 14.829228,0 c 1.244761,0 2.294936,0.9724425 2.294936,2.2309525 l 0,17.1338535 c -2.74363,0 -4.981425,2.235628 -5.031363,4.997363 l -12.092865,0 c -1.244782,0 -2.294957,-0.972464 -2.294957,-2.230974 l 0,-19.9002425 c 0,-1.25851 1.050175,-2.2309525 2.294957,-2.2309525 z m 2.294915,3.2125962 c -0.803887,0 -1.500568,0.6367988 -1.500568,1.4278298 0,0.790968 0.696617,1.427788 1.500568,1.427788 l 10.239249,0 c 0.803972,0 1.50059,-0.63682 1.50059,-1.427788 0,-0.791031 -0.696617,-1.4278298 -1.50059,-1.4278298 l -10.239249,0 z m 0,5.4435488 c -0.803887,0 -1.500568,0.63682 -1.500568,1.427787 0,0.791053 0.696617,1.427809 1.500568,1.427809 l 10.239249,0 c 0.803972,0 1.50059,-0.636777 1.50059,-1.427809 0,-0.790967 -0.696617,-1.427787 -1.50059,-1.427787 l -10.239249,0 z m 0,5.44357 c -0.803887,0 -1.500568,0.636799 -1.500568,1.42783 0,0.790967 0.696617,1.427787 1.500568,1.427787 l 10.239249,0 c 0.803972,0 1.50059,-0.63682 1.50059,-1.427787 0,-0.791031 -0.696617,-1.42783 -1.50059,-1.42783 l -10.239249,0 z" />
</svg>
