<?xml version="1.0" encoding="UTF-8" standalone="no"?>
<!-- Created with Inkscape (http://www.inkscape.org/) -->

<svg
   xmlns:dc="http://purl.org/dc/elements/1.1/"
   xmlns:cc="http://creativecommons.org/ns#"
   xmlns:rdf="http://www.w3.org/1999/02/22-rdf-syntax-ns#"
   xmlns:svg="http://www.w3.org/2000/svg"
   xmlns="http://www.w3.org/2000/svg"
   xmlns:xlink="http://www.w3.org/1999/xlink"
   xmlns:sodipodi="http://sodipodi.sourceforge.net/DTD/sodipodi-0.dtd"
   xmlns:inkscape="http://www.inkscape.org/namespaces/inkscape"
   width="96"
   height="96"
   id="svg2"
   version="1.1"
   inkscape:version="0.48.4 r9939"
   sodipodi:docname="folder-download.svg">
  <defs
     id="defs4">
    <linearGradient
       id="linearGradient3092"
       inkscape:collect="always">
      <stop
         id="stop3094"
         offset="0"
         style="stop-color:#c16d16;stop-opacity:1" />
      <stop
         id="stop3096"
         offset="1"
         style="stop-color:#b36a1b;stop-opacity:1" />
    </linearGradient>
    <linearGradient
       inkscape:collect="always"
       id="linearGradient3048">
      <stop
         style="stop-color:#c16d16;stop-opacity:1"
         offset="0"
         id="stop3050" />
      <stop
         style="stop-color:#ff8e31;stop-opacity:1"
         offset="1"
         id="stop3052" />
    </linearGradient>
    <linearGradient
       id="linearGradient3994"
       inkscape:collect="always">
      <stop
         id="stop3996"
         offset="0"
         style="stop-color:#ff8e31;stop-opacity:1" />
      <stop
         id="stop4004"
         offset="1"
         style="stop-color:#ffb642;stop-opacity:1" />
    </linearGradient>
    <linearGradient
       inkscape:collect="always"
       id="linearGradient3119">
      <stop
         style="stop-color:#92948f;stop-opacity:0"
         offset="0"
         id="stop3121" />
      <stop
         id="stop3123"
         offset="0.4283945"
         style="stop-color:#9b9e98;stop-opacity:1" />
      <stop
         style="stop-color:#939690;stop-opacity:0"
         offset="1"
         id="stop3125" />
    </linearGradient>
    <linearGradient
       id="linearGradient3073"
       inkscape:collect="always">
      <stop
         id="stop3075"
         offset="0"
         style="stop-color:#ffffff;stop-opacity:0" />
      <stop
         style="stop-color:#ffffff;stop-opacity:1"
         offset="0.45872402"
         id="stop3085" />
      <stop
         id="stop3083"
         offset="1"
         style="stop-color:#ffffff;stop-opacity:0" />
    </linearGradient>
    <linearGradient
       inkscape:collect="always"
       id="linearGradient3061">
      <stop
         style="stop-color:#ef9a42;stop-opacity:1"
         offset="0"
         id="stop3063" />
      <stop
         style="stop-color:#f5c262;stop-opacity:1"
         offset="1"
         id="stop3065" />
    </linearGradient>
    <linearGradient
       inkscape:collect="always"
       id="linearGradient3047">
      <stop
         style="stop-color:#000000;stop-opacity:1"
         offset="0"
         id="stop3049" />
      <stop
         id="stop3055"
         offset="0.06123874"
         style="stop-color:#1a1a1a;stop-opacity:1" />
      <stop
         style="stop-color:#333333;stop-opacity:1"
         offset="0.16480456"
         id="stop3057" />
      <stop
         id="stop3059"
         offset="0.55385184"
         style="stop-color:#4d4d4d;stop-opacity:1" />
      <stop
         style="stop-color:#999999;stop-opacity:1"
         offset="1"
         id="stop3051" />
    </linearGradient>
    <linearGradient
       id="linearGradient3041"
       inkscape:collect="always">
      <stop
         id="stop3043"
         offset="0"
         style="stop-color:#1a1a1a;stop-opacity:1" />
      <stop
         id="stop3045"
         offset="1"
         style="stop-color:#808080;stop-opacity:1" />
    </linearGradient>
    <linearGradient
       inkscape:collect="always"
       id="linearGradient3029">
      <stop
         style="stop-color:#333333;stop-opacity:1"
         offset="0"
         id="stop3031" />
      <stop
         style="stop-color:#e0e0dd;stop-opacity:0;"
         offset="1"
         id="stop3033" />
    </linearGradient>
    <linearGradient
       inkscape:collect="always"
       xlink:href="#linearGradient3029"
       id="linearGradient3035"
       x1="35.355339"
       y1="1030.3622"
       x2="35.355339"
       y2="975.33282"
       gradientUnits="userSpaceOnUse"
       gradientTransform="matrix(1.1638085,0,0,1.1638085,-7.862809,-164.23642)" />
    <linearGradient
       inkscape:collect="always"
       xlink:href="#linearGradient3041"
       id="linearGradient3039"
       gradientUnits="userSpaceOnUse"
       x1="35.355339"
       y1="1030.3622"
       x2="35.355339"
       y2="975.33282"
       gradientTransform="matrix(1.1218695,0,0,1.1218695,-5.8497348,-122.18782)" />
    <linearGradient
       inkscape:collect="always"
       xlink:href="#linearGradient3047"
       id="linearGradient3053"
       x1="40"
       y1="1043.4336"
       x2="39.285713"
       y2="972.33325"
       gradientUnits="userSpaceOnUse" />
    <linearGradient
       inkscape:collect="always"
       xlink:href="#linearGradient3061"
       id="linearGradient3067"
       x1="17.67767"
       y1="1046.1118"
       x2="17.67767"
       y2="962.21893"
       gradientUnits="userSpaceOnUse"
       gradientTransform="translate(0,-956.36218)" />
    <linearGradient
       inkscape:collect="always"
       xlink:href="#linearGradient3073"
       id="linearGradient3113"
       gradientUnits="userSpaceOnUse"
       gradientTransform="translate(0,-956.36218)"
       x1="14.869445"
       y1="978.90387"
       x2="24.52651"
       y2="969.24683" />
    <linearGradient
       inkscape:collect="always"
       xlink:href="#linearGradient3073"
       id="linearGradient3115"
       gradientUnits="userSpaceOnUse"
       gradientTransform="matrix(-1,0,0,1,96,-956.36218)"
       x1="15.152279"
       y1="978.62103"
       x2="26.263966"
       y2="967.50934" />
    <linearGradient
       inkscape:collect="always"
       xlink:href="#linearGradient3119"
       id="linearGradient3117"
       gradientUnits="userSpaceOnUse"
       gradientTransform="translate(0,-956.36218)"
       x1="13.131983"
       y1="980.64136"
       x2="25.549681"
       y2="967.86646" />
    <linearGradient
       inkscape:collect="always"
       xlink:href="#linearGradient3119"
       id="linearGradient3129"
       gradientUnits="userSpaceOnUse"
       gradientTransform="matrix(-1,0,0,1,96,0)"
       x1="13.131983"
       y1="980.64136"
       x2="25.549681"
       y2="967.86646" />
    <linearGradient
       inkscape:collect="always"
       xlink:href="#linearGradient3994"
       id="linearGradient3992"
       gradientUnits="userSpaceOnUse"
       x1="29.673231"
       y1="1042.892"
       x2="29.673231"
       y2="965.32623"
       gradientTransform="translate(0,-956.36218)" />
    <linearGradient
       inkscape:collect="always"
       xlink:href="#linearGradient3048"
       id="linearGradient3054"
       x1="49.267925"
       y1="996.57349"
       x2="49.267925"
       y2="1045.8627"
       gradientUnits="userSpaceOnUse" />
    <linearGradient
       inkscape:collect="always"
       xlink:href="#linearGradient3092"
       id="linearGradient3086"
       x1="-22.150593"
       y1="993.74042"
       x2="-22.150593"
       y2="1030.339"
       gradientUnits="userSpaceOnUse"
       gradientTransform="translate(0,-956.281)" />
    <linearGradient
       inkscape:collect="always"
       xlink:href="#linearGradient3048"
       id="linearGradient3100"
       gradientUnits="userSpaceOnUse"
       gradientTransform="translate(0,0.08116)"
       x1="-22.150593"
       y1="993.74042"
       x2="-22.150593"
       y2="1030.339" />
    <linearGradient
       inkscape:collect="always"
       xlink:href="#linearGradient3048"
       id="linearGradient3114"
       gradientUnits="userSpaceOnUse"
       gradientTransform="translate(0,0.08116)"
       x1="-22.150593"
       y1="993.74042"
       x2="-22.150593"
       y2="1030.339" />
    <linearGradient
       inkscape:collect="always"
       xlink:href="#linearGradient3092"
       id="linearGradient3116"
       gradientUnits="userSpaceOnUse"
       gradientTransform="translate(0,-956.281)"
       x1="-22.150593"
       y1="993.74042"
       x2="-22.150593"
       y2="1030.339" />
    <linearGradient
       inkscape:collect="always"
       xlink:href="#linearGradient3048-8"
       id="linearGradient3222"
       gradientUnits="userSpaceOnUse"
       gradientTransform="matrix(1.0923373,0,0,1.0936326,-201.16238,-128.63092)"
       x1="150.46945"
       y1="1061.1766"
       x2="150.46945"
       y2="1021.2471" />
    <linearGradient
       inkscape:collect="always"
       id="linearGradient3048-8">
      <stop
         style="stop-color:#c16d16;stop-opacity:1"
         offset="0"
         id="stop3050-9" />
      <stop
         style="stop-color:#ff8e31;stop-opacity:1"
         offset="1"
         id="stop3052-2" />
    </linearGradient>
    <linearGradient
       inkscape:collect="always"
       xlink:href="#linearGradient3048-8"
       id="linearGradient3233"
       gradientUnits="userSpaceOnUse"
       gradientTransform="matrix(1.0923373,0,0,1.0936326,-210.43269,-119.42422)"
       x1="150.46945"
       y1="1052.5518"
       x2="150.46945"
       y2="1021.2471" />
    <linearGradient
       y2="962.21893"
       x2="17.67767"
       y1="1046.1118"
       x1="17.67767"
       gradientUnits="userSpaceOnUse"
       id="linearGradient3742-5"
       xlink:href="#linearGradient3061-1"
       inkscape:collect="always" />
    <linearGradient
       inkscape:collect="always"
       id="linearGradient3061-1">
      <stop
         style="stop-color:#ef9a42;stop-opacity:1"
         offset="0"
         id="stop3063-1" />
      <stop
         style="stop-color:#f5c262;stop-opacity:1"
         offset="1"
         id="stop3065-4" />
    </linearGradient>
    <linearGradient
       inkscape:collect="always"
       xlink:href="#linearGradient3994-3"
       id="linearGradient3702-0"
       gradientUnits="userSpaceOnUse"
       x1="29.673231"
       y1="1044.7706"
       x2="29.673231"
       y2="965.32623" />
    <linearGradient
       id="linearGradient3994-3"
       inkscape:collect="always">
      <stop
         id="stop3996-7"
         offset="0"
         style="stop-color:#ff8e31;stop-opacity:1" />
      <stop
         id="stop4004-1"
         offset="1"
         style="stop-color:#ffb642;stop-opacity:1" />
    </linearGradient>
    <linearGradient
       inkscape:collect="always"
       xlink:href="#linearGradient3048-8"
       id="linearGradient3227"
       gradientUnits="userSpaceOnUse"
       gradientTransform="matrix(1.0471116,0,0,1.0471116,-88.893486,951.21199)"
       x1="131.32043"
       y1="71.556313"
       x2="131.32043"
       y2="38.548557" />
  </defs>
  <sodipodi:namedview
     id="base"
     pagecolor="#ffffff"
     bordercolor="#666666"
     borderopacity="1.0"
     inkscape:pageopacity="0.0"
     inkscape:pageshadow="2"
     inkscape:zoom="2.7604166"
     inkscape:cx="87.536847"
     inkscape:cy="-1.6659418"
     inkscape:document-units="px"
     inkscape:current-layer="layer1"
     showgrid="false"
     inkscape:window-width="1366"
     inkscape:window-height="716"
     inkscape:window-x="0"
     inkscape:window-y="27"
     inkscape:window-maximized="1"
     showguides="true"
     inkscape:guide-bbox="true" />
  <metadata
     id="metadata7">
    <rdf:RDF>
      <cc:Work
         rdf:about="">
        <dc:format>image/svg+xml</dc:format>
        <dc:type
           rdf:resource="http://purl.org/dc/dcmitype/StillImage" />
        <dc:title />
      </cc:Work>
    </rdf:RDF>
  </metadata>
  <g
     inkscape:label="Layer 1"
     inkscape:groupmode="layer"
     id="layer1"
     transform="translate(0,-956.36218)">
    <g
       id="g3874">
      <rect
         ry="10.595235"
         rx="10.595235"
         y="960.86218"
         x="3.5"
         height="89"
         width="89"
         id="rect3826"
         style="opacity:0.05;fill:#000000;fill-opacity:1;stroke:none" />
      <g
         id="g3041">
        <rect
           ry="10.476188"
           rx="10.476188"
           y="961.36218"
           x="4"
           height="88"
           width="88"
           id="rect3824"
           style="opacity:0.05;fill:#000000;fill-opacity:1;stroke:none" />
        <rect
           style="opacity:0.05;fill:#000000;fill-opacity:1;stroke:none"
           id="rect3822"
           width="87"
           height="87"
           x="4.5"
           y="961.86218"
           rx="10.357141"
           ry="10.357141" />
        <rect
           ry="10.238094"
           rx="10.238094"
           y="962.36218"
           x="5"
           height="86"
           width="86"
           id="rect3820"
           style="opacity:0.1;fill:#000000;fill-opacity:1;stroke:none" />
        <rect
           style="opacity:0.1;fill:#000000;fill-opacity:1;stroke:none"
           id="rect3818"
           width="85"
           height="85"
           x="5.5"
           y="962.86218"
           rx="10.119047"
           ry="10.119047" />
        <rect
           ry="10"
           rx="10"
           y="963.36218"
           x="6"
           height="84"
           width="84"
           id="rect3131"
           style="opacity:0.3;fill:#000000;fill-opacity:1;stroke:none" />
      </g>
      <rect
         style="fill:#dca159;fill-opacity:1;stroke:none"
         id="rect3036"
         width="84"
         height="84"
         x="6"
         y="962.36218"
         rx="10"
         ry="10" />
      <rect
         ry="9.7619047"
         rx="9.7619047"
         y="963.36218"
         x="7"
         height="82"
         width="82"
         id="rect3034"
         style="fill:#d67918;fill-opacity:1;stroke:none" />
      <path
         id="rect3126-1"
         d="m 16.75,963.36218 c -5.408095,0 -9.75,4.3419 -9.75,9.75 l 0,1 c 0,-5.4081 4.341905,-9.75 9.75,-9.75 l 62.5,0 c 5.408095,0 9.75,4.3419 9.75,9.75 l 0,-1 c 0,-5.4081 -4.341905,-9.75 -9.75,-9.75 l -62.5,0 z"
         style="opacity:0.1;fill:#ffffff;fill-opacity:1;stroke:none"
         inkscape:connector-curvature="0" />
      <path
         sodipodi:nodetypes="scccssssccscccccs"
         inkscape:connector-curvature="0"
         id="path3828-4"
         d="m 16,962.36218 c -3.758224,0 -7.0097577,2.04397 -8.71875,5.09375 -0.00877,0.0208 -0.022613,0.0416 -0.03125,0.0625 -0.011347,0.0206 -0.020044,0.0418 -0.03125,0.0625 C 6.7468374,968.74451 6.5,970.02534 6.5,971.36218 l 0,64.00002 c 0,5.54 4.46,10 10,10 l 64,0 c 3.758224,0 7.009758,-2.044 8.71875,-5.0938 0.01755,-0.042 0.0455,-0.083 0.0625,-0.125 C 89.753163,1038.9799 90,1037.699 90,1036.3622 l 0,-58.89814 c 0,-0.96494 -1.03855,-2.19563 -2.377354,-2.19563 l -39.747646,0 -6.548508,-11.31604 c -0.662685,-1.14781 -2.034917,-1.57024 -3.452543,-1.59021 z"
         style="opacity:0.1;fill:#000000;fill-opacity:1;stroke:none" />
      <path
         sodipodi:nodetypes="scccssssccscccccs"
         inkscape:connector-curvature="0"
         style="opacity:0.1;fill:#000000;fill-opacity:1;stroke:none"
         d="m 15.75,962.86216 c -3.758224,0 -7.0097577,2.04397 -8.71875,5.09375 -0.00877,0.0208 -0.022613,0.0416 -0.03125,0.0625 -0.011347,0.0206 -0.020044,0.0418 -0.03125,0.0625 C 6.4968374,969.24449 6.25,970.52532 6.25,971.86216 l 0,64.00004 c 0,5.54 4.46,10 10,10 l 64,0 c 3.758224,0 7.009758,-2.044 8.71875,-5.0938 0.01755,-0.042 0.0455,-0.083 0.0625,-0.125 0.471913,-1.1635 0.71875,-2.4444 0.71875,-3.7812 l 0,-58.42455 c 0,-1.79197 -1.171338,-2.66924 -2.240562,-2.66924 l -39.884438,0 -6.368419,-11.00484 c -0.908856,-1.57419 -2.410265,-1.90141 -3.716957,-1.90141 z"
         id="path3837-1" />
      <path
         sodipodi:nodetypes="sscsssssscccccccs"
         inkscape:connector-curvature="0"
         id="rect2985-8"
         d="m 16,962.36218 c -5.54,0 -10,4.46 -10,10 l 0,11.71875 0,52.28127 c 0,5.54 4.46,10 10,10 l 64,0 c 5.54,0 10,-4.46 10,-10 l 0,-57.68752 c 0,-1.24897 -0.965552,-2.40625 -2.46875,-2.40625 l -39.25,0 c -0.861394,0.094 -1.116154,-0.35591 -1.34375,-0.75 l -0.1875,-0.34375 -1.96875,-3.40625 -3.506358,-6.0475 c -0.99194,-1.71809 -2.986415,-3.35875 -6.228912,-3.35875 l -0.82723,0 z"
         style="fill:url(#linearGradient3742-5);fill-opacity:1;stroke:none" />
      <path
         sodipodi:nodetypes="sscsssssssccccccs"
         inkscape:connector-curvature="0"
         id="rect3021-9"
         d="m 16.75,963.36218 c -5.408095,0 -9.75,4.3419 -9.75,9.75 l 0,10.96875 0,51.53127 c 0,5.4081 4.341905,9.75 9.75,9.75 l 62.5,0 c 5.408095,0 9.75,-4.3419 9.75,-9.75 l 0,-56.25002 c 0,-1.20195 -0.924024,-2.09375 -2.0625,-2.09375 l -38.90625,0 c -0.864689,0 -1.854193,-0.63531 -2.28125,-1.375 l -1,-1.71875 -4.1875,-7.25 -0.342904,-0.6183 c -1.49949,-2.55523 -3.790144,-2.94415 -6.121482,-2.94415 l -0.941864,0 z"
         style="fill:url(#linearGradient3702-0);fill-opacity:1;stroke:none" />
      <path
         id="path3192-1"
         d="m 7,1034.6122 0,1 c 0,5.4081 4.341905,9.75 9.75,9.75 l 62.5,0 c 5.408095,0 9.75,-4.3419 9.75,-9.75 l 0,-1 c 0,5.4081 -4.341905,9.75 -9.75,9.75 l -62.5,0 c -5.408095,0 -9.75,-4.3419 -9.75,-9.75 z"
         style="opacity:0.1;fill:#000000;fill-opacity:1;stroke:none"
         inkscape:connector-curvature="0" />
    </g>
    <path
       id="path3390"
       d="m 48.081806,992.40897 c -2.313217,0 -4.188447,1.87523 -4.188447,4.18844 0,2.31326 1.87523,4.18849 4.188447,4.18849 2.313216,0 4.188446,-1.87523 4.188446,-4.18849 0,-2.31321 -1.87523,-4.18844 -4.188446,-4.18844 z m 0,11.97633 c -2.313217,0 -4.188447,1.8753 -4.188447,4.1885 0,2.3132 1.87523,4.1884 4.188447,4.1884 2.313216,0 4.188446,-1.8752 4.188446,-4.1884 0,-2.3132 -1.87523,-4.1885 -4.188446,-4.1885 z m -12.107228,5.1374 c -0.745271,0 -1.490428,0.2797 -2.061501,0.8508 -1.142137,1.1421 -1.142137,2.9808 0,4.123 l 12.041783,12.009 c 1.142137,1.1422 2.980865,1.1422 4.123002,0 l 12.009061,-12.009 c 1.142137,-1.1422 1.142137,-2.9809 0,-4.123 -1.142137,-1.1422 -2.980865,-1.1422 -4.123002,0 l -9.94756,9.9476 -9.980282,-9.9476 c -0.571074,-0.5711 -1.31623,-0.8508 -2.061501,-0.8508 z"
       style="opacity:0.2;fill:#ffffff;fill-opacity:1;stroke:none"
       inkscape:connector-curvature="0" />
    <path
       style="fill:url(#linearGradient3227);fill-opacity:1;stroke:none"
       d="m 48.081806,991.36218 c -2.313217,0 -4.188447,1.87523 -4.188447,4.18845 0,2.31324 1.87523,4.18843 4.188447,4.18843 2.313216,0 4.188446,-1.87519 4.188446,-4.18843 0,-2.31322 -1.87523,-4.18845 -4.188446,-4.18845 z m 0,11.97632 c -2.313217,0 -4.188447,1.8753 -4.188447,4.1885 0,2.3132 1.87523,4.1884 4.188447,4.1884 2.313216,0 4.188446,-1.8752 4.188446,-4.1884 0,-2.3132 -1.87523,-4.1885 -4.188446,-4.1885 z m -12.107228,5.1375 c -0.745271,0 -1.490428,0.2796 -2.061501,0.8507 -1.142137,1.1421 -1.142137,2.9808 0,4.123 l 12.041783,12.009 c 1.142137,1.1422 2.980865,1.1422 4.123002,0 l 12.009061,-12.009 c 1.142137,-1.1422 1.142137,-2.9809 0,-4.123 -1.142137,-1.1422 -2.980865,-1.1422 -4.123002,0 l -9.94756,9.9476 -9.980282,-9.9476 c -0.571074,-0.5711 -1.31623,-0.8507 -2.061501,-0.8507 z"
       id="rect3367"
       inkscape:connector-curvature="0" />
    <path
       inkscape:connector-curvature="0"
       style="fill:#000000;fill-opacity:1;stroke:none;opacity:0.20000000000000001"
       d="m 48.066619,991.36218 c -2.313216,0 -4.188446,1.87523 -4.188446,4.18845 0,0.17813 0.04386,0.35127 0.06544,0.52355 0.258706,-2.06495 1.987921,-3.66489 4.123002,-3.66489 2.135473,0 3.897522,1.59939 4.155724,3.66489 0.02149,-0.17192 0.03272,-0.34581 0.03272,-0.52355 0,-2.31322 -1.875231,-4.18845 -4.188447,-4.18845 z m 0,11.97632 c -2.313216,0 -4.188446,1.8753 -4.188446,4.1885 0,0.1781 0.04386,0.3513 0.06544,0.5235 0.258706,-2.0649 1.987921,-3.6649 4.123002,-3.6649 2.135473,0 3.897522,1.5995 4.155724,3.6649 0.02149,-0.1719 0.03272,-0.3457 0.03272,-0.5235 0,-2.3132 -1.875231,-4.1885 -4.188447,-4.1885 z m -12.107228,5.1375 c -0.745271,0 -1.490427,0.2796 -2.061501,0.8507 -0.697268,0.6972 -0.939422,1.6528 -0.785333,2.5524 0.107075,-0.5508 0.357032,-1.077 0.785333,-1.5053 0.571074,-0.5711 1.31623,-0.8507 2.061501,-0.8507 0.745272,0 1.490428,0.2796 2.061501,0.8507 l 9.980283,9.9476 9.94756,-9.9476 c 1.142137,-1.1421 2.980865,-1.1421 4.123002,0 0.428301,0.4283 0.71098,0.9545 0.818056,1.5053 0.154089,-0.8996 -0.120788,-1.8552 -0.818056,-2.5524 -1.142137,-1.1422 -2.980865,-1.1422 -4.123002,0 l -9.94756,9.9476 -9.980283,-9.9476 c -0.571073,-0.5711 -1.316229,-0.8507 -2.061501,-0.8507 z"
       id="path3392" />
  </g>
</svg>
