<?xml version="1.0" encoding="UTF-8" standalone="no"?>
<!-- Created with Inkscape (http://www.inkscape.org/) -->

<svg
   xmlns:dc="http://purl.org/dc/elements/1.1/"
   xmlns:cc="http://creativecommons.org/ns#"
   xmlns:rdf="http://www.w3.org/1999/02/22-rdf-syntax-ns#"
   xmlns:svg="http://www.w3.org/2000/svg"
   xmlns="http://www.w3.org/2000/svg"
   xmlns:xlink="http://www.w3.org/1999/xlink"
   xmlns:sodipodi="http://sodipodi.sourceforge.net/DTD/sodipodi-0.dtd"
   xmlns:inkscape="http://www.inkscape.org/namespaces/inkscape"
   width="96"
   height="96"
   id="svg2"
   version="1.1"
   inkscape:version="0.48.4 r9939"
   sodipodi:docname="folder-publicshare.svg">
  <defs
     id="defs4">
    <linearGradient
       inkscape:collect="always"
       id="linearGradient3048">
      <stop
         style="stop-color:#c16d16;stop-opacity:1"
         offset="0"
         id="stop3050" />
      <stop
         style="stop-color:#ff8e31;stop-opacity:1"
         offset="1"
         id="stop3052" />
    </linearGradient>
    <linearGradient
       id="linearGradient3994"
       inkscape:collect="always">
      <stop
         id="stop3996"
         offset="0"
         style="stop-color:#ff8e31;stop-opacity:1" />
      <stop
         id="stop4004"
         offset="1"
         style="stop-color:#ffb642;stop-opacity:1" />
    </linearGradient>
    <linearGradient
       inkscape:collect="always"
       id="linearGradient3119">
      <stop
         style="stop-color:#92948f;stop-opacity:0"
         offset="0"
         id="stop3121" />
      <stop
         id="stop3123"
         offset="0.4283945"
         style="stop-color:#9b9e98;stop-opacity:1" />
      <stop
         style="stop-color:#939690;stop-opacity:0"
         offset="1"
         id="stop3125" />
    </linearGradient>
    <linearGradient
       id="linearGradient3073"
       inkscape:collect="always">
      <stop
         id="stop3075"
         offset="0"
         style="stop-color:#ffffff;stop-opacity:0" />
      <stop
         style="stop-color:#ffffff;stop-opacity:1"
         offset="0.45872402"
         id="stop3085" />
      <stop
         id="stop3083"
         offset="1"
         style="stop-color:#ffffff;stop-opacity:0" />
    </linearGradient>
    <linearGradient
       inkscape:collect="always"
       id="linearGradient3061">
      <stop
         style="stop-color:#ef9a42;stop-opacity:1"
         offset="0"
         id="stop3063" />
      <stop
         style="stop-color:#f5c262;stop-opacity:1"
         offset="1"
         id="stop3065" />
    </linearGradient>
    <linearGradient
       inkscape:collect="always"
       id="linearGradient3047">
      <stop
         style="stop-color:#000000;stop-opacity:1"
         offset="0"
         id="stop3049" />
      <stop
         id="stop3055"
         offset="0.06123874"
         style="stop-color:#1a1a1a;stop-opacity:1" />
      <stop
         style="stop-color:#333333;stop-opacity:1"
         offset="0.16480456"
         id="stop3057" />
      <stop
         id="stop3059"
         offset="0.55385184"
         style="stop-color:#4d4d4d;stop-opacity:1" />
      <stop
         style="stop-color:#999999;stop-opacity:1"
         offset="1"
         id="stop3051" />
    </linearGradient>
    <linearGradient
       id="linearGradient3041"
       inkscape:collect="always">
      <stop
         id="stop3043"
         offset="0"
         style="stop-color:#1a1a1a;stop-opacity:1" />
      <stop
         id="stop3045"
         offset="1"
         style="stop-color:#808080;stop-opacity:1" />
    </linearGradient>
    <linearGradient
       inkscape:collect="always"
       id="linearGradient3029">
      <stop
         style="stop-color:#333333;stop-opacity:1"
         offset="0"
         id="stop3031" />
      <stop
         style="stop-color:#e0e0dd;stop-opacity:0;"
         offset="1"
         id="stop3033" />
    </linearGradient>
    <linearGradient
       inkscape:collect="always"
       xlink:href="#linearGradient3029"
       id="linearGradient3035"
       x1="35.355339"
       y1="1030.3622"
       x2="35.355339"
       y2="975.33282"
       gradientUnits="userSpaceOnUse"
       gradientTransform="matrix(1.1638085,0,0,1.1638085,-7.862809,-164.23642)" />
    <linearGradient
       inkscape:collect="always"
       xlink:href="#linearGradient3041"
       id="linearGradient3039"
       gradientUnits="userSpaceOnUse"
       x1="35.355339"
       y1="1030.3622"
       x2="35.355339"
       y2="975.33282"
       gradientTransform="matrix(1.1218695,0,0,1.1218695,-5.8497348,-122.18782)" />
    <linearGradient
       inkscape:collect="always"
       xlink:href="#linearGradient3047"
       id="linearGradient3053"
       x1="40"
       y1="1043.4336"
       x2="39.285713"
       y2="972.33325"
       gradientUnits="userSpaceOnUse" />
    <linearGradient
       inkscape:collect="always"
       xlink:href="#linearGradient3061"
       id="linearGradient3067"
       x1="17.67767"
       y1="1046.1118"
       x2="17.67767"
       y2="962.21893"
       gradientUnits="userSpaceOnUse"
       gradientTransform="translate(0,-956.36218)" />
    <linearGradient
       inkscape:collect="always"
       xlink:href="#linearGradient3073"
       id="linearGradient3113"
       gradientUnits="userSpaceOnUse"
       gradientTransform="translate(0,-956.36218)"
       x1="14.869445"
       y1="978.90387"
       x2="24.52651"
       y2="969.24683" />
    <linearGradient
       inkscape:collect="always"
       xlink:href="#linearGradient3073"
       id="linearGradient3115"
       gradientUnits="userSpaceOnUse"
       gradientTransform="matrix(-1,0,0,1,96,-956.36218)"
       x1="15.152279"
       y1="978.62103"
       x2="26.263966"
       y2="967.50934" />
    <linearGradient
       inkscape:collect="always"
       xlink:href="#linearGradient3119"
       id="linearGradient3117"
       gradientUnits="userSpaceOnUse"
       gradientTransform="translate(0,-956.36218)"
       x1="13.131983"
       y1="980.64136"
       x2="25.549681"
       y2="967.86646" />
    <linearGradient
       inkscape:collect="always"
       xlink:href="#linearGradient3119"
       id="linearGradient3129"
       gradientUnits="userSpaceOnUse"
       gradientTransform="matrix(-1,0,0,1,96,0)"
       x1="13.131983"
       y1="980.64136"
       x2="25.549681"
       y2="967.86646" />
    <linearGradient
       inkscape:collect="always"
       xlink:href="#linearGradient3994"
       id="linearGradient3992"
       gradientUnits="userSpaceOnUse"
       x1="29.673231"
       y1="1042.892"
       x2="29.673231"
       y2="965.32623"
       gradientTransform="translate(0,-956.36218)" />
    <linearGradient
       inkscape:collect="always"
       xlink:href="#linearGradient3048"
       id="linearGradient3054"
       x1="49.267925"
       y1="996.57349"
       x2="49.267925"
       y2="1045.8627"
       gradientUnits="userSpaceOnUse" />
    <linearGradient
       inkscape:collect="always"
       xlink:href="#linearGradient3048"
       id="linearGradient3077"
       x1="-29.961773"
       y1="1002.8451"
       x2="-29.961773"
       y2="1032.9509"
       gradientUnits="userSpaceOnUse"
       gradientTransform="translate(12.135849,-0.9056604)" />
    <linearGradient
       inkscape:collect="always"
       xlink:href="#linearGradient3048"
       id="linearGradient3088"
       gradientUnits="userSpaceOnUse"
       gradientTransform="translate(12.135849,-0.9056604)"
       x1="-29.961773"
       y1="1002.8451"
       x2="-29.961773"
       y2="1032.9509" />
    <linearGradient
       inkscape:collect="always"
       xlink:href="#linearGradient3048"
       id="linearGradient3092"
       gradientUnits="userSpaceOnUse"
       gradientTransform="matrix(1.0312233,0,0,1.0312233,88.110185,-39.476681)"
       x1="-29.961773"
       y1="1002.8451"
       x2="-29.961773"
       y2="1032.9509" />
    <linearGradient
       inkscape:collect="always"
       xlink:href="#linearGradient3048"
       id="linearGradient3101"
       gradientUnits="userSpaceOnUse"
       gradientTransform="matrix(1.0312233,0,0,1.0312233,88.110185,-39.476681)"
       x1="-29.961773"
       y1="1002.8451"
       x2="-29.961773"
       y2="1032.9509" />
    <linearGradient
       inkscape:collect="always"
       xlink:href="#linearGradient3048"
       id="linearGradient3105"
       gradientUnits="userSpaceOnUse"
       gradientTransform="matrix(1.0312233,0,0,1.0312233,89.610518,-39.476681)"
       x1="-29.961773"
       y1="1002.8451"
       x2="-29.961773"
       y2="1044.0049" />
    <linearGradient
       inkscape:collect="always"
       xlink:href="#linearGradient3048"
       id="linearGradient4041"
       gradientUnits="userSpaceOnUse"
       gradientTransform="matrix(1.0312233,0,0,1.0312233,89.610518,-39.476681)"
       x1="-29.961773"
       y1="1002.8451"
       x2="-29.961773"
       y2="1044.0049" />
    <linearGradient
       inkscape:collect="always"
       xlink:href="#linearGradient3048"
       id="linearGradient4077"
       x1="13.655326"
       y1="3.6772211"
       x2="10.622581"
       y2="46.019005"
       gradientUnits="userSpaceOnUse" />
    <linearGradient
       inkscape:collect="always"
       xlink:href="#linearGradient3048"
       id="linearGradient4083"
       gradientUnits="userSpaceOnUse"
       x1="13.655326"
       y1="3.6772211"
       x2="10.622581"
       y2="46.019005" />
    <linearGradient
       inkscape:collect="always"
       xlink:href="#linearGradient3048"
       id="linearGradient4085"
       gradientUnits="userSpaceOnUse"
       x1="13.655326"
       y1="3.6772211"
       x2="10.622581"
       y2="46.019005" />
    <linearGradient
       inkscape:collect="always"
       xlink:href="#linearGradient3048"
       id="linearGradient4087"
       gradientUnits="userSpaceOnUse"
       x1="13.655326"
       y1="3.6772211"
       x2="10.622581"
       y2="46.019005" />
    <linearGradient
       inkscape:collect="always"
       xlink:href="#linearGradient3048"
       id="linearGradient4089"
       gradientUnits="userSpaceOnUse"
       x1="13.655326"
       y1="3.6772211"
       x2="10.622581"
       y2="46.019005" />
    <linearGradient
       inkscape:collect="always"
       xlink:href="#linearGradient3048"
       id="linearGradient4091"
       gradientUnits="userSpaceOnUse"
       x1="13.655326"
       y1="3.6772211"
       x2="10.622581"
       y2="46.019005" />
    <linearGradient
       inkscape:collect="always"
       xlink:href="#linearGradient3048"
       id="linearGradient4093"
       gradientUnits="userSpaceOnUse"
       x1="13.655326"
       y1="3.6772211"
       x2="10.622581"
       y2="46.019005" />
    <linearGradient
       inkscape:collect="always"
       xlink:href="#linearGradient3048"
       id="linearGradient4095"
       gradientUnits="userSpaceOnUse"
       x1="13.655326"
       y1="3.6772211"
       x2="10.622581"
       y2="46.019005" />
    <linearGradient
       inkscape:collect="always"
       xlink:href="#linearGradient3048"
       id="linearGradient4097"
       gradientUnits="userSpaceOnUse"
       x1="13.655326"
       y1="3.6772211"
       x2="10.622581"
       y2="46.019005" />
    <linearGradient
       inkscape:collect="always"
       xlink:href="#linearGradient3048"
       id="linearGradient4099"
       gradientUnits="userSpaceOnUse"
       x1="13.655326"
       y1="3.6772211"
       x2="10.622581"
       y2="46.019005" />
    <linearGradient
       inkscape:collect="always"
       xlink:href="#linearGradient3048"
       id="linearGradient4101"
       gradientUnits="userSpaceOnUse"
       x1="13.655326"
       y1="3.6772211"
       x2="10.622581"
       y2="46.019005" />
    <linearGradient
       inkscape:collect="always"
       xlink:href="#linearGradient3048"
       id="linearGradient4103"
       gradientUnits="userSpaceOnUse"
       x1="13.655326"
       y1="3.6772211"
       x2="10.622581"
       y2="46.019005" />
    <linearGradient
       inkscape:collect="always"
       xlink:href="#linearGradient3048"
       id="linearGradient4105"
       gradientUnits="userSpaceOnUse"
       x1="13.655326"
       y1="3.6772211"
       x2="10.622581"
       y2="46.019005" />
    <linearGradient
       inkscape:collect="always"
       xlink:href="#linearGradient3048"
       id="linearGradient4107"
       gradientUnits="userSpaceOnUse"
       x1="13.655326"
       y1="3.6772211"
       x2="10.622581"
       y2="46.019005" />
    <linearGradient
       inkscape:collect="always"
       xlink:href="#linearGradient3048"
       id="linearGradient4122"
       gradientUnits="userSpaceOnUse"
       x1="13.655326"
       y1="3.6772211"
       x2="10.622581"
       y2="46.019005" />
    <linearGradient
       inkscape:collect="always"
       xlink:href="#linearGradient3048"
       id="linearGradient4124"
       gradientUnits="userSpaceOnUse"
       x1="13.655326"
       y1="3.6772211"
       x2="10.622581"
       y2="46.019005" />
    <linearGradient
       inkscape:collect="always"
       xlink:href="#linearGradient3048"
       id="linearGradient4126"
       gradientUnits="userSpaceOnUse"
       x1="13.655326"
       y1="3.6772211"
       x2="10.622581"
       y2="46.019005" />
    <linearGradient
       inkscape:collect="always"
       xlink:href="#linearGradient3048"
       id="linearGradient4128"
       gradientUnits="userSpaceOnUse"
       x1="13.655326"
       y1="3.6772211"
       x2="10.622581"
       y2="46.019005" />
    <linearGradient
       inkscape:collect="always"
       xlink:href="#linearGradient3048"
       id="linearGradient4130"
       gradientUnits="userSpaceOnUse"
       x1="13.655326"
       y1="3.6772211"
       x2="10.622581"
       y2="46.019005" />
    <linearGradient
       inkscape:collect="always"
       xlink:href="#linearGradient3048"
       id="linearGradient4132"
       gradientUnits="userSpaceOnUse"
       x1="13.655326"
       y1="3.6772211"
       x2="10.622581"
       y2="46.019005" />
    <linearGradient
       inkscape:collect="always"
       xlink:href="#linearGradient3048"
       id="linearGradient4134"
       gradientUnits="userSpaceOnUse"
       x1="13.655326"
       y1="3.6772211"
       x2="10.622581"
       y2="46.019005" />
    <linearGradient
       inkscape:collect="always"
       xlink:href="#linearGradient3048"
       id="linearGradient4136"
       gradientUnits="userSpaceOnUse"
       x1="13.655326"
       y1="3.6772211"
       x2="10.622581"
       y2="46.019005" />
    <linearGradient
       inkscape:collect="always"
       xlink:href="#linearGradient3048"
       id="linearGradient4138"
       gradientUnits="userSpaceOnUse"
       x1="13.655326"
       y1="3.6772211"
       x2="10.622581"
       y2="46.019005" />
    <linearGradient
       inkscape:collect="always"
       xlink:href="#linearGradient3048"
       id="linearGradient4140"
       gradientUnits="userSpaceOnUse"
       x1="13.655326"
       y1="3.6772211"
       x2="10.622581"
       y2="46.019005" />
    <linearGradient
       inkscape:collect="always"
       xlink:href="#linearGradient3048"
       id="linearGradient4143"
       gradientUnits="userSpaceOnUse"
       x1="13.655326"
       y1="3.6772211"
       x2="10.622581"
       y2="46.019005"
       gradientTransform="matrix(2.1960784,0,0,2.1960784,-1245.4565,560.57418)" />
    <linearGradient
       inkscape:collect="always"
       xlink:href="#linearGradient3048"
       id="linearGradient4148"
       gradientUnits="userSpaceOnUse"
       x1="13.655326"
       y1="3.6772211"
       x2="10.622581"
       y2="46.019005" />
    <linearGradient
       inkscape:collect="always"
       xlink:href="#linearGradient3048"
       id="linearGradient4150"
       gradientUnits="userSpaceOnUse"
       x1="13.655326"
       y1="3.6772211"
       x2="10.622581"
       y2="46.019005" />
    <linearGradient
       inkscape:collect="always"
       xlink:href="#linearGradient3048"
       id="linearGradient4152"
       gradientUnits="userSpaceOnUse"
       x1="13.655326"
       y1="3.6772211"
       x2="10.622581"
       y2="46.019005" />
    <linearGradient
       inkscape:collect="always"
       xlink:href="#linearGradient3048"
       id="linearGradient4154"
       gradientUnits="userSpaceOnUse"
       x1="13.655326"
       y1="3.6772211"
       x2="10.622581"
       y2="46.019005"
       gradientTransform="matrix(3.3115468,0,0,3.3115468,-920.08634,-537.41545)" />
    <linearGradient
       inkscape:collect="always"
       xlink:href="#linearGradient3048"
       id="linearGradient4157"
       gradientUnits="userSpaceOnUse"
       gradientTransform="matrix(3.3115468,0,0,3.3115468,-920.08634,-537.41545)"
       x1="295.78784"
       y1="172.78395"
       x2="295.78784"
       y2="186.97018" />
    <linearGradient
       inkscape:collect="always"
       xlink:href="#linearGradient3048"
       id="linearGradient4173"
       gradientUnits="userSpaceOnUse"
       gradientTransform="matrix(3.3115468,0,0,3.3115468,-920.08634,-537.41545)"
       x1="295.78784"
       y1="172.78395"
       x2="295.78784"
       y2="186.97018" />
    <linearGradient
       inkscape:collect="always"
       xlink:href="#linearGradient3048"
       id="linearGradient10401"
       gradientUnits="userSpaceOnUse"
       gradientTransform="matrix(3.3115468,0,0,3.3115468,-920.08634,419.29071)"
       x1="292.6701"
       y1="183.13612"
       x2="292.6701"
       y2="172.74893" />
    <linearGradient
       y2="962.21893"
       x2="17.67767"
       y1="1046.1118"
       x1="17.67767"
       gradientUnits="userSpaceOnUse"
       id="linearGradient3742"
       xlink:href="#linearGradient3061-2"
       inkscape:collect="always" />
    <linearGradient
       inkscape:collect="always"
       id="linearGradient3061-2">
      <stop
         style="stop-color:#ef9a42;stop-opacity:1"
         offset="0"
         id="stop3063-1" />
      <stop
         style="stop-color:#f5c262;stop-opacity:1"
         offset="1"
         id="stop3065-9" />
    </linearGradient>
    <linearGradient
       inkscape:collect="always"
       xlink:href="#linearGradient3994-5"
       id="linearGradient3702"
       gradientUnits="userSpaceOnUse"
       x1="29.673231"
       y1="1044.7706"
       x2="29.673231"
       y2="965.32623" />
    <linearGradient
       id="linearGradient3994-5"
       inkscape:collect="always">
      <stop
         id="stop3996-0"
         offset="0"
         style="stop-color:#ff8e31;stop-opacity:1" />
      <stop
         id="stop4004-8"
         offset="1"
         style="stop-color:#ffb642;stop-opacity:1" />
    </linearGradient>
    <linearGradient
       inkscape:collect="always"
       xlink:href="#linearGradient3048"
       id="linearGradient12980"
       gradientUnits="userSpaceOnUse"
       gradientTransform="matrix(3.3115468,0,0,3.3115468,-920.08634,419.29071)"
       x1="292.6701"
       y1="183.13612"
       x2="292.6701"
       y2="172.74893" />
    <linearGradient
       inkscape:collect="always"
       xlink:href="#linearGradient3048"
       id="linearGradient12984"
       gradientUnits="userSpaceOnUse"
       gradientTransform="matrix(3.3115468,0,0,3.3115468,-920.08634,419.29071)"
       x1="292.6701"
       y1="183.13612"
       x2="292.6701"
       y2="172.74893" />
  </defs>
  <sodipodi:namedview
     id="base"
     pagecolor="#ffffff"
     bordercolor="#666666"
     borderopacity="1.0"
     inkscape:pageopacity="0.0"
     inkscape:pageshadow="2"
     inkscape:zoom="5.5208332"
     inkscape:cx="69.816604"
     inkscape:cy="23.42464"
     inkscape:document-units="px"
     inkscape:current-layer="layer1"
     showgrid="false"
     inkscape:window-width="1366"
     inkscape:window-height="716"
     inkscape:window-x="0"
     inkscape:window-y="27"
     inkscape:window-maximized="1"
     showguides="true"
     inkscape:guide-bbox="true" />
  <metadata
     id="metadata7">
    <rdf:RDF>
      <cc:Work
         rdf:about="">
        <dc:format>image/svg+xml</dc:format>
        <dc:type
           rdf:resource="http://purl.org/dc/dcmitype/StillImage" />
        <dc:title />
      </cc:Work>
    </rdf:RDF>
  </metadata>
  <g
     inkscape:label="Layer 1"
     inkscape:groupmode="layer"
     id="layer1"
     transform="translate(0,-956.36218)">
    <g
       id="g3874">
      <rect
         ry="10.595235"
         rx="10.595235"
         y="960.86218"
         x="3.5"
         height="89"
         width="89"
         id="rect3826"
         style="opacity:0.05;fill:#000000;fill-opacity:1;stroke:none" />
      <g
         id="g3041">
        <rect
           ry="10.476188"
           rx="10.476188"
           y="961.36218"
           x="4"
           height="88"
           width="88"
           id="rect3824"
           style="opacity:0.05;fill:#000000;fill-opacity:1;stroke:none" />
        <rect
           style="opacity:0.05;fill:#000000;fill-opacity:1;stroke:none"
           id="rect3822"
           width="87"
           height="87"
           x="4.5"
           y="961.86218"
           rx="10.357141"
           ry="10.357141" />
        <rect
           ry="10.238094"
           rx="10.238094"
           y="962.36218"
           x="5"
           height="86"
           width="86"
           id="rect3820"
           style="opacity:0.1;fill:#000000;fill-opacity:1;stroke:none" />
        <rect
           style="opacity:0.1;fill:#000000;fill-opacity:1;stroke:none"
           id="rect3818"
           width="85"
           height="85"
           x="5.5"
           y="962.86218"
           rx="10.119047"
           ry="10.119047" />
        <rect
           ry="10"
           rx="10"
           y="963.36218"
           x="6"
           height="84"
           width="84"
           id="rect3131"
           style="opacity:0.3;fill:#000000;fill-opacity:1;stroke:none" />
      </g>
      <rect
         style="fill:#dca159;fill-opacity:1;stroke:none"
         id="rect3036"
         width="84"
         height="84"
         x="6"
         y="962.36218"
         rx="10"
         ry="10" />
      <rect
         ry="9.7619047"
         rx="9.7619047"
         y="963.36218"
         x="7"
         height="82"
         width="82"
         id="rect3034"
         style="fill:#d67918;fill-opacity:1;stroke:none" />
      <path
         id="rect3126-1"
         d="m 16.75,963.36218 c -5.408095,0 -9.75,4.3419 -9.75,9.75 l 0,1 c 0,-5.4081 4.341905,-9.75 9.75,-9.75 l 62.5,0 c 5.408095,0 9.75,4.3419 9.75,9.75 l 0,-1 c 0,-5.4081 -4.341905,-9.75 -9.75,-9.75 l -62.5,0 z"
         style="opacity:0.1;fill:#ffffff;fill-opacity:1;stroke:none"
         inkscape:connector-curvature="0" />
      <path
         sodipodi:nodetypes="scccssssccscccccs"
         inkscape:connector-curvature="0"
         id="path3828-4"
         d="m 16,962.36218 c -3.758224,0 -7.0097577,2.04397 -8.71875,5.09375 -0.00877,0.0208 -0.022613,0.0416 -0.03125,0.0625 -0.011347,0.0206 -0.020044,0.0418 -0.03125,0.0625 C 6.7468374,968.74451 6.5,970.02534 6.5,971.36218 l 0,64.00002 c 0,5.54 4.46,10 10,10 l 64,0 c 3.758224,0 7.009758,-2.044 8.71875,-5.0938 0.01755,-0.042 0.0455,-0.083 0.0625,-0.125 C 89.753163,1038.9799 90,1037.699 90,1036.3622 l 0,-58.89814 c 0,-0.96494 -1.03855,-2.19563 -2.377354,-2.19563 l -39.747646,0 -6.548508,-11.31604 c -0.662685,-1.14781 -2.034917,-1.57024 -3.452543,-1.59021 z"
         style="opacity:0.1;fill:#000000;fill-opacity:1;stroke:none" />
      <path
         sodipodi:nodetypes="scccssssccscccccs"
         inkscape:connector-curvature="0"
         style="opacity:0.1;fill:#000000;fill-opacity:1;stroke:none"
         d="m 15.75,962.86216 c -3.758224,0 -7.0097577,2.04397 -8.71875,5.09375 -0.00877,0.0208 -0.022613,0.0416 -0.03125,0.0625 -0.011347,0.0206 -0.020044,0.0418 -0.03125,0.0625 C 6.4968374,969.24449 6.25,970.52532 6.25,971.86216 l 0,64.00004 c 0,5.54 4.46,10 10,10 l 64,0 c 3.758224,0 7.009758,-2.044 8.71875,-5.0938 0.01755,-0.042 0.0455,-0.083 0.0625,-0.125 0.471913,-1.1635 0.71875,-2.4444 0.71875,-3.7812 l 0,-58.42455 c 0,-1.79197 -1.171338,-2.66924 -2.240562,-2.66924 l -39.884438,0 -6.368419,-11.00484 c -0.908856,-1.57419 -2.410265,-1.90141 -3.716957,-1.90141 z"
         id="path3837-1" />
      <path
         sodipodi:nodetypes="sscsssssscccccccs"
         inkscape:connector-curvature="0"
         id="rect2985-8"
         d="m 16,962.36218 c -5.54,0 -10,4.46 -10,10 l 0,11.71875 0,52.28127 c 0,5.54 4.46,10 10,10 l 64,0 c 5.54,0 10,-4.46 10,-10 l 0,-57.68752 c 0,-1.24897 -0.965552,-2.40625 -2.46875,-2.40625 l -39.25,0 c -0.861394,0.094 -1.116154,-0.35591 -1.34375,-0.75 l -0.1875,-0.34375 -1.96875,-3.40625 -3.506358,-6.0475 c -0.99194,-1.71809 -2.986415,-3.35875 -6.228912,-3.35875 l -0.82723,0 z"
         style="fill:url(#linearGradient3742);fill-opacity:1;stroke:none" />
      <path
         sodipodi:nodetypes="sscsssssssccccccs"
         inkscape:connector-curvature="0"
         id="rect3021-9"
         d="m 16.75,963.36218 c -5.408095,0 -9.75,4.3419 -9.75,9.75 l 0,10.96875 0,51.53127 c 0,5.4081 4.341905,9.75 9.75,9.75 l 62.5,0 c 5.408095,0 9.75,-4.3419 9.75,-9.75 l 0,-56.25002 c 0,-1.20195 -0.924024,-2.09375 -2.0625,-2.09375 l -38.90625,0 c -0.864689,0 -1.854193,-0.63531 -2.28125,-1.375 l -1,-1.71875 -4.1875,-7.25 -0.342904,-0.6183 c -1.49949,-2.55523 -3.790144,-2.94415 -6.121482,-2.94415 l -0.941864,0 z"
         style="fill:url(#linearGradient3702);fill-opacity:1;stroke:none" />
      <path
         id="path3192-1"
         d="m 7,1034.6122 0,1 c 0,5.4081 4.341905,9.75 9.75,9.75 l 62.5,0 c 5.408095,0 9.75,-4.3419 9.75,-9.75 l 0,-1 c 0,5.4081 -4.341905,9.75 -9.75,9.75 l -62.5,0 c -5.408095,0 -9.75,-4.3419 -9.75,-9.75 z"
         style="opacity:0.1;fill:#000000;fill-opacity:1;stroke:none"
         inkscape:connector-curvature="0" />
    </g>
    <path
       id="path4159"
       d="m 58.9375,992.36216 c -3.60068,0 -6.5,2.89932 -6.5,6.5 0,0.32573 0.01638,0.65583 0.0625,0.96875 l -10.9375,5.31249 c -1.171532,-1.1248 -2.747639,-1.8125 -4.5,-1.8125 -3.60068,0 -6.53125,2.9306 -6.53125,6.5313 0,3.6007 2.93057,6.5 6.53125,6.5 1.761318,0 3.326796,-0.7087 4.5,-1.8438 l 10.9375,5.5313 c -0.03155,0.26 -0.0625,0.5127 -0.0625,0.7812 0,3.6007 2.89932,6.5313 6.5,6.5313 3.60068,0 6.53125,-2.9306 6.53125,-6.5313 0,-3.6006 -2.93057,-6.5312 -6.53125,-6.5312 -1.720376,0 -3.272407,0.6613 -4.4375,1.75 l -10.96875,-5.5313 c 0.02226,-0.2191 0.03125,-0.4312 0.03125,-0.6562 0,-0.2707 -0.03045,-0.5505 -0.0625,-0.8125 l 11.0625,-5.375 c 1.159659,1.0612 2.679185,1.7187 4.375,1.7187 3.60068,0 6.53125,-2.9305 6.53125,-6.53124 0,-3.60068 -2.93057,-6.5 -6.53125,-6.5 z"
       style="color:#000000;fill:#ffffff;fill-opacity:1;fill-rule:nonzero;stroke:none;stroke-width:0.99999994000000003;marker:none;visibility:visible;display:inline;overflow:visible;enable-background:new;opacity:0.2"
       inkscape:connector-curvature="0" />
    <path
       inkscape:connector-curvature="0"
       style="color:#000000;fill:url(#linearGradient12984);fill-opacity:1;fill-rule:nonzero;stroke:none;stroke-width:0.99999994;marker:none;visibility:visible;display:inline;overflow:visible;enable-background:new"
       d="m 58.9375,991.36241 c -3.60068,0 -6.5,2.89932 -6.5,6.5 0,0.32573 0.01638,0.65583 0.0625,0.96875 l -10.9375,5.31254 c -1.171532,-1.1249 -2.747639,-1.8125 -4.5,-1.8125 -3.60068,0 -6.53125,2.9305 -6.53125,6.5312 0,3.6007 2.93057,6.5 6.53125,6.5 1.761318,0 3.326796,-0.7087 4.5,-1.8437 l 10.9375,5.5312 c -0.03155,0.26 -0.0625,0.5127 -0.0625,0.7813 0,3.6006 2.89932,6.5312 6.5,6.5312 3.60068,0 6.53125,-2.9306 6.53125,-6.5312 0,-3.6007 -2.93057,-6.5313 -6.53125,-6.5313 -1.720376,0 -3.272407,0.6613 -4.4375,1.75 l -10.96875,-5.5312 c 0.02226,-0.2192 0.03125,-0.4312 0.03125,-0.6563 0,-0.2707 -0.03045,-0.5504 -0.0625,-0.8125 l 11.0625,-5.375 c 1.159659,1.0612 2.679185,1.7188 4.375,1.7188 3.60068,0 6.53125,-2.9306 6.53125,-6.53129 0,-3.60068 -2.93057,-6.5 -6.53125,-6.5 z"
       id="path8192" />
    <path
       inkscape:connector-curvature="0"
       style="color:#000000;fill:#000000;fill-opacity:1;fill-rule:nonzero;stroke:none;stroke-width:0.99999994000000003;marker:none;visibility:visible;display:inline;overflow:visible;enable-background:new;opacity:0.2"
       d="m 58.9375,991.36241 c -3.60068,0 -6.5,2.89932 -6.5,6.5 0,0.11578 0.02651,0.22784 0.03125,0.34375 0.331715,-3.2854 3.093113,-5.84375 6.46875,-5.84375 3.375637,0 6.164852,2.55835 6.5,5.84375 0.0062,-0.1166 0.03125,-0.22563 0.03125,-0.34375 0,-3.60068 -2.93057,-6.5 -6.53125,-6.5 z m -6.5,7.5 -10.875,5.28129 c -1.171532,-1.1249 -2.747639,-1.8125 -4.5,-1.8125 -3.60068,0 -6.53125,2.9305 -6.53125,6.5312 0,0.1181 0.02502,0.2272 0.03125,0.3438 0.335148,-3.2889 3.124363,-5.875 6.5,-5.875 1.752361,0 3.328468,0.6877 4.5,1.8125 L 52.5,999.83116 c -0.04612,-0.31292 -0.0625,-0.64302 -0.0625,-0.96875 z m -8.875,10.15629 -0.0625,0.031 c 0.01725,0.141 0.01942,0.2904 0.03125,0.4375 0.01502,-0.1562 0.02802,-0.3115 0.03125,-0.4687 z m -0.03125,0.5 c 0.0087,0.1158 0.03125,0.2291 0.03125,0.3437 0,0.225 -0.009,0.4372 -0.03125,0.6563 L 54.5,1016.0499 c 1.165093,-1.0887 2.717124,-1.75 4.4375,-1.75 3.375637,0 6.164852,2.5862 6.5,5.875 0.0062,-0.1166 0.03125,-0.2256 0.03125,-0.3437 0,-3.6007 -2.93057,-6.5313 -6.53125,-6.5313 -1.720376,0 -3.272407,0.6613 -4.4375,1.75 l -10.96875,-5.5312 z m 8.90625,10.5 c 0.0043,0.1491 0.01718,0.2909 0.03125,0.4375 0.01181,-0.1345 0.01485,-0.2711 0.03125,-0.4063 l -0.0625,-0.031 z"
       id="path4163" />
  </g>
</svg>
