<?xml version="1.0" encoding="UTF-8" standalone="no"?>
<!-- Created with Inkscape (http://www.inkscape.org/) -->

<svg
   xmlns:dc="http://purl.org/dc/elements/1.1/"
   xmlns:cc="http://creativecommons.org/ns#"
   xmlns:rdf="http://www.w3.org/1999/02/22-rdf-syntax-ns#"
   xmlns:svg="http://www.w3.org/2000/svg"
   xmlns="http://www.w3.org/2000/svg"
   xmlns:xlink="http://www.w3.org/1999/xlink"
   xmlns:sodipodi="http://sodipodi.sourceforge.net/DTD/sodipodi-0.dtd"
   xmlns:inkscape="http://www.inkscape.org/namespaces/inkscape"
   width="96"
   height="96"
   id="svg2"
   version="1.1"
   inkscape:version="0.48.4 r9939"
   sodipodi:docname="folder-templates.svg">
  <defs
     id="defs4">
    <linearGradient
       id="linearGradient3048">
      <stop
         style="stop-color:#c16d16;stop-opacity:1"
         offset="0"
         id="stop3050" />
      <stop
         style="stop-color:#ff8e31;stop-opacity:1"
         offset="1"
         id="stop3052" />
    </linearGradient>
    <linearGradient
       id="linearGradient3994"
       inkscape:collect="always">
      <stop
         id="stop3996"
         offset="0"
         style="stop-color:#ff8e31;stop-opacity:1" />
      <stop
         id="stop4004"
         offset="1"
         style="stop-color:#ffb642;stop-opacity:1" />
    </linearGradient>
    <linearGradient
       inkscape:collect="always"
       id="linearGradient3119">
      <stop
         style="stop-color:#92948f;stop-opacity:0"
         offset="0"
         id="stop3121" />
      <stop
         id="stop3123"
         offset="0.4283945"
         style="stop-color:#9b9e98;stop-opacity:1" />
      <stop
         style="stop-color:#939690;stop-opacity:0"
         offset="1"
         id="stop3125" />
    </linearGradient>
    <linearGradient
       id="linearGradient3073"
       inkscape:collect="always">
      <stop
         id="stop3075"
         offset="0"
         style="stop-color:#ffffff;stop-opacity:0" />
      <stop
         style="stop-color:#ffffff;stop-opacity:1"
         offset="0.45872402"
         id="stop3085" />
      <stop
         id="stop3083"
         offset="1"
         style="stop-color:#ffffff;stop-opacity:0" />
    </linearGradient>
    <linearGradient
       inkscape:collect="always"
       id="linearGradient3061">
      <stop
         style="stop-color:#ef9a42;stop-opacity:1"
         offset="0"
         id="stop3063" />
      <stop
         style="stop-color:#f5c262;stop-opacity:1"
         offset="1"
         id="stop3065" />
    </linearGradient>
    <linearGradient
       inkscape:collect="always"
       id="linearGradient3047">
      <stop
         style="stop-color:#000000;stop-opacity:1"
         offset="0"
         id="stop3049" />
      <stop
         id="stop3055"
         offset="0.06123874"
         style="stop-color:#1a1a1a;stop-opacity:1" />
      <stop
         style="stop-color:#333333;stop-opacity:1"
         offset="0.16480456"
         id="stop3057" />
      <stop
         id="stop3059"
         offset="0.55385184"
         style="stop-color:#4d4d4d;stop-opacity:1" />
      <stop
         style="stop-color:#999999;stop-opacity:1"
         offset="1"
         id="stop3051" />
    </linearGradient>
    <linearGradient
       id="linearGradient3041"
       inkscape:collect="always">
      <stop
         id="stop3043"
         offset="0"
         style="stop-color:#1a1a1a;stop-opacity:1" />
      <stop
         id="stop3045"
         offset="1"
         style="stop-color:#808080;stop-opacity:1" />
    </linearGradient>
    <linearGradient
       inkscape:collect="always"
       id="linearGradient3029">
      <stop
         style="stop-color:#333333;stop-opacity:1"
         offset="0"
         id="stop3031" />
      <stop
         style="stop-color:#e0e0dd;stop-opacity:0;"
         offset="1"
         id="stop3033" />
    </linearGradient>
    <linearGradient
       inkscape:collect="always"
       xlink:href="#linearGradient3029"
       id="linearGradient3035"
       x1="35.355339"
       y1="1030.3622"
       x2="35.355339"
       y2="975.33282"
       gradientUnits="userSpaceOnUse"
       gradientTransform="matrix(1.1638085,0,0,1.1638085,-7.862809,-164.23642)" />
    <linearGradient
       inkscape:collect="always"
       xlink:href="#linearGradient3041"
       id="linearGradient3039"
       gradientUnits="userSpaceOnUse"
       x1="35.355339"
       y1="1030.3622"
       x2="35.355339"
       y2="975.33282"
       gradientTransform="matrix(1.1218695,0,0,1.1218695,-5.8497348,-122.18782)" />
    <linearGradient
       inkscape:collect="always"
       xlink:href="#linearGradient3047"
       id="linearGradient3053"
       x1="40"
       y1="1043.4336"
       x2="39.285713"
       y2="972.33325"
       gradientUnits="userSpaceOnUse" />
    <linearGradient
       inkscape:collect="always"
       xlink:href="#linearGradient3061"
       id="linearGradient3067"
       x1="17.67767"
       y1="1046.1118"
       x2="17.67767"
       y2="962.21893"
       gradientUnits="userSpaceOnUse"
       gradientTransform="translate(0,-956.36218)" />
    <linearGradient
       inkscape:collect="always"
       xlink:href="#linearGradient3073"
       id="linearGradient3113"
       gradientUnits="userSpaceOnUse"
       gradientTransform="translate(0,-956.36218)"
       x1="14.869445"
       y1="978.90387"
       x2="24.52651"
       y2="969.24683" />
    <linearGradient
       inkscape:collect="always"
       xlink:href="#linearGradient3073"
       id="linearGradient3115"
       gradientUnits="userSpaceOnUse"
       gradientTransform="matrix(-1,0,0,1,96,-956.36218)"
       x1="15.152279"
       y1="978.62103"
       x2="26.263966"
       y2="967.50934" />
    <linearGradient
       inkscape:collect="always"
       xlink:href="#linearGradient3119"
       id="linearGradient3117"
       gradientUnits="userSpaceOnUse"
       gradientTransform="translate(0,-956.36218)"
       x1="13.131983"
       y1="980.64136"
       x2="25.549681"
       y2="967.86646" />
    <linearGradient
       inkscape:collect="always"
       xlink:href="#linearGradient3119"
       id="linearGradient3129"
       gradientUnits="userSpaceOnUse"
       gradientTransform="matrix(-1,0,0,1,96,0)"
       x1="13.131983"
       y1="980.64136"
       x2="25.549681"
       y2="967.86646" />
    <linearGradient
       inkscape:collect="always"
       xlink:href="#linearGradient3994"
       id="linearGradient3992"
       gradientUnits="userSpaceOnUse"
       x1="29.673231"
       y1="1042.892"
       x2="29.673231"
       y2="965.32623"
       gradientTransform="translate(0,-956.36218)" />
    <linearGradient
       inkscape:collect="always"
       xlink:href="#linearGradient3048"
       id="linearGradient3054"
       x1="49.267925"
       y1="996.57349"
       x2="49.267925"
       y2="1045.8627"
       gradientUnits="userSpaceOnUse" />
    <linearGradient
       inkscape:collect="always"
       xlink:href="#linearGradient3048"
       id="linearGradient3125"
       x1="8.1398792"
       y1="0.048192434"
       x2="8.1398792"
       y2="15.617946"
       gradientUnits="userSpaceOnUse" />
    <linearGradient
       inkscape:collect="always"
       xlink:href="#linearGradient3048"
       id="linearGradient3133"
       gradientUnits="userSpaceOnUse"
       x1="-101.9166"
       y1="-111.35634"
       x2="-101.9166"
       y2="-9.9820299" />
    <linearGradient
       inkscape:collect="always"
       xlink:href="#linearGradient3048"
       id="linearGradient3135"
       gradientUnits="userSpaceOnUse"
       x1="8.1398792"
       y1="0.048192434"
       x2="8.1398792"
       y2="15.617946" />
    <linearGradient
       inkscape:collect="always"
       xlink:href="#linearGradient3048"
       id="linearGradient3137"
       gradientUnits="userSpaceOnUse"
       x1="8.1398792"
       y1="0.048192434"
       x2="8.1398792"
       y2="15.617946" />
    <linearGradient
       inkscape:collect="always"
       xlink:href="#linearGradient3048"
       id="linearGradient3139"
       gradientUnits="userSpaceOnUse"
       x1="8.1398792"
       y1="0.048192434"
       x2="8.1398792"
       y2="15.617946" />
    <linearGradient
       inkscape:collect="always"
       xlink:href="#linearGradient3048"
       id="linearGradient3141"
       gradientUnits="userSpaceOnUse"
       x1="8.1398792"
       y1="0.048192434"
       x2="8.1398792"
       y2="15.617946" />
    <linearGradient
       inkscape:collect="always"
       xlink:href="#linearGradient3048"
       id="linearGradient3143"
       gradientUnits="userSpaceOnUse"
       x1="8.1398792"
       y1="0.048192434"
       x2="8.1398792"
       y2="15.617946" />
    <linearGradient
       inkscape:collect="always"
       xlink:href="#linearGradient3048"
       id="linearGradient3145"
       gradientUnits="userSpaceOnUse"
       x1="8.1398792"
       y1="0.048192434"
       x2="8.1398792"
       y2="15.617946" />
    <linearGradient
       inkscape:collect="always"
       xlink:href="#linearGradient3048"
       id="linearGradient3147"
       gradientUnits="userSpaceOnUse"
       x1="8.1398792"
       y1="0.048192434"
       x2="8.1398792"
       y2="15.617946" />
    <linearGradient
       inkscape:collect="always"
       xlink:href="#linearGradient3048"
       id="linearGradient3149"
       gradientUnits="userSpaceOnUse"
       x1="8.1398792"
       y1="0.048192434"
       x2="8.1398792"
       y2="15.617946" />
    <linearGradient
       inkscape:collect="always"
       xlink:href="#linearGradient3048"
       id="linearGradient3151"
       gradientUnits="userSpaceOnUse"
       x1="8.1398792"
       y1="0.048192434"
       x2="8.1398792"
       y2="15.617946" />
    <linearGradient
       inkscape:collect="always"
       xlink:href="#linearGradient3048"
       id="linearGradient3153"
       gradientUnits="userSpaceOnUse"
       x1="8.1398792"
       y1="0.048192434"
       x2="8.1398792"
       y2="15.617946" />
    <linearGradient
       inkscape:collect="always"
       xlink:href="#linearGradient3048"
       id="linearGradient3155"
       gradientUnits="userSpaceOnUse"
       x1="8.1398792"
       y1="0.048192434"
       x2="8.1398792"
       y2="15.617946" />
    <linearGradient
       inkscape:collect="always"
       xlink:href="#linearGradient3048"
       id="linearGradient3157"
       gradientUnits="userSpaceOnUse"
       x1="8.1398792"
       y1="0.048192434"
       x2="8.1398792"
       y2="15.617946" />
    <linearGradient
       inkscape:collect="always"
       xlink:href="#linearGradient3048"
       id="linearGradient3159"
       gradientUnits="userSpaceOnUse"
       x1="8.1398792"
       y1="0.048192434"
       x2="8.1398792"
       y2="15.617946" />
    <linearGradient
       inkscape:collect="always"
       xlink:href="#linearGradient3048"
       id="linearGradient3161"
       gradientUnits="userSpaceOnUse"
       x1="8.1398792"
       y1="0.048192434"
       x2="8.1398792"
       y2="15.617946" />
    <linearGradient
       inkscape:collect="always"
       xlink:href="#linearGradient3048"
       id="linearGradient3534"
       gradientUnits="userSpaceOnUse"
       x1="8.1398792"
       y1="0.048192434"
       x2="8.1398792"
       y2="15.617946" />
    <linearGradient
       inkscape:collect="always"
       xlink:href="#linearGradient3048"
       id="linearGradient3536"
       gradientUnits="userSpaceOnUse"
       x1="8.1398792"
       y1="0.048192434"
       x2="8.1398792"
       y2="15.617946" />
    <linearGradient
       inkscape:collect="always"
       xlink:href="#linearGradient3048"
       id="linearGradient3538"
       gradientUnits="userSpaceOnUse"
       x1="8.1398792"
       y1="0.048192434"
       x2="8.1398792"
       y2="15.617946" />
    <linearGradient
       inkscape:collect="always"
       xlink:href="#linearGradient3048"
       id="linearGradient3540"
       gradientUnits="userSpaceOnUse"
       x1="8.1398792"
       y1="0.048192434"
       x2="8.1398792"
       y2="15.617946" />
    <linearGradient
       inkscape:collect="always"
       xlink:href="#linearGradient3048"
       id="linearGradient3542"
       gradientUnits="userSpaceOnUse"
       x1="8.1398792"
       y1="0.048192434"
       x2="8.1398792"
       y2="15.617946" />
    <linearGradient
       inkscape:collect="always"
       xlink:href="#linearGradient3048"
       id="linearGradient3554"
       gradientUnits="userSpaceOnUse"
       x1="8.1398792"
       y1="0.048192434"
       x2="8.1398792"
       y2="15.617946" />
    <linearGradient
       inkscape:collect="always"
       xlink:href="#linearGradient3048"
       id="linearGradient3556"
       gradientUnits="userSpaceOnUse"
       x1="8.1398792"
       y1="0.048192434"
       x2="8.1398792"
       y2="15.617946" />
    <linearGradient
       inkscape:collect="always"
       xlink:href="#linearGradient3048"
       id="linearGradient3558"
       gradientUnits="userSpaceOnUse"
       x1="8.1398792"
       y1="0.048192434"
       x2="8.1398792"
       y2="15.617946" />
    <linearGradient
       inkscape:collect="always"
       xlink:href="#linearGradient3048"
       id="linearGradient3560"
       gradientUnits="userSpaceOnUse"
       x1="8.1398792"
       y1="0.048192434"
       x2="8.1398792"
       y2="15.617946" />
    <linearGradient
       inkscape:collect="always"
       xlink:href="#linearGradient3048"
       id="linearGradient3562"
       gradientUnits="userSpaceOnUse"
       x1="8.1398792"
       y1="0.048192434"
       x2="8.1398792"
       y2="15.617946" />
    <linearGradient
       inkscape:collect="always"
       xlink:href="#linearGradient3048"
       id="linearGradient3564"
       gradientUnits="userSpaceOnUse"
       x1="8.1398792"
       y1="0.048192434"
       x2="8.1398792"
       y2="15.617946" />
    <linearGradient
       inkscape:collect="always"
       xlink:href="#linearGradient3048"
       id="linearGradient3246"
       gradientUnits="userSpaceOnUse"
       x1="8.1398792"
       y1="0.048192434"
       x2="8.1398792"
       y2="19.25441" />
    <linearGradient
       inkscape:collect="always"
       xlink:href="#linearGradient3048"
       id="linearGradient3293"
       gradientUnits="userSpaceOnUse"
       x1="8.1398792"
       y1="0.048192434"
       x2="8.1398792"
       y2="15.617946" />
    <linearGradient
       inkscape:collect="always"
       xlink:href="#linearGradient3048"
       id="linearGradient3295"
       gradientUnits="userSpaceOnUse"
       x1="8.1398792"
       y1="0.048192434"
       x2="8.1398792"
       y2="15.617946" />
    <linearGradient
       inkscape:collect="always"
       xlink:href="#linearGradient3048"
       id="linearGradient3297"
       gradientUnits="userSpaceOnUse"
       x1="8.1398792"
       y1="0.048192434"
       x2="8.1398792"
       y2="15.617946" />
    <linearGradient
       inkscape:collect="always"
       xlink:href="#linearGradient3048"
       id="linearGradient3299"
       gradientUnits="userSpaceOnUse"
       x1="8.1398792"
       y1="0.048192434"
       x2="8.1398792"
       y2="15.617946" />
    <linearGradient
       inkscape:collect="always"
       xlink:href="#linearGradient3048"
       id="linearGradient3301"
       gradientUnits="userSpaceOnUse"
       x1="8.1398792"
       y1="0.048192434"
       x2="8.1398792"
       y2="15.617946" />
    <linearGradient
       inkscape:collect="always"
       xlink:href="#linearGradient3048"
       id="linearGradient3313"
       gradientUnits="userSpaceOnUse"
       x1="8.1398792"
       y1="0.048192434"
       x2="8.1398792"
       y2="15.617946" />
    <linearGradient
       inkscape:collect="always"
       xlink:href="#linearGradient3048"
       id="linearGradient3315"
       gradientUnits="userSpaceOnUse"
       x1="8.1398792"
       y1="0.048192434"
       x2="8.1398792"
       y2="15.617946" />
    <linearGradient
       inkscape:collect="always"
       xlink:href="#linearGradient3048"
       id="linearGradient3317"
       gradientUnits="userSpaceOnUse"
       x1="8.1398792"
       y1="0.048192434"
       x2="8.1398792"
       y2="15.617946" />
    <linearGradient
       inkscape:collect="always"
       xlink:href="#linearGradient3048"
       id="linearGradient3319"
       gradientUnits="userSpaceOnUse"
       x1="8.1398792"
       y1="0.048192434"
       x2="8.1398792"
       y2="15.617946" />
    <linearGradient
       inkscape:collect="always"
       xlink:href="#linearGradient3048"
       id="linearGradient3321"
       gradientUnits="userSpaceOnUse"
       x1="8.1398792"
       y1="0.048192434"
       x2="8.1398792"
       y2="15.617946" />
    <linearGradient
       inkscape:collect="always"
       xlink:href="#linearGradient3048"
       id="linearGradient3323"
       gradientUnits="userSpaceOnUse"
       x1="8.1398792"
       y1="0.048192434"
       x2="8.1398792"
       y2="19.25441" />
    <linearGradient
       inkscape:collect="always"
       xlink:href="#linearGradient3048-3"
       id="linearGradient3054-1"
       x1="49.267925"
       y1="996.57349"
       x2="49.267925"
       y2="1045.8627"
       gradientUnits="userSpaceOnUse" />
    <linearGradient
       inkscape:collect="always"
       id="linearGradient3048-3">
      <stop
         style="stop-color:#c16d16;stop-opacity:1"
         offset="0"
         id="stop3050-6" />
      <stop
         style="stop-color:#ff8e31;stop-opacity:1"
         offset="1"
         id="stop3052-2" />
    </linearGradient>
    <linearGradient
       inkscape:collect="always"
       xlink:href="#linearGradient3048-3"
       id="linearGradient4272"
       gradientUnits="userSpaceOnUse"
       x1="67.626091"
       y1="996.77557"
       x2="67.626091"
       y2="1038.9618"
       gradientTransform="translate(0,-0.25412)" />
    <linearGradient
       inkscape:collect="always"
       xlink:href="#linearGradient3048-3"
       id="linearGradient4323"
       gradientUnits="userSpaceOnUse"
       gradientTransform="translate(0,-956.6163)"
       x1="67.626091"
       y1="996.77557"
       x2="67.626091"
       y2="1038.9618" />
    <linearGradient
       inkscape:collect="always"
       xlink:href="#linearGradient3048-3"
       id="linearGradient4330"
       gradientUnits="userSpaceOnUse"
       gradientTransform="translate(0,3.74588)"
       x1="67.626091"
       y1="996.77557"
       x2="67.626091"
       y2="1038.9618" />
    <linearGradient
       inkscape:collect="always"
       xlink:href="#linearGradient3048-3"
       id="linearGradient4332"
       gradientUnits="userSpaceOnUse"
       gradientTransform="translate(0,3.74588)"
       x1="67.626091"
       y1="996.77557"
       x2="67.626091"
       y2="1038.9618" />
    <linearGradient
       inkscape:collect="always"
       xlink:href="#linearGradient3048-3"
       id="linearGradient4348"
       gradientUnits="userSpaceOnUse"
       gradientTransform="translate(0,3.74588)"
       x1="67.626091"
       y1="996.77557"
       x2="67.626091"
       y2="1038.9618" />
    <linearGradient
       inkscape:collect="always"
       xlink:href="#linearGradient3048-3"
       id="linearGradient4350"
       gradientUnits="userSpaceOnUse"
       gradientTransform="translate(0,3.74588)"
       x1="67.626091"
       y1="996.77557"
       x2="67.626091"
       y2="1038.9618" />
    <linearGradient
       inkscape:collect="always"
       xlink:href="#linearGradient3048-3"
       id="linearGradient4360"
       gradientUnits="userSpaceOnUse"
       gradientTransform="translate(0,-0.25412)"
       x1="67.626091"
       y1="996.77557"
       x2="67.626091"
       y2="1038.9618" />
    <linearGradient
       inkscape:collect="always"
       xlink:href="#linearGradient3048-3"
       id="linearGradient4362"
       gradientUnits="userSpaceOnUse"
       gradientTransform="translate(0,-0.25412)"
       x1="67.626091"
       y1="996.77557"
       x2="67.626091"
       y2="1038.9618" />
    <linearGradient
       inkscape:collect="always"
       xlink:href="#linearGradient3048-3"
       id="linearGradient4370"
       gradientUnits="userSpaceOnUse"
       gradientTransform="translate(0,-956.6163)"
       x1="67.626091"
       y1="996.77557"
       x2="67.626091"
       y2="1038.9618" />
    <linearGradient
       inkscape:collect="always"
       xlink:href="#linearGradient3048-3"
       id="linearGradient12691"
       gradientUnits="userSpaceOnUse"
       gradientTransform="translate(1.6562822,-3.9097)"
       x1="67.626091"
       y1="996.77557"
       x2="67.626091"
       y2="1038.9618" />
    <linearGradient
       inkscape:collect="always"
       xlink:href="#linearGradient3048-3"
       id="linearGradient12697"
       gradientUnits="userSpaceOnUse"
       gradientTransform="translate(0,-6.5666174)"
       x1="67.626091"
       y1="996.77557"
       x2="67.626091"
       y2="1038.9618" />
    <linearGradient
       inkscape:collect="always"
       xlink:href="#linearGradient3048-3"
       id="linearGradient12700"
       gradientUnits="userSpaceOnUse"
       gradientTransform="translate(0,-962.9288)"
       x1="67.626091"
       y1="996.77557"
       x2="67.626091"
       y2="1038.9618" />
    <linearGradient
       inkscape:collect="always"
       xlink:href="#linearGradient3048-3"
       id="linearGradient12707"
       gradientUnits="userSpaceOnUse"
       gradientTransform="translate(0,3.0583626)"
       x1="67.626091"
       y1="996.77557"
       x2="67.626091"
       y2="1038.9618" />
    <linearGradient
       inkscape:collect="always"
       xlink:href="#linearGradient3048-3"
       id="linearGradient12710"
       gradientUnits="userSpaceOnUse"
       gradientTransform="translate(0,3.0583626)"
       x1="67.626091"
       y1="996.77557"
       x2="67.626091"
       y2="1038.9618" />
    <linearGradient
       inkscape:collect="always"
       xlink:href="#linearGradient3048-3"
       id="linearGradient12715"
       gradientUnits="userSpaceOnUse"
       gradientTransform="translate(83.507981,-6.56662)"
       x1="50.207249"
       y1="1037.3768"
       x2="50.207249"
       y2="995.65118" />
    <linearGradient
       y2="962.21893"
       x2="17.67767"
       y1="1046.1118"
       x1="17.67767"
       gradientUnits="userSpaceOnUse"
       id="linearGradient3742"
       xlink:href="#linearGradient3061-4"
       inkscape:collect="always" />
    <linearGradient
       inkscape:collect="always"
       id="linearGradient3061-4">
      <stop
         style="stop-color:#ef9a42;stop-opacity:1"
         offset="0"
         id="stop3063-3" />
      <stop
         style="stop-color:#f5c262;stop-opacity:1"
         offset="1"
         id="stop3065-7" />
    </linearGradient>
    <linearGradient
       inkscape:collect="always"
       xlink:href="#linearGradient3994-0"
       id="linearGradient3702"
       gradientUnits="userSpaceOnUse"
       x1="29.673231"
       y1="1044.7706"
       x2="29.673231"
       y2="965.32623" />
    <linearGradient
       id="linearGradient3994-0"
       inkscape:collect="always">
      <stop
         id="stop3996-8"
         offset="0"
         style="stop-color:#ff8e31;stop-opacity:1" />
      <stop
         id="stop4004-9"
         offset="1"
         style="stop-color:#ffb642;stop-opacity:1" />
    </linearGradient>
    <linearGradient
       inkscape:collect="always"
       xlink:href="#linearGradient3048"
       id="linearGradient3160"
       gradientUnits="userSpaceOnUse"
       gradientTransform="matrix(1.2296704,0,0,1.2167419,-130.83999,-251.07676)"
       x1="150.46945"
       y1="1052.5518"
       x2="150.46945"
       y2="1021.2471" />
  </defs>
  <sodipodi:namedview
     id="base"
     pagecolor="#ffffff"
     bordercolor="#666666"
     borderopacity="1.0"
     inkscape:pageopacity="0.0"
     inkscape:pageshadow="2"
     inkscape:zoom="1.9519093"
     inkscape:cx="144.10977"
     inkscape:cy="39.695384"
     inkscape:document-units="px"
     inkscape:current-layer="layer1"
     showgrid="false"
     inkscape:window-width="1366"
     inkscape:window-height="716"
     inkscape:window-x="0"
     inkscape:window-y="27"
     inkscape:window-maximized="1"
     showguides="true"
     inkscape:guide-bbox="true" />
  <metadata
     id="metadata7">
    <rdf:RDF>
      <cc:Work
         rdf:about="">
        <dc:format>image/svg+xml</dc:format>
        <dc:type
           rdf:resource="http://purl.org/dc/dcmitype/StillImage" />
        <dc:title />
      </cc:Work>
    </rdf:RDF>
  </metadata>
  <g
     inkscape:label="Layer 1"
     inkscape:groupmode="layer"
     id="layer1"
     transform="translate(0,-956.36218)">
    <g
       style="fill:#f4bb5c;fill-opacity:1;display:inline"
       inkscape:label="status"
       id="g3430"
       transform="matrix(2.0026846,0,0,2.0026846,-969.53024,641.37671)" />
    <g
       inkscape:label="devices"
       id="g3432"
       transform="matrix(2.0026846,0,0,2.0026846,-969.53024,641.37671)"
       style="fill:#f4bb5c;fill-opacity:1" />
    <g
       inkscape:label="apps"
       id="g3434"
       transform="matrix(2.0026846,0,0,2.0026846,-969.53024,641.37671)"
       style="fill:#f4bb5c;fill-opacity:1" />
    <g
       inkscape:label="actions"
       id="g3436"
       transform="matrix(2.0026846,0,0,2.0026846,-969.53024,641.37671)"
       style="fill:#f4bb5c;fill-opacity:1" />
    <g
       style="fill:#f4bb5c;fill-opacity:1"
       transform="matrix(2.0026846,0,0,2.0026846,-340.68688,-1000.8247)"
       id="g3440"
       inkscape:label="folder-remote" />
    <g
       inkscape:label="mimetypes"
       id="g3454"
       transform="matrix(2.0026846,0,0,2.0026846,-969.53024,641.37671)"
       style="fill:#f4bb5c;fill-opacity:1" />
    <g
       style="fill:#f4bb5c;fill-opacity:1;display:inline"
       inkscape:label="emblems"
       id="g3456"
       transform="matrix(2.0026846,0,0,2.0026846,-969.53024,641.37671)" />
    <g
       style="fill:#f4bb5c;fill-opacity:1;display:inline"
       inkscape:label="categories"
       id="g3458"
       transform="matrix(2.0026846,0,0,2.0026846,-969.53024,641.37671)" />
    <path
       inkscape:connector-curvature="0"
       style="fill:#f4bb5c;fill-opacity:1"
       d="m 110.20711,990.04966 0,5.64144 5.64132,-5.64144 -5.64132,0 z"
       id="path4308" />
    <path
       inkscape:connector-curvature="0"
       style="fill:#f4bb5c;fill-opacity:1"
       d="m 147.16753,990.04966 5.64133,5.64144 0,-5.64144 -5.64133,0 z"
       id="path4306" />
    <path
       inkscape:connector-curvature="0"
       style="fill:#f4bb5c;fill-opacity:1"
       d="m 124.10176,1000.1441 a 1.4271138,1.4271138 0 0 0 -1.15625,1.4375 l 0,18.5625 a 1.4271138,1.4271138 0 0 0 1.40625,1.4375 l 14.28125,0 a 1.4271138,1.4271138 0 0 0 1.4375,-1.4375 l 0,-13.4688 a 1.4271138,1.4271138 0 0 0 -0.40625,-1.0312 l -5.09375,-5.0938 a 1.4271138,1.4271138 0 0 0 -1.03125,-0.4062 l -9.1875,0 a 1.4271138,1.4271138 0 0 0 -0.125,0 1.4271138,1.4271138 0 0 0 -0.125,0 z m 1.6875,2.8437 7.125,0 0,4.3125 4.28125,0 0,11.4063 -11.40625,0 0,-15.7188 z"
       id="path4304" />
    <path
       style="fill:#f4bb5c;fill-opacity:1"
       d="m 110.20711,1026.0334 0,5.6413 5.64132,0 -5.64132,-5.6413 z"
       id="path4300"
       inkscape:connector-curvature="0" />
    <path
       style="fill:#f4bb5c;fill-opacity:1"
       d="m 152.80886,1026.0334 -5.64132,5.6413 5.64132,0 0,-5.6413 z"
       id="path5003"
       inkscape:connector-curvature="0" />
    <path
       style="fill:url(#linearGradient12715);fill-opacity:1"
       d="m 110.19548,989.04968 0,5.65622 5.65625,-5.65622 -5.65625,0 z m 36.96875,0 5.65625,5.65622 0,-5.65622 -5.65625,0 z m -23.0625,10.09372 a 1.4271138,1.4271138 0 0 0 -1.15625,1.4375 l 0,18.5625 a 1.4271138,1.4271138 0 0 0 1.40625,1.4375 l 14.28125,0 a 1.4271138,1.4271138 0 0 0 1.4375,-1.4375 l 0,-13.4687 a 1.4271138,1.4271138 0 0 0 -0.40625,-1.0313 l -5.09375,-5.0937 a 1.4271138,1.4271138 0 0 0 -1.03125,-0.4063 l -9.1875,0 a 1.4271138,1.4271138 0 0 0 -0.125,0 1.4271138,1.4271138 0 0 0 -0.125,0 z m 1.6875,2.8438 7.125,0 0,4.3125 4.28125,0 0,11.4062 -11.40625,0 0,-15.7187 z m -15.59375,23.0312 0,5.6563 5.65625,0 -5.65625,-5.6563 z m 42.625,0 -5.65625,5.6563 5.65625,0 0,-5.6563 z"
       id="path4321"
       inkscape:connector-curvature="0" />
    <path
       inkscape:connector-curvature="0"
       style="fill:#b36a1b;fill-opacity:1"
       d="m 125.78926,1017.7066 0,1 11.40625,0 0,-1 -11.40625,0 z"
       id="path4290" />
    <path
       inkscape:connector-curvature="0"
       style="fill:#b36a1b;fill-opacity:1"
       d="m 124.10176,999.14412 a 1.4271138,1.4271138 0 0 0 -1.15625,1.43748 l 0,0.7187 a 1.4271138,1.4271138 0 0 1 1.15625,-1.1562 1.4271138,1.4271138 0 0 1 0.125,0 1.4271138,1.4271138 0 0 1 0.125,0 l 9.1875,0 a 1.4271138,1.4271138 0 0 1 1.03125,0.4062 l 5.09375,5.0938 a 1.4271138,1.4271138 0 0 1 0.40625,1.0312 l 0,-1 a 1.4271138,1.4271138 0 0 0 -0.40625,-1.0312 l -5.09375,-5.09378 a 1.4271138,1.4271138 0 0 0 -1.03125,-0.4062 l -9.1875,0 a 1.4271138,1.4271138 0 0 0 -0.125,0 1.4271138,1.4271138 0 0 0 -0.125,0 z"
       id="path4292" />
    <path
       inkscape:connector-curvature="0"
       style="fill:#b36a1b;fill-opacity:1"
       d="m 147.16423,989.04968 1,1 4.65625,0 0,-1 -5.65625,0 z"
       id="path4294" />
    <path
       inkscape:connector-curvature="0"
       style="fill:#b36a1b;fill-opacity:1"
       d="m 110.19548,989.04968 0,1 4.65625,0 1,-1 -5.65625,0 z"
       id="path4296" />
    <path
       style="fill:#b36a1b;fill-opacity:1"
       d="m 110.19548,1025.0184 0,1 4.65625,4.6563 1,0 -5.65625,-5.6563 z"
       id="path4288"
       inkscape:connector-curvature="0" />
    <path
       style="fill:#b36a1b;fill-opacity:1"
       d="m 152.82048,1025.0184 -5.65625,5.6563 1,0 4.65625,-4.6563 0,-1 z"
       id="path4274"
       inkscape:connector-curvature="0" />
    <g
       id="g3874">
      <rect
         ry="10.595235"
         rx="10.595235"
         y="960.86218"
         x="3.5"
         height="89"
         width="89"
         id="rect3826"
         style="opacity:0.05;fill:#000000;fill-opacity:1;stroke:none" />
      <g
         id="g3041">
        <rect
           ry="10.476188"
           rx="10.476188"
           y="961.36218"
           x="4"
           height="88"
           width="88"
           id="rect3824"
           style="opacity:0.05;fill:#000000;fill-opacity:1;stroke:none" />
        <rect
           style="opacity:0.05;fill:#000000;fill-opacity:1;stroke:none"
           id="rect3822"
           width="87"
           height="87"
           x="4.5"
           y="961.86218"
           rx="10.357141"
           ry="10.357141" />
        <rect
           ry="10.238094"
           rx="10.238094"
           y="962.36218"
           x="5"
           height="86"
           width="86"
           id="rect3820"
           style="opacity:0.1;fill:#000000;fill-opacity:1;stroke:none" />
        <rect
           style="opacity:0.1;fill:#000000;fill-opacity:1;stroke:none"
           id="rect3818"
           width="85"
           height="85"
           x="5.5"
           y="962.86218"
           rx="10.119047"
           ry="10.119047" />
        <rect
           ry="10"
           rx="10"
           y="963.36218"
           x="6"
           height="84"
           width="84"
           id="rect3131"
           style="opacity:0.3;fill:#000000;fill-opacity:1;stroke:none" />
      </g>
      <rect
         style="fill:#dca159;fill-opacity:1;stroke:none"
         id="rect3036"
         width="84"
         height="84"
         x="6"
         y="962.36218"
         rx="10"
         ry="10" />
      <rect
         ry="9.7619047"
         rx="9.7619047"
         y="963.36218"
         x="7"
         height="82"
         width="82"
         id="rect3034"
         style="fill:#d67918;fill-opacity:1;stroke:none" />
      <path
         id="rect3126-1"
         d="m 16.75,963.36218 c -5.408095,0 -9.75,4.3419 -9.75,9.75 l 0,1 c 0,-5.4081 4.341905,-9.75 9.75,-9.75 l 62.5,0 c 5.408095,0 9.75,4.3419 9.75,9.75 l 0,-1 c 0,-5.4081 -4.341905,-9.75 -9.75,-9.75 l -62.5,0 z"
         style="opacity:0.1;fill:#ffffff;fill-opacity:1;stroke:none"
         inkscape:connector-curvature="0" />
      <path
         sodipodi:nodetypes="scccssssccscccccs"
         inkscape:connector-curvature="0"
         id="path3828-4"
         d="m 16,962.36218 c -3.758224,0 -7.0097577,2.04397 -8.71875,5.09375 -0.00877,0.0208 -0.022613,0.0416 -0.03125,0.0625 -0.011347,0.0206 -0.020044,0.0418 -0.03125,0.0625 C 6.7468374,968.74451 6.5,970.02534 6.5,971.36218 l 0,64.00002 c 0,5.54 4.46,10 10,10 l 64,0 c 3.758224,0 7.009758,-2.044 8.71875,-5.0938 0.01755,-0.042 0.0455,-0.083 0.0625,-0.125 C 89.753163,1038.9799 90,1037.699 90,1036.3622 l 0,-58.89814 c 0,-0.96494 -1.03855,-2.19563 -2.377354,-2.19563 l -39.747646,0 -6.548508,-11.31604 c -0.662685,-1.14781 -2.034917,-1.57024 -3.452543,-1.59021 z"
         style="opacity:0.1;fill:#000000;fill-opacity:1;stroke:none" />
      <path
         sodipodi:nodetypes="scccssssccscccccs"
         inkscape:connector-curvature="0"
         style="opacity:0.1;fill:#000000;fill-opacity:1;stroke:none"
         d="m 15.75,962.86216 c -3.758224,0 -7.0097577,2.04397 -8.71875,5.09375 -0.00877,0.0208 -0.022613,0.0416 -0.03125,0.0625 -0.011347,0.0206 -0.020044,0.0418 -0.03125,0.0625 C 6.4968374,969.24449 6.25,970.52532 6.25,971.86216 l 0,64.00004 c 0,5.54 4.46,10 10,10 l 64,0 c 3.758224,0 7.009758,-2.044 8.71875,-5.0938 0.01755,-0.042 0.0455,-0.083 0.0625,-0.125 0.471913,-1.1635 0.71875,-2.4444 0.71875,-3.7812 l 0,-58.42455 c 0,-1.79197 -1.171338,-2.66924 -2.240562,-2.66924 l -39.884438,0 -6.368419,-11.00484 c -0.908856,-1.57419 -2.410265,-1.90141 -3.716957,-1.90141 z"
         id="path3837-1" />
      <path
         sodipodi:nodetypes="sscsssssscccccccs"
         inkscape:connector-curvature="0"
         id="rect2985-8"
         d="m 16,962.36218 c -5.54,0 -10,4.46 -10,10 l 0,11.71875 0,52.28127 c 0,5.54 4.46,10 10,10 l 64,0 c 5.54,0 10,-4.46 10,-10 l 0,-57.68752 c 0,-1.24897 -0.965552,-2.40625 -2.46875,-2.40625 l -39.25,0 c -0.861394,0.094 -1.116154,-0.35591 -1.34375,-0.75 l -0.1875,-0.34375 -1.96875,-3.40625 -3.506358,-6.0475 c -0.99194,-1.71809 -2.986415,-3.35875 -6.228912,-3.35875 l -0.82723,0 z"
         style="fill:url(#linearGradient3742);fill-opacity:1;stroke:none" />
      <path
         sodipodi:nodetypes="sscsssssssccccccs"
         inkscape:connector-curvature="0"
         id="rect3021-9"
         d="m 16.75,963.36218 c -5.408095,0 -9.75,4.3419 -9.75,9.75 l 0,10.96875 0,51.53127 c 0,5.4081 4.341905,9.75 9.75,9.75 l 62.5,0 c 5.408095,0 9.75,-4.3419 9.75,-9.75 l 0,-56.25002 c 0,-1.20195 -0.924024,-2.09375 -2.0625,-2.09375 l -38.90625,0 c -0.864689,0 -1.854193,-0.63531 -2.28125,-1.375 l -1,-1.71875 -4.1875,-7.25 -0.342904,-0.6183 c -1.49949,-2.55523 -3.790144,-2.94415 -6.121482,-2.94415 l -0.941864,0 z"
         style="fill:url(#linearGradient3702);fill-opacity:1;stroke:none" />
      <path
         id="path3192-1"
         d="m 7,1034.6122 0,1 c 0,5.4081 4.341905,9.75 9.75,9.75 l 62.5,0 c 5.408095,0 9.75,-4.3419 9.75,-9.75 l 0,-1 c 0,5.4081 -4.341905,9.75 -9.75,9.75 l -62.5,0 c -5.408095,0 -9.75,-4.3419 -9.75,-9.75 z"
         style="opacity:0.1;fill:#000000;fill-opacity:1;stroke:none"
         inkscape:connector-curvature="0" />
    </g>
    <path
       sodipodi:nodetypes="ccccccccccccccccccccccccccccccccccccccccccccccccc"
       inkscape:connector-curvature="0"
       id="path3347"
       d="m 34.428277,992.42457 c -1.210788,0.21665 -2.174922,1.3764 -2.15625,2.59375 l 0,10.40638 4.09375,0 0,-8.78138 14.4375,0 0,8.75008 7.71875,0 0,0.031 1.09375,0 0,21.8125 -2.3125,0 0,4.125 3.8125,0 c 1.39441,0.017 2.672056,-1.2452 2.65625,-2.625 l 0,-24.4688 c 0.01538,-0.6902 -0.261431,-1.3822 -0.75,-1.875 l -9.34375,-9.25008 c -0.497204,-0.47033 -1.187333,-0.73488 -1.875,-0.71875 l -16.875,0 c -0.09366,-0.005 -0.18759,-0.005 -0.28125,0 -0.07287,-0.003 -0.145876,-0.003 -0.21875,0 z m -2.15625,17.15633 0,4.2188 4.09375,0 0,-4.2188 z m 0,8.8438 0,4.1562 4.09375,0 0,-4.1562 z m 0,8.7815 -0.04483,4.156 4.201082,0 0,-4.1558 -4.15625,10e-5 z m 8.3125,0.031 0,4.125 4.15625,0 0,-4.125 z m 8.34375,0 0,4.125 4.1875,0 0,-4.125 z"
       style="font-size:medium;font-style:normal;font-variant:normal;font-weight:normal;font-stretch:normal;text-indent:0;text-align:start;text-decoration:none;line-height:normal;letter-spacing:normal;word-spacing:normal;text-transform:none;direction:ltr;block-progression:tb;writing-mode:lr-tb;text-anchor:start;baseline-shift:baseline;opacity:0.2;color:#000000;fill:#ffffff;fill-opacity:1;stroke:none;stroke-width:1.99999988000000006;marker:none;visibility:visible;display:inline;overflow:visible;enable-background:accumulate;font-family:Sans;-inkscape-font-specification:Sans" />
    <path
       style="font-size:medium;font-style:normal;font-variant:normal;font-weight:normal;font-stretch:normal;text-indent:0;text-align:start;text-decoration:none;line-height:normal;letter-spacing:normal;word-spacing:normal;text-transform:none;direction:ltr;block-progression:tb;writing-mode:lr-tb;text-anchor:start;baseline-shift:baseline;color:#000000;fill:url(#linearGradient3160);fill-opacity:1;stroke:none;stroke-width:1.99999988;marker:none;visibility:visible;display:inline;overflow:visible;enable-background:accumulate;font-family:Sans;-inkscape-font-specification:Sans"
       d="m 34.428277,991.42439 c -1.210788,0.21665 -2.174922,1.3764 -2.15625,2.59375 l 0,10.40636 4.09375,0 0,-8.78136 14.4375,0 0,8.75006 7.71875,0 0,0.031 1.09375,0 0,21.8125 -2.3125,0 0,4.125 3.8125,0 c 1.39441,0.017 2.672056,-1.2452 2.65625,-2.625 l 0,-24.4688 c 0.01538,-0.6902 -0.261431,-1.3822 -0.75,-1.875 l -9.34375,-9.25006 c -0.497204,-0.47033 -1.187333,-0.73488 -1.875,-0.71875 l -16.875,0 c -0.09366,-0.005 -0.18759,-0.005 -0.28125,0 -0.07287,-0.003 -0.145876,-0.003 -0.21875,0 z m -2.15625,17.15631 0,4.2188 4.09375,0 0,-4.2188 z m 0,8.8438 0,4.1562 4.09375,0 0,-4.1562 z m 0,8.7815 -0.04483,4.156 4.201082,0 0,-4.1558 -4.15625,10e-5 z m 8.3125,0.031 0,4.125 4.15625,0 0,-4.125 z m 8.34375,0 0,4.125 4.1875,0 0,-4.125 z"
       id="path5003-8"
       inkscape:connector-curvature="0"
       sodipodi:nodetypes="ccccccccccccccccccccccccccccccccccccccccccccccccc" />
    <path
       inkscape:connector-curvature="0"
       style="font-size:medium;font-style:normal;font-variant:normal;font-weight:normal;font-stretch:normal;text-indent:0;text-align:start;text-decoration:none;line-height:normal;letter-spacing:normal;word-spacing:normal;text-transform:none;direction:ltr;block-progression:tb;writing-mode:lr-tb;text-anchor:start;baseline-shift:baseline;color:#000000;fill:#000000;fill-opacity:1;stroke:none;stroke-width:1.99999988000000006;marker:none;visibility:visible;display:inline;overflow:visible;enable-background:accumulate;font-family:Sans;-inkscape-font-specification:Sans;opacity:0.2"
       d="m 34.428445,991.42468 c -1.210788,0.21665 -2.174922,1.3764 -2.15625,2.59375 l 0,1 c -0.01867,-1.21735 0.945462,-2.3771 2.15625,-2.59375 0.07287,-0.003 0.14588,-0.003 0.21875,0 0.09366,-0.005 0.18759,-0.005 0.28125,0 l 16.875,0 c 0.687667,-0.0161 1.377796,0.24842 1.875,0.71875 l 9.34375,9.24997 c 0.488569,0.4928 0.76538,1.1848 0.75,1.875 l 0,-1 c 0.01538,-0.6902 -0.261431,-1.3822 -0.75,-1.875 l -9.34375,-9.24997 c -0.497204,-0.47033 -1.187333,-0.73488 -1.875,-0.71875 l -16.875,0 c -0.09366,-0.005 -0.18759,-0.005 -0.28125,0 -0.07287,-0.003 -0.145876,-0.003 -0.21875,0 z m -2.15625,17.15622 0,1 4.09375,0 0,-1 -4.09375,0 z m 0,8.8438 0,1 4.09375,0 0,-1 -4.09375,0 z m 0,8.7812 0,1 4.15625,0 0,-1 -4.15625,0 z m 8.3125,0.031 0,1 4.15625,0 0,-1 -4.15625,0 z m 8.34375,0 0,1 4.1875,0 0,-1 -4.1875,0 z m 8.375,0 0,1 2.3125,0 0,-1 -2.3125,0 z"
       id="path4119" />
  </g>
</svg>
