<?xml version="1.0" encoding="UTF-8" standalone="no"?>
<!-- Created with Inkscape (http://www.inkscape.org/) -->

<svg
   xmlns:dc="http://purl.org/dc/elements/1.1/"
   xmlns:cc="http://creativecommons.org/ns#"
   xmlns:rdf="http://www.w3.org/1999/02/22-rdf-syntax-ns#"
   xmlns:svg="http://www.w3.org/2000/svg"
   xmlns="http://www.w3.org/2000/svg"
   xmlns:xlink="http://www.w3.org/1999/xlink"
   xmlns:sodipodi="http://sodipodi.sourceforge.net/DTD/sodipodi-0.dtd"
   xmlns:inkscape="http://www.inkscape.org/namespaces/inkscape"
   width="96"
   height="96"
   id="svg2"
   version="1.1"
   inkscape:version="0.48.4 r9939"
   sodipodi:docname="folder-pictures.svg">
  <defs
     id="defs4">
    <linearGradient
       id="linearGradient3070"
       inkscape:collect="always">
      <stop
         id="stop3072"
         offset="0"
         style="stop-color:#c16d16;stop-opacity:1" />
      <stop
         id="stop3074"
         offset="1"
         style="stop-color:#e37f25;stop-opacity:1" />
    </linearGradient>
    <linearGradient
       inkscape:collect="always"
       id="linearGradient3048">
      <stop
         style="stop-color:#c16d16;stop-opacity:1"
         offset="0"
         id="stop3050" />
      <stop
         style="stop-color:#ff8e31;stop-opacity:1"
         offset="1"
         id="stop3052" />
    </linearGradient>
    <linearGradient
       id="linearGradient3994"
       inkscape:collect="always">
      <stop
         id="stop3996"
         offset="0"
         style="stop-color:#ff8e31;stop-opacity:1" />
      <stop
         id="stop4004"
         offset="1"
         style="stop-color:#ffb642;stop-opacity:1" />
    </linearGradient>
    <linearGradient
       inkscape:collect="always"
       id="linearGradient3119">
      <stop
         style="stop-color:#92948f;stop-opacity:0"
         offset="0"
         id="stop3121" />
      <stop
         id="stop3123"
         offset="0.4283945"
         style="stop-color:#9b9e98;stop-opacity:1" />
      <stop
         style="stop-color:#939690;stop-opacity:0"
         offset="1"
         id="stop3125" />
    </linearGradient>
    <linearGradient
       id="linearGradient3073"
       inkscape:collect="always">
      <stop
         id="stop3075"
         offset="0"
         style="stop-color:#ffffff;stop-opacity:0" />
      <stop
         style="stop-color:#ffffff;stop-opacity:1"
         offset="0.45872402"
         id="stop3085" />
      <stop
         id="stop3083"
         offset="1"
         style="stop-color:#ffffff;stop-opacity:0" />
    </linearGradient>
    <linearGradient
       inkscape:collect="always"
       id="linearGradient3061">
      <stop
         style="stop-color:#ef9a42;stop-opacity:1"
         offset="0"
         id="stop3063" />
      <stop
         style="stop-color:#f5c262;stop-opacity:1"
         offset="1"
         id="stop3065" />
    </linearGradient>
    <linearGradient
       inkscape:collect="always"
       id="linearGradient3047">
      <stop
         style="stop-color:#000000;stop-opacity:1"
         offset="0"
         id="stop3049" />
      <stop
         id="stop3055"
         offset="0.06123874"
         style="stop-color:#1a1a1a;stop-opacity:1" />
      <stop
         style="stop-color:#333333;stop-opacity:1"
         offset="0.16480456"
         id="stop3057" />
      <stop
         id="stop3059"
         offset="0.55385184"
         style="stop-color:#4d4d4d;stop-opacity:1" />
      <stop
         style="stop-color:#999999;stop-opacity:1"
         offset="1"
         id="stop3051" />
    </linearGradient>
    <linearGradient
       id="linearGradient3041"
       inkscape:collect="always">
      <stop
         id="stop3043"
         offset="0"
         style="stop-color:#1a1a1a;stop-opacity:1" />
      <stop
         id="stop3045"
         offset="1"
         style="stop-color:#808080;stop-opacity:1" />
    </linearGradient>
    <linearGradient
       inkscape:collect="always"
       id="linearGradient3029">
      <stop
         style="stop-color:#333333;stop-opacity:1"
         offset="0"
         id="stop3031" />
      <stop
         style="stop-color:#e0e0dd;stop-opacity:0;"
         offset="1"
         id="stop3033" />
    </linearGradient>
    <linearGradient
       inkscape:collect="always"
       xlink:href="#linearGradient3029"
       id="linearGradient3035"
       x1="35.355339"
       y1="1030.3622"
       x2="35.355339"
       y2="975.33282"
       gradientUnits="userSpaceOnUse"
       gradientTransform="matrix(1.1638085,0,0,1.1638085,-7.862809,-164.23642)" />
    <linearGradient
       inkscape:collect="always"
       xlink:href="#linearGradient3041"
       id="linearGradient3039"
       gradientUnits="userSpaceOnUse"
       x1="35.355339"
       y1="1030.3622"
       x2="35.355339"
       y2="975.33282"
       gradientTransform="matrix(1.1218695,0,0,1.1218695,-5.8497348,-122.18782)" />
    <linearGradient
       inkscape:collect="always"
       xlink:href="#linearGradient3047"
       id="linearGradient3053"
       x1="40"
       y1="1043.4336"
       x2="39.285713"
       y2="972.33325"
       gradientUnits="userSpaceOnUse" />
    <linearGradient
       inkscape:collect="always"
       xlink:href="#linearGradient3061"
       id="linearGradient3067"
       x1="17.67767"
       y1="1046.1118"
       x2="17.67767"
       y2="962.21893"
       gradientUnits="userSpaceOnUse"
       gradientTransform="translate(0,-956.36218)" />
    <linearGradient
       inkscape:collect="always"
       xlink:href="#linearGradient3073"
       id="linearGradient3113"
       gradientUnits="userSpaceOnUse"
       gradientTransform="translate(0,-956.36218)"
       x1="14.869445"
       y1="978.90387"
       x2="24.52651"
       y2="969.24683" />
    <linearGradient
       inkscape:collect="always"
       xlink:href="#linearGradient3073"
       id="linearGradient3115"
       gradientUnits="userSpaceOnUse"
       gradientTransform="matrix(-1,0,0,1,96,-956.36218)"
       x1="15.152279"
       y1="978.62103"
       x2="26.263966"
       y2="967.50934" />
    <linearGradient
       inkscape:collect="always"
       xlink:href="#linearGradient3119"
       id="linearGradient3117"
       gradientUnits="userSpaceOnUse"
       gradientTransform="translate(0,-956.36218)"
       x1="13.131983"
       y1="980.64136"
       x2="25.549681"
       y2="967.86646" />
    <linearGradient
       inkscape:collect="always"
       xlink:href="#linearGradient3119"
       id="linearGradient3129"
       gradientUnits="userSpaceOnUse"
       gradientTransform="matrix(-1,0,0,1,96,0)"
       x1="13.131983"
       y1="980.64136"
       x2="25.549681"
       y2="967.86646" />
    <linearGradient
       inkscape:collect="always"
       xlink:href="#linearGradient3994"
       id="linearGradient3992"
       gradientUnits="userSpaceOnUse"
       x1="29.673231"
       y1="1042.892"
       x2="29.673231"
       y2="965.32623"
       gradientTransform="translate(0,-956.36218)" />
    <linearGradient
       inkscape:collect="always"
       xlink:href="#linearGradient3048"
       id="linearGradient3054"
       x1="49.267925"
       y1="996.57349"
       x2="49.267925"
       y2="1045.8627"
       gradientUnits="userSpaceOnUse" />
    <linearGradient
       inkscape:collect="always"
       xlink:href="#linearGradient3048"
       id="linearGradient3066"
       x1="12.97699"
       y1="11.951226"
       x2="13.28624"
       y2="5.8899279"
       gradientUnits="userSpaceOnUse" />
    <linearGradient
       inkscape:collect="always"
       xlink:href="#linearGradient3070"
       id="linearGradient3068"
       gradientUnits="userSpaceOnUse"
       x1="528.12317"
       y1="197.12425"
       x2="528.12317"
       y2="208.87758" />
    <linearGradient
       inkscape:collect="always"
       xlink:href="#linearGradient3048"
       id="linearGradient3100"
       gradientUnits="userSpaceOnUse"
       x1="12.97699"
       y1="11.951226"
       x2="13.28624"
       y2="5.8899279" />
    <linearGradient
       inkscape:collect="always"
       xlink:href="#linearGradient3048"
       id="linearGradient3102"
       gradientUnits="userSpaceOnUse"
       x1="12.97699"
       y1="11.951226"
       x2="13.28624"
       y2="5.8899279" />
    <linearGradient
       inkscape:collect="always"
       xlink:href="#linearGradient3048"
       id="linearGradient3104"
       gradientUnits="userSpaceOnUse"
       x1="12.97699"
       y1="11.951226"
       x2="13.28624"
       y2="5.8899279" />
    <linearGradient
       inkscape:collect="always"
       xlink:href="#linearGradient3048"
       id="linearGradient3106"
       gradientUnits="userSpaceOnUse"
       x1="12.97699"
       y1="11.951226"
       x2="13.28624"
       y2="5.8899279" />
    <linearGradient
       inkscape:collect="always"
       xlink:href="#linearGradient3048"
       id="linearGradient3108"
       gradientUnits="userSpaceOnUse"
       x1="12.97699"
       y1="11.951226"
       x2="13.28624"
       y2="5.8899279" />
    <linearGradient
       inkscape:collect="always"
       xlink:href="#linearGradient3048"
       id="linearGradient3110"
       gradientUnits="userSpaceOnUse"
       x1="12.97699"
       y1="11.951226"
       x2="13.28624"
       y2="5.8899279" />
    <linearGradient
       inkscape:collect="always"
       xlink:href="#linearGradient3048"
       id="linearGradient3112"
       gradientUnits="userSpaceOnUse"
       x1="12.97699"
       y1="11.951226"
       x2="13.28624"
       y2="5.8899279" />
    <linearGradient
       inkscape:collect="always"
       xlink:href="#linearGradient3048"
       id="linearGradient3114"
       gradientUnits="userSpaceOnUse"
       x1="12.97699"
       y1="11.951226"
       x2="13.28624"
       y2="5.8899279" />
    <linearGradient
       inkscape:collect="always"
       xlink:href="#linearGradient3048"
       id="linearGradient3116"
       gradientUnits="userSpaceOnUse"
       x1="12.97699"
       y1="11.951226"
       x2="13.28624"
       y2="5.8899279" />
    <linearGradient
       inkscape:collect="always"
       xlink:href="#linearGradient3070"
       id="linearGradient3131"
       gradientUnits="userSpaceOnUse"
       x1="528.12317"
       y1="197.12425"
       x2="528.12317"
       y2="208.87758" />
    <linearGradient
       inkscape:collect="always"
       xlink:href="#linearGradient3048"
       id="linearGradient3133"
       gradientUnits="userSpaceOnUse"
       x1="12.97699"
       y1="11.951226"
       x2="13.28624"
       y2="5.8899279" />
    <linearGradient
       inkscape:collect="always"
       xlink:href="#linearGradient3070"
       id="linearGradient3138"
       gradientUnits="userSpaceOnUse"
       x1="528.12317"
       y1="197.12425"
       x2="528.12317"
       y2="208.87758"
       gradientTransform="matrix(2.9285714,0,0,2.9285714,-1581.1784,410.42659)" />
    <linearGradient
       inkscape:collect="always"
       xlink:href="#linearGradient3070"
       id="linearGradient3150"
       gradientUnits="userSpaceOnUse"
       gradientTransform="matrix(2.9285714,0,0,2.9285714,-1581.1784,410.42659)"
       x1="528.12317"
       y1="197.12425"
       x2="528.12317"
       y2="208.87758" />
    <linearGradient
       inkscape:collect="always"
       xlink:href="#linearGradient3070"
       id="linearGradient3154"
       gradientUnits="userSpaceOnUse"
       gradientTransform="matrix(2.9285714,0,0,2.9285714,-1581.1784,410.42659)"
       x1="528.12317"
       y1="197.12425"
       x2="528.12317"
       y2="208.87758" />
    <linearGradient
       inkscape:collect="always"
       xlink:href="#linearGradient3070"
       id="linearGradient8154"
       gradientUnits="userSpaceOnUse"
       gradientTransform="matrix(2.6925088,0,0,2.6821551,-1294.8886,463.92669)"
       x1="531.68933"
       y1="208.87758"
       x2="531.68933"
       y2="197.26123" />
    <linearGradient
       inkscape:collect="always"
       xlink:href="#linearGradient3048"
       id="linearGradient11483"
       gradientUnits="userSpaceOnUse"
       x1="49.31522"
       y1="1026.8004"
       x2="49.31522"
       y2="991.08997" />
    <linearGradient
       y2="962.21893"
       x2="17.67767"
       y1="1046.1118"
       x1="17.67767"
       gradientUnits="userSpaceOnUse"
       id="linearGradient3742"
       xlink:href="#linearGradient3061-0"
       inkscape:collect="always" />
    <linearGradient
       inkscape:collect="always"
       id="linearGradient3061-0">
      <stop
         style="stop-color:#ef9a42;stop-opacity:1"
         offset="0"
         id="stop3063-6" />
      <stop
         style="stop-color:#f5c262;stop-opacity:1"
         offset="1"
         id="stop3065-2" />
    </linearGradient>
    <linearGradient
       inkscape:collect="always"
       xlink:href="#linearGradient3994-4"
       id="linearGradient3702"
       gradientUnits="userSpaceOnUse"
       x1="29.673231"
       y1="1044.7706"
       x2="29.673231"
       y2="965.32623" />
    <linearGradient
       id="linearGradient3994-4"
       inkscape:collect="always">
      <stop
         id="stop3996-0"
         offset="0"
         style="stop-color:#ff8e31;stop-opacity:1" />
      <stop
         id="stop4004-0"
         offset="1"
         style="stop-color:#ffb642;stop-opacity:1" />
    </linearGradient>
  </defs>
  <sodipodi:namedview
     id="base"
     pagecolor="#ffffff"
     bordercolor="#666666"
     borderopacity="1.0"
     inkscape:pageopacity="0.0"
     inkscape:pageshadow="2"
     inkscape:zoom="1.9519093"
     inkscape:cx="157.86355"
     inkscape:cy="-9.7108832"
     inkscape:document-units="px"
     inkscape:current-layer="layer1"
     showgrid="false"
     inkscape:window-width="1366"
     inkscape:window-height="716"
     inkscape:window-x="0"
     inkscape:window-y="27"
     inkscape:window-maximized="1"
     showguides="true"
     inkscape:guide-bbox="true" />
  <metadata
     id="metadata7">
    <rdf:RDF>
      <cc:Work
         rdf:about="">
        <dc:format>image/svg+xml</dc:format>
        <dc:type
           rdf:resource="http://purl.org/dc/dcmitype/StillImage" />
        <dc:title />
      </cc:Work>
    </rdf:RDF>
  </metadata>
  <g
     inkscape:label="Layer 1"
     inkscape:groupmode="layer"
     id="layer1"
     transform="translate(0,-956.36218)">
    <g
       id="layer9"
       inkscape:label="status"
       style="fill:url(#linearGradient3100);fill-opacity:1;display:inline"
       transform="matrix(2.9285714,0,0,2.9285714,-1581.1784,410.42659)" />
    <g
       style="fill:url(#linearGradient3102);fill-opacity:1"
       id="layer10"
       inkscape:label="devices"
       transform="matrix(2.9285714,0,0,2.9285714,-1581.1784,410.42659)" />
    <g
       style="fill:url(#linearGradient3104);fill-opacity:1"
       id="layer11"
       inkscape:label="apps"
       transform="matrix(2.9285714,0,0,2.9285714,-1581.1784,410.42659)" />
    <g
       style="fill:url(#linearGradient3108);fill-opacity:1"
       id="layer14"
       inkscape:label="mimetypes"
       transform="matrix(2.9285714,0,0,2.9285714,-1581.1784,410.42659)" />
    <g
       id="layer15"
       inkscape:label="emblems"
       style="fill:url(#linearGradient3110);fill-opacity:1;display:inline"
       transform="matrix(2.9285714,0,0,2.9285714,-1581.1784,410.42659)" />
    <g
       id="g71291"
       inkscape:label="emotes"
       style="fill:url(#linearGradient3112);fill-opacity:1;display:inline"
       transform="matrix(2.9285714,0,0,2.9285714,-1581.1784,410.42659)" />
    <g
       id="g4953"
       inkscape:label="categories"
       style="fill:url(#linearGradient3114);fill-opacity:1;display:inline"
       transform="matrix(2.9285714,0,0,2.9285714,-1581.1784,410.42659)" />
    <g
       id="layer12"
       inkscape:label="actions"
       style="fill:url(#linearGradient3116);fill-opacity:1;display:inline"
       transform="matrix(2.9285714,0,0,2.9285714,-1581.1784,410.42659)" />
    <g
       id="g3874">
      <rect
         ry="10.595235"
         rx="10.595235"
         y="960.86218"
         x="3.5"
         height="89"
         width="89"
         id="rect3826"
         style="opacity:0.05;fill:#000000;fill-opacity:1;stroke:none" />
      <g
         id="g3041">
        <rect
           ry="10.476188"
           rx="10.476188"
           y="961.36218"
           x="4"
           height="88"
           width="88"
           id="rect3824"
           style="opacity:0.05;fill:#000000;fill-opacity:1;stroke:none" />
        <rect
           style="opacity:0.05;fill:#000000;fill-opacity:1;stroke:none"
           id="rect3822"
           width="87"
           height="87"
           x="4.5"
           y="961.86218"
           rx="10.357141"
           ry="10.357141" />
        <rect
           ry="10.238094"
           rx="10.238094"
           y="962.36218"
           x="5"
           height="86"
           width="86"
           id="rect3820"
           style="opacity:0.1;fill:#000000;fill-opacity:1;stroke:none" />
        <rect
           style="opacity:0.1;fill:#000000;fill-opacity:1;stroke:none"
           id="rect3818"
           width="85"
           height="85"
           x="5.5"
           y="962.86218"
           rx="10.119047"
           ry="10.119047" />
        <rect
           ry="10"
           rx="10"
           y="963.36218"
           x="6"
           height="84"
           width="84"
           id="rect3131"
           style="opacity:0.3;fill:#000000;fill-opacity:1;stroke:none" />
      </g>
      <rect
         style="fill:#dca159;fill-opacity:1;stroke:none"
         id="rect3036"
         width="84"
         height="84"
         x="6"
         y="962.36218"
         rx="10"
         ry="10" />
      <rect
         ry="9.7619047"
         rx="9.7619047"
         y="963.36218"
         x="7"
         height="82"
         width="82"
         id="rect3034"
         style="fill:#d67918;fill-opacity:1;stroke:none" />
      <path
         id="rect3126-1"
         d="m 16.75,963.36218 c -5.408095,0 -9.75,4.3419 -9.75,9.75 l 0,1 c 0,-5.4081 4.341905,-9.75 9.75,-9.75 l 62.5,0 c 5.408095,0 9.75,4.3419 9.75,9.75 l 0,-1 c 0,-5.4081 -4.341905,-9.75 -9.75,-9.75 l -62.5,0 z"
         style="opacity:0.1;fill:#ffffff;fill-opacity:1;stroke:none"
         inkscape:connector-curvature="0" />
      <path
         sodipodi:nodetypes="scccssssccscccccs"
         inkscape:connector-curvature="0"
         id="path3828-4"
         d="m 16,962.36218 c -3.758224,0 -7.0097577,2.04397 -8.71875,5.09375 -0.00877,0.0208 -0.022613,0.0416 -0.03125,0.0625 -0.011347,0.0206 -0.020044,0.0418 -0.03125,0.0625 C 6.7468374,968.74451 6.5,970.02534 6.5,971.36218 l 0,64.00002 c 0,5.54 4.46,10 10,10 l 64,0 c 3.758224,0 7.009758,-2.044 8.71875,-5.0938 0.01755,-0.042 0.0455,-0.083 0.0625,-0.125 C 89.753163,1038.9799 90,1037.699 90,1036.3622 l 0,-58.89814 c 0,-0.96494 -1.03855,-2.19563 -2.377354,-2.19563 l -39.747646,0 -6.548508,-11.31604 c -0.662685,-1.14781 -2.034917,-1.57024 -3.452543,-1.59021 z"
         style="opacity:0.1;fill:#000000;fill-opacity:1;stroke:none" />
      <path
         sodipodi:nodetypes="scccssssccscccccs"
         inkscape:connector-curvature="0"
         style="opacity:0.1;fill:#000000;fill-opacity:1;stroke:none"
         d="m 15.75,962.86216 c -3.758224,0 -7.0097577,2.04397 -8.71875,5.09375 -0.00877,0.0208 -0.022613,0.0416 -0.03125,0.0625 -0.011347,0.0206 -0.020044,0.0418 -0.03125,0.0625 C 6.4968374,969.24449 6.25,970.52532 6.25,971.86216 l 0,64.00004 c 0,5.54 4.46,10 10,10 l 64,0 c 3.758224,0 7.009758,-2.044 8.71875,-5.0938 0.01755,-0.042 0.0455,-0.083 0.0625,-0.125 0.471913,-1.1635 0.71875,-2.4444 0.71875,-3.7812 l 0,-58.42455 c 0,-1.79197 -1.171338,-2.66924 -2.240562,-2.66924 l -39.884438,0 -6.368419,-11.00484 c -0.908856,-1.57419 -2.410265,-1.90141 -3.716957,-1.90141 z"
         id="path3837-1" />
      <path
         sodipodi:nodetypes="sscsssssscccccccs"
         inkscape:connector-curvature="0"
         id="rect2985-8"
         d="m 16,962.36218 c -5.54,0 -10,4.46 -10,10 l 0,11.71875 0,52.28127 c 0,5.54 4.46,10 10,10 l 64,0 c 5.54,0 10,-4.46 10,-10 l 0,-57.68752 c 0,-1.24897 -0.965552,-2.40625 -2.46875,-2.40625 l -39.25,0 c -0.861394,0.094 -1.116154,-0.35591 -1.34375,-0.75 l -0.1875,-0.34375 -1.96875,-3.40625 -3.506358,-6.0475 c -0.99194,-1.71809 -2.986415,-3.35875 -6.228912,-3.35875 l -0.82723,0 z"
         style="fill:url(#linearGradient3742);fill-opacity:1;stroke:none" />
      <path
         sodipodi:nodetypes="sscsssssssccccccs"
         inkscape:connector-curvature="0"
         id="rect3021-9"
         d="m 16.75,963.36218 c -5.408095,0 -9.75,4.3419 -9.75,9.75 l 0,10.96875 0,51.53127 c 0,5.4081 4.341905,9.75 9.75,9.75 l 62.5,0 c 5.408095,0 9.75,-4.3419 9.75,-9.75 l 0,-56.25002 c 0,-1.20195 -0.924024,-2.09375 -2.0625,-2.09375 l -38.90625,0 c -0.864689,0 -1.854193,-0.63531 -2.28125,-1.375 l -1,-1.71875 -4.1875,-7.25 -0.342904,-0.6183 c -1.49949,-2.55523 -3.790144,-2.94415 -6.121482,-2.94415 l -0.941864,0 z"
         style="fill:url(#linearGradient3702);fill-opacity:1;stroke:none" />
      <path
         id="path3192-1"
         d="m 7,1034.6122 0,1 c 0,5.4081 4.341905,9.75 9.75,9.75 l 62.5,0 c 5.408095,0 9.75,-4.3419 9.75,-9.75 l 0,-1 c 0,5.4081 -4.341905,9.75 -9.75,9.75 l -62.5,0 c -5.408095,0 -9.75,-4.3419 -9.75,-9.75 z"
         style="opacity:0.1;fill:#000000;fill-opacity:1;stroke:none"
         inkscape:connector-curvature="0" />
    </g>
    <path
       inkscape:connector-curvature="0"
       id="path3233"
       d="m 42.578125,992.23719 c -3.56891,0 -6.5936,1.78045 -7.5625,4.21875 l -4.15625,0 c -3.888,0 -7,3.14322 -7,7.03126 l 0,17.8438 c 0,3.888 3.112,7.0312 7,7.0312 l 3.28125,0 c 1.02724,0 1.84375,-0.8477 1.84375,-1.875 0,-1.0272 -0.81651,-1.8437 -1.84375,-1.8437 l -2.09375,0 c -2.44845,0 -4.4375,-1.9578 -4.4375,-4.4063 l 0,-15.625 c 0,-4.4459 1.98905,-4.4375 4.4375,-4.4375 l 2.09375,0 1.0625,0 2.6875,0 c 0.16236,-2.33651 2.08959,-4.18751 4.46875,-4.18751 l 11.25,0 c 2.37916,0 4.30639,1.851 4.46875,4.18751 l 3.75,0 2.1875,0 c 2.44845,0 4.40625,1.9891 4.40625,4.4375 l 0,15.625 c 0,2.4485 -1.9578,4.4063 -4.40625,4.4063 l -1.78125,0 -0.40625,0 0,0.031 c -0.83302,0.1845 -1.4375,0.924 -1.4375,1.8125 0,0.8886 0.60448,1.6593 1.4375,1.8438 l 0,0.031 0.40625,0 2.875,0 c 3.888,0 7.03125,-3.1432 7.03125,-7.0312 l 0,-17.8438 c 0,-3.88804 -3.14325,-7.03126 -7.03125,-7.03126 l -4.15625,0 c -0.96133,-2.4383 -3.96234,-4.21875 -7.53125,-4.21875 l -10.84375,0 z m 5.4375,8.06251 c -7.66056,0 -13.875,6.2145 -13.875,13.875 0,7.6606 6.21444,13.875 13.875,13.875 7.66056,0 13.84375,-6.2144 13.84375,-13.875 0,-7.6605 -6.18319,-13.875 -13.84375,-13.875 z m 0,3.625 c 5.65853,0 10.21875,4.5915 10.21875,10.25 0,5.6586 -4.56022,10.25 -10.21875,10.25 -5.65853,0 -10.25,-4.5914 -10.25,-10.25 0,-5.6585 4.59147,-10.25 10.25,-10.25 z m 0,2.25 c -4.41589,0 -8,3.5841 -8,8 0,4.4159 3.58411,8 8,8 4.41589,0 7.96875,-3.5841 7.96875,-8 0,-4.4159 -3.55286,-8 -7.96875,-8 z m 0,3.75 c 2.34482,0 4.21875,1.9052 4.21875,4.25 0,2.3448 -1.87393,4.25 -4.21875,4.25 -2.34482,0 -4.25,-1.9052 -4.25,-4.25 0,-2.3448 1.90518,-4.25 4.25,-4.25 z"
       style="opacity:0.2;fill:#ffffff;fill-opacity:1;stroke:none" />
    <path
       style="fill:url(#linearGradient11483);fill-opacity:1;stroke:none"
       d="m 42.578125,991.23721 c -3.56891,0 -6.5936,1.78045 -7.5625,4.21875 l -4.15625,0 c -3.888,0 -7,3.14322 -7,7.03124 l 0,17.8438 c 0,3.888 3.112,7.0312 7,7.0312 l 3.28125,0 c 1.02724,0 1.84375,-0.8477 1.84375,-1.875 0,-1.0272 -0.81651,-1.8437 -1.84375,-1.8437 l -2.09375,0 c -2.44845,0 -4.4375,-1.9578 -4.4375,-4.4063 l 0,-15.625 c 0,-4.44592 1.98905,-4.43752 4.4375,-4.43752 l 2.09375,0 1.0625,0 2.6875,0 c 0.16236,-2.33647 2.08959,-4.18747 4.46875,-4.18747 l 11.25,0 c 2.37916,0 4.30639,1.851 4.46875,4.18747 l 3.75,0 2.1875,0 c 2.44845,0 4.40625,1.98912 4.40625,4.43752 l 0,15.625 c 0,2.4485 -1.9578,4.4063 -4.40625,4.4063 l -1.78125,0 -0.40625,0 0,0.031 c -0.83302,0.1845 -1.4375,0.924 -1.4375,1.8125 0,0.8886 0.60448,1.6593 1.4375,1.8438 l 0,0.031 0.40625,0 2.875,0 c 3.888,0 7.03125,-3.1432 7.03125,-7.0312 l 0,-17.8438 c 0,-3.88802 -3.14325,-7.03124 -7.03125,-7.03124 l -4.15625,0 c -0.96133,-2.4383 -3.96234,-4.21875 -7.53125,-4.21875 l -10.84375,0 z m 5.4375,8.06247 c -7.66056,0 -13.875,6.21452 -13.875,13.87502 0,7.6606 6.21444,13.875 13.875,13.875 7.66056,0 13.84375,-6.2144 13.84375,-13.875 0,-7.6605 -6.18319,-13.87502 -13.84375,-13.87502 z m 0,3.62502 c 5.65853,0 10.21875,4.5915 10.21875,10.25 0,5.6586 -4.56022,10.25 -10.21875,10.25 -5.65853,0 -10.25,-4.5914 -10.25,-10.25 0,-5.6585 4.59147,-10.25 10.25,-10.25 z m 0,2.25 c -4.41589,0 -8,3.5841 -8,8 0,4.4159 3.58411,8 8,8 4.41589,0 7.96875,-3.5841 7.96875,-8 0,-4.4159 -3.55286,-8 -7.96875,-8 z m 0,3.75 c 2.34482,0 4.21875,1.9052 4.21875,4.25 0,2.3448 -1.87393,4.25 -4.21875,4.25 -2.34482,0 -4.25,-1.9052 -4.25,-4.25 0,-2.3448 1.90518,-4.25 4.25,-4.25 z"
       id="path3164"
       inkscape:connector-curvature="0" />
    <path
       style="fill:#000000;fill-opacity:1;stroke:none;opacity:0.2"
       d="m 42.5625,991.23718 c -3.56891,0 -6.5936,1.78045 -7.5625,4.21875 l -4.125,0 c -3.888,0 -7,3.14323 -7,7.03127 l 0,1 c 0,-3.88806 3.112,-7.03127 7,-7.03127 l 4.125,0 c 0.9689,-2.4383 3.99359,-4.21875 7.5625,-4.21875 l 10.875,0 c 3.56891,0 6.53867,1.78045 7.5,4.21875 l 4.1875,0 c 3.888,0 7,3.14321 7,7.03127 l 0,-1 c 0,-3.88804 -3.112,-7.03127 -7,-7.03127 l -4.1875,0 c -0.96133,-2.4383 -3.93109,-4.21875 -7.5,-4.21875 l -10.875,0 z M 48,999.29968 c -7.66056,0 -13.875,6.21452 -13.875,13.87502 0,0.1702 0.02517,0.3313 0.03125,0.5 0.267685,-7.4252 6.353378,-13.375 13.84375,-13.375 7.490372,0 13.577392,5.9498 13.84375,13.375 0.0061,-0.1687 0.03125,-0.3298 0.03125,-0.5 0,-7.6605 -6.21444,-13.87502 -13.875,-13.87502 z m 0,5.87502 c -4.41589,0 -8,3.5841 -8,8 0,0.1696 0.02083,0.3329 0.03125,0.5 0.26091,-4.1809 3.722515,-7.5 7.96875,-7.5 4.246235,0 7.71006,3.3191 7.96875,7.5 0.01034,-0.1671 0.03125,-0.3304 0.03125,-0.5 0,-4.4159 -3.58411,-8 -8,-8 z m -10.21875,8.5 c -0.0079,0.1645 -0.03125,0.3335 -0.03125,0.5 0,5.6586 4.59147,10.25 10.25,10.25 5.65853,0 10.25,-4.5914 10.25,-10.25 0,-0.1665 -0.02345,-0.3355 -0.03125,-0.5 -0.257505,5.4282 -4.726683,9.75 -10.21875,9.75 -5.492067,0 -9.959513,-4.3218 -10.21875,-9.75 z m 6.03125,0 c -0.02037,0.1685 -0.0625,0.326 -0.0625,0.5 0,2.3448 1.90518,4.25 4.25,4.25 2.34482,0 4.25,-1.9052 4.25,-4.25 0,-0.174 -0.04245,-0.3315 -0.0625,-0.5 -0.250266,2.103 -2.016635,3.75 -4.1875,3.75 -2.170865,0 -3.933259,-1.647 -4.1875,-3.75 z m -16.1875,5.5625 0,1 c 0,2.4485 1.98905,4.4062 4.4375,4.4062 l 2.0625,0 c 0.852412,0 1.565184,0.5655 1.78125,1.3438 0.04431,-0.1612 0.09375,-0.3252 0.09375,-0.5 0,-1.0272 -0.84776,-1.8438 -1.875,-1.8438 l -2.0625,0 c -2.44845,0 -4.4375,-1.9577 -4.4375,-4.4062 z m 40.8125,0 c 0,2.4485 -1.98905,4.4062 -4.4375,4.4062 l -1.75,0 -0.4375,0 0,0.031 c -0.83302,0.1845 -1.4375,0.924 -1.4375,1.8125 0,0.1783 0.0481,0.3349 0.09375,0.5 0.18183,-0.6493 0.677907,-1.165 1.34375,-1.3125 l 0,-0.031 0.4375,0 1.75,0 c 2.44845,0 4.4375,-1.9577 4.4375,-4.4062 l 0,-1 z"
       id="path3212"
       inkscape:connector-curvature="0" />
  </g>
</svg>
