<?xml version="1.0" encoding="UTF-8" standalone="no"?>
<!-- Created with Inkscape (http://www.inkscape.org/) -->

<svg
   xmlns:dc="http://purl.org/dc/elements/1.1/"
   xmlns:cc="http://creativecommons.org/ns#"
   xmlns:rdf="http://www.w3.org/1999/02/22-rdf-syntax-ns#"
   xmlns:svg="http://www.w3.org/2000/svg"
   xmlns="http://www.w3.org/2000/svg"
   xmlns:xlink="http://www.w3.org/1999/xlink"
   xmlns:sodipodi="http://sodipodi.sourceforge.net/DTD/sodipodi-0.dtd"
   xmlns:inkscape="http://www.inkscape.org/namespaces/inkscape"
   width="96"
   height="96"
   id="svg2"
   version="1.1"
   inkscape:version="0.48.4 r9939"
   sodipodi:docname="user-trash.svg">
  <defs
     id="defs4">
    <linearGradient
       inkscape:collect="always"
       id="linearGradient3071">
      <stop
         style="stop-color:#800000;stop-opacity:1"
         offset="0"
         id="stop3073" />
      <stop
         style="stop-color:#d40000;stop-opacity:1"
         offset="1"
         id="stop3076" />
    </linearGradient>
    <linearGradient
       id="linearGradient4246"
       inkscape:collect="always">
      <stop
         id="stop4248"
         offset="0"
         style="stop-color:#ffffff;stop-opacity:1" />
      <stop
         id="stop4250"
         offset="1"
         style="stop-color:#ffffff;stop-opacity:0" />
    </linearGradient>
    <linearGradient
       inkscape:collect="always"
       id="linearGradient4178">
      <stop
         style="stop-color:#ccffaa;stop-opacity:1"
         offset="0"
         id="stop4180" />
      <stop
         style="stop-color:#66ff00;stop-opacity:1"
         offset="1"
         id="stop4182" />
    </linearGradient>
    <linearGradient
       id="linearGradient4146"
       inkscape:collect="always">
      <stop
         id="stop4148"
         offset="0"
         style="stop-color:#ded7e7;stop-opacity:1" />
      <stop
         id="stop4150"
         offset="1"
         style="stop-color:#f3edf7;stop-opacity:1" />
    </linearGradient>
    <linearGradient
       id="linearGradient4130">
      <stop
         id="stop4132"
         offset="0"
         style="stop-color:#000000;stop-opacity:1" />
      <stop
         style="stop-color:#333333;stop-opacity:1"
         offset="0.05052935"
         id="stop4134" />
      <stop
         id="stop4136"
         offset="0.18049203"
         style="stop-color:#000000;stop-opacity:1" />
      <stop
         style="stop-color:#000000;stop-opacity:1"
         offset="0.82271612"
         id="stop4138" />
      <stop
         id="stop4140"
         offset="0.94249851"
         style="stop-color:#333333;stop-opacity:1" />
      <stop
         id="stop4142"
         offset="1"
         style="stop-color:#000000;stop-opacity:1" />
    </linearGradient>
    <linearGradient
       id="linearGradient4293">
      <stop
         style="stop-color:#3b69a4;stop-opacity:1;"
         offset="0"
         id="stop4295" />
      <stop
         id="stop4301"
         offset="0.12751994"
         style="stop-color:#3b69a4;stop-opacity:0" />
      <stop
         style="stop-color:#3b69a4;stop-opacity:0"
         offset="0.88838893"
         id="stop4303" />
      <stop
         style="stop-color:#3b69a4;stop-opacity:1;"
         offset="1"
         id="stop4297" />
    </linearGradient>
    <linearGradient
       id="linearGradient3059">
      <stop
         style="stop-color:#101018;stop-opacity:1"
         offset="0"
         id="stop3061" />
      <stop
         id="stop4042"
         offset="0.05052935"
         style="stop-color:#212442;stop-opacity:1" />
      <stop
         style="stop-color:#100c18;stop-opacity:1"
         offset="0.18049203"
         id="stop4044" />
      <stop
         id="stop3352"
         offset="0.82271612"
         style="stop-color:#100c18;stop-opacity:1" />
      <stop
         style="stop-color:#212442;stop-opacity:1;"
         offset="0.94249851"
         id="stop3354" />
      <stop
         style="stop-color:#101018;stop-opacity:1"
         offset="1"
         id="stop3064" />
    </linearGradient>
    <linearGradient
       inkscape:collect="always"
       id="linearGradient3048">
      <stop
         style="stop-color:#c16d16;stop-opacity:1"
         offset="0"
         id="stop3050" />
      <stop
         style="stop-color:#ff8e31;stop-opacity:1"
         offset="1"
         id="stop3052" />
    </linearGradient>
    <linearGradient
       inkscape:collect="always"
       id="linearGradient3119">
      <stop
         style="stop-color:#92948f;stop-opacity:0"
         offset="0"
         id="stop3121" />
      <stop
         id="stop3123"
         offset="0.4283945"
         style="stop-color:#9b9e98;stop-opacity:1" />
      <stop
         style="stop-color:#939690;stop-opacity:0"
         offset="1"
         id="stop3125" />
    </linearGradient>
    <linearGradient
       id="linearGradient3073"
       inkscape:collect="always">
      <stop
         id="stop3075"
         offset="0"
         style="stop-color:#ffffff;stop-opacity:0" />
      <stop
         style="stop-color:#ffffff;stop-opacity:1"
         offset="0.45872402"
         id="stop3085" />
      <stop
         id="stop3083"
         offset="1"
         style="stop-color:#ffffff;stop-opacity:0" />
    </linearGradient>
    <linearGradient
       inkscape:collect="always"
       id="linearGradient3047">
      <stop
         style="stop-color:#000000;stop-opacity:1"
         offset="0"
         id="stop3049" />
      <stop
         id="stop3055"
         offset="0.06123874"
         style="stop-color:#1a1a1a;stop-opacity:1" />
      <stop
         style="stop-color:#333333;stop-opacity:1"
         offset="0.16480456"
         id="stop3057" />
      <stop
         id="stop3059"
         offset="0.55385184"
         style="stop-color:#4d4d4d;stop-opacity:1" />
      <stop
         style="stop-color:#999999;stop-opacity:1"
         offset="1"
         id="stop3051" />
    </linearGradient>
    <linearGradient
       id="linearGradient3041"
       inkscape:collect="always">
      <stop
         id="stop3043"
         offset="0"
         style="stop-color:#1a1a1a;stop-opacity:1" />
      <stop
         id="stop3045"
         offset="1"
         style="stop-color:#808080;stop-opacity:1" />
    </linearGradient>
    <linearGradient
       inkscape:collect="always"
       id="linearGradient3029">
      <stop
         style="stop-color:#333333;stop-opacity:1"
         offset="0"
         id="stop3031" />
      <stop
         style="stop-color:#e0e0dd;stop-opacity:0;"
         offset="1"
         id="stop3033" />
    </linearGradient>
    <linearGradient
       inkscape:collect="always"
       xlink:href="#linearGradient3029"
       id="linearGradient3035"
       x1="35.355339"
       y1="1030.3622"
       x2="35.355339"
       y2="975.33282"
       gradientUnits="userSpaceOnUse"
       gradientTransform="matrix(1.1638085,0,0,1.1638085,-7.862809,-164.23642)" />
    <linearGradient
       inkscape:collect="always"
       xlink:href="#linearGradient3041"
       id="linearGradient3039"
       gradientUnits="userSpaceOnUse"
       x1="35.355339"
       y1="1030.3622"
       x2="35.355339"
       y2="975.33282"
       gradientTransform="matrix(1.1218695,0,0,1.1218695,-5.8497348,-122.18782)" />
    <linearGradient
       inkscape:collect="always"
       xlink:href="#linearGradient3047"
       id="linearGradient3053"
       x1="40"
       y1="1043.4336"
       x2="39.285713"
       y2="972.33325"
       gradientUnits="userSpaceOnUse" />
    <linearGradient
       inkscape:collect="always"
       xlink:href="#linearGradient3073"
       id="linearGradient3113"
       gradientUnits="userSpaceOnUse"
       gradientTransform="translate(0,-956.36218)"
       x1="14.869445"
       y1="978.90387"
       x2="24.52651"
       y2="969.24683" />
    <linearGradient
       inkscape:collect="always"
       xlink:href="#linearGradient3073"
       id="linearGradient3115"
       gradientUnits="userSpaceOnUse"
       gradientTransform="matrix(-1,0,0,1,96,-956.36218)"
       x1="15.152279"
       y1="978.62103"
       x2="26.263966"
       y2="967.50934" />
    <linearGradient
       inkscape:collect="always"
       xlink:href="#linearGradient3119"
       id="linearGradient3117"
       gradientUnits="userSpaceOnUse"
       gradientTransform="translate(0,-956.36218)"
       x1="13.131983"
       y1="980.64136"
       x2="25.549681"
       y2="967.86646" />
    <linearGradient
       inkscape:collect="always"
       xlink:href="#linearGradient3119"
       id="linearGradient3129"
       gradientUnits="userSpaceOnUse"
       gradientTransform="matrix(-1,0,0,1,96,0)"
       x1="13.131983"
       y1="980.64136"
       x2="25.549681"
       y2="967.86646" />
    <linearGradient
       inkscape:collect="always"
       xlink:href="#linearGradient3048"
       id="linearGradient3054"
       x1="49.267925"
       y1="996.57349"
       x2="49.267925"
       y2="1045.8627"
       gradientUnits="userSpaceOnUse" />
    <linearGradient
       inkscape:collect="always"
       xlink:href="#linearGradient3048"
       id="linearGradient3058"
       x1="115.80308"
       y1="985.47241"
       x2="115.80308"
       y2="1033.5543"
       gradientUnits="userSpaceOnUse" />
    <linearGradient
       inkscape:collect="always"
       xlink:href="#linearGradient4130"
       id="linearGradient4128"
       gradientUnits="userSpaceOnUse"
       x1="7.7721348"
       y1="1046.0226"
       x2="87.516144"
       y2="1046.0226" />
    <linearGradient
       inkscape:collect="always"
       xlink:href="#linearGradient4146"
       id="linearGradient4144"
       gradientUnits="userSpaceOnUse"
       x1="48.543396"
       y1="1030.6263"
       x2="48.543396"
       y2="963.96973"
       gradientTransform="matrix(0.97560976,0,0,0.97560976,0.17073171,25.179566)" />
    <linearGradient
       inkscape:collect="always"
       xlink:href="#linearGradient3071"
       id="linearGradient4158"
       x1="21.011322"
       y1="1036.0603"
       x2="21.011322"
       y2="962.49835"
       gradientUnits="userSpaceOnUse" />
    <radialGradient
       inkscape:collect="always"
       xlink:href="#linearGradient4178"
       id="radialGradient4186"
       cx="-18.219341"
       cy="85.049187"
       fx="-18.219341"
       fy="85.049187"
       r="3.2660329"
       gradientUnits="userSpaceOnUse"
       gradientTransform="matrix(0.72555705,-0.72555705,0.70710569,0.70710787,-65.138933,11.691067)" />
    <linearGradient
       inkscape:collect="always"
       xlink:href="#linearGradient4146"
       id="linearGradient4193"
       gradientUnits="userSpaceOnUse"
       gradientTransform="matrix(0.97560976,0,0,0.97560976,0.17073171,25.179566)"
       x1="48.543396"
       y1="1030.6263"
       x2="48.543396"
       y2="963.96973" />
    <linearGradient
       inkscape:collect="always"
       xlink:href="#linearGradient3071"
       id="linearGradient4197"
       gradientUnits="userSpaceOnUse"
       gradientTransform="matrix(0.97560976,0,0,0.97560976,1.1707317,24.179546)"
       x1="48.543396"
       y1="1030.6263"
       x2="48.543396"
       y2="963.96973" />
    <linearGradient
       inkscape:collect="always"
       xlink:href="#linearGradient4130"
       id="linearGradient4213"
       gradientUnits="userSpaceOnUse"
       x1="7.7721348"
       y1="1046.0226"
       x2="87.516144"
       y2="1046.0226"
       gradientTransform="translate(0,-956.36218)" />
    <linearGradient
       inkscape:collect="always"
       xlink:href="#linearGradient4146"
       id="linearGradient4241"
       gradientUnits="userSpaceOnUse"
       gradientTransform="matrix(0.97560976,0,0,0.97560976,1.1707317,-932.18263)"
       x1="48.543396"
       y1="1030.6263"
       x2="48.543396"
       y2="963.96973" />
    <linearGradient
       inkscape:collect="always"
       xlink:href="#linearGradient4246"
       id="linearGradient4244"
       gradientUnits="userSpaceOnUse"
       gradientTransform="matrix(1.0243903,0,0,1.0243903,-1.1707318,-24.501464)"
       x1="67.973091"
       y1="1017.4982"
       x2="48.543396"
       y2="963.96973" />
    <linearGradient
       inkscape:collect="always"
       xlink:href="#linearGradient3071"
       id="linearGradient3082"
       gradientUnits="userSpaceOnUse"
       x1="21.011322"
       y1="1036.0603"
       x2="21.011322"
       y2="962.49835"
       gradientTransform="translate(0,-1.00002)" />
    <linearGradient
       inkscape:collect="always"
       xlink:href="#linearGradient3071"
       id="linearGradient3084"
       gradientUnits="userSpaceOnUse"
       x1="21.011322"
       y1="1036.0603"
       x2="21.011322"
       y2="962.49835"
       gradientTransform="translate(0,-956.36218)" />
  </defs>
  <sodipodi:namedview
     id="base"
     pagecolor="#ffffff"
     bordercolor="#666666"
     borderopacity="1.0"
     inkscape:pageopacity="0.0"
     inkscape:pageshadow="2"
     inkscape:zoom="0.69010415"
     inkscape:cx="82.363812"
     inkscape:cy="157.32599"
     inkscape:document-units="px"
     inkscape:current-layer="layer1"
     showgrid="false"
     inkscape:window-width="1366"
     inkscape:window-height="704"
     inkscape:window-x="0"
     inkscape:window-y="28"
     inkscape:window-maximized="1"
     showguides="true"
     inkscape:guide-bbox="true" />
  <metadata
     id="metadata7">
    <rdf:RDF>
      <cc:Work
         rdf:about="">
        <dc:format>image/svg+xml</dc:format>
        <dc:type
           rdf:resource="http://purl.org/dc/dcmitype/StillImage" />
        <dc:title />
      </cc:Work>
    </rdf:RDF>
  </metadata>
  <g
     inkscape:label="Layer 1"
     inkscape:groupmode="layer"
     id="layer1"
     transform="translate(0,-956.36218)">
    <rect
       style="opacity:0.05;fill:#000000;fill-opacity:1;stroke:none"
       id="rect3826"
       width="89"
       height="89"
       x="3.5"
       y="960.86218"
       rx="10.595235"
       ry="10.595235" />
    <g
       id="g3041">
      <rect
         style="opacity:0.05;fill:#000000;fill-opacity:1;stroke:none"
         id="rect3824"
         width="88"
         height="88"
         x="4"
         y="961.36218"
         rx="10.476188"
         ry="10.476188" />
      <rect
         ry="10.357141"
         rx="10.357141"
         y="961.86218"
         x="4.5"
         height="87"
         width="87"
         id="rect3822"
         style="opacity:0.05;fill:#000000;fill-opacity:1;stroke:none" />
      <rect
         style="opacity:0.1;fill:#000000;fill-opacity:1;stroke:none"
         id="rect3820"
         width="86"
         height="86"
         x="5"
         y="962.36218"
         rx="10.238094"
         ry="10.238094" />
      <rect
         ry="10.119047"
         rx="10.119047"
         y="962.86218"
         x="5.5"
         height="85"
         width="85"
         id="rect3818"
         style="opacity:0.1;fill:#000000;fill-opacity:1;stroke:none" />
      <rect
         style="opacity:0.3;fill:#000000;fill-opacity:1;stroke:none"
         id="rect3131"
         width="84"
         height="84"
         x="6"
         y="963.36218"
         rx="10"
         ry="10" />
    </g>
    <rect
       ry="10"
       rx="10"
       y="962.36218"
       x="6"
       height="84"
       width="84"
       id="rect3036"
       style="fill:url(#linearGradient4128);fill-opacity:1;stroke:none" />
    <path
       style="fill:url(#linearGradient4158);fill-opacity:1;stroke:none"
       d="m 16,962.36218 64,0 c 5.54,0 10,4.46 10,10 l 0,54.00002 c 0,5.54 -4.46,10 -10,10 l -64,0 c -5.54,0 -10,-4.46 -10,-10 l 0,-54.00002 c 0,-5.54 4.46,-10 10,-10 z"
       id="rect4125"
       inkscape:connector-curvature="0"
       sodipodi:nodetypes="sssssssss" />
    <path
       style="fill:#4d4d4d;fill-opacity:1;stroke:none"
       d="M 6 74.5 L 6 75.5 C 6 81.04 10.46 85.5 16 85.5 L 80 85.5 C 85.54 85.5 90 81.04 90 75.5 L 90 74.5 C 90 80.04 85.54 84.5 80 84.5 L 16 84.5 C 10.46 84.5 6 80.04 6 74.5 z "
       transform="translate(0,956.36218)"
       id="rect4160" />
    <path
       style="opacity:1;fill:#2b0000;fill-opacity:1;stroke:none"
       d="m 25.03125,80 1.09375,1.875 43.75,0 L 70.96875,80 z"
       transform="translate(0,956.36218)"
       id="path4202"
       inkscape:connector-curvature="0"
       sodipodi:nodetypes="ccccc" />
    <path
       style="fill:#550000;fill-opacity:1;stroke:none"
       d="M 6 69 L 6 70 C 6 75.54 10.46 80 16 80 L 80 80 C 85.54 80 90 75.54 90 70 L 90 69 C 90 74.54 85.54 79 80 79 L 16 79 C 10.46 79 6 74.54 6 69 z "
       transform="translate(0,956.36218)"
       id="path3078" />
    <g
       id="g3103"
       transform="matrix(2,0,0,2,33,983.36219)"
       style="fill:#ffffff">
      <g
         transform="translate(-481.0002,-175)"
         style="display:inline;fill:#ffffff"
         inkscape:label="status"
         id="layer9" />
      <g
         transform="translate(-481.0002,-175)"
         inkscape:label="devices"
         id="layer10"
         style="fill:#ffffff" />
      <g
         transform="translate(-481.0002,-175)"
         inkscape:label="apps"
         id="layer11"
         style="fill:#ffffff" />
      <g
         transform="translate(-481.0002,-175)"
         inkscape:label="places"
         id="layer13"
         style="fill:#ffffff">
        <path
           style="fill:#ffffff;fill-opacity:1;stroke:none"
           id="path3799"
           d="m 484.0002,180 0,9 9,0 0,-9 2,0 0,9 c 0,2 -2,2 -2,2 l -9,0 c -2,0 -2,-2 -2,-2 l 0,-9 z m 4.00001,1 1.00002,0 0,6 -1.00002,0 z m 2,0 1.00002,0 0,6 -1.00002,0 z m -4,0 0.99999,0 0,6 -0.99999,0 z m -1.00001,-6 c -2,0 -2,2 -2,2 l -2,0 0,2 15,0 0,-2 -2,0 c 0,-2 -2,-2 -2,-2 l -7,0 z m 0,1 7,0 0,1 -7,0 0,-1 z"
           inkscape:connector-curvature="0" />
      </g>
      <g
         transform="translate(-481.0002,-175)"
         inkscape:label="mimetypes"
         id="layer14"
         style="fill:#ffffff" />
      <g
         transform="translate(-481.0002,-175)"
         style="display:inline;fill:#ffffff"
         inkscape:label="emblems"
         id="layer15" />
      <g
         transform="translate(-481.0002,-175)"
         style="display:inline;fill:#ffffff"
         inkscape:label="emotes"
         id="g71291" />
      <g
         transform="translate(-481.0002,-175)"
         style="display:inline;fill:#ffffff"
         inkscape:label="categories"
         id="g4953" />
      <g
         transform="translate(-481.0002,-175)"
         style="display:inline;fill:#ffffff"
         inkscape:label="actions"
         id="layer12" />
    </g>
    <g
       id="g3139"
       inkscape:label="status"
       style="fill:#ffffff;display:inline"
       transform="matrix(2,0,0,2,-929.0004,633.36218)" />
    <g
       style="fill:#ffffff"
       id="g3141"
       inkscape:label="devices"
       transform="matrix(2,0,0,2,-929.0004,633.36218)" />
    <g
       style="fill:#ffffff"
       id="g3143"
       inkscape:label="apps"
       transform="matrix(2,0,0,2,-929.0004,633.36218)" />
    <g
       style="fill:#ffffff"
       id="g3149"
       inkscape:label="mimetypes"
       transform="matrix(2,0,0,2,-929.0004,633.36218)" />
    <g
       id="g3151"
       inkscape:label="emblems"
       style="fill:#ffffff;display:inline"
       transform="matrix(2,0,0,2,-929.0004,633.36218)" />
    <g
       id="g3153"
       inkscape:label="emotes"
       style="fill:#ffffff;display:inline"
       transform="matrix(2,0,0,2,-929.0004,633.36218)" />
    <g
       id="g3155"
       inkscape:label="categories"
       style="fill:#ffffff;display:inline"
       transform="matrix(2,0,0,2,-929.0004,633.36218)" />
    <g
       id="g3157"
       inkscape:label="actions"
       style="fill:#ffffff;display:inline"
       transform="matrix(2,0,0,2,-929.0004,633.36218)" />
    <g
       transform="matrix(2,0,0,2,-929.0004,633.36219)"
       style="fill:#ff8080;display:inline"
       inkscape:label="status"
       id="g3185" />
    <g
       transform="matrix(2,0,0,2,-929.0004,633.36219)"
       inkscape:label="devices"
       id="g3187"
       style="fill:#ff8080" />
    <g
       transform="matrix(2,0,0,2,-929.0004,633.36219)"
       inkscape:label="apps"
       id="g3189"
       style="fill:#ff8080" />
    <path
       style="fill:#550000;fill-opacity:1;stroke:none"
       d="M 41 27 C 37 27 37 31 37 31 L 33 31 L 33 32 L 37 32 C 37 32 37 28 41 28 L 55 28 C 55 28 59 28 59 32 L 63 32 L 63 31 L 59 31 C 59 27 55 27 55 27 L 41 27 z M 41 31 L 41 32 L 55 32 L 55 31 L 41 31 z M 35 37 L 35 38 L 39 38 L 39 37 L 35 37 z M 57 37 L 57 38 L 61 38 L 61 37 L 57 37 z M 43 39 L 43 40 L 45 40 L 45 39 L 43 39 z M 47 39 L 47 40 L 49 40 L 49 39 L 47 39 z M 51 39 L 51 40 L 53 40 L 53 39 L 51 39 z M 39 55 L 39 56 L 57 56 L 57 55 L 39 55 z "
       transform="translate(0,956.36218)"
       id="path3193" />
    <path
       style="opacity:0.2;fill:url(#linearGradient4244);fill-opacity:1;stroke:none"
       d="M 16.007813,962.36218 C 10.467813,962.36218 6,966.82999 6,972.36998 l 0,34.97812 c 18.909513,-17.61792 49.37527,-29.31252 84,-30.18749 l 0,-4.79063 c 0,-5.53999 -4.467813,-10.0078 -10.007813,-10.0078 l -63.984374,0 z"
       id="path4219"
       inkscape:connector-curvature="0" />
    <g
       transform="matrix(2,0,0,2,-929.0004,633.36219)"
       inkscape:label="mimetypes"
       id="g3195"
       style="fill:#ff8080" />
    <g
       transform="matrix(2,0,0,2,-929.0004,633.36219)"
       style="fill:#ff8080;display:inline"
       inkscape:label="emblems"
       id="g3197" />
    <g
       transform="matrix(2,0,0,2,-929.0004,633.36219)"
       style="fill:#ff8080;display:inline"
       inkscape:label="emotes"
       id="g3199" />
    <g
       transform="matrix(2,0,0,2,-929.0004,633.36219)"
       style="fill:#ff8080;display:inline"
       inkscape:label="categories"
       id="g3201" />
    <g
       transform="matrix(2,0,0,2,-929.0004,633.36219)"
       style="fill:#ff8080;display:inline"
       inkscape:label="actions"
       id="g3203" />
    <g
       id="g3207"
       inkscape:label="status"
       style="fill:#ff8080;display:inline"
       transform="matrix(2,0,0,2,-929.0004,634.36218)" />
    <g
       style="fill:#ff8080"
       id="g3209"
       inkscape:label="devices"
       transform="matrix(2,0,0,2,-929.0004,634.36218)" />
    <g
       style="fill:#ff8080"
       id="g3211"
       inkscape:label="apps"
       transform="matrix(2,0,0,2,-929.0004,634.36218)" />
    <g
       style="fill:#ff8080"
       id="g3217"
       inkscape:label="mimetypes"
       transform="matrix(2,0,0,2,-929.0004,634.36218)" />
    <g
       id="g3219"
       inkscape:label="emblems"
       style="fill:#ff8080;display:inline"
       transform="matrix(2,0,0,2,-929.0004,634.36218)" />
    <g
       id="g3221"
       inkscape:label="emotes"
       style="fill:#ff8080;display:inline"
       transform="matrix(2,0,0,2,-929.0004,634.36218)" />
    <g
       id="g3223"
       inkscape:label="categories"
       style="fill:#ff8080;display:inline"
       transform="matrix(2,0,0,2,-929.0004,634.36218)" />
    <g
       id="g3225"
       inkscape:label="actions"
       style="fill:#ff8080;display:inline"
       transform="matrix(2,0,0,2,-929.0004,634.36218)" />
  </g>
</svg>
