<?xml version="1.0" encoding="UTF-8" standalone="no"?>
<!-- Created with Inkscape (http://www.inkscape.org/) -->

<svg
   xmlns:dc="http://purl.org/dc/elements/1.1/"
   xmlns:cc="http://creativecommons.org/ns#"
   xmlns:rdf="http://www.w3.org/1999/02/22-rdf-syntax-ns#"
   xmlns:svg="http://www.w3.org/2000/svg"
   xmlns="http://www.w3.org/2000/svg"
   xmlns:xlink="http://www.w3.org/1999/xlink"
   xmlns:sodipodi="http://sodipodi.sourceforge.net/DTD/sodipodi-0.dtd"
   xmlns:inkscape="http://www.inkscape.org/namespaces/inkscape"
   width="96"
   height="96"
   id="svg2"
   version="1.1"
   inkscape:version="0.91 r13725"
   sodipodi:docname="empathy.svg">
  <defs
     id="defs4">
    <linearGradient
       inkscape:collect="always"
       id="linearGradient4361">
      <stop
         style="stop-color:#000000;stop-opacity:1;"
         offset="0"
         id="stop4363" />
      <stop
         style="stop-color:#000000;stop-opacity:0;"
         offset="1"
         id="stop4365" />
    </linearGradient>
    <linearGradient
       inkscape:collect="always"
       id="linearGradient4296">
      <stop
         style="stop-color:#8aafcf;stop-opacity:1"
         offset="0"
         id="stop4298" />
      <stop
         style="stop-color:#5f92c3;stop-opacity:1"
         offset="1"
         id="stop4300" />
    </linearGradient>
    <linearGradient
       id="linearGradient4272"
       inkscape:collect="always">
      <stop
         id="stop4274"
         offset="0"
         style="stop-color:#c4d6e5;stop-opacity:1" />
      <stop
         id="stop4276"
         offset="1"
         style="stop-color:#feffff;stop-opacity:1" />
    </linearGradient>
    <linearGradient
       inkscape:collect="always"
       id="linearGradient3099">
      <stop
         style="stop-color:#ddebf7;stop-opacity:1"
         offset="0"
         id="stop3101" />
      <stop
         style="stop-color:#f5fdff;stop-opacity:1"
         offset="1"
         id="stop3103" />
    </linearGradient>
    <linearGradient
       inkscape:collect="always"
       id="linearGradient3125">
      <stop
         style="stop-color:#185479;stop-opacity:1"
         offset="0"
         id="stop3127" />
      <stop
         style="stop-color:#004a9e;stop-opacity:1"
         offset="1"
         id="stop3129" />
    </linearGradient>
    <linearGradient
       inkscape:collect="always"
       id="linearGradient3096">
      <stop
         style="stop-color:#e7f6fd;stop-opacity:1"
         offset="0"
         id="stop3098" />
      <stop
         style="stop-color:#f9fbfa;stop-opacity:1"
         offset="1"
         id="stop3100" />
    </linearGradient>
    <linearGradient
       inkscape:collect="always"
       id="linearGradient3090">
      <stop
         style="stop-color:#1c6996;stop-opacity:1"
         offset="0"
         id="stop3092" />
      <stop
         style="stop-color:#000665;stop-opacity:1"
         offset="1"
         id="stop3094" />
    </linearGradient>
    <linearGradient
       id="linearGradient3083"
       inkscape:collect="always">
      <stop
         id="stop3086"
         offset="0"
         style="stop-color:#78effb;stop-opacity:1" />
      <stop
         style="stop-color:#41a0fb;stop-opacity:1"
         offset="0.50138098"
         id="stop3133" />
      <stop
         id="stop3088"
         offset="1"
         style="stop-color:#76b1f1;stop-opacity:1" />
    </linearGradient>
    <inkscape:perspective
       sodipodi:type="inkscape:persp3d"
       inkscape:vp_x="0 : 48 : 1"
       inkscape:vp_y="0 : 1000 : 0"
       inkscape:vp_z="96 : 48 : 1"
       inkscape:persp3d-origin="48 : 32 : 1"
       id="perspective3054" />
    <linearGradient
       id="linearGradient4357"
       inkscape:collect="always">
      <stop
         id="stop4359"
         offset="0"
         style="stop-color:#ded3d6;stop-opacity:1" />
      <stop
         id="stop4361"
         offset="1"
         style="stop-color:#f7ebef;stop-opacity:1" />
    </linearGradient>
    <linearGradient
       inkscape:collect="always"
       id="linearGradient3558">
      <stop
         style="stop-color:#ded3d6;stop-opacity:1"
         offset="0"
         id="stop3560" />
      <stop
         style="stop-color:#efebef;stop-opacity:1"
         offset="1"
         id="stop3562" />
    </linearGradient>
    <linearGradient
       id="linearGradient3076"
       inkscape:collect="always">
      <stop
         id="stop3078"
         offset="0"
         style="stop-color:#ffe7f7;stop-opacity:1" />
      <stop
         id="stop3080"
         offset="1"
         style="stop-color:#ffc3ef;stop-opacity:1" />
    </linearGradient>
    <linearGradient
       id="linearGradient3070"
       inkscape:collect="always">
      <stop
         id="stop3072"
         offset="0"
         style="stop-color:#943410;stop-opacity:1" />
      <stop
         id="stop3074"
         offset="1"
         style="stop-color:#dc7952;stop-opacity:1" />
    </linearGradient>
    <linearGradient
       inkscape:collect="always"
       id="linearGradient3059">
      <stop
         style="stop-color:#a53810;stop-opacity:1"
         offset="0"
         id="stop3061" />
      <stop
         style="stop-color:#e75911;stop-opacity:1"
         offset="1"
         id="stop3064" />
    </linearGradient>
    <linearGradient
       inkscape:collect="always"
       id="linearGradient3048">
      <stop
         style="stop-color:#c16d16;stop-opacity:1"
         offset="0"
         id="stop3050" />
      <stop
         style="stop-color:#ff8e31;stop-opacity:1"
         offset="1"
         id="stop3052" />
    </linearGradient>
    <linearGradient
       inkscape:collect="always"
       id="linearGradient3119">
      <stop
         style="stop-color:#92948f;stop-opacity:0"
         offset="0"
         id="stop3121" />
      <stop
         id="stop3123"
         offset="0.4283945"
         style="stop-color:#9b9e98;stop-opacity:1" />
      <stop
         style="stop-color:#939690;stop-opacity:0"
         offset="1"
         id="stop3125" />
    </linearGradient>
    <linearGradient
       id="linearGradient3073"
       inkscape:collect="always">
      <stop
         id="stop3075"
         offset="0"
         style="stop-color:#ffffff;stop-opacity:0" />
      <stop
         style="stop-color:#ffffff;stop-opacity:1"
         offset="0.45872402"
         id="stop3085" />
      <stop
         id="stop3083"
         offset="1"
         style="stop-color:#ffffff;stop-opacity:0" />
    </linearGradient>
    <linearGradient
       inkscape:collect="always"
       id="linearGradient3047">
      <stop
         style="stop-color:#000000;stop-opacity:1"
         offset="0"
         id="stop3049" />
      <stop
         id="stop3055"
         offset="0.06123874"
         style="stop-color:#1a1a1a;stop-opacity:1" />
      <stop
         style="stop-color:#333333;stop-opacity:1"
         offset="0.16480456"
         id="stop3057" />
      <stop
         id="stop3059"
         offset="0.55385184"
         style="stop-color:#4d4d4d;stop-opacity:1" />
      <stop
         style="stop-color:#999999;stop-opacity:1"
         offset="1"
         id="stop3051" />
    </linearGradient>
    <linearGradient
       id="linearGradient3041"
       inkscape:collect="always">
      <stop
         id="stop3043"
         offset="0"
         style="stop-color:#1a1a1a;stop-opacity:1" />
      <stop
         id="stop3045"
         offset="1"
         style="stop-color:#808080;stop-opacity:1" />
    </linearGradient>
    <linearGradient
       inkscape:collect="always"
       id="linearGradient3029">
      <stop
         style="stop-color:#333333;stop-opacity:1"
         offset="0"
         id="stop3031" />
      <stop
         style="stop-color:#e0e0dd;stop-opacity:0;"
         offset="1"
         id="stop3033" />
    </linearGradient>
    <linearGradient
       inkscape:collect="always"
       xlink:href="#linearGradient3029"
       id="linearGradient3035"
       x1="35.355339"
       y1="1030.3622"
       x2="35.355339"
       y2="975.33282"
       gradientUnits="userSpaceOnUse"
       gradientTransform="matrix(1.1638085,0,0,1.1638085,-7.862809,-164.23642)" />
    <linearGradient
       inkscape:collect="always"
       xlink:href="#linearGradient3041"
       id="linearGradient3039"
       gradientUnits="userSpaceOnUse"
       x1="35.355339"
       y1="1030.3622"
       x2="35.355339"
       y2="975.33282"
       gradientTransform="matrix(1.1218695,0,0,1.1218695,-5.8497348,-122.18782)" />
    <linearGradient
       inkscape:collect="always"
       xlink:href="#linearGradient3047"
       id="linearGradient3053"
       x1="40"
       y1="1043.4336"
       x2="39.285713"
       y2="972.33325"
       gradientUnits="userSpaceOnUse" />
    <linearGradient
       inkscape:collect="always"
       xlink:href="#linearGradient3073"
       id="linearGradient3113"
       gradientUnits="userSpaceOnUse"
       gradientTransform="translate(0,-956.36218)"
       x1="14.869445"
       y1="978.90387"
       x2="24.52651"
       y2="969.24683" />
    <linearGradient
       inkscape:collect="always"
       xlink:href="#linearGradient3073"
       id="linearGradient3115"
       gradientUnits="userSpaceOnUse"
       gradientTransform="matrix(-1,0,0,1,96,-956.36218)"
       x1="15.152279"
       y1="978.62103"
       x2="26.263966"
       y2="967.50934" />
    <linearGradient
       inkscape:collect="always"
       xlink:href="#linearGradient3119"
       id="linearGradient3117"
       gradientUnits="userSpaceOnUse"
       gradientTransform="translate(0,-956.36218)"
       x1="13.131983"
       y1="980.64136"
       x2="25.549681"
       y2="967.86646" />
    <linearGradient
       inkscape:collect="always"
       xlink:href="#linearGradient3119"
       id="linearGradient3129"
       gradientUnits="userSpaceOnUse"
       gradientTransform="matrix(-1,0,0,1,96,0)"
       x1="13.131983"
       y1="980.64136"
       x2="25.549681"
       y2="967.86646" />
    <linearGradient
       inkscape:collect="always"
       xlink:href="#linearGradient3048"
       id="linearGradient3054"
       x1="49.267925"
       y1="996.57349"
       x2="49.267925"
       y2="1045.8627"
       gradientUnits="userSpaceOnUse" />
    <linearGradient
       inkscape:collect="always"
       xlink:href="#linearGradient3048"
       id="linearGradient3058"
       x1="115.80308"
       y1="985.47241"
       x2="115.80308"
       y2="1033.5543"
       gradientUnits="userSpaceOnUse" />
    <linearGradient
       inkscape:collect="always"
       xlink:href="#linearGradient3076"
       id="linearGradient3055"
       gradientUnits="userSpaceOnUse"
       x1="115.80308"
       y1="985.47241"
       x2="115.80308"
       y2="1025.3639"
       gradientTransform="matrix(1.4144782,0,0,1.4144782,-119.78686,-419.05496)" />
    <linearGradient
       inkscape:collect="always"
       xlink:href="#linearGradient3059"
       id="linearGradient3066"
       x1="22.54203"
       y1="1043.3966"
       x2="22.54203"
       y2="964.45898"
       gradientUnits="userSpaceOnUse" />
    <linearGradient
       inkscape:collect="always"
       xlink:href="#linearGradient3070"
       id="linearGradient3068"
       x1="53.796227"
       y1="1046.0226"
       x2="53.796227"
       y2="962.97437"
       gradientUnits="userSpaceOnUse" />
    <linearGradient
       inkscape:collect="always"
       xlink:href="#linearGradient3076"
       id="linearGradient3086"
       gradientUnits="userSpaceOnUse"
       gradientTransform="matrix(1.4144782,0,0,1.4144782,-119.78686,-417.12598)"
       x1="115.80308"
       y1="985.47241"
       x2="115.80308"
       y2="1025.3639" />
    <linearGradient
       inkscape:collect="always"
       xlink:href="#linearGradient3076"
       id="linearGradient3091"
       gradientUnits="userSpaceOnUse"
       gradientTransform="matrix(1.4144782,0,0,1.4144782,-119.78686,-418.126)"
       x1="115.80308"
       y1="985.47241"
       x2="115.80308"
       y2="1025.3639" />
    <linearGradient
       inkscape:collect="always"
       xlink:href="#linearGradient3076"
       id="linearGradient3093"
       gradientUnits="userSpaceOnUse"
       gradientTransform="matrix(1.4144782,0,0,1.4144782,-119.78686,-1375.4171)"
       x1="115.80308"
       y1="985.47241"
       x2="115.80308"
       y2="1025.3639" />
    <linearGradient
       inkscape:collect="always"
       xlink:href="#linearGradient3558"
       id="linearGradient3564"
       x1="93.242035"
       y1="1027.2615"
       x2="93.242035"
       y2="980.7262"
       gradientUnits="userSpaceOnUse" />
    <linearGradient
       inkscape:collect="always"
       xlink:href="#linearGradient3558"
       id="linearGradient4350"
       gradientUnits="userSpaceOnUse"
       x1="93.242035"
       y1="1027.2615"
       x2="93.242035"
       y2="980.7262" />
    <linearGradient
       inkscape:collect="always"
       xlink:href="#linearGradient4357"
       id="linearGradient4354"
       gradientUnits="userSpaceOnUse"
       x1="93.242035"
       y1="1027.2615"
       x2="93.242035"
       y2="980.7262"
       gradientTransform="translate(-56.571856,0)" />
    <linearGradient
       inkscape:collect="always"
       xlink:href="#linearGradient3096"
       id="linearGradient3067"
       gradientUnits="userSpaceOnUse"
       gradientTransform="translate(108.39483,0)"
       x1="93.242035"
       y1="1027.2615"
       x2="93.242035"
       y2="980.7262" />
    <linearGradient
       inkscape:collect="always"
       xlink:href="#linearGradient3083"
       id="linearGradient3071"
       gradientUnits="userSpaceOnUse"
       x1="22.54203"
       y1="1043.3966"
       x2="22.54203"
       y2="964.45898" />
    <linearGradient
       inkscape:collect="always"
       xlink:href="#linearGradient3090"
       id="linearGradient3074"
       gradientUnits="userSpaceOnUse"
       x1="53.796227"
       y1="1046.0226"
       x2="53.796227"
       y2="962.97437" />
    <linearGradient
       inkscape:collect="always"
       xlink:href="#linearGradient3125"
       id="linearGradient3131"
       x1="38.037735"
       y1="45.645283"
       x2="58.556892"
       y2="45.645283"
       gradientUnits="userSpaceOnUse"
       gradientTransform="matrix(1.2537728,0,0,1.2537728,-112.62901,962.79467)" />
    <linearGradient
       inkscape:collect="always"
       xlink:href="#linearGradient3099"
       id="linearGradient3105"
       x1="-40.985512"
       y1="85.244209"
       x2="-40.985512"
       y2="40.074162"
       gradientUnits="userSpaceOnUse"
       gradientTransform="matrix(0.88426923,0,0,0.88426923,102.0592,958.02191)" />
    <linearGradient
       inkscape:collect="always"
       xlink:href="#linearGradient3099"
       id="linearGradient3114"
       gradientUnits="userSpaceOnUse"
       gradientTransform="matrix(0.88426923,0,0,0.88426923,102.0592,958.02191)"
       x1="-40.985512"
       y1="85.244209"
       x2="-40.985512"
       y2="40.074162" />
    <linearGradient
       inkscape:collect="always"
       xlink:href="#linearGradient3099"
       id="linearGradient3120"
       gradientUnits="userSpaceOnUse"
       gradientTransform="matrix(0.88426923,0,0,0.88426923,94.174798,947.84787)"
       x1="-40.985512"
       y1="85.244209"
       x2="-40.985512"
       y2="40.074162" />
    <linearGradient
       inkscape:collect="always"
       xlink:href="#linearGradient3099"
       id="linearGradient3972"
       gradientUnits="userSpaceOnUse"
       gradientTransform="matrix(0.88426923,0,0,0.88426923,94.174798,947.84787)"
       x1="-40.985512"
       y1="85.244209"
       x2="-40.985512"
       y2="40.074162" />
    <linearGradient
       inkscape:collect="always"
       xlink:href="#linearGradient3099"
       id="linearGradient3978"
       gradientUnits="userSpaceOnUse"
       gradientTransform="matrix(0.88426923,0,0,0.88426923,93.01482,948.95598)"
       x1="-40.985512"
       y1="85.244209"
       x2="-40.985512"
       y2="40.074162" />
    <linearGradient
       inkscape:collect="always"
       xlink:href="#linearGradient3099"
       id="linearGradient3998"
       gradientUnits="userSpaceOnUse"
       gradientTransform="matrix(0.88426923,0,0,0.88426923,93.01482,948.95598)"
       x1="-40.985512"
       y1="85.244209"
       x2="-40.985512"
       y2="40.074162" />
    <linearGradient
       inkscape:collect="always"
       xlink:href="#linearGradient3099"
       id="linearGradient4004"
       gradientUnits="userSpaceOnUse"
       gradientTransform="matrix(0.88426923,0,0,0.88426923,93.01482,948.45787)"
       x1="-40.985512"
       y1="85.244209"
       x2="-40.985512"
       y2="40.074162" />
    <linearGradient
       inkscape:collect="always"
       xlink:href="#linearGradient3601"
       id="linearGradient3257"
       gradientUnits="userSpaceOnUse"
       x1="72"
       y1="1006.8622"
       x2="72"
       y2="1000.0592"
       gradientTransform="translate(-93.28302,1.2987011)" />
    <linearGradient
       inkscape:collect="always"
       id="linearGradient3601">
      <stop
         style="stop-color:#e9e4e1;stop-opacity:1"
         offset="0"
         id="stop3603" />
      <stop
         style="stop-color:#f9f9f4;stop-opacity:1"
         offset="1"
         id="stop3605" />
    </linearGradient>
    <linearGradient
       inkscape:collect="always"
       xlink:href="#linearGradient3637"
       id="linearGradient3260"
       gradientUnits="userSpaceOnUse"
       gradientTransform="matrix(0.42682928,0,0,0.42682928,-75.895821,576.09463)"
       x1="22.54203"
       y1="1043.3966"
       x2="22.54203"
       y2="964.45898" />
    <linearGradient
       inkscape:collect="always"
       id="linearGradient3637">
      <stop
         style="stop-color:#e7e2df;stop-opacity:1"
         offset="0"
         id="stop3639" />
      <stop
         id="stop3641"
         offset="0.56505984"
         style="stop-color:#f6f5f1;stop-opacity:1;" />
      <stop
         style="stop-color:#fbfcf7;stop-opacity:1"
         offset="1"
         id="stop3643" />
    </linearGradient>
    <linearGradient
       inkscape:collect="always"
       xlink:href="#linearGradient3567"
       id="linearGradient3263"
       gradientUnits="userSpaceOnUse"
       gradientTransform="matrix(0.06208426,0,0,0.06431674,-76.717609,933.07543)"
       x1="22.54203"
       y1="1043.3966"
       x2="22.54203"
       y2="964.45898" />
    <linearGradient
       id="linearGradient3567"
       inkscape:collect="always">
      <stop
         id="stop3569"
         offset="0"
         style="stop-color:#99ff93;stop-opacity:1" />
      <stop
         id="stop3571"
         offset="1"
         style="stop-color:#b1ffac;stop-opacity:1" />
    </linearGradient>
    <linearGradient
       inkscape:collect="always"
       xlink:href="#linearGradient3228"
       id="linearGradient3277"
       gradientUnits="userSpaceOnUse"
       gradientTransform="translate(-93.283012,1.1735612)"
       x1="22.54203"
       y1="1043.3966"
       x2="22.54203"
       y2="964.45898" />
    <linearGradient
       inkscape:collect="always"
       id="linearGradient3228">
      <stop
         style="stop-color:#23df28;stop-opacity:1"
         offset="0"
         id="stop3230" />
      <stop
         style="stop-color:#77fb69;stop-opacity:1"
         offset="1"
         id="stop3232" />
    </linearGradient>
    <linearGradient
       inkscape:collect="always"
       xlink:href="#linearGradient3235"
       id="linearGradient3275"
       gradientUnits="userSpaceOnUse"
       gradientTransform="translate(-93.283012,1.1735812)"
       x1="53.796227"
       y1="1046.0226"
       x2="53.796227"
       y2="962.97437" />
    <linearGradient
       id="linearGradient3235"
       inkscape:collect="always">
      <stop
         id="stop3237"
         offset="0"
         style="stop-color:#20cd26;stop-opacity:1" />
      <stop
         id="stop3239"
         offset="1"
         style="stop-color:#83fd77;stop-opacity:1" />
    </linearGradient>
    <linearGradient
       inkscape:collect="always"
       xlink:href="#linearGradient3099"
       id="linearGradient4306"
       gradientUnits="userSpaceOnUse"
       gradientTransform="matrix(0.88426923,0,0,0.88426923,93.01482,948.45787)"
       x1="-40.985512"
       y1="85.244209"
       x2="-40.985512"
       y2="40.074162" />
    <linearGradient
       inkscape:collect="always"
       xlink:href="#linearGradient4272"
       id="linearGradient4313"
       gradientUnits="userSpaceOnUse"
       gradientTransform="matrix(0.88426923,0,0,0.88426923,93.01482,948.45787)"
       x1="-40.985512"
       y1="85.244209"
       x2="-40.985512"
       y2="40.074162" />
    <linearGradient
       inkscape:collect="always"
       xlink:href="#linearGradient4296"
       id="linearGradient4302"
       x1="61.584908"
       y1="50.71698"
       x2="61.584908"
       y2="45.101883"
       gradientUnits="userSpaceOnUse" />
    <linearGradient
       inkscape:collect="always"
       xlink:href="#linearGradient4361"
       id="linearGradient4367"
       x1="28.433699"
       y1="81.142754"
       x2="28.433699"
       y2="-14.404724"
       gradientUnits="userSpaceOnUse" />
  </defs>
  <sodipodi:namedview
     id="base"
     pagecolor="#ffffff"
     bordercolor="#666666"
     borderopacity="1.0"
     inkscape:pageopacity="0.0"
     inkscape:pageshadow="2"
     inkscape:zoom="1.9519092"
     inkscape:cx="132.58095"
     inkscape:cy="22.471414"
     inkscape:document-units="px"
     inkscape:current-layer="layer1"
     showgrid="false"
     inkscape:window-width="1366"
     inkscape:window-height="675"
     inkscape:window-x="0"
     inkscape:window-y="29"
     inkscape:window-maximized="1"
     showguides="true"
     inkscape:guide-bbox="true" />
  <metadata
     id="metadata7">
    <rdf:RDF>
      <cc:Work
         rdf:about="">
        <dc:format>image/svg+xml</dc:format>
        <dc:type
           rdf:resource="http://purl.org/dc/dcmitype/StillImage" />
        <dc:title />
      </cc:Work>
    </rdf:RDF>
  </metadata>
  <g
     inkscape:label="Layer 1"
     inkscape:groupmode="layer"
     id="layer1"
     transform="translate(0,-956.36218)">
    <rect
       style="opacity:0.05;fill:#000000;fill-opacity:1;stroke:none"
       id="rect3826"
       width="89"
       height="89"
       x="3.5"
       y="960.86218"
       rx="10.595235"
       ry="10.595235" />
    <g
       id="g3041">
      <rect
         style="opacity:0.05;fill:#000000;fill-opacity:1;stroke:none"
         id="rect3824"
         width="88"
         height="88"
         x="4"
         y="961.36218"
         rx="10.476188"
         ry="10.476188" />
      <rect
         ry="10.357141"
         rx="10.357141"
         y="961.86218"
         x="4.5"
         height="87"
         width="87"
         id="rect3822"
         style="opacity:0.05;fill:#000000;fill-opacity:1;stroke:none" />
      <rect
         style="opacity:0.1;fill:#000000;fill-opacity:1;stroke:none"
         id="rect3820"
         width="86"
         height="86"
         x="5"
         y="962.36218"
         rx="10.238094"
         ry="10.238094" />
      <rect
         ry="10.119047"
         rx="10.119047"
         y="962.86218"
         x="5.5"
         height="85"
         width="85"
         id="rect3818"
         style="opacity:0.1;fill:#000000;fill-opacity:1;stroke:none" />
      <rect
         style="opacity:0.3;fill:#000000;fill-opacity:1;stroke:none"
         id="rect3131"
         width="84"
         height="84"
         x="6"
         y="963.36218"
         rx="10"
         ry="10" />
    </g>
    <rect
       ry="10"
       rx="10"
       y="962.36218"
       x="6"
       height="84"
       width="84"
       id="rect3036"
       style="fill:url(#linearGradient3074);fill-opacity:1;stroke:none" />
    <rect
       style="fill:url(#linearGradient3071);fill-opacity:1;stroke:none"
       id="rect3034"
       width="82"
       height="82"
       x="7"
       y="963.36218"
       rx="9.7619047"
       ry="9.7619047" />
    <path
       style="opacity:0.05;fill:url(#linearGradient4367);fill-opacity:1;stroke:none;stroke-width:1;stroke-linejoin:miter;stroke-miterlimit:4;stroke-dasharray:none;stroke-dashoffset:0;stroke-opacity:1"
       d="M 16.761719 7 C 15.216369 7 13.762995 7.3659924 12.466797 8 L 8 12.466797 C 7.3659924 13.762995 7 15.216369 7 16.761719 L 7 20.537109 L 20.537109 7 L 16.761719 7 z M 25.498047 7 L 7 25.498047 L 7 32.570312 L 32.568359 7 L 25.498047 7 z M 37.53125 7 L 7 37.529297 L 7 44.601562 L 44.601562 7 L 37.53125 7 z M 49.5625 7 L 7 49.560547 L 7 56.634766 L 56.632812 7 L 49.5625 7 z M 61.595703 7 L 7 61.59375 L 7 68.666016 L 68.666016 7 L 61.595703 7 z M 73.626953 7 L 7 73.626953 L 7 79.238281 C 7 79.699775 7.0421583 80.149661 7.1035156 80.59375 L 80.59375 7.1035156 C 80.149661 7.0421583 79.699775 7 79.238281 7 L 73.626953 7 z M 84.263672 8.3964844 L 8.3964844 84.261719 C 9.2678057 85.713827 10.499317 86.919802 11.978516 87.75 L 87.75 11.980469 C 86.920049 10.501111 85.715617 9.2680477 84.263672 8.3964844 z M 88.966797 16.111328 L 16.113281 88.966797 C 16.328779 88.98088 16.542538 89 16.761719 89 L 23.150391 89 L 89 23.150391 L 89 16.761719 C 89 16.54188 88.980964 16.327461 88.966797 16.111328 z M 89 28.111328 L 28.111328 89 L 35.181641 89 L 89 35.183594 L 89 28.111328 z M 89 40.142578 L 40.144531 89 L 47.214844 89 L 89 47.212891 L 89 40.142578 z M 89 52.175781 L 52.175781 89 L 59.246094 89 L 89 59.246094 L 89 52.175781 z M 89 64.207031 L 64.208984 89 L 71.279297 89 L 89 71.277344 L 89 64.207031 z M 89 76.240234 L 76.240234 89 L 79.238281 89 C 84.646376 89 89 84.646376 89 79.238281 L 89 76.240234 z "
       transform="translate(0,956.36218)"
       id="rect4313" />
    <path
       style="opacity:0.05;fill:#000000;fill-opacity:1;stroke:none"
       d="m 48.000001,986.70084 c -15.105847,0 -27.357081,10.05342 -27.357081,22.43846 0,12.3849 12.251234,22.4107 27.357081,22.4107 1.771492,0 3.49794,-0.1296 5.172781,-0.389 0.807294,-0.2375 1.628081,-0.1271 2.210938,0.046 3.023432,1.8519 6.307457,3.4188 9.223962,3.4942 -1.615295,-1.9876 -2.887051,-3.513 -2.785059,-5.503 0.09824,-0.6428 0.551978,-0.9937 1.171852,-1.3165 7.438923,-4.007 12.362605,-10.8987 12.362605,-18.7414 0,-12.38504 -12.251231,-22.43844 -27.357079,-22.43844 z"
       id="path4323"
       inkscape:connector-curvature="0"
       sodipodi:nodetypes="ssscccccss" />
    <path
       style="opacity:0.05;fill:#000000;fill-opacity:1;stroke:none"
       d="m 48.000001,985.70086 c -15.105847,0 -27.357081,10.05342 -27.357081,22.43844 0,12.3849 12.251234,22.4107 27.357081,22.4107 1.771492,0 3.49794,-0.1296 5.172781,-0.389 0.807294,-0.2375 1.628081,-0.1271 2.210938,0.046 3.023432,1.8519 6.307457,3.4188 9.223962,3.4942 -1.615295,-1.9876 -2.887051,-3.513 -2.785059,-5.503 0.09824,-0.6428 0.551978,-0.9937 1.171852,-1.3165 7.438923,-4.007 12.362605,-10.8987 12.362605,-18.7414 0,-12.38502 -12.251231,-22.43842 -27.357079,-22.43842 z"
       id="path4319"
       inkscape:connector-curvature="0"
       sodipodi:nodetypes="ssscccccss" />
    <path
       sodipodi:nodetypes="ssscccccss"
       inkscape:connector-curvature="0"
       id="path4321"
       d="m 48.000001,984.70084 c -15.105847,0 -27.357081,10.05342 -27.357081,22.43846 0,12.3849 12.251234,22.4107 27.357081,22.4107 1.771492,0 3.49794,-0.1296 5.172781,-0.389 0.807294,-0.2375 1.628081,-0.1271 2.210938,0.046 3.023432,1.8519 6.307457,3.4188 9.223962,3.4942 -1.615295,-1.9876 -2.887051,-3.513 -2.785059,-5.503 0.09824,-0.6428 0.551978,-0.9937 1.171852,-1.3165 7.438923,-4.007 12.362605,-10.8987 12.362605,-18.7414 0,-12.38504 -12.251231,-22.43844 -27.357079,-22.43844 z"
       style="opacity:0.05;fill:#000000;fill-opacity:1;stroke:none" />
    <path
       style="opacity:0.05;fill:#000000;fill-opacity:1;stroke:none"
       d="m 47,980.70593 c -15.105847,0 -27.34375,10.05246 -27.34375,22.43747 0,0.2825 0.01861,0.5638 0.03125,0.8438 0.0047,0.1036 -0.0064,0.2093 0,0.3125 -0.01264,0.28 -0.03125,0.5612 -0.03125,0.8437 0,12.3849 12.237903,22.4063 27.34375,22.4063 0.200468,0 0.394445,-0.028 0.59375,-0.031 0.06282,-10e-4 0.124796,0 0.1875,0 0.404773,0.015 0.809602,0.031 1.21875,0.031 1.771492,0 3.512659,-0.1156 5.1875,-0.375 0.0098,0 0.0216,0 0.03125,0 0.05082,0.013 0.108485,0.017 0.15625,0.031 3.023432,1.8519 6.302245,3.4246 9.21875,3.5 1.420649,0.032 3.351261,-0.039 3.811321,0 -1.91377,-1.3886 -3.660356,-3.8085 -4.373821,-6 0.206313,-0.3429 0.535676,-0.5869 0.96875,-0.8125 7.438923,-4.007 12.34375,-10.9073 12.34375,-18.75 0,-0.387 -0.0076,-0.774 -0.03125,-1.1562 0.01259,-0.2792 0.03125,-0.5621 0.03125,-0.8438 0,-12.38501 -12.237902,-22.43747 -27.34375,-22.43747 -0.335753,0 -0.667171,0.0214 -1,0.0312 -0.332829,-0.01 -0.664247,-0.0312 -1,-0.0312 z"
       id="path4290"
       inkscape:connector-curvature="0"
       sodipodi:nodetypes="csccssccscccccccscssccc" />
    <path
       sodipodi:nodetypes="ssscccccss"
       inkscape:connector-curvature="0"
       id="path4315"
       d="m 48.000001,983.70086 c -15.105847,0 -27.357081,10.05342 -27.357081,22.43844 0,12.3849 12.251234,22.4107 27.357081,22.4107 1.771492,0 3.49794,-0.1296 5.172781,-0.389 0.807294,-0.2375 1.628081,-0.1271 2.210938,0.046 3.023432,1.8519 6.307457,3.4188 9.223962,3.4942 -1.615295,-1.9876 -2.887051,-3.513 -2.785059,-5.503 0.09824,-0.6428 0.551978,-0.9937 1.171852,-1.3165 7.438923,-4.007 12.362605,-10.8987 12.362605,-18.7414 0,-12.38502 -12.251231,-22.43842 -27.357079,-22.43842 z"
       style="fill:#000000;fill-opacity:1;stroke:none;opacity:0.05" />
    <path
       style="fill:url(#linearGradient4313);fill-opacity:1;stroke:#346a8d;stroke-opacity:0.61442006;stroke-width:0.5;stroke-miterlimit:4;stroke-dasharray:none"
       d="m 48.000001,981.70086 c -15.105847,0 -27.357081,10.05342 -27.357081,22.43844 0,12.3849 12.251234,22.4107 27.357081,22.4107 1.771492,0 3.49794,-0.1296 5.172781,-0.389 0.807294,-0.2375 1.628081,-0.1271 2.210938,0.046 3.023432,1.8519 6.307457,3.4188 9.223962,3.4942 -1.615295,-1.9876 -2.887051,-3.513 -2.785059,-5.503 0.09824,-0.6428 0.551978,-0.9937 1.171852,-1.3165 7.438923,-4.007 12.362605,-10.8987 12.362605,-18.7414 0,-12.38502 -12.251231,-22.43842 -27.357079,-22.43842 z"
       id="path3094"
       inkscape:connector-curvature="0"
       sodipodi:nodetypes="ssscccccss" />
    <path
       style="fill:url(#linearGradient4302);fill-opacity:1;stroke:none"
       d="M 34.320312 43.966797 C 32.120641 43.966797 30.335937 45.751472 30.335938 47.951172 C 30.335938 50.150972 32.120641 51.935547 34.320312 51.935547 C 36.519976 51.935547 38.304687 50.150972 38.304688 47.951172 C 38.304688 45.751472 36.519977 43.966797 34.320312 43.966797 z M 48.007812 43.966797 C 45.808138 43.966797 44.025391 45.751472 44.025391 47.951172 C 44.025391 50.150972 45.808139 51.935547 48.007812 51.935547 C 50.207476 51.935547 51.992188 50.150972 51.992188 47.951172 C 51.992188 45.751472 50.207477 43.966797 48.007812 43.966797 z M 61.679688 43.966797 C 59.480016 43.966797 57.695313 45.751472 57.695312 47.951172 C 57.695312 50.150972 59.480016 51.935547 61.679688 51.935547 C 63.879351 51.935547 65.664062 50.150972 65.664062 47.951172 C 65.664062 45.751472 63.879351 43.966797 61.679688 43.966797 z "
       transform="translate(0,956.36218)"
       id="path3086" />
    <path
       style="fill:#ffffff;fill-opacity:1;stroke:none;opacity:0.5"
       d="M 16.761719 7 C 11.353624 7 7 11.353624 7 16.761719 L 7 17.761719 C 7 12.353624 11.353624 8 16.761719 8 L 79.238281 8 C 84.646376 8 89 12.353624 89 17.761719 L 89 16.761719 C 89 11.353624 84.646376 7 79.238281 7 L 16.761719 7 z "
       transform="translate(0,956.36218)"
       id="rect4278" />
    <path
       style="fill:#ffffff;fill-opacity:1;stroke:none;opacity:0.3"
       d="M 30.386719 48.451172 C 30.36572 48.616789 30.335937 48.779875 30.335938 48.951172 C 30.335938 51.150972 32.120642 52.935547 34.320312 52.935547 C 36.519976 52.935547 38.304687 51.150972 38.304688 48.951172 C 38.304688 48.779875 38.274905 48.616789 38.253906 48.451172 C 38.00525 50.41238 36.348683 51.935547 34.320312 51.935547 C 32.291936 51.935547 30.635373 50.41238 30.386719 48.451172 z M 44.076172 48.451172 C 44.055195 48.616789 44.025391 48.779875 44.025391 48.951172 C 44.025391 51.150972 45.808139 52.935547 48.007812 52.935547 C 50.207476 52.935547 51.992188 51.150972 51.992188 48.951172 C 51.992188 48.779875 51.962405 48.616789 51.941406 48.451172 C 51.692751 50.41238 50.036183 51.935547 48.007812 51.935547 C 45.979434 51.935547 44.324568 50.41238 44.076172 48.451172 z M 57.746094 48.451172 C 57.725095 48.616789 57.695313 48.779875 57.695312 48.951172 C 57.695312 51.150972 59.480016 52.935547 61.679688 52.935547 C 63.879351 52.935547 65.664062 51.150972 65.664062 48.951172 C 65.664062 48.779875 65.63428 48.616789 65.613281 48.451172 C 65.364626 50.41238 63.708057 51.935547 61.679688 51.935547 C 59.65131 51.935547 57.994748 50.41238 57.746094 48.451172 z "
       transform="translate(0,956.36218)"
       id="path4291" />
    <path
       style="fill:#000000;fill-opacity:1;stroke:none;opacity:0.2"
       d="M 34.320312 43.966797 C 32.120641 43.966797 30.335937 45.751472 30.335938 47.951172 C 30.335938 48.122476 30.36572 48.28555 30.386719 48.451172 C 30.635373 46.490029 32.291936 44.966797 34.320312 44.966797 C 36.348683 44.966797 38.005251 46.490029 38.253906 48.451172 C 38.274905 48.28555 38.304687 48.122476 38.304688 47.951172 C 38.304688 45.751472 36.519977 43.966797 34.320312 43.966797 z M 48.007812 43.966797 C 45.808138 43.966797 44.025391 45.751472 44.025391 47.951172 C 44.025391 48.122476 44.055195 48.28555 44.076172 48.451172 C 44.324567 46.490029 45.979433 44.966797 48.007812 44.966797 C 50.036183 44.966797 51.692751 46.490029 51.941406 48.451172 C 51.962405 48.28555 51.992188 48.122476 51.992188 47.951172 C 51.992188 45.751472 50.207477 43.966797 48.007812 43.966797 z M 61.679688 43.966797 C 59.480016 43.966797 57.695313 45.751472 57.695312 47.951172 C 57.695312 48.122476 57.725095 48.28555 57.746094 48.451172 C 57.994749 46.490029 59.65131 44.966797 61.679688 44.966797 C 63.708057 44.966797 65.364626 46.490029 65.613281 48.451172 C 65.63428 48.28555 65.664062 48.122476 65.664062 47.951172 C 65.664062 45.751472 63.879351 43.966797 61.679688 43.966797 z "
       transform="translate(0,956.36218)"
       id="path4304" />
  </g>
</svg>
