<?xml version="1.0" encoding="UTF-8" standalone="no"?>
<!-- Created with Inkscape (http://www.inkscape.org/) -->

<svg
   xmlns:dc="http://purl.org/dc/elements/1.1/"
   xmlns:cc="http://creativecommons.org/ns#"
   xmlns:rdf="http://www.w3.org/1999/02/22-rdf-syntax-ns#"
   xmlns:svg="http://www.w3.org/2000/svg"
   xmlns="http://www.w3.org/2000/svg"
   xmlns:xlink="http://www.w3.org/1999/xlink"
   xmlns:sodipodi="http://sodipodi.sourceforge.net/DTD/sodipodi-0.dtd"
   xmlns:inkscape="http://www.inkscape.org/namespaces/inkscape"
   width="96"
   height="96"
   id="svg2"
   version="1.1"
   inkscape:version="0.91 r13725"
   sodipodi:docname="web-browser.svg">
  <defs
     id="defs4">
    <linearGradient
       id="linearGradient4294"
       inkscape:collect="always">
      <stop
         id="stop4296"
         offset="0"
         style="stop-color:#48baec;stop-opacity:1" />
      <stop
         style="stop-color:#3692ca;stop-opacity:1"
         offset="0.61279738"
         id="stop4298" />
      <stop
         id="stop4300"
         offset="1"
         style="stop-color:#2468a6;stop-opacity:1" />
    </linearGradient>
    <linearGradient
       inkscape:collect="always"
       id="linearGradient4142">
      <stop
         style="stop-color:#ffffff;stop-opacity:0.5"
         offset="0"
         id="stop4144" />
      <stop
         style="stop-color:#ffffff;stop-opacity:0;"
         offset="1"
         id="stop4146" />
    </linearGradient>
    <linearGradient
       id="linearGradient4130"
       inkscape:collect="always">
      <stop
         id="stop4132"
         offset="0"
         style="stop-color:#5080b3;stop-opacity:1" />
      <stop
         id="stop4136"
         offset="1"
         style="stop-color:#203e80;stop-opacity:1" />
    </linearGradient>
    <linearGradient
       inkscape:collect="always"
       id="linearGradient3914">
      <stop
         style="stop-color:#b23905;stop-opacity:1"
         offset="0"
         id="stop3916" />
      <stop
         style="stop-color:#ff5208;stop-opacity:1"
         offset="1"
         id="stop3918" />
    </linearGradient>
    <linearGradient
       inkscape:collect="always"
       id="linearGradient3904">
      <stop
         style="stop-color:#b2b2b2;stop-opacity:1"
         offset="0"
         id="stop3906" />
      <stop
         style="stop-color:#ffffff;stop-opacity:1"
         offset="1"
         id="stop3908" />
    </linearGradient>
    <linearGradient
       inkscape:collect="always"
       id="linearGradient3896">
      <stop
         style="stop-color:#19e5ff;stop-opacity:1"
         offset="0"
         id="stop3898" />
      <stop
         id="stop4030"
         offset="0.61279738"
         style="stop-color:#0091d5;stop-opacity:1" />
      <stop
         style="stop-color:#1d52ee;stop-opacity:1"
         offset="1"
         id="stop3900" />
    </linearGradient>
    <linearGradient
       inkscape:collect="always"
       id="linearGradient3100">
      <stop
         style="stop-color:#674bad;stop-opacity:1"
         offset="0"
         id="stop3102" />
      <stop
         id="stop3108"
         offset="0.78494465"
         style="stop-color:#6349a5;stop-opacity:1" />
      <stop
         style="stop-color:#53368d;stop-opacity:1"
         offset="1"
         id="stop3104" />
    </linearGradient>
    <linearGradient
       id="linearGradient3094"
       inkscape:collect="always">
      <stop
         id="stop3096"
         offset="0"
         style="stop-color:#f7efff;stop-opacity:1" />
      <stop
         id="stop3098"
         offset="1"
         style="stop-color:#9479de;stop-opacity:1" />
    </linearGradient>
    <linearGradient
       inkscape:collect="always"
       id="linearGradient3081">
      <stop
         style="stop-color:#efe0ff;stop-opacity:1"
         offset="0"
         id="stop3084" />
      <stop
         style="stop-color:#856ad6;stop-opacity:1"
         offset="1"
         id="stop3086" />
    </linearGradient>
    <linearGradient
       id="linearGradient3076"
       inkscape:collect="always">
      <stop
         id="stop3078"
         offset="0"
         style="stop-color:#ffe7f7;stop-opacity:1" />
      <stop
         id="stop3080"
         offset="1"
         style="stop-color:#ffc3ef;stop-opacity:1" />
    </linearGradient>
    <linearGradient
       id="linearGradient3070"
       inkscape:collect="always">
      <stop
         id="stop3072"
         offset="0"
         style="stop-color:#b7c0bf;stop-opacity:1" />
      <stop
         id="stop3074"
         offset="1"
         style="stop-color:#fefcfd;stop-opacity:1" />
    </linearGradient>
    <linearGradient
       inkscape:collect="always"
       id="linearGradient3048">
      <stop
         style="stop-color:#c16d16;stop-opacity:1"
         offset="0"
         id="stop3050" />
      <stop
         style="stop-color:#ff8e31;stop-opacity:1"
         offset="1"
         id="stop3052" />
    </linearGradient>
    <linearGradient
       inkscape:collect="always"
       id="linearGradient3119">
      <stop
         style="stop-color:#92948f;stop-opacity:0"
         offset="0"
         id="stop3121" />
      <stop
         id="stop3123"
         offset="0.4283945"
         style="stop-color:#9b9e98;stop-opacity:1" />
      <stop
         style="stop-color:#939690;stop-opacity:0"
         offset="1"
         id="stop3125" />
    </linearGradient>
    <linearGradient
       id="linearGradient3073"
       inkscape:collect="always">
      <stop
         id="stop3075"
         offset="0"
         style="stop-color:#ffffff;stop-opacity:0" />
      <stop
         style="stop-color:#ffffff;stop-opacity:1"
         offset="0.45872402"
         id="stop3085" />
      <stop
         id="stop3083"
         offset="1"
         style="stop-color:#ffffff;stop-opacity:0" />
    </linearGradient>
    <linearGradient
       inkscape:collect="always"
       id="linearGradient3047">
      <stop
         style="stop-color:#000000;stop-opacity:1"
         offset="0"
         id="stop3049" />
      <stop
         id="stop3055"
         offset="0.06123874"
         style="stop-color:#1a1a1a;stop-opacity:1" />
      <stop
         style="stop-color:#333333;stop-opacity:1"
         offset="0.16480456"
         id="stop3057" />
      <stop
         id="stop3059"
         offset="0.55385184"
         style="stop-color:#4d4d4d;stop-opacity:1" />
      <stop
         style="stop-color:#999999;stop-opacity:1"
         offset="1"
         id="stop3051" />
    </linearGradient>
    <linearGradient
       id="linearGradient3041"
       inkscape:collect="always">
      <stop
         id="stop3043"
         offset="0"
         style="stop-color:#1a1a1a;stop-opacity:1" />
      <stop
         id="stop3045"
         offset="1"
         style="stop-color:#808080;stop-opacity:1" />
    </linearGradient>
    <linearGradient
       inkscape:collect="always"
       id="linearGradient3029">
      <stop
         style="stop-color:#333333;stop-opacity:1"
         offset="0"
         id="stop3031" />
      <stop
         style="stop-color:#e0e0dd;stop-opacity:0;"
         offset="1"
         id="stop3033" />
    </linearGradient>
    <linearGradient
       inkscape:collect="always"
       xlink:href="#linearGradient3029"
       id="linearGradient3035"
       x1="35.355339"
       y1="1030.3622"
       x2="35.355339"
       y2="975.33282"
       gradientUnits="userSpaceOnUse"
       gradientTransform="matrix(1.1638085,0,0,1.1638085,-7.862809,-164.23642)" />
    <linearGradient
       inkscape:collect="always"
       xlink:href="#linearGradient3041"
       id="linearGradient3039"
       gradientUnits="userSpaceOnUse"
       x1="35.355339"
       y1="1030.3622"
       x2="35.355339"
       y2="975.33282"
       gradientTransform="matrix(1.1218695,0,0,1.1218695,-5.8497348,-122.18782)" />
    <linearGradient
       inkscape:collect="always"
       xlink:href="#linearGradient3047"
       id="linearGradient3053"
       x1="40"
       y1="1043.4336"
       x2="39.285713"
       y2="972.33325"
       gradientUnits="userSpaceOnUse" />
    <linearGradient
       inkscape:collect="always"
       xlink:href="#linearGradient3073"
       id="linearGradient3113"
       gradientUnits="userSpaceOnUse"
       gradientTransform="translate(0,-956.36218)"
       x1="14.869445"
       y1="978.90387"
       x2="24.52651"
       y2="969.24683" />
    <linearGradient
       inkscape:collect="always"
       xlink:href="#linearGradient3073"
       id="linearGradient3115"
       gradientUnits="userSpaceOnUse"
       gradientTransform="matrix(-1,0,0,1,96,-956.36218)"
       x1="15.152279"
       y1="978.62103"
       x2="26.263966"
       y2="967.50934" />
    <linearGradient
       inkscape:collect="always"
       xlink:href="#linearGradient3119"
       id="linearGradient3117"
       gradientUnits="userSpaceOnUse"
       gradientTransform="translate(0,-956.36218)"
       x1="13.131983"
       y1="980.64136"
       x2="25.549681"
       y2="967.86646" />
    <linearGradient
       inkscape:collect="always"
       xlink:href="#linearGradient3119"
       id="linearGradient3129"
       gradientUnits="userSpaceOnUse"
       gradientTransform="matrix(-1,0,0,1,96,0)"
       x1="13.131983"
       y1="980.64136"
       x2="25.549681"
       y2="967.86646" />
    <linearGradient
       inkscape:collect="always"
       xlink:href="#linearGradient3048"
       id="linearGradient3054"
       x1="49.267925"
       y1="996.57349"
       x2="49.267925"
       y2="1045.8627"
       gradientUnits="userSpaceOnUse" />
    <linearGradient
       inkscape:collect="always"
       xlink:href="#linearGradient3048"
       id="linearGradient3058"
       x1="115.80308"
       y1="985.47241"
       x2="115.80308"
       y2="1033.5543"
       gradientUnits="userSpaceOnUse" />
    <linearGradient
       inkscape:collect="always"
       xlink:href="#linearGradient3070"
       id="linearGradient3068"
       x1="53.796227"
       y1="1046.0226"
       x2="53.796227"
       y2="962.97437"
       gradientUnits="userSpaceOnUse" />
    <linearGradient
       inkscape:collect="always"
       xlink:href="#linearGradient3076"
       id="linearGradient3086"
       gradientUnits="userSpaceOnUse"
       gradientTransform="matrix(1.4144782,0,0,1.4144782,-119.78686,-417.12598)"
       x1="115.80308"
       y1="985.47241"
       x2="115.80308"
       y2="1025.3639" />
    <linearGradient
       inkscape:collect="always"
       xlink:href="#linearGradient3076"
       id="linearGradient3091"
       gradientUnits="userSpaceOnUse"
       gradientTransform="matrix(1.4144782,0,0,1.4144782,-119.78686,-418.126)"
       x1="115.80308"
       y1="985.47241"
       x2="115.80308"
       y2="1025.3639" />
    <linearGradient
       inkscape:collect="always"
       xlink:href="#linearGradient3076"
       id="linearGradient3093"
       gradientUnits="userSpaceOnUse"
       gradientTransform="matrix(1.4144782,0,0,1.4144782,-119.78686,-1375.4171)"
       x1="115.80308"
       y1="985.47241"
       x2="115.80308"
       y2="1025.3639" />
    <linearGradient
       inkscape:collect="always"
       xlink:href="#linearGradient3081"
       id="linearGradient3090"
       x1="-20.649057"
       y1="62.852829"
       x2="-32.603775"
       y2="29.524527"
       gradientUnits="userSpaceOnUse" />
    <linearGradient
       inkscape:collect="always"
       xlink:href="#linearGradient3094"
       id="linearGradient3092"
       x1="-43.055187"
       y1="35.788605"
       x2="-32.545868"
       y2="68.067245"
       gradientUnits="userSpaceOnUse" />
    <radialGradient
       inkscape:collect="always"
       xlink:href="#linearGradient3100"
       id="radialGradient3106"
       cx="-31.392059"
       cy="57.992264"
       fx="-31.392059"
       fy="57.992264"
       r="25.901888"
       gradientUnits="userSpaceOnUse"
       gradientTransform="matrix(0.31344215,-1.1697821,1.1394338,0.30531037,-91.708219,0.33247747)" />
    <linearGradient
       inkscape:collect="always"
       xlink:href="#linearGradient3081"
       id="linearGradient3112"
       gradientUnits="userSpaceOnUse"
       x1="-20.649057"
       y1="62.852829"
       x2="-32.603775"
       y2="29.524527"
       gradientTransform="matrix(-0.99999697,0.00246307,-0.00246307,-0.99999697,-73.952566,1052.4049)" />
    <linearGradient
       inkscape:collect="always"
       xlink:href="#linearGradient3081"
       id="linearGradient3126"
       gradientUnits="userSpaceOnUse"
       x1="-20.649057"
       y1="62.852829"
       x2="-32.603775"
       y2="29.524527" />
    <radialGradient
       inkscape:collect="always"
       xlink:href="#linearGradient3100"
       id="radialGradient3128"
       gradientUnits="userSpaceOnUse"
       gradientTransform="matrix(0.31344215,-1.1697821,1.1394338,0.30531037,-91.708219,0.33247747)"
       cx="-31.392059"
       cy="57.992264"
       fx="-31.392059"
       fy="57.992264"
       r="25.901888" />
    <linearGradient
       inkscape:collect="always"
       xlink:href="#linearGradient3914"
       id="linearGradient4026"
       gradientUnits="userSpaceOnUse"
       x1="-135.3233"
       y1="26.672575"
       x2="-137.29662"
       y2="26.672575" />
    <linearGradient
       inkscape:collect="always"
       xlink:href="#linearGradient3904"
       id="linearGradient4028"
       gradientUnits="userSpaceOnUse"
       x1="-135.48145"
       y1="26.320959"
       x2="-137.15257"
       y2="26.320959" />
    <radialGradient
       inkscape:collect="always"
       xlink:href="#linearGradient3896"
       id="radialGradient4124"
       gradientUnits="userSpaceOnUse"
       gradientTransform="matrix(-0.87764866,0.87764865,-0.86205882,-0.86205882,-112.29142,125.88504)"
       cx="-76.28595"
       cy="33.515736"
       fx="-76.28595"
       fy="33.515736"
       r="30.226814" />
    <linearGradient
       inkscape:collect="always"
       xlink:href="#linearGradient4130"
       id="linearGradient4128"
       x1="-78.988731"
       y1="11.088282"
       x2="-78.988731"
       y2="70.906105"
       gradientUnits="userSpaceOnUse" />
    <linearGradient
       inkscape:collect="always"
       xlink:href="#linearGradient4142"
       id="linearGradient4148"
       x1="-70.547325"
       y1="71.90345"
       x2="-70.547325"
       y2="11.976096"
       gradientUnits="userSpaceOnUse" />
    <radialGradient
       inkscape:collect="always"
       xlink:href="#linearGradient4294"
       id="radialGradient4152"
       gradientUnits="userSpaceOnUse"
       gradientTransform="matrix(-0.87764866,0.87764865,-0.86205882,-0.86205882,-112.29142,125.88504)"
       cx="-77.890083"
       cy="33.697197"
       fx="-77.890083"
       fy="33.697197"
       r="30.226814" />
  </defs>
  <sodipodi:namedview
     id="base"
     pagecolor="#ffffff"
     bordercolor="#666666"
     borderopacity="1.0"
     inkscape:pageopacity="0.0"
     inkscape:pageshadow="2"
     inkscape:zoom="1.9519093"
     inkscape:cx="146.26551"
     inkscape:cy="37.807911"
     inkscape:document-units="px"
     inkscape:current-layer="layer1"
     showgrid="false"
     inkscape:window-width="1366"
     inkscape:window-height="675"
     inkscape:window-x="0"
     inkscape:window-y="29"
     inkscape:window-maximized="1"
     showguides="true"
     inkscape:guide-bbox="true" />
  <metadata
     id="metadata7">
    <rdf:RDF>
      <cc:Work
         rdf:about="">
        <dc:format>image/svg+xml</dc:format>
        <dc:type
           rdf:resource="http://purl.org/dc/dcmitype/StillImage" />
        <dc:title />
      </cc:Work>
    </rdf:RDF>
  </metadata>
  <g
     inkscape:label="Layer 1"
     inkscape:groupmode="layer"
     id="layer1"
     transform="translate(0,-956.36218)">
    <rect
       style="opacity:0.05;fill:#000000;fill-opacity:1;stroke:none"
       id="rect3826"
       width="89"
       height="89"
       x="3.5"
       y="960.86218"
       rx="10.595235"
       ry="10.595235" />
    <g
       id="g3041">
      <rect
         style="opacity:0.05;fill:#000000;fill-opacity:1;stroke:none"
         id="rect3824"
         width="88"
         height="88"
         x="4"
         y="961.36218"
         rx="10.476188"
         ry="10.476188" />
      <rect
         ry="10.357141"
         rx="10.357141"
         y="961.86218"
         x="4.5"
         height="87"
         width="87"
         id="rect3822"
         style="opacity:0.05;fill:#000000;fill-opacity:1;stroke:none" />
      <rect
         style="opacity:0.1;fill:#000000;fill-opacity:1;stroke:none"
         id="rect3820"
         width="86"
         height="86"
         x="5"
         y="962.36218"
         rx="10.238094"
         ry="10.238094" />
      <rect
         ry="10.119047"
         rx="10.119047"
         y="962.86218"
         x="5.5"
         height="85"
         width="85"
         id="rect3818"
         style="opacity:0.1;fill:#000000;fill-opacity:1;stroke:none" />
      <rect
         style="opacity:0.3;fill:#000000;fill-opacity:1;stroke:none"
         id="rect3131"
         width="84"
         height="84"
         x="6"
         y="963.36218"
         rx="10"
         ry="10" />
    </g>
    <rect
       ry="10"
       rx="10"
       y="962.36218"
       x="6"
       height="84"
       width="84"
       id="rect3036"
       style="fill:url(#linearGradient3068);fill-opacity:1;stroke:none" />
    <path
       transform="matrix(1.2240787,0,0,1.2240787,138.9322,953.01164)"
       d="M -44.059425,41.950356 A 30.226814,30.226814 0 0 1 -74.28624,72.17717 30.226814,30.226814 0 0 1 -104.51305,41.950356 30.226814,30.226814 0 0 1 -74.28624,11.723541 30.226814,30.226814 0 0 1 -44.059425,41.950356 Z"
       sodipodi:ry="30.226814"
       sodipodi:rx="30.226814"
       sodipodi:cy="41.950356"
       sodipodi:cx="-74.28624"
       id="path4138"
       style="fill:url(#linearGradient4148);fill-opacity:1;stroke:none"
       sodipodi:type="arc" />
    <path
       sodipodi:type="arc"
       style="opacity:1;fill:url(#linearGradient4128);fill-opacity:1;stroke:none"
       id="path3783"
       sodipodi:cx="-74.28624"
       sodipodi:cy="41.950356"
       sodipodi:rx="30.226814"
       sodipodi:ry="30.226814"
       d="M -44.059425,41.950356 A 30.226814,30.226814 0 0 1 -74.28624,72.17717 30.226814,30.226814 0 0 1 -104.51305,41.950356 30.226814,30.226814 0 0 1 -74.28624,11.723541 30.226814,30.226814 0 0 1 -44.059425,41.950356 Z"
       transform="matrix(1.1909955,0,0,1.1909955,136.47458,954.3995)" />
    <path
       transform="matrix(1.1579123,0,0,1.1579123,134.01695,955.78735)"
       d="M -44.059425,41.950356 A 30.226814,30.226814 0 0 1 -74.28624,72.17717 30.226814,30.226814 0 0 1 -104.51305,41.950356 30.226814,30.226814 0 0 1 -74.28624,11.723541 30.226814,30.226814 0 0 1 -44.059425,41.950356 Z"
       sodipodi:ry="30.226814"
       sodipodi:rx="30.226814"
       sodipodi:cy="41.950356"
       sodipodi:cx="-74.28624"
       id="path4122"
       style="fill:url(#radialGradient4152);fill-opacity:1;stroke:none"
       sodipodi:type="arc" />
    <g
       id="g3977"
       transform="matrix(0.8660254,0.5,-0.5,0.8660254,508.61187,110.55902)">
      <rect
         ry="0"
         rx="0"
         y="1031.5039"
         x="47.669811"
         height="6.2578158"
         width="0.66037732"
         id="rect3795"
         style="fill:#ffffff;fill-opacity:1;stroke:none" />
      <rect
         transform="scale(1,-1)"
         style="fill:#ffffff;fill-opacity:1;stroke:none"
         id="rect3801"
         width="0.66037732"
         height="6.2578158"
         x="47.669811"
         y="-977.22046"
         rx="0"
         ry="0" />
      <rect
         transform="matrix(0,1,-1,0,0,0)"
         style="fill:#ffffff;fill-opacity:1;stroke:none"
         id="rect3803"
         width="0.66037732"
         height="6.2578158"
         x="1004.032"
         y="-20.858273"
         rx="0"
         ry="0" />
      <rect
         ry="0"
         rx="0"
         y="75.141724"
         x="1004.032"
         height="6.2578158"
         width="0.66037732"
         id="rect3805"
         style="fill:#ffffff;fill-opacity:1;stroke:none"
         transform="matrix(0,1,1,0,0,0)" />
      <rect
         transform="matrix(0.8660254,0.5,-0.5,0.8660254,0,0)"
         style="fill:#ffffff;fill-opacity:1;stroke:none"
         id="rect3811"
         width="0.66037732"
         height="6.2578158"
         x="543.4201"
         y="872.94489"
         rx="0"
         ry="0" />
      <rect
         ry="0"
         rx="0"
         y="-818.66144"
         x="543.4201"
         height="6.2578158"
         width="0.66037732"
         id="rect3813"
         style="fill:#ffffff;fill-opacity:1;stroke:none"
         transform="matrix(0.8660254,0.5,0.5,-0.8660254,0,0)" />
      <rect
         ry="0"
         rx="0"
         y="-516.60858"
         x="845.47296"
         height="6.2578158"
         width="0.66037732"
         id="rect3815"
         style="fill:#ffffff;fill-opacity:1;stroke:none"
         transform="matrix(-0.5,0.8660254,-0.8660254,-0.5,0,0)" />
      <rect
         transform="matrix(-0.5,0.8660254,0.8660254,0.5,0,0)"
         style="fill:#ffffff;fill-opacity:1;stroke:none"
         id="rect3817"
         width="0.66037732"
         height="6.2578158"
         x="845.47296"
         y="570.89203"
         rx="0"
         ry="0" />
      <rect
         transform="matrix(0.5,0.8660254,-0.8660254,0.5,0,0)"
         ry="0"
         rx="0"
         y="487.7536"
         x="893.47296"
         height="6.2578158"
         width="0.66037732"
         id="rect3827"
         style="fill:#ffffff;fill-opacity:1;stroke:none" />
      <rect
         transform="matrix(0.5,0.8660254,0.8660254,-0.5,0,0)"
         style="fill:#ffffff;fill-opacity:1;stroke:none"
         id="rect3829"
         width="0.66037732"
         height="6.2578158"
         x="893.47296"
         y="-433.47015"
         rx="0"
         ry="0" />
      <rect
         transform="matrix(-0.8660254,0.5,-0.5,-0.8660254,0,0)"
         style="fill:#ffffff;fill-opacity:1;stroke:none"
         id="rect3831"
         width="0.66037732"
         height="6.2578158"
         x="460.28168"
         y="-866.66144"
         rx="0"
         ry="0" />
      <rect
         ry="0"
         rx="0"
         y="920.94489"
         x="460.28168"
         height="6.2578158"
         width="0.66037732"
         id="rect3833"
         style="fill:#ffffff;fill-opacity:1;stroke:none"
         transform="matrix(-0.8660254,0.5,0.5,0.8660254,0,0)" />
    </g>
    <g
       transform="matrix(0.70710678,0.70710678,-0.70710678,0.70710678,724.25018,260.22975)"
       id="g3991">
      <rect
         style="fill:#ffffff;fill-opacity:1;stroke:none"
         id="rect3993"
         width="0.66037732"
         height="6.2578158"
         x="47.669811"
         y="1031.5039"
         rx="0"
         ry="0" />
      <rect
         ry="0"
         rx="0"
         y="-977.22046"
         x="47.669811"
         height="6.2578158"
         width="0.66037732"
         id="rect3995"
         style="fill:#ffffff;fill-opacity:1;stroke:none"
         transform="scale(1,-1)" />
      <rect
         ry="0"
         rx="0"
         y="-20.858273"
         x="1004.032"
         height="6.2578158"
         width="0.66037732"
         id="rect3997"
         style="fill:#ffffff;fill-opacity:1;stroke:none"
         transform="matrix(0,1,-1,0,0,0)" />
      <rect
         transform="matrix(0,1,1,0,0,0)"
         style="fill:#ffffff;fill-opacity:1;stroke:none"
         id="rect3999"
         width="0.66037732"
         height="6.2578158"
         x="1004.032"
         y="75.141724"
         rx="0"
         ry="0" />
      <rect
         ry="0"
         rx="0"
         y="872.94489"
         x="543.4201"
         height="6.2578158"
         width="0.66037732"
         id="rect4001"
         style="fill:#ffffff;fill-opacity:1;stroke:none"
         transform="matrix(0.8660254,0.5,-0.5,0.8660254,0,0)" />
      <rect
         transform="matrix(0.8660254,0.5,0.5,-0.8660254,0,0)"
         style="fill:#ffffff;fill-opacity:1;stroke:none"
         id="rect4003"
         width="0.66037732"
         height="6.2578158"
         x="543.4201"
         y="-818.66144"
         rx="0"
         ry="0" />
      <rect
         transform="matrix(-0.5,0.8660254,-0.8660254,-0.5,0,0)"
         style="fill:#ffffff;fill-opacity:1;stroke:none"
         id="rect4005"
         width="0.66037732"
         height="6.2578158"
         x="845.47296"
         y="-516.60858"
         rx="0"
         ry="0" />
      <rect
         ry="0"
         rx="0"
         y="570.89203"
         x="845.47296"
         height="6.2578158"
         width="0.66037732"
         id="rect4007"
         style="fill:#ffffff;fill-opacity:1;stroke:none"
         transform="matrix(-0.5,0.8660254,0.8660254,0.5,0,0)" />
      <rect
         style="fill:#ffffff;fill-opacity:1;stroke:none"
         id="rect4009"
         width="0.66037732"
         height="6.2578158"
         x="893.47296"
         y="487.7536"
         rx="0"
         ry="0"
         transform="matrix(0.5,0.8660254,-0.8660254,0.5,0,0)" />
      <rect
         ry="0"
         rx="0"
         y="-433.47015"
         x="893.47296"
         height="6.2578158"
         width="0.66037732"
         id="rect4011"
         style="fill:#ffffff;fill-opacity:1;stroke:none"
         transform="matrix(0.5,0.8660254,0.8660254,-0.5,0,0)" />
      <rect
         ry="0"
         rx="0"
         y="-866.66144"
         x="460.28168"
         height="6.2578158"
         width="0.66037732"
         id="rect4013"
         style="fill:#ffffff;fill-opacity:1;stroke:none"
         transform="matrix(-0.8660254,0.5,-0.5,-0.8660254,0,0)" />
      <rect
         transform="matrix(-0.8660254,0.5,0.5,0.8660254,0,0)"
         style="fill:#ffffff;fill-opacity:1;stroke:none"
         id="rect4015"
         width="0.66037732"
         height="6.2578158"
         x="460.28168"
         y="920.94489"
         rx="0"
         ry="0" />
    </g>
    <path
       inkscape:connector-curvature="0"
       style="opacity:0.05;fill:#000000;fill-opacity:1;stroke:none"
       d="M 75.465235,982.61743 47.29147,1003.8085 26.100329,1031.9823 54.27415,1010.7912 75.465235,982.61743 Z"
       id="path3937" />
    <path
       id="path3935"
       d="m 76.172342,983.32454 -28.173765,21.19106 -21.191142,28.1738 28.173821,-21.1911 21.191086,-28.17376 z"
       style="opacity:0.05;fill:#000000;fill-opacity:1;stroke:none"
       inkscape:connector-curvature="0" />
    <path
       inkscape:connector-curvature="0"
       style="opacity:0.05;fill:#000000;fill-opacity:1;stroke:none"
       d="m 74.758128,981.91033 -28.173765,21.19107 -21.191141,28.1738 28.173821,-21.1911 21.191085,-28.17377 z"
       id="path3933" />
    <path
       id="path3931"
       d="M 73.343914,980.49611 45.17015,1001.6872 23.979008,1029.861 52.152829,1008.6699 73.343914,980.49611 Z"
       style="opacity:0.05;fill:#000000;fill-opacity:1;stroke:none"
       inkscape:connector-curvature="0" />
    <path
       inkscape:connector-curvature="0"
       style="opacity:0.05;fill:#000000;fill-opacity:1;stroke:none"
       d="m 74.051198,981.20375 -28.173786,21.19115 -21.191106,28.1737 28.173785,-21.1911 21.191107,-28.17375 z"
       id="path3922" />
    <path
       sodipodi:type="star"
       style="fill:url(#linearGradient4026);fill-opacity:1;stroke:none"
       id="path3785"
       sodipodi:sides="3"
       sodipodi:cx="-136.0302"
       sodipodi:cy="22.822639"
       sodipodi:r1="14.096918"
       sodipodi:r2="7.0484586"
       sodipodi:arg1="2.6179939"
       sodipodi:arg2="3.6651914"
       inkscape:flatsided="true"
       inkscape:rounded="0"
       inkscape:randomized="0"
       d="M -148.23849,29.871098 -136.0302,8.7257214 -123.82191,29.871099 Z"
       transform="matrix(0.28611227,0.28611227,-1.1675312,1.1675312,121.74988,1008.5165)"
       inkscape:transform-center-y="-17.456946"
       inkscape:transform-center-x="-2.3757271e-05" />
    <path
       inkscape:transform-center-y="17.456959"
       transform="matrix(0.28611227,0.28611227,1.1675312,-1.1675312,51.998991,1078.2673)"
       d="M -148.23849,29.871098 -136.0302,8.7257214 -123.82191,29.871099 Z"
       inkscape:randomized="0"
       inkscape:rounded="0"
       inkscape:flatsided="true"
       sodipodi:arg2="3.6651914"
       sodipodi:arg1="2.6179939"
       sodipodi:r2="7.0484586"
       sodipodi:r1="14.096918"
       sodipodi:cy="22.822639"
       sodipodi:cx="-136.0302"
       sodipodi:sides="3"
       id="path3789"
       style="fill:url(#linearGradient4028);fill-opacity:1;stroke:none"
       sodipodi:type="star"
       inkscape:transform-center-x="2.5790037e-05" />
    <rect
       transform="matrix(-0.12773642,0.99180815,-0.99180815,-0.12773642,0,0)"
       style="fill:#e6e6e6;fill-opacity:1;stroke:none"
       id="rect4062"
       width="0.66037732"
       height="3.4049857"
       x="989.67303"
       y="-145.90587"
       rx="0"
       ry="0" />
    <rect
       ry="0"
       rx="0"
       y="206.39311"
       x="989.67303"
       height="2.9068723"
       width="0.66037732"
       id="rect4064"
       style="fill:#e6e6e6;fill-opacity:1;stroke:none"
       transform="matrix(-0.12773642,0.99180815,0.99180815,0.12773642,0,0)" />
    <rect
       ry="0"
       rx="0"
       y="-958.914"
       x="-182.28426"
       height="3.4049857"
       width="0.66037732"
       id="rect4078"
       style="fill:#e6e6e6;fill-opacity:1;stroke:none"
       transform="matrix(-0.99100809,-0.133802,0.133802,-0.99100809,0,0)" />
    <rect
       transform="matrix(-0.99100809,-0.133802,-0.133802,0.99100809,0,0)"
       style="fill:#e6e6e6;fill-opacity:1;stroke:none"
       id="rect4080"
       width="0.66037732"
       height="2.9068723"
       x="-182.28426"
       y="1019.4012"
       rx="0"
       ry="0" />
    <rect
       ry="0"
       rx="0"
       y="-916.10364"
       x="340.17767"
       height="3.4049857"
       width="0.66037732"
       id="rect4082"
       style="fill:#e6e6e6;fill-opacity:1;stroke:none"
       transform="matrix(-0.92367665,0.38317287,-0.38317287,-0.92367665,0,0)" />
    <rect
       transform="matrix(-0.92367665,0.38317287,0.38317287,0.92367665,0,0)"
       style="fill:#e6e6e6;fill-opacity:1;stroke:none"
       id="rect4084"
       width="0.66037732"
       height="2.9068723"
       x="340.17767"
       y="976.59088"
       rx="0"
       ry="0" />
    <rect
       transform="matrix(-0.3769036,0.92625249,-0.92625249,-0.3769036,0,0)"
       style="fill:#e6e6e6;fill-opacity:1;stroke:none"
       id="rect4086"
       width="0.66037732"
       height="3.4049857"
       x="911.8714"
       y="-393.01328"
       rx="0"
       ry="0" />
    <rect
       ry="0"
       rx="0"
       y="453.50052"
       x="911.8714"
       height="2.9068723"
       width="0.66037732"
       id="rect4088"
       style="fill:#e6e6e6;fill-opacity:1;stroke:none"
       transform="matrix(-0.3769036,0.92625249,0.92625249,0.3769036,0,0)" />
    <rect
       ry="0"
       rx="0"
       y="-617.80396"
       x="768.69806"
       height="3.4049857"
       width="0.66037732"
       id="rect4090"
       style="fill:#e6e6e6;fill-opacity:1;stroke:none"
       transform="matrix(-0.60700515,0.7946979,-0.7946979,-0.60700515,0,0)" />
    <rect
       transform="matrix(-0.60700515,0.7946979,0.7946979,0.60700515,0,0)"
       style="fill:#e6e6e6;fill-opacity:1;stroke:none"
       id="rect4092"
       width="0.66037732"
       height="2.9068723"
       x="768.69806"
       y="678.2912"
       rx="0"
       ry="0" />
    <rect
       transform="matrix(-0.79605418,0.60522536,-0.60522536,-0.79605418,0,0)"
       style="fill:#e6e6e6;fill-opacity:1;stroke:none"
       id="rect4094"
       width="0.66037732"
       height="3.4049857"
       x="569.32465"
       y="-798.58295"
       rx="0"
       ry="0" />
    <rect
       ry="0"
       rx="0"
       y="859.07019"
       x="569.32465"
       height="2.9068723"
       width="0.66037732"
       id="rect4096"
       style="fill:#e6e6e6;fill-opacity:1;stroke:none"
       transform="matrix(-0.79605418,0.60522536,0.60522536,0.79605418,0,0)" />
    <rect
       ry="0"
       rx="0"
       y="-302.91183"
       x="-949.12976"
       height="3.4049857"
       width="0.66037732"
       id="rect4098"
       style="fill:#e6e6e6;fill-opacity:1;stroke:none"
       transform="matrix(-0.37574995,-0.92672109,0.92672109,-0.37574995,0,0)" />
    <rect
       transform="matrix(-0.37574995,-0.92672109,-0.92672109,0.37574995,0,0)"
       style="fill:#e6e6e6;fill-opacity:1;stroke:none"
       id="rect4100"
       width="0.66037732"
       height="2.9068723"
       x="-949.12976"
       y="363.39908"
       rx="0"
       ry="0" />
    <rect
       transform="matrix(-0.12570865,-0.9920672,0.9920672,-0.12570865,0,0)"
       style="fill:#e6e6e6;fill-opacity:1;stroke:none"
       id="rect4102"
       width="0.66037732"
       height="3.4049857"
       x="-1002.7589"
       y="-48.643208"
       rx="0"
       ry="0" />
    <rect
       ry="0"
       rx="0"
       y="109.13045"
       x="-1002.7589"
       height="2.9068723"
       width="0.66037732"
       id="rect4104"
       style="fill:#e6e6e6;fill-opacity:1;stroke:none"
       transform="matrix(-0.12570865,-0.9920672,-0.9920672,0.12570865,0,0)" />
    <rect
       ry="0"
       rx="0"
       y="792.6286"
       x="654.98389"
       height="3.4049857"
       width="0.66037732"
       id="rect4106"
       style="fill:#e6e6e6;fill-opacity:1;stroke:none"
       transform="matrix(0.78870281,0.61477465,-0.61477465,0.78870281,0,0)" />
    <rect
       transform="matrix(0.78870281,0.61477465,0.61477465,-0.78870281,0,0)"
       style="fill:#e6e6e6;fill-opacity:1;stroke:none"
       id="rect4108"
       width="0.66037732"
       height="2.9068723"
       x="654.98389"
       y="-732.14136"
       rx="0"
       ry="0" />
    <rect
       transform="matrix(0.61351396,0.78968387,-0.78968387,0.61351396,0,0)"
       style="fill:#e6e6e6;fill-opacity:1;stroke:none"
       id="rect4110"
       width="0.66037732"
       height="3.4049857"
       x="822.24701"
       y="608.27991"
       rx="0"
       ry="0" />
    <rect
       ry="0"
       rx="0"
       y="-547.79266"
       x="822.24701"
       height="2.9068723"
       width="0.66037732"
       id="rect4112"
       style="fill:#e6e6e6;fill-opacity:1;stroke:none"
       transform="matrix(0.61351396,0.78968387,0.78968387,-0.61351396,0,0)" />
    <rect
       ry="0"
       rx="0"
       y="939.06555"
       x="429.36404"
       height="3.4049857"
       width="0.66037732"
       id="rect4114"
       style="fill:#e6e6e6;fill-opacity:1;stroke:none"
       transform="matrix(0.9234601,0.38369447,-0.38369447,0.9234601,0,0)" />
    <rect
       transform="matrix(0.9234601,0.38369447,0.38369447,-0.9234601,0,0)"
       style="fill:#e6e6e6;fill-opacity:1;stroke:none"
       id="rect4116"
       width="0.66037732"
       height="2.9068723"
       x="429.36404"
       y="-878.57831"
       rx="0"
       ry="0" />
    <rect
       transform="matrix(0.99100809,-0.133802,-0.133802,-0.99100809,0,0)"
       style="fill:#e6e6e6;fill-opacity:1;stroke:none"
       id="rect4118"
       width="0.66037732"
       height="3.4049857"
       x="-87.147453"
       y="-971.75897"
       rx="0"
       ry="0" />
    <rect
       ry="0"
       rx="0"
       y="1032.2462"
       x="-87.147453"
       height="2.9068723"
       width="0.66037732"
       id="rect4120"
       style="fill:#e6e6e6;fill-opacity:1;stroke:none"
       transform="matrix(0.99100809,-0.133802,0.133802,0.99100809,0,0)" />
  </g>
</svg>
