<?xml version="1.0" encoding="UTF-8" standalone="no"?>
<!-- Created with Inkscape (http://www.inkscape.org/) -->

<svg
   xmlns:dc="http://purl.org/dc/elements/1.1/"
   xmlns:cc="http://creativecommons.org/ns#"
   xmlns:rdf="http://www.w3.org/1999/02/22-rdf-syntax-ns#"
   xmlns:svg="http://www.w3.org/2000/svg"
   xmlns="http://www.w3.org/2000/svg"
   xmlns:xlink="http://www.w3.org/1999/xlink"
   xmlns:sodipodi="http://sodipodi.sourceforge.net/DTD/sodipodi-0.dtd"
   xmlns:inkscape="http://www.inkscape.org/namespaces/inkscape"
   width="96"
   height="96"
   id="svg2"
   version="1.1"
   inkscape:version="0.91 r13725"
   sodipodi:docname="x-office-address-book.svg">
  <defs
     id="defs4">
    <linearGradient
       id="linearGradient4279">
      <stop
         style="stop-color:#1a1414;stop-opacity:1"
         offset="0"
         id="stop4281" />
      <stop
         style="stop-color:#756260;stop-opacity:1"
         offset="1"
         id="stop4283" />
    </linearGradient>
    <linearGradient
       id="linearGradient4271">
      <stop
         style="stop-color:#be9147;stop-opacity:1"
         offset="0"
         id="stop4273" />
      <stop
         style="stop-color:#f6daa5;stop-opacity:1"
         offset="1"
         id="stop4275" />
    </linearGradient>
    <linearGradient
       id="linearGradient3188">
      <stop
         style="stop-color:#9f713d;stop-opacity:1"
         offset="0"
         id="stop3190" />
      <stop
         style="stop-color:#9d7037;stop-opacity:1"
         offset="1"
         id="stop3192" />
    </linearGradient>
    <linearGradient
       id="linearGradient3180">
      <stop
         style="stop-color:#a67c42;stop-opacity:1"
         offset="0"
         id="stop3182" />
      <stop
         style="stop-color:#b28647;stop-opacity:1"
         offset="1"
         id="stop3184" />
    </linearGradient>
    <linearGradient
       id="linearGradient3170">
      <stop
         id="stop3172"
         offset="0"
         style="stop-color:#efe4d6;stop-opacity:1;" />
      <stop
         id="stop3174"
         offset="1"
         style="stop-color:#9d7037;stop-opacity:1" />
    </linearGradient>
    <linearGradient
       id="linearGradient3100">
      <stop
         style="stop-color:#efe4d6;stop-opacity:1;"
         offset="0"
         id="stop3102" />
      <stop
         style="stop-color:#fffcf7;stop-opacity:1;"
         offset="1"
         id="stop3104" />
    </linearGradient>
    <linearGradient
       inkscape:collect="always"
       id="linearGradient3090">
      <stop
         style="stop-color:#694100;stop-opacity:1"
         offset="0"
         id="stop3092" />
      <stop
         style="stop-color:#eed29c;stop-opacity:1"
         offset="1"
         id="stop3094" />
    </linearGradient>
    <linearGradient
       id="linearGradient3083">
      <stop
         id="stop3086"
         offset="0"
         style="stop-color:#3d3534;stop-opacity:1" />
      <stop
         id="stop3088"
         offset="1"
         style="stop-color:#736260;stop-opacity:1" />
    </linearGradient>
    <inkscape:perspective
       sodipodi:type="inkscape:persp3d"
       inkscape:vp_x="0 : 48 : 1"
       inkscape:vp_y="0 : 1000 : 0"
       inkscape:vp_z="96 : 48 : 1"
       inkscape:persp3d-origin="48 : 32 : 1"
       id="perspective3054" />
    <linearGradient
       id="linearGradient4357"
       inkscape:collect="always">
      <stop
         id="stop4359"
         offset="0"
         style="stop-color:#ded3d6;stop-opacity:1" />
      <stop
         id="stop4361"
         offset="1"
         style="stop-color:#f7ebef;stop-opacity:1" />
    </linearGradient>
    <linearGradient
       inkscape:collect="always"
       id="linearGradient3558">
      <stop
         style="stop-color:#ded3d6;stop-opacity:1"
         offset="0"
         id="stop3560" />
      <stop
         style="stop-color:#efebef;stop-opacity:1"
         offset="1"
         id="stop3562" />
    </linearGradient>
    <linearGradient
       id="linearGradient3076"
       inkscape:collect="always">
      <stop
         id="stop3078"
         offset="0"
         style="stop-color:#ffe7f7;stop-opacity:1" />
      <stop
         id="stop3080"
         offset="1"
         style="stop-color:#ffc3ef;stop-opacity:1" />
    </linearGradient>
    <linearGradient
       inkscape:collect="always"
       id="linearGradient3048">
      <stop
         style="stop-color:#c16d16;stop-opacity:1"
         offset="0"
         id="stop3050" />
      <stop
         style="stop-color:#ff8e31;stop-opacity:1"
         offset="1"
         id="stop3052" />
    </linearGradient>
    <linearGradient
       inkscape:collect="always"
       id="linearGradient3119">
      <stop
         style="stop-color:#92948f;stop-opacity:0"
         offset="0"
         id="stop3121" />
      <stop
         id="stop3123"
         offset="0.4283945"
         style="stop-color:#9b9e98;stop-opacity:1" />
      <stop
         style="stop-color:#939690;stop-opacity:0"
         offset="1"
         id="stop3125" />
    </linearGradient>
    <linearGradient
       id="linearGradient3073"
       inkscape:collect="always">
      <stop
         id="stop3075"
         offset="0"
         style="stop-color:#ffffff;stop-opacity:0" />
      <stop
         style="stop-color:#ffffff;stop-opacity:1"
         offset="0.45872402"
         id="stop3085" />
      <stop
         id="stop3083"
         offset="1"
         style="stop-color:#ffffff;stop-opacity:0" />
    </linearGradient>
    <linearGradient
       inkscape:collect="always"
       id="linearGradient3047">
      <stop
         style="stop-color:#000000;stop-opacity:1"
         offset="0"
         id="stop3049" />
      <stop
         id="stop3055"
         offset="0.06123874"
         style="stop-color:#1a1a1a;stop-opacity:1" />
      <stop
         style="stop-color:#333333;stop-opacity:1"
         offset="0.16480456"
         id="stop3057" />
      <stop
         id="stop3059"
         offset="0.55385184"
         style="stop-color:#4d4d4d;stop-opacity:1" />
      <stop
         style="stop-color:#999999;stop-opacity:1"
         offset="1"
         id="stop3051" />
    </linearGradient>
    <linearGradient
       id="linearGradient3041"
       inkscape:collect="always">
      <stop
         id="stop3043"
         offset="0"
         style="stop-color:#1a1a1a;stop-opacity:1" />
      <stop
         id="stop3045"
         offset="1"
         style="stop-color:#808080;stop-opacity:1" />
    </linearGradient>
    <linearGradient
       inkscape:collect="always"
       id="linearGradient3029">
      <stop
         style="stop-color:#333333;stop-opacity:1"
         offset="0"
         id="stop3031" />
      <stop
         style="stop-color:#e0e0dd;stop-opacity:0;"
         offset="1"
         id="stop3033" />
    </linearGradient>
    <linearGradient
       inkscape:collect="always"
       xlink:href="#linearGradient3029"
       id="linearGradient3035"
       x1="35.355339"
       y1="1030.3622"
       x2="35.355339"
       y2="975.33282"
       gradientUnits="userSpaceOnUse"
       gradientTransform="matrix(1.1638085,0,0,1.1638085,-7.862809,-164.23642)" />
    <linearGradient
       inkscape:collect="always"
       xlink:href="#linearGradient3041"
       id="linearGradient3039"
       gradientUnits="userSpaceOnUse"
       x1="35.355339"
       y1="1030.3622"
       x2="35.355339"
       y2="975.33282"
       gradientTransform="matrix(1.1218695,0,0,1.1218695,-5.8497348,-122.18782)" />
    <linearGradient
       inkscape:collect="always"
       xlink:href="#linearGradient3047"
       id="linearGradient3053"
       x1="40"
       y1="1043.4336"
       x2="39.285713"
       y2="972.33325"
       gradientUnits="userSpaceOnUse" />
    <linearGradient
       inkscape:collect="always"
       xlink:href="#linearGradient3073"
       id="linearGradient3113"
       gradientUnits="userSpaceOnUse"
       gradientTransform="translate(0,-956.36218)"
       x1="14.869445"
       y1="978.90387"
       x2="24.52651"
       y2="969.24683" />
    <linearGradient
       inkscape:collect="always"
       xlink:href="#linearGradient3073"
       id="linearGradient3115"
       gradientUnits="userSpaceOnUse"
       gradientTransform="matrix(-1,0,0,1,96,-956.36218)"
       x1="15.152279"
       y1="978.62103"
       x2="26.263966"
       y2="967.50934" />
    <linearGradient
       inkscape:collect="always"
       xlink:href="#linearGradient3119"
       id="linearGradient3117"
       gradientUnits="userSpaceOnUse"
       gradientTransform="translate(0,-956.36218)"
       x1="13.131983"
       y1="980.64136"
       x2="25.549681"
       y2="967.86646" />
    <linearGradient
       inkscape:collect="always"
       xlink:href="#linearGradient3119"
       id="linearGradient3129"
       gradientUnits="userSpaceOnUse"
       gradientTransform="matrix(-1,0,0,1,96,0)"
       x1="13.131983"
       y1="980.64136"
       x2="25.549681"
       y2="967.86646" />
    <linearGradient
       inkscape:collect="always"
       xlink:href="#linearGradient3048"
       id="linearGradient3054"
       x1="49.267925"
       y1="996.57349"
       x2="49.267925"
       y2="1045.8627"
       gradientUnits="userSpaceOnUse" />
    <linearGradient
       inkscape:collect="always"
       xlink:href="#linearGradient3048"
       id="linearGradient3058"
       x1="115.80308"
       y1="985.47241"
       x2="115.80308"
       y2="1033.5543"
       gradientUnits="userSpaceOnUse" />
    <linearGradient
       inkscape:collect="always"
       xlink:href="#linearGradient3076"
       id="linearGradient3055"
       gradientUnits="userSpaceOnUse"
       x1="115.80308"
       y1="985.47241"
       x2="115.80308"
       y2="1025.3639"
       gradientTransform="matrix(1.4144782,0,0,1.4144782,-119.78686,-419.05496)" />
    <linearGradient
       inkscape:collect="always"
       xlink:href="#linearGradient3076"
       id="linearGradient3086"
       gradientUnits="userSpaceOnUse"
       gradientTransform="matrix(1.4144782,0,0,1.4144782,-119.78686,-417.12598)"
       x1="115.80308"
       y1="985.47241"
       x2="115.80308"
       y2="1025.3639" />
    <linearGradient
       inkscape:collect="always"
       xlink:href="#linearGradient3076"
       id="linearGradient3091"
       gradientUnits="userSpaceOnUse"
       gradientTransform="matrix(1.4144782,0,0,1.4144782,-119.78686,-418.126)"
       x1="115.80308"
       y1="985.47241"
       x2="115.80308"
       y2="1025.3639" />
    <linearGradient
       inkscape:collect="always"
       xlink:href="#linearGradient3076"
       id="linearGradient3093"
       gradientUnits="userSpaceOnUse"
       gradientTransform="matrix(1.4144782,0,0,1.4144782,-119.78686,-1375.4171)"
       x1="115.80308"
       y1="985.47241"
       x2="115.80308"
       y2="1025.3639" />
    <linearGradient
       inkscape:collect="always"
       xlink:href="#linearGradient3558"
       id="linearGradient3564"
       x1="93.242035"
       y1="1027.2615"
       x2="93.242035"
       y2="980.7262"
       gradientUnits="userSpaceOnUse" />
    <linearGradient
       inkscape:collect="always"
       xlink:href="#linearGradient3558"
       id="linearGradient4350"
       gradientUnits="userSpaceOnUse"
       x1="93.242035"
       y1="1027.2615"
       x2="93.242035"
       y2="980.7262" />
    <linearGradient
       inkscape:collect="always"
       xlink:href="#linearGradient4357"
       id="linearGradient3067"
       gradientUnits="userSpaceOnUse"
       gradientTransform="translate(-206.68129,0)"
       x1="93.242035"
       y1="1027.2615"
       x2="93.242035"
       y2="980.7262" />
    <linearGradient
       inkscape:collect="always"
       xlink:href="#linearGradient4271"
       id="linearGradient3071"
       gradientUnits="userSpaceOnUse"
       x1="22.54203"
       y1="1043.3966"
       x2="22.54203"
       y2="964.45898"
       gradientTransform="translate(0,-956.36218)" />
    <linearGradient
       inkscape:collect="always"
       xlink:href="#linearGradient3090"
       id="linearGradient3074"
       gradientUnits="userSpaceOnUse"
       x1="53.796227"
       y1="1046.0226"
       x2="53.796227"
       y2="962.97437"
       gradientTransform="translate(0,-956.36218)" />
    <linearGradient
       inkscape:collect="always"
       xlink:href="#linearGradient3100"
       id="linearGradient3108"
       x1="-115.65862"
       y1="59.155426"
       x2="-115.65862"
       y2="19.865316"
       gradientUnits="userSpaceOnUse" />
    <linearGradient
       inkscape:collect="always"
       xlink:href="#linearGradient3083"
       id="linearGradient4264"
       gradientUnits="userSpaceOnUse"
       x1="22.54203"
       y1="1043.3966"
       x2="22.54203"
       y2="964.45898"
       gradientTransform="translate(0,-956.36218)" />
    <linearGradient
       inkscape:collect="always"
       xlink:href="#linearGradient4279"
       id="linearGradient4277"
       x1="11.507428"
       y1="87.320473"
       x2="14.275472"
       y2="6.5207539"
       gradientUnits="userSpaceOnUse" />
    <linearGradient
       inkscape:collect="always"
       id="linearGradient3116">
      <stop
         style="stop-color:#1ce2fb;stop-opacity:1"
         offset="0"
         id="stop3118" />
      <stop
         id="stop3808"
         offset="0.27033514"
         style="stop-color:#1dd0f4;stop-opacity:1;" />
      <stop
         style="stop-color:#2d42c0;stop-opacity:1"
         offset="1"
         id="stop3120" />
    </linearGradient>
    <linearGradient
       id="linearGradient3280"
       inkscape:collect="always">
      <stop
         id="stop3282"
         offset="0"
         style="stop-color:#7aaad6;stop-opacity:1;" />
      <stop
         id="stop3284"
         offset="1"
         style="stop-color:#7aaad6;stop-opacity:0;" />
    </linearGradient>
    <linearGradient
       id="linearGradient3260"
       inkscape:collect="always">
      <stop
         id="stop3262"
         offset="0"
         style="stop-color:#99bde1;stop-opacity:1" />
      <stop
         id="stop3264"
         offset="1"
         style="stop-color:#d7e9f5;stop-opacity:1" />
    </linearGradient>
    <linearGradient
       id="linearGradient3223"
       inkscape:collect="always">
      <stop
         id="stop3225"
         offset="0"
         style="stop-color:#b3d6ec;stop-opacity:1" />
      <stop
         id="stop3227"
         offset="1"
         style="stop-color:#dcecf6;stop-opacity:1" />
    </linearGradient>
    <linearGradient
       id="linearGradient3215"
       inkscape:collect="always">
      <stop
         id="stop3217"
         offset="0"
         style="stop-color:#b3d6ec;stop-opacity:1" />
      <stop
         id="stop3219"
         offset="1"
         style="stop-color:#ffffff;stop-opacity:1" />
    </linearGradient>
    <inkscape:perspective
       id="perspective3054-8"
       inkscape:persp3d-origin="48 : 32 : 1"
       inkscape:vp_z="96 : 48 : 1"
       inkscape:vp_y="0 : 1000 : 0"
       inkscape:vp_x="0 : 48 : 1"
       sodipodi:type="inkscape:persp3d" />
    <linearGradient
       gradientTransform="matrix(1.1638085,0,0,1.1638085,-7.862809,-164.23642)"
       gradientUnits="userSpaceOnUse"
       y2="975.33282"
       x2="35.355339"
       y1="1030.3622"
       x1="35.355339"
       id="linearGradient4417"
       xlink:href="#linearGradient3029"
       inkscape:collect="always" />
    <linearGradient
       gradientTransform="matrix(1.1218695,0,0,1.1218695,-5.8497348,-122.18782)"
       y2="975.33282"
       x2="35.355339"
       y1="1030.3622"
       x1="35.355339"
       gradientUnits="userSpaceOnUse"
       id="linearGradient4419"
       xlink:href="#linearGradient3041"
       inkscape:collect="always" />
    <linearGradient
       gradientUnits="userSpaceOnUse"
       y2="972.33325"
       x2="39.285713"
       y1="1043.4336"
       x1="40"
       id="linearGradient4421"
       xlink:href="#linearGradient3047"
       inkscape:collect="always" />
    <linearGradient
       y2="969.24683"
       x2="24.52651"
       y1="978.90387"
       x1="14.869445"
       gradientTransform="translate(0,-956.36218)"
       gradientUnits="userSpaceOnUse"
       id="linearGradient4423"
       xlink:href="#linearGradient3073"
       inkscape:collect="always" />
    <linearGradient
       y2="967.50934"
       x2="26.263966"
       y1="978.62103"
       x1="15.152279"
       gradientTransform="matrix(-1,0,0,1,96,-956.36218)"
       gradientUnits="userSpaceOnUse"
       id="linearGradient4425"
       xlink:href="#linearGradient3073"
       inkscape:collect="always" />
    <linearGradient
       y2="967.86646"
       x2="25.549681"
       y1="980.64136"
       x1="13.131983"
       gradientTransform="translate(0,-956.36218)"
       gradientUnits="userSpaceOnUse"
       id="linearGradient4427"
       xlink:href="#linearGradient3119"
       inkscape:collect="always" />
    <linearGradient
       y2="967.86646"
       x2="25.549681"
       y1="980.64136"
       x1="13.131983"
       gradientTransform="matrix(-1,0,0,1,96,0)"
       gradientUnits="userSpaceOnUse"
       id="linearGradient4429"
       xlink:href="#linearGradient3119"
       inkscape:collect="always" />
    <linearGradient
       gradientUnits="userSpaceOnUse"
       y2="1045.8627"
       x2="49.267925"
       y1="996.57349"
       x1="49.267925"
       id="linearGradient4431"
       xlink:href="#linearGradient3048"
       inkscape:collect="always" />
    <linearGradient
       gradientUnits="userSpaceOnUse"
       y2="1033.5543"
       x2="115.80308"
       y1="985.47241"
       x1="115.80308"
       id="linearGradient4433"
       xlink:href="#linearGradient3048"
       inkscape:collect="always" />
    <linearGradient
       gradientTransform="matrix(1.4144782,0,0,1.4144782,-119.78686,-419.05496)"
       y2="1025.3639"
       x2="115.80308"
       y1="985.47241"
       x1="115.80308"
       gradientUnits="userSpaceOnUse"
       id="linearGradient4435"
       xlink:href="#linearGradient3076"
       inkscape:collect="always" />
    <linearGradient
       y2="1025.3639"
       x2="115.80308"
       y1="985.47241"
       x1="115.80308"
       gradientTransform="matrix(1.4144782,0,0,1.4144782,-119.78686,-417.12598)"
       gradientUnits="userSpaceOnUse"
       id="linearGradient4437"
       xlink:href="#linearGradient3076"
       inkscape:collect="always" />
    <linearGradient
       y2="1025.3639"
       x2="115.80308"
       y1="985.47241"
       x1="115.80308"
       gradientTransform="matrix(1.4144782,0,0,1.4144782,-119.78686,-418.126)"
       gradientUnits="userSpaceOnUse"
       id="linearGradient4439"
       xlink:href="#linearGradient3076"
       inkscape:collect="always" />
    <linearGradient
       y2="1025.3639"
       x2="115.80308"
       y1="985.47241"
       x1="115.80308"
       gradientTransform="matrix(1.4144782,0,0,1.4144782,-119.78686,-1375.4171)"
       gradientUnits="userSpaceOnUse"
       id="linearGradient4441"
       xlink:href="#linearGradient3076"
       inkscape:collect="always" />
    <linearGradient
       gradientUnits="userSpaceOnUse"
       y2="980.7262"
       x2="93.242035"
       y1="1027.2615"
       x1="93.242035"
       id="linearGradient4443"
       xlink:href="#linearGradient3558"
       inkscape:collect="always" />
    <linearGradient
       y2="980.7262"
       x2="93.242035"
       y1="1027.2615"
       x1="93.242035"
       gradientUnits="userSpaceOnUse"
       id="linearGradient4445"
       xlink:href="#linearGradient3558"
       inkscape:collect="always" />
    <linearGradient
       y2="980.7262"
       x2="93.242035"
       y1="1027.2615"
       x1="93.242035"
       gradientTransform="translate(-206.68129,0)"
       gradientUnits="userSpaceOnUse"
       id="linearGradient4447"
       xlink:href="#linearGradient4357"
       inkscape:collect="always" />
    <linearGradient
       gradientTransform="translate(-101.82338,-7.0710678)"
       gradientUnits="userSpaceOnUse"
       y2="991.66064"
       x2="155.04906"
       y1="1027.7283"
       x1="155.04906"
       id="linearGradient3221"
       xlink:href="#linearGradient3215"
       inkscape:collect="always" />
    <linearGradient
       gradientTransform="translate(-101.82338,-7.0710678)"
       gradientUnits="userSpaceOnUse"
       y2="1008.6122"
       x2="174.5"
       y1="1030.1122"
       x1="181.875"
       id="linearGradient3229"
       xlink:href="#linearGradient3223"
       inkscape:collect="always" />
    <linearGradient
       y2="1008.6122"
       x2="174.5"
       y1="1030.1122"
       x1="181.875"
       gradientTransform="translate(-112.95681,-11.313709)"
       gradientUnits="userSpaceOnUse"
       id="linearGradient3240"
       xlink:href="#linearGradient3223"
       inkscape:collect="always" />
    <linearGradient
       y2="991.66064"
       x2="155.04906"
       y1="1027.7283"
       x1="155.04906"
       gradientTransform="translate(-112.95681,-11.313709)"
       gradientUnits="userSpaceOnUse"
       id="linearGradient3243"
       xlink:href="#linearGradient3215"
       inkscape:collect="always" />
    <linearGradient
       y2="1008.6122"
       x2="174.5"
       y1="1030.1122"
       x1="181.875"
       gradientTransform="translate(-112.95681,-967.67589)"
       gradientUnits="userSpaceOnUse"
       id="linearGradient3250"
       xlink:href="#linearGradient3223"
       inkscape:collect="always" />
    <linearGradient
       gradientTransform="translate(0,956.31756)"
       gradientUnits="userSpaceOnUse"
       y2="42.125"
       x2="66.255951"
       y1="42.125"
       x1="60.75"
       id="linearGradient3266"
       xlink:href="#linearGradient3260"
       inkscape:collect="always" />
    <linearGradient
       y2="991.66064"
       x2="155.04906"
       y1="1027.7283"
       x1="155.04906"
       gradientTransform="translate(-112.95681,-967.67589)"
       gradientUnits="userSpaceOnUse"
       id="linearGradient3274"
       xlink:href="#linearGradient3215"
       inkscape:collect="always" />
    <linearGradient
       gradientTransform="translate(0,956.31756)"
       gradientUnits="userSpaceOnUse"
       y2="63.25"
       x2="49.625"
       y1="60.75"
       x1="53.25"
       id="linearGradient3286"
       xlink:href="#linearGradient3280"
       inkscape:collect="always" />
    <linearGradient
       y2="1008.6122"
       x2="174.5"
       y1="1030.1122"
       x1="181.875"
       gradientTransform="translate(-112.95681,-11.358329)"
       gradientUnits="userSpaceOnUse"
       id="linearGradient3295"
       xlink:href="#linearGradient3223"
       inkscape:collect="always" />
    <linearGradient
       y2="991.66064"
       x2="155.04906"
       y1="1027.7283"
       x1="155.04906"
       gradientTransform="translate(-112.95681,-11.358329)"
       gradientUnits="userSpaceOnUse"
       id="linearGradient3297"
       xlink:href="#linearGradient3215"
       inkscape:collect="always" />
    <linearGradient
       y2="42.125"
       x2="66.255951"
       y1="42.125"
       x1="60.75"
       gradientTransform="translate(0,956.81754)"
       gradientUnits="userSpaceOnUse"
       id="linearGradient3341"
       xlink:href="#linearGradient3260"
       inkscape:collect="always" />
    <linearGradient
       y2="1008.6122"
       x2="174.5"
       y1="1030.1122"
       x1="181.875"
       gradientTransform="translate(-112.95681,-10.858349)"
       gradientUnits="userSpaceOnUse"
       id="linearGradient3344"
       xlink:href="#linearGradient3223"
       inkscape:collect="always" />
    <linearGradient
       y2="63.25"
       x2="49.625"
       y1="60.75"
       x1="53.25"
       gradientTransform="translate(0,956.81754)"
       gradientUnits="userSpaceOnUse"
       id="linearGradient3347"
       xlink:href="#linearGradient3280"
       inkscape:collect="always" />
    <linearGradient
       y2="991.66064"
       x2="155.04906"
       y1="1027.7283"
       x1="155.04906"
       gradientTransform="translate(-112.95681,-10.858349)"
       gradientUnits="userSpaceOnUse"
       id="linearGradient3350"
       xlink:href="#linearGradient3215"
       inkscape:collect="always" />
    <linearGradient
       y2="991.66064"
       x2="155.04906"
       y1="1027.7283"
       x1="155.04906"
       gradientTransform="translate(-112.95681,-967.22053)"
       gradientUnits="userSpaceOnUse"
       id="linearGradient3360"
       xlink:href="#linearGradient3215"
       inkscape:collect="always" />
    <radialGradient
       r="42"
       fy="-980.96381"
       fx="-25.98514"
       cy="-980.96381"
       cx="-25.98514"
       gradientTransform="matrix(-2.8336395,1.1756673e-7,-7.4791048e-8,-1.8026432,-248.99507,-2740.4774)"
       gradientUnits="userSpaceOnUse"
       id="radialGradient4632"
       xlink:href="#linearGradient3116"
       inkscape:collect="always" />
  </defs>
  <sodipodi:namedview
     id="base"
     pagecolor="#ffffff"
     bordercolor="#666666"
     borderopacity="1.0"
     inkscape:pageopacity="0.0"
     inkscape:pageshadow="2"
     inkscape:zoom="1.3802083"
     inkscape:cx="78.016211"
     inkscape:cy="160.59112"
     inkscape:document-units="px"
     inkscape:current-layer="layer1"
     showgrid="false"
     inkscape:window-width="1366"
     inkscape:window-height="675"
     inkscape:window-x="0"
     inkscape:window-y="29"
     inkscape:window-maximized="1"
     showguides="true"
     inkscape:guide-bbox="true" />
  <metadata
     id="metadata7">
    <rdf:RDF>
      <cc:Work
         rdf:about="">
        <dc:format>image/svg+xml</dc:format>
        <dc:type
           rdf:resource="http://purl.org/dc/dcmitype/StillImage" />
        <dc:title />
      </cc:Work>
    </rdf:RDF>
  </metadata>
  <g
     inkscape:label="Layer 1"
     inkscape:groupmode="layer"
     id="layer1"
     transform="translate(0,-956.36218)">
    <rect
       ry="1.9852358"
       rx="1.9852358"
       y="1022.7696"
       x="82"
       height="16.592592"
       width="10.177018"
       id="rect3153"
       style="opacity:0.1;fill:#000000;fill-opacity:1;stroke:none" />
    <rect
       style="opacity:0.1;fill:#000000;fill-opacity:1;stroke:none"
       id="rect3155"
       width="10.177018"
       height="16.592592"
       x="81"
       y="1021.7692"
       rx="1.9852358"
       ry="1.9852358" />
    <rect
       ry="1.9852358"
       rx="1.9852358"
       y="1020.7696"
       x="80"
       height="16.592592"
       width="10.177018"
       id="rect3157"
       style="opacity:0.3;fill:#000000;fill-opacity:1;stroke:none" />
    <path
       style="fill:#f6f7fe;fill-opacity:1;stroke:none"
       d="M 82 63.40625 C 80.900179 63.40625 80 64.2752 80 65.375 L 80 78 C 80 79.0998 80.900179 80 82 80 L 88.1875 80 C 89.287321 80 90.1875 79.0998 90.1875 78 L 90.1875 65.375 C 90.1875 64.2752 89.287321 63.40625 88.1875 63.40625 L 82 63.40625 z "
       id="rect3085"
       transform="translate(0,956.36218)" />
    <rect
       style="opacity:0.1;fill:#000000;fill-opacity:1;stroke:none"
       id="rect3145"
       width="10.177018"
       height="16.592592"
       x="82"
       y="1006.9576"
       rx="1.9852358"
       ry="1.9852358" />
    <rect
       ry="1.9852358"
       rx="1.9852358"
       y="1005.9572"
       x="81"
       height="16.592592"
       width="10.177018"
       id="rect3147"
       style="opacity:0.1;fill:#000000;fill-opacity:1;stroke:none" />
    <rect
       style="opacity:0.2;fill:#000000;fill-opacity:1;stroke:none"
       id="rect3149"
       width="10.177018"
       height="16.592592"
       x="80"
       y="1004.9576"
       rx="1.9852358"
       ry="1.9852358" />
    <path
       style="fill:#f6f7fe;fill-opacity:1;stroke:none"
       d="M 82 47.59375 C 80.900179 47.59375 80 48.4627 80 49.5625 L 80 62.1875 C 80 63.2873 80.900179 64.1875 82 64.1875 L 88.1875 64.1875 C 89.287321 64.1875 90.1875 63.2873 90.1875 62.1875 L 90.1875 49.5625 C 90.1875 48.4627 89.287321 47.59375 88.1875 47.59375 L 82 47.59375 z "
       id="rect3083"
       transform="translate(0,956.36218)" />
    <rect
       ry="1.9852358"
       rx="1.9852358"
       y="991.1756"
       x="82"
       height="16.592592"
       width="10.177018"
       id="rect3137"
       style="opacity:0.1;fill:#000000;fill-opacity:1;stroke:none" />
    <rect
       style="opacity:0.1;fill:#000000;fill-opacity:1;stroke:none"
       id="rect3139"
       width="10.177018"
       height="16.592592"
       x="81"
       y="990.17517"
       rx="1.9852358"
       ry="1.9852358" />
    <rect
       ry="1.9852358"
       rx="1.9852358"
       y="989.1756"
       x="80"
       height="16.592592"
       width="10.177018"
       id="rect3141"
       style="opacity:0.2;fill:#000000;fill-opacity:1;stroke:none" />
    <path
       style="fill:#f6f7fe;fill-opacity:1;stroke:none"
       d="M 82 31.8125 C 80.900179 31.8125 80 32.681429 80 33.78125 L 80 46.40625 C 80 47.506071 80.900179 48.40625 82 48.40625 L 88.1875 48.40625 C 89.287321 48.40625 90.1875 47.506071 90.1875 46.40625 L 90.1875 33.78125 C 90.1875 32.681429 89.287321 31.8125 88.1875 31.8125 L 82 31.8125 z "
       id="rect3081"
       transform="translate(0,956.36218)" />
    <rect
       style="opacity:0.1;fill:#000000;fill-opacity:1;stroke:none"
       id="rect3128"
       width="10.177018"
       height="16.592592"
       x="82"
       y="975.36261"
       rx="1.9852358"
       ry="1.9852358" />
    <rect
       ry="1.9852358"
       rx="1.9852358"
       y="974.36218"
       x="81"
       height="16.592592"
       width="10.177018"
       id="rect3124"
       style="opacity:0.1;fill:#000000;fill-opacity:1;stroke:none" />
    <rect
       style="opacity:0.1;fill:#000000;fill-opacity:1;stroke:none"
       id="rect3126"
       width="10.177018"
       height="16.592592"
       x="80"
       y="973.36261"
       rx="1.9852358"
       ry="1.9852358" />
    <rect
       style="fill:#f6f7fe;fill-opacity:1;stroke:none"
       id="rect3079"
       width="10.177018"
       height="16.592592"
       x="80"
       y="972.36218"
       rx="1.9852358"
       ry="1.9852358" />
    <path
       style="opacity:0.05;fill:#000000;fill-opacity:1;stroke:none"
       d="m 14.095235,960.86218 60.940483,0 c 5.86976,0 10.595235,4.72548 10.595235,10.59524 l 0,67.80948 c 0,5.8698 -4.725475,10.5953 -10.595235,10.5953 l -60.940483,0 C 8.2254748,1049.8622 3.5,1045.1367 3.5,1039.2669 l 0,-67.80948 c 0,-5.86976 4.7254748,-10.59524 10.595235,-10.59524 z"
       id="rect3826"
       inkscape:connector-curvature="0"
       sodipodi:nodetypes="sssssssss" />
    <path
       style="opacity:0.05;fill:#000000;fill-opacity:1;stroke:none"
       d="m 14.476188,961.36218 60.178576,0 c 5.803809,0 10.476189,4.67238 10.476189,10.47619 l 0,67.04763 c 0,5.8038 -4.67238,10.4762 -10.476189,10.4762 l -60.178576,0 C 8.6723797,1049.3622 4,1044.6898 4,1038.886 l 0,-67.04763 c 0,-5.80381 4.6723797,-10.47619 10.476188,-10.47619 z"
       id="rect3824"
       inkscape:connector-curvature="0"
       sodipodi:nodetypes="sssssssss" />
    <path
       style="opacity:0.05;fill:#000000;fill-opacity:1;stroke:none"
       d="m 14.857141,961.86218 59.416671,0 c 5.737856,0 10.357141,4.61929 10.357141,10.35714 l 0,66.28568 c 0,5.7379 -4.619285,10.3572 -10.357141,10.3572 l -59.416671,0 C 9.1192847,1048.8622 4.5,1044.2429 4.5,1038.505 l 0,-66.28568 c 0,-5.73785 4.6192847,-10.35714 10.357141,-10.35714 z"
       id="rect3822"
       inkscape:connector-curvature="0"
       sodipodi:nodetypes="sssssssss" />
    <path
       style="opacity:0.1;fill:#000000;fill-opacity:1;stroke:none"
       d="m 15.238094,962.36218 58.654765,0 c 5.671903,0 10.238094,4.56619 10.238094,10.2381 l 0,65.52382 c 0,5.6719 -4.566191,10.2381 -10.238094,10.2381 l -58.654765,0 C 9.5661901,1048.3622 5,1043.796 5,1038.1241 l 0,-65.52382 c 0,-5.67191 4.5661901,-10.2381 10.238094,-10.2381 z"
       id="rect3820"
       inkscape:connector-curvature="0"
       sodipodi:nodetypes="sssssssss" />
    <path
       style="opacity:0.1;fill:#000000;fill-opacity:1;stroke:none"
       d="m 15.619047,962.86218 57.892858,0 c 5.605952,0 10.119047,4.5131 10.119047,10.11905 l 0,64.76187 c 0,5.606 -4.513095,10.1191 -10.119047,10.1191 l -57.892858,0 C 10.013095,1047.8622 5.5,1043.3491 5.5,1037.7431 l 0,-64.76187 c 0,-5.60595 4.513095,-10.11905 10.119047,-10.11905 z"
       id="rect3818"
       inkscape:connector-curvature="0"
       sodipodi:nodetypes="sssssssss" />
    <path
       style="opacity:0.3;fill:#000000;fill-opacity:1;stroke:none"
       d="m 16,963.36218 57.130953,0 c 5.54,0 10,4.46 10,10 l 0,64.00002 c 0,5.54 -4.46,10 -10,10 l -57.130953,0 c -5.54,0 -10,-4.46 -10,-10 l 0,-64.00002 c 0,-5.54 4.46,-10 10,-10 z"
       id="rect3131"
       inkscape:connector-curvature="0"
       sodipodi:nodetypes="sssssssss" />
    <path
       style="fill:url(#linearGradient3074);fill-opacity:1;stroke:none"
       d="M 16 6 C 15.662335 6 15.328875 6.0164562 15 6.0488281 L 15 89.951172 C 15.328875 89.983544 15.662335 90 16 90 L 73.130859 90 C 78.670859 90 83.130859 85.54 83.130859 80 L 83.130859 16 C 83.130859 10.46 78.670859 6 73.130859 6 L 16 6 z "
       transform="translate(0,956.36218)"
       id="rect3036" />
    <path
       style="fill:url(#linearGradient4277);fill-opacity:1;stroke:none"
       d="M 15 6.0488281 C 9.9330841 6.5475763 6 10.797665 6 16 L 6 80 C 6 85.202335 9.9330841 89.452424 15 89.951172 L 15 6.0488281 z "
       transform="translate(0,956.36218)"
       id="path4253" />
    <path
       style="fill:url(#linearGradient3071);fill-opacity:1;stroke:none"
       d="M 16.761719 7 C 16.158983 7 15.571977 7.0624238 15 7.1660156 L 15 88.833984 C 15.571977 88.937576 16.158983 89 16.761719 89 L 72.369141 89 C 77.777236 89 82.130859 84.646381 82.130859 79.238281 L 82.130859 16.761719 C 82.130859 11.353619 77.777236 7 72.369141 7 L 16.761719 7 z "
       transform="translate(0,956.36218)"
       id="rect3034" />
    <rect
       ry="0"
       rx="0"
       y="962.36218"
       x="16"
       height="84"
       width="1"
       id="rect3859"
       style="opacity:0.10000000000000001;fill:#ffffff;fill-opacity:1;stroke:none" />
    <rect
       ry="0"
       rx="0"
       y="962.36218"
       x="15"
       height="84"
       width="1"
       id="rect4247"
       style="opacity:0.2;fill:#000000;fill-opacity:1;stroke:none" />
    <path
       style="fill:url(#linearGradient4264);fill-opacity:1;stroke:none"
       d="M 15 7.1660156 C 10.439868 7.9919098 7 11.956355 7 16.761719 L 7 79.238281 C 7 84.043645 10.439868 88.008092 15 88.833984 L 15 7.1660156 z "
       transform="translate(0,956.36218)"
       id="path4262" />
    <g
       id="g4543"
       style="font-style:normal;font-variant:normal;font-weight:normal;font-stretch:normal;font-size:64.68240356px;line-height:125%;font-family:'Open Sans';-inkscape-font-specification:'Open Sans';letter-spacing:0px;word-spacing:0px;fill:#ffffff;fill-opacity:1;stroke:none;opacity:0.3"
       transform="matrix(0.9190093,0,0,0.85013494,6.6977251,115.77339)">
      <path
         id="path4545"
         style="font-style:normal;font-variant:normal;font-weight:normal;font-stretch:normal;font-family:'Open Sans';-inkscape-font-specification:'Open Sans';text-align:center;text-anchor:middle;fill:#ffffff;fill-opacity:1"
         d="m 71.417088,1041.3489 q 0,4.4848 -1.389661,8.2116 -1.389661,3.7268 -3.916317,5.7798 -2.526657,2.0529 -5.81131,2.0529 -2.716156,0 -4.579565,-1.6424 -1.863409,-1.6423 -2.210824,-4.2005 l -0.252666,0 q -1.263328,2.7477 -3.632068,4.2953 -2.337157,1.5476 -5.558644,1.5476 -4.737481,0 -7.422054,-3.2215 -2.652989,-3.2531 -2.652989,-8.8117 0,-6.443 3.726818,-10.4541 3.726819,-4.0426 9.790794,-4.0426 2.147658,0 4.863813,0.4105 2.716156,0.379 4.895397,1.0739 l -0.78958,14.8441 0,0.6948 q 0,5.6218 4.200566,5.6218 2.874072,0 4.674315,-3.3794 1.800242,-3.411 1.800242,-8.8433 0,-5.7165 -2.337157,-10.0119 -2.337157,-4.2953 -6.664056,-6.6008 -4.295316,-2.3372 -9.885543,-2.3372 -7.043055,0 -12.254284,2.9372 -5.211228,2.9057 -7.958967,8.338 -2.747739,5.4007 -2.747739,12.507 0,9.6328 5.084896,14.8125 5.084896,5.1796 14.654607,5.1796 6.632473,0 13.770277,-2.7161 l 0,4.2005 q -6.063975,2.653 -13.770277,2.653 -11.464703,0 -17.812928,-6.285 -6.316641,-6.3167 -6.316641,-17.6235 0,-8.2116 3.379403,-14.623 3.379403,-6.4114 9.632878,-9.9171 6.253474,-3.5373 14.338775,-3.5373 6.790389,0 12.064784,2.874 5.305979,2.8425 8.18005,8.1169 2.905655,5.2428 2.905655,12.0964 z m -32.657034,4.1374 q 0,8.0221 6.158725,8.0221 6.537724,0 7.106221,-9.8855 l 0.442165,-8.2432 q -2.273991,-0.6317 -4.958563,-0.6317 -4.105817,0 -6.442974,2.8425 -2.305574,2.8425 -2.305574,7.8958 z"
         inkscape:connector-curvature="0" />
    </g>
    <g
       transform="matrix(0.9190093,0,0,0.85013494,6.6977251,114.77338)"
       style="font-style:normal;font-variant:normal;font-weight:normal;font-stretch:normal;font-size:64.68240356px;line-height:125%;font-family:'Open Sans';-inkscape-font-specification:'Open Sans';letter-spacing:0px;word-spacing:0px;fill:#f7efe4;fill-opacity:1;stroke:none"
       id="text3094">
      <path
         inkscape:connector-curvature="0"
         d="m 71.417088,1041.3489 q 0,4.4848 -1.389661,8.2116 -1.389661,3.7268 -3.916317,5.7798 -2.526657,2.0529 -5.81131,2.0529 -2.716156,0 -4.579565,-1.6424 -1.863409,-1.6423 -2.210824,-4.2005 l -0.252666,0 q -1.263328,2.7477 -3.632068,4.2953 -2.337157,1.5476 -5.558644,1.5476 -4.737481,0 -7.422054,-3.2215 -2.652989,-3.2531 -2.652989,-8.8117 0,-6.443 3.726818,-10.4541 3.726819,-4.0426 9.790794,-4.0426 2.147658,0 4.863813,0.4105 2.716156,0.379 4.895397,1.0739 l -0.78958,14.8441 0,0.6948 q 0,5.6218 4.200566,5.6218 2.874072,0 4.674315,-3.3794 1.800242,-3.411 1.800242,-8.8433 0,-5.7165 -2.337157,-10.0119 -2.337157,-4.2953 -6.664056,-6.6008 -4.295316,-2.3372 -9.885543,-2.3372 -7.043055,0 -12.254284,2.9372 -5.211228,2.9057 -7.958967,8.338 -2.747739,5.4007 -2.747739,12.507 0,9.6328 5.084896,14.8125 5.084896,5.1796 14.654607,5.1796 6.632473,0 13.770277,-2.7161 l 0,4.2005 q -6.063975,2.653 -13.770277,2.653 -11.464703,0 -17.812928,-6.285 -6.316641,-6.3167 -6.316641,-17.6235 0,-8.2116 3.379403,-14.623 3.379403,-6.4114 9.632878,-9.9171 6.253474,-3.5373 14.338775,-3.5373 6.790389,0 12.064784,2.874 5.305979,2.8425 8.18005,8.1169 2.905655,5.2428 2.905655,12.0964 z m -32.657034,4.1374 q 0,8.0221 6.158725,8.0221 6.537724,0 7.106221,-9.8855 l 0.442165,-8.2432 q -2.273991,-0.6317 -4.958563,-0.6317 -4.105817,0 -6.442974,2.8425 -2.305574,2.8425 -2.305574,7.8958 z"
         style="font-style:normal;font-variant:normal;font-weight:normal;font-stretch:normal;font-family:'Open Sans';-inkscape-font-specification:'Open Sans';text-align:center;text-anchor:middle;fill:#f7efe4;fill-opacity:1"
         id="path4246" />
    </g>
    <g
       id="g4533"
       style="font-style:normal;font-variant:normal;font-weight:normal;font-stretch:normal;font-size:64.68240356px;line-height:125%;font-family:'Open Sans';-inkscape-font-specification:'Open Sans';letter-spacing:0px;word-spacing:0px;opacity:1;fill:#86704f;fill-opacity:1;stroke:none"
       transform="matrix(0.9190093,0,0,0.85013494,6.6977251,114.77339)">
      <path
         style="font-style:normal;font-variant:normal;font-weight:normal;font-stretch:normal;font-family:'Open Sans';-inkscape-font-specification:'Open Sans';text-align:center;text-anchor:middle;fill:#86704f;fill-opacity:1"
         d="M 51.054688 24.070312 C 46.101043 24.070312 41.708287 25.073337 37.876953 27.078125 C 34.045619 29.065004 31.095859 31.876062 29.025391 35.509766 C 26.954922 39.143469 25.919922 43.287428 25.919922 47.941406 C 25.919922 48.086734 25.933556 48.221361 25.935547 48.365234 C 26.018488 43.946713 27.041483 39.991552 29.025391 36.509766 C 31.095859 32.876059 34.045618 30.064998 37.876953 28.078125 C 41.708287 26.073332 46.101043 25.070312 51.054688 25.070312 C 55.214975 25.070312 58.911099 25.884812 62.142578 27.513672 C 65.393407 29.124679 67.899291 31.424763 69.660156 34.414062 C 71.347424 37.230313 72.224404 40.463257 72.3125 44.099609 C 72.314952 43.964436 72.330078 43.835629 72.330078 43.699219 C 72.330078 39.814896 71.440372 36.385454 69.660156 33.414062 C 67.899291 30.424761 65.393407 28.124678 62.142578 26.513672 C 58.911099 24.884813 55.214975 24.070312 51.054688 24.070312 z M 50.359375 34.783203 C 46.644142 34.783203 43.644649 35.929533 41.361328 38.220703 C 39.078008 40.494021 37.935547 43.455809 37.935547 47.107422 C 37.935547 47.294297 37.947406 47.472019 37.953125 47.654297 C 38.04582 44.213414 39.174807 41.397642 41.361328 39.220703 C 43.644649 36.92953 46.644142 35.783203 50.359375 35.783203 C 51.675187 35.783203 53.16401 35.900159 54.828125 36.132812 C 56.470111 36.344756 57.949761 36.646949 59.271484 37.033203 L 59.328125 36.046875 C 57.992963 35.653036 56.49224 35.347613 54.828125 35.132812 C 53.164011 34.900159 51.675187 34.783203 50.359375 34.783203 z M 54.859375 39.611328 L 54.509766 45.630859 C 54.161463 51.233532 51.984002 54.035156 47.978516 54.035156 C 44.31349 54.035156 42.443043 51.871462 42.337891 47.582031 C 42.329766 47.792031 42.318359 47.997637 42.318359 48.214844 C 42.318359 52.761444 44.205232 55.035156 47.978516 55.035156 C 51.984002 55.035156 54.161463 52.233526 54.509766 46.630859 L 54.916016 39.623047 C 54.897598 39.618314 54.877837 39.615998 54.859375 39.611328 z M 68.400391 44.197266 C 68.336917 47.021381 67.793153 49.347421 66.757812 51.162109 C 65.654852 53.077407 64.223757 54.035156 62.462891 54.035156 C 59.949851 54.035156 58.672391 52.504866 58.613281 49.466797 L 58.601562 49.666016 L 58.601562 50.255859 C 58.601562 53.442059 59.889318 55.035156 62.462891 55.035156 C 64.223757 55.035156 65.654853 54.077443 66.757812 52.162109 C 67.860772 50.228909 68.412109 47.723331 68.412109 44.644531 C 68.412109 44.493002 68.403523 44.347034 68.400391 44.197266 z M 29.96875 48.177734 C 29.964824 48.369976 29.953125 48.557457 29.953125 48.751953 C 29.953125 54.211353 31.511575 58.410036 34.626953 61.345703 C 37.742331 64.281236 42.230648 65.748047 48.09375 65.748047 C 52.157286 65.748047 56.376861 64.978786 60.75 63.439453 L 60.75 62.439453 C 56.376861 63.978821 52.157286 64.748047 48.09375 64.748047 C 42.230648 64.748047 37.742331 63.281276 34.626953 60.345703 C 31.594966 57.488653 30.049909 53.425303 29.96875 48.177734 z "
         transform="matrix(1.0881283,0,0,1.1762838,-7.287984,989.9473)"
         id="path4535" />
    </g>
  </g>
</svg>
